<svg width="26" height="25" viewBox="0 0 26 25" fill="none" xmlns="http://www.w3.org/2000/svg">
<g clip-path="url(#clip0_990_5547)">
<path d="M10.5055 12.8347C10.6557 12.8347 10.7775 12.7129 10.7775 12.5626C10.7775 12.4123 10.6557 12.2905 10.5055 12.2905C10.3552 12.2905 10.2334 12.4123 10.2334 12.5626C10.2334 12.7129 10.3552 12.8347 10.5055 12.8347Z" fill="#26A387"/>
<path d="M11.5152 11.8259C11.6655 11.8259 11.7873 11.7041 11.7873 11.5538C11.7873 11.4035 11.6655 11.2817 11.5152 11.2817C11.365 11.2817 11.2432 11.4035 11.2432 11.5538C11.2432 11.7041 11.365 11.8259 11.5152 11.8259Z" fill="#26A387"/>
<path d="M13.2281 12.8347C13.3784 12.8347 13.5002 12.7129 13.5002 12.5626C13.5002 12.4123 13.3784 12.2905 13.2281 12.2905C13.0779 12.2905 12.9561 12.4123 12.9561 12.5626C12.9561 12.7129 13.0779 12.8347 13.2281 12.8347Z" fill="#26A387"/>
<path d="M15.0885 12.8347C15.2387 12.8347 15.3605 12.7129 15.3605 12.5626C15.3605 12.4123 15.2387 12.2905 15.0885 12.2905C14.9382 12.2905 14.8164 12.4123 14.8164 12.5626C14.8164 12.7129 14.9382 12.8347 15.0885 12.8347Z" fill="#26A387"/>
<path d="M13.2281 11.5197C13.3784 11.5197 13.5002 11.3979 13.5002 11.2477C13.5002 11.0974 13.3784 10.9756 13.2281 10.9756C13.0779 10.9756 12.9561 11.0974 12.9561 11.2477C12.9561 11.3979 13.0779 11.5197 13.2281 11.5197Z" fill="#26A387"/>
<path d="M14.816 11.5197C14.9663 11.5197 15.0881 11.3979 15.0881 11.2477C15.0881 11.0974 14.9663 10.9756 14.816 10.9756C14.6658 10.9756 14.5439 11.0974 14.5439 11.2477C14.5439 11.3979 14.6658 11.5197 14.816 11.5197Z" fill="#26A387"/>
<path d="M3.625 19.9217C3.62503 20.2118 3.68983 20.4983 3.81466 20.7603C3.9395 21.0222 4.12122 21.253 4.34659 21.4357C4.25811 21.565 4.21083 21.7181 4.21094 21.8748V23.4373C4.21141 23.8515 4.37618 24.2487 4.66911 24.5416C4.96203 24.8345 5.35918 24.9993 5.77344 24.9998H20.2266C20.6408 24.9993 21.038 24.8345 21.3309 24.5416C21.6238 24.2487 21.7886 23.8515 21.7891 23.4373V21.8748C21.7892 21.7181 21.7419 21.565 21.6534 21.4357C21.8788 21.253 22.0605 21.0222 22.1853 20.7603C22.3102 20.4983 22.375 20.2118 22.375 19.9217V18.7498C22.375 18.7283 22.3725 18.7075 22.3718 18.6862L22.3691 18.6912C22.1686 19.0348 21.9056 19.3379 21.5938 19.5849V19.9217C21.5934 20.2323 21.4698 20.5302 21.2501 20.7499C21.0304 20.9696 20.7326 21.0932 20.4219 21.0935H5.57812C5.26743 21.0932 4.96955 20.9696 4.74986 20.7499C4.53016 20.5302 4.40659 20.2323 4.40625 19.9217V18.7498C4.4067 18.6896 4.4118 18.6295 4.4215 18.5701C4.25074 18.3568 4.11679 18.1165 4.02516 17.859C3.9807 17.8281 3.94008 17.7927 3.89808 17.7588C3.71952 18.0585 3.62518 18.4009 3.625 18.7498V19.9217ZM20.4219 21.8748H21.0078V23.4373C21.0076 23.6444 20.9252 23.843 20.7788 23.9895C20.6323 24.1359 20.4337 24.2183 20.2266 24.2185H5.77344C5.5663 24.2183 5.36771 24.1359 5.22124 23.9895C5.07477 23.843 4.99239 23.6444 4.99219 23.4373V21.8748H20.4219Z" fill="#26A387"/>
<path d="M3.82031 15.9721C3.82043 16.2608 3.9028 16.5434 4.05779 16.787C4.21277 17.0305 4.43395 17.2248 4.6954 17.3471C4.75171 17.7091 4.9322 18.0401 5.20591 18.2835C5.47963 18.5269 5.8295 18.6675 6.19553 18.6811H6.37502C6.39136 19.0819 6.56507 19.4601 6.85846 19.7337C7.15186 20.0073 7.54128 20.1541 7.94225 20.1424C8.34322 20.1306 8.7234 19.9613 9.00031 19.6711C9.27722 19.3808 9.42854 18.9931 9.42143 18.5921V17.7561C9.41278 17.5599 9.47657 17.3674 9.60064 17.2152C9.72472 17.0629 9.90043 16.9617 10.0943 16.9306C10.1952 16.9207 10.297 16.9323 10.3931 16.9645C10.4891 16.9967 10.5773 17.0488 10.6519 17.1175C10.7328 17.192 10.7974 17.2825 10.8415 17.3832C10.8857 17.484 10.9084 17.5929 10.9082 17.7029L10.9069 17.8782C10.8701 18.3043 10.9601 18.7318 11.1657 19.1069C11.314 19.3426 11.5324 19.5259 11.7902 19.6313C12.048 19.7366 12.3323 19.7586 12.6033 19.6941C12.8945 19.6438 13.1598 19.4958 13.3556 19.2744C13.5514 19.0531 13.6659 18.7716 13.6803 18.4765V17.9358C13.7603 17.6588 14.1808 17.6561 14.2049 17.658C14.4066 17.6631 14.5981 17.7479 14.7375 17.8938C14.8768 18.0398 14.9527 18.2351 14.9483 18.4368V18.8139C14.9407 19.1245 15.031 19.4296 15.2065 19.6859C15.3821 19.9422 15.6339 20.1367 15.9262 20.2417C16.0644 20.288 16.2091 20.3117 16.3548 20.3119C16.5687 20.3119 16.7793 20.2599 16.9686 20.1605C17.1447 20.0664 17.3001 19.938 17.4258 19.7828C17.5514 19.6277 17.6448 19.4489 17.7003 19.2572C17.7425 19.1338 17.8142 19.0226 17.9093 18.9333C18.0043 18.844 18.1198 18.7793 18.2456 18.7449C18.6793 18.6081 19.0238 18.6396 19.2698 18.8372C19.367 18.9331 19.4324 19.0565 19.4573 19.1908C19.4812 19.2805 19.5362 19.3587 19.6126 19.4115C19.6889 19.4643 19.7816 19.4882 19.8739 19.4788C20.2488 19.4392 20.609 19.3117 20.9253 19.1066C21.2416 18.9015 21.505 18.6246 21.6941 18.2985C21.9728 17.8467 22.0621 17.3032 21.9426 16.786C22.141 16.4747 22.2187 16.1016 22.1612 15.737C22.1038 15.3724 21.915 15.0413 21.6305 14.8061C21.7689 14.5948 21.8194 14.3379 21.7713 14.09C21.2548 11.3954 17.9841 9.31561 13.9766 9.02148V6.25H21.7891C21.8927 6.24999 21.992 6.20884 22.0653 6.13558C22.1385 6.06233 22.1797 5.96297 22.1797 5.85938V0.390625C22.1797 0.287026 22.1385 0.187672 22.0653 0.114417C21.992 0.0411619 21.8927 5.17954e-06 21.7891 0L13.5859 0C13.4823 5.17954e-06 13.383 0.0411619 13.3097 0.114417C13.2365 0.187672 13.1953 0.287026 13.1953 0.390625V8.98739C13.1302 8.98645 13.0654 8.98438 13 8.98438C8.5574 8.98438 4.78658 11.1794 4.22868 14.09C4.18056 14.3379 4.23108 14.5948 4.36949 14.8061C4.19779 14.9481 4.05954 15.1262 3.96461 15.3278C3.86968 15.5293 3.82041 15.7493 3.82031 15.9721ZM21.3984 2.73438H18.2734V2.14844H21.3984V2.73438ZM17.8828 3.51562H21.3984V4.10156H13.9766V3.51562H17.8828ZM13.9766 5.46875V4.88281H21.3984V5.46875H13.9766ZM21.3984 1.36719H18.2734V0.78125H21.3984V1.36719ZM13.9766 0.78125H17.4922V2.73438H13.9766V0.78125ZM21.2138 16.4589C21.1642 16.5149 21.1317 16.5839 21.1202 16.6579C21.1087 16.7318 21.1187 16.8074 21.149 16.8758C21.2072 17.046 21.2257 17.2273 21.2032 17.4057C21.1806 17.5841 21.1176 17.7551 21.0189 17.9054C20.8148 18.263 20.4805 18.5279 20.0858 18.6449C20.0092 18.4836 19.8978 18.3413 19.7595 18.2283C19.3038 17.8621 18.699 17.7832 18.0106 17.9998C17.7626 18.0725 17.5363 18.2051 17.3516 18.3858C17.1668 18.5665 17.0293 18.7898 16.9511 19.0361C16.8982 19.22 16.7744 19.3754 16.607 19.4681C16.5408 19.5034 16.4681 19.5246 16.3933 19.5302C16.3185 19.5357 16.2434 19.5257 16.1727 19.5005C16.0371 19.4457 15.9217 19.3503 15.8424 19.2274C15.7631 19.1045 15.7237 18.9601 15.7296 18.8139V18.4368C15.7343 18.0293 15.5775 17.6365 15.2935 17.3443C15.0095 17.052 14.6213 16.884 14.2139 16.877C14.2051 16.8766 14.1961 16.8766 14.187 16.8766C13.7906 16.8766 13.0483 17.0706 12.906 17.8186C12.9014 17.8427 12.8991 17.8672 12.8991 17.8917V18.4698C12.8842 18.5864 12.8312 18.6948 12.7482 18.7781C12.6652 18.8614 12.557 18.9148 12.4404 18.93C12.3252 18.9599 12.2035 18.9525 12.0928 18.9088C11.9822 18.8651 11.8882 18.7874 11.8245 18.6869C11.7067 18.4367 11.6596 18.1591 11.6881 17.8841L11.6895 17.7059C11.6898 17.4866 11.6445 17.2696 11.5564 17.0688C11.4682 16.868 11.3392 16.6877 11.1775 16.5396C11.0227 16.3974 10.8396 16.2894 10.6403 16.2228C10.4409 16.1561 10.2297 16.1323 10.0205 16.1528C9.63348 16.2033 9.27867 16.3949 9.02399 16.6907C8.76932 16.9865 8.63266 17.3658 8.64018 17.7561V18.5921C8.64393 18.7921 8.56823 18.9854 8.42969 19.1296C8.29114 19.2739 8.10105 19.3573 7.90108 19.3617C7.69874 19.3573 7.5064 19.2728 7.36622 19.1268C7.22604 18.9809 7.14944 18.7853 7.15321 18.5829C7.15421 18.403 7.0838 18.2301 6.95743 18.102C6.83106 17.974 6.65905 17.9013 6.47915 17.8999H6.19553C5.9885 17.882 5.79617 17.7855 5.65796 17.6303C5.51976 17.4751 5.44616 17.273 5.45224 17.0652C5.45222 16.9785 5.42335 16.8942 5.37017 16.8257C5.31699 16.7572 5.24252 16.7083 5.15851 16.6868C4.98364 16.6427 4.83102 16.536 4.7295 16.3869C4.62799 16.2378 4.58461 16.0567 4.60759 15.8779C4.63056 15.699 4.71829 15.5347 4.85418 15.4161C4.99007 15.2976 5.1647 15.2329 5.34505 15.2344H20.655C20.8513 15.2338 21.0399 15.3112 21.1792 15.4495C21.3186 15.5878 21.3974 15.7758 21.3984 15.9721C21.3984 16.1515 21.3328 16.3247 21.2138 16.4589ZM5.15012 14.4531C5.12795 14.4525 5.10621 14.4469 5.08643 14.4369C5.06665 14.4269 5.04932 14.4126 5.03567 14.3951C5.0178 14.3734 5.00496 14.3479 4.99807 14.3206C4.99117 14.2933 4.9904 14.2648 4.99581 14.2372C5.48466 11.688 8.92552 9.76562 13 9.76562C13.0654 9.76562 13.1302 9.76751 13.1953 9.7685V10.1562C13.1953 10.2599 13.2365 10.3592 13.3097 10.4325C13.383 10.5057 13.4823 10.5469 13.5859 10.5469C13.6895 10.5469 13.7889 10.5057 13.8622 10.4325C13.9354 10.3592 13.9766 10.2599 13.9766 10.1562V9.80412C17.6123 10.0827 20.555 11.8947 21.0042 14.2372C21.0096 14.2648 21.0088 14.2933 21.0019 14.3206C20.995 14.3479 20.9822 14.3734 20.9643 14.3951C20.9507 14.4126 20.9334 14.4269 20.9136 14.4369C20.8938 14.4469 20.872 14.4525 20.8499 14.4531H5.15012Z" fill="#26A387"/>
</g>
<defs>
<clipPath id="clip0_990_5547">
<rect width="25" height="25" fill="white" transform="translate(0.5)"/>
</clipPath>
</defs>
</svg>
