<svg width="26" height="25" viewBox="0 0 26 25" fill="none" xmlns="http://www.w3.org/2000/svg">
<g clip-path="url(#clip0_990_5632)">
<path d="M24.6935 20.5407V17.4343C24.6935 16.8484 24.569 16.2621 24.3327 15.7262C24.569 15.1899 24.6935 14.6036 24.6935 14.0177V10.8871C24.6935 10.2202 24.1508 9.67742 23.4839 9.67742H18.9992C18.8161 9.44677 18.5988 9.24436 18.3472 9.08911C18.5117 8.56936 18.5061 8.00202 18.3246 7.48387L16.1065 1.14556C15.8665 0.460484 15.2177 0 14.4919 0C14.248 0 14.0109 0.0504032 13.7879 0.149194L11.2411 1.28145C10.7024 1.52056 10.248 1.91976 9.94073 2.41935H9.45161C9.07903 2.41935 8.71492 2.48952 8.36855 2.62782L5.65524 3.71331C4.97298 3.98589 4.53226 4.63669 4.53226 5.37137C4.53226 5.60565 4.57742 5.83427 4.66653 6.05161L6.15968 9.67742H2.51613C1.84919 9.67742 1.30645 10.2202 1.30645 10.8871V14.0177C1.30645 14.6036 1.43105 15.1899 1.66734 15.7258C1.43105 16.2617 1.30645 16.848 1.30645 17.4339V20.5403C0.771774 20.9109 0.5 21.3254 0.5 21.7742C0.5 23.8919 6.78831 25 13 25C19.2117 25 25.5 23.8919 25.5 21.7742C25.5 21.325 25.2282 20.9113 24.6935 20.5407ZM23.8871 10.8871V14.0177C23.8871 14.4645 23.7927 14.9097 23.6222 15.3226H21.6544L19.4552 10.4839H23.4839C23.706 10.4839 23.8871 10.6645 23.8871 10.8871ZM23.8871 17.4339V20.5645C23.8871 20.7871 23.706 20.9677 23.4839 20.9677H20.323L21.9282 20.4327C22.6177 20.2032 23.0806 19.5609 23.0806 18.8343C23.0806 18.5871 23.0286 18.3472 22.9262 18.121L22.0206 16.129H23.6218C23.7927 16.5419 23.8871 16.9871 23.8871 17.4339ZM8.86532 14.4024C8.71532 14.019 8.72581 13.5948 8.87621 13.2145L9.67016 12.9036L12.1714 19.5141C12.4298 20.1968 12.4448 20.954 12.2137 21.6464L12.9786 21.9016C13.2681 21.0339 13.2488 20.0843 12.925 19.229L10.4206 12.6097L13.054 11.5794L16.5847 20.925C16.3669 21.2766 16.0431 21.5444 15.646 21.677L13.0754 22.5339C12.9819 22.5649 12.8847 22.5806 12.7859 22.5806H12.6907C12.3109 22.5806 11.9762 22.3524 11.8379 21.9988L8.86532 14.4024ZM18.5903 10.5315L22.1919 18.4544C22.2464 18.575 22.2742 18.7028 22.2742 18.8343C22.2742 19.2129 22.0327 19.548 21.6734 19.6677L18.5665 20.7032C18.1629 20.8375 17.7367 20.8157 17.3468 20.6581L13.806 11.2851L17.8161 9.71573C18.156 9.89395 18.431 10.181 18.5903 10.5315ZM11.5685 2.01855L14.1157 0.88629C14.2347 0.833064 14.3613 0.806452 14.4919 0.806452C14.8754 0.806452 15.2181 1.05 15.3452 1.41169L17.5633 7.75C17.7012 8.14435 17.6823 8.57702 17.5274 8.9629L13.5202 10.531L10.6238 2.86331C10.8464 2.49395 11.1726 2.19435 11.5685 2.01855ZM5.33871 5.37137C5.33871 4.96855 5.58024 4.61169 5.95444 4.4621L8.66774 3.37661C8.91855 3.27661 9.18226 3.22581 9.45161 3.22581H9.89839L12.769 10.8246L10.1355 11.8552L8.18306 6.69516C7.85323 5.82339 7.15686 5.15403 6.27258 4.85927L6.01734 5.62379C6.67097 5.84194 7.18508 6.33629 7.42863 6.97984L9.38427 12.1484L8.5879 12.4601C8.25161 12.2827 7.98589 11.9956 7.84113 11.6435L5.4121 5.74355C5.36371 5.6254 5.33871 5.5 5.33871 5.37137ZM2.1129 10.8871C2.1129 10.6645 2.29395 10.4839 2.51613 10.4839H6.49153L7.09597 11.9516C7.29032 12.4234 7.62742 12.8202 8.05685 13.0883C7.89435 13.6113 7.9121 14.1798 8.11452 14.696L8.35968 15.3226H2.37782C2.20726 14.9097 2.1129 14.4645 2.1129 14.0177V10.8871ZM2.1129 17.4339C2.1129 16.9871 2.20726 16.5419 2.37782 16.129H8.675L9.9371 19.3548H3.89274C3.41694 19.3548 2.97016 19.5399 2.63387 19.8762L3.20444 20.4464C3.38831 20.2625 3.63266 20.1613 3.89274 20.1613H10.2528L10.5685 20.9677H2.51613C2.29395 20.9677 2.1129 20.7871 2.1129 20.5645V17.4339ZM13 24.1935C5.75524 24.1935 1.30645 22.7847 1.30645 21.7742C1.30645 21.6468 1.41371 21.4956 1.59516 21.3395C1.81734 21.6028 2.14516 21.7742 2.51613 21.7742H10.8843L11.0871 22.2923C11.3472 22.9577 11.9766 23.3871 12.6907 23.3871H12.7859C12.9714 23.3871 13.1548 23.3573 13.3306 23.2984L15.9012 22.4415C16.3077 22.306 16.6653 22.0758 16.9524 21.7742H23.4839C23.8548 21.7742 24.1827 21.6028 24.4048 21.3395C24.5863 21.4956 24.6935 21.6468 24.6935 21.7742C24.6935 22.7847 20.2448 24.1935 13 24.1935Z" fill="#26A387"/>
</g>
<defs>
<clipPath id="clip0_990_5632">
<rect width="25" height="25" fill="white" transform="translate(0.5)"/>
</clipPath>
</defs>
</svg>
