<svg width="26" height="25" viewBox="0 0 26 25" fill="none" xmlns="http://www.w3.org/2000/svg">
<path d="M1.83178 16.9515C2.38676 19.5999 5.67027 21.1291 7.5781 21.8049C9.21331 22.3845 11.0479 22.6707 13.1486 22.6707C13.7363 22.6707 14.3452 22.6485 14.9761 22.6035C16.4813 22.497 18.7065 22.2345 20.6453 21.19C22.2826 20.3082 23.523 18.9251 24.0486 17.3952C24.3481 16.5237 24.3472 15.7219 24.3463 14.8735L24.3461 14.7535C24.3458 14.2214 24.3325 13.5576 24.3193 12.8934C24.2668 10.2969 24.5045 9.32275 23.6144 8.07256C23.1539 4.86051 18.601 2.32959 13.0672 2.32959C7.45232 2.32959 2.84647 4.93535 2.50193 8.21444C1.95519 9.03268 1.66505 9.98846 1.75004 10.9897C1.71565 11.1408 1.7755 11.0761 1.6998 13.0424C1.64708 14.4036 1.59259 15.8108 1.83178 16.9515ZM2.46371 10.5808C3.40144 13.6133 7.77253 15.9148 13.0106 15.9148C18.3015 15.9148 22.7076 13.5668 23.5845 10.489C23.6611 14.7257 17.5007 16.6575 13.1049 16.6575C8.81917 16.6575 2.37986 14.7401 2.46371 10.5808ZM12.0238 4.40125C12.3496 4.39017 12.618 4.37855 12.9172 4.28289C12.7976 4.36162 12.6612 4.42088 12.5308 4.45786C12.1448 4.56726 11.7392 4.5733 11.3386 4.72783C10.0175 5.23927 9.92098 7.02103 10.3703 6.93323C10.4689 6.91625 10.5352 6.82249 10.5182 6.72412C10.4022 6.04548 10.8199 5.31695 11.4691 5.06609C11.668 4.98931 11.8817 4.95287 12.108 4.91465C12.5182 4.84509 12.9305 4.77572 13.2827 4.45715C13.2561 4.59479 13.2038 4.72323 13.1282 4.8223C12.9168 5.10133 12.6356 5.34005 12.4361 5.66583C12.2412 5.98533 12.1129 6.49449 12.3933 6.87804C12.5345 7.07047 12.828 6.85888 12.6859 6.66433C12.3823 6.24922 12.8201 5.71825 13.1219 5.38595C13.4482 5.02789 13.66 4.79491 13.658 4.2445C14.2715 4.77827 13.9473 5.41563 13.9548 5.82752C13.9631 6.27038 14.2713 6.55853 14.4892 6.55853C14.7022 6.55853 14.7391 6.25169 14.5317 6.20117C14.0392 6.08272 14.6375 5.18838 14.2401 4.41115C14.8585 4.6936 14.9122 5.87105 15.7987 5.87105C16.3925 5.87105 16.1801 5.369 15.9235 5.48396C15.411 5.71889 15.1537 4.80423 14.8272 4.41187C15.4121 4.55463 15.964 4.71226 16.4385 5.01585C17.2928 5.56304 17.7882 6.59321 17.7324 7.59896C17.631 7.49959 17.5457 7.35841 17.3287 7.38189C17.2017 7.3971 17.092 7.47778 17.04 7.59454C16.8447 8.03457 16.6797 7.9723 16.2423 8.06477C14.6674 8.39555 13.4037 8.75685 12.7226 10.2217C12.2298 9.56252 11.5112 9.07283 10.7013 8.89485C9.81027 8.6988 9.88788 7.97324 9.42331 8.01701C9.29257 8.02939 9.17864 8.11148 9.12574 8.23178C9.10425 8.28043 9.02685 8.32855 8.9207 8.36995C8.43069 6.50667 9.66758 4.478 12.0238 4.40125ZM12.968 13.9224C13.0231 14.0071 13.0844 14.0867 13.1514 14.1617C13.1233 14.1619 12.9072 14.1607 12.8271 14.1596C12.8775 14.0825 12.9241 14.0032 12.968 13.9224ZM14.4363 14.1083C13.4714 13.8722 13.4326 13.1005 13.3349 12.886C13.4464 12.2903 13.4137 11.7131 13.2087 11.1252C13.792 8.47378 16.6732 9.17249 17.4266 8.32767C17.121 9.3598 15.5998 9.39557 14.7045 9.84346C13.6378 10.3778 13.4669 11.4873 13.8545 11.4873C13.8569 11.4873 13.8594 11.4873 13.8619 11.4873C14.2497 11.4709 13.7181 10.7425 14.8669 10.1676C15.7054 9.74729 16.8858 9.76739 17.5468 8.87786C17.7511 9.82429 16.5914 9.99156 16.1179 10.7026C15.9238 10.9937 15.8325 11.459 16.0908 11.7934C16.1517 11.8727 16.2659 11.8871 16.3449 11.8259C16.5928 11.6345 16.0615 11.4408 16.4194 10.9035C16.8096 10.3172 17.8929 10.1272 17.9251 9.10148C18.2373 9.65285 17.8397 10.2899 18.0448 10.9555C18.1379 11.2574 18.3992 11.5751 18.7734 11.6052C18.7783 11.6055 18.7833 11.6059 18.7881 11.6059C18.8815 11.6059 18.9609 11.534 18.9685 11.4392C18.9927 11.1354 18.5574 11.3882 18.3911 10.8487C18.2182 10.287 18.6116 9.64203 18.2665 8.96933C19.1527 9.60328 18.975 10.1295 19.5309 10.5317C19.7695 10.7041 20.0904 10.7574 20.3451 10.6169C20.5562 10.5009 20.378 10.1831 20.1703 10.2999C19.855 10.4735 19.5642 10.1007 19.3975 9.78366C19.1978 9.40888 19.1564 9.27189 18.8344 8.96915C19.0001 9.02488 19.1555 9.07212 19.2882 9.10962C20.3837 9.41834 21.2681 10.3664 21.5105 11.4773C20.0054 12.8766 17.4343 13.8727 14.4363 14.1083ZM8.61703 9.19083C8.05723 10.0103 6.2104 9.87785 6.12176 11.1976C6.10608 11.4301 6.46661 11.4712 6.48337 11.2216C6.54832 10.2509 8.19703 10.2818 8.84799 9.48857C8.75382 9.93305 8.34392 10.3006 8.08461 10.7149C7.70891 11.3172 7.78939 12.0347 8.08125 12.0347C8.21337 12.0347 8.30135 11.8968 8.24507 11.7768C8.04477 11.3484 8.40432 10.8649 8.66843 10.5267C8.93568 10.1837 9.24091 9.77693 9.22535 9.30529C9.94364 9.78559 9.97024 11.0489 10.0457 11.3097C10.1624 11.7121 10.446 11.9013 10.5715 11.9013C10.766 11.9013 10.8235 11.6347 10.646 11.5549C10.2433 11.3741 10.4471 10.6767 10.0609 9.81604C10.2753 9.94377 10.5115 10.0883 10.65 10.2921C10.8299 10.5564 10.9762 11.2761 11.5834 11.2761C11.8029 11.2761 11.9889 11.147 11.8985 10.9732C11.7735 10.7346 11.5382 11.0981 11.2784 10.7195C11.16 10.5476 11.0945 10.3016 10.9497 10.0883C10.7723 9.82771 10.5103 9.66265 10.2695 9.519C10.6045 9.63834 12.0537 9.85948 12.5542 11.436C12.8427 12.345 12.614 13.3877 11.9712 14.0926C11.962 14.1027 11.9588 14.1156 11.951 14.1264C8.9253 13.9335 6.31176 12.967 4.74829 11.5873C4.79933 11.5482 4.84418 11.5003 4.86921 11.436C5.37836 10.1336 6.74219 9.21117 8.13875 9.21117C8.17183 9.21117 8.20509 9.21188 8.23817 9.21259C8.32945 9.2163 8.464 9.21135 8.61703 9.19083ZM23.2678 10.2884C22.5175 13.2637 18.2039 15.5525 13.0106 15.5525C7.51548 15.5525 3.00719 12.9897 2.66133 9.76261C4.71547 16.2896 20.2819 16.6555 23.2678 10.2884ZM22.085 10.8552C21.2792 8.63393 19.3319 8.44801 18.4158 8.02443C18.6582 6.59403 17.9664 4.9751 16.5167 4.2284C16.5159 4.22805 16.5153 4.22752 16.5145 4.22716L16.5137 4.22698C15.7435 3.83144 14.8836 3.69449 14.1048 3.48872C13.9068 3.43636 13.8288 3.37161 13.8221 3.37161C13.8193 3.24087 13.7469 3.1257 13.6384 3.06413C20.3756 3.28198 24.8946 7.29311 22.085 10.8552ZM13.3021 3.05759C12.9938 3.20791 13.2398 3.47416 12.6035 3.62035C12.417 3.66281 12.2141 3.66989 11.9992 3.67696C11.8789 3.68121 11.7587 3.68546 11.639 3.69536C9.31522 3.88752 7.61971 6.11477 8.2034 8.48937C6.52582 8.46371 4.88636 9.53775 4.23577 11.0783C0.741425 7.13247 6.3671 2.96366 13.3021 3.05759ZM13.1049 17.3821C17.9704 17.3821 22.0176 15.6126 23.5977 13.0658C23.6099 13.6708 23.6213 14.2679 23.6215 14.7539L23.6217 14.8742C23.6226 15.6947 23.6233 16.4031 23.3632 17.1595C23.2266 17.5572 23.0287 17.942 22.7882 18.3107C22.5358 17.6105 22.3875 16.8807 22.3569 16.1359C22.3527 16.0358 22.2635 15.9551 22.1685 15.9622C22.0686 15.9664 21.9909 16.051 21.995 16.1508C22.0296 16.9954 22.2025 17.8233 22.5082 18.6109C22.5162 18.6315 22.5332 18.644 22.5471 18.6596C22.0976 19.251 21.5225 19.7849 20.8517 20.224C20.5462 19.4375 20.405 18.5798 20.4471 17.7377C20.4521 17.6376 20.3751 17.5526 20.2752 17.5477C20.1766 17.5325 20.0903 17.6195 20.0852 17.7193C20.0397 18.6293 20.1938 19.5578 20.5308 20.4045C20.5322 20.4079 20.5357 20.4091 20.5372 20.4123C20.4583 20.4586 20.3828 20.5083 20.3017 20.552C19.6934 20.8797 19.0168 21.1415 18.2607 21.3496C17.8905 20.5191 17.7347 19.601 17.8103 18.6944C17.8186 18.5947 17.7446 18.5069 17.6448 18.4988C17.5435 18.491 17.4575 18.5642 17.4494 18.664C17.3701 19.6123 17.5297 20.572 17.9082 21.4446C17.1787 21.6222 16.3682 21.749 15.4687 21.8332C15.175 20.9993 15.0511 20.0952 15.1143 19.2131C15.1215 19.1134 15.0463 19.0267 14.9466 19.0192C14.8501 19.0079 14.7601 19.0872 14.753 19.187C14.6884 20.0878 14.8123 21.0092 15.1006 21.8656C15.0409 21.8702 14.9853 21.8768 14.9248 21.881C14.1683 21.9344 13.4487 21.9519 12.7574 21.9394C12.7555 21.9245 12.755 21.9097 12.7491 21.8952C12.4006 21.0378 12.3357 20.0715 12.566 19.1746C12.5908 19.0776 12.5324 18.9789 12.4356 18.9541C12.3389 18.9308 12.2401 18.9874 12.215 19.0847C11.9748 20.0199 12.0342 21.024 12.3757 21.9268C11.6668 21.901 10.9888 21.8414 10.344 21.7428C10.3419 21.7264 10.3406 21.7097 10.3337 21.6938C9.98272 20.8776 9.88807 19.9491 10.0673 19.0787C10.0875 18.9807 10.0243 18.8852 9.92629 18.865C9.82863 18.8423 9.73257 18.9078 9.7124 19.0058C9.53027 19.8904 9.6128 20.83 9.93779 21.673C9.2503 21.5489 8.59687 21.3828 7.97617 21.1718C7.97485 21.1518 7.9721 21.1316 7.96379 21.1121C7.58307 20.2159 7.48028 19.1965 7.67436 18.2419C7.69417 18.1439 7.63084 18.0484 7.53282 18.0282C7.43464 18.0091 7.3391 18.0714 7.31929 18.1697C7.12733 19.1139 7.20898 20.1154 7.54175 21.0201C7.05144 20.837 6.49036 20.6026 5.92167 20.3121C5.92043 20.3038 5.92202 20.2957 5.91954 20.2874C5.62569 19.285 5.59951 18.2182 5.844 17.2027C5.86735 17.1054 5.80738 17.0074 5.71026 16.984C5.61172 16.961 5.51494 17.0205 5.49159 17.1178C5.25736 18.0922 5.25992 19.1102 5.49265 20.0823C4.91733 19.7595 4.35633 19.3775 3.87504 18.9373C3.87885 18.9142 3.87814 18.8899 3.8723 18.8657C3.62055 17.8237 3.67681 16.6925 4.03081 15.6805C4.06372 15.5861 4.01401 15.4828 3.91953 15.4498C3.82541 15.4162 3.72192 15.4665 3.68866 15.5609C3.36456 16.4876 3.27663 17.5077 3.42869 18.4809C2.9964 17.9863 2.6722 17.4295 2.54085 16.8029C2.307 15.6864 2.38068 14.1802 2.42798 12.9624C4.02533 15.539 8.20862 17.3821 13.1049 17.3821Z" fill="#26A387"/>
</svg>
