<svg width="26" height="25" viewBox="0 0 26 25" fill="none" xmlns="http://www.w3.org/2000/svg">
<path d="M18.1056 9.78577C18.0778 9.75802 18.0421 9.72227 17.9943 9.67477L18.1658 9.50452L18.3943 9.27752L18.6418 9.52502L18.7918 9.67477L18.6596 9.80777L18.3946 10.0748L18.3943 10.075C18.0423 9.72252 18.3096 9.98977 18.1056 9.78577ZM16.9861 10.3563L17.2623 10.078L17.3833 9.95627L17.2243 9.79727L16.9861 9.55902L16.7326 9.81077L16.5861 9.95652C16.6511 10.0213 16.6933 10.0638 16.7228 10.0933C16.8758 10.246 16.6508 10.021 16.9861 10.3563ZM13.2056 13.055C13.6056 13.455 13.2056 13.055 13.6056 13.455L14.0028 13.055L13.6056 12.6575L13.2056 13.055ZM12.3606 8.26602C12.7606 8.66602 12.3606 8.26602 12.7606 8.66602L13.1578 8.26602L12.7606 7.86877L12.3606 8.26602ZM6.43983 11.6448L6.39333 12.2063L6.67433 12.2295C7.43783 12.2923 8.19808 12.5768 8.81533 13.0303L9.04233 13.1973L9.37608 12.743L9.14883 12.5763C8.43883 12.0545 7.59933 11.7405 6.72058 11.668L6.43983 11.6448ZM9.45483 7.31277C9.46508 7.32302 9.47633 7.33152 9.48683 7.34102C9.60433 7.44777 9.74383 7.51827 9.87983 7.56402C9.97858 7.59727 10.0748 7.61827 10.1581 7.63102C10.2883 7.65052 10.4173 7.65677 10.5438 7.65677C10.6463 7.65677 10.7476 7.65277 10.8473 7.64877L11.1286 7.63777L11.1196 7.40877L11.1086 7.12477L11.1066 7.07477L10.8251 7.08577C10.6196 7.09352 10.4251 7.10127 10.2418 7.07402C10.0698 7.04777 9.92883 6.98977 9.85458 6.91552C9.80183 6.86202 9.76683 6.78327 9.72658 6.69227C9.68958 6.60777 9.64708 6.51227 9.58183 6.41802C9.34533 6.07752 8.86783 5.87677 8.39558 5.91927L8.11508 5.94477L8.16533 6.50577L8.44558 6.48052C8.55583 6.47052 8.66958 6.48527 8.77433 6.51652V7.04077C9.31108 7.04077 8.82733 7.04077 9.26733 7.04077C9.31233 7.13127 9.36783 7.22502 9.45483 7.31277ZM10.9518 8.54777C10.9576 8.55352 10.9616 8.55727 10.9666 8.56252C11.3391 8.93502 10.9573 8.55327 11.3516 8.94777L11.5358 8.76227L11.7488 8.54777L11.3516 8.15052L10.9518 8.54777ZM11.4673 6.29402L11.0701 5.89677L10.6701 6.29402C11.0701 6.69402 10.6701 6.29402 11.0701 6.69402L11.4673 6.29402ZM10.6223 5.44902L10.2251 5.05177L9.82508 5.44902C10.2251 5.84902 9.82508 5.44902 10.2251 5.84902L10.6223 5.44902ZM22.0146 10.9845C22.0146 11.286 21.9386 11.578 21.7988 11.8583L20.6058 17.214C20.5936 17.927 20.1773 18.5853 19.4608 19.1398L19.4583 19.173L19.4201 19.1703C18.1276 20.1488 15.8921 20.797 13.2818 20.8405V20.8438H13.0001H12.7186V20.8405C10.1083 20.7968 7.87283 20.1485 6.58058 19.1703L6.54208 19.173L6.53983 19.1398C5.82358 18.585 5.40708 17.927 5.39483 17.2143L4.18233 11.82C4.05458 11.5513 3.98633 11.272 3.98633 10.9843C3.98633 10.1938 4.49433 9.46527 5.37533 8.85427C5.40708 8.65927 5.43333 8.48277 5.45108 8.33602L5.46133 8.23902C5.46933 8.16102 5.47583 8.08977 5.47683 8.03602C5.49183 7.21652 5.65758 6.49527 5.95483 5.93377L5.95133 5.92652L6.03058 5.79427C6.21783 5.48177 6.43308 5.23652 6.68933 5.04502C7.20783 4.65652 7.84383 4.50802 8.40483 4.37702C8.84983 4.27302 9.35383 4.15527 9.86133 4.15527C9.98933 4.15527 10.1156 4.16302 10.2371 4.17827C10.8421 4.25427 11.4353 4.45477 11.9526 4.75827C13.4103 5.61327 16.0186 5.92502 17.5768 6.11102C18.1663 6.18152 18.5926 6.23252 18.8313 6.29352C19.3716 6.43177 19.9278 6.61502 20.3358 7.01677C20.7721 7.44627 20.9276 8.34277 20.9276 9.03852C20.9276 9.05177 20.9271 9.06427 20.9268 9.07752C21.6216 9.63977 22.0146 10.2883 22.0146 10.9845ZM20.0493 17.1205L21.0063 12.825C20.9988 12.8313 20.9928 12.8373 20.9851 12.8435C20.9758 12.8513 20.9656 12.859 20.9563 12.8665C20.9421 12.878 20.9276 12.8895 20.9133 12.901C20.8628 12.9415 20.8106 12.9818 20.7566 13.0215C20.7408 13.0333 20.7253 13.045 20.7093 13.0565C20.6431 13.1043 20.5751 13.1513 20.5043 13.1978C20.4891 13.2078 20.4731 13.2173 20.4576 13.2273C20.4026 13.2625 20.3466 13.2975 20.2891 13.3318C20.2593 13.3495 20.2293 13.3673 20.1991 13.3848C20.1538 13.4108 20.1073 13.4365 20.0606 13.4623C19.9901 13.5008 19.9183 13.5385 19.8446 13.5758C19.8171 13.5898 19.7898 13.6038 19.7618 13.6178C19.7036 13.6463 19.6446 13.6743 19.5846 13.702C19.5716 13.7083 19.5581 13.714 19.5451 13.7203C18.2518 14.3133 16.5308 14.7245 14.5756 14.8695C14.5666 14.8703 14.5578 14.8708 14.5488 14.8715C14.4583 14.8783 14.3671 14.8843 14.2758 14.8898C14.2223 14.893 14.1686 14.8958 14.1146 14.8985C14.0176 14.9035 13.9203 14.9083 13.8226 14.9118C13.7291 14.9153 13.6353 14.9185 13.5408 14.9208C13.4966 14.922 13.4523 14.923 13.4081 14.9238C13.2726 14.9263 13.1368 14.928 12.9996 14.928C12.8626 14.928 12.7266 14.926 12.5911 14.9238C12.5468 14.923 12.5026 14.9218 12.4583 14.9208C12.3638 14.9185 12.2701 14.9153 12.1766 14.9118C12.0781 14.908 11.9801 14.9035 11.8823 14.8983C11.8296 14.8955 11.7766 14.893 11.7241 14.8898C11.6318 14.8843 11.5401 14.878 11.4486 14.8713C11.4411 14.8708 11.4338 14.87 11.4261 14.8695C9.15058 14.701 7.19183 14.1718 5.85583 13.4155C5.84783 13.411 5.83958 13.4065 5.83133 13.4018C5.77958 13.3723 5.72883 13.3423 5.67883 13.3118C5.65433 13.297 5.63008 13.2818 5.60608 13.2668C5.55058 13.232 5.49583 13.1968 5.44283 13.1613C5.39508 13.1293 5.34808 13.0973 5.30233 13.0645C5.27458 13.0448 5.24833 13.0248 5.22158 13.0048C5.17958 12.9735 5.13858 12.942 5.09858 12.91C5.07783 12.8935 5.05683 12.877 5.03633 12.8603C5.02733 12.8528 5.01783 12.8458 5.00908 12.8385L4.98008 12.8143L5.95658 17.181C5.95658 17.5848 6.14458 17.9733 6.48083 18.331L6.23308 14.8645L6.07608 14.8005L6.28908 14.279L6.54983 14.3855C7.04483 14.5875 7.58458 14.763 8.15733 14.9118L8.19108 14.9095L8.19183 14.9208C9.63208 15.2918 11.2843 15.491 12.9993 15.491C14.7143 15.491 16.3666 15.2918 17.8068 14.9208L17.8076 14.9095L17.8413 14.9118C18.4141 14.7628 18.9538 14.5875 19.4486 14.3855L19.7093 14.279L19.9221 14.8005L19.7648 14.8648L19.5171 18.3313C19.8533 17.9735 20.0413 17.5853 20.0413 17.1813L20.0493 17.1205ZM18.9178 18.8348L19.1853 15.0888C18.9146 15.1858 18.6333 15.276 18.3431 15.3593L18.0801 19.3025C18.3916 19.1585 18.6721 19.0018 18.9178 18.8348ZM17.4993 19.5438L17.7681 15.5125C17.4106 15.6 17.0411 15.6773 16.6621 15.7443V19.8125C16.9558 19.732 17.2353 19.642 17.4993 19.5438ZM16.0986 19.9523V15.8353C15.7303 15.889 15.3541 15.9325 14.9718 15.9668V20.1508C15.3618 20.099 15.7383 20.0323 16.0986 19.9523ZM14.4086 20.2155V16.0108C14.0371 16.0343 13.6611 16.0475 13.2818 16.0523V20.2775C13.6648 20.2705 14.0416 20.2498 14.4086 20.2155ZM11.0281 20.151V15.967C10.6458 15.9328 10.2696 15.889 9.90133 15.8353V19.9523C10.2616 20.0323 10.6383 20.099 11.0281 20.151ZM9.33808 19.8128V15.7443C8.95908 15.6773 8.58958 15.6 8.23208 15.5125L8.50083 19.5438C8.76483 19.642 9.04433 19.732 9.33808 19.8128ZM7.91983 19.3025L7.65708 15.3593C7.36658 15.276 7.08558 15.1858 6.81483 15.0888L7.08233 18.8348C7.32808 19.0018 7.60858 19.1585 7.91983 19.3025ZM11.5916 20.2155C11.9586 20.2498 12.3351 20.2705 12.7183 20.2775V16.0523C12.3391 16.0475 11.9628 16.0343 11.5916 16.0108V20.2155ZM4.58008 10.7128C4.56108 10.8028 4.54883 10.8933 4.54883 10.9845C4.54883 10.9945 4.55058 11.0045 4.55083 11.0145C4.55583 11.2295 4.61308 11.4405 4.71933 11.6455C4.75683 11.7178 4.80133 11.7888 4.85058 11.8593C4.86908 11.708 4.90033 11.5095 4.94208 11.2663C4.95733 11.1783 4.97383 11.0845 4.99158 10.9845C5.00758 10.8955 5.02458 10.8015 5.04258 10.7028C5.06783 10.5643 5.09508 10.4173 5.12408 10.2595C5.15933 10.0688 5.19583 9.87227 5.23108 9.67802C4.88033 10.002 4.65633 10.3503 4.58008 10.7128ZM6.09033 7.39052C6.07658 7.49027 6.06633 7.58677 6.05883 7.68102C6.04833 7.80977 6.04158 7.93427 6.03958 8.04652C6.03883 8.08852 6.03583 8.13877 6.03083 8.19427C6.03108 8.19452 6.03108 8.19477 6.03133 8.19477C6.07733 8.25977 6.12733 8.32127 6.17933 8.38077C6.24483 8.45602 6.31508 8.52677 6.38983 8.59252C6.41833 8.61777 6.44683 8.64302 6.47658 8.66702L6.63183 8.79102L6.69708 8.84302L6.53258 9.04902L6.34583 9.28327L6.12558 9.10777C6.11108 9.09627 6.09783 9.08327 6.08358 9.07127C6.03183 9.02827 5.98083 8.98402 5.93233 8.93752C5.91933 9.01802 5.90558 9.10077 5.89083 9.18627C5.82833 9.55277 5.75308 9.96002 5.67858 10.3618C5.65758 10.4755 5.63658 10.5895 5.61583 10.7025C5.59833 10.798 5.58108 10.892 5.56433 10.9843C5.54683 11.0813 5.53008 11.1755 5.51408 11.266C5.44458 11.6638 5.39433 11.986 5.39433 12.111C5.39433 12.2255 5.40908 12.343 5.43883 12.4618C5.75458 12.7145 6.14208 12.9475 6.58783 13.1573C6.59408 13.1603 6.60083 13.1633 6.60733 13.1663C6.69683 13.208 6.78833 13.2485 6.88258 13.2885C6.92633 13.307 6.97008 13.3258 7.01483 13.344C7.04958 13.358 7.08508 13.372 7.12033 13.3858C7.18008 13.4093 7.24083 13.4325 7.30233 13.4553C7.32733 13.4645 7.35158 13.4738 7.37683 13.483C7.46833 13.5163 7.56158 13.5488 7.65658 13.5803C7.66308 13.5823 7.66958 13.5843 7.67633 13.5865C7.76758 13.6165 7.86058 13.646 7.95458 13.6745C7.97233 13.6798 7.98983 13.6853 8.00783 13.6905C8.21083 13.7513 8.42033 13.8085 8.63558 13.8618C8.65558 13.8668 8.67583 13.8713 8.69583 13.8763C8.78483 13.8978 8.87458 13.9188 8.96558 13.939C8.98908 13.9443 9.01233 13.9495 9.03583 13.9548C9.14183 13.9778 9.24858 14 9.35683 14.0215C9.38283 14.0268 9.40933 14.0315 9.43558 14.0365C9.51758 14.0523 9.60008 14.0675 9.68358 14.0823C9.72433 14.0895 9.76533 14.0968 9.80633 14.1035C9.88808 14.1173 9.97008 14.1305 10.0528 14.1433C10.1016 14.1508 10.1503 14.1583 10.1996 14.1653C10.2848 14.1778 10.3706 14.1895 10.4566 14.201C10.5066 14.2075 10.5571 14.2138 10.6076 14.22C10.6761 14.2285 10.7448 14.2365 10.8141 14.244C10.8618 14.2493 10.9096 14.2548 10.9578 14.2598C11.0636 14.2708 11.1701 14.2808 11.2771 14.2903C11.3236 14.2943 11.3706 14.2978 11.4173 14.3015C11.4941 14.3075 11.5708 14.3133 11.6481 14.3185C11.6933 14.3215 11.7386 14.3248 11.7841 14.3275C11.8991 14.3345 12.0146 14.3408 12.1308 14.3458C12.1591 14.347 12.1876 14.3478 12.2158 14.349C12.3151 14.3528 12.4146 14.356 12.5143 14.3585C12.5506 14.3593 12.5868 14.3603 12.6233 14.3608C12.7488 14.363 12.8748 14.3648 13.0011 14.3648C13.1278 14.3648 13.2538 14.363 13.3796 14.3608C13.4168 14.36 13.4538 14.3593 13.4908 14.3583C13.5873 14.356 13.6836 14.353 13.7793 14.3493C13.8118 14.348 13.8446 14.347 13.8768 14.3455C13.9933 14.3405 14.1096 14.3343 14.2251 14.3273C14.2698 14.3245 14.3143 14.3213 14.3591 14.3183C14.4358 14.313 14.5126 14.3075 14.5888 14.3013C14.6381 14.2973 14.6871 14.2935 14.7361 14.2893C14.8328 14.2808 14.9293 14.2718 15.0251 14.2618C15.0793 14.2563 15.1331 14.2503 15.1868 14.2443C15.2611 14.236 15.3351 14.2275 15.4088 14.2185C15.4591 14.2123 15.5088 14.206 15.5586 14.1995C15.6323 14.1898 15.7058 14.1795 15.7791 14.169C15.8188 14.1633 15.8591 14.1578 15.8986 14.1518C16.0051 14.1358 16.1103 14.1185 16.2148 14.1008C16.2523 14.0945 16.2891 14.0878 16.3261 14.0813C16.4066 14.067 16.4866 14.0523 16.5658 14.037C16.5981 14.0308 16.6303 14.0248 16.6623 14.0183C16.7726 13.9965 16.8818 13.9738 16.9893 13.9503C16.9913 13.9498 16.9931 13.9493 16.9951 13.949C17.1033 13.9253 17.2101 13.9 17.3158 13.8743C17.3361 13.8693 17.3566 13.8643 17.3768 13.8593C17.4766 13.8345 17.5753 13.809 17.6726 13.7828C17.6793 13.7808 17.6863 13.7793 17.6931 13.7773C17.8018 13.7475 17.9086 13.7168 18.0138 13.6853C18.0211 13.683 18.0281 13.6808 18.0353 13.6785C18.1281 13.6505 18.2193 13.6215 18.3093 13.592C18.3281 13.586 18.3471 13.5798 18.3656 13.5735C18.4558 13.5433 18.5448 13.5125 18.6318 13.481C18.6386 13.4785 18.6456 13.4763 18.6523 13.4738C18.7388 13.4423 18.8233 13.4098 18.9068 13.3765C18.9436 13.362 18.9793 13.347 19.0156 13.3323C19.0578 13.315 19.0998 13.2973 19.1411 13.2795C19.1886 13.2593 19.2356 13.239 19.2818 13.2183C19.2931 13.2133 19.3036 13.2083 19.3146 13.2033C19.8341 12.967 20.2793 12.7003 20.6288 12.4078C20.8061 12.266 20.8068 12.1793 20.6418 11.6288C20.6413 11.627 20.6408 11.6253 20.6403 11.6238L20.4158 11.5723C20.0493 11.489 19.6708 11.7103 19.4783 11.8508C19.3126 11.9715 19.1601 12.1128 18.9988 12.262C18.8536 12.3965 18.7033 12.5358 18.5391 12.6623C17.9251 13.1355 17.1593 13.3918 16.3878 13.3918C16.2466 13.3918 16.1046 13.3833 15.9638 13.3658L15.6843 13.331L15.7538 12.772L16.0333 12.8068C16.7981 12.901 17.5853 12.686 18.1953 12.216C18.2516 12.1725 18.3061 12.1255 18.3606 12.0783C18.4453 12.0048 18.5296 11.929 18.6161 11.8488C18.7823 11.6948 18.9538 11.536 19.1463 11.3953C19.2113 11.348 19.2766 11.306 19.3423 11.2668C19.7083 11.049 20.0838 10.9585 20.4273 11.0048L20.4351 10.985L20.4561 10.9323L20.4566 10.9315C20.4408 10.8583 20.4261 10.782 20.4121 10.7035C20.4088 10.6845 20.4053 10.6663 20.4018 10.6468C20.4018 10.6463 20.4016 10.6458 20.4016 10.6453C20.3936 10.5978 20.3861 10.5493 20.3791 10.4998C20.3773 10.487 20.3756 10.4738 20.3741 10.461C20.3651 10.3933 20.3571 10.3233 20.3498 10.2518C20.3461 10.2128 20.3423 10.1735 20.3391 10.133C20.3378 10.1168 20.3368 10.1003 20.3356 10.0838C20.3291 10.086 20.3226 10.089 20.3161 10.091C20.2313 10.1178 20.1446 10.1395 20.0568 10.156C19.9706 10.1723 19.8828 10.1835 19.7951 10.1903C19.7933 10.1905 19.7918 10.1908 19.7903 10.1908L19.7833 10.1913L19.7731 10.192L19.5091 10.211L19.5078 10.1935L19.4876 9.90727L19.4688 9.64827L19.7498 9.62827C19.7988 9.62477 19.8471 9.61677 19.8953 9.60927C19.9128 9.60652 19.9308 9.60577 19.9483 9.60227C20.0156 9.58952 20.0821 9.57327 20.1468 9.55252C20.1768 9.54327 20.2063 9.53127 20.2356 9.51802C20.2436 9.51452 20.2513 9.51052 20.2593 9.50652C20.2806 9.49602 20.3013 9.48477 20.3218 9.47227C20.3268 9.46927 20.3323 9.46702 20.3373 9.46377C20.3376 9.46352 20.3378 9.46352 20.3381 9.46327C20.3381 9.46302 20.3381 9.46252 20.3381 9.46227C20.3388 9.45752 20.3388 9.45177 20.3396 9.44677C20.3436 9.41427 20.3461 9.37852 20.3491 9.34377C20.3511 9.31977 20.3541 9.29752 20.3556 9.27277C20.3563 9.26252 20.3566 9.25177 20.3573 9.24152C20.3608 9.17602 20.3633 9.10852 20.3633 9.03852C20.3633 9.03102 20.3631 9.02377 20.3628 9.01627C20.3623 8.90002 20.3568 8.78502 20.3473 8.67302C20.3341 8.51602 20.3123 8.36502 20.2836 8.22402C20.1983 8.31877 20.0971 8.39977 19.9876 8.46552C19.9148 8.50902 19.8383 8.54552 19.7606 8.57477V8.66627V8.98402V9.01202C19.1973 9.01202 19.7606 9.01202 19.1973 9.01202V8.71302V8.67027C19.1913 8.67052 19.1851 8.67102 19.1791 8.67102C19.1486 8.67102 19.1186 8.66852 19.0883 8.66727C18.8536 8.65802 18.6231 8.61752 18.3973 8.57552L18.3048 8.55852C16.8548 8.29527 15.3811 8.27652 13.9253 8.50377L13.6468 8.54727L13.5598 7.99027L13.8383 7.94677C14.1416 7.89952 14.4458 7.86527 14.7503 7.83852C14.7208 7.80902 14.6783 7.76652 14.6136 7.70177L14.6446 7.67077L14.9071 7.41027L15.0136 7.30452L15.1421 7.43302L15.4108 7.70177L15.3678 7.74502L15.3126 7.80052C15.4391 7.79452 15.5653 7.78977 15.6918 7.78727C15.9263 7.78277 16.1606 7.78502 16.3951 7.79252C16.3703 7.76777 16.3416 7.73927 16.3038 7.70152L16.3971 7.60877L16.6428 7.36477L16.7038 7.30427L16.7938 7.39402L17.1011 7.70152L17.0611 7.74177L16.9793 7.82427C17.2178 7.84227 17.4558 7.86577 17.6936 7.89627C17.7253 7.90027 17.7571 7.90302 17.7888 7.90752L18.0106 7.68727L18.1123 7.58627L18.3011 7.77502L18.5096 7.98352L18.4758 8.01727L18.4998 8.02177C18.7511 8.06777 18.9921 8.11227 19.2201 8.10652C19.2966 8.10452 19.3718 8.09702 19.4451 8.08202C19.7001 8.02952 19.9703 7.82952 19.9813 7.58627L19.9863 7.47102C19.9708 7.45177 19.9551 7.43377 19.9388 7.41802C19.6883 7.17127 19.3448 7.02852 19.0041 6.92552L18.6751 7.25677C18.2751 6.85652 18.6751 7.25677 18.2751 6.85652L18.3548 6.77727C18.1326 6.74427 17.8421 6.70977 17.5081 6.66977C17.2993 6.64477 17.0716 6.61752 16.8311 6.58702L17.1003 6.85627L16.7031 7.25652C16.3031 6.85627 16.7031 7.25652 16.3031 6.85627L16.6038 6.55752C16.2781 6.51502 15.9323 6.46602 15.5766 6.40902L15.2946 6.69302C14.8946 6.29302 15.2946 6.69302 14.8946 6.29302L14.8966 6.29102C14.4976 6.21577 14.0958 6.12852 13.7051 6.02652L13.3228 6.41127C12.9228 6.01127 13.3228 6.41127 12.9228 6.01127L13.0871 5.84827C12.7573 5.74352 12.4441 5.62502 12.1541 5.49252V5.63102C11.5908 5.63102 12.1541 5.63102 11.5908 5.63102V5.20177C11.1568 4.96052 10.6663 4.79952 10.1651 4.73652C10.1066 4.72927 10.0453 4.72477 9.98308 4.72177C9.97033 4.72127 9.95758 4.72102 9.94483 4.72052C9.91633 4.71977 9.88833 4.71802 9.85933 4.71802C9.82958 4.71802 9.79983 4.71977 9.77008 4.72052C9.76883 4.72077 9.76783 4.72077 9.76658 4.72077C9.62383 4.72527 9.48058 4.73927 9.33733 4.76027V4.76202V5.06777C8.77383 5.06777 9.33733 5.06777 8.77383 5.06777V4.86927V4.86902C8.69258 4.88727 8.61183 4.90577 8.53158 4.92452C8.23358 4.99427 7.93108 5.06627 7.64708 5.17102V5.63102C7.08383 5.63102 7.64708 5.63102 7.08383 5.63102V5.45577C7.06483 5.46902 7.04458 5.48077 7.02583 5.49477C6.98008 5.52877 6.93633 5.56627 6.89358 5.60552C6.88133 5.61677 6.86958 5.62927 6.85733 5.64077C6.82758 5.66977 6.79833 5.69977 6.76983 5.73152C6.75583 5.74702 6.74233 5.76302 6.72883 5.77927C6.70283 5.81002 6.67758 5.84227 6.65283 5.87552C6.63958 5.89302 6.62633 5.91077 6.61333 5.92927C6.60658 5.93902 6.59933 5.94777 6.59258 5.95777C6.59283 5.95852 6.59308 5.95927 6.59333 5.95977C6.61358 6.00402 6.63408 6.04977 6.65508 6.09652C6.73483 6.27477 6.82083 6.46477 6.93008 6.65302L7.12583 6.45877L7.52308 6.85602L7.26683 7.11402C7.43908 7.29977 7.65783 7.47052 7.94233 7.61227L8.25258 7.30402L8.50008 7.55202L8.65058 7.70252L8.52233 7.83152C8.52808 7.83327 8.53458 7.83452 8.54058 7.83602C8.61558 7.85602 8.69283 7.87502 8.77458 7.89152L9.05058 7.94752L9.04958 7.95252L9.03733 8.01327L8.99333 8.22902L8.93808 8.49977L8.66183 8.44352C8.43333 8.39702 8.22808 8.33727 8.04108 8.26852C7.89733 8.21577 7.76583 8.15652 7.64358 8.09327C7.52733 8.03302 7.42008 7.96852 7.32133 7.90052C7.28508 7.87552 7.24933 7.85052 7.21533 7.82477C7.05983 7.70677 6.92733 7.58052 6.81208 7.45052C6.56683 7.17352 6.40058 6.87977 6.27208 6.61202C6.18208 6.87102 6.12508 7.13702 6.09033 7.39052ZM21.4203 10.7148C21.3536 10.3945 21.1703 10.0855 20.8866 9.79427C20.8876 9.83502 20.8876 9.87777 20.8896 9.91727C20.8903 9.93302 20.8918 9.94752 20.8926 9.96302C20.8971 10.041 20.9026 10.1165 20.9098 10.1895C20.9116 10.2078 20.9136 10.2253 20.9156 10.2433C20.9228 10.3108 20.9311 10.3768 20.9403 10.4403C20.9431 10.4593 20.9461 10.4783 20.9488 10.497C20.9578 10.5543 20.9673 10.6103 20.9778 10.6648C20.9801 10.6775 20.9826 10.69 20.9851 10.7025C20.9871 10.7125 20.9888 10.723 20.9908 10.733C20.9996 10.7755 21.0083 10.8168 21.0178 10.8578C21.0248 10.8895 21.0318 10.9215 21.0393 10.952C21.0418 10.963 21.0446 10.9733 21.0473 10.9843C21.0491 10.9908 21.0506 10.9973 21.0521 11.0035C21.0748 11.094 21.0986 11.1813 21.1231 11.266C21.1276 11.2815 21.1318 11.2975 21.1363 11.313L21.1831 11.4728L21.2398 11.6665L21.2493 11.6998C21.2531 11.693 21.2576 11.6865 21.2611 11.6798C21.3786 11.4653 21.4426 11.244 21.4486 11.0183C21.4488 11.0068 21.4508 10.9955 21.4508 10.9843C21.4511 10.8938 21.4388 10.804 21.4203 10.7148ZM15.8591 9.79277L16.1123 9.53777L16.2563 9.39277L15.8591 8.99552L15.4591 9.39277C15.5248 9.45877 15.5676 9.50127 15.5971 9.53102C15.7476 9.68127 15.5251 9.45877 15.8591 9.79277ZM6.16308 10.5195C6.27733 10.6338 6.32508 10.6818 6.34633 10.7028C6.39883 10.7555 6.27733 10.6338 6.56308 10.9195L6.77833 10.7028L6.96033 10.5195L6.56283 10.1223L6.16308 10.5195ZM7.93783 9.76452C8.18783 9.77202 8.42383 9.77902 8.62983 9.85302C8.86808 9.93852 9.08258 10.1185 9.31008 10.309C9.47133 10.444 9.64308 10.5883 9.83508 10.7028C10.0278 10.8178 10.2406 10.9033 10.4833 10.9205L10.7646 10.9405L10.7813 10.7028L10.7886 10.6005L10.8043 10.3785L10.5233 10.3588C10.2201 10.337 9.95383 10.1135 9.67158 9.87727C9.41658 9.66352 9.15233 9.44227 8.81983 9.32277C8.53033 9.21877 8.23783 9.21002 7.95458 9.20152L7.49933 9.18227L7.48933 9.40102L7.47358 9.74502L7.75508 9.75802C7.81583 9.76052 7.87683 9.76252 7.93783 9.76452ZM13.2056 9.39277C13.3011 9.48827 13.3501 9.53727 13.3761 9.56327C13.4593 9.64652 13.3008 9.48802 13.6053 9.79252L13.7631 9.63377L14.0026 9.39252L13.9978 9.38777L13.6053 8.99527L13.3303 9.26827L13.2056 9.39277ZM13.8793 11.2663L13.8188 11.4215L13.7033 11.7178L13.9658 11.82C14.3456 11.968 14.7403 12.1045 15.1308 12.1045C15.3236 12.1045 15.5156 12.0713 15.7041 11.9895C15.7828 11.9558 15.8578 11.9133 15.9328 11.8705C16.0106 11.826 16.0843 11.7838 16.1536 11.7613C16.2576 11.7275 16.3876 11.726 16.5253 11.7245C16.7376 11.7218 16.9781 11.7188 17.2058 11.5973L17.2943 11.55L17.4546 11.4645L17.3488 11.2663L17.1983 10.9845L17.1891 10.9675L17.1571 10.9845L16.9406 11.1003C16.8338 11.1573 16.6873 11.159 16.5183 11.1613C16.3526 11.1633 16.1651 11.1655 15.9793 11.2255C15.9428 11.2373 15.9083 11.2513 15.8746 11.2663C15.7936 11.3018 15.7201 11.3433 15.6531 11.3815C15.5966 11.4138 15.5406 11.4465 15.4806 11.4723C15.1076 11.6348 14.6286 11.4735 14.1706 11.295L14.0966 11.2663L13.9081 11.1928L13.8793 11.2663ZM10.6701 11.9283C11.0701 12.3283 10.6701 11.9283 11.0701 12.3283L11.4673 11.9283L11.0701 11.531L10.6701 11.9283ZM13.1083 7.32352C13.1581 7.37327 13.0401 7.25527 13.3238 7.53902L13.5318 7.32952L13.7211 7.13902L13.6328 7.05077L13.3238 6.74177L13.0228 7.04077L12.9238 7.13902C13.0401 7.25527 13.0878 7.30327 13.1083 7.32352ZM11.9758 10.6985C11.9776 10.7003 11.9788 10.7015 11.9803 10.7028C12.0328 10.7555 11.9113 10.6338 12.1971 10.9195L12.3643 10.7513L12.4126 10.7028L12.5946 10.5195L12.1973 10.1223L11.7973 10.5195C11.9038 10.6265 11.9528 10.6753 11.9758 10.6985ZM12.2756 7.33602C12.2916 7.35202 12.2283 7.28877 12.4788 7.53927L12.6908 7.32577L12.8761 7.13927L12.7801 7.04327L12.4788 6.74202L12.1608 7.05777L12.0788 7.13927C12.2283 7.28877 12.2661 7.32652 12.2756 7.33602Z" fill="#26A387"/>
</svg>
