<svg width="26" height="25" viewBox="0 0 26 25" fill="none" xmlns="http://www.w3.org/2000/svg">
<path d="M21.9961 7.96644C21.9834 7.89969 21.9506 7.83769 21.8996 7.79194C21.6206 7.53994 20.8979 7.26169 20.7151 7.24244C20.6571 7.23619 20.4814 7.18369 20.3116 7.13269C19.6906 6.94619 18.6516 6.63444 17.7119 6.74419C17.4269 6.77719 17.1149 6.77069 16.6996 6.72319C16.5331 6.70419 16.3659 6.66994 16.2376 6.64169L16.2331 6.64069C16.0421 6.59869 15.8521 6.54869 15.6626 6.49844C15.1601 6.36594 14.6419 6.22894 14.0954 6.23744C13.8726 6.24094 13.6556 6.26919 13.4456 6.29644C13.2291 6.32444 13.0246 6.35094 12.8224 6.35094C12.8071 6.35119 12.7919 6.34869 12.7766 6.34669L12.7039 6.33844C12.4534 6.30944 12.1971 6.19269 11.9259 6.06894C11.5739 5.90844 11.2096 5.74219 10.8019 5.74219H10.7316L4.35511 9.14619C4.30861 9.17119 4.26986 9.20594 4.24036 9.24719C4.22386 9.25694 4.20736 9.26644 4.19236 9.27894C4.11136 9.34619 4.06636 9.44519 4.06886 9.55069C4.07786 9.93494 4.11911 10.2437 4.15911 10.5424C4.20036 10.8512 4.23936 11.1429 4.23811 11.4952C4.23786 11.5769 4.23686 11.6597 4.23161 11.7494C4.20661 12.1874 4.20661 12.5467 4.23211 12.8702L4.18436 12.9817C4.18411 12.9824 4.18361 12.9832 4.18336 12.9837L3.97461 13.4674L4.07461 13.4492C4.06211 13.6794 4.11011 13.9059 4.21811 14.1042C3.95761 14.5247 3.93061 15.0922 4.14986 15.5447C4.08361 15.6517 4.04261 15.7774 4.03211 15.9107C4.01436 16.1369 4.08686 16.3554 4.23136 16.5097C4.52511 16.8234 4.97211 16.9697 5.36711 16.8934C5.77461 17.1609 6.23611 17.2717 6.69286 17.2127C7.08736 17.4617 7.61161 17.5527 8.05036 17.4477C8.47611 17.7274 9.01436 17.8429 9.49661 17.7609C9.65861 17.9254 9.88286 18.0312 10.1559 18.0707C10.3991 18.1064 10.6379 18.0797 10.8549 18.0479C11.2084 18.2624 11.6419 18.3639 12.0364 18.3249C12.4534 18.6144 12.9746 18.7607 13.4741 18.7272C13.8336 18.9962 14.2796 19.1292 14.6824 19.0839C14.9304 19.1987 15.2274 19.2589 15.5174 19.2589C15.6669 19.2589 15.8141 19.2417 15.9519 19.2089C15.9776 19.2132 16.0024 19.2157 16.0261 19.2157C16.2174 19.2154 16.3359 19.0869 16.3896 19.0274C18.1814 17.8092 19.9954 16.3469 21.9356 14.5569L22.0261 14.4734V11.6847V11.0694V9.85019V9.17944V8.09369C22.0254 8.04869 22.0136 8.00619 21.9961 7.96644ZM19.3984 15.1604L19.3031 15.4254C19.2266 15.6384 19.2164 15.8767 19.2746 16.0959L19.2839 16.1307C18.2789 16.9644 17.2989 17.7129 16.3284 18.3849C16.3294 18.3747 16.3289 18.3644 16.3296 18.3542C16.3369 18.2642 16.3419 18.1739 16.3424 18.0839C16.3424 18.0777 16.3419 18.0717 16.3419 18.0654C16.3419 17.9804 16.3386 17.8957 16.3329 17.8109C16.3309 17.7829 16.3281 17.7552 16.3256 17.7272C16.3219 17.6877 16.3164 17.6484 16.3114 17.6092L16.3136 17.6069L16.3921 17.5284C16.5536 17.3669 16.7641 17.2529 16.9846 17.2074L17.2604 17.1499L17.1456 16.5987L16.8699 16.6559C16.6744 16.6964 16.4849 16.7739 16.3129 16.8799C16.3489 16.6347 16.3231 16.3884 16.2331 16.1702C16.2429 16.1274 16.2496 16.0849 16.2546 16.0424C16.2564 16.0287 16.2569 16.0154 16.2581 16.0019C16.2606 15.9729 16.2626 15.9437 16.2634 15.9147C16.2636 15.8994 16.2636 15.8842 16.2634 15.8689C16.2631 15.8414 16.2621 15.8142 16.2604 15.7867C16.2594 15.7717 16.2586 15.7567 16.2571 15.7417C16.2544 15.7127 16.2509 15.6837 16.2466 15.6549C16.2449 15.6424 16.2434 15.6297 16.2414 15.6174C16.2346 15.5767 16.2271 15.5359 16.2181 15.4954C16.2179 15.4944 16.2176 15.4932 16.2174 15.4922C16.2086 15.4527 16.1986 15.4134 16.1884 15.3742C16.1844 15.3592 16.1799 15.3444 16.1759 15.3294C16.1711 15.3132 16.1669 15.2967 16.1621 15.2804C16.1619 15.2799 16.1619 15.2797 16.1616 15.2789C16.1724 15.2702 16.1841 15.2622 16.1951 15.2537C16.2046 15.2464 16.2139 15.2392 16.2234 15.2324C16.2464 15.2162 16.2701 15.2007 16.2941 15.1862C16.2994 15.1829 16.3044 15.1792 16.3096 15.1762C16.3394 15.1587 16.3701 15.1424 16.4011 15.1277C16.4089 15.1239 16.4169 15.1207 16.4244 15.1174C16.4476 15.1069 16.4714 15.0969 16.4951 15.0879C16.5056 15.0839 16.5164 15.0804 16.5271 15.0769C16.5486 15.0697 16.5701 15.0629 16.5914 15.0572C16.6024 15.0542 16.6136 15.0512 16.6244 15.0487C16.6291 15.0477 16.6339 15.0462 16.6386 15.0452L16.6389 15.0459L16.7881 15.9637L17.3439 15.8732L17.1599 14.7422C17.2696 14.6242 17.4131 14.5467 17.5689 14.5214L17.7139 14.6117C17.8914 14.7222 18.0786 14.8182 18.2704 14.8967L18.5309 15.0032L18.7441 14.4822L18.4834 14.3754C18.3536 14.3224 18.2276 14.2577 18.1049 14.1869C18.1206 14.1639 18.1421 14.1439 18.1734 14.1222C18.3269 14.0154 18.5044 13.9407 18.6861 13.9059C18.9171 13.8619 19.0919 13.7434 19.2386 13.5949L19.5506 13.8347L19.8939 13.3879L19.5804 13.1472C19.5966 13.1202 19.6144 13.0937 19.6301 13.0659C19.6661 13.0034 19.7001 12.9447 19.7369 12.8994C19.8296 12.7852 19.9866 12.6994 20.2486 12.6242C20.2604 12.7419 20.3029 12.8562 20.3771 12.9482L20.5541 13.1669L20.9921 12.8132L20.8151 12.5939C20.8081 12.5854 20.8041 12.5689 20.8064 12.5572L20.8566 12.2799L20.7851 12.2669C20.7881 12.2627 20.7916 12.2579 20.7946 12.2539C20.8111 12.2304 20.8274 12.2072 20.8451 12.1857C20.9691 12.0354 21.1839 11.9737 21.4324 11.9019C21.4424 11.8992 21.4521 11.8962 21.4621 11.8934V13.1162L21.2461 13.2492C21.1239 13.3244 20.9909 13.3759 20.8506 13.4017L20.5739 13.4532L20.6766 14.0069L20.9536 13.9554C21.1326 13.9222 21.3026 13.8597 21.4624 13.7727V14.2254C20.9029 14.7397 20.3549 15.2232 19.8144 15.6842C19.8194 15.6612 19.8251 15.6379 19.8331 15.6157L19.9284 15.3507L19.3984 15.1604ZM14.8626 18.5444L14.7751 18.4969L14.6771 18.5152C14.4246 18.5617 14.1211 18.4839 13.8684 18.3152C13.9326 18.2582 14.0249 18.2289 14.1039 18.2474L14.3774 18.3147L14.5119 17.7677L14.2384 17.7007C13.8704 17.6092 13.4676 17.8022 13.3014 18.1474L13.2929 18.1649C12.9356 18.1554 12.5654 18.0282 12.2841 17.8079L12.1844 17.7299L12.0599 17.7527C11.7699 17.8044 11.4059 17.7257 11.1324 17.5549L11.1736 17.0082L10.6121 16.9659L10.5706 17.5152C10.4561 17.5259 10.3431 17.5287 10.2359 17.5132C10.0526 17.4867 9.92436 17.4169 9.85211 17.3072L9.84361 17.2179C9.83436 17.1197 9.87736 17.0114 9.95061 16.9487L10.1644 16.7654L9.79761 16.3379L9.58386 16.5214C9.38511 16.6919 9.27286 16.9552 9.28111 17.2184C8.98486 17.2412 8.66861 17.1664 8.40311 17.0047L8.39636 16.9309C8.38511 16.8097 8.43061 16.6812 8.51461 16.5962L8.71261 16.3959L8.31236 15.9999L8.11411 16.2002C7.92911 16.3872 7.82736 16.6502 7.83286 16.9147C7.59836 16.9502 7.33211 16.9069 7.10786 16.7982C7.11111 16.7409 7.12486 16.6839 7.15086 16.6332L7.27961 16.3829L6.77986 16.1252L6.65111 16.3757C6.60511 16.4647 6.57486 16.5614 6.55811 16.6602C6.27736 16.6837 5.99911 16.6159 5.73911 16.4612C5.83611 16.3274 5.96586 16.2197 6.11536 16.1564L6.37486 16.0469L6.15586 15.5279L5.89661 15.6377C5.61236 15.7577 5.36761 15.9714 5.20786 16.2399L5.14286 16.3492C4.96486 16.3454 4.77211 16.2634 4.64186 16.1244C4.60586 16.0859 4.58761 16.0227 4.59286 15.9547C4.59811 15.8879 4.62561 15.8289 4.66611 15.7977L4.87911 15.6322L4.72311 15.4122C4.54436 15.1602 4.52261 14.7917 4.64411 14.5079L4.70336 14.5119C4.84686 14.5219 4.98911 14.6094 5.06611 14.7354L5.21286 14.9759L5.69361 14.6824L5.54686 14.4422C5.38536 14.1774 5.10236 13.9967 4.79911 13.9572L4.77836 13.9322C4.65236 13.7799 4.60811 13.5652 4.65261 13.3554C4.65261 13.3552 4.65261 13.3549 4.65261 13.3547C4.65411 13.3547 4.65561 13.3549 4.65711 13.3549C4.66136 13.3547 4.66586 13.3554 4.67011 13.3554C4.71736 13.3549 4.76436 13.3569 4.81136 13.3622C4.83286 13.3647 4.85436 13.3692 4.87561 13.3727C4.90536 13.3777 4.93486 13.3827 4.96411 13.3897C4.98811 13.3957 5.01161 13.4032 5.03536 13.4104C5.06161 13.4187 5.08761 13.4272 5.11336 13.4372C5.13661 13.4462 5.15936 13.4562 5.18211 13.4667C5.20761 13.4784 5.23236 13.4909 5.25686 13.5044C5.27786 13.5159 5.29886 13.5277 5.31911 13.5404C5.34461 13.5564 5.36886 13.5737 5.39286 13.5917C5.41036 13.6047 5.42811 13.6172 5.44486 13.6312C5.47136 13.6532 5.49586 13.6772 5.52011 13.7017C5.53261 13.7139 5.54561 13.7257 5.55761 13.7384C5.59261 13.7769 5.62536 13.8177 5.65436 13.8614L5.80911 14.0934L6.04261 13.9407C6.19536 13.8412 6.34961 13.7924 6.48011 13.7964C6.48661 13.7967 6.49361 13.7952 6.50011 13.7957C6.58236 13.8024 6.67561 13.8539 6.78336 13.9137C6.87186 13.9624 6.97211 14.0177 7.08411 14.0559L7.23036 14.1057L7.35086 14.0094C7.45061 13.9294 7.70761 13.9532 7.90111 14.0602C7.95086 14.0877 7.99536 14.1229 8.04086 14.1572C8.08936 14.1939 8.13786 14.2304 8.18886 14.2632L8.29461 14.3307L8.41536 14.2974C8.77286 14.1982 9.17286 14.2577 9.47386 14.4397L9.46936 14.5259C9.46736 14.5649 9.45586 14.6032 9.43636 14.6364L9.29336 14.8789L9.77836 15.1647L9.92136 14.9222C9.98161 14.8197 10.0176 14.7034 10.0284 14.5849C10.2361 14.5177 10.4954 14.5484 10.6839 14.6627V15.2524H11.2469V14.6932C11.3304 14.6827 11.4474 14.6854 11.6019 14.7154C11.7334 14.7409 11.8604 14.7987 11.9776 14.8629C11.9149 15.1064 11.9646 15.3704 12.1129 15.5724L12.2794 15.7994L12.7334 15.4662L12.5666 15.2394C12.5179 15.1732 12.5009 15.0789 12.5231 14.9992L12.5341 14.9589C12.7589 14.9669 13.0076 15.0932 13.0969 15.2682L13.2121 15.4942L13.4491 15.4027C13.7761 15.2757 14.2186 15.3042 14.5491 15.4727C14.5536 15.4749 14.5579 15.4759 14.5621 15.4779L14.5234 16.0712L15.0854 16.1079L15.1316 15.3962C15.1651 15.3777 15.2046 15.3569 15.2201 15.3542C15.3119 15.3377 15.4574 15.4742 15.5419 15.5487L15.6786 15.6694C15.6799 15.6759 15.6814 15.6824 15.6824 15.6889C15.6864 15.7112 15.6894 15.7329 15.6919 15.7547C15.6939 15.7694 15.6959 15.7842 15.6969 15.7989C15.6986 15.8204 15.6991 15.8419 15.6996 15.8632C15.6999 15.8769 15.7006 15.8909 15.7001 15.9047C15.6994 15.9277 15.6969 15.9504 15.6941 15.9729C15.6929 15.9842 15.6924 15.9957 15.6906 16.0069C15.6851 16.0404 15.6771 16.0737 15.6664 16.1062L15.6279 16.2214L15.6851 16.3284C15.7951 16.5342 15.7939 16.8049 15.6816 17.0532L15.6391 17.1472L15.6426 17.1594C15.5026 17.1482 15.3621 17.0622 15.3024 16.9337L15.1841 16.6782L14.6731 16.9152L14.7914 17.1707C14.9491 17.5109 15.3134 17.7234 15.6776 17.7234C15.7046 17.7234 15.7316 17.7224 15.7584 17.7199C15.7619 17.7497 15.7654 17.7794 15.7679 17.8092C15.7701 17.8354 15.7714 17.8617 15.7729 17.8879C15.7749 17.9259 15.7766 17.9642 15.7774 18.0027C15.7779 18.0294 15.7779 18.0564 15.7779 18.0832C15.7776 18.1214 15.7764 18.1597 15.7749 18.1977C15.7739 18.2244 15.7724 18.2512 15.7706 18.2779C15.7679 18.3169 15.7641 18.3557 15.7599 18.3947C15.7571 18.4202 15.7546 18.4459 15.7511 18.4714C15.7456 18.5127 15.7389 18.5542 15.7316 18.5952C15.7279 18.6177 15.7244 18.6402 15.7199 18.6627C15.7186 18.6692 15.7169 18.6754 15.7156 18.6817C15.4319 18.7209 15.0954 18.6707 14.8626 18.5444ZM11.6921 6.58119C11.7421 6.60419 11.7924 6.62719 11.8429 6.64969L10.0489 7.37569C9.72786 7.50569 9.47236 7.63519 9.24486 7.78294C9.09536 7.88019 8.88461 8.03919 8.78111 8.29844C8.74036 8.40044 8.72386 8.50019 8.70886 8.58819C8.69961 8.64319 8.69186 8.69869 8.67311 8.75119C8.60911 8.93244 8.38936 9.06269 8.18836 9.17069C8.12786 9.20319 8.06861 9.23419 8.01086 9.26394C8.00711 9.26594 8.00336 9.26744 7.99961 9.26969C7.60286 9.47319 7.26086 9.61719 6.94036 9.71669L6.92186 9.71969C6.37911 9.63344 5.81486 9.50619 5.26811 9.38244C5.23036 9.37394 5.19286 9.36544 5.15536 9.35694L10.8681 6.30769C11.1326 6.32594 11.4051 6.45044 11.6921 6.58119ZM20.1501 7.67194C20.3884 7.74344 20.5459 7.79069 20.6506 7.80169C20.7291 7.81544 20.9821 7.91169 21.2024 8.01844C21.1731 8.03494 21.1439 8.05144 21.1116 8.06969C20.9584 8.15644 20.7764 8.25894 20.5681 8.37519C20.5676 8.37544 20.5671 8.37569 20.5666 8.37594C20.5664 8.37569 20.5664 8.37569 20.5664 8.37569C20.5466 8.36994 20.5274 8.36344 20.5076 8.35744C20.4016 8.32544 20.2964 8.29244 20.1909 8.25844C20.1259 8.23744 20.0604 8.21619 19.9944 8.19544C19.7959 8.13294 19.5921 8.07369 19.3819 8.03194C18.6299 7.88294 17.8299 7.97544 17.1291 8.29319C17.1104 8.30169 17.0854 8.31319 17.0581 8.32769C17.0549 8.32944 17.0519 8.33069 17.0484 8.33269C17.0466 8.33369 17.0446 8.33494 17.0429 8.33594C16.9649 8.37894 16.8676 8.44719 16.8036 8.55794C16.7906 8.58069 16.7789 8.60494 16.7689 8.63144C16.6639 8.91044 16.8246 9.21169 17.1691 9.38119C17.3964 9.49319 17.7129 9.56869 18.0476 9.64894C18.0829 9.65719 18.1181 9.66569 18.1531 9.67419C18.1534 9.67444 18.1536 9.67444 18.1536 9.67444C18.1536 9.67444 18.1534 9.67444 18.1531 9.67469C17.7941 9.85994 17.4556 10.0299 17.1411 10.1832C17.1409 10.1829 17.1406 10.1829 17.1404 10.1829C17.1349 10.1812 17.1291 10.1794 17.1236 10.1777C17.0344 10.1487 16.9441 10.1202 16.8534 10.0919C16.8386 10.0874 16.8236 10.0827 16.8089 10.0782C16.7159 10.0497 16.6224 10.0219 16.5279 9.99519C16.5144 9.99144 16.5009 9.98744 16.4871 9.98369C16.3914 9.95694 16.2951 9.93119 16.1981 9.90719C16.1861 9.90419 16.1741 9.90144 16.1621 9.89844C16.0636 9.87444 15.9646 9.85219 15.8646 9.83194C15.8541 9.82969 15.8436 9.82794 15.8331 9.82569C15.7316 9.80544 15.6294 9.78744 15.5269 9.77194C15.5184 9.77069 15.5099 9.76969 15.5014 9.76844C15.3964 9.75319 15.2909 9.74069 15.1846 9.73144C15.1789 9.73094 15.1729 9.73069 15.1671 9.73019C15.0584 9.72119 14.9491 9.71519 14.8394 9.71344C14.8361 9.71344 14.8331 9.71344 14.8299 9.71344C14.7174 9.71194 14.6044 9.71419 14.4909 9.72169C14.4121 9.72669 14.3351 9.73519 14.2594 9.74569C14.2496 9.74719 14.2396 9.74819 14.2301 9.74969C14.1589 9.76044 14.0891 9.77419 14.0209 9.78994C14.0086 9.79269 13.9964 9.79544 13.9844 9.79869C13.9176 9.81494 13.8524 9.83369 13.7889 9.85494C13.7781 9.85844 13.7674 9.86244 13.7566 9.86619C13.6924 9.88844 13.6296 9.91269 13.5694 9.93969C13.5636 9.94219 13.5579 9.94544 13.5521 9.94794C13.4929 9.97519 13.4359 10.0047 13.3809 10.0362C13.3759 10.0392 13.3709 10.0417 13.3659 10.0447C13.3111 10.0769 13.2591 10.1119 13.2094 10.1484C13.2011 10.1544 13.1926 10.1604 13.1844 10.1664C13.1369 10.2027 13.0919 10.2409 13.0494 10.2807C13.0416 10.2882 13.0339 10.2954 13.0264 10.3029C12.9844 10.3439 12.9451 10.3864 12.9091 10.4309C12.9071 10.4332 12.9051 10.4352 12.9031 10.4377C12.8966 10.4372 12.8904 10.4367 12.8844 10.4359C12.7754 10.4274 12.6689 10.4184 12.5639 10.4089C11.8786 10.3464 11.2799 10.2619 10.7431 10.1514C10.7426 10.1514 10.7421 10.1512 10.7416 10.1512C10.7369 10.1464 10.7324 10.1412 10.7276 10.1362C10.7201 10.1282 10.7121 10.1204 10.7049 10.1117C10.7044 10.1109 10.7039 10.1102 10.7031 10.1094C10.6479 10.0417 10.6096 9.95619 10.6054 9.87869C10.6051 9.87519 10.6044 9.87119 10.6044 9.86769C10.6041 9.86069 10.6056 9.85394 10.6061 9.84694C10.6069 9.83794 10.6069 9.82894 10.6086 9.82044C10.6116 9.80569 10.6164 9.79144 10.6229 9.77819C10.6869 9.64844 10.9081 9.59294 11.1379 9.55219C11.9826 9.40119 12.8301 9.21219 13.6566 8.99044C14.2751 8.82444 14.8259 8.58469 15.2926 8.27844C15.6521 8.04294 15.8996 7.80844 16.0724 7.54094C16.1026 7.49369 16.1309 7.44494 16.1589 7.39594C16.1784 7.36219 16.1971 7.32994 16.2161 7.29894C16.2216 7.29019 16.2271 7.28294 16.2324 7.27444C16.2436 7.25744 16.2544 7.23969 16.2659 7.22419C16.2664 7.22444 16.2669 7.22444 16.2676 7.22444C16.3796 7.24669 16.5059 7.26894 16.6349 7.28319C17.0949 7.33594 17.4466 7.34219 17.7764 7.30419C18.6006 7.20894 19.5706 7.49844 20.1501 7.67194ZM18.7881 8.52744C18.9509 8.53369 19.1129 8.55244 19.2724 8.58419C19.2739 8.58444 19.2751 8.58494 19.2764 8.58519C19.3689 8.60369 19.4604 8.62694 19.5521 8.65219C19.5696 8.65694 19.5874 8.66144 19.6049 8.66669C19.6944 8.69219 19.7844 8.71969 19.8759 8.74869C19.8791 8.74969 19.8821 8.75069 19.8851 8.75169C19.8854 8.75169 19.8856 8.75169 19.8856 8.75169C19.8091 8.79344 19.7351 8.83344 19.6599 8.87444C19.6211 8.89544 19.5824 8.91644 19.5441 8.93719C19.3994 9.01569 19.2571 9.09219 19.1166 9.16719C19.1089 9.17119 19.1011 9.17544 19.0936 9.17944C19.0241 9.21644 18.9531 9.25494 18.8849 9.29094C18.8846 9.29094 18.8844 9.29094 18.8841 9.29094C18.8719 9.28669 18.8586 9.28319 18.8459 9.27894C18.8186 9.26994 18.7906 9.26144 18.7626 9.25294C18.7251 9.24169 18.6871 9.23044 18.6489 9.21994C18.6229 9.21269 18.5971 9.20544 18.5709 9.19844C18.5249 9.18619 18.4789 9.17419 18.4321 9.16269C18.4129 9.15769 18.3934 9.15269 18.3739 9.14794C18.3086 9.13194 18.2434 9.11619 18.1784 9.10069C17.8881 9.03119 17.5879 8.95944 17.4171 8.87519C17.3814 8.85769 17.3529 8.83719 17.3321 8.81944C17.3406 8.81519 17.3501 8.81069 17.3616 8.80569C17.5099 8.73844 17.6639 8.68294 17.8209 8.63969C18.1354 8.55319 18.4629 8.51494 18.7881 8.52744ZM15.1934 14.7917C15.0474 14.7989 14.9316 14.8632 14.8389 14.9149C14.8179 14.9267 14.7891 14.9427 14.7679 14.9527C14.7084 14.9242 14.6466 14.8999 14.5839 14.8779C14.5646 14.8712 14.5449 14.8652 14.5254 14.8592C14.4791 14.8447 14.4324 14.8314 14.3849 14.8202C14.3646 14.8154 14.3444 14.8102 14.3236 14.8059C14.2616 14.7932 14.1994 14.7827 14.1366 14.7754C14.1326 14.7749 14.1284 14.7742 14.1244 14.7737C14.0576 14.7664 13.9904 14.7634 13.9236 14.7629C13.9164 14.7629 13.9094 14.7619 13.9021 14.7619C13.8896 14.7619 13.8776 14.7637 13.8654 14.7639C13.8144 14.7649 13.7641 14.7677 13.7139 14.7724C13.6949 14.7742 13.6756 14.7757 13.6566 14.7782C13.5904 14.7862 13.5246 14.7967 13.4606 14.8119C13.1909 14.5082 12.7281 14.3394 12.3214 14.4104C12.1511 14.3109 11.9411 14.2079 11.7089 14.1632C11.4141 14.1059 11.1679 14.1119 10.9741 14.1807C10.6569 13.9897 10.2439 13.9349 9.88961 14.0379C9.47911 13.7377 8.92261 13.6197 8.39986 13.7232C8.39386 13.7187 8.38786 13.7142 8.38161 13.7094C8.31486 13.6584 8.24736 13.6087 8.17411 13.5682C7.88961 13.4104 7.47661 13.3307 7.15561 13.4749C7.12311 13.4584 7.08986 13.4399 7.05561 13.4209C6.91186 13.3417 6.74911 13.2522 6.54636 13.2352C6.32761 13.2174 6.12736 13.2717 5.96211 13.3454C5.91761 13.2974 5.86961 13.2529 5.82011 13.2104C5.80536 13.1977 5.79011 13.1862 5.77486 13.1742C5.73786 13.1447 5.69986 13.1167 5.66061 13.0902C5.64361 13.0789 5.62686 13.0674 5.60961 13.0567C5.56411 13.0284 5.51736 13.0022 5.46961 12.9784C5.45911 12.9732 5.44936 12.9672 5.43886 12.9622C5.38011 12.9342 5.31961 12.9097 5.25811 12.8884C5.24311 12.8832 5.22786 12.8792 5.21261 12.8744C5.16486 12.8592 5.11661 12.8459 5.06761 12.8349C5.04786 12.8307 5.02836 12.8267 5.00861 12.8229C4.95936 12.8137 4.90936 12.8067 4.85936 12.8017C4.84361 12.8002 4.82811 12.7979 4.81211 12.7967C4.80486 12.7962 4.79786 12.7949 4.79061 12.7944C4.77036 12.5157 4.77061 12.2029 4.79111 11.8252C4.88386 11.8434 4.97661 11.8649 5.06961 11.8882C5.09536 11.8944 5.12111 11.9012 5.14686 11.9079C5.21886 11.9267 5.29161 11.9459 5.36461 11.9667C5.38861 11.9734 5.41236 11.9799 5.43661 11.9869C5.52711 12.0129 5.61861 12.0394 5.71111 12.0669C6.18486 12.2069 6.67486 12.3517 7.18636 12.3937C7.47286 12.4167 7.75761 12.4079 8.03286 12.3982C8.36136 12.3872 8.67161 12.3764 8.97511 12.4194C9.39686 12.4784 9.80061 12.6394 10.2281 12.8097C10.6954 12.9954 11.1784 13.1879 11.7014 13.2449C11.9621 13.2737 12.2199 13.2662 12.4691 13.2597C12.7466 13.2519 13.0089 13.2452 13.2621 13.2849C13.5049 13.3229 13.7469 13.4049 14.0031 13.4914C14.0536 13.5084 14.1041 13.5254 14.1549 13.5424C14.1694 13.5472 14.1839 13.5517 14.1984 13.5564C14.2369 13.5692 14.2759 13.5814 14.3149 13.5934C14.3324 13.5989 14.3499 13.6039 14.3674 13.6094C14.4044 13.6204 14.4416 13.6309 14.4789 13.6414C14.4964 13.6462 14.5139 13.6509 14.5314 13.6557C14.5721 13.6662 14.6131 13.6757 14.6541 13.6849C14.6679 13.6879 14.6814 13.6914 14.6954 13.6942C14.7509 13.7057 14.8064 13.7157 14.8626 13.7237C14.8651 13.7242 14.8676 13.7242 14.8701 13.7244C14.9221 13.7317 14.9746 13.7367 15.0276 13.7402C15.0449 13.7412 15.0624 13.7414 15.0796 13.7422C15.1204 13.7439 15.1614 13.7447 15.2026 13.7437C15.2169 13.7434 15.2311 13.7429 15.2454 13.7422C15.3004 13.7397 15.3559 13.7354 15.4119 13.7274C15.4631 13.7202 15.5121 13.7094 15.5601 13.6977C15.5719 13.6947 15.5836 13.6917 15.5951 13.6887C15.6054 13.6859 15.6164 13.6837 15.6264 13.6807C15.6271 13.6862 15.6279 13.6914 15.6286 13.6969C15.6356 13.7429 15.6419 13.7884 15.6471 13.8337C15.6489 13.8474 15.6504 13.8612 15.6519 13.8749C15.6571 13.9274 15.6616 13.9792 15.6634 14.0304C15.6634 14.0332 15.6634 14.0359 15.6634 14.0387C15.6649 14.0864 15.6639 14.1334 15.6611 14.1799C15.6604 14.1927 15.6594 14.2052 15.6584 14.2179C15.6541 14.2674 15.6481 14.3164 15.6379 14.3647C15.6261 14.4192 15.6106 14.4744 15.5951 14.5294C15.5681 14.6264 15.5381 14.7349 15.5246 14.8524C15.5246 14.8539 15.5241 14.8554 15.5239 14.8569C15.5071 14.8494 15.4896 14.8434 15.4721 14.8372C15.4676 14.8354 15.4631 14.8337 15.4584 14.8319C15.4219 14.8197 15.3839 14.8102 15.3446 14.8034C15.3361 14.8019 15.3274 14.8009 15.3189 14.7997C15.2781 14.7929 15.2366 14.7897 15.1934 14.7917ZM15.8549 10.7729C15.8501 10.7749 15.8459 10.7767 15.8411 10.7787C15.7109 10.8332 15.5874 10.8834 15.4736 10.9272C15.4734 10.9272 15.4729 10.9277 15.4724 10.9277C15.4724 10.9277 15.4719 10.9277 15.4716 10.9279C15.4604 10.9312 15.4471 10.9337 15.4311 10.9352C15.1894 10.9579 14.4361 10.7739 13.9751 10.6617C13.8421 10.6294 13.7119 10.5977 13.5884 10.5687C13.5876 10.5687 13.5871 10.5684 13.5864 10.5682C13.5866 10.5682 13.5869 10.5679 13.5869 10.5677C13.5911 10.5649 13.5959 10.5624 13.6001 10.5597C13.6084 10.5544 13.6171 10.5494 13.6256 10.5442C13.6624 10.5214 13.7011 10.4997 13.7416 10.4797C13.7506 10.4752 13.7591 10.4704 13.7684 10.4662C13.8151 10.4439 13.8639 10.4239 13.9149 10.4054C13.9266 10.4012 13.9389 10.3972 13.9509 10.3932C13.9986 10.3769 14.0476 10.3622 14.0984 10.3494C14.1054 10.3477 14.1119 10.3454 14.1191 10.3437C14.1756 10.3302 14.2341 10.3189 14.2941 10.3094C14.3081 10.3072 14.3221 10.3054 14.3364 10.3034C14.3976 10.2947 14.4601 10.2877 14.5244 10.2837C14.5249 10.2837 14.5251 10.2837 14.5254 10.2837C14.6236 10.2772 14.7221 10.2762 14.8204 10.2777C14.8461 10.2779 14.8721 10.2789 14.8981 10.2797C14.9751 10.2822 15.0521 10.2867 15.1286 10.2932C15.1524 10.2952 15.1759 10.2967 15.1994 10.2989C15.2931 10.3084 15.3866 10.3202 15.4796 10.3349C15.5094 10.3397 15.5391 10.3452 15.5689 10.3504C15.6331 10.3614 15.6974 10.3732 15.7614 10.3864C15.8019 10.3947 15.8421 10.4032 15.8826 10.4119C15.9396 10.4247 15.9966 10.4384 16.0534 10.4524C16.1069 10.4654 16.1601 10.4789 16.2134 10.4932C16.2706 10.5084 16.3281 10.5237 16.3851 10.5397C16.3851 10.5397 16.3856 10.5397 16.3856 10.5399C16.3854 10.5399 16.3851 10.5399 16.3849 10.5402C16.3674 10.5482 16.3509 10.5552 16.3336 10.5632C16.2966 10.5799 16.2606 10.5959 16.2246 10.6119C16.1806 10.6317 16.1366 10.6512 16.0944 10.6699C16.0684 10.6814 16.0434 10.6922 16.0179 10.7029C15.9684 10.7244 15.9191 10.7459 15.8719 10.7657C15.8661 10.7684 15.8606 10.7707 15.8549 10.7729ZM4.82761 9.86169C4.94111 9.88719 5.05411 9.91269 5.16836 9.93869C5.22211 9.95094 5.27636 9.96294 5.33036 9.97519V10.2529C5.89361 10.2529 5.33036 10.2529 5.89361 10.2529V10.0997C6.18611 10.1624 6.47861 10.2199 6.76936 10.2679L6.77311 10.3119L6.94436 10.2969L6.98811 10.3034C7.00711 10.3064 7.02561 10.3079 7.04461 10.3104C7.06886 10.3137 7.09336 10.3184 7.11736 10.3217C7.16586 10.3282 7.21311 10.3322 7.26111 10.3377C7.30736 10.3429 7.35386 10.3487 7.39961 10.3532C7.47361 10.3604 7.54711 10.3662 7.62011 10.3717C7.66061 10.3747 7.70111 10.3782 7.74136 10.3809C7.81961 10.3859 7.89711 10.3899 7.97461 10.3937C8.01036 10.3954 8.04686 10.3977 8.08236 10.3992C8.11061 10.4004 8.13861 10.4014 8.16686 10.4024C8.24586 10.4057 8.32511 10.4089 8.40311 10.4117C8.59711 10.4187 8.78761 10.4262 8.97636 10.4372V10.8272C9.53961 10.8272 8.97636 10.8272 9.53961 10.8272V10.4867C9.74936 10.5132 9.95911 10.5494 10.1716 10.6027C10.1761 10.6037 10.1796 10.6044 10.1841 10.6054C10.2481 10.6214 10.3134 10.6364 10.3789 10.6514V11.1142C10.9421 11.1142 10.3789 11.1142 10.9421 11.1142V10.7662C11.4051 10.8494 11.9146 10.9152 12.5064 10.9682C12.6159 10.9782 12.7271 10.9877 12.8409 10.9964C12.8824 10.9997 12.9329 11.0072 12.9874 11.0164C12.9886 11.0167 12.9899 11.0169 12.9909 11.0169C13.1269 11.0397 13.2981 11.0777 13.4874 11.1222H13.4649V11.6854C14.0281 11.6854 13.4649 11.6854 14.0281 11.6854V11.2529C14.2789 11.3134 14.5024 11.3649 14.6999 11.4049C14.7101 11.4072 14.7214 11.4097 14.7316 11.4114C14.7589 11.4169 14.7836 11.4214 14.8099 11.4262C14.8501 11.4337 14.8904 11.4414 14.9281 11.4479C14.9371 11.4494 14.9451 11.4507 14.9539 11.4519C15.0059 11.4604 15.0564 11.4682 15.1039 11.4744C15.1044 11.4744 15.1046 11.4744 15.1051 11.4744C15.1849 11.4847 15.2591 11.4924 15.3249 11.4949C15.3276 11.5234 15.3314 11.5517 15.3341 11.5802C15.3564 11.8227 15.3811 12.0644 15.4114 12.3039C15.4136 12.3209 15.4161 12.3377 15.4184 12.3547C15.4469 12.5784 15.4799 12.7999 15.5154 13.0197C15.5206 13.0522 15.5244 13.0857 15.5299 13.1179C15.5271 13.1189 15.5244 13.1202 15.5216 13.1212C15.5006 13.1284 15.4806 13.1339 15.4606 13.1397C15.4489 13.1429 15.4364 13.1472 15.4249 13.1502C15.3936 13.1579 15.3634 13.1639 15.3334 13.1682C14.9636 13.2209 14.5851 13.0924 14.1834 12.9564C13.9161 12.8659 13.6396 12.7724 13.3494 12.7267C13.2949 12.7179 13.2406 12.7117 13.1864 12.7064V12.2709H12.6234V12.6912C12.5666 12.6922 12.5099 12.6934 12.4536 12.6947C12.2126 12.7012 11.9849 12.7074 11.7624 12.6832C11.3151 12.6344 10.8884 12.4644 10.4364 12.2844C10.4156 12.2762 10.3946 12.2679 10.3739 12.2597C10.3769 12.2597 10.3789 12.2597 10.3821 12.2597V11.6964H9.81886V12.0514C9.57186 11.9672 9.31786 11.8969 9.05361 11.8599C9.02911 11.8564 9.00461 11.8554 8.97986 11.8524V11.4094H8.41686V11.8244C8.28136 11.8254 8.14661 11.8289 8.01411 11.8337C7.74311 11.8427 7.48711 11.8512 7.23286 11.8304C6.87786 11.8014 6.53061 11.7152 6.17261 11.6129V11.1219H5.60936V11.4487C5.60211 11.4467 5.59486 11.4447 5.58761 11.4427C5.55361 11.4329 5.51911 11.4239 5.48486 11.4142C5.41836 11.3957 5.35186 11.3777 5.28486 11.3604C5.24461 11.3499 5.20386 11.3404 5.16336 11.3304C5.10036 11.3152 5.03711 11.3012 4.97361 11.2877C4.93236 11.2789 4.89111 11.2702 4.84936 11.2624C4.83161 11.2589 4.81411 11.2547 4.79636 11.2514C4.78411 10.9652 4.75011 10.7122 4.71711 10.4659C4.69011 10.2617 4.66186 10.0527 4.64536 9.81969C4.70561 9.83444 4.76661 9.84819 4.82761 9.86169ZM15.5191 7.04319C15.5751 7.05794 15.6314 7.07269 15.6876 7.08744C15.6824 7.09644 15.6771 7.10569 15.6719 7.11469C15.6484 7.15544 15.6251 7.19619 15.5999 7.23519C15.4716 7.43419 15.2764 7.61569 14.9854 7.80694C14.5684 8.08019 14.0726 8.29544 13.5119 8.44594C12.7009 8.66369 11.8691 8.84894 11.0404 8.99719C10.7881 9.04194 10.3181 9.12544 10.1191 9.52794C10.1016 9.56319 10.0884 9.59894 10.0771 9.63469C10.0751 9.64094 10.0734 9.64719 10.0716 9.65344C10.0381 9.76869 10.0334 9.88594 10.0516 9.99894C9.97811 9.98444 9.90486 9.97144 9.83186 9.95969C9.81611 9.95719 9.80086 9.95519 9.78511 9.95294C9.72561 9.94394 9.66636 9.93544 9.60736 9.92819C9.58011 9.92469 9.55286 9.92194 9.52561 9.91894C9.47861 9.91369 9.43161 9.90844 9.38486 9.90394C9.35386 9.90094 9.32311 9.89819 9.29211 9.89569C9.24936 9.89219 9.20661 9.88869 9.16411 9.88544C9.13136 9.88319 9.09861 9.88069 9.06611 9.87869C9.02586 9.87619 8.98561 9.87394 8.94511 9.87169C8.91136 9.86969 8.87761 9.86794 8.84386 9.86619C8.80436 9.86444 8.76511 9.86269 8.72561 9.86094C8.69236 9.85944 8.65911 9.85794 8.62586 9.85669C8.55836 9.85419 8.49111 9.85169 8.42411 9.84919C8.32511 9.84569 8.22561 9.84194 8.12536 9.83769C8.13711 9.83194 8.15011 9.82469 8.16211 9.81869C8.25711 9.77119 8.35386 9.72144 8.45511 9.66719C8.52136 9.63144 8.60611 9.58494 8.69486 9.52744C8.71261 9.51594 8.73011 9.50519 8.74811 9.49269C8.75136 9.49044 8.75461 9.48769 8.75811 9.48519C8.89336 9.38994 9.03061 9.26469 9.12711 9.10119C9.15711 9.05044 9.18411 8.99719 9.20486 8.93869C9.23686 8.84794 9.25186 8.75944 9.26486 8.68094C9.27586 8.61519 9.28636 8.55294 9.30461 8.50694C9.33811 8.42319 9.41686 8.34269 9.55236 8.25494C9.74886 8.12694 9.97411 8.01344 10.2609 7.89719L12.7091 6.90644C12.7091 6.90644 12.7094 6.90644 12.7094 6.90669C12.7416 6.91069 12.7736 6.91344 12.8064 6.91369C13.0556 6.91219 13.2886 6.88419 13.5184 6.85469C13.7216 6.82819 13.9139 6.80344 14.1049 6.80044C14.5706 6.79144 15.0321 6.91444 15.5191 7.04319ZM21.4624 11.3057C21.4026 11.3249 21.3406 11.3429 21.2764 11.3612C21.0549 11.4254 20.8111 11.4957 20.6041 11.6467C20.5351 11.6969 20.4701 11.7564 20.4114 11.8274C20.3846 11.8599 20.3601 11.8942 20.3356 11.9287C20.3086 11.9667 20.2811 12.0052 20.2599 12.0229C20.2589 12.0239 20.2576 12.0254 20.2564 12.0262C20.2311 12.0449 20.1744 12.0607 20.0964 12.0819C19.8629 12.1472 19.5261 12.2659 19.2996 12.5454C19.2346 12.6254 19.1859 12.7107 19.1426 12.7854C19.1171 12.8294 19.0921 12.8737 19.0634 12.9152C18.8854 13.1732 18.7556 13.3197 18.5809 13.3529C18.3221 13.4024 18.0701 13.5087 17.8526 13.6599C17.7341 13.7419 17.6481 13.8372 17.5901 13.9514C17.2199 13.9777 16.8766 14.1667 16.6514 14.4722C16.6069 14.4774 16.5624 14.4854 16.5179 14.4952C16.5031 14.4984 16.4884 14.5029 16.4734 14.5064C16.4439 14.5139 16.4144 14.5212 16.3849 14.5304C16.3681 14.5357 16.3514 14.5419 16.3346 14.5477C16.3071 14.5569 16.2801 14.5667 16.2531 14.5777C16.2364 14.5847 16.2196 14.5919 16.2031 14.5994C16.1866 14.6067 16.1701 14.6129 16.1541 14.6207C16.1669 14.5739 16.1789 14.5272 16.1889 14.4807C16.1989 14.4334 16.2066 14.3862 16.2126 14.3394C16.2149 14.3227 16.2159 14.3062 16.2174 14.2897C16.2204 14.2594 16.2234 14.2292 16.2249 14.1992C16.2261 14.1797 16.2261 14.1604 16.2266 14.1409C16.2271 14.1134 16.2276 14.0864 16.2274 14.0592C16.2271 14.0392 16.2264 14.0189 16.2256 13.9989C16.2246 13.9724 16.2234 13.9462 16.2216 13.9199C16.2201 13.8999 16.2186 13.8799 16.2169 13.8602C16.2146 13.8334 16.2119 13.8067 16.2089 13.7799C16.2066 13.7612 16.2046 13.7422 16.2021 13.7234C16.1984 13.6947 16.1944 13.6657 16.1901 13.6369C16.1879 13.6209 16.1856 13.6049 16.1829 13.5889C16.1769 13.5509 16.1706 13.5127 16.1641 13.4749C16.1634 13.4699 16.1624 13.4649 16.1616 13.4597C16.1611 13.4569 16.1606 13.4539 16.1601 13.4512C16.1599 13.4492 16.1596 13.4472 16.1591 13.4452C16.1986 13.4237 16.2381 13.4017 16.2774 13.3799C16.3716 13.3274 16.4661 13.2749 16.5626 13.2282C18.2484 12.4124 19.4369 11.5992 20.5861 10.8132C20.7616 10.6932 20.9406 10.5709 21.1216 10.4484C21.1771 10.4109 21.2331 10.3734 21.2889 10.3357C21.3469 10.2967 21.4039 10.2579 21.4624 10.2189V10.2209V11.3057ZM21.4624 9.54394C21.4329 9.56319 21.4049 9.58244 21.3759 9.60169C21.2736 9.66919 21.1721 9.73694 21.0711 9.80444C21.0619 9.81069 21.0521 9.81694 21.0429 9.82319V9.68944H20.4796V10.2039C20.4094 10.2517 20.3376 10.3007 20.2681 10.3479C20.1534 10.4262 20.0381 10.5052 19.9221 10.5842V10.5482H19.3591V10.9637C19.0891 11.1432 18.8111 11.3234 18.5199 11.5044V11.4099H17.9566V11.8449C17.7759 11.9509 17.5894 12.0569 17.3964 12.1632V11.9844H16.8331V12.4629C16.6659 12.5489 16.4949 12.6349 16.3171 12.7209C16.2356 12.7604 16.1554 12.8039 16.0754 12.8479C16.0701 12.8509 16.0646 12.8537 16.0594 12.8564C16.0589 12.8567 16.0586 12.8569 16.0581 12.8572C16.0556 12.8409 16.0539 12.8239 16.0511 12.8074C16.0179 12.5934 15.9881 12.3772 15.9614 12.1592C15.9559 12.1132 15.9511 12.0672 15.9459 12.0212C15.9246 11.8377 15.9059 11.6532 15.8894 11.4677C15.8866 11.4354 15.8824 11.4039 15.8796 11.3717C15.8801 11.3717 15.8806 11.3712 15.8811 11.3712C15.9044 11.3619 15.9284 11.3517 15.9521 11.3419C15.9799 11.3304 16.0071 11.3192 16.0354 11.3074C16.0581 11.2979 16.0821 11.2877 16.1051 11.2777C16.2456 11.2182 16.3941 11.1532 16.5511 11.0822V11.4012C17.1144 11.4012 16.5511 11.4012 17.1144 11.4012V10.8354H17.0829C17.1154 10.8199 17.1484 10.8039 17.1814 10.7882L17.1819 10.7884L17.2844 10.7389L17.6744 10.5499V10.8269C18.2376 10.8269 17.6744 10.8269 18.2376 10.8269V10.2637H18.2361C18.4576 10.1504 18.6871 10.0312 18.9241 9.90644L18.9249 9.90669L19.0381 9.84694C19.0581 9.83644 19.0791 9.82519 19.0991 9.81444L19.3586 9.67744V9.96544C19.9216 9.96544 19.3586 9.96544 19.9216 9.96544V9.40269H19.8686C20.1196 9.26669 20.3771 9.12494 20.6384 8.97994H20.6389L20.7389 8.92444L21.3446 8.58794L21.3411 8.58694C21.3831 8.56319 21.4244 8.53969 21.4624 8.51844V9.54394Z" fill="#26A387"/>
<path d="M7.45667 14.6254L7.01367 14.9732L7.18767 15.1944C7.27842 15.3102 7.31467 15.4782 7.27942 15.6229L7.21317 15.8969L7.76067 16.0292L7.82692 15.7554C7.90317 15.4399 7.82967 15.1004 7.63067 14.8469L7.45667 14.6254ZM9.01942 15.3542L8.73842 15.3364L8.70292 15.8984L8.98392 15.9162C9.04717 15.9199 9.11242 15.9734 9.13292 16.0369L9.21892 16.3054L9.75517 16.1334L9.66917 15.8652C9.57867 15.5827 9.31167 15.3724 9.01942 15.3542ZM11.4022 15.8614C11.1784 15.5889 10.7867 15.5007 10.4707 15.6517L10.2167 15.7729L10.4592 16.2812L10.7134 16.1599C10.7932 16.1219 10.9097 16.1492 10.9669 16.2189L11.1457 16.4364L11.5809 16.0792L11.4022 15.8614ZM13.8247 15.9514C13.6019 16.0182 13.4252 16.2009 13.3634 16.4269C13.3014 16.6519 13.3592 16.8994 13.5134 17.0729L13.7007 17.2832L14.1212 16.9087L13.9342 16.6984C13.9072 16.6679 13.8954 16.6167 13.9067 16.5759C13.9172 16.5374 13.9512 16.5014 13.9872 16.4904L14.2569 16.4092L14.0944 15.8699L13.8247 15.9514ZM12.4862 16.5922C12.1917 16.4359 11.8224 16.5177 11.6467 16.7784L11.4892 17.0119L11.9562 17.3269L12.1137 17.0937C12.1237 17.0789 12.1802 17.0679 12.2224 17.0902C12.2899 17.1259 12.3492 17.2197 12.3769 17.3344L12.4432 17.6084L12.9907 17.4762L12.9247 17.2027C12.8577 16.9269 12.6982 16.7047 12.4862 16.5922ZM6.02292 14.5654C5.98417 14.6314 5.92592 14.6864 5.85892 14.7199L5.60742 14.8464L5.86017 15.3494L6.11192 15.2229C6.27692 15.1399 6.41417 15.0114 6.50867 14.8507L6.65117 14.6079L6.16567 14.3224L6.02292 14.5654ZM18.3602 15.5644C18.1809 15.6224 18.0127 15.7087 17.8599 15.8204L17.6327 15.9864L17.9654 16.4409L18.1924 16.2747C18.2967 16.1984 18.4117 16.1397 18.5339 16.0999L18.8017 16.0129L18.6279 15.4772L18.3602 15.5644ZM20.3364 14.5212L20.1862 13.9787L19.9147 14.0537C19.7747 14.0924 19.6432 14.1547 19.5244 14.2382L19.2939 14.4002L19.6174 14.8612L19.8479 14.6992C19.9142 14.6527 19.9872 14.6182 20.0652 14.5967L20.3364 14.5212ZM11.7839 11.4104H11.2207V11.9737C11.7839 11.9737 11.2207 11.9737 11.7839 11.9737V11.4104ZM14.8702 11.9849H14.3069V12.5482C14.8702 12.5482 14.3069 12.5482 14.8702 12.5482V11.9849ZM7.57717 10.8359H7.01392V11.4017C7.57717 11.4017 7.01392 11.4017 7.57717 11.4017V10.8359Z" fill="#26A387"/>
</svg>
