<svg width="26" height="25" viewBox="0 0 26 25" fill="none" xmlns="http://www.w3.org/2000/svg">
<g clip-path="url(#clip0_338_9136)">
<path d="M24.6495 8.33351C24.5537 8.7727 24.4637 9.21189 24.3567 9.64545C24.2497 10.0846 24.3116 10.4732 24.5932 10.8335C24.7846 11.0756 24.9592 11.329 25.1337 11.5824C25.5616 12.1961 25.5673 12.8211 25.1393 13.4405C24.9479 13.7164 24.7508 13.9923 24.5481 14.2626C24.306 14.5835 24.2553 14.9439 24.3398 15.3268C24.4299 15.7378 24.5369 16.1488 24.5988 16.5599C24.6889 17.1342 24.458 17.5903 23.9907 17.9168C23.7486 18.0914 23.4952 18.2603 23.2306 18.3954C22.6619 18.6826 22.386 19.1387 22.3409 19.7581C22.3297 19.927 22.3015 20.0903 22.2733 20.2592C22.1044 21.2445 21.6878 21.6443 20.6855 21.7907C20.4378 21.8245 20.1844 21.8695 19.9366 21.909C19.5538 21.9653 19.2553 22.1567 19.047 22.4889C18.8668 22.7873 18.6923 23.0858 18.5008 23.3729C18.0447 24.043 17.5492 24.24 16.7553 24.0655C16.4456 23.9979 16.136 23.9247 15.8263 23.8515C15.4265 23.7558 15.0661 23.8177 14.7339 24.0655C14.5425 24.2119 14.3398 24.3527 14.1427 24.4991C13.2756 25.1297 12.7125 25.1241 11.8398 24.4934C11.6371 24.347 11.4288 24.2006 11.226 24.0486C10.9107 23.8121 10.5616 23.7614 10.1844 23.8515C9.8578 23.9247 9.53123 24.0092 9.19902 24.0824C8.49519 24.2344 7.92087 24.0317 7.51546 23.418C7.3747 23.1984 7.22267 22.9844 7.10443 22.7479C6.82289 22.1792 6.36118 21.9033 5.74181 21.8583C5.57289 21.847 5.40398 21.8189 5.24069 21.7907C4.25533 21.6218 3.85555 21.2108 3.70352 20.2085C3.66974 19.9889 3.6247 19.7637 3.60217 19.5441C3.5515 19.0542 3.28686 18.7164 2.87019 18.4799C2.59429 18.3223 2.32402 18.1533 2.05938 17.9788C1.46816 17.5846 1.27672 17.0272 1.41749 16.3403C1.48506 16.0193 1.56388 15.704 1.64271 15.3831C1.7497 14.9664 1.68213 14.5891 1.41749 14.2457C1.21479 13.9754 1.01771 13.7051 0.831903 13.4236C0.432128 12.8324 0.437759 12.2299 0.831903 11.6387C1.02334 11.3515 1.22605 11.07 1.43438 10.7941C1.68213 10.4619 1.73843 10.1015 1.64834 9.70175C1.56952 9.37518 1.48506 9.0486 1.41749 8.71639C1.27672 8.03509 1.47379 7.47765 2.06501 7.07788C2.29587 6.92022 2.53235 6.76257 2.78573 6.63869C3.32064 6.36842 3.59654 5.93486 3.64722 5.34928C3.66411 5.18036 3.69226 5.01707 3.71479 4.84815C3.86681 3.82901 4.28348 3.41234 5.30825 3.26031C5.52222 3.22653 5.73618 3.18711 5.95015 3.16459C6.46253 3.11392 6.81163 2.84365 7.05938 2.40446C7.21141 2.13419 7.3747 1.87518 7.54925 1.61617C7.94339 1.02495 8.50645 0.833511 9.18776 0.974277C9.5256 1.04184 9.86343 1.13193 10.2013 1.21076C10.5785 1.29522 10.9276 1.24455 11.2429 1.00806C11.5076 0.810989 11.7722 0.613917 12.0425 0.433736C12.7463 -0.033606 13.2925 -0.0279753 13.9963 0.450628C14.261 0.630808 14.52 0.816619 14.7733 1.00806C15.0887 1.24455 15.4378 1.28959 15.815 1.20513C16.2148 1.11504 16.6202 1.01369 17.0256 0.946124C17.6224 0.850403 18.0898 1.08689 18.4333 1.57112C18.6022 1.80761 18.7655 2.04973 18.895 2.30874C19.1821 2.87743 19.6438 3.1477 20.2632 3.19275C20.5053 3.20964 20.7474 3.26031 20.9839 3.30536C21.6878 3.44049 22.1101 3.86842 22.2396 4.57225C22.3071 4.92135 22.3578 5.27608 22.4141 5.62518C22.476 5.98554 22.6506 6.26707 22.9659 6.46414C23.3094 6.67811 23.6585 6.88081 23.9851 7.11166C24.3905 7.40446 24.6438 7.7986 24.6495 8.33351ZM24.0583 8.33914C24.0639 8.00694 23.9062 7.77045 23.6528 7.60153C23.3375 7.38757 23.0053 7.18486 22.6787 6.98216C22.2001 6.68937 21.9186 6.2727 21.8342 5.7209C21.7778 5.3718 21.7159 5.0227 21.654 4.66797C21.5751 4.23441 21.3218 3.96414 20.8826 3.89094C20.6123 3.8459 20.3477 3.78959 20.0774 3.76144C19.3454 3.68261 18.788 3.34477 18.4333 2.69162C18.2869 2.42135 18.1123 2.16234 17.9378 1.90896C17.7069 1.57112 17.386 1.44725 16.9806 1.54297C16.6596 1.61617 16.3387 1.67811 16.0233 1.76257C15.4209 1.92585 14.8747 1.8245 14.3736 1.44725C14.1033 1.24455 13.8274 1.05311 13.5515 0.861664C13.1855 0.608286 12.8195 0.602655 12.4535 0.861664C12.1382 1.08126 11.8285 1.30648 11.5076 1.52608C11.1134 1.79635 10.6799 1.90896 10.2013 1.80761C9.81839 1.72315 9.42988 1.64995 9.04699 1.55423C8.6078 1.44725 8.26997 1.58802 8.02785 1.95401C7.81952 2.27495 7.61681 2.60153 7.41411 2.92811C7.13821 3.36166 6.73843 3.62067 6.23168 3.71076C5.82627 3.78396 5.42087 3.85153 5.01546 3.93599C4.67199 4.00919 4.4524 4.22878 4.3792 4.57225C4.31163 4.8763 4.2497 5.17473 4.21591 5.48441C4.13708 6.21639 3.79361 6.7682 3.14046 7.12293C2.87019 7.26932 2.61118 7.43824 2.35217 7.61279C2.0256 7.83802 1.89609 8.15333 1.98055 8.54184C2.04812 8.86279 2.11569 9.18374 2.20015 9.49905C2.36907 10.1241 2.26208 10.6815 1.87357 11.1939C1.7328 11.3797 1.59204 11.5711 1.4569 11.7626C0.995191 12.4101 0.995191 12.6578 1.44564 13.3054C1.59767 13.5193 1.7497 13.7333 1.90735 13.9416C2.26208 14.4146 2.35217 14.9382 2.21704 15.5126C2.13821 15.8391 2.07064 16.1713 1.99181 16.4979C1.88483 16.9371 2.03123 17.2693 2.40285 17.5114C2.72379 17.7198 3.056 17.9168 3.37695 18.1252C3.81051 18.4067 4.06388 18.8009 4.15398 19.3076C4.22154 19.7018 4.28911 20.1015 4.36794 20.4957C4.44114 20.8504 4.66073 21.0756 5.01546 21.1488C5.30825 21.2108 5.60105 21.2727 5.89947 21.3065C6.64834 21.3853 7.20015 21.7288 7.56614 22.3932C7.71253 22.6635 7.88708 22.9225 8.06163 23.1759C8.28686 23.5081 8.6078 23.6207 8.99632 23.5362C9.31726 23.4686 9.63821 23.4011 9.95352 23.3166C10.5673 23.1533 11.1191 23.2547 11.6258 23.6319C11.8792 23.8234 12.1438 24.0036 12.4028 24.1894C12.7914 24.4709 13.1855 24.4709 13.574 24.1894C13.8781 23.9698 14.1821 23.7502 14.4918 23.5418C14.8691 23.2828 15.2857 23.1702 15.7474 23.2659C16.1416 23.3504 16.5357 23.4236 16.9299 23.5193C17.3972 23.6319 17.7351 23.4743 17.9884 23.0858C18.1855 22.7761 18.3769 22.4664 18.574 22.1567C18.8556 21.7119 19.261 21.4473 19.779 21.3628C20.1224 21.3065 20.4659 21.2558 20.8038 21.1882C21.3556 21.0813 21.5526 20.8842 21.6596 20.3268C21.7047 20.0903 21.7497 19.8482 21.7778 19.606C21.851 18.8741 22.1945 18.3223 22.8477 17.9619C23.1179 17.8155 23.3769 17.6409 23.636 17.472C23.9794 17.2412 24.0977 16.9202 24.0076 16.5204C23.9344 16.1995 23.8724 15.8786 23.7824 15.5632C23.6191 14.9495 23.726 14.3977 24.1089 13.8909C24.3116 13.6207 24.5031 13.3448 24.6945 13.0689C24.9366 12.7141 24.9423 12.3538 24.6945 11.9934C24.5087 11.7232 24.3229 11.4529 24.1202 11.1939C23.7317 10.6815 23.6134 10.1241 23.7824 9.49905C23.8893 9.11054 23.9682 8.72202 24.0583 8.33914Z" fill="#26A387"/>
<path d="M14.2664 10.3604C13.8385 11.8074 12.8982 12.7083 11.5074 13.1532C10.6685 13.4178 9.82949 13.4347 8.99615 13.1588C8.99052 13.1306 8.98489 13.1025 8.97363 13.0687C9.06372 13.018 9.15381 12.9617 9.2439 12.9223C9.89706 12.6408 10.5558 12.3761 11.2034 12.0833C12.2112 11.6273 12.2619 10.7883 12.1099 10.0507C11.941 9.23987 11.4793 8.6205 10.8261 8.13627C10.5727 7.94483 10.2968 7.77591 10.0547 7.56758C9.47476 7.07208 9.3903 6.52591 9.76192 5.86713C10.1167 5.23649 10.1448 5.2196 10.736 5.64753C11.7833 6.40767 12.3182 7.47749 12.5322 8.71623C12.6054 9.15541 12.5998 9.61149 12.6786 10.1295C12.7011 10.0732 12.7124 10.0113 12.7462 9.96059C13.0108 9.5383 13.1516 9.07095 13.1628 8.57546C13.1797 7.81532 13.1516 7.06082 13.1685 6.30068C13.1797 5.59686 13.3486 4.92681 13.7878 4.35812C13.8554 4.26803 13.9342 4.1892 14.0074 4.10474C14.0299 4.07659 14.0694 4.06532 14.1426 4.01465C14.1763 4.16104 14.2101 4.27929 14.227 4.40316C14.3959 5.63627 14.5311 6.87501 14.7507 8.09686C14.8464 8.63177 15.066 9.15541 15.3194 9.63965C16.1189 11.1768 17.5209 11.8187 19.2214 11.4865C19.5536 11.4189 19.8858 11.3119 20.2236 11.2219C19.5085 9.84235 18.2642 9.35812 16.8509 9.8705C16.8115 8.87388 17.6786 8.15879 18.6471 8.39528C19.4016 8.58109 20.0435 8.99213 20.6347 9.47073C21.2878 10.0056 21.9072 10.58 22.5266 11.1487C22.6167 11.2331 22.6673 11.4133 22.6504 11.5428C22.5772 12.1509 22.1268 12.652 21.4962 12.7703C20.5727 12.9392 19.6493 13.0912 18.7203 13.1926C16.6763 13.4234 15.0097 12.0383 14.379 10.6025C14.3509 10.5293 14.3171 10.4561 14.2664 10.3604Z" fill="#26A387"/>
<path d="M4.27218 9.14982C4.27218 9.34126 4.27781 9.52707 4.27218 9.71852C4.24966 10.1746 4.15957 10.6363 4.21025 11.0811C4.29471 11.8525 4.74516 12.2467 5.44898 12.2917C6.26543 12.348 6.92421 11.937 7.13254 11.2219C7.18322 11.0473 7.20011 10.8559 7.20011 10.6701C7.20574 9.00343 7.20574 7.33676 7.20011 5.67009C7.20011 5.48428 7.17196 5.29847 7.14944 5.11266C7.07061 4.52707 7.34088 4.01469 7.87016 3.78383C7.92646 3.76131 8.06723 3.80072 8.09538 3.8514C8.32624 4.2568 8.55146 4.66784 8.75417 5.09014C8.80484 5.19712 8.78232 5.34915 8.75417 5.47302C8.48953 6.59915 8.4839 7.73653 8.52894 8.87955C8.56272 9.78608 8.6134 10.6982 8.38254 11.5879C8.14043 12.5113 7.64493 13.2658 6.80034 13.75C5.47714 14.5102 3.87241 13.8345 3.44448 12.3368C3.10101 11.1374 3.51768 10.1014 4.17646 9.13293C4.20462 9.13856 4.2384 9.14419 4.27218 9.14982Z" fill="#26A387"/>
<path d="M7.14972 17.4044C6.50783 17.4044 5.89972 17.4044 5.2522 17.4044C5.2522 17.7535 5.2522 18.0857 5.2522 18.4179C5.2522 18.5305 5.27472 18.6544 5.23531 18.7501C5.20716 18.829 5.10017 18.9247 5.02698 18.9247C4.95378 18.9247 4.86369 18.8346 4.81301 18.7614C4.77923 18.7051 4.79612 18.615 4.79612 18.5418C4.79612 17.6353 4.79612 16.7231 4.79612 15.8166C4.79612 15.7715 4.77923 15.7096 4.80175 15.6758C4.86932 15.5801 4.95378 15.49 5.02698 15.3999C5.10017 15.49 5.23531 15.5745 5.24657 15.6758C5.27472 15.9799 5.25783 16.2952 5.25783 16.6049C5.25783 16.7175 5.25783 16.8245 5.25783 16.954C5.89972 16.954 6.51346 16.954 7.15535 16.954C7.15535 16.5767 7.15535 16.2163 7.15535 15.8504C7.15535 15.7659 7.13846 15.6702 7.17225 15.6026C7.21729 15.5238 7.31864 15.4112 7.38058 15.4224C7.46504 15.4337 7.57202 15.5407 7.59454 15.6251C7.63396 15.7659 7.61144 15.9236 7.61144 16.0699C7.61144 16.9145 7.61144 17.7535 7.61144 18.5981C7.61144 18.7614 7.61144 18.9416 7.38058 18.9359C7.15535 18.9303 7.15535 18.7558 7.15535 18.5868C7.14972 18.204 7.14972 17.8211 7.14972 17.4044Z" fill="#26A387"/>
<path d="M15.6626 18.0293C15.5613 18.2658 15.4656 18.4854 15.3755 18.7106C15.3079 18.8795 15.1953 19.009 15.0207 18.9077C14.9475 18.8626 14.9138 18.6543 14.9532 18.5529C15.3473 17.5845 15.7584 16.6216 16.1806 15.6644C16.2313 15.5518 16.4002 15.411 16.5016 15.4167C16.6255 15.4223 16.7944 15.5518 16.8451 15.67C17.273 16.6273 17.6784 17.5901 18.0725 18.5586C18.112 18.6543 18.0725 18.8626 17.9993 18.9077C17.8473 19.0034 17.6953 18.8964 17.6671 18.7275C17.5433 18.08 17.1322 17.9336 16.5354 18.018C16.2538 18.0631 15.9554 18.0293 15.6626 18.0293ZM16.5072 15.9854C16.2764 16.5428 16.0624 17.0552 15.8372 17.5957C16.2989 17.5957 16.7212 17.5957 17.1773 17.5957C16.952 17.0552 16.7437 16.5428 16.5072 15.9854Z" fill="#26A387"/>
<path d="M9.12031 18.0293C9.01896 18.2714 8.92324 18.5023 8.82189 18.7331C8.75432 18.8908 8.63608 19.009 8.47842 18.9077C8.40522 18.8626 8.36581 18.6543 8.40522 18.5586C8.79937 17.5901 9.2104 16.6273 9.6327 15.67C9.68337 15.5518 9.85792 15.4223 9.9818 15.4167C10.0888 15.411 10.2521 15.5518 10.3027 15.6644C10.725 16.6216 11.1361 17.5845 11.5302 18.5529C11.5696 18.6487 11.5359 18.857 11.4627 18.902C11.3106 19.0034 11.1811 18.8964 11.1192 18.7331C11.1136 18.7218 11.1079 18.7162 11.1079 18.705C11.0009 18.0743 10.6012 17.9336 10.0268 18.018C9.73405 18.0631 9.43 18.0293 9.12031 18.0293ZM9.97054 15.9854C9.73405 16.5484 9.52572 17.0608 9.30612 17.5901C9.77346 17.5901 10.1958 17.5901 10.6406 17.5901C10.4154 17.0496 10.207 16.5428 9.97054 15.9854Z" fill="#26A387"/>
<path d="M12.7856 18.4688C13.2699 18.4688 13.7203 18.4688 14.1651 18.4688C14.2496 18.4688 14.3509 18.4407 14.4129 18.4801C14.5086 18.5308 14.5762 18.6209 14.655 18.6997C14.5762 18.7729 14.4973 18.9136 14.4185 18.9193C13.8273 18.9362 13.2361 18.9362 12.6449 18.9249C12.4309 18.9193 12.3295 18.7729 12.3295 18.5702C12.3239 17.613 12.3239 16.6614 12.3408 15.7042C12.3408 15.6028 12.4872 15.5071 12.5604 15.4058C12.6336 15.5071 12.7744 15.6028 12.7744 15.7042C12.7913 16.4981 12.7856 17.2977 12.7856 18.0916C12.7856 18.1986 12.7856 18.3112 12.7856 18.4688Z" fill="#26A387"/>
<path d="M19.3287 18.4686C19.8636 18.4686 20.3478 18.4686 20.8377 18.4686C21.0179 18.4686 21.2093 18.4742 21.1981 18.7107C21.1924 18.9247 21.0066 18.9303 20.8377 18.9247C20.3197 18.9247 19.8073 18.9247 19.2893 18.9247C18.9909 18.9247 18.8726 18.8177 18.8726 18.5249C18.867 17.5902 18.8726 16.6556 18.8726 15.7209C18.8726 15.5519 18.9289 15.3887 19.1147 15.4224C19.1992 15.4393 19.3174 15.6139 19.3231 15.7209C19.34 16.5148 19.3343 17.3087 19.3343 18.1083C19.3287 18.2096 19.3287 18.3222 19.3287 18.4686Z" fill="#26A387"/>
</g>
<defs>
<clipPath id="clip0_338_9136">
<rect width="25" height="25" fill="white" transform="translate(0.5)"/>
</clipPath>
</defs>
</svg>
