<svg width="26" height="25" viewBox="0 0 26 25" fill="none" xmlns="http://www.w3.org/2000/svg">
<g clip-path="url(#clip0_990_5504)">
<path d="M8.34098 23.1063C7.7728 23.3336 7.20462 23.4851 6.63644 23.4851C4.93189 23.523 3.3031 22.5002 2.16674 21.0608C1.63643 20.4169 1.97734 19.2805 1.67431 18.5608C0.613707 16.2881 1.25765 14.5457 3.07583 13.1063C4.40159 12.0457 5.9925 11.1745 7.54553 11.4396C8.41674 11.5911 9.25007 12.1593 10.0076 12.8033" stroke="#26A387" stroke-miterlimit="10" stroke-linecap="round" stroke-linejoin="round"/>
<path d="M12.0528 13.0305C11.7498 12.9547 11.4846 12.879 11.1816 12.879C10.8028 12.8411 10.3862 12.8032 10.0074 12.8032C8.871 12.8032 7.69676 13.0305 6.9013 13.5608C5.61342 14.4699 5.08312 16.2123 4.93161 17.879C4.66645 20.1517 5.46191 21.8563 7.81039 22.7275C7.99979 22.8032 8.18918 22.9169 8.37858 23.0684C8.871 23.485 9.36342 24.0911 9.96948 24.1669C11.4089 24.3184 12.8862 24.0911 14.0225 23.3714" stroke="#26A387" stroke-miterlimit="10" stroke-linecap="round" stroke-linejoin="round"/>
<path d="M15.3488 12.1214C14.023 12.0078 12.8867 12.2729 12.0155 13.0305C11.6745 13.3335 11.4094 13.6744 11.1442 14.0911C10.9927 14.3562 10.8412 14.6593 10.7276 15.0002C10.4624 15.7578 9.36394 16.3259 9.28818 17.1593C9.09879 18.8259 9.4397 20.5305 10.4624 21.7047C10.5382 21.8184 10.6518 21.932 10.7655 22.0078C11.5609 22.7653 12.773 23.182 13.9851 23.3714C14.0988 23.4093 14.2503 23.4093 14.3639 23.4093C15.8412 23.5608 17.2427 23.1441 18.3412 22.3487" stroke="#26A387" stroke-miterlimit="10" stroke-linecap="round" stroke-linejoin="round"/>
<path d="M13.4547 16.1363C13.6063 14.8105 14.0229 13.409 14.8941 12.5378C16.0684 11.3257 17.9244 10.909 19.7426 11.0984C20.576 11.1741 21.1441 12.2726 21.9017 12.5378C24.2502 13.409 25.0457 15.0757 24.7805 17.3863C24.5911 19.0908 24.0987 20.7953 22.8108 21.7044C21.7123 22.462 19.932 22.5757 18.5305 22.4241C17.2805 22.2726 16.182 21.7423 15.3108 20.9847C13.9851 19.7726 13.2654 17.9923 13.4547 16.1363Z" stroke="#26A387" stroke-miterlimit="10" stroke-linecap="round" stroke-linejoin="round"/>
<path d="M17.6212 13.9395C17.6969 14.2425 17.4318 14.5834 16.9772 14.697C16.5606 14.8107 16.1439 14.6213 16.0681 14.3183C15.9924 14.0152 16.2575 13.6743 16.7121 13.5607C17.1288 13.447 17.5075 13.6364 17.6212 13.9395ZM16.7878 18.2955C16.6363 18.5986 16.2197 18.6743 15.8409 18.4849C15.4621 18.2955 15.2348 17.9167 15.3863 17.6137C15.5378 17.3107 15.9545 17.2349 16.3333 17.4243C16.7121 17.6137 16.9015 18.0304 16.7878 18.2955ZM20.3863 16.288C20.2348 16.591 19.8181 16.6667 19.4394 16.4773C19.0606 16.288 18.8333 15.9092 18.9848 15.6061C19.1363 15.3031 19.553 15.2273 19.9318 15.4167C20.3106 15.6061 20.5378 15.9849 20.3863 16.288ZM21.7878 19.5455C21.4469 19.4698 21.2954 19.0531 21.4091 18.6364C21.5227 18.2198 21.8636 17.9546 22.1666 18.0304C22.5075 18.1061 22.6591 18.5228 22.5454 18.9395C22.4318 19.394 22.0909 19.6592 21.7878 19.5455Z" stroke="#26A387" stroke-miterlimit="10" stroke-linecap="round" stroke-linejoin="round"/>
<path d="M19.667 13.4092L19.8564 13.4471" stroke="#26A387" stroke-miterlimit="10" stroke-linecap="round" stroke-linejoin="round"/>
<path d="M17.3184 16.4771L17.5078 16.5149" stroke="#26A387" stroke-miterlimit="10" stroke-linecap="round" stroke-linejoin="round"/>
<path d="M13.379 21.25C13.2275 21.553 12.8109 21.6288 12.4321 21.4394C12.0533 21.25 11.826 20.8712 11.9775 20.5682C12.129 20.2651 12.5457 20.1894 12.9245 20.3788C13.3033 20.5682 13.4927 20.9469 13.379 21.25ZM3.37904 15.5682C3.07601 15.4545 2.92449 15.0379 3.07601 14.6212C3.22752 14.2045 3.56843 13.9773 3.90934 14.053C4.21237 14.1666 4.36389 14.5833 4.21237 15C4.02298 15.4166 3.68207 15.6818 3.37904 15.5682ZM3.49268 20.7576C3.18965 20.7954 2.88662 20.5303 2.84874 20.1136C2.77298 19.6969 2.96237 19.356 3.2654 19.2803C3.56843 19.2045 3.87146 19.5076 3.90934 19.9242C3.9851 20.3409 3.79571 20.7197 3.49268 20.7576ZM11.4851 18.8636C11.1442 18.9015 10.8412 18.5606 10.8033 18.1439C10.7654 17.7273 10.9927 17.3485 11.3336 17.3106C11.6745 17.2727 11.9775 17.6136 12.0154 18.0303C12.0533 18.4848 11.826 18.8257 11.4851 18.8636Z" stroke="#26A387" stroke-miterlimit="10" stroke-linecap="round" stroke-linejoin="round"/>
<path d="M12.167 15.0381L12.3564 15.076" stroke="#26A387" stroke-miterlimit="10" stroke-linecap="round" stroke-linejoin="round"/>
<path d="M6.86367 18.7878C6.52276 18.8257 6.21973 18.4848 6.18185 18.0681C6.14397 17.6515 6.37124 17.2727 6.71215 17.2348C7.05306 17.1969 7.35609 17.5378 7.39397 17.9545C7.39397 18.4091 7.1667 18.75 6.86367 18.7878Z" stroke="#26A387" stroke-miterlimit="10" stroke-linecap="round" stroke-linejoin="round"/>
<path d="M7.5459 15H7.73529" stroke="#26A387" stroke-miterlimit="10" stroke-linecap="round" stroke-linejoin="round"/>
<path d="M7.31836 20.4165L7.50775 20.4544" stroke="#26A387" stroke-miterlimit="10" stroke-linecap="round" stroke-linejoin="round"/>
<path d="M3.15137 17.3486L3.34076 17.3865" stroke="#26A387" stroke-miterlimit="10" stroke-linecap="round" stroke-linejoin="round"/>
<path d="M8.60645 21.6289H8.75796" stroke="#26A387" stroke-miterlimit="10" stroke-linecap="round" stroke-linejoin="round"/>
<path d="M19.0605 18.4468H19.2121" stroke="#26A387" stroke-miterlimit="10" stroke-linecap="round" stroke-linejoin="round"/>
<path d="M22.2803 15.9468L22.4697 15.9847" stroke="#26A387" stroke-miterlimit="10" stroke-linecap="round" stroke-linejoin="round"/>
<path d="M19.1367 20.9849L19.3261 21.0227" stroke="#26A387" stroke-miterlimit="10" stroke-linecap="round" stroke-linejoin="round"/>
<path d="M5.99216 3.03016C6.48458 2.80288 7.01489 2.65137 7.58307 2.65137C9.55276 2.65137 11.1437 4.24228 11.1437 6.21197C11.1437 8.18167 9.55276 9.77258 7.58307 9.77258C5.61337 9.77258 4.02246 8.18167 4.02246 6.21197C4.02246 5.37864 4.32549 4.58319 4.81792 3.97712" stroke="#26A387" stroke-miterlimit="10" stroke-linecap="round" stroke-linejoin="round"/>
<path d="M17.1287 9.39418C19.5136 9.39418 21.4469 7.46086 21.4469 5.07599C21.4469 2.69113 19.5136 0.757812 17.1287 0.757812C14.7439 0.757812 12.8105 2.69113 12.8105 5.07599C12.8105 7.46086 14.7439 9.39418 17.1287 9.39418Z" stroke="#26A387" stroke-miterlimit="10" stroke-linecap="round" stroke-linejoin="round"/>
<path d="M6.97774 4.28038L5.99289 3.03038L4.81865 1.51523C4.66713 1.28795 4.40198 1.17432 4.17471 1.17432C3.98531 1.17432 3.79592 1.25007 3.64441 1.36371C3.26562 1.66674 3.22774 2.23492 3.56865 2.57583L4.81865 3.93947L5.84138 5.07583M19.705 4.69704C19.705 4.2425 19.402 3.82583 18.9474 3.7122C19.0232 3.48492 19.0232 3.21977 18.758 2.91674C18.5308 2.61371 18.152 2.42432 17.7732 2.4622C17.5459 2.50007 17.3186 2.65159 17.1671 2.8031C17.0156 2.72735 16.8262 2.65159 16.6368 2.65159C16.1444 2.65159 15.7277 2.9925 15.652 3.48492C15.652 3.48492 15.652 3.48492 15.6141 3.48492C15.0459 3.48492 14.5914 3.93947 14.5914 4.50765C14.5914 4.84856 14.7808 5.15159 15.008 5.34098C14.9323 5.4925 14.8944 5.64401 14.8944 5.83341C14.8944 6.40159 15.349 6.85613 15.9171 6.85613C15.955 6.85613 16.0308 6.85613 16.0686 6.85613C16.1444 7.34856 16.5611 7.76523 17.0914 7.76523C17.5838 7.76523 18.0005 7.42432 18.0762 6.96977C18.3035 7.08341 18.5686 7.12129 18.8717 7.04553C19.2126 6.93189 19.4399 6.66674 19.5156 6.32583C19.5914 6.0228 19.5156 5.71977 19.3641 5.4925C19.5535 5.26523 19.705 5.00007 19.705 4.69704Z" stroke="#26A387" stroke-miterlimit="10" stroke-linecap="round" stroke-linejoin="round"/>
<path d="M9.66687 5.871C9.66687 5.49221 9.40172 5.18918 9.06081 5.07554C9.09869 4.88615 9.09869 4.65888 8.9093 4.43161C8.7199 4.20433 8.41687 4.01494 8.11384 4.0907C7.92445 4.12858 7.73506 4.24221 7.62142 4.35585C7.50778 4.28009 7.35627 4.24221 7.16687 4.24221C6.75021 4.24221 6.44718 4.54524 6.37142 4.92403C5.91687 4.92403 5.53809 5.30282 5.53809 5.75736C5.53809 6.02251 5.6896 6.28767 5.87899 6.43918C5.80324 6.55282 5.76536 6.70433 5.76536 6.81797C5.76536 7.27251 6.14415 7.6513 6.59869 7.6513C6.63657 7.6513 6.67445 7.6513 6.71233 7.6513C6.75021 8.06797 7.09112 8.371 7.54566 8.371C7.92445 8.371 8.26536 8.10585 8.34112 7.72706C8.53051 7.8407 8.75778 7.87858 8.98506 7.76494C9.25021 7.68918 9.4396 7.46191 9.51536 7.15888C9.55324 6.89373 9.51536 6.66645 9.40172 6.51494C9.55324 6.32555 9.66687 6.13615 9.66687 5.871Z" stroke="#26A387" stroke-miterlimit="10" stroke-linecap="round" stroke-linejoin="round"/>
</g>
<defs>
<clipPath id="clip0_990_5504">
<rect width="25" height="25" fill="white" transform="translate(0.5)"/>
</clipPath>
</defs>
</svg>
