<svg width="26" height="25" viewBox="0 0 26 25" fill="none" xmlns="http://www.w3.org/2000/svg">
<g clip-path="url(#clip0_990_5640)">
<path d="M22.3993 11.5137L24.2424 5.0627C24.2742 4.95161 24.2903 4.83664 24.2903 4.72102C24.2903 4.13034 23.8699 3.61754 23.2907 3.50181L20.5742 2.95852L20.6426 2.56215C20.6549 2.49032 20.6612 2.41694 20.6612 2.34405C20.6612 1.72651 20.2207 1.19572 19.6138 1.08191L13.9581 0.0214214C13.8825 0.00720766 13.8051 0 13.728 0C13.1147 0 12.5844 0.45751 12.4944 1.06431L11.2948 9.16184C10.7975 7.07349 10.0652 3.99733 9.83518 3.03105C9.74955 2.67087 9.43095 2.41935 9.06053 2.41935C8.93765 2.41935 8.81457 2.44839 8.70449 2.50343L7.47757 3.11683C7.15312 3.27908 6.95161 3.60514 6.95161 3.96789C6.95161 4.04194 6.96033 4.11603 6.97752 4.18826L7.70832 7.25771L6.63059 4.56336C6.50151 4.24073 6.19365 4.03226 5.84617 4.03226C5.71557 4.03226 5.58488 4.0631 5.4684 4.12147L4.19269 4.75922C3.90474 4.90328 3.72581 5.19279 3.72581 5.51487V5.56008C3.72581 5.66804 3.74612 5.77354 3.78624 5.87384L4.78896 8.3807L3.39572 6.05862C3.24274 5.80358 2.96295 5.64516 2.66557 5.64516C2.48261 5.64516 2.30121 5.70559 2.15464 5.81547L0.840575 6.80106C0.627319 6.96099 0.5 7.21563 0.5 7.48221V7.52838C0.5 7.69345 0.54753 7.85388 0.63755 7.99249L3.0369 11.6837C1.35307 12.2319 0.5 12.9123 0.5 13.7097C0.5 16.7255 1.6744 19.5607 3.80685 21.6931C5.93931 23.8256 8.77455 25 11.7903 25H14.2097C17.2255 25 20.0607 23.8256 22.1931 21.6931C24.3256 19.5607 25.5 16.7255 25.5 13.7097C25.5 12.826 24.4572 12.0881 22.3993 11.5137ZM24.6935 13.7097C24.6935 14.0251 24.013 14.7176 21.4621 15.3129C21.4098 15.3251 21.3567 15.337 21.3035 15.349L22.1778 12.2891C24.0258 12.8043 24.6935 13.3684 24.6935 13.7097ZM23.9003 17.7086C23.2569 18.0529 22.3103 18.3573 21.15 18.6077L21.2871 17.3734C21.3659 16.664 21.9637 16.129 22.6774 16.129C23.3544 16.129 23.9373 16.6118 24.0719 17.2667C24.018 17.4156 23.9606 17.5629 23.9003 17.7086ZM1.59335 16.1479C1.50343 15.7718 1.43362 15.388 1.38558 14.9975C1.66462 15.1802 2.00948 15.353 2.41946 15.5154C2.09793 15.659 1.81472 15.8766 1.59335 16.1479ZM1.92813 17.2667C2.06265 16.6118 2.64556 16.129 3.32258 16.129C4.03634 16.129 4.63407 16.664 4.71285 17.3734L4.84995 18.6077C3.68972 18.3573 2.74315 18.0529 2.0997 17.7086C2.03936 17.5629 1.98201 17.4156 1.92813 17.2667ZM5.67954 18.771L5.51437 17.2843C5.47223 16.9053 5.33599 16.5582 5.1307 16.2645C5.67545 16.3718 6.25393 16.4671 6.86023 16.5497C6.37142 16.9017 6.02757 17.4475 5.94819 18.0828L5.85817 18.8025C5.79824 18.7921 5.73866 18.7816 5.67954 18.771ZM7.85585 14.5041L8.09052 14.4454L8.14919 14.2107C8.36174 13.3606 9.02182 12.7005 9.87198 12.488L10.0232 12.4502L10.2953 12.042C10.6091 11.5713 11.1342 11.2903 11.6998 11.2903C11.9605 11.2903 12.2216 11.352 12.4547 11.4685L13 11.7411L13.5452 11.4685C13.7784 11.352 14.0395 11.2903 14.3002 11.2903C14.8658 11.2903 15.3909 11.5713 15.7047 12.042L15.9767 12.4502L16.128 12.488C16.9781 12.7005 17.6382 13.3606 17.8508 14.2107L17.9094 14.4454L18.1441 14.5041C18.7855 14.6645 19.3292 15.092 19.644 15.6615C17.696 15.9657 15.4032 16.129 13 16.129C10.5968 16.129 8.30403 15.9657 6.35595 15.6615C6.67077 15.0919 7.21452 14.6644 7.85585 14.5041ZM14.6129 10.4839C14.3906 10.4839 14.2097 10.303 14.2097 10.0806C14.2097 9.85832 14.3906 9.67742 14.6129 9.67742C14.8352 9.67742 15.0161 9.85832 15.0161 10.0806C15.0161 10.303 14.8352 10.4839 14.6129 10.4839ZM6.74849 18.1827C6.83735 17.4717 7.44471 16.9355 8.16129 16.9355C8.87787 16.9355 9.48523 17.4717 9.57409 18.1827L9.70701 19.2461C8.62641 19.1735 7.59889 19.0661 6.65514 18.9289L6.74849 18.1827ZM10.5258 19.2939L10.3744 18.0827C10.3141 17.6004 10.1013 17.1697 9.78851 16.836C10.2858 16.8675 10.7931 16.8916 11.308 16.9082C11.0307 17.2308 10.843 17.6345 10.7869 18.0827L10.6349 19.299C10.5985 19.2974 10.562 19.2956 10.5258 19.2939ZM11.5872 18.1827C11.6761 17.4717 12.2834 16.9355 13 16.9355C13.7166 16.9355 14.3239 17.4717 14.413 18.184L14.5598 19.3307C14.0465 19.3466 13.5256 19.3548 13 19.3548C12.4756 19.3548 11.9559 19.3467 11.4436 19.3308L11.5872 18.1827ZM15.3688 19.2989L15.2131 18.0827C15.157 17.6345 14.9693 17.2308 14.692 16.9082C15.207 16.8916 15.7143 16.8675 16.2115 16.836C15.8987 17.1697 15.6859 17.6004 15.6256 18.0827L15.4742 19.2939C15.4392 19.2956 15.404 19.2972 15.3688 19.2989ZM16.4259 18.1827C16.5148 17.4717 17.1221 16.9355 17.8387 16.9355C18.5553 16.9355 19.1627 17.4717 19.2515 18.1827L19.3448 18.9289C18.4011 19.0661 17.3735 19.1735 16.2929 19.2461L16.4259 18.1827ZM20.1418 18.8025L20.0518 18.0827C19.9723 17.4475 19.6285 16.9017 19.1397 16.5496C19.746 16.467 20.3245 16.3718 20.8693 16.2644C20.664 16.5581 20.5277 16.9053 20.4856 17.2843L20.3204 18.771C20.2613 18.7816 20.2018 18.7921 20.1418 18.8025ZM23.5805 15.5155C23.9905 15.353 24.3353 15.1803 24.6144 14.9975C24.5663 15.3881 24.4965 15.7719 24.4066 16.148C24.1853 15.8766 23.9021 15.659 23.5805 15.5155ZM23.1326 4.29259C23.3361 4.33332 23.4839 4.51346 23.4839 4.72102C23.4839 4.76164 23.4782 4.80202 23.467 4.84108L20.4376 15.4444C20.0876 14.7086 19.4609 14.128 18.6988 13.8361L20.4372 3.75353L23.1326 4.29259ZM13.2921 1.18251C13.3239 0.968145 13.5113 0.806452 13.728 0.806452C13.7552 0.806452 13.7825 0.808972 13.8092 0.814012L19.4652 1.8745C19.691 1.91683 19.8548 2.11426 19.8548 2.34395C19.8548 2.37107 19.8525 2.39839 19.8479 2.42505L18.054 12.8296C17.6581 12.323 17.1122 11.9409 16.4782 11.7482L16.3757 11.5946C16.1628 11.2752 15.8835 11.0158 15.5633 10.8276C15.7255 10.6219 15.8226 10.3624 15.8226 10.0806C15.8226 9.41366 15.2799 8.87097 14.6129 8.87097C13.9459 8.87097 13.4032 9.41366 13.4032 10.0806C13.4032 10.2699 13.447 10.4491 13.5248 10.6088C13.4083 10.6468 13.2942 10.6924 13.1845 10.7472L13 10.8395L12.8154 10.7472C12.5343 10.6067 12.2259 10.5213 11.9127 10.4942L13.2921 1.18251ZM7.83821 3.8381L9.05343 3.22933C9.34299 4.44597 10.3973 8.87419 10.8189 10.6446C10.3381 10.8259 9.91835 11.1536 9.62429 11.5947L9.58417 11.6548L7.76205 4.00156C7.75937 3.99047 7.75806 3.97918 7.75806 3.96789C7.75806 3.9126 7.78876 3.86285 7.83821 3.8381ZM4.53503 5.5744C4.53322 5.56981 4.53226 5.56497 4.53226 5.56013V5.51492C4.53226 5.50025 4.54037 5.4871 4.55343 5.48054L5.82918 4.84274C5.84824 4.83322 5.87379 4.84274 5.88186 4.86285L8.77218 12.0888C8.32319 12.3671 7.95071 12.7535 7.68886 13.2138L7.39451 12.7232L4.53503 5.5744ZM1.30645 7.52838V7.48221C1.30645 7.4681 1.31321 7.45459 1.32445 7.44612L2.63836 6.46064C2.65887 6.44526 2.69098 6.45141 2.70413 6.47349L7.15736 13.8956C6.70917 14.0931 6.31346 14.392 6.00071 14.7638L1.31371 7.55307C1.30902 7.54572 1.30645 7.53715 1.30645 7.52838ZM3.49299 12.3855L5.52833 15.5167C5.52792 15.5176 5.52757 15.5185 5.52717 15.5195C5.18392 15.4552 4.85333 15.3864 4.5379 15.3129C1.98705 14.7176 1.30645 14.0251 1.30645 13.7097C1.30645 13.4 1.88624 12.8774 3.49299 12.3855ZM14.2097 24.1935H11.7903C7.86573 24.1935 4.43856 22.0255 2.64183 18.8246C4.89057 19.6507 8.75141 20.1613 13 20.1613C17.2486 20.1613 21.1094 19.6507 23.3582 18.8246C21.5614 22.0255 18.1343 24.1935 14.2097 24.1935Z" fill="#26A387"/>
<path d="M10.5808 15.3227C11.2478 15.3227 11.7904 14.78 11.7904 14.113C11.7904 13.446 11.2478 12.9033 10.5808 12.9033C9.91379 12.9033 9.37109 13.446 9.37109 14.113C9.37109 14.78 9.91379 15.3227 10.5808 15.3227ZM10.5808 13.7098C10.8031 13.7098 10.984 13.8907 10.984 14.113C10.984 14.3353 10.8031 14.5162 10.5808 14.5162C10.3584 14.5162 10.1775 14.3353 10.1775 14.113C10.1775 13.8907 10.3584 13.7098 10.5808 13.7098ZM15.4195 15.3227C16.0865 15.3227 16.6292 14.78 16.6292 14.113C16.6292 13.446 16.0865 12.9033 15.4195 12.9033C14.7525 12.9033 14.2098 13.446 14.2098 14.113C14.2098 14.78 14.7525 15.3227 15.4195 15.3227ZM15.4195 13.7098C15.6418 13.7098 15.8227 13.8907 15.8227 14.113C15.8227 14.3353 15.6418 14.5162 15.4195 14.5162C15.1972 14.5162 15.0163 14.3353 15.0163 14.113C15.0163 13.8907 15.1972 13.7098 15.4195 13.7098Z" fill="#26A387"/>
<path d="M15.0164 3.22559H14.21V4.03204H15.0164V3.22559Z" fill="#26A387"/>
<path d="M15.8231 4.83887H15.0166V5.64532H15.8231V4.83887Z" fill="#26A387"/>
<path d="M14.2098 6.45166H13.4033V7.25811H14.2098V6.45166Z" fill="#26A387"/>
<path d="M17.4354 7.2583H16.6289V8.06475H17.4354V7.2583Z" fill="#26A387"/>
<path d="M17.4354 2.41943H16.6289V3.22589H17.4354V2.41943Z" fill="#26A387"/>
<path d="M18.242 4.83887H17.4355V5.64532H18.242V4.83887Z" fill="#26A387"/>
<path d="M21.0643 8.06445H20.2578V8.8709H21.0643V8.06445Z" fill="#26A387"/>
<path d="M21.8709 5.64502H21.0645V6.45147H21.8709V5.64502Z" fill="#26A387"/>
</g>
<defs>
<clipPath id="clip0_990_5640">
<rect width="25" height="25" fill="white" transform="translate(0.5)"/>
</clipPath>
</defs>
</svg>
