<svg width="26" height="25" viewBox="0 0 26 25" fill="none" xmlns="http://www.w3.org/2000/svg">
<path d="M13.5568 3.97891C13.5996 3.97891 13.6425 3.96819 13.6818 3.94676C14.571 3.47891 15.4639 3.10033 16.3318 2.81462C16.471 2.76819 16.5496 2.61819 16.5032 2.47533C16.4568 2.33605 16.3068 2.25748 16.1639 2.30391C15.271 2.60033 14.3496 2.99319 13.4353 3.47176C13.3032 3.53962 13.2532 3.70391 13.321 3.83248C13.3675 3.92891 13.4603 3.97891 13.5568 3.97891ZM11.6103 5.13248C11.6603 5.13248 11.7139 5.11819 11.7568 5.08962C11.9925 4.93605 12.2282 4.78605 12.4675 4.63962C12.5925 4.56105 12.6353 4.39676 12.5568 4.27176C12.4782 4.14676 12.3139 4.10391 12.1889 4.18248C11.946 4.32891 11.7032 4.48248 11.4639 4.64319C11.3389 4.72533 11.3068 4.88962 11.3889 5.01462C11.4353 5.08962 11.521 5.13248 11.6103 5.13248ZM14.0889 11.5825C14.2853 11.5825 14.446 11.4218 14.446 11.2253C14.446 10.7396 14.8425 10.3432 15.3282 10.3432C15.5246 10.3432 15.6853 10.1825 15.6853 9.98605C15.6853 9.78962 15.5246 9.62891 15.3282 9.62891C14.446 9.62891 13.7318 10.3468 13.7318 11.2253C13.7318 11.4253 13.8925 11.5825 14.0889 11.5825ZM15.8068 16.0432C16.0032 16.0432 16.1639 15.8825 16.1639 15.686C16.1639 15.1003 16.6389 14.6253 17.2246 14.6253C17.421 14.6253 17.5818 14.4646 17.5818 14.2682C17.5818 14.0718 17.421 13.911 17.2246 13.911C16.246 13.911 15.4496 14.7075 15.4496 15.686C15.4496 15.8825 15.6103 16.0432 15.8068 16.0432ZM19.271 19.9432C19.271 20.1396 19.4318 20.3003 19.6282 20.3003C19.8246 20.3003 19.9853 20.1396 19.9853 19.9432C19.9853 19.4575 20.3818 19.061 20.8675 19.061C21.0639 19.061 21.2246 18.9003 21.2246 18.7039C21.2246 18.5075 21.0639 18.3468 20.8675 18.3468C19.9889 18.3468 19.271 19.0646 19.271 19.9432ZM12.496 15.1218C12.6925 15.1218 12.8532 14.961 12.8532 14.7646C12.8532 14.5682 12.6925 14.4075 12.496 14.4075C11.5175 14.4075 10.721 15.2039 10.721 16.1825C10.721 16.3789 10.8818 16.5396 11.0782 16.5396C11.2746 16.5396 11.4353 16.3789 11.4353 16.1825C11.4353 15.6003 11.9103 15.1218 12.496 15.1218ZM11.6103 13.086C12.296 13.086 12.8532 12.5289 12.8532 11.8432C12.8532 11.1575 12.296 10.6003 11.6103 10.6003C10.9246 10.6003 10.3675 11.1575 10.3675 11.8432C10.3675 12.5289 10.9246 13.086 11.6103 13.086ZM11.6103 11.3182C11.9032 11.3182 12.1389 11.5539 12.1389 11.8468C12.1389 12.1396 11.9032 12.3753 11.6103 12.3753C11.3175 12.3753 11.0818 12.1396 11.0818 11.8468C11.0818 11.5539 11.3175 11.3182 11.6103 11.3182ZM18.6568 18.2253C19.3425 18.2253 19.8996 17.6682 19.8996 16.9825C19.8996 16.2968 19.3425 15.7396 18.6568 15.7396C17.971 15.7396 17.4139 16.2968 17.4139 16.9825C17.4139 17.6682 17.971 18.2253 18.6568 18.2253ZM18.6568 16.4539C18.9496 16.4539 19.1853 16.6896 19.1853 16.9825C19.1853 17.2753 18.9496 17.511 18.6568 17.511C18.3639 17.511 18.1282 17.2753 18.1282 16.9825C18.1282 16.6896 18.3639 16.4539 18.6568 16.4539ZM8.59247 14.9396C7.90675 14.9396 7.34961 15.4968 7.34961 16.1825C7.34961 16.8682 7.90675 17.4253 8.59247 17.4253C9.27818 17.4253 9.83532 16.8682 9.83532 16.1825C9.83532 15.4968 9.27461 14.9396 8.59247 14.9396ZM8.59247 16.711C8.29961 16.711 8.0639 16.4753 8.0639 16.1825C8.0639 15.8896 8.29961 15.6539 8.59247 15.6539C8.88532 15.6539 9.12104 15.8896 9.12104 16.1825C9.12104 16.4753 8.88175 16.711 8.59247 16.711Z" fill="#26A387"/>
<path d="M24.7069 22.3967L23.864 19.9788L21.2498 12.486L20.1069 9.21452L18.5176 4.66452C19.1283 4.03952 19.3426 3.13952 19.0676 2.31095C18.8748 1.72167 18.4605 1.2431 17.9069 0.964524C17.3533 0.685953 16.7248 0.639524 16.1355 0.832382C9.88904 2.88952 3.38904 9.3931 1.33189 15.6324C1.13904 16.2217 1.18546 16.8502 1.46404 17.4038C1.74261 17.9574 2.22118 18.3681 2.81046 18.5645C3.04975 18.6431 3.29618 18.6824 3.53904 18.6824C3.89618 18.6824 4.25332 18.6002 4.58189 18.4324C4.79975 18.3217 4.99618 18.1788 5.16404 18.0145L11.3319 20.1681V20.1717L16.339 21.9181L22.8998 24.2074C23.0533 24.261 23.214 24.286 23.3712 24.286C23.739 24.286 24.0998 24.1395 24.3712 23.8681C24.7033 23.536 24.8462 23.0717 24.764 22.6181C24.7498 22.5467 24.7319 22.4717 24.7069 22.3967ZM24.0319 22.6324C24.0533 22.6967 24.0676 22.7645 24.0712 22.8288C24.0819 23.0252 24.0105 23.2181 23.8605 23.3645C23.664 23.561 23.3926 23.6217 23.1319 23.5288L21.7676 23.0502C21.764 23.0038 21.764 22.9502 21.764 22.8967C21.764 21.8967 22.4426 21.0324 23.3855 20.7788L24.0319 22.6324ZM19.3748 9.28595L20.3283 12.0217C20.2355 12.036 20.139 12.0431 20.0426 12.0431C18.9855 12.0431 18.1248 11.1824 18.1248 10.1252C18.1248 9.42881 18.4998 8.80024 19.0855 8.46809L19.3748 9.28595ZM4.26046 17.7967C3.87832 17.9895 3.43904 18.0217 3.03189 17.886C2.62475 17.7502 2.29261 17.4645 2.09975 17.0824C1.90689 16.7002 1.87475 16.2645 2.00689 15.8538C4.00332 9.80738 10.3069 3.50738 16.3569 1.51095C16.5212 1.45738 16.6926 1.42881 16.8605 1.42881C17.1069 1.42881 17.3533 1.48595 17.5819 1.60024C17.964 1.7931 18.2498 2.12524 18.3855 2.53238C18.5783 3.11452 18.4283 3.7431 17.9962 4.17524C17.9248 4.24667 17.8426 4.30738 17.7569 4.36452C17.7283 4.38238 17.7033 4.40381 17.6712 4.42167C17.5748 4.47881 17.4712 4.52881 17.3605 4.56452C17.2105 4.61452 17.0605 4.6681 16.9105 4.72167C16.9033 4.72524 16.8962 4.72524 16.889 4.72881C16.8533 4.7431 16.8176 4.75738 16.7783 4.77167C12.7212 6.3431 8.37118 10.3681 6.12832 14.4645C5.68904 15.2681 5.32832 16.0752 5.06761 16.8645C5.03546 16.961 4.99618 17.0502 4.94618 17.136C4.89975 17.2181 4.84975 17.2931 4.78904 17.3681C4.64618 17.5431 4.47118 17.6931 4.26046 17.7967ZM5.61761 17.386C5.66046 17.2967 5.69975 17.2074 5.73189 17.1145C5.73546 17.1038 5.73904 17.0967 5.74261 17.086C6.08904 16.0288 6.62118 14.9467 7.28904 13.8788C8.98904 11.1645 11.5783 8.5681 14.289 6.84667C14.3176 6.82881 14.3462 6.80738 14.3748 6.78952C14.4176 6.76452 14.4605 6.73952 14.4998 6.71452C15.5283 6.08238 16.5676 5.57524 17.5855 5.2431C17.5926 5.23952 17.5998 5.23595 17.6069 5.23238C17.6998 5.20024 17.7855 5.16452 17.8748 5.12167C17.8855 5.1181 17.8997 5.11452 17.9105 5.10738L18.8462 7.78952C17.9748 8.22881 17.4069 9.12881 17.4069 10.1288C17.4069 11.5788 18.5855 12.761 20.039 12.761C20.2176 12.761 20.389 12.736 20.5605 12.7038L23.1462 20.111C21.9533 20.4538 21.0926 21.5395 21.0498 22.8074L16.4998 21.2145C16.514 21.1074 16.5212 21.0002 16.5212 20.8931C16.5212 19.4395 15.3426 18.2574 13.889 18.2574C12.964 18.2574 12.1176 18.7467 11.6462 19.5217L5.60689 17.4145C5.61047 17.4038 5.61404 17.3967 5.61761 17.386ZM12.339 19.7645C12.6926 19.2752 13.2676 18.9752 13.889 18.9752C14.9462 18.9752 15.8069 19.836 15.8069 20.8967C15.8069 20.9217 15.8069 20.9502 15.8069 20.9752L12.339 19.7645Z" fill="#26A387"/>
</svg>
