<svg width="26" height="25" viewBox="0 0 26 25" fill="none" xmlns="http://www.w3.org/2000/svg">
<g clip-path="url(#clip0_990_5469)">
<path d="M21.7815 0.365455C21.6437 0.284531 21.4795 0.261472 21.3248 0.301323C21.1701 0.341173 21.0374 0.440689 20.9559 0.578092L16.6383 7.89238C16.6162 7.93031 16.5983 7.97057 16.585 8.01243C16.102 8.19154 15.6511 8.44769 15.2499 8.77095C13.9416 6.54842 11.5447 5.14897 8.92597 5.14897C4.88532 5.14897 1.5985 8.43111 1.58724 12.469H0.634766L0.71993 13.1473C1.21553 17.0896 3.64685 20.533 7.14273 22.3462V24.674H16.1631C17.3065 24.674 18.2367 23.7429 18.2367 22.5992V22.3465C21.7337 20.5325 24.1639 17.0891 24.6606 13.1473L24.7458 12.4685H23.0257C23.0177 10.4075 21.696 8.65529 19.8576 7.99375L25.2444 2.80996C25.4839 2.57947 25.4916 2.1976 25.2603 1.95804C25.2055 1.901 25.14 1.85532 25.0675 1.82361C24.9951 1.7919 24.9171 1.77478 24.838 1.77322C24.7589 1.77167 24.6803 1.78571 24.6066 1.81454C24.5329 1.84338 24.4657 1.88644 24.4087 1.94128L18.4081 7.71655C18.3543 7.71436 18.3007 7.70831 18.246 7.70831C18.2114 7.70831 18.1782 7.71326 18.1441 7.71381L21.9941 1.191C22.0344 1.12284 22.0608 1.04741 22.0719 0.969028C22.083 0.890647 22.0785 0.810846 22.0588 0.734185C22.039 0.657524 22.0044 0.585503 21.9568 0.522235C21.9092 0.458968 21.8496 0.405694 21.7815 0.365455ZM8.9257 6.35474C11.2326 6.35474 13.3353 7.65337 14.3812 9.68798C13.9999 10.2124 13.7295 10.8091 13.5867 11.4416C13.1073 9.30749 11.2012 7.70776 8.9257 7.70776C6.2974 7.70776 4.15922 9.84183 4.14795 12.4688H2.79301C2.804 9.09595 5.55015 6.35474 8.9257 6.35474ZM8.9257 10.2699C7.70867 10.2699 6.71828 11.2547 6.70702 12.4688H5.354C5.36526 10.5067 6.96224 8.91381 8.9257 8.91381C10.8897 8.91381 12.4883 10.5067 12.4985 12.4688H11.1438C11.1331 11.2547 10.1427 10.2699 8.9257 10.2699ZM9.93724 12.469H7.91416C7.91955 12.204 8.02849 11.9516 8.21766 11.766C8.40683 11.5803 8.66118 11.4761 8.92625 11.4756C9.19119 11.4761 9.44539 11.5804 9.63436 11.7661C9.82334 11.9518 9.93207 12.2041 9.93724 12.469ZM23.3565 13.6748C22.6864 17.1786 20.3103 20.1657 17.0172 21.5965H15.0872V22.8025H17.0043C16.9591 22.9918 16.8517 23.1603 16.6991 23.2811C16.5466 23.4018 16.3579 23.4677 16.1633 23.4682H8.34878V22.8025H10.6095V21.5965H8.36334C5.07021 20.1666 2.69383 17.1786 2.02323 13.6748H23.3565ZM17.2348 12.469C17.2401 12.2041 17.3489 11.9518 17.5379 11.7662C17.7269 11.5805 17.9811 11.4762 18.246 11.4756C18.5112 11.4759 18.7657 11.58 18.9551 11.7657C19.1444 11.9514 19.2533 12.2039 19.2587 12.469H17.2348ZM18.246 8.91408C20.2109 8.91408 21.81 10.5069 21.8205 12.469H20.465C20.454 11.255 19.4633 10.2701 18.246 10.2701C17.029 10.2701 16.0394 11.255 16.0284 12.469H14.6743C14.6853 10.5069 16.2823 8.91408 18.246 8.91408Z" fill="#26A387"/>
<path d="M17.9888 19.5064C18.0852 19.5064 18.1828 19.4836 18.2726 19.435C19.0089 19.0408 19.6551 18.4977 20.1699 17.8401C20.6848 17.1825 21.057 16.4248 21.263 15.6155C21.2827 15.5386 21.2871 15.4586 21.2758 15.3801C21.2646 15.3016 21.2379 15.226 21.1974 15.1578C21.1569 15.0896 21.1034 15.03 21.0398 14.9826C20.9762 14.9351 20.9039 14.9007 20.827 14.8812C20.7501 14.8617 20.6701 14.8577 20.5916 14.8692C20.5131 14.8807 20.4376 14.9076 20.3696 14.9484C20.3015 14.9891 20.2421 15.0429 20.1949 15.1067C20.1477 15.1704 20.1135 15.2429 20.0943 15.3199C19.9299 15.9667 19.6325 16.5722 19.2211 17.0978C18.8098 17.6234 18.2934 18.0576 17.705 18.3726C17.5864 18.4358 17.4922 18.5368 17.4376 18.6596C17.3831 18.7825 17.3711 18.92 17.4038 19.0504C17.4364 19.1808 17.5117 19.2965 17.6177 19.3792C17.7238 19.4618 17.8544 19.5066 17.9888 19.5064Z" fill="#26A387"/>
<path d="M16.5293 20.4575C16.9241 20.4575 17.2441 20.1375 17.2441 19.7427C17.2441 19.3479 16.9241 19.0278 16.5293 19.0278C16.1345 19.0278 15.8145 19.3479 15.8145 19.7427C15.8145 20.1375 16.1345 20.4575 16.5293 20.4575Z" fill="#26A387"/>
</g>
<defs>
<clipPath id="clip0_990_5469">
<rect width="25" height="25" fill="white" transform="translate(0.5)"/>
</clipPath>
</defs>
</svg>
