<svg width="26" height="25" viewBox="0 0 26 25" fill="none" xmlns="http://www.w3.org/2000/svg">
<path d="M13.0005 7.14404C8.02697 7.14404 3.98047 9.54679 3.98047 12.4998C3.98047 15.4528 8.02697 17.8555 13.0005 17.8555C17.974 17.8555 22.0205 15.4528 22.0205 12.4998C22.0205 9.54679 17.974 7.14404 13.0005 7.14404ZM13.0005 17.2918C8.33772 17.2918 4.54422 15.1423 4.54422 12.4998C4.54422 9.85754 8.33772 7.70804 13.0005 7.70804C17.6632 7.70804 21.4567 9.85754 21.4567 12.4998C21.4567 15.142 17.6632 17.2918 13.0005 17.2918ZM19.8065 13.362C19.6487 13.139 19.459 12.9493 19.2755 12.7658C19.1775 12.6678 19.079 12.5695 18.987 12.4668C18.8662 12.3315 18.8722 11.9978 18.8742 11.8875C18.881 11.4673 18.6057 11.0858 18.189 10.9383C17.9817 10.865 17.7575 10.7728 17.6655 10.6448L17.6112 10.569C17.385 10.2525 17.151 9.92504 16.7945 9.69479C16.608 9.57404 16.1252 9.37829 15.7282 9.45454C15.5225 9.23479 15.1475 8.91329 14.7322 8.66054C14.3372 8.41979 13.9065 8.24154 13.5502 8.27579C13.366 8.29379 13.1962 8.38654 13.0535 8.50729L12.9725 8.51279C12.843 8.51979 12.6185 8.45679 12.4372 8.40504C12.3132 8.36954 12.1952 8.33629 12.0965 8.31804C11.567 8.21954 11.0097 8.41054 10.6025 8.82754L10.5935 8.83679L10.4952 8.93729L10.529 9.08679C10.5747 9.28804 10.6607 9.47679 10.7795 9.64579C10.4895 9.70504 10.2272 9.82979 10.0395 9.92404C9.82847 9.95079 9.64397 10.117 9.54447 10.3765C9.42322 10.6923 9.44022 11.0495 9.46397 11.248C9.39547 11.428 9.37497 11.6265 9.39597 11.8215C9.25872 11.6968 9.13222 11.5553 9.02397 11.3803C8.83197 11.0705 8.29372 10.658 7.79522 10.6903C7.66647 10.699 7.52347 10.6633 7.37247 10.6263C7.28422 10.6048 7.19647 10.5835 7.10772 10.5683C7.08897 10.565 7.07097 10.564 7.05222 10.5618C6.65172 10.5088 6.31172 10.623 6.13472 10.8768C5.96897 11.114 5.97372 11.4433 6.13872 11.7385C6.15497 11.7675 6.17097 11.7965 6.19022 11.8248C6.28297 11.9598 6.39297 12.0678 6.49922 12.172C6.55822 12.23 6.61797 12.288 6.67172 12.3503C6.84672 12.5528 6.96122 12.8058 7.08247 13.0733C7.18572 13.3013 7.29247 13.5375 7.44422 13.7575C7.77047 14.2305 8.24522 14.5493 8.70422 14.8575C9.10472 15.1265 9.48297 15.3808 9.75172 15.721C9.80022 15.7823 9.84672 15.8473 9.89347 15.9128C9.91222 15.9388 9.93147 15.9653 9.95047 15.9915C10.1497 16.2653 10.3835 16.5508 10.7725 16.6353C10.8447 16.651 10.9207 16.658 11 16.658C11.3612 16.658 11.7747 16.513 12.0845 16.3983C12.107 16.3898 12.1305 16.3813 12.1517 16.3733L12.1797 16.3628C12.1947 16.3788 12.2105 16.394 12.2257 16.41C12.3025 16.4905 12.3787 16.5713 12.4582 16.6483L12.5435 16.731L14.0812 16.687C14.1497 16.685 14.2647 16.682 14.3755 16.6145C14.4692 16.5575 14.5357 16.4655 14.5697 16.3588C14.595 16.2788 14.6025 16.1913 14.5862 16.1028C14.5655 15.9868 14.514 15.8945 14.4727 15.82L14.457 15.7915C14.348 15.5915 14.2822 15.368 14.261 15.1413C14.4287 15.2295 14.611 15.278 14.7937 15.2788C14.7962 15.2788 14.7987 15.2788 14.8012 15.2788C15.1092 15.2788 15.3842 15.1913 15.6182 15.018L15.6425 15.0003C15.6775 14.9743 15.7127 14.9488 15.748 14.924C15.915 15.1053 16.0945 15.2763 16.2875 15.3943C16.4935 15.52 16.7435 15.66 17.001 15.762C17.211 15.845 17.4262 15.9033 17.6275 15.9033C17.71 15.9033 17.7902 15.8938 17.8667 15.8725C18.059 15.8193 18.4085 15.5063 18.651 15.2223C18.6685 15.2233 18.686 15.2258 18.7037 15.2258C18.9732 15.2258 19.265 15.1038 19.5537 14.7333C19.591 14.6855 19.6425 14.647 19.7015 14.6023C19.8275 14.5078 20.0185 14.3645 20.0435 14.078C20.0567 13.9263 20.0257 13.7713 19.9505 13.6095C19.914 13.5288 19.8665 13.4465 19.8065 13.362ZM15.3772 14.4963C15.3535 14.5135 15.33 14.5308 15.3075 14.5475L15.2842 14.565C15.2577 14.5845 15.23 14.6003 15.202 14.616C15.1077 14.4375 15.0352 14.2493 14.987 14.0558C14.9432 13.8803 14.9192 13.701 14.9145 13.521C14.9125 13.4448 14.9135 13.3688 14.9185 13.2928C15.2312 13.6235 15.5235 13.9403 15.7047 14.2955C15.699 14.3003 15.6912 14.3055 15.6807 14.3103C15.659 14.3205 15.6382 14.332 15.6172 14.3433C15.5307 14.3893 15.4507 14.4428 15.3772 14.4963ZM14.2737 14.4333C14.2682 14.4268 14.2625 14.4208 14.2572 14.414C14.1037 14.2118 13.9767 13.9685 13.8997 13.7293L13.8515 13.5798L13.8265 13.5735L13.699 13.542C13.622 13.523 13.5507 13.495 13.4837 13.4623C13.2362 13.3403 13.0622 13.1288 12.996 12.856L12.97 12.7478L12.8765 12.6868C12.5385 12.465 12.3365 12.0718 12.3492 11.6608L12.3522 11.5735L12.3052 11.5C12.1725 11.2928 12.061 11.0913 11.9667 10.8955C11.832 10.6155 11.737 10.3485 11.6822 10.0953C11.6602 9.99479 11.6427 9.89554 11.6337 9.79979L11.6275 9.73179L11.6217 9.67029L11.5152 9.59554C11.3397 9.47254 11.2035 9.30154 11.127 9.11179C11.3852 8.90354 11.693 8.81629 11.9942 8.87229C12.0125 8.87554 12.034 8.88179 12.0537 8.88629L12.0797 9.04204C12.1765 9.61429 12.3727 10.3235 12.6542 10.9248C12.8252 11.2898 13.0277 11.615 13.2585 11.846C13.4135 12.001 13.5812 12.1133 13.7607 12.1668C13.8167 12.1835 13.8737 12.195 13.9317 12.1998L14.0275 12.2075C14.112 12.35 14.209 12.4848 14.3125 12.615C14.3492 12.6613 14.3862 12.7075 14.4247 12.7525L14.4177 12.794L14.3905 12.9538C14.3752 13.043 14.3647 13.1328 14.3575 13.2228C14.3187 13.7185 14.4055 14.22 14.6062 14.679C14.4835 14.6343 14.3672 14.5495 14.2737 14.4333ZM13.998 16.1258L12.767 16.161C12.7015 16.0958 12.6395 16.0278 12.5762 15.9605C12.521 15.9015 12.466 15.842 12.4125 15.7813L12.4245 15.7508C12.4575 15.6678 12.4777 15.584 12.4935 15.5003C12.569 15.0965 12.4667 14.697 12.3727 14.4135C12.3395 14.315 12.3037 14.217 12.2677 14.1188C12.1707 13.854 12.079 13.604 12.054 13.352C12.0365 13.1775 12.0625 12.9573 12.164 12.785C12.255 12.9005 12.359 13.006 12.4777 13.0953C12.6212 13.5428 12.96 13.886 13.4132 14.0445C13.4897 14.2435 13.5905 14.4365 13.7097 14.6148C13.7077 14.6588 13.7067 14.7028 13.702 14.7465C13.6532 15.196 13.7457 15.6633 13.9622 16.061L13.9805 16.0935C13.9862 16.104 13.992 16.115 13.998 16.1258ZM10.8927 16.0848C10.7127 16.0455 10.5725 15.884 10.4332 15.6953C10.5872 15.5975 10.708 15.434 10.7627 15.2318C10.7957 15.1098 10.8045 14.9903 10.8122 14.8845C10.8167 14.8235 10.8207 14.7623 10.831 14.7018C10.84 14.648 10.8565 14.6025 10.8765 14.5668C11.1447 15.0478 11.4462 15.4965 11.7822 15.9085C11.4965 16.0108 11.1107 16.1315 10.8927 16.0848ZM9.01897 14.3898C8.58472 14.098 8.17422 13.8223 7.90872 13.4378C7.78572 13.2593 7.69397 13.0565 7.59672 12.8418C7.84022 12.911 8.08822 13.037 8.32772 13.217C8.49972 13.3465 8.68597 13.4293 8.86647 13.5093C9.06872 13.599 9.25972 13.6838 9.38222 13.82L9.57097 14.0293L9.98997 13.652L9.80122 13.4425C9.59822 13.217 9.33072 13.0988 9.09522 12.9938C8.93697 12.9233 8.78722 12.857 8.66647 12.7663C8.23997 12.4458 7.78022 12.2578 7.33647 12.2223L7.27422 12.2173C7.22172 12.1365 7.16447 12.0575 7.09897 11.9818C7.03522 11.9075 6.96497 11.8383 6.89447 11.7693C6.80322 11.68 6.71697 11.5953 6.65572 11.5055C6.57847 11.3933 6.55322 11.2615 6.59722 11.199C6.65022 11.123 6.82472 11.091 7.01247 11.1238C7.08822 11.1368 7.16347 11.1553 7.23847 11.1738C7.41572 11.217 7.61722 11.2668 7.83047 11.2528C8.06622 11.2368 8.43447 11.4985 8.54472 11.677C8.86522 12.1945 9.30547 12.485 9.69372 12.7413C9.78547 12.8018 9.87572 12.8615 9.96297 12.9233C10.0152 12.9995 10.072 13.0705 10.126 13.1378C10.2137 13.2473 10.297 13.3508 10.3362 13.4473C10.4197 13.6518 10.5107 13.85 10.605 14.045C10.4352 14.1615 10.3167 14.3598 10.275 14.6078C10.2617 14.6858 10.2557 14.765 10.2497 14.844C10.2435 14.932 10.2375 15.0148 10.2187 15.0845C10.196 15.168 10.145 15.2253 10.1105 15.2303L10.078 15.235C9.77122 14.8955 9.38972 14.6385 9.01897 14.3898ZM10.1725 10.4888L10.241 10.454C10.5237 10.3108 10.8395 10.1683 11.122 10.1778C11.139 10.2595 11.16 10.3425 11.1835 10.4263L11.0805 10.5728C10.8575 10.8895 10.4072 11.0513 10.013 10.9675C10.0132 10.8195 10.0315 10.6825 10.0712 10.5788C10.0892 10.5325 10.1097 10.5013 10.1232 10.486L10.1725 10.4888ZM11.4932 13.408C11.5242 13.7185 11.6257 14.004 11.7265 14.2795C11.7305 14.2903 11.7345 14.3015 11.7385 14.3125C11.7727 14.4055 11.8067 14.4983 11.8377 14.5915C11.914 14.8205 11.9525 15.0148 11.9567 15.184C11.957 15.1955 11.9575 15.207 11.9575 15.2183C11.6747 14.8343 11.4227 14.4203 11.197 13.974C11.0767 13.7363 10.963 13.4908 10.8582 13.2338C10.7877 13.0613 10.6747 12.9203 10.5657 12.7845C10.5382 12.7503 10.5112 12.7165 10.486 12.6833C10.5077 12.6773 10.5285 12.669 10.5497 12.6608C10.5987 12.6418 10.6462 12.619 10.6892 12.5895L10.9212 12.4295L10.6015 11.9655L10.3695 12.1255C10.3412 12.145 10.2982 12.1528 10.2637 12.1443L10.0752 12.1C9.97322 11.9413 9.92972 11.719 9.96872 11.5328C10.0527 11.5463 10.1372 11.5555 10.2225 11.5555C10.6702 11.5555 11.116 11.37 11.4162 11.0505C11.5182 11.2728 11.6415 11.5005 11.7862 11.7328C11.7897 11.9093 11.8225 12.0815 11.8765 12.246C11.544 12.5583 11.456 13.0328 11.4932 13.408ZM13.2937 10.9385C13.0825 10.554 12.8872 10.044 12.7495 9.49104C12.7135 9.34629 12.682 9.19854 12.6545 9.04954C12.654 9.04704 12.6535 9.04429 12.6532 9.04179C12.6545 9.04204 12.6557 9.04229 12.657 9.04254C12.7332 9.05804 12.8092 9.07079 12.8825 9.07529C12.8977 9.08979 12.912 9.10504 12.9267 9.12004C13.2152 9.40654 13.427 9.76354 13.527 10.142C13.5835 10.3555 13.6085 10.5798 13.6347 10.8173C13.651 10.965 13.6687 11.1153 13.6937 11.266C13.7085 11.3545 13.7257 11.443 13.748 11.5315C13.5982 11.415 13.4425 11.209 13.2937 10.9385ZM16.1962 14.5768C16.2167 14.5433 16.2337 14.5085 16.2467 14.4718C16.2935 14.3398 16.2855 14.1985 16.2245 14.0745C15.9982 13.6133 15.6337 13.228 15.2812 12.8555C14.8935 12.4453 14.5267 12.0578 14.3565 11.5983C14.26 11.339 14.2287 11.0553 14.195 10.7548C14.1675 10.5075 14.1392 10.2515 14.072 9.99779C13.9657 9.59604 13.761 9.21379 13.483 8.88929C13.5272 8.86029 13.5695 8.84054 13.6042 8.83729C13.825 8.81379 14.1892 8.98104 14.541 9.20779L14.5805 9.51104C14.6605 10.1385 14.7512 10.8498 14.9867 11.6678L15.0647 11.9388L15.6065 11.7825L15.5287 11.5118C15.4517 11.2445 15.3917 10.9883 15.3417 10.7415C15.2912 10.4918 15.2517 10.2523 15.2182 10.023C15.202 9.91179 15.187 9.80229 15.173 9.69579C15.2062 9.72704 15.2375 9.75754 15.267 9.78754C15.3027 9.82404 15.3362 9.85979 15.3652 9.89379C15.413 9.95004 15.457 10.0088 15.499 10.069C15.763 10.447 15.9205 10.8963 16.05 11.3318C16.0802 11.434 16.1097 11.5365 16.139 11.6393C16.2685 12.0915 16.4025 12.559 16.6297 12.9978C16.7392 13.209 16.866 13.3438 16.9945 13.445C17.0852 13.5168 17.1767 13.572 17.2637 13.6235C17.4182 13.715 17.5515 13.7943 17.6872 13.9675C17.7185 14.008 17.7865 14.081 17.8705 14.1703C17.9135 14.2155 17.9807 14.2873 18.052 14.366C18.1627 14.4883 18.2832 14.6283 18.3382 14.7168C18.3182 14.7453 18.2907 14.7795 18.2605 14.8155C18.259 14.8173 18.2575 14.8188 18.2562 14.8203L18.2345 14.8053C18.2285 14.8013 18.221 14.796 18.2132 14.7908C18.145 14.7445 18.0132 14.6575 17.8807 14.57C17.7375 14.4753 17.5942 14.381 17.5375 14.3415L17.3057 14.181L17.2915 14.2013L17.131 14.4333L16.9847 14.6445L17.2165 14.805C17.275 14.8455 17.4227 14.943 17.5702 15.0403C17.6767 15.1105 17.783 15.1808 17.854 15.2283C17.7957 15.2783 17.7465 15.316 17.717 15.329C17.6002 15.3613 17.2967 15.3498 16.582 14.913C16.4552 14.8353 16.3242 14.7128 16.1962 14.5768ZM16.4885 10.1685C16.7292 10.3243 16.9102 10.56 17.094 10.8153L17.063 10.9328C16.9895 11.2103 16.8862 11.48 16.755 11.7375C16.7302 11.6535 16.7057 11.5695 16.6812 11.4835C16.6512 11.3788 16.6212 11.2743 16.59 11.1705C16.4767 10.7893 16.341 10.397 16.1377 10.0313C16.2637 10.0605 16.3952 10.1083 16.4885 10.1685ZM18.001 11.47C18.189 11.5365 18.3135 11.7005 18.3105 11.8778C18.305 12.187 18.3292 12.5765 18.567 12.8428C18.6192 12.9008 18.673 12.9573 18.7275 13.0133L18.6942 13.0618C18.561 13.257 18.3365 13.4013 18.093 13.4475L17.995 13.4663C17.838 13.309 17.6822 13.2158 17.5515 13.1383C17.3727 13.032 17.2432 12.9555 17.1302 12.7378C17.0815 12.6435 17.038 12.5473 16.9972 12.4495L17.101 12.276C17.2912 11.9583 17.4397 11.6205 17.549 11.2708C17.689 11.3525 17.8452 11.4148 18.001 11.47ZM19.3462 13.6875C19.4445 13.8263 19.4905 13.9408 19.4827 14.0283C19.4802 14.0558 19.4742 14.0683 19.3637 14.151C19.288 14.2083 19.1935 14.2793 19.1097 14.3863C19.0345 14.483 18.9657 14.5503 18.8987 14.5945C18.8425 14.421 18.6827 14.2183 18.425 13.9378C18.7065 13.8375 18.9532 13.6575 19.1277 13.4218C19.2072 13.5083 19.281 13.5955 19.3462 13.6875Z" fill="#26A387"/>
</svg>
