<svg width="26" height="25" viewBox="0 0 26 25" fill="none" xmlns="http://www.w3.org/2000/svg">
<g clip-path="url(#clip0_990_5532)">
<path d="M1.36906 13.7356C1.49754 13.8009 1.63372 13.8497 1.77439 13.881C1.16387 16.0821 1.32617 18.426 2.23423 20.5219C2.38786 20.8231 2.60048 21.0903 2.85943 21.3076C3.11838 21.5249 3.41838 21.688 3.74161 21.7871C3.95322 21.8465 4.17203 21.8763 4.39182 21.8758C5.04432 21.8758 5.75557 21.6249 6.51432 21.1258L22.5315 13.8474C22.5647 13.8322 22.5956 13.8126 22.6234 13.789C22.6606 13.7959 22.6982 13.8016 22.7363 13.8062C23.0443 13.8393 23.3557 13.8037 23.6483 13.702C23.9408 13.6002 24.2071 13.4349 24.4281 13.2179C24.7929 12.883 25.078 12.4705 25.2624 12.0109C25.4468 11.5512 25.5258 11.0561 25.4936 10.5619C25.3854 8.73119 22.9322 4.70953 16.0408 3.96309C16.0388 3.96288 16.037 3.96322 16.035 3.96305C15.5483 3.89489 15.0555 3.8815 14.5658 3.92313C14.2687 3.91285 13.9737 3.97746 13.7081 4.11101C13.5971 4.16865 13.4931 4.23875 13.398 4.31994C13.0517 3.87235 12.5888 3.52885 12.06 3.32717C11.5313 3.12549 10.9571 3.07343 10.4007 3.17672C9.84432 3.28 9.32713 3.53463 8.90597 3.91264C8.48481 4.29064 8.17597 4.77741 8.01338 5.31947C7.77314 5.1836 7.50513 5.10419 7.22965 5.08725C6.95418 5.0703 6.67846 5.11627 6.42338 5.22166C6.1683 5.32706 5.94054 5.48912 5.75737 5.69557C5.5742 5.90203 5.44041 6.14745 5.36614 6.41327C5.08276 6.32795 4.78848 6.28423 4.49253 6.28348C4.01681 6.28498 3.5478 6.39579 3.12171 6.60735C2.69562 6.81891 2.32385 7.12557 2.0351 7.50364C1.74636 7.88171 1.54837 8.32108 1.45641 8.78783C1.36445 9.25458 1.38099 9.73622 1.50475 10.1956C1.43097 10.4036 1.40126 10.6246 1.4175 10.8447C1.07067 11.0236 0.79686 11.3175 0.643011 11.6761C0.489162 12.0348 0.464857 12.4357 0.574264 12.8103C0.638875 13.0095 0.742404 13.1939 0.878842 13.3527C1.01528 13.5115 1.18191 13.6417 1.36906 13.7356ZM6.16318 20.4271C6.14425 20.4358 6.12601 20.446 6.10863 20.4575C5.2816 21.0068 4.55986 21.2027 3.96248 21.0377C3.5226 20.8996 3.155 20.5935 2.93957 20.1858C2.91763 20.1408 0.785789 15.6403 3.93177 11.1724C4.98498 9.68397 6.45411 8.53955 8.15501 7.88259C9.47586 7.34905 10.8842 7.06523 12.3086 7.04555C14.3458 7.03747 16.3213 7.74366 17.8917 9.04131C17.9031 9.0498 19.0628 9.91936 20.5646 12.305C20.8015 12.6362 21.0821 12.9338 21.3988 13.1897C21.4302 13.2247 21.4677 13.2537 21.5096 13.2752C21.5593 13.3122 21.6101 13.3487 21.6631 13.3839L6.16318 20.4271ZM17.6505 6.72102C17.6131 6.52851 17.5342 6.34646 17.4193 6.18755C17.5992 6.13413 17.7908 6.13406 17.9708 6.18735C18.0821 6.21408 18.1863 6.26468 18.2761 6.33563C18.3659 6.40659 18.4392 6.49621 18.4909 6.59829C18.6773 7.03327 18.6262 7.32506 18.3128 7.61165C18.0776 7.65749 17.8561 7.75719 17.6658 7.90295C17.612 7.86648 17.5581 7.83315 17.5042 7.79807C17.6216 7.57547 17.6847 7.32822 17.6883 7.07656C17.6868 6.95712 17.6741 6.83809 17.6505 6.72102ZM21.2633 10.4063C21.2735 10.4584 21.2942 10.5079 21.3242 10.5517C21.3542 10.5955 21.3928 10.6328 21.4376 10.6612C21.5189 10.7137 21.5923 10.7773 21.6558 10.8502C21.7741 10.9838 21.9026 11.4486 21.8261 11.9396C21.8046 12.0995 21.7525 12.2538 21.6726 12.394C21.5061 12.2356 21.3541 12.0627 21.2183 11.8773C19.6327 9.35831 18.404 8.44793 18.3672 8.42171C18.3619 8.41749 18.3566 8.41373 18.3514 8.40952C18.4583 8.3718 18.5718 8.35609 18.6849 8.36334C18.9557 8.38577 19.2066 8.51428 19.383 8.72088C19.4168 8.75964 19.458 8.79133 19.5041 8.81415C19.5502 8.83696 19.6003 8.85044 19.6516 8.85382C19.703 8.8572 19.7545 8.8504 19.8032 8.83382C19.8518 8.81724 19.8968 8.7912 19.9354 8.7572C20.0155 8.68816 20.1085 8.63567 20.209 8.60278C20.3095 8.56989 20.4155 8.55726 20.5209 8.5656C20.7917 8.58803 21.0426 8.71654 21.219 8.92314C21.3656 9.08003 21.4559 9.2812 21.4758 9.49502C21.4956 9.70884 21.4438 9.92318 21.3285 10.1044C21.2977 10.1476 21.2761 10.1967 21.2648 10.2486C21.2536 10.3005 21.2531 10.3542 21.2633 10.4063ZM24.7139 10.608C24.7394 10.9846 24.6803 11.3622 24.5408 11.713C24.4013 12.0638 24.185 12.3789 23.9078 12.6351C23.7695 12.7768 23.6014 12.8859 23.4156 12.9544C23.2298 13.0229 23.0311 13.049 22.834 13.031C22.6478 13.0052 22.4678 12.9461 22.3025 12.8566C22.4576 12.6156 22.5584 12.3438 22.598 12.06C22.7012 11.3972 22.5546 10.6869 22.2408 10.3324C22.2097 10.2972 22.1777 10.2635 22.1447 10.2313C22.2629 9.92624 22.294 9.59432 22.2345 9.27262C22.1749 8.95091 22.0272 8.65208 21.8076 8.4095C21.4943 8.04677 21.0502 7.82268 20.5722 7.78608C20.2758 7.7647 19.9793 7.82677 19.7164 7.96528C19.5686 7.85 19.4041 7.75801 19.2285 7.69253C19.3323 7.47282 19.3845 7.23231 19.3811 6.98935C19.3778 6.74639 19.319 6.5074 19.2093 6.29063C19.1116 6.08224 18.9695 5.89779 18.7929 5.75026C18.6163 5.60273 18.4095 5.4957 18.1871 5.43671C17.9578 5.3684 17.7168 5.34883 17.4795 5.37926C17.2422 5.40969 17.0139 5.48945 16.8093 5.6134C16.6918 5.54297 16.5668 5.48573 16.4367 5.44271C16.3925 5.4285 16.348 5.41611 16.3038 5.40533C16.2685 5.17283 16.1842 4.95051 16.0563 4.75316C16.062 4.75391 16.067 4.75445 16.0728 4.75521C16.0778 4.75587 16.0827 4.75572 16.0877 4.75617C22.3203 5.47828 24.6228 9.06778 24.7139 10.608ZM14.063 4.807C14.306 4.68803 14.586 4.6697 14.8424 4.75598C15.0481 4.81568 15.2281 4.94225 15.3539 5.11568C15.4797 5.28912 15.5442 5.49952 15.537 5.71365C15.5326 5.76672 15.5391 5.82012 15.556 5.8706C15.573 5.92107 15.6001 5.96755 15.6356 6.00718C15.6712 6.04681 15.7145 6.07876 15.7628 6.10107C15.8112 6.12337 15.8636 6.13556 15.9168 6.1369C16.013 6.14015 16.1082 6.15704 16.1996 6.18706C16.3944 6.24098 16.5673 6.35454 16.6942 6.51178C16.8211 6.66902 16.8955 6.86205 16.9071 7.06377C16.905 7.17859 16.8789 7.29169 16.8303 7.39577C15.3341 6.58155 13.6439 6.19132 11.9421 6.26719C11.9416 6.19196 11.9525 6.1171 11.9745 6.04515C12.0082 5.94404 12.0616 5.85062 12.1317 5.77031C12.2018 5.69 12.2871 5.62439 12.3827 5.57728C12.6256 5.45828 12.9056 5.43994 13.162 5.52625C13.2109 5.54218 13.2624 5.54831 13.3136 5.5443C13.3648 5.54028 13.4148 5.5262 13.4606 5.50286C13.5063 5.47952 13.5471 5.44737 13.5804 5.40826C13.6138 5.36916 13.6391 5.32386 13.6549 5.27496C13.6886 5.17383 13.742 5.0804 13.812 5.00007C13.8821 4.91974 13.9674 4.85411 14.063 4.807ZM10.9647 3.90625C11.2944 3.90647 11.6202 3.97756 11.9199 4.11469C12.2197 4.25183 12.4865 4.4518 12.7022 4.70107C12.4769 4.71533 12.2564 4.77297 12.0529 4.87083C12.0717 4.8402 12.082 4.80516 12.0828 4.76925C12.083 4.72845 12.0711 4.68851 12.0487 4.65441C12.0263 4.62031 11.9943 4.59355 11.9568 4.57747C11.9193 4.56138 11.8779 4.55668 11.8378 4.56395C11.7976 4.57122 11.7605 4.59013 11.731 4.61834C11.7016 4.64655 11.681 4.68281 11.672 4.7226C11.663 4.76239 11.6658 4.80396 11.6803 4.84213C11.6947 4.8803 11.72 4.91339 11.7531 4.93728C11.7862 4.96116 11.8255 4.97479 11.8663 4.97646C11.5661 5.17199 11.3419 5.46439 11.231 5.80502C11.1778 5.97282 11.154 6.14856 11.1608 6.32446C10.973 6.34512 10.7876 6.37025 10.6045 6.39985C10.5631 6.30371 10.5124 6.21183 10.4532 6.12554C10.2647 5.87036 10.0085 5.6731 9.71368 5.55613C9.41881 5.43916 9.09707 5.40716 8.78494 5.46376C8.94188 5.01014 9.23599 4.61655 9.62654 4.3375C10.0171 4.05845 10.4847 3.90774 10.9647 3.90625ZM5.88203 7.52955C5.98043 7.49764 6.06216 7.42803 6.10932 7.33597C6.15648 7.2439 6.16522 7.1369 6.13361 7.0384C6.07419 6.80204 6.11028 6.55179 6.23405 6.34184C6.35782 6.13189 6.55931 5.97915 6.79489 5.91669C6.90097 5.88221 7.0118 5.86461 7.12334 5.86453C7.27997 5.86031 7.43504 5.89661 7.57352 5.96993C7.712 6.04324 7.82919 6.15108 7.91375 6.283C7.94119 6.32877 7.97772 6.36843 8.02107 6.39955C8.06443 6.43066 8.1137 6.45256 8.16585 6.4639C8.218 6.47524 8.27192 6.47578 8.32428 6.46548C8.37665 6.45518 8.42634 6.43426 8.47031 6.40402C8.55034 6.35001 8.63761 6.3076 8.72952 6.27804C8.91477 6.20905 9.11677 6.19875 9.30808 6.24854C9.49938 6.29833 9.67072 6.40581 9.79883 6.55636C9.14244 6.70864 8.49805 6.9087 7.87083 7.15494C6.91934 7.52574 6.02892 8.0373 5.22936 8.67253C5.22677 8.66531 5.22312 8.6586 5.22076 8.65125C5.16135 8.41489 5.19743 8.16464 5.3212 7.95469C5.44496 7.74474 5.64646 7.592 5.88203 7.52955ZM4.49253 7.06473C4.67159 7.06499 4.85 7.0864 5.02404 7.12851C4.89092 7.23948 4.77469 7.36927 4.67902 7.51377C4.67425 7.48323 4.66274 7.45413 4.64533 7.42859C4.62791 7.40305 4.60502 7.3817 4.57833 7.36611C4.55164 7.35051 4.52181 7.34106 4.49101 7.33843C4.4602 7.3358 4.4292 7.34006 4.40025 7.3509C4.3713 7.36174 4.34513 7.3789 4.32363 7.40112C4.30214 7.42334 4.28586 7.45006 4.27598 7.47936C4.2661 7.50865 4.26287 7.53978 4.26652 7.57048C4.27017 7.60118 4.28061 7.63068 4.29708 7.65684C4.32378 7.69902 4.36487 7.73008 4.41274 7.74425C4.46061 7.75842 4.51199 7.75473 4.55734 7.73388C4.38509 8.09522 4.35634 8.50844 4.47689 8.89015C4.51219 8.99875 4.55955 9.10305 4.61807 9.20111C4.53593 9.27812 4.45512 9.35649 4.37562 9.43621C4.19157 9.27332 3.97478 9.15173 3.73981 9.07962C3.50485 9.00752 3.25716 8.98657 3.01343 9.01819C3.04561 8.98538 3.06588 8.94274 3.07102 8.89707C3.07615 8.8514 3.06585 8.80533 3.04176 8.76619C3.0274 8.74278 3.00855 8.72245 2.98629 8.70637C2.96404 8.69029 2.93882 8.67878 2.91209 8.67249C2.88536 8.6662 2.85765 8.66527 2.83056 8.66975C2.80347 8.67422 2.77754 8.68402 2.75425 8.69857C2.73096 8.71311 2.71079 8.73213 2.69489 8.75452C2.67899 8.7769 2.66768 8.80221 2.66161 8.82899C2.65554 8.85577 2.65483 8.88349 2.65952 8.91054C2.66422 8.93759 2.67422 8.96345 2.68896 8.98662C2.71089 9.01983 2.74206 9.04589 2.77863 9.06159C2.73625 9.07218 2.69377 9.07989 2.65156 9.09357C2.48509 9.14774 2.32715 9.22526 2.18246 9.3238C2.19836 8.72085 2.44843 8.1478 2.87965 7.72609C3.31088 7.30438 3.88938 7.06717 4.49253 7.06473ZM1.97941 11.4497C2.0778 11.4178 2.15954 11.3482 2.2067 11.2561C2.25385 11.1641 2.26259 11.0571 2.23099 10.9586C2.17156 10.7222 2.20763 10.472 2.33141 10.262C2.45518 10.052 2.65668 9.89931 2.89226 9.83687C2.99834 9.8024 3.10917 9.7848 3.22071 9.7847C3.44982 9.78229 3.67217 9.86233 3.84718 10.0102C3.65265 10.239 3.46695 10.4758 3.29319 10.7226C2.76624 11.466 2.33846 12.2749 2.02069 13.1289C1.918 13.1159 1.81819 13.0859 1.72535 13.0402C1.62982 12.9929 1.54462 12.9271 1.47472 12.8466C1.40481 12.7662 1.35158 12.6726 1.31812 12.5714C1.2587 12.3351 1.29479 12.0848 1.41856 11.8749C1.54233 11.6649 1.74383 11.5122 1.97941 11.4497Z" fill="#26A387"/>
<path d="M11.7 8.40891C11.8034 8.40243 11.9 8.35515 11.9685 8.27746C12.0371 8.19976 12.0719 8.09803 12.0655 7.99463C12.059 7.89123 12.0117 7.79464 11.934 7.72611C11.8563 7.65757 11.7546 7.62271 11.6512 7.62918C8.50291 7.8265 4.62755 9.91028 3.59186 13.0556C3.55946 13.154 3.56747 13.2612 3.61414 13.3537C3.6608 13.4462 3.74229 13.5163 3.84068 13.5487C3.93907 13.5811 4.0463 13.5731 4.13878 13.5265C4.23126 13.4798 4.30142 13.3983 4.33382 13.2999C5.25374 10.5064 8.87369 8.58611 11.7 8.40891Z" fill="#26A387"/>
<path d="M10.8008 4.76953C10.9157 4.76953 11.0088 4.67597 11.0088 4.56055C11.0088 4.44513 10.9157 4.35156 10.8008 4.35156C10.6859 4.35156 10.5928 4.44513 10.5928 4.56055C10.5928 4.67597 10.6859 4.76953 10.8008 4.76953Z" fill="#26A387"/>
<path d="M9.80664 5.25391C9.92152 5.25391 10.0146 5.16034 10.0146 5.04492C10.0146 4.9295 9.92152 4.83594 9.80664 4.83594C9.69176 4.83594 9.59863 4.9295 9.59863 5.04492C9.59863 5.16034 9.69176 5.25391 9.80664 5.25391Z" fill="#26A387"/>
<path d="M7.63672 15.4253C7.86648 15.4253 8.05273 15.2382 8.05273 15.0073C8.05273 14.7765 7.86648 14.5894 7.63672 14.5894C7.40696 14.5894 7.2207 14.7765 7.2207 15.0073C7.2207 15.2382 7.40696 15.4253 7.63672 15.4253Z" fill="#26A387"/>
<path d="M12.083 15.4253C12.3128 15.4253 12.499 15.2382 12.499 15.0073C12.499 14.7765 12.3128 14.5894 12.083 14.5894C11.8532 14.5894 11.667 14.7765 11.667 15.0073C11.667 15.2382 11.8532 15.4253 12.083 15.4253Z" fill="#26A387"/>
<path d="M5.97266 18.1938C6.20242 18.1938 6.38867 18.0067 6.38867 17.7759C6.38867 17.545 6.20242 17.3579 5.97266 17.3579C5.7429 17.3579 5.55664 17.545 5.55664 17.7759C5.55664 18.0067 5.7429 18.1938 5.97266 18.1938Z" fill="#26A387"/>
<path d="M3.56292 8.11631C3.66035 8.05544 3.68975 7.92674 3.62859 7.82886C3.56743 7.73098 3.43887 7.70098 3.34144 7.76185C3.24402 7.82272 3.21462 7.95142 3.27578 8.0493C3.33694 8.14719 3.4655 8.17719 3.56292 8.11631Z" fill="#26A387"/>
</g>
<defs>
<clipPath id="clip0_990_5532">
<rect width="25" height="25" fill="white" transform="translate(0.5)"/>
</clipPath>
</defs>
</svg>
