<svg width="26" height="25" viewBox="0 0 26 25" fill="none" xmlns="http://www.w3.org/2000/svg">
<g clip-path="url(#clip0_990_5600)">
<path d="M25.2596 13.8625C25.2591 13.4678 25.1131 13.0871 24.8495 12.7933C24.5859 12.4995 24.2233 12.3132 23.8309 12.27C23.7475 11.3337 23.3651 10.4492 22.7401 9.74707C22.1152 9.04497 21.2809 8.56259 20.3607 8.37124C20.6158 7.83691 20.7598 7.25632 20.7839 6.66469C20.8079 6.07305 20.7116 5.48269 20.5007 4.92939C20.4795 4.87381 20.4459 4.8238 20.4024 4.78319C20.3589 4.74258 20.3067 4.71244 20.2498 4.69507C20.1929 4.6777 20.1328 4.67356 20.074 4.68296C20.0153 4.69236 19.9595 4.71505 19.9108 4.74932L19.4832 5.05049L19.0272 4.7293C18.9515 4.67595 18.8592 4.65126 18.767 4.65962L18.2119 4.71001L17.9784 4.20381C17.9395 4.11939 17.8717 4.05163 17.7873 4.0127L17.2811 3.77905L17.3314 3.22402C17.3398 3.13178 17.3151 3.03955 17.2618 2.96382L16.7832 2.28403C16.7476 2.23343 16.7004 2.19202 16.6457 2.16322C16.5909 2.13441 16.53 2.11904 16.4682 2.11836L16.457 2.11802C16.4441 2.11758 16.4313 2.11719 16.4184 2.11719C15.7614 2.11908 15.1133 2.26825 14.5217 2.55371C13.93 2.83918 13.4099 3.25367 12.9996 3.7667C12.3312 2.92715 11.3772 2.36297 10.3195 2.18175C9.26183 2.00054 8.17444 2.21496 7.26471 2.78414C6.35498 3.35331 5.68657 4.23742 5.38694 5.26785C5.08732 6.29828 5.17744 7.40295 5.64013 8.37119C4.71985 8.56251 3.88556 9.04488 3.26061 9.74699C2.63566 10.4491 2.25323 11.3337 2.16986 12.2699C1.79569 12.3106 1.44781 12.4818 1.18723 12.7534C0.926647 13.025 0.770016 13.3797 0.744809 13.7552C0.719602 14.1307 0.827429 14.5031 1.04937 14.8071C1.27132 15.1111 1.59321 15.3272 1.95858 15.4176C2.03671 17.9447 2.97611 20.174 4.68896 21.8824C5.33995 22.524 6.21729 22.8836 7.13129 22.8834H18.8694C19.7834 22.8836 20.6607 22.524 21.3117 21.8824C23.0245 20.1741 23.9641 17.9447 24.0421 15.4176C24.3894 15.3312 24.6978 15.1313 24.9184 14.8496C25.139 14.5678 25.2591 14.2204 25.2596 13.8625ZM23.0448 12.2604H17.3231C17.264 11.5935 17.0513 10.9494 16.7018 10.3783C17.1494 9.83154 17.7486 9.42911 18.424 9.22152C19.0995 9.01394 19.8212 9.01044 20.4987 9.21146C21.1761 9.41249 21.7791 9.80908 22.2321 10.3515C22.685 10.8939 22.9676 11.558 23.0446 12.2604H23.0448ZM10.8739 12.2604C10.8133 11.5779 10.592 10.9195 10.228 10.339C10.6805 9.80186 11.2807 9.4094 11.9542 9.21023C12.6277 9.01106 13.3448 9.01395 14.0167 9.21855C14.6885 9.42314 15.2856 9.82044 15.7337 10.3612C16.1819 10.9019 16.4615 11.5623 16.5378 12.2604H10.8739ZM16.2626 2.90186L16.5403 3.29614L16.478 3.98281C16.4707 4.06314 16.4885 4.14375 16.5289 4.21358C16.5692 4.2834 16.6302 4.33903 16.7035 4.3728L17.3292 4.66147L17.6178 5.28726C17.6516 5.36051 17.7072 5.4215 17.7771 5.46187C17.8469 5.50223 17.9275 5.51999 18.0079 5.5127L18.6945 5.45034L19.2581 5.84731C19.324 5.89368 19.4025 5.91857 19.4831 5.91857C19.5636 5.91857 19.6422 5.89368 19.708 5.84731L19.919 5.69873C20.1164 6.57879 19.9757 7.50092 19.5246 8.28198C19.5092 8.28198 19.4938 8.2814 19.4783 8.2814C18.8639 8.28094 18.2563 8.41028 17.6954 8.66096C17.1345 8.91164 16.6329 9.278 16.2234 9.73604C15.5293 8.96004 14.5808 8.45768 13.5489 8.31963C13.7591 7.86442 13.8892 7.37638 13.9337 6.87695H14.2262C14.3298 6.87695 14.4291 6.8358 14.5024 6.76254C14.5756 6.68929 14.6168 6.58993 14.6168 6.48633C14.6168 6.38273 14.5756 6.28337 14.5024 6.21011C14.4291 6.13686 14.3298 6.0957 14.2262 6.0957H13.934C13.8835 5.52536 13.7204 4.97068 13.4544 4.46367C13.7701 4.00422 14.188 3.62413 14.6752 3.35316C15.1624 3.0822 15.7057 2.92773 16.2626 2.90186ZM5.99433 6.48652C5.99441 5.93567 6.12132 5.39223 6.36522 4.89832C6.60913 4.40441 6.96348 3.97329 7.40081 3.63837C7.83815 3.30344 8.34673 3.07371 8.88714 2.96697C9.42755 2.86023 9.98528 2.87935 10.5171 3.02285C11.0489 3.16635 11.5406 3.43037 11.954 3.79445C12.3673 4.15854 12.6913 4.61292 12.9008 5.12237C13.1104 5.63183 13.1998 6.18268 13.1621 6.73224C13.1245 7.28181 12.9608 7.81533 12.6838 8.29146C11.5593 8.36776 10.5074 8.87372 9.74579 9.70449C9.33712 9.25599 8.8393 8.89776 8.28421 8.65272C7.72912 8.40768 7.12898 8.28124 6.52221 8.28149C6.50668 8.28149 6.4913 8.28193 6.47582 8.28208C6.15972 7.73652 5.9936 7.11704 5.99433 6.48652ZM6.52221 9.06274C7.40584 9.06389 8.25807 9.39061 8.916 9.98048C9.57393 10.5704 9.99142 11.382 10.0887 12.2603H2.95575C3.05301 11.382 3.4705 10.5704 4.12842 9.98049C4.78635 9.39063 5.63857 9.0639 6.52221 9.06274ZM20.7601 21.3292C20.2559 21.8252 19.5767 22.1028 18.8694 22.102H7.13114C6.42388 22.1028 5.74474 21.8252 5.24052 21.3292C3.68813 19.7809 2.82899 17.7599 2.74164 15.4646H23.2591C23.1716 17.7597 22.3125 19.7809 20.7601 21.3292ZM23.6575 14.6833H2.34306C2.12535 14.6833 1.91657 14.5968 1.76263 14.4429C1.60869 14.2889 1.52221 14.0802 1.52221 13.8625C1.52221 13.6447 1.60869 13.436 1.76263 13.282C1.91657 13.1281 2.12535 13.0416 2.34306 13.0416H23.6575C23.8752 13.0416 24.084 13.1281 24.2379 13.282C24.3919 13.436 24.4784 13.6447 24.4784 13.8625C24.4784 14.0802 24.3919 14.2889 24.2379 14.4429C24.084 14.5968 23.8752 14.6833 23.6575 14.6833ZM4.38642 11.2096C4.38642 11.106 4.42757 11.0066 4.50083 10.9334C4.57408 10.8601 4.67344 10.8189 4.77704 10.8189H5.331C5.4346 10.8189 5.53395 10.8601 5.60721 10.9334C5.68047 11.0066 5.72162 11.106 5.72162 11.2096C5.72162 11.3132 5.68047 11.4125 5.60721 11.4858C5.53395 11.559 5.4346 11.6002 5.331 11.6002H4.77704C4.67344 11.6002 4.57408 11.559 4.50083 11.4858C4.42757 11.4125 4.38642 11.3132 4.38642 11.2096ZM7.35658 11.2096C7.35658 11.106 7.39774 11.0066 7.47099 10.9334C7.54425 10.8601 7.64361 10.8189 7.74721 10.8189H8.30111C8.40471 10.8189 8.50407 10.8601 8.57733 10.9334C8.65058 11.0066 8.69174 11.106 8.69174 11.2096C8.69174 11.3132 8.65058 11.4125 8.57733 11.4858C8.50407 11.559 8.40471 11.6002 8.30111 11.6002H7.74721C7.64361 11.6002 7.54425 11.559 7.47099 11.4858C7.39774 11.4125 7.35658 11.3132 7.35658 11.2096ZM5.89926 9.94683C5.89926 9.84323 5.94041 9.74387 6.01367 9.67061C6.08693 9.59736 6.18628 9.5562 6.28988 9.5562H6.84384C6.94744 9.5562 7.0468 9.59736 7.12005 9.67061C7.19331 9.74387 7.23446 9.84323 7.23446 9.94683C7.23446 10.0504 7.19331 10.1498 7.12005 10.223C7.0468 10.2963 6.94744 10.3375 6.84384 10.3375H6.28988C6.23859 10.3375 6.18779 10.3273 6.1404 10.3077C6.093 10.2881 6.04994 10.2593 6.01367 10.223C5.9774 10.1868 5.94862 10.1437 5.92899 10.0963C5.90936 10.0489 5.89926 9.99812 5.89926 9.94683ZM18.6776 11.2096C18.6776 11.3132 18.6364 11.4125 18.5632 11.4858C18.4899 11.559 18.3906 11.6002 18.287 11.6002H17.7332C17.6296 11.6002 17.5302 11.559 17.457 11.4858C17.3837 11.4125 17.3426 11.3132 17.3426 11.2096C17.3426 11.106 17.3837 11.0066 17.457 10.9334C17.5302 10.8601 17.6296 10.8189 17.7332 10.8189H18.2871C18.3907 10.8189 18.4901 10.8601 18.5633 10.9334C18.6366 11.0066 18.6777 11.106 18.6777 11.2096H18.6776ZM20.3126 11.2096C20.3126 11.106 20.3537 11.0066 20.427 10.9334C20.5003 10.8601 20.5996 10.8189 20.7032 10.8189H21.2571C21.3607 10.8189 21.4601 10.8601 21.5333 10.9334C21.6066 11.0066 21.6477 11.106 21.6477 11.2096C21.6477 11.3132 21.6066 11.4125 21.5333 11.4858C21.4601 11.559 21.3607 11.6002 21.2571 11.6002H20.7034C20.5998 11.6002 20.5004 11.559 20.4271 11.4858C20.3539 11.4125 20.3127 11.3132 20.3127 11.2096H20.3126ZM19.2459 9.5562H19.7998C19.9034 9.5562 20.0028 9.59736 20.0761 9.67061C20.1493 9.74387 20.1905 9.84323 20.1905 9.94683C20.1905 10.0504 20.1493 10.1498 20.0761 10.223C20.0028 10.2963 19.9034 10.3375 19.7998 10.3375H19.2461C19.1425 10.3375 19.0431 10.2963 18.9699 10.223C18.8966 10.1498 18.8555 10.0504 18.8555 9.94683C18.8555 9.84323 18.8966 9.74387 18.9699 9.67061C19.0431 9.59736 19.1425 9.5562 19.2461 9.5562H19.2459ZM12.1707 11.2096C12.1707 11.3132 12.1296 11.4125 12.0563 11.4858C11.9831 11.559 11.8837 11.6002 11.7801 11.6002H11.2262C11.1226 11.6002 11.0233 11.559 10.95 11.4858C10.8767 11.4125 10.8356 11.3132 10.8356 11.2096C10.8356 11.106 10.8767 11.0066 10.95 10.9334C11.0233 10.8601 11.1226 10.8189 11.2262 10.8189H11.7802C11.8838 10.8189 11.9831 10.8601 12.0564 10.9334C12.1296 11.0066 12.1707 11.106 12.1707 11.2096ZM15.1409 11.2096C15.1409 11.3132 15.0998 11.4125 15.0265 11.4858C14.9532 11.559 14.8539 11.6002 14.7503 11.6002H14.1966C14.093 11.6002 13.9936 11.559 13.9204 11.4858C13.8471 11.4125 13.8059 11.3132 13.8059 11.2096C13.8059 11.106 13.8471 11.0066 13.9204 10.9334C13.9936 10.8601 14.093 10.8189 14.1966 10.8189H14.7505C14.8541 10.819 14.9534 10.8602 15.0266 10.9334C15.0998 11.0067 15.141 11.106 15.141 11.2096H15.1409ZM13.6839 9.94683C13.6839 10.0504 13.6427 10.1498 13.5695 10.223C13.4962 10.2963 13.3969 10.3375 13.2933 10.3375H12.7391C12.6355 10.3375 12.5361 10.2963 12.4628 10.223C12.3896 10.1498 12.3484 10.0504 12.3484 9.94683C12.3484 9.84323 12.3896 9.74387 12.4628 9.67061C12.5361 9.59736 12.6355 9.5562 12.7391 9.5562H13.2933C13.3969 9.5562 13.4962 9.59736 13.5695 9.67061C13.6427 9.74387 13.6839 9.84323 13.6839 9.94683ZM14.2824 5.04517C14.2824 4.94157 14.3235 4.84221 14.3968 4.76895C14.47 4.6957 14.5694 4.65454 14.673 4.65454H15.2268C15.3304 4.65454 15.4298 4.6957 15.5031 4.76895C15.5763 4.84221 15.6175 4.94157 15.6175 5.04517C15.6175 5.14877 15.5763 5.24812 15.5031 5.32138C15.4298 5.39464 15.3304 5.43579 15.2268 5.43579H14.673C14.5694 5.43579 14.47 5.39464 14.3968 5.32138C14.3235 5.24812 14.2824 5.14877 14.2824 5.04517ZM18.1858 6.48652C18.1858 6.38292 18.227 6.28357 18.3002 6.21031C18.3735 6.13705 18.4729 6.0959 18.5765 6.0959H19.1304C19.234 6.0959 19.3334 6.13705 19.4066 6.21031C19.4799 6.28357 19.521 6.38292 19.521 6.48652C19.521 6.59012 19.4799 6.68948 19.4066 6.76274C19.3334 6.83599 19.234 6.87715 19.1304 6.87715H18.5765C18.4729 6.87715 18.3735 6.83599 18.3002 6.76274C18.227 6.68948 18.1858 6.59012 18.1858 6.48652ZM15.7954 6.48652C15.7954 6.38292 15.8366 6.28357 15.9098 6.21031C15.9831 6.13705 16.0824 6.0959 16.186 6.0959H16.74C16.8436 6.0959 16.9429 6.13705 17.0162 6.21031C17.0895 6.28357 17.1306 6.38292 17.1306 6.48652C17.1306 6.59012 17.0895 6.68948 17.0162 6.76274C16.9429 6.83599 16.8436 6.87715 16.74 6.87715H16.1858C16.0822 6.87715 15.9829 6.83599 15.9096 6.76274C15.8364 6.68948 15.7952 6.59012 15.7952 6.48652H15.7954ZM15.6178 7.92793C15.6178 8.03153 15.5766 8.13089 15.5034 8.20414C15.4301 8.2774 15.3307 8.31855 15.2271 8.31855H14.673C14.5694 8.31855 14.47 8.2774 14.3968 8.20414C14.3235 8.13089 14.2824 8.03153 14.2824 7.92793C14.2824 7.82433 14.3235 7.72497 14.3968 7.65172C14.47 7.57846 14.5694 7.5373 14.673 7.5373H15.2268C15.3304 7.5373 15.4298 7.57846 15.5031 7.65172C15.5763 7.72497 15.6175 7.82433 15.6175 7.92793H15.6178ZM17.2527 7.92793C17.2527 7.82433 17.2939 7.72497 17.3671 7.65172C17.4404 7.57846 17.5397 7.5373 17.6433 7.5373H18.1971C18.3007 7.5373 18.4 7.57846 18.4733 7.65172C18.5465 7.72497 18.5877 7.82433 18.5877 7.92793C18.5877 8.03153 18.5465 8.13089 18.4733 8.20414C18.4 8.2774 18.3007 8.31855 18.1971 8.31855H17.6432C17.5396 8.31855 17.4402 8.2774 17.3669 8.20414C17.2937 8.13089 17.2525 8.03153 17.2525 7.92793H17.2527ZM7.44662 5.04517C7.44662 4.94157 7.48778 4.84221 7.56103 4.76895C7.63429 4.6957 7.73365 4.65454 7.83725 4.65454H8.39091C8.49451 4.65454 8.59387 4.6957 8.66712 4.76895C8.74038 4.84221 8.78153 4.94157 8.78153 5.04517C8.78153 5.14877 8.74038 5.24812 8.66712 5.32138C8.59387 5.39464 8.49451 5.43579 8.39091 5.43579H7.83725C7.73365 5.43579 7.63429 5.39464 7.56103 5.32138C7.48778 5.24812 7.44662 5.14877 7.44662 5.04517ZM10.4168 5.04517C10.4168 4.94157 10.4579 4.84221 10.5312 4.76895C10.6045 4.6957 10.7038 4.65454 10.8074 4.65454H11.3614C11.465 4.65454 11.5643 4.6957 11.6376 4.76895C11.7108 4.84221 11.752 4.94157 11.752 5.04517C11.752 5.14877 11.7108 5.24812 11.6376 5.32138C11.5643 5.39464 11.465 5.43579 11.3614 5.43579H10.8074C10.7038 5.43579 10.6045 5.39464 10.5312 5.32138C10.4579 5.24812 10.4168 5.14877 10.4168 5.04517ZM6.44599 6.48652C6.44599 6.38292 6.48714 6.28357 6.5604 6.21031C6.63365 6.13705 6.73301 6.0959 6.83661 6.0959H7.39052C7.49412 6.0959 7.59348 6.13705 7.66673 6.21031C7.73999 6.28357 7.78114 6.38292 7.78114 6.48652C7.78114 6.59012 7.73999 6.68948 7.66673 6.76274C7.59348 6.83599 7.49412 6.87715 7.39052 6.87715H6.83661C6.73301 6.87715 6.63365 6.83599 6.5604 6.76274C6.48714 6.68948 6.44599 6.59012 6.44599 6.48652ZM11.7405 6.0959H12.2945C12.3981 6.0959 12.4974 6.13705 12.5707 6.21031C12.6439 6.28357 12.6851 6.38292 12.6851 6.48652C12.6851 6.59012 12.6439 6.68948 12.5707 6.76274C12.4974 6.83599 12.3981 6.87715 12.2945 6.87715H11.7405C11.6369 6.87715 11.5376 6.83599 11.4643 6.76274C11.391 6.68948 11.3499 6.59012 11.3499 6.48652C11.3499 6.38292 11.391 6.28357 11.4643 6.21031C11.5376 6.13705 11.6369 6.0959 11.7405 6.0959ZM8.95951 6.48652C8.95951 6.38292 9.00067 6.28357 9.07392 6.21031C9.14718 6.13705 9.24654 6.0959 9.35014 6.0959H9.90404C10.0076 6.0959 10.107 6.13705 10.1803 6.21031C10.2535 6.28357 10.2947 6.38292 10.2947 6.48652C10.2947 6.59012 10.2535 6.68948 10.1803 6.76274C10.107 6.83599 10.0076 6.87715 9.90404 6.87715H9.35014C9.24654 6.87715 9.14718 6.83599 9.07392 6.76274C9.00067 6.68948 8.95951 6.59012 8.95951 6.48652ZM8.95951 3.78242C8.95951 3.67882 9.00067 3.57946 9.07392 3.50621C9.14718 3.43295 9.24654 3.3918 9.35014 3.3918H9.90404C10.0076 3.3918 10.107 3.43295 10.1803 3.50621C10.2535 3.57946 10.2947 3.67882 10.2947 3.78242C10.2947 3.88602 10.2535 3.98538 10.1803 4.05864C10.107 4.13189 10.0076 4.17305 9.90404 4.17305H9.35014C9.24654 4.17305 9.14718 4.13189 9.07392 4.05864C9.00067 3.98538 8.95951 3.88602 8.95951 3.78242ZM8.78178 7.92793C8.78178 8.03153 8.74062 8.13089 8.66737 8.20414C8.59411 8.2774 8.49475 8.31855 8.39115 8.31855H7.83725C7.73365 8.31855 7.63429 8.2774 7.56103 8.20414C7.48778 8.13089 7.44662 8.03153 7.44662 7.92793C7.44662 7.82433 7.48778 7.72497 7.56103 7.65172C7.63429 7.57846 7.73365 7.5373 7.83725 7.5373H8.39091C8.44223 7.53727 8.49305 7.54735 8.54047 7.56697C8.58789 7.58659 8.63098 7.61535 8.66728 7.65163C8.70358 7.68791 8.73237 7.73098 8.75202 7.77839C8.77167 7.8258 8.78178 7.87661 8.78178 7.92793ZM10.4168 7.92793C10.4168 7.82433 10.4579 7.72497 10.5312 7.65172C10.6045 7.57846 10.7038 7.5373 10.8074 7.5373H11.3614C11.465 7.5373 11.5643 7.57846 11.6376 7.65172C11.7108 7.72497 11.752 7.82433 11.752 7.92793C11.752 8.03153 11.7108 8.13089 11.6376 8.20414C11.5643 8.2774 11.465 8.31855 11.3614 8.31855H10.8074C10.7038 8.31855 10.6045 8.2774 10.5312 8.20414C10.4579 8.13089 10.4168 8.03153 10.4168 7.92793Z" fill="#26A387"/>
</g>
<defs>
<clipPath id="clip0_990_5600">
<rect width="25" height="25" fill="white" transform="translate(0.5)"/>
</clipPath>
</defs>
</svg>
