<svg width="26" height="25" viewBox="0 0 26 25" fill="none" xmlns="http://www.w3.org/2000/svg">
<path d="M12.7613 14.2949C12.7673 14.3209 12.7693 14.3489 12.7693 14.3749C12.7693 14.4009 12.7673 14.4269 12.7613 14.4529C12.7575 14.4789 12.7495 14.5029 12.7393 14.5269C12.729 14.5509 12.7173 14.5752 12.703 14.5972C12.687 14.6192 12.671 14.6392 12.653 14.6572C12.579 14.7312 12.475 14.7752 12.3708 14.7752C12.2648 14.7752 12.1608 14.7312 12.0865 14.6572C12.0688 14.6392 12.0505 14.6192 12.0365 14.5972C12.0225 14.5752 12.0105 14.5512 12.0005 14.5269C11.9905 14.5029 11.9825 14.4789 11.9765 14.4529C11.9728 14.4269 11.9685 14.4009 11.9685 14.3749C11.9685 14.2687 12.0125 14.1667 12.0865 14.0907C12.2348 13.9427 12.505 13.9427 12.6528 14.0907C12.6708 14.1087 12.6868 14.1307 12.7028 14.1527C12.717 14.1727 12.7288 14.1967 12.739 14.2207C12.7495 14.2449 12.7575 14.2709 12.7613 14.2949ZM9.35126 14.3749C9.37726 14.3689 9.40326 14.3629 9.42726 14.3527C9.45126 14.3427 9.47326 14.3287 9.49551 14.3147C9.51726 14.3007 9.53751 14.2847 9.55726 14.2647C9.63151 14.1907 9.67326 14.0884 9.67326 13.9824C9.67326 13.9564 9.67126 13.9304 9.66526 13.9044C9.66126 13.8784 9.65326 13.8524 9.64326 13.8284C9.63326 13.8044 9.62126 13.7824 9.60726 13.7604C9.59126 13.7384 9.57526 13.7184 9.55726 13.6984C9.53726 13.6804 9.51726 13.6644 9.49551 13.6504C9.47326 13.6344 9.45126 13.6224 9.42726 13.6124C9.40326 13.6024 9.37726 13.5947 9.35126 13.5904C9.30126 13.5804 9.24726 13.5804 9.19526 13.5904C9.16926 13.5944 9.14526 13.6024 9.12126 13.6124C9.09726 13.6224 9.07301 13.6344 9.05101 13.6504C9.02926 13.6644 9.00901 13.6804 8.99101 13.6984C8.97301 13.7184 8.95501 13.7384 8.94101 13.7604C8.92701 13.7827 8.91501 13.8044 8.90501 13.8284C8.89501 13.8524 8.88701 13.8784 8.88101 13.9044C8.87701 13.9304 8.87301 13.9564 8.87301 13.9824C8.87301 14.0884 8.91676 14.1907 8.99101 14.2647C9.00901 14.2847 9.02901 14.3007 9.05101 14.3147C9.07326 14.3287 9.09726 14.3427 9.12126 14.3527C9.14526 14.3627 9.16901 14.3687 9.19526 14.3749C9.22126 14.3809 9.24726 14.3829 9.27326 14.3829C9.29926 14.3829 9.32726 14.3809 9.35126 14.3749ZM9.88776 14.8112C9.86576 14.7952 9.84351 14.7832 9.81951 14.7732C9.79351 14.7632 9.76951 14.7552 9.74351 14.7512C9.61351 14.7252 9.47526 14.7672 9.38326 14.8592C9.30926 14.9332 9.26526 15.0372 9.26526 15.1432C9.26526 15.2494 9.30926 15.3514 9.38326 15.4254C9.45726 15.4994 9.55926 15.5434 9.66551 15.5434C9.69151 15.5434 9.71751 15.5414 9.74351 15.5354C9.76951 15.5294 9.79351 15.5234 9.81951 15.5134C9.84351 15.5034 9.86576 15.4894 9.88776 15.4754C9.90951 15.4614 9.92976 15.4434 9.94776 15.4254C10.0238 15.3514 10.0658 15.2492 10.0658 15.1432C10.0658 15.0372 10.0238 14.9332 9.94776 14.8592C9.92976 14.8414 9.90951 14.8252 9.88776 14.8112ZM11.3685 14.7752C11.4745 14.7752 11.5765 14.7312 11.6508 14.6572C11.7268 14.5832 11.7688 14.4792 11.7688 14.3752C11.7688 14.2689 11.7268 14.1649 11.6508 14.0909C11.5028 13.9429 11.2325 13.9429 11.0863 14.0909C11.0103 14.1649 10.9683 14.2689 10.9683 14.3752C10.9683 14.4812 11.0103 14.5832 11.0863 14.6572C11.1603 14.7312 11.2623 14.7752 11.3685 14.7752ZM11.999 13.4204C12.009 13.4444 12.0208 13.4684 12.035 13.4884C12.0493 13.5104 12.067 13.5324 12.085 13.5504C12.1593 13.6244 12.263 13.6664 12.3673 13.6664C12.3933 13.6664 12.4213 13.6644 12.4453 13.6584C12.4713 13.6544 12.4973 13.6464 12.5213 13.6364C12.5453 13.6264 12.5673 13.6144 12.5895 13.6004C12.6113 13.5844 12.6315 13.5684 12.6495 13.5504C12.6695 13.5324 12.6855 13.5104 12.6995 13.4884C12.7155 13.4684 12.7275 13.4444 12.7375 13.4204C12.7478 13.3964 12.7558 13.3704 12.7595 13.3444C12.7655 13.3204 12.7675 13.2924 12.7675 13.2664C12.7675 13.2404 12.7655 13.2144 12.7595 13.1884C12.7558 13.1644 12.7478 13.1384 12.7375 13.1144C12.7275 13.0904 12.7155 13.0664 12.6995 13.0444C12.6853 13.0244 12.6695 13.0024 12.6495 12.9844C12.5015 12.8342 12.2333 12.8364 12.085 12.9844C12.011 13.0587 11.967 13.1624 11.967 13.2667C11.967 13.2927 11.9708 13.3207 11.975 13.3447C11.981 13.3704 11.989 13.3964 11.999 13.4204ZM14.4165 15.2174C14.4383 15.2314 14.4625 15.2454 14.4863 15.2554C14.5103 15.2654 14.5345 15.2714 14.5603 15.2774C14.5863 15.2834 14.6123 15.2854 14.6383 15.2854C14.7445 15.2854 14.8465 15.2434 14.9225 15.1674C14.9968 15.0932 15.0385 14.9914 15.0385 14.8852C15.0385 14.8592 15.0365 14.8332 15.0305 14.8072C15.0265 14.7812 15.0185 14.7572 15.0088 14.7312C14.9988 14.7072 14.9865 14.6852 14.9708 14.6632C14.9568 14.6412 14.9408 14.6212 14.9225 14.6032C14.8285 14.5092 14.6905 14.4672 14.5603 14.4932C14.5343 14.4972 14.5103 14.5052 14.4863 14.5152C14.4623 14.5252 14.4383 14.5372 14.4165 14.5532C14.3943 14.5672 14.3745 14.5832 14.3565 14.6032C14.3365 14.6214 14.3203 14.6412 14.3065 14.6632C14.2925 14.6852 14.2785 14.7072 14.2685 14.7312C14.2585 14.7572 14.2525 14.7812 14.2465 14.8072C14.2405 14.8332 14.2385 14.8592 14.2385 14.8852C14.2385 14.9914 14.2805 15.0932 14.3568 15.1674C14.3745 15.1874 14.3943 15.2034 14.4165 15.2174ZM16.5295 15.3374C16.5498 15.3514 16.5735 15.3634 16.5975 15.3734C16.6215 15.3834 16.6475 15.3914 16.6718 15.3974C16.6978 15.4014 16.7238 15.4034 16.752 15.4034C16.778 15.4034 16.804 15.4014 16.83 15.3974C16.854 15.3914 16.88 15.3834 16.904 15.3734C16.928 15.3634 16.9523 15.3514 16.972 15.3374C16.9943 15.3234 17.016 15.3054 17.0343 15.2874C17.1083 15.2134 17.1523 15.1094 17.1523 15.0032C17.1523 14.8992 17.1085 14.7952 17.0343 14.7209C17.016 14.7029 16.9943 14.6849 16.972 14.6709C16.952 14.6567 16.928 14.6449 16.904 14.6347C16.88 14.6247 16.854 14.6169 16.83 14.6107C16.778 14.6007 16.7238 14.6007 16.672 14.6107C16.648 14.6167 16.622 14.6247 16.5978 14.6347C16.5738 14.6449 16.55 14.6567 16.5298 14.6709C16.508 14.6849 16.486 14.7029 16.468 14.7209C16.394 14.7949 16.35 14.8992 16.35 15.0032C16.35 15.1094 16.394 15.2134 16.468 15.2874C16.4858 15.3054 16.5078 15.3234 16.5295 15.3374ZM15.8313 13.4964C15.9373 13.4964 16.0393 13.4544 16.1135 13.3804C16.1878 13.3064 16.2318 13.2022 16.2318 13.0962C16.2318 13.0702 16.2278 13.0442 16.2235 13.0182C16.2178 12.9922 16.2098 12.9682 16.1998 12.9442C16.1895 12.9202 16.1775 12.8962 16.1635 12.8742C16.1495 12.8519 16.1335 12.8322 16.1135 12.8142C15.9655 12.6662 15.6973 12.6662 15.5493 12.8142C15.473 12.8882 15.431 12.9922 15.431 13.0964C15.431 13.2024 15.473 13.3047 15.5493 13.3807C15.623 13.4544 15.7253 13.4964 15.8313 13.4964ZM23.1943 16.4562C22.5023 16.8257 21.763 17.0972 20.9968 17.2637L19.3395 17.6234V18.3897C19.3395 18.6107 19.1603 18.7899 18.9393 18.7899H7.05976C6.83876 18.7899 6.65951 18.6107 6.65951 18.3897V17.6249L5.10426 17.2964C4.41251 17.1502 3.74051 16.9177 3.10676 16.6054L2.81626 16.4622C2.64926 16.3799 2.56101 16.1934 2.60326 16.0122C2.64576 15.8312 2.80726 15.7029 2.99326 15.7029H6.78851L8.29951 10.6659C8.35051 10.4964 8.50601 10.3804 8.68301 10.3804H10.3495C9.88526 9.78518 9.81826 8.98993 10.2365 8.32218C10.6395 7.67868 11.0828 7.35368 11.592 7.32868C11.9463 7.31168 12.2758 7.44593 12.5728 7.61118C13.224 6.87893 14.3308 6.00943 15.7903 6.25118C15.7953 6.25193 15.7998 6.25418 15.8048 6.25493C15.819 6.25793 15.8325 6.26193 15.846 6.26618C15.8583 6.26993 15.8703 6.27393 15.8823 6.27918C15.8938 6.28418 15.9048 6.28993 15.9158 6.29593C15.9285 6.30293 15.9408 6.30993 15.9528 6.31843C15.957 6.32118 15.9615 6.32293 15.9655 6.32593C15.9713 6.33018 15.9755 6.33568 15.981 6.34018C15.992 6.34943 16.0025 6.35893 16.0123 6.36918C16.0213 6.37843 16.0295 6.38793 16.0375 6.39793C16.0455 6.40793 16.053 6.41818 16.0598 6.42868C16.067 6.43968 16.0735 6.45118 16.0798 6.46293C16.0855 6.47393 16.0908 6.48543 16.0955 6.49693C16.1003 6.50893 16.1045 6.52118 16.1083 6.53368C16.1118 6.54593 16.1148 6.55843 16.1173 6.57093C16.1198 6.58393 16.1215 6.59668 16.1225 6.60993C16.1238 6.62218 16.1243 6.63468 16.1243 6.64718C16.1243 6.66168 16.1233 6.67593 16.1215 6.69068C16.1208 6.69768 16.1215 6.70443 16.12 6.71143C16.1193 6.71618 16.1173 6.72043 16.1163 6.72518C16.1133 6.73993 16.109 6.75393 16.1048 6.76793C16.101 6.77943 16.0973 6.79093 16.0925 6.80218C16.0873 6.81443 16.081 6.82618 16.0748 6.83743C16.0683 6.84918 16.0615 6.86093 16.0538 6.87218C16.0508 6.87668 16.0488 6.88143 16.0458 6.88568L16.046 6.88543C16.0468 6.88543 16.0068 6.95168 15.963 7.08918C15.909 7.25968 15.7513 7.36868 15.5818 7.36868C15.5415 7.36868 15.501 7.36268 15.4605 7.34968C15.306 7.30068 15.203 7.16668 15.185 7.01543C14.3633 7.06368 13.6935 7.58543 13.2435 8.06918C13.4923 8.29043 13.6605 8.53118 13.7498 8.79893C13.9063 9.26843 13.8095 9.78768 13.4628 10.3417C13.4543 10.3552 13.4445 10.3672 13.4358 10.3804H17.3173C17.494 10.3804 17.6498 10.4962 17.7005 10.6654L18.0645 11.8762C18.0653 11.8787 18.0653 11.8809 18.066 11.8834L19.2118 15.7027H23.007C23.1908 15.7027 23.3508 15.8277 23.3953 16.0059C23.4385 16.1839 23.3563 16.3697 23.1943 16.4562ZM18.9393 16.8864H18.9603L20.7253 16.5034H19.0213H6.97751H5.22451C5.23976 16.5067 5.25476 16.5099 5.26976 16.5132L7.05976 16.8864H12.7485C12.9695 16.8864 13.1488 17.0657 13.1488 17.2867C13.1488 17.5077 12.9695 17.6869 12.7485 17.6869H7.46001V17.9892H18.5393V17.2864C18.5393 17.0657 18.7183 16.8864 18.9393 16.8864ZM7.62451 15.7027H10.3755C10.3745 15.6912 10.372 15.6799 10.372 15.6677C10.372 15.5637 10.416 15.4594 10.49 15.3854C10.582 15.2934 10.72 15.2494 10.85 15.2754C10.876 15.2814 10.902 15.2894 10.926 15.2994C10.95 15.3094 10.9723 15.3214 10.994 15.3354C11.016 15.3497 11.036 15.3677 11.0543 15.3854C11.1303 15.4594 11.1723 15.5637 11.1723 15.6677C11.1723 15.6799 11.1698 15.6909 11.1688 15.7027H18.3748L17.3768 12.3752L16.987 12.3532L16.2423 12.4522C16.2248 12.4547 16.207 12.4557 16.1895 12.4557C16.182 12.4557 16.1748 12.4557 16.1675 12.4552L14.323 12.3527L13.299 12.4537C13.2858 12.4549 13.2728 12.4557 13.2598 12.4557H10.9553C10.963 12.4869 10.9685 12.5189 10.9685 12.5517C10.9685 12.6579 10.9265 12.7599 10.8505 12.8339C10.8328 12.8539 10.8125 12.8702 10.7905 12.8839C10.7683 12.8982 10.7465 12.9119 10.7225 12.9219C10.6965 12.9319 10.6725 12.9379 10.6465 12.9439C10.6205 12.9499 10.5945 12.9519 10.5685 12.9519C10.5425 12.9519 10.5165 12.9499 10.4905 12.9439C10.4645 12.9379 10.4405 12.9319 10.4163 12.9219C10.3903 12.9119 10.368 12.8979 10.3463 12.8839C10.3243 12.8699 10.3043 12.8539 10.286 12.8339C10.21 12.7619 10.168 12.6579 10.168 12.5517C10.168 12.5192 10.1733 12.4872 10.181 12.4557H10.092C10.0763 12.4557 10.0603 12.4547 10.0445 12.4529L8.64926 12.2864L8.00251 14.4422C8.02101 14.4509 8.03901 14.4597 8.05651 14.4707C8.07876 14.4867 8.09851 14.5027 8.11651 14.5207C8.13651 14.5387 8.15276 14.5587 8.16651 14.5807C8.18251 14.6027 8.19451 14.6267 8.20451 14.6507C8.21451 14.6747 8.22226 14.7007 8.22626 14.7249C8.23226 14.7509 8.23426 14.7769 8.23426 14.8029C8.23426 14.8309 8.23226 14.8569 8.22626 14.8832C8.22226 14.9072 8.21426 14.9332 8.20451 14.9569C8.19451 14.9809 8.18226 15.0052 8.16651 15.0269C8.15251 15.0492 8.13651 15.0689 8.11651 15.0869C8.09851 15.1049 8.07851 15.1209 8.05651 15.1369C8.03451 15.1509 8.01276 15.1629 7.98851 15.1729C7.96451 15.1832 7.93851 15.1912 7.91251 15.1969C7.88651 15.2009 7.86026 15.2029 7.83426 15.2029C7.81476 15.2029 7.79501 15.2007 7.77551 15.1984L7.62451 15.7027ZM11.314 10.1864C11.5745 10.3497 11.8668 10.4119 12.1388 10.3627C12.4088 10.3132 12.6318 10.1592 12.7833 9.91668C12.7978 9.89368 12.8098 9.87143 12.823 9.84893C11.8788 9.72093 11.3888 9.14018 11.3678 9.11443C11.2275 8.94368 11.252 8.69143 11.4228 8.55118C11.5645 8.43468 11.761 8.43318 11.9045 8.53293C11.9068 8.52818 11.908 8.52318 11.9108 8.51868C11.9215 8.49893 11.9775 8.39993 12.075 8.25393C11.9273 8.18043 11.7813 8.12743 11.6533 8.12743C11.6458 8.12743 11.6383 8.12768 11.6308 8.12793C11.547 8.13193 11.2915 8.14443 10.9148 8.74668C10.6048 9.24243 10.7725 9.84768 11.314 10.1864ZM12.9893 9.05193C12.9493 8.93218 12.8663 8.81343 12.7433 8.69693C12.6588 8.82193 12.6133 8.90218 12.611 8.90643C12.598 8.92993 12.581 8.94918 12.564 8.96893C12.687 9.01293 12.8298 9.04768 12.9923 9.06418C12.991 9.06018 12.9905 9.05593 12.9893 9.05193ZM8.88276 11.5084L10.1155 11.6554H13.24L14.2753 11.5532C14.2958 11.5509 14.3165 11.5507 14.3365 11.5517L16.1743 11.6537L16.9193 11.5547C16.9443 11.5512 16.9695 11.5502 16.9945 11.5517L17.1325 11.5594L17.1328 11.5597L17.019 11.1809H8.98076L8.88276 11.5084ZM17.5003 16.8459H15.6608C15.4398 16.8459 15.2605 17.0252 15.2605 17.2462C15.2605 17.4672 15.4398 17.6464 15.6608 17.6464H17.5003C17.7213 17.6464 17.9005 17.4672 17.9005 17.2462C17.9005 17.0252 17.7213 16.8459 17.5003 16.8459Z" fill="#26A387"/>
</svg>
