<svg width="26" height="25" viewBox="0 0 26 25" fill="none" xmlns="http://www.w3.org/2000/svg">
<g clip-path="url(#clip0_990_5562)">
<path d="M8.83316 17.5377C8.60588 18.6741 8.7574 19.7347 9.24982 20.3786C9.43922 20.6059 9.62861 20.7574 9.89376 20.9089C10.4619 21.2119 11.1816 21.1362 11.8256 20.7953M9.06043 16.818C8.98467 17.0453 8.90891 17.3104 8.87103 17.5377C8.64376 18.6741 8.79528 19.7347 9.2877 20.3786C9.4771 20.6059 9.66649 20.7574 9.93164 20.9089C10.4998 21.2119 11.2195 21.1362 11.8635 20.7953M9.93164 11.9316C11.1059 11.6286 12.3559 12.1968 12.8104 13.371C12.8483 13.4468 12.8862 13.5604 12.8862 13.6362C12.9619 13.9013 12.9998 14.2044 12.9619 14.4695M16.0301 13.068C15.5756 12.7271 15.3483 12.0832 15.5756 11.515C15.8407 10.7953 16.6362 10.4544 17.3559 10.7195C18.0377 10.9847 18.4165 11.7801 18.1513 12.4619C18.0756 12.6135 17.9998 12.765 17.8862 12.8786M12.9998 0.681641C6.44679 0.681641 1.18164 5.94679 1.18164 12.4998C1.18164 19.0529 6.48467 24.318 12.9998 24.318C19.515 24.318 24.818 19.015 24.818 12.4998C24.818 5.98467 19.5529 0.681641 12.9998 0.681641Z" stroke="#26A387" stroke-miterlimit="10" stroke-linecap="round" stroke-linejoin="round"/>
<path d="M12.0913 1.85596C10.614 1.96959 9.13675 2.42414 7.84887 3.14384C6.56099 3.86353 5.38675 4.84838 4.51554 6.0605M2.65948 9.8105C2.58372 10.0757 2.50796 10.3787 2.47008 10.6817C2.4322 10.9847 2.35645 11.2499 2.35645 11.5529M6.59887 18.6363C6.06857 18.6741 5.57614 18.5984 5.15948 18.2953C4.02311 17.4241 4.17463 15.3029 5.50038 13.5605C5.80341 13.1438 6.14432 12.8029 6.52311 12.4999C6.59887 12.5757 6.59887 12.6893 6.59887 12.8029C6.52311 13.1438 6.59887 13.4847 6.82614 13.7878C6.93978 13.9393 7.09129 14.015 7.24281 14.0908C7.84887 13.1817 8.90948 12.3105 9.66705 12.0075C9.78069 11.9696 9.85645 11.9317 9.97008 11.9317" stroke="#26A387" stroke-miterlimit="10" stroke-linecap="round" stroke-linejoin="round"/>
<path d="M6.97747 15.9849C6.59868 16.9318 6.48504 17.8409 6.59868 18.6364C6.71232 19.4318 7.0911 20.0379 7.69716 20.3409C8.15171 20.5682 8.71989 20.5682 9.2502 20.3788M9.51535 16.8561C10.2729 16.8561 10.9926 16.7424 11.485 16.553C11.5229 16.5152 11.5987 16.5152 11.6366 16.4773C11.5608 16.6667 11.485 16.8561 11.4472 17.0455C11.2578 17.6894 11.2199 18.2955 11.2578 18.8637C11.2956 19.6212 11.5229 20.303 11.8638 20.7955" stroke="#26A387" stroke-miterlimit="10" stroke-linecap="round" stroke-linejoin="round"/>
<path d="M11.6361 16.4395C11.5604 16.6288 11.4846 16.8182 11.4467 17.0076C11.2573 17.6516 11.2195 18.2576 11.2573 18.8258C11.2952 19.5834 11.5225 20.2652 11.8634 20.7576C12.1286 21.1364 12.4695 21.4016 12.924 21.5152C13.8331 21.7804 14.8179 21.2501 15.5755 20.3031" stroke="#26A387" stroke-miterlimit="10" stroke-linecap="round" stroke-linejoin="round"/>
<path d="M19.4013 16.5533C19.4013 16.6669 19.4013 16.7427 19.4013 16.8563C19.4013 19.0533 18.2271 20.8336 16.7877 20.8336C16.3331 20.8336 15.8786 20.6442 15.5377 20.3411C14.9316 19.8108 14.4392 18.8639 14.2877 17.7654C14.2498 17.4624 14.2119 17.1593 14.2119 16.8563C14.2119 16.2881 14.2877 15.7199 14.4392 15.2275C14.4771 15.1517 14.4771 15.076 14.5149 14.9624M14.5149 4.39417C14.7422 3.93963 15.1589 3.59872 15.6892 3.48508C16.7119 3.21993 17.7725 3.82599 18.0377 4.84872C18.0755 4.92447 18.0756 5.03811 18.0756 5.11387M16.4846 6.06084C16.7119 5.64417 17.1286 5.30326 17.6589 5.18963C17.8104 5.15175 17.9619 5.11387 18.1134 5.11387C18.9846 5.11387 19.7422 5.68205 19.9695 6.55326C20.0831 6.96993 20.0452 7.34872 19.8937 7.7275" stroke="#26A387" stroke-miterlimit="10" stroke-linecap="round" stroke-linejoin="round"/>
<path d="M20.8411 10.5302C21.1062 10.1136 21.2199 9.58325 21.0684 9.01507C20.879 8.37113 20.4244 7.8787 19.8184 7.68931C19.4774 7.57567 19.0987 7.57567 18.7199 7.65143C18.1517 7.80295 17.6971 8.18173 17.4699 8.67416C17.4699 8.71204 17.432 8.74992 17.432 8.7878C17.432 8.7878 17.432 8.78779 17.432 8.82567C17.3562 9.05295 17.3184 9.28022 17.3184 9.50749H17.3562" stroke="#26A387" stroke-miterlimit="10" stroke-linecap="round" stroke-linejoin="round"/>
<path d="M18.7574 10.4169C18.9089 10.3411 19.0604 10.2654 19.2119 10.2275C19.818 10.076 20.4619 10.2275 20.9165 10.6063C21.2195 10.8714 21.4468 11.2123 21.5604 11.5911C21.8256 12.6139 21.2195 13.6745 20.1968 13.9396C19.6665 14.0911 19.0983 13.9775 18.6816 13.7123" stroke="#26A387" stroke-miterlimit="10" stroke-linecap="round" stroke-linejoin="round"/>
<path d="M16.2195 14.7726C16.1817 14.9241 16.1817 15.1135 16.1817 15.3029C16.1817 15.4165 16.2195 15.5302 16.2195 15.6438C16.2953 15.8711 16.3711 16.0984 16.5226 16.2499C16.9771 16.8938 17.7726 17.1968 18.568 17.0074C18.8711 16.9317 19.0983 16.7802 19.3256 16.6287C19.3635 16.5908 19.3635 16.5908 19.4014 16.5529C19.8938 16.0984 20.1211 15.3787 19.9317 14.659C19.8938 14.5453 19.8559 14.4317 19.818 14.3559C19.7423 14.2423 19.6665 14.0908 19.5908 13.9771M12.4695 15.7953C12.6589 15.8711 12.8862 15.8711 13.1135 15.8332C13.4923 15.7574 13.7574 15.4923 13.8711 15.1514C13.9468 14.962 14.1741 14.8484 14.3635 14.9241C14.4392 14.9241 14.4771 14.962 14.5529 14.962C14.818 14.9999 15.1211 14.9241 15.3862 14.7347C15.5377 14.6211 15.6514 14.4317 15.7271 14.2802V14.2423M7.24228 14.0908C7.09076 14.015 6.93925 13.9393 6.82561 13.7877C6.59834 13.4847 6.52258 13.1438 6.59834 12.8029C6.63622 12.6893 6.59834 12.5756 6.52258 12.4999C6.4847 12.4241 6.40894 12.3862 6.33319 12.3484C5.99228 12.2347 5.72712 11.9696 5.65137 11.6287C5.53773 11.2877 5.61349 10.909 5.80288 10.6438C5.91652 10.4923 5.87864 10.2271 5.765 10.1135C5.49985 9.88623 5.38622 9.54532 5.42409 9.16653C5.46197 8.78775 5.68925 8.48472 5.9544 8.3332C6.14379 8.21956 6.18167 7.99229 6.10591 7.84078C5.9544 7.53775 5.9544 7.15896 6.14379 6.81805C6.33319 6.51502 6.63622 6.28775 6.97712 6.24987C7.16652 6.21199 7.31803 6.06047 7.31803 5.8332C7.31803 5.49229 7.46955 5.15138 7.7347 4.92411C8.03773 4.69684 8.37864 4.62108 8.71955 4.73472C8.90894 4.77259 9.13622 4.69684 9.21197 4.50744C9.32561 4.20441 9.62864 3.93926 9.96955 3.82562C10.2347 3.74987 10.4999 3.78775 10.7271 3.90138C10.8786 3.97714 11.068 3.93926 11.1817 3.8635C11.3711 3.71199 11.6362 3.63623 11.9014 3.63623C12.2423 3.67411 12.5453 3.82562 12.7347 4.09078C12.8483 4.28017 13.1514 4.31805 13.3408 4.24229C13.6438 4.12865 13.9847 4.12865 14.2877 4.28017C14.3256 4.31805 14.4014 4.35593 14.4392 4.39381C14.6665 4.5832 14.818 4.81047 14.8938 5.1135C14.9317 5.3029 15.1211 5.45441 15.3105 5.45441C15.6514 5.41653 15.9923 5.56805 16.2195 5.87108C16.2953 5.94684 16.3332 6.02259 16.3711 6.09835C16.4847 6.32562 16.5226 6.59078 16.4468 6.85593C16.4089 7.00744 16.4468 7.12108 16.5605 7.23472C16.5983 7.27259 16.6362 7.31047 16.712 7.31047C17.015 7.42411 17.2802 7.68926 17.3938 8.03017C17.4695 8.3332 17.4695 8.59835 17.318 8.82562M17.4317 9.5832C17.3938 9.54532 17.4317 9.54532 17.4317 9.5832Z" stroke="#26A387" stroke-miterlimit="10" stroke-linecap="round" stroke-linejoin="round"/>
<path d="M17.432 9.58316C17.5456 9.62104 17.6593 9.65892 17.735 9.6968C18.1517 9.84831 18.4926 10.1135 18.7578 10.4165C19.0229 10.7195 19.1744 11.0983 19.2881 11.4771C19.4017 11.9316 19.3638 12.4241 19.1744 12.9165C19.0608 13.2195 18.8714 13.4847 18.682 13.712C18.0002 14.4316 16.9396 14.6968 15.9926 14.318C15.9169 14.2801 15.8411 14.2423 15.7653 14.2044C14.4775 13.5983 12.6214 11.7423 13.076 10.5301C13.4926 9.35589 15.9926 9.20437 17.432 9.58316Z" stroke="#26A387" stroke-miterlimit="10" stroke-linecap="round" stroke-linejoin="round"/>
<path d="M17.8482 12.8789C17.7725 12.9547 17.7346 12.9925 17.6588 13.0683C17.4315 13.2198 17.1664 13.3335 16.8634 13.3335C16.7118 13.3335 16.5982 13.3335 16.4467 13.2956C16.4088 13.2956 16.3709 13.2577 16.3331 13.2577C16.2194 13.2198 16.1058 13.1441 15.9922 13.0683M7.24215 14.091C6.86336 14.6592 6.67397 15.3031 6.86336 15.7577C6.90124 15.8335 6.93912 15.9092 6.977 15.9471C7.35579 16.4774 8.15124 16.7047 9.06033 16.7804C9.21185 16.7804 9.36336 16.7804 9.51488 16.7804C10.2725 16.7804 10.9922 16.6668 11.4846 16.4774C11.5225 16.4395 11.5982 16.4395 11.6361 16.4016C11.9391 16.2501 12.1664 16.0607 12.3558 15.8335C12.3937 15.7956 12.4315 15.7577 12.4694 15.7198C12.7725 15.341 12.9618 14.8865 12.9997 14.3941" stroke="#26A387" stroke-miterlimit="10" stroke-linecap="round" stroke-linejoin="round"/>
<path d="M12.0908 7.42446C11.9393 6.89416 12.2423 6.36386 12.7726 6.21234C13.3029 6.06083 13.8332 6.36386 13.9847 6.89416M8.98473 10.5305C8.45442 10.4926 8.03776 10.0381 8.07563 9.46992C8.11351 8.93962 8.56806 8.52295 9.13624 8.56083M9.7423 13.1063C9.78018 13.1063 9.78018 13.0684 9.81806 13.0684C10.4241 12.8411 11.1059 13.0684 11.4468 13.5608C11.4847 13.6366 11.5226 13.7123 11.5605 13.7502C11.5605 13.7502 11.5605 13.7502 11.5605 13.7881C11.8256 14.4699 11.5226 15.2654 10.8408 15.5305C10.6135 15.6063 10.3862 15.6442 10.159 15.6063C10.159 15.6063 10.1211 15.6063 10.0832 15.6063C9.89382 15.5684 9.7423 15.4926 9.59079 15.379C9.59079 15.379 9.55291 15.379 9.55291 15.3411C9.36351 15.1896 9.212 15.0002 9.09836 14.7729C8.79533 14.1669 9.09836 13.4093 9.7423 13.1063Z" stroke="#26A387" stroke-miterlimit="10" stroke-linecap="round" stroke-linejoin="round"/>
<path d="M10.1972 7.95474C10.0457 7.42443 10.3487 6.89413 10.879 6.74262C11.4093 6.5911 11.9396 6.89413 12.0911 7.42443" stroke="#26A387" stroke-miterlimit="10" stroke-linecap="round" stroke-linejoin="round"/>
</g>
<defs>
<clipPath id="clip0_990_5562">
<rect width="25" height="25" fill="white" transform="translate(0.5)"/>
</clipPath>
</defs>
</svg>
