<svg width="26" height="25" viewBox="0 0 26 25" fill="none" xmlns="http://www.w3.org/2000/svg">
<path d="M8.72695 10.4905C7.08386 10.4905 5.74707 9.15373 5.74707 7.51064C5.74707 5.86755 7.08386 4.53076 8.72695 4.53076C10.37 4.53076 11.7068 5.86755 11.7068 7.51064C11.7068 9.15373 10.3701 10.4905 8.72695 10.4905ZM8.72695 5.03889C7.36404 5.03889 6.2552 6.14773 6.2552 7.51064C6.2552 8.87355 7.36399 9.98239 8.72695 9.98239C10.0899 9.98239 11.1987 8.87355 11.1987 7.51064C11.1987 6.14773 10.0899 5.03889 8.72695 5.03889ZM16.7049 10.4905C16.5646 10.4905 16.4509 10.3767 16.4509 10.2365C16.4509 10.0962 16.5646 9.98239 16.7049 9.98239C18.0679 9.98239 19.1767 8.87355 19.1767 7.51064C19.1767 6.14773 18.0679 5.03889 16.7049 5.03889C16.5646 5.03889 16.4509 4.92512 16.4509 4.78483C16.4509 4.64453 16.5646 4.53076 16.7049 4.53076C18.3481 4.53076 19.6849 5.86755 19.6849 7.51064C19.6849 9.15373 18.3481 10.4905 16.7049 10.4905Z" fill="#26A387"/>
<path d="M16.7057 5.03889H8.7277C8.5874 5.03889 8.47363 4.92512 8.47363 4.78483C8.47363 4.64453 8.5874 4.53076 8.7277 4.53076H16.7057C16.846 4.53076 16.9598 4.64453 16.9598 4.78483C16.9598 4.92512 16.846 5.03889 16.7057 5.03889ZM16.7057 10.4905H8.7277C8.5874 10.4905 8.47363 10.3767 8.47363 10.2365C8.47363 10.0962 8.5874 9.98239 8.7277 9.98239H16.7057C16.846 9.98239 16.9598 10.0962 16.9598 10.2365C16.9598 10.3767 16.846 10.4905 16.7057 10.4905Z" fill="#26A387"/>
<path d="M15.642 15.9422C13.9988 15.9422 12.6621 14.6054 12.6621 12.9623C12.6621 11.3192 13.9988 9.98242 15.642 9.98242C17.2851 9.98242 18.6219 11.3192 18.6219 12.9623C18.6219 14.6054 17.2851 15.9422 15.642 15.9422ZM15.642 10.4906C14.2791 10.4906 13.1702 11.5994 13.1702 12.9624C13.1702 14.3253 14.279 15.4341 15.642 15.4341C17.0049 15.4341 18.1138 14.3253 18.1138 12.9624C18.1138 11.5994 17.0049 10.4906 15.642 10.4906ZM21.2634 15.9422C21.1231 15.9422 21.0094 15.8285 21.0094 15.6881C21.0094 15.5478 21.1231 15.434 21.2634 15.434C22.6263 15.434 23.7352 14.3253 23.7352 12.9623C23.7352 11.5993 22.6264 10.4906 21.2634 10.4906C21.1231 10.4906 21.0094 10.3768 21.0094 10.2365C21.0094 10.0962 21.1231 9.98242 21.2634 9.98242C22.9065 9.98242 24.2433 11.3192 24.2433 12.9623C24.2433 14.6054 22.9065 15.9422 21.2634 15.9422Z" fill="#26A387"/>
<path d="M21.2627 10.4906H15.6412C15.5009 10.4906 15.3872 10.3768 15.3872 10.2365C15.3872 10.0962 15.5009 9.98247 15.6412 9.98247H21.2627C21.403 9.98247 21.5167 10.0962 21.5167 10.2365C21.5167 10.3768 21.403 10.4906 21.2627 10.4906ZM21.2627 15.9422H15.6412C15.5009 15.9422 15.3872 15.8285 15.3872 15.6881C15.3872 15.5478 15.5009 15.434 15.6412 15.434H21.2627C21.403 15.434 21.5167 15.5478 21.5167 15.6881C21.5167 15.8285 21.403 15.9422 21.2627 15.9422ZM4.76308 15.9422C3.11999 15.9422 1.7832 14.6054 1.7832 12.9623C1.7832 11.3192 3.11999 9.98242 4.76308 9.98242C6.40617 9.98242 7.74296 11.3192 7.74296 12.9623C7.74296 14.6054 6.40617 15.9422 4.76308 15.9422ZM4.76308 10.4906C3.40017 10.4906 2.29133 11.5994 2.29133 12.9624C2.29133 14.3253 3.40017 15.4341 4.76308 15.4341C6.12599 15.4341 7.23483 14.3253 7.23483 12.9624C7.23483 11.5994 6.12604 10.4906 4.76308 10.4906Z" fill="#26A387"/>
<path d="M12.7418 10.4906H4.76383C4.62354 10.4906 4.50977 10.3768 4.50977 10.2365C4.50977 10.0962 4.62354 9.98242 4.76383 9.98242H12.7418C12.8821 9.98242 12.9959 10.0962 12.9959 10.2365C12.9959 10.3768 12.8821 10.4906 12.7418 10.4906ZM15.642 15.9421H4.76383C4.62354 15.9421 4.50977 15.8284 4.50977 15.6881C4.50977 15.5477 4.62354 15.434 4.76383 15.434H15.642C15.7823 15.434 15.896 15.5477 15.896 15.6881C15.896 15.8284 15.7823 15.9421 15.642 15.9421ZM19.6771 15.9421C19.5368 15.9421 19.4231 15.8284 19.4231 15.6881C19.4231 15.5477 19.5368 15.434 19.6771 15.434C20.8986 15.434 21.8924 14.4402 21.8924 13.2188C21.8924 13.0784 22.0061 12.9647 22.1465 12.9647C22.2868 12.9647 22.4005 13.0784 22.4005 13.2188C22.4005 14.7204 21.1788 15.9421 19.6771 15.9421Z" fill="#26A387"/>
<path d="M12.7158 10.4904C12.5756 10.4904 12.4618 10.3766 12.4618 10.2363C12.4618 10.096 12.5756 9.98226 12.7158 9.98226C14.0788 9.98226 15.1876 8.87342 15.1876 7.51051C15.1876 7.37021 15.3013 7.25644 15.4417 7.25644C15.582 7.25644 15.6957 7.37021 15.6957 7.51051C15.6957 9.1536 14.3589 10.4904 12.7158 10.4904ZM8.36361 15.942C8.22332 15.942 8.10955 15.8282 8.10955 15.6879C8.10955 15.5476 8.22332 15.4338 8.36361 15.4338C9.72652 15.4338 10.8354 14.325 10.8354 12.9621C10.8354 12.8217 10.9491 12.708 11.0894 12.708C11.2297 12.708 11.3435 12.8217 11.3435 12.9621C11.3435 14.6052 10.0068 15.942 8.36361 15.942ZM17.4071 15.942C17.2668 15.942 17.153 15.8282 17.153 15.6879C17.153 15.5476 17.2668 15.4338 17.4071 15.4338C19.0794 15.4338 20.44 14.0733 20.44 12.401C20.44 12.2607 20.5537 12.1469 20.694 12.1469C20.8344 12.1469 20.9481 12.2607 20.9481 12.401C20.9481 14.3534 19.3596 15.942 17.4071 15.942ZM8.72682 9.0508C7.87748 9.0508 7.18653 8.35985 7.18653 7.51051C7.18653 6.66117 7.87753 5.97021 8.72682 5.97021C9.57611 5.97021 10.2671 6.66122 10.2671 7.51051C10.2671 7.6508 10.1533 7.76457 10.0131 7.76457C9.87276 7.76457 9.75899 7.6508 9.75899 7.51051C9.75899 6.94135 9.29593 6.47834 8.72682 6.47834C8.15772 6.47834 7.69466 6.94135 7.69466 7.51051C7.69466 8.07967 8.15772 8.54267 8.72682 8.54267C8.86712 8.54267 8.98089 8.65644 8.98089 8.79674C8.98089 8.93703 8.86712 9.0508 8.72682 9.0508ZM15.6411 14.5024C14.7918 14.5024 14.1008 13.8114 14.1008 12.9621C14.1008 12.1128 14.7918 11.4218 15.6411 11.4218C16.4904 11.4218 17.1814 12.1128 17.1814 12.9621C17.1814 13.1025 17.0677 13.2162 16.9273 13.2162C16.787 13.2162 16.6733 13.1025 16.6733 12.9621C16.6733 12.393 16.2103 11.93 15.6411 11.93C15.0719 11.93 14.6089 12.393 14.6089 12.9621C14.6089 13.5313 15.0719 13.9943 15.6411 13.9943C15.7814 13.9943 15.8952 14.108 15.8952 14.2484C15.8952 14.3887 15.7814 14.5024 15.6411 14.5024ZM4.76295 14.5024C3.91361 14.5024 3.22266 13.8114 3.22266 12.9621C3.22266 12.1128 3.91366 11.4218 4.76295 11.4218C5.61224 11.4218 6.30325 12.1128 6.30325 12.9621C6.30325 13.1025 6.18948 13.2162 6.04918 13.2162C5.90889 13.2162 5.79512 13.1025 5.79512 12.9621C5.79512 12.393 5.33211 11.93 4.76295 11.93C4.19379 11.93 3.73079 12.393 3.73079 12.9621C3.73079 13.5313 4.19385 13.9943 4.76295 13.9943C4.90325 13.9943 5.01702 14.108 5.01702 14.2484C5.01702 14.3887 4.9033 14.5024 4.76295 14.5024Z" fill="#26A387"/>
<path d="M21.6385 18.7035H4.38732C2.95144 18.7035 1.7832 17.5354 1.7832 16.0994V15.6881C1.7832 15.5478 1.89697 15.4341 2.03727 15.4341H23.9885C24.1288 15.4341 24.2426 15.5478 24.2426 15.6881V16.0994C24.2426 17.5354 23.0744 18.7035 21.6385 18.7035ZM2.29133 15.9422V16.0994C2.29133 17.2552 3.23158 18.1954 4.38732 18.1954H21.6385C22.7942 18.1954 23.7344 17.2552 23.7344 16.0994V15.9422H2.29133Z" fill="#26A387"/>
<path d="M20.1565 20.5444H5.87028C5.72998 20.5444 5.61621 20.4307 5.61621 20.2904V18.4494C5.61621 18.309 5.72998 18.1953 5.87028 18.1953C6.01057 18.1953 6.12434 18.309 6.12434 18.4494V20.0363H19.9024V18.4494C19.9024 18.309 20.0162 18.1953 20.1565 18.1953C20.2969 18.1953 20.4106 18.309 20.4106 18.4494V20.2904C20.4106 20.4307 20.2969 20.5444 20.1565 20.5444Z" fill="#26A387"/>
</svg>
