<svg width="35" height="35" viewBox="0 0 35 35" fill="none" xmlns="http://www.w3.org/2000/svg">
<path fill-rule="evenodd" clip-rule="evenodd" d="M15.8375 4.11211V4.37461H15.3125C14.7927 4.37461 14.7875 4.37715 14.7875 4.62582C14.7875 4.86758 14.768 4.87922 14.2684 4.93575L13.7491 4.99446L13.6895 5.47203C13.6328 5.92633 13.6175 5.94961 13.3774 5.94961C13.1473 5.94961 13.125 5.97665 13.125 6.25586C13.125 6.53673 13.1036 6.56211 12.8667 6.56211C12.6109 6.56211 12.6081 6.56753 12.5823 7.10898C12.5573 7.63311 12.5463 7.657 12.3156 7.68351L12.075 7.71125V9.06163V10.4121H12.3375H12.6V10.9809V11.5496H12.8625H13.125V12.0746V12.5996H13.3875H13.65V13.1246C13.65 13.645 13.6523 13.6496 13.9024 13.6496C14.1426 13.6496 14.1578 13.6727 14.2148 14.1294C14.2477 14.3932 14.25 14.6491 14.2197 14.6981C14.1575 14.7987 13.6089 14.8141 13.0107 14.7321C12.6598 14.684 12.6061 14.6483 12.5828 14.4477C12.5581 14.2338 12.5226 14.2166 12.0585 14.1923C11.5904 14.1678 11.5592 14.1521 11.5335 13.9298C11.5075 13.7043 11.481 13.6921 10.9594 13.6673C10.4179 13.6416 10.4125 13.6387 10.4125 13.3829V13.1246H9.84375H9.275V12.8621V12.5996H8.75H8.225V11.5059V10.4121H7.96801C7.74209 10.4121 7.70779 10.3778 7.68364 10.1277C7.66097 9.89253 7.61556 9.83863 7.42096 9.81615C7.23905 9.79515 7.17946 9.73556 7.15846 9.55365C7.13256 9.32956 7.10535 9.31713 6.58437 9.29228C6.04292 9.26656 6.0375 9.26367 6.0375 9.00791V8.74961H4.1125H2.1875V9.01211V9.27461H1.61875H1.05V9.53711C1.05 9.77047 1.02086 9.79961 0.7875 9.79961C0.545825 9.79961 0.525 9.82393 0.525 10.1059C0.525 10.3878 0.504175 10.4121 0.2625 10.4121H0V11.2434V12.0746H0.2625C0.495862 12.0746 0.525 12.1037 0.525 12.3371C0.525 12.5788 0.549325 12.5996 0.83125 12.5996C1.11317 12.5996 1.1375 12.6204 1.1375 12.8621V13.1246H1.925H2.7125V13.3871V13.6496H4.1125H5.5125V13.3871V13.1246H6.3H7.0875V13.3871V13.6496H7.65625H8.225V13.9051C8.225 14.1551 8.23751 14.162 8.79375 14.2216C9.30737 14.2766 9.3625 14.3016 9.3625 14.4796C9.3625 14.7028 9.65956 14.7844 10.4781 14.7861C10.93 14.7871 10.9375 14.7914 10.9375 15.0496V15.3121H11.4625H11.9875V15.8371V16.3621H11.725H11.4625V17.4996V18.6371H11.725C11.9584 18.6371 11.9875 18.6662 11.9875 18.8996C11.9875 19.133 12.0166 19.1621 12.25 19.1621C12.4834 19.1621 12.5125 19.1912 12.5125 19.4246C12.5125 19.6663 12.5368 19.6871 12.8187 19.6871C13.0996 19.6871 13.125 19.7085 13.125 19.9454C13.125 20.2012 13.1304 20.2041 13.6719 20.2298C14.1908 20.2545 14.2201 20.2678 14.2456 20.488L14.2725 20.72L15.3831 20.7849C15.9939 20.8206 17.5085 20.8264 18.7488 20.7977C19.989 20.7692 21.1999 20.769 21.4394 20.7974C21.8483 20.8458 21.875 20.8643 21.875 21.0993C21.875 21.3191 21.907 21.3496 22.1375 21.3496C22.3709 21.3496 22.4 21.3787 22.4 21.6121V21.8746H22.925H23.45V22.1371C23.45 22.3788 23.4743 22.3996 23.7563 22.3996C24.0359 22.3996 24.0625 22.4217 24.0625 22.6535C24.0625 22.8987 24.0804 22.9095 24.5875 22.9684L25.1125 23.0293V23.5457C25.1125 24.0611 25.112 24.0621 24.85 24.0621H24.5875V24.7499C24.5875 25.1282 24.6125 25.6204 24.6431 25.8436C24.6946 26.2192 24.7176 26.2496 24.9494 26.2496C25.1695 26.2496 25.2 26.2815 25.2 26.5121V26.7746H25.725C26.2445 26.7746 26.25 26.7772 26.25 27.0252C26.25 27.257 26.2805 27.28 26.656 27.3315C26.8792 27.3621 27.3714 27.3871 27.7498 27.3871C28.425 27.3871 28.4375 27.391 28.4375 27.6059C28.4375 27.8149 28.4609 27.8246 28.9625 27.8246C29.4641 27.8246 29.4875 27.8149 29.4875 27.6059C29.4875 27.3914 29.5008 27.3871 30.1656 27.3863C30.5385 27.386 31.0505 27.3608 31.3031 27.3304C31.7089 27.2817 31.7625 27.2517 31.7625 27.073C31.7625 26.8908 31.8144 26.8649 32.2875 26.8114C32.7934 26.7541 32.8125 26.7429 32.8125 26.5008C32.8125 26.2801 32.8443 26.2496 33.075 26.2496H33.3375V25.1559V24.0621H33.075C32.8416 24.0621 32.8125 24.033 32.8125 23.7996C32.8125 23.5662 32.7834 23.5371 32.55 23.5371C32.3183 23.5371 32.2875 23.5072 32.2875 23.2816C32.2875 23.0316 32.275 23.0247 31.7188 22.9651C31.2009 22.9096 31.15 22.8862 31.15 22.7026C31.15 22.5197 31.0996 22.4959 30.6031 22.4452C30.3024 22.4145 29.4459 22.4015 28.7 22.4164L27.3438 22.4434L27.3161 22.684C27.2946 22.8709 27.2422 22.9246 27.0812 22.9246C26.9203 22.9246 26.8679 22.8709 26.8464 22.684C26.8199 22.4533 26.796 22.4423 26.2719 22.4173C25.7304 22.3916 25.725 22.3887 25.725 22.1329C25.725 21.896 25.6996 21.8746 25.4187 21.8746C25.1391 21.8746 25.1125 21.8526 25.1125 21.6207C25.1125 21.3755 25.0946 21.3647 24.5875 21.3059C24.0804 21.247 24.0625 21.2362 24.0625 20.991C24.0625 20.7685 24.0307 20.7371 23.8058 20.7371C23.5909 20.7371 23.5446 20.698 23.5214 20.4965C23.4948 20.2653 23.472 20.2548 22.9356 20.2295L22.3774 20.2032L22.4325 19.8016C22.4627 19.5809 22.4875 19.3466 22.4875 19.2811C22.4875 19.2073 22.587 19.1621 22.75 19.1621C22.9834 19.1621 23.0125 19.133 23.0125 18.8996C23.0125 18.6662 23.0416 18.6371 23.275 18.6371H23.5375V17.4996V16.3621H23.275C23.0416 16.3621 23.0125 16.333 23.0125 16.0996C23.0125 15.869 22.982 15.8371 22.7619 15.8371C22.5301 15.8371 22.5071 15.8067 22.4556 15.4311C22.3715 14.8169 22.3772 14.8004 22.6844 14.7707C22.9186 14.7482 22.9735 14.7024 22.9957 14.5108C23.0205 14.2961 23.0627 14.2735 23.5426 14.2177C24.0441 14.1596 24.0625 14.1484 24.0625 13.9035C24.0625 13.6797 24.0936 13.6496 24.325 13.6496C24.5584 13.6496 24.5875 13.6205 24.5875 13.3871C24.5875 13.1454 24.6118 13.1246 24.8937 13.1246C25.1757 13.1246 25.2 13.1038 25.2 12.8621V12.5996H25.725C26.2475 12.5996 26.25 12.5984 26.25 12.3426C26.25 12.1167 26.2843 12.0824 26.5344 12.0582C26.7701 12.0356 26.8234 11.9903 26.8461 11.794C26.8714 11.5739 26.9104 11.5528 27.3929 11.4982C27.8931 11.4417 27.9125 11.4301 27.9125 11.1883C27.9125 10.9676 27.9443 10.9371 28.175 10.9371C28.4057 10.9371 28.4375 10.9067 28.4375 10.6859C28.4375 10.4438 28.4566 10.4326 28.9625 10.3754C29.4452 10.3207 29.4875 10.2986 29.4875 10.1015C29.4875 9.89595 29.511 9.88711 30.0562 9.88711C30.6046 9.88711 30.625 9.89498 30.625 10.1059C30.625 10.3229 30.6309 10.3246 31.4125 10.3246C32.1941 10.3246 32.2 10.3229 32.2 10.1059C32.2 9.90251 32.23 9.88711 32.6252 9.88711C32.8592 9.88711 33.2311 9.86235 33.4518 9.83207C33.8027 9.78403 33.8564 9.74833 33.8797 9.5477C33.9014 9.35966 33.9575 9.31346 34.1906 9.29097C34.4407 9.26682 34.475 9.23252 34.475 9.0066C34.475 8.77936 34.5055 8.74961 34.7375 8.74961H35V7.91836V7.08711H34.7375C34.5041 7.08711 34.475 7.05797 34.475 6.82461C34.475 6.58293 34.4507 6.56211 34.1688 6.56211C33.8868 6.56211 33.8625 6.54128 33.8625 6.29961C33.8625 6.04805 33.8466 6.03711 33.481 6.03711C33.2711 6.03711 32.9167 6.01208 32.6935 5.98146C32.3407 5.93307 32.2875 5.89868 32.2875 5.71896C32.2875 5.51255 32.285 5.51211 31.1995 5.51211H30.1116L30.0839 5.75273L30.0562 5.99336L29.2469 6.01856L28.4375 6.04367V6.30293C28.4375 6.53131 28.407 6.56211 28.1805 6.56211C27.9546 6.56211 27.9203 6.59641 27.8961 6.84648C27.8733 7.08343 27.8286 7.1355 27.6281 7.15851L27.3875 7.18625V7.96788V8.74961H27.6619H27.9363L27.8806 9.15561C27.85 9.37882 27.825 9.61122 27.825 9.67195C27.825 9.74186 27.6322 9.80477 27.3 9.84336C26.7929 9.90225 26.775 9.91301 26.775 10.1582C26.775 10.382 26.7438 10.4121 26.5125 10.4121C26.2791 10.4121 26.25 10.4412 26.25 10.6746V10.9371H25.725H25.2V11.1996C25.2 11.4413 25.1757 11.4621 24.8937 11.4621C24.6141 11.4621 24.5875 11.4842 24.5875 11.716C24.5875 11.9612 24.5696 11.972 24.0625 12.0309C23.5554 12.0897 23.5375 12.1005 23.5375 12.3457C23.5375 12.5776 23.5109 12.5996 23.2312 12.5996C22.9493 12.5996 22.925 12.6204 22.925 12.8621C22.925 13.0955 22.8959 13.1246 22.6625 13.1246C22.4291 13.1246 22.4 13.1537 22.4 13.3871V13.6496H21.875H21.35V13.1246V12.5996H21.6125C21.8542 12.5996 21.875 12.5753 21.875 12.2934C21.875 12.0114 21.8958 11.9871 22.1375 11.9871C22.3891 11.9871 22.4 11.9712 22.4 11.6056C22.4 11.3957 22.425 11.0413 22.4556 10.8181C22.504 10.4653 22.5384 10.4121 22.7181 10.4121H22.925V9.06163V7.71125L22.6844 7.68351C22.4537 7.657 22.4427 7.63311 22.4177 7.10898C22.3919 6.56753 22.3891 6.56211 22.1333 6.56211C21.8964 6.56211 21.875 6.53673 21.875 6.25586C21.875 5.97665 21.8527 5.94961 21.6226 5.94961C21.3825 5.94961 21.3672 5.92633 21.3105 5.47203L21.2509 4.99446L20.7316 4.93575C20.232 4.87922 20.2125 4.86758 20.2125 4.62582C20.2125 4.37715 20.2073 4.37461 19.6875 4.37461H19.1625V4.11211V3.84961H17.5H15.8375V4.11211ZM15.8594 5.48936C15.3191 5.52007 15.3125 5.52357 15.3125 5.77881C15.3125 6.00745 15.2824 6.03711 15.05 6.03711C14.8166 6.03711 14.7875 6.06625 14.7875 6.29961C14.7875 6.53096 14.7574 6.56211 14.5336 6.56211C14.2887 6.56211 14.2775 6.58048 14.2194 7.08203C14.1636 7.56188 14.1411 7.60415 13.9263 7.62891L13.6937 7.65586L13.6665 8.74961C13.6516 9.35117 13.6645 10.0895 13.6954 10.3902C13.7464 10.8879 13.7697 10.9371 13.9546 10.9371C14.1379 10.9371 14.1638 10.9886 14.2188 11.4621C14.2776 11.9692 14.2884 11.9871 14.5336 11.9871C14.7655 11.9871 14.7875 12.0137 14.7875 12.2934C14.7875 12.5753 14.8083 12.5996 15.05 12.5996H15.3125V13.1246V13.6496H15.575C15.807 13.6496 15.8375 13.6794 15.8375 13.9066C15.8375 14.1325 15.8718 14.1668 16.1219 14.191C16.372 14.215 16.4096 14.2527 16.4336 14.5027C16.4578 14.7528 16.4921 14.7871 16.718 14.7871C16.9452 14.7871 16.975 14.8176 16.975 15.0496V15.3121H17.5H18.025V15.0496C18.025 14.8176 18.0547 14.7871 18.282 14.7871C18.5079 14.7871 18.5422 14.7528 18.5664 14.5027C18.5904 14.2527 18.628 14.215 18.8781 14.191C19.1282 14.1668 19.1625 14.1325 19.1625 13.9066C19.1625 13.6794 19.1929 13.6496 19.425 13.6496H19.6875V13.1246V12.5996H19.95C20.1917 12.5996 20.2125 12.5753 20.2125 12.2934C20.2125 12.0137 20.2345 11.9871 20.4664 11.9871C20.7116 11.9871 20.7224 11.9692 20.7812 11.4621C20.8362 10.9886 20.8621 10.9371 21.0454 10.9371C21.2303 10.9371 21.2536 10.8879 21.3046 10.3902C21.3355 10.0895 21.3484 9.35117 21.3335 8.74961L21.3062 7.65586L21.0737 7.62891C20.8589 7.60415 20.8364 7.56188 20.7806 7.08203C20.7225 6.58048 20.7113 6.56211 20.4664 6.56211C20.2426 6.56211 20.2125 6.53096 20.2125 6.29961C20.2125 6.06625 20.1834 6.03711 19.95 6.03711C19.7197 6.03711 19.6875 6.00648 19.6875 5.78773V5.53827L18.8865 5.48148C18.0975 5.42548 16.9312 5.42855 15.8594 5.48936ZM16.975 6.82041C16.975 7.07617 16.9696 7.07906 16.4281 7.10478C15.8812 7.13086 15.8812 7.13086 15.8539 7.41523C15.8297 7.66531 15.7954 7.69961 15.5695 7.69961H15.3125V9.05586V10.4121H15.575C15.8084 10.4121 15.8375 10.4412 15.8375 10.6746C15.8375 10.908 15.8666 10.9371 16.1 10.9371C16.3334 10.9371 16.3625 10.9662 16.3625 11.1996V11.4621H17.5H18.6375V11.1996C18.6375 10.9662 18.6666 10.9371 18.9 10.9371C19.1334 10.9371 19.1625 10.908 19.1625 10.6746C19.1625 10.4412 19.1916 10.4121 19.425 10.4121H19.6875V9.05586V7.69961H19.4305C19.2046 7.69961 19.1703 7.66531 19.1461 7.41523C19.1187 7.13086 19.1187 7.13086 18.5719 7.10478C18.0304 7.07906 18.025 7.07617 18.025 6.82041C18.025 6.56307 18.0231 6.56211 17.5 6.56211C16.9769 6.56211 16.975 6.56307 16.975 6.82041ZM29.8594 7.15037C29.6284 7.17907 29.575 7.22466 29.575 7.39336C29.575 7.56372 29.5239 7.60598 29.2906 7.62847C29.0406 7.65253 29.0029 7.69016 28.9789 7.94023C28.9525 8.21297 28.9642 8.22461 29.2632 8.22461C29.5513 8.22461 29.575 8.24456 29.575 8.48711V8.74961H31.1938H32.8125V8.48711C32.8125 8.25375 32.8416 8.22461 33.075 8.22461C33.3167 8.22461 33.3375 8.20028 33.3375 7.91836C33.3375 7.63643 33.3167 7.61211 33.075 7.61211C32.8416 7.61211 32.8125 7.58297 32.8125 7.34961V7.08711L31.4781 7.10111C30.7443 7.10881 30.0158 7.13103 29.8594 7.15037ZM16.975 8.48711C16.975 8.72047 16.9459 8.74961 16.7125 8.74961C16.4505 8.74961 16.45 8.75057 16.45 9.26603V9.78246L16.975 9.84336C17.2638 9.87687 17.7362 9.87687 18.025 9.84336L18.55 9.78246V9.26603C18.55 8.75057 18.5495 8.74961 18.2875 8.74961C18.0541 8.74961 18.025 8.72047 18.025 8.48711V8.22461H17.5H16.975V8.48711ZM2.51562 10.3836L1.6625 10.4184V10.9403C1.6625 11.4618 1.66268 11.4621 1.925 11.4621C2.15539 11.4621 2.1875 11.4926 2.1875 11.7122V11.9622L3.15 12.0231C3.67937 12.0566 4.54562 12.0566 5.075 12.0231L6.0375 11.9622V11.7122C6.0375 11.4926 6.06961 11.4621 6.3 11.4621H6.5625V10.9371V10.4121H6.13882C5.90581 10.4121 5.18726 10.3978 4.54195 10.3804C3.89672 10.363 2.9848 10.3644 2.51562 10.3836ZM20.825 13.9121C20.825 14.1455 20.8541 14.1746 21.0875 14.1746C21.3209 14.1746 21.35 14.1455 21.35 13.9121C21.35 13.6787 21.3209 13.6496 21.0875 13.6496C20.8541 13.6496 20.825 13.6787 20.825 13.9121ZM14.2334 15.8955C14.2013 15.9275 14.175 16.0418 14.175 16.1493C14.175 16.3233 14.1169 16.3517 13.65 16.4059C13.1429 16.4647 13.125 16.4755 13.125 16.7207C13.125 16.9445 13.0939 16.9746 12.8625 16.9746H12.6V17.4996V18.0246H12.8625C13.0939 18.0246 13.125 18.0547 13.125 18.2785C13.125 18.5234 13.1434 18.5346 13.6449 18.5927C14.1248 18.6485 14.167 18.6711 14.1918 18.8858L14.2188 19.1184L15.2906 19.1429L16.3625 19.1675V19.4273V19.6871H17.5H18.6375V19.4273V19.1675L19.7094 19.1429L20.7812 19.1184L20.8082 18.8858C20.833 18.6711 20.8752 18.6485 21.3551 18.5927C21.8566 18.5346 21.875 18.5234 21.875 18.2785C21.875 18.0547 21.9061 18.0246 22.1375 18.0246H22.4V17.4996V16.9746H22.1375C21.9061 16.9746 21.875 16.9445 21.875 16.7207C21.875 16.4758 21.8566 16.4647 21.3551 16.4065C20.8752 16.3507 20.833 16.3282 20.8082 16.1134C20.7814 15.8824 20.7757 15.8807 19.9719 15.8557L19.1625 15.8305V16.0908C19.1625 16.3205 19.1291 16.3542 18.8781 16.3785C18.628 16.4025 18.5904 16.4402 18.5664 16.6902C18.5422 16.9403 18.5079 16.9746 18.282 16.9746C18.0547 16.9746 18.025 17.0051 18.025 17.2371V17.4996H17.5H16.975V17.2371C16.975 17.0051 16.9452 16.9746 16.718 16.9746C16.4921 16.9746 16.4578 16.9403 16.4336 16.6902C16.4096 16.4402 16.372 16.4025 16.1219 16.3785C15.8718 16.3543 15.8375 16.32 15.8375 16.0941V15.8371H15.0646C14.6395 15.8371 14.2654 15.8634 14.2334 15.8955ZM12.6 22.4476V23.0204L13.1469 22.9944L13.6937 22.9684L13.7198 22.4215L13.7458 21.8746H13.1729H12.6V22.4476ZM10.9375 24.3191C10.9375 24.545 10.9032 24.5793 10.6531 24.6035C10.4179 24.6261 10.364 24.6715 10.3415 24.8661C10.3205 25.0481 10.261 25.1076 10.079 25.1286C9.88444 25.1511 9.83902 25.205 9.81636 25.4402L9.78889 25.7246H7.91324H6.0375V25.9871V26.2496H5.20625H4.375V26.5121C4.375 26.7442 4.34525 26.7746 4.11801 26.7746C3.89209 26.7746 3.85779 26.8089 3.83364 27.059C3.81106 27.2932 3.7653 27.3481 3.57367 27.3703C3.35895 27.3951 3.33637 27.4373 3.28064 27.9172C3.24747 28.2031 3.24747 28.6711 3.28064 28.957C3.33637 29.4369 3.35895 29.4791 3.57367 29.5039C3.7653 29.5261 3.81106 29.581 3.83364 29.8152C3.85779 30.0653 3.89209 30.0996 4.11801 30.0996C4.34525 30.0996 4.375 30.1301 4.375 30.3621V30.6246H5.1625H5.95V30.8871V31.1496H8.18125H10.4125V30.8871V30.6246H10.9375H11.4625V30.3621C11.4625 30.1204 11.4868 30.0996 11.7688 30.0996C12.0507 30.0996 12.075 30.0788 12.075 29.8371C12.075 29.6037 12.1041 29.5746 12.3375 29.5746H12.6V28.4371V27.2996H12.3375C12.1041 27.2996 12.075 27.2705 12.075 27.0371C12.075 26.7954 12.0507 26.7746 11.7688 26.7746C11.4868 26.7746 11.4625 26.7538 11.4625 26.5121C11.4625 26.2787 11.4334 26.2496 11.2 26.2496C10.9666 26.2496 10.9375 26.2205 10.9375 25.9871C10.9375 25.7537 10.9666 25.7246 11.2 25.7246C11.4334 25.7246 11.4625 25.6955 11.4625 25.4621C11.4625 25.2287 11.4916 25.1996 11.725 25.1996C11.9667 25.1996 11.9875 25.1753 11.9875 24.8934C11.9875 24.625 11.9604 24.5871 11.7688 24.5871C11.584 24.5871 11.55 24.5462 11.55 24.3246C11.55 24.0829 11.5257 24.0621 11.2437 24.0621C10.9633 24.0621 10.9375 24.0837 10.9375 24.3191ZM26.775 24.3246C26.775 24.558 26.7459 24.5871 26.5125 24.5871H26.25V25.1559V25.7246H26.8188H27.3875V25.9871V26.2496H29.0063H30.625V25.9913C30.625 25.7355 30.6304 25.7327 31.1719 25.7069L31.7188 25.6809L31.7448 25.134L31.7708 24.5871H31.4604C31.1738 24.5871 31.15 24.567 31.15 24.3246V24.0621H28.9625H26.775V24.3246ZM6.0648 27.3643C5.55039 27.3937 5.52195 27.407 5.49605 27.6318C5.47339 27.8278 5.42001 27.8731 5.18437 27.8957L4.9 27.9232V28.4371V28.951L5.18437 28.9785C5.41695 29.0009 5.47356 29.0473 5.49517 29.2337C5.52099 29.4557 5.54199 29.463 6.31803 29.5181C7.33014 29.5899 9.35436 29.5898 9.95312 29.5179C10.3557 29.4695 10.4125 29.4383 10.4125 29.2648C10.4125 29.0879 10.4685 29.0603 10.9375 29.0059L11.4625 28.945V28.4371V27.9293L10.9375 27.8684C10.4685 27.8139 10.4125 27.7863 10.4125 27.6094C10.4125 27.4359 10.3557 27.4047 9.95312 27.3563C9.49349 27.3011 7.08444 27.306 6.0648 27.3643Z" fill="#26A387"/>
</svg>
