<svg width="25" height="25" viewBox="0 0 25 25" fill="none" xmlns="http://www.w3.org/2000/svg">
<rect x="0.5" y="0.5" width="24" height="24" rx="12" stroke="#26A387"/>
<g clip-path="url(#clip0_384_11315)">
<path fill-rule="evenodd" clip-rule="evenodd" d="M11.7876 6.70919C11.7876 6.76141 11.6808 6.80413 11.5502 6.80413C11.4025 6.80413 11.3129 6.85796 11.3129 6.94654C11.3129 7.02562 11.2285 7.08894 11.123 7.08894C11.0186 7.08894 10.9332 7.12834 10.9332 7.17657C10.9332 7.2248 10.805 7.39236 10.6484 7.549C10.4793 7.71809 10.3635 7.93321 10.3635 8.07847C10.3635 8.21299 10.3208 8.32312 10.2686 8.32312C10.2158 8.32312 10.1737 8.57631 10.1737 8.89274C10.1737 9.20916 10.2158 9.46236 10.2686 9.46236C10.3208 9.46236 10.3635 9.56612 10.3635 9.69296C10.3635 9.8197 10.4276 9.98755 10.5059 10.0659C10.5843 10.1442 10.6484 10.254 10.6484 10.31C10.6484 10.366 10.6911 10.4117 10.7433 10.4117C10.7955 10.4117 10.8382 10.4985 10.8382 10.6045C10.8382 10.7107 10.9023 10.822 10.9806 10.852C11.1893 10.9322 11.1543 11.2435 10.9285 11.3151C10.8145 11.3513 10.639 11.3146 10.5046 11.2266C10.3785 11.1439 10.2097 11.0763 10.1295 11.0763C10.0494 11.0763 9.98379 11.037 9.98379 10.9888C9.98379 10.9408 9.85563 10.8733 9.69898 10.8389C9.54234 10.8046 9.41417 10.7371 9.41417 10.689C9.41417 10.6409 9.30737 10.6016 9.17683 10.6016C9.04629 10.6016 8.93949 10.5597 8.93949 10.5085C8.93949 10.4573 8.83269 10.3886 8.70215 10.3558C8.49357 10.3034 8.46481 10.2451 8.46481 9.87495C8.46481 9.41394 8.2868 9.17499 7.71538 8.869C7.37218 8.68521 5.90152 8.62606 5.90152 8.796C5.90152 8.84717 5.79471 8.9159 5.66417 8.94866C5.53364 8.98141 5.42683 9.04635 5.42683 9.09287C5.42683 9.13948 5.38107 9.17755 5.32515 9.17755C5.13072 9.17755 4.95215 9.45049 4.95215 9.74764C4.95215 10.1515 5.39864 10.6016 5.79927 10.6016C5.9599 10.6016 6.09139 10.64 6.09139 10.6869C6.09139 10.8331 6.97411 10.8632 7.31341 10.7286C7.68462 10.5814 7.99012 10.5634 7.99012 10.689C7.99012 10.7371 8.11829 10.8046 8.27493 10.8389C8.43158 10.8733 8.55974 10.9408 8.55974 10.9888C8.55974 11.037 8.62041 11.0763 8.69446 11.0763C8.85291 11.0763 9.4474 11.3766 9.49326 11.4798C9.51072 11.5189 9.64952 11.551 9.8018 11.551C10.0339 11.551 10.0787 11.5894 10.0787 11.7883C10.0787 11.9188 10.036 12.0257 9.98379 12.0257C9.93158 12.0257 9.88886 12.2212 9.88886 12.4602C9.88886 12.8138 9.9405 12.9463 10.1664 13.1722C10.319 13.3249 10.4899 13.4497 10.5461 13.4497C10.6023 13.4497 10.6485 13.4818 10.6487 13.5209C10.6489 13.56 10.8349 13.6685 11.062 13.7619C11.4015 13.9015 11.7222 13.9289 12.8673 13.9162C14.257 13.9008 14.2603 13.9013 14.4907 14.15C14.6177 14.2869 14.7877 14.3991 14.8685 14.3991C14.9494 14.3991 15.0154 14.4418 15.0154 14.494C15.0154 14.5462 15.0795 14.5889 15.1578 14.5889C15.2362 14.5889 15.3002 14.653 15.3002 14.7313C15.3002 14.8199 15.3899 14.8738 15.5376 14.8738C15.7275 14.8738 15.7749 14.9212 15.7749 15.1111C15.7749 15.2416 15.7322 15.3484 15.68 15.3484C15.6278 15.3484 15.5851 15.5407 15.5851 15.7757C15.5851 16.0106 15.6278 16.2029 15.68 16.2029C15.7322 16.2029 15.7749 16.2623 15.7749 16.335C15.7749 16.4076 15.8817 16.4939 16.0123 16.5267C16.1428 16.5594 16.2496 16.6282 16.2496 16.6794C16.2496 16.7306 16.4632 16.7725 16.7243 16.7725C16.9854 16.7725 17.199 16.8152 17.199 16.8674C17.199 16.9196 17.3058 16.9624 17.4363 16.9624C17.5669 16.9624 17.6737 16.9196 17.6737 16.8674C17.6737 16.8152 17.8873 16.7725 18.1484 16.7725C18.4094 16.7725 18.623 16.7326 18.623 16.6839C18.623 16.6352 18.7172 16.5655 18.8322 16.529C19.1412 16.431 19.293 16.2433 19.3506 15.8881C19.386 15.6696 19.3548 15.5242 19.2499 15.4192C19.1662 15.3355 19.0977 15.2396 19.0977 15.206C19.0977 15.0631 18.8085 14.8738 18.5903 14.8738C18.4603 14.8738 18.3391 14.8289 18.3209 14.7743C18.272 14.6274 17.2624 14.5482 16.9276 14.665C16.635 14.7669 16.0597 14.6398 16.0597 14.4732C16.0597 14.4324 16.014 14.3991 15.9581 14.3991C15.9021 14.3991 15.7968 14.3456 15.724 14.2804C15.4098 13.9986 15.3024 13.9244 15.2093 13.9244C15.1549 13.9244 15.1104 13.8825 15.1104 13.8313C15.1104 13.7801 15.0036 13.7113 14.873 13.6786C14.7425 13.6458 14.6357 13.5575 14.6357 13.4824C14.6357 13.4072 14.7425 13.2467 14.873 13.1258C15.0548 12.9573 15.1104 12.8109 15.1104 12.5003C15.1104 12.1898 15.0548 12.0434 14.873 11.8749C14.7425 11.7539 14.6357 11.6102 14.6357 11.5555C14.6357 11.4223 14.9878 11.0763 15.1232 11.0763C15.1825 11.0763 15.33 10.9695 15.451 10.8389C15.572 10.7084 15.7157 10.6016 15.7704 10.6016C15.8252 10.6016 15.8699 10.5589 15.8699 10.5067C15.8699 10.4544 15.9553 10.4117 16.0597 10.4117C16.1652 10.4117 16.2496 10.3484 16.2496 10.2693C16.2496 10.191 16.3137 10.1269 16.392 10.1269C16.4703 10.1269 16.5344 10.0842 16.5344 10.032C16.5344 9.97976 16.5966 9.93704 16.6726 9.93704C16.7485 9.93704 16.9113 9.84087 17.0346 9.72343C17.4391 9.33742 17.7827 9.20631 18.1274 9.30619C18.5742 9.43578 19.4526 9.2104 19.786 8.88068C20.045 8.62464 20.1606 8.03831 19.9521 8.03831C19.8999 8.03831 19.8572 7.97423 19.8572 7.8959C19.8572 7.81758 19.7931 7.7535 19.7148 7.7535C19.6365 7.7535 19.5724 7.71078 19.5724 7.65856C19.5724 7.60635 19.4254 7.56362 19.2457 7.56362C19.066 7.56362 18.8927 7.5209 18.8604 7.46869C18.7839 7.3448 17.9585 7.3448 17.9585 7.46869C17.9585 7.5209 17.8059 7.56362 17.6195 7.56362C17.3163 7.56362 17.0091 7.7309 17.0091 7.8959C17.0091 7.92951 16.945 8.02103 16.8667 8.09935C16.684 8.28211 16.686 8.46116 16.8732 8.64837C17.0638 8.83891 16.9644 9.17755 16.7179 9.17755C16.617 9.17755 16.5344 9.24163 16.5344 9.31995C16.5344 9.39828 16.4703 9.46236 16.392 9.46236C16.3137 9.46236 16.2496 9.50508 16.2496 9.5573C16.2496 9.60951 16.1702 9.65223 16.073 9.65223C15.9759 9.65223 15.8162 9.75904 15.7183 9.88957C15.6201 10.0203 15.4435 10.1269 15.3252 10.1269C15.1975 10.1269 15.1104 10.1847 15.1104 10.2693C15.1104 10.3476 15.0463 10.4117 14.968 10.4117C14.8896 10.4117 14.8256 10.4544 14.8256 10.5067C14.8256 10.5589 14.781 10.6016 14.7266 10.6016C14.6322 10.6016 14.52 10.68 14.2007 10.9689C14.1217 11.0404 14.0271 11.0666 13.9903 11.0271C13.9537 10.9876 13.9771 10.9363 14.0423 10.913C14.1077 10.8896 14.161 10.7674 14.161 10.6412C14.161 10.5149 14.2037 10.4117 14.2559 10.4117C14.3082 10.4117 14.3509 10.366 14.3509 10.31C14.3509 10.254 14.415 10.1442 14.4933 10.0659C14.5716 9.98755 14.6357 9.8197 14.6357 9.69296C14.6357 9.56612 14.6784 9.46236 14.7306 9.46236C14.7834 9.46236 14.8256 9.20916 14.8256 8.89274C14.8256 8.57631 14.7834 8.32312 14.7306 8.32312C14.6784 8.32312 14.6357 8.21451 14.6357 8.08179C14.6357 7.94907 14.5923 7.78881 14.5392 7.72578C14.1394 7.25014 13.9607 7.08894 13.8333 7.08894C13.7524 7.08894 13.6863 7.02486 13.6863 6.94654C13.6863 6.85796 13.5967 6.80413 13.449 6.80413C13.3184 6.80413 13.2116 6.76141 13.2116 6.70919C13.2116 6.65432 12.911 6.61426 12.4996 6.61426C12.0883 6.61426 11.7876 6.65432 11.7876 6.70919ZM11.6588 7.42122C11.5804 7.49954 11.4889 7.56362 11.4553 7.56362C11.3471 7.56362 11.1499 7.80391 11.0817 8.01904C11.0452 8.134 10.9755 8.22818 10.9268 8.22818C10.7736 8.22818 10.8211 9.43169 10.9806 9.59119C11.059 9.66951 11.123 9.82207 11.123 9.9303C11.123 10.0384 11.1658 10.1269 11.218 10.1269C11.2702 10.1269 11.3129 10.1754 11.3129 10.2347C11.3129 10.294 11.4197 10.4414 11.5502 10.5625C11.6808 10.6834 11.7876 10.8485 11.7876 10.9293C11.7876 11.0102 11.8517 11.0763 11.93 11.0763C12.0083 11.0763 12.0724 11.122 12.0724 11.178C12.0724 11.3304 12.3228 11.551 12.496 11.551C12.6345 11.551 13.2116 11.0452 13.2116 10.9238C13.2116 10.8958 13.2651 10.8133 13.3303 10.7405C13.6121 10.4263 13.6863 10.319 13.6863 10.2258C13.6863 10.1714 13.729 10.1269 13.7813 10.1269C13.8335 10.1269 13.8762 10.0384 13.8762 9.9303C13.8762 9.82207 13.9403 9.66951 14.0186 9.59119C14.1781 9.43169 14.2257 8.22818 14.0724 8.22818C14.0237 8.22818 13.954 8.134 13.9175 8.01904C13.8493 7.80391 13.6521 7.56362 13.5439 7.56362C13.5103 7.56362 13.4188 7.49954 13.3405 7.42122C13.2397 7.32049 12.9939 7.27881 12.4996 7.27881C12.0054 7.27881 11.7595 7.32049 11.6588 7.42122ZM12.2623 7.94337C12.2623 7.99559 12.1738 8.03831 12.0657 8.03831C11.7602 8.03831 11.5723 8.29758 11.5257 8.78299C11.4871 9.18448 11.5141 9.261 11.8082 9.58207C12.2497 10.0641 12.7217 10.0804 13.1539 9.6285C13.4118 9.35888 13.4475 9.25758 13.4368 8.82628C13.4236 8.29141 13.262 8.03831 12.9336 8.03831C12.8254 8.03831 12.737 7.99559 12.737 7.94337C12.737 7.89116 12.6302 7.84844 12.4996 7.84844C12.3691 7.84844 12.2623 7.89116 12.2623 7.94337ZM17.6025 8.18033C17.4512 8.35207 17.4534 8.40125 17.6195 8.5672C17.8231 8.77093 18.9443 8.75109 19.1916 8.53938C19.4183 8.34524 19.4365 8.22818 19.2401 8.22818C19.1618 8.22818 19.0977 8.18546 19.0977 8.13325C19.0977 7.97878 17.7423 8.02141 17.6025 8.18033ZM12.1911 8.65502C12.0484 8.81707 12.0362 8.98768 12.1673 8.98768C12.2196 8.98768 12.2623 9.05176 12.2623 9.13008C12.2623 9.27628 12.5102 9.31711 12.7766 9.21486C12.8592 9.18315 12.9268 9.07331 12.9268 8.97078C12.9268 8.57907 12.4414 8.37068 12.1911 8.65502ZM6.07582 9.43198C5.65468 9.48144 5.53591 9.70521 5.80012 9.95138C5.95098 10.092 6.14047 10.1269 6.75196 10.1269C7.19769 10.1269 7.51544 10.0874 7.51544 10.032C7.51544 9.97976 7.57952 9.93704 7.65784 9.93704C7.80936 9.93704 7.84288 9.77071 7.72762 9.5909C7.64949 9.4691 6.61031 9.36913 6.07582 9.43198ZM11.2892 11.8063C11.1977 11.8302 11.123 11.8893 11.123 11.9376C11.123 11.9861 11.0162 12.0257 10.8857 12.0257C10.7442 12.0257 10.6484 12.08 10.6484 12.1602C10.6484 12.2341 10.6053 12.3089 10.5527 12.3265C10.4911 12.347 10.4985 12.468 10.5736 12.6667C10.658 12.8903 10.7495 12.975 10.9065 12.975C11.0256 12.975 11.123 13.009 11.123 13.0506C11.123 13.0923 11.4462 13.2014 11.8411 13.2933C12.3725 13.4169 12.638 13.4364 12.8617 13.3681C13.028 13.3174 13.3244 13.2489 13.5202 13.2161C13.716 13.1832 13.8762 13.1155 13.8762 13.0657C13.8762 13.0158 13.983 12.975 14.1135 12.975C14.2613 12.975 14.3509 12.9212 14.3509 12.8326C14.3509 12.7543 14.3936 12.6902 14.4458 12.6902C14.498 12.6902 14.5408 12.6048 14.5408 12.5003C14.5408 12.3959 14.498 12.3105 14.4458 12.3105C14.3936 12.3105 14.3509 12.2464 14.3509 12.1681C14.3509 12.0897 14.269 12.0257 14.1689 12.0257C14.0688 12.0257 13.9727 11.9865 13.9553 11.9387C13.9042 11.7981 13.2116 11.6993 13.2116 11.8325C13.2116 12.0012 12.6798 12.5003 12.5001 12.5003C12.3236 12.5003 12.0724 12.2813 12.0724 12.1273C12.0724 12.0714 12.0083 12.0257 11.93 12.0257C11.8517 12.0257 11.7876 11.9616 11.7876 11.8832C11.7876 11.7442 11.6237 11.7188 11.2892 11.8063ZM10.3635 14.6364C10.3635 14.8263 10.411 14.8738 10.6009 14.8738C10.7908 14.8738 10.8382 14.8263 10.8382 14.6364C10.8382 14.4465 10.7908 14.3991 10.6009 14.3991C10.411 14.3991 10.3635 14.4465 10.3635 14.6364ZM9.43791 15.5882C9.32047 15.7137 9.2243 15.8606 9.2243 15.9146C9.2243 15.9743 8.91604 16.0142 8.44107 16.016C7.90335 16.0181 7.60012 16.0627 7.47357 16.1584C7.37218 16.235 7.2087 16.2978 7.11025 16.2978C7.0118 16.2978 6.80636 16.4226 6.6537 16.5753C6.43772 16.7913 6.3762 16.9386 6.3762 17.2399C6.3762 17.4527 6.41892 17.6269 6.47114 17.6269C6.52335 17.6269 6.56607 17.691 6.56607 17.7693C6.56607 17.8476 6.61183 17.9117 6.66775 17.9117C6.72376 17.9117 6.8336 17.9758 6.91193 18.0541C6.99025 18.1325 7.1581 18.1965 7.28484 18.1965C7.41167 18.1965 7.51544 18.2393 7.51544 18.2915C7.51544 18.3484 7.89519 18.3864 8.46481 18.3864C9.03443 18.3864 9.41417 18.3484 9.41417 18.2915C9.41417 18.2393 9.52098 18.1965 9.65152 18.1965C9.79924 18.1965 9.88886 18.1427 9.88886 18.0541C9.88886 17.9758 9.93462 17.9117 9.99053 17.9117C10.2241 17.9117 10.4108 17.5846 10.4021 17.1908C10.3942 16.8336 10.2117 16.4877 10.0313 16.4877C9.99765 16.4877 9.89892 16.4164 9.81177 16.3291C9.69642 16.2139 9.68531 16.16 9.77104 16.1314C9.83588 16.1097 9.88886 16.0362 9.88886 15.9678C9.88886 15.8994 9.94962 15.8201 10.0239 15.7916C10.1065 15.7599 10.1391 15.6639 10.1078 15.5441C10.0384 15.2789 9.70696 15.3008 9.43791 15.5882ZM16.5344 15.4434C16.5344 15.4956 16.4703 15.5383 16.392 15.5383C16.3034 15.5383 16.2496 15.6279 16.2496 15.7757C16.2496 15.9633 16.2977 16.013 16.4791 16.013C16.6052 16.013 16.7245 16.0611 16.7441 16.12C16.8109 16.3203 17.7227 16.3356 18.1855 16.1442C18.6677 15.9447 18.7791 15.7278 18.5153 15.5019C18.3775 15.3839 18.1276 15.3484 17.4353 15.3484C16.898 15.3484 16.5344 15.3868 16.5344 15.4434ZM7.86623 16.7496C7.61531 16.7681 7.3269 16.8544 7.22541 16.9414C7.01076 17.1252 6.97924 17.437 7.17528 17.437C7.24924 17.437 7.32756 17.4905 7.3493 17.5557C7.37769 17.6409 7.67892 17.6744 8.41734 17.6744C9.15576 17.6744 9.45699 17.6409 9.48538 17.5557C9.50712 17.4905 9.6068 17.437 9.70686 17.437C9.83769 17.437 9.88886 17.3703 9.88886 17.1997C9.88886 17.0291 9.83769 16.9624 9.70686 16.9624C9.6068 16.9624 9.51072 16.9262 9.49326 16.8819C9.45433 16.7829 8.4836 16.7039 7.86623 16.7496Z" fill="#26A387"/>
</g>
<line x1="6.43731" y1="1.7576" x2="18.2085" y2="22.9934" stroke="#26A387"/>
<defs>
<clipPath id="clip0_384_11315">
<rect width="15.0949" height="15" fill="white" transform="translate(4.95215 5)"/>
</clipPath>
</defs>
</svg>
