<svg width="25" height="25" viewBox="0 0 25 25" fill="none" xmlns="http://www.w3.org/2000/svg">
<path fill-rule="evenodd" clip-rule="evenodd" d="M20.6954 1.50213C20.6954 2.2268 20.3733 2.31819 17.8233 2.31819C16.504 2.31819 15.3066 2.36339 15.1626 2.41869C14.9543 2.49865 14.9007 2.78706 14.9007 3.82597C14.9007 4.54468 14.8323 5.13276 14.7487 5.13276C14.2912 5.13276 14.0728 4.89253 14.0728 4.38938C14.0728 3.76289 13.8278 3.64716 12.5 3.64716C11.1639 3.64716 10.9272 3.76107 10.9272 4.40395C10.9272 4.85991 10.8522 4.97978 10.5132 5.06471C10.2856 5.12183 10.0993 5.23508 10.0993 5.3162C10.0993 5.39749 9.91308 5.46388 9.68543 5.46388C9.45778 5.46388 9.27152 5.53839 9.27152 5.62945C9.27152 5.72051 9.01076 5.79501 8.69205 5.79501C8.37334 5.79501 8.11258 5.72051 8.11258 5.62945C8.11258 5.53839 7.8856 5.46388 7.60795 5.46388C6.88957 5.46388 5.46358 6.88988 5.46358 7.60825C5.46358 7.8859 5.53808 8.11289 5.62914 8.11289C5.7202 8.11289 5.7947 8.37365 5.7947 8.69236C5.7947 9.01107 5.7202 9.27183 5.62914 9.27183C5.53808 9.27183 5.46358 9.45809 5.46358 9.68574C5.46358 9.91339 5.39719 10.0996 5.31589 10.0996C5.23477 10.0996 5.12152 10.2859 5.0644 10.5136C4.97947 10.8525 4.8596 10.9275 4.40364 10.9275C3.76076 10.9275 3.64685 11.1642 3.64685 12.5003C3.64685 13.8364 3.76076 14.0732 4.40364 14.0732C4.8596 14.0732 4.97947 14.1482 5.0644 14.4871C5.12152 14.7147 5.23477 14.901 5.31589 14.901C5.39719 14.901 5.46358 15.0872 5.46358 15.3149C5.46358 15.5425 5.53808 15.7288 5.62914 15.7288C5.88195 15.7288 5.82616 16.7144 5.55811 16.9823C5.06689 17.4737 4.30464 17.2039 4.30464 16.5389C4.30464 15.6409 3.73427 15.9485 1.81175 17.8833C0.815232 18.8861 0 19.8227 0 19.9645C0 20.2602 0.387417 20.6957 0.650497 20.6957C0.748013 20.6957 0.827815 20.769 0.827815 20.8589C0.827815 20.9487 1.45795 21.6564 2.22798 22.4318C3.64685 23.8601 4.30464 24.198 4.30464 23.4985C4.30464 22.7738 4.62666 22.6824 7.17666 22.6824C8.49603 22.6824 9.69338 22.6372 9.83742 22.5819C10.0457 22.502 10.0993 22.2136 10.0993 21.1746C10.0993 20.4559 10.1677 19.8679 10.2513 19.8679C10.7093 19.8679 10.9272 20.1081 10.9272 20.6129C10.9272 21.2727 11.1073 21.3579 12.5 21.3579C13.8959 21.3579 14.0728 21.2733 14.0728 20.6063C14.0728 20.2011 14.1603 20.028 14.404 19.9506C14.5861 19.8929 14.7351 19.7761 14.7351 19.6912C14.7351 19.6063 14.9586 19.5367 15.2318 19.5367C15.505 19.5367 15.7285 19.4622 15.7285 19.3712C15.7285 19.2801 15.9892 19.2056 16.3079 19.2056C16.6267 19.2056 16.8874 19.2801 16.8874 19.3712C16.8874 19.4622 17.1144 19.5367 17.3921 19.5367C18.1104 19.5367 19.5364 18.1107 19.5364 17.3924C19.5364 17.1147 19.4619 16.8877 19.3709 16.8877C19.2798 16.8877 19.2053 16.627 19.2053 16.3083C19.2053 15.9895 19.2798 15.7288 19.3709 15.7288C19.4619 15.7288 19.5364 15.5053 19.5364 15.2321C19.5364 14.9589 19.606 14.7354 19.6909 14.7354C19.7758 14.7354 19.8925 14.5864 19.9503 14.4043C20.0276 14.1609 20.2008 14.0732 20.6045 14.0732C21.2382 14.0732 21.3531 13.8319 21.3531 12.5003C21.3531 11.1642 21.2392 10.9275 20.5964 10.9275C20.1404 10.9275 20.0205 10.8525 19.9356 10.5136C19.8785 10.2859 19.7652 10.0996 19.6841 10.0996C19.6028 10.0996 19.5364 9.91339 19.5364 9.68574C19.5364 9.45809 19.4619 9.27183 19.3709 9.27183C19.118 9.27183 19.1738 8.28623 19.4419 8.01835C19.9331 7.52696 20.6954 7.79666 20.6954 8.46173C20.6954 9.35974 21.2657 9.05213 23.1882 7.11736C24.1848 6.11455 25 5.17796 25 5.03607C25 4.74037 24.6126 4.30494 24.3495 4.30494C24.252 4.30494 24.1722 4.2316 24.1722 4.1417C24.1722 4.05196 23.5421 3.34418 22.772 2.56885C21.3531 1.14054 20.6954 0.802626 20.6954 1.50213ZM21.5232 2.98044C21.5232 3.08408 20.5022 3.146 18.7914 3.146H16.0596V4.47051C16.0596 5.77299 16.0666 5.79501 16.4735 5.79501C16.7012 5.79501 16.8874 5.72051 16.8874 5.62945C16.8874 5.53839 17.1172 5.46388 17.3978 5.46388C17.7637 5.46388 18.0679 5.62812 18.4712 6.04335C18.9914 6.57912 19.1091 6.62282 20.0301 6.62282C20.5781 6.62282 21.0265 6.68872 21.0265 6.76902C21.0265 6.84948 21.1788 6.95511 21.3649 7.00378C21.606 7.06686 21.8912 6.90792 22.3583 6.45014C22.7185 6.097 23.0132 5.73061 23.0132 5.63607C23.0132 5.54137 23.125 5.46388 23.2616 5.46388C23.3982 5.46388 23.5099 5.35213 23.5099 5.21554C23.5099 5.07895 23.582 4.9672 23.6699 4.9672C23.7578 4.9672 23.3477 4.48292 22.7588 3.89104C21.6679 2.79468 21.5232 2.68806 21.5232 2.98044ZM11.755 5.17978C11.755 5.60445 11.6497 5.7859 11.2742 6.00759C11.0096 6.16388 10.5626 6.2917 10.2808 6.2917C9.99884 6.2917 9.76821 6.3662 9.76821 6.45726C9.76821 6.54832 9.66556 6.62282 9.54007 6.62282C9.41473 6.62282 9.21937 6.73458 9.10596 6.87117C8.99255 7.00776 8.72798 7.11951 8.51805 7.11951C8.30811 7.11951 8.0245 7.00776 7.88791 6.87117C7.55646 6.53971 7.3495 6.55809 6.95364 6.95395C6.55778 7.34981 6.5394 7.55676 6.87086 7.88822C7.1899 8.20726 7.1899 8.84153 6.87086 9.10627C6.73427 9.21968 6.62252 9.41504 6.62252 9.54037C6.62252 9.66587 6.54801 9.76852 6.45695 9.76852C6.36589 9.76852 6.29139 9.99915 6.29139 10.2811C6.29139 10.5629 6.16358 11.0099 6.00728 11.2745C5.7856 11.65 5.60414 11.7553 5.17947 11.7553C4.64536 11.7553 4.63576 11.7685 4.63576 12.5003C4.63576 13.2321 4.64536 13.2453 5.17947 13.2453C5.60414 13.2453 5.7856 13.3506 6.00728 13.7261C6.16358 13.9907 6.29139 14.4377 6.29139 14.7195C6.29139 15.0015 6.36589 15.2321 6.45695 15.2321C6.54801 15.2321 6.62252 15.3347 6.62252 15.4602C6.62252 15.5856 6.73427 15.7809 6.87086 15.8943C7.1899 16.1591 7.1899 16.7934 6.87086 17.1124C6.5394 17.4439 6.55778 17.6508 6.95364 18.0467C7.3495 18.4425 7.55646 18.4609 7.88791 18.1294C8.0245 17.9929 8.30811 17.8811 8.51805 17.8811C8.72798 17.8811 8.99255 17.9929 9.10596 18.1294C9.21937 18.266 9.41473 18.3778 9.54007 18.3778C9.66556 18.3778 9.76821 18.4523 9.76821 18.5434C9.76821 18.6344 9.99884 18.7089 10.2808 18.7089C10.5626 18.7089 11.0096 18.8367 11.2742 18.993C11.6497 19.2147 11.755 19.3962 11.755 19.8208C11.755 20.3549 11.7682 20.3645 12.5 20.3645C13.2318 20.3645 13.245 20.3549 13.245 19.8208C13.245 19.3962 13.3503 19.2147 13.7258 18.993C13.9904 18.8367 14.4374 18.7089 14.7192 18.7089C15.0012 18.7089 15.2318 18.6344 15.2318 18.5434C15.2318 18.4523 15.3344 18.3778 15.4599 18.3778C15.5853 18.3778 15.7806 18.266 15.894 18.1294C16.1588 17.8104 16.793 17.8104 17.1121 18.1294C17.4435 18.4609 17.6505 18.4425 18.0464 18.0467C18.4422 17.6508 18.4606 17.4439 18.1291 17.1124C17.9925 16.9758 17.8808 16.6922 17.8808 16.4823C17.8808 16.2723 17.9925 16.0078 18.1291 15.8943C18.2657 15.7809 18.3775 15.5856 18.3775 15.4602C18.3775 15.3347 18.452 15.2321 18.543 15.2321C18.6341 15.2321 18.7086 15.0015 18.7086 14.7195C18.7086 14.4377 18.8364 13.9907 18.9927 13.7261C19.2144 13.3506 19.3959 13.2453 19.8205 13.2453C20.3546 13.2453 20.3642 13.2321 20.3642 12.5003C20.3642 11.7685 20.3546 11.7553 19.8205 11.7553C19.3959 11.7553 19.2144 11.65 18.9927 11.2745C18.8364 11.0099 18.7086 10.5629 18.7086 10.2811C18.7086 9.99915 18.6341 9.76852 18.543 9.76852C18.452 9.76852 18.3775 9.66587 18.3775 9.54037C18.3775 9.41504 18.2657 9.21968 18.1291 9.10627C17.9925 8.99286 17.8808 8.72829 17.8808 8.51835C17.8808 8.30842 17.9925 8.02481 18.1291 7.88822C18.4606 7.55676 18.4422 7.34981 18.0464 6.95395C17.6505 6.55809 17.4435 6.53971 17.1121 6.87117C16.9755 7.00776 16.6919 7.11951 16.482 7.11951C16.272 7.11951 16.0075 7.00776 15.894 6.87117C15.7806 6.73458 15.5108 6.62282 15.2944 6.62282C15.0778 6.62282 14.9007 6.54832 14.9007 6.45726C14.9007 6.3662 14.7445 6.2917 14.5536 6.2917C14.3629 6.2917 13.9904 6.16388 13.7258 6.00759C13.3503 5.7859 13.245 5.60445 13.245 5.17978C13.245 4.64567 13.2318 4.63607 12.5 4.63607C11.7682 4.63607 11.755 4.64567 11.755 5.17978ZM10.596 7.94733C10.596 8.03839 10.4876 8.11289 10.3551 8.11289C10.2227 8.11289 9.92815 8.29915 9.7005 8.5268C9.47285 8.75445 9.20861 8.9407 9.11341 8.9407C9.01821 8.9407 8.9404 9.01852 8.9404 9.11372C8.9404 9.20892 8.75414 9.47316 8.52649 9.7008C8.29884 9.92845 8.11258 10.223 8.11258 10.3554C8.11258 10.4879 8.03808 10.5963 7.94702 10.5963C7.85596 10.5963 7.78146 10.9627 7.78146 11.4104C7.78146 11.9066 7.70066 12.2569 7.5745 12.3079C7.40894 12.3746 7.40894 12.394 7.5745 12.4044C7.71556 12.4134 7.78146 12.7336 7.78146 13.4109C7.78146 13.9627 7.85497 14.4043 7.94702 14.4043C8.03808 14.4043 8.11258 14.5127 8.11258 14.6452C8.11258 14.7776 8.29884 15.0722 8.52649 15.2998C8.75414 15.5275 8.9404 15.7917 8.9404 15.8869C8.9404 15.9821 9.01821 16.0599 9.11341 16.0599C9.20861 16.0599 9.47285 16.2462 9.7005 16.4738C9.92815 16.7015 10.2227 16.8877 10.3551 16.8877C10.4876 16.8877 10.596 16.9622 10.596 17.0533C10.596 17.1541 11.3411 17.2189 12.5 17.2189C13.6589 17.2189 14.404 17.1541 14.404 17.0533C14.404 16.9622 14.5124 16.8877 14.6449 16.8877C14.7773 16.8877 15.0719 16.7015 15.2995 16.4738C15.5272 16.2462 15.7914 16.0599 15.8866 16.0599C15.9818 16.0599 16.0596 15.9821 16.0596 15.8869C16.0596 15.7917 16.2459 15.5275 16.4735 15.2998C16.7012 15.0722 16.8874 14.7776 16.8874 14.6452C16.8874 14.5127 16.9619 14.4043 17.053 14.4043C17.1538 14.4043 17.2185 13.6592 17.2185 12.5003C17.2185 11.3414 17.1538 10.5963 17.053 10.5963C16.9619 10.5963 16.8874 10.4879 16.8874 10.3554C16.8874 10.223 16.7012 9.92845 16.4735 9.7008C16.2459 9.47316 16.0596 9.20892 16.0596 9.11372C16.0596 9.01852 15.9818 8.9407 15.8866 8.9407C15.7914 8.9407 15.5272 8.75445 15.2995 8.5268C15.0719 8.29915 14.7773 8.11289 14.6449 8.11289C14.5124 8.11289 14.404 8.03839 14.404 7.94733C14.404 7.8465 13.6589 7.78176 12.5 7.78176C11.3411 7.78176 10.596 7.8465 10.596 7.94733ZM11.4238 8.77514C11.4238 8.8662 11.2376 8.9407 11.0099 8.9407C10.7823 8.9407 10.596 9.01024 10.596 9.09517C10.596 9.18011 10.4318 9.30163 10.2313 9.36537C9.76887 9.51206 9.51175 9.76918 9.36507 10.2316C9.30132 10.4321 9.1798 10.5963 9.09487 10.5963C9.00993 10.5963 8.9404 10.7826 8.9404 11.0102C8.9404 11.2379 8.86589 11.4241 8.77483 11.4241C8.68146 11.4241 8.60927 11.8932 8.60927 12.5003C8.60927 13.1074 8.68146 13.5765 8.77483 13.5765C8.86589 13.5765 8.9404 13.7303 8.9404 13.9184C8.9404 14.3662 10.6341 16.0599 11.082 16.0599C11.27 16.0599 11.4238 16.1344 11.4238 16.2255C11.4238 16.3189 11.8929 16.391 12.5 16.391C13.1071 16.391 13.5762 16.3189 13.5762 16.2255C13.5762 16.1344 13.73 16.0599 13.918 16.0599C14.3659 16.0599 16.0596 14.3662 16.0596 13.9184C16.0596 13.7303 16.1341 13.5765 16.2252 13.5765C16.3185 13.5765 16.3907 13.1074 16.3907 12.5003C16.3907 11.8932 16.3185 11.4241 16.2252 11.4241C16.1341 11.4241 16.0596 11.2703 16.0596 11.0823C16.0596 10.889 15.6682 10.349 15.1598 9.84054C14.6513 9.3321 14.1113 8.9407 13.918 8.9407C13.73 8.9407 13.5762 8.8662 13.5762 8.77514C13.5762 8.68176 13.1071 8.60958 12.5 8.60958C11.8929 8.60958 11.4238 8.68176 11.4238 8.77514ZM12.0861 11.4256C12.0861 12.9862 12.1118 13.1114 12.5273 13.578C13.0917 14.2114 13.7417 14.2549 13.7417 13.6592C13.7417 13.4316 13.6687 13.2453 13.5793 13.2453C13.4901 13.2453 13.3702 13.0591 13.3131 12.8314C13.256 12.6038 13.1427 12.4175 13.0616 12.4175C12.9803 12.4175 12.9139 11.8215 12.9139 11.093C12.9139 9.79054 12.907 9.76852 12.5 9.76852H12.0861V11.4256ZM2.60762 18.5548C2.26623 18.9046 1.98675 19.2687 1.98675 19.3637C1.98675 19.4589 1.875 19.5367 1.73841 19.5367C1.60182 19.5367 1.49007 19.6485 1.49007 19.7851C1.49007 19.9217 1.41805 20.0334 1.33013 20.0334C1.24222 20.0334 1.66606 20.5316 2.27185 21.1404C2.87781 21.7493 3.40298 22.1591 3.43891 22.051C3.48593 21.9101 4.27301 21.8546 6.22235 21.8546H8.9404V20.5301C8.9404 19.2276 8.93344 19.2056 8.52649 19.2056C8.29884 19.2056 8.11258 19.2801 8.11258 19.3712C8.11258 19.4622 7.88278 19.5367 7.60215 19.5367C7.23626 19.5367 6.93212 19.3725 6.52881 18.9573C6.01026 18.4233 5.88891 18.3778 4.98361 18.3778C4.44321 18.3778 3.97632 18.3131 3.94586 18.2341C3.91556 18.1551 3.74172 18.0518 3.5596 18.0046C3.32616 17.9442 3.04536 18.1064 2.60762 18.5548Z" fill="#26A387"/>
</svg>
