<svg width="25" height="25" viewBox="0 0 25 25" fill="none" xmlns="http://www.w3.org/2000/svg">
<rect x="0.5" y="0.5" width="24" height="24" rx="12" stroke="#26A387"/>
<g clip-path="url(#clip0_384_10665)">
<path fill-rule="evenodd" clip-rule="evenodd" d="M8.68861 5.12295C8.68861 5.19057 8.65173 5.2459 8.60665 5.2459C8.55369 5.2459 8.52468 6.16123 8.52468 7.82787C8.52468 10.0683 8.50845 10.4098 8.40173 10.4098C8.3341 10.4098 8.27878 10.4652 8.27878 10.5328C8.27878 10.6004 8.22345 10.6557 8.15583 10.6557C8.07935 10.6557 8.03287 10.7331 8.03287 10.8607C8.03287 11.0337 7.9946 11.0656 7.78697 11.0656C7.65173 11.0656 7.54107 11.0287 7.54107 10.9836C7.54107 10.9385 7.43042 10.9016 7.29517 10.9016C7.15992 10.9016 7.04927 10.9385 7.04927 10.9836C7.04927 11.0287 6.95706 11.0656 6.84435 11.0656C6.6941 11.0656 6.63943 11.1093 6.63943 11.2295C6.63943 11.3263 6.58476 11.3934 6.50607 11.3934C6.39468 11.3934 6.37943 11.4639 6.41369 11.8203C6.43624 12.0551 6.49624 12.261 6.54706 12.278C6.67976 12.3222 6.66107 12.459 6.5223 12.459C6.45796 12.459 6.35648 12.5072 6.29689 12.5661C6.23738 12.6249 6.1241 12.6975 6.04517 12.7275C5.96066 12.7594 5.90173 12.867 5.90173 12.9893C5.90173 13.1034 5.86484 13.1967 5.81976 13.1967C5.77468 13.1967 5.73779 13.2889 5.73779 13.4016C5.73779 13.5143 5.77468 13.6066 5.81976 13.6066C5.86484 13.6066 5.90173 13.6803 5.90173 13.7705C5.90173 13.8607 5.94033 13.9344 5.98763 13.9344C6.03484 13.9344 6.15894 14.0266 6.26337 14.1393C6.36787 14.252 6.49517 14.3443 6.5464 14.3443C6.59755 14.3443 6.63943 14.3996 6.63943 14.4672C6.63943 14.5348 6.5841 14.5902 6.51648 14.5902C6.42771 14.5902 6.39353 14.6812 6.39353 14.918C6.39353 15.1548 6.42771 15.2459 6.51648 15.2459C6.58476 15.2459 6.63943 15.3188 6.63943 15.4098C6.63943 15.5009 6.6941 15.5738 6.76238 15.5738C6.83001 15.5738 6.88533 15.6077 6.88533 15.6493C6.88533 15.6907 6.99599 15.749 7.13124 15.7787L7.37714 15.8327V17.0966V18.3607H7.70501C7.94181 18.3607 8.03287 18.3265 8.03287 18.2377C8.03287 18.1557 8.11484 18.1148 8.27878 18.1148H8.52468V18.9344C8.52468 19.4262 8.55747 19.7541 8.60665 19.7541C8.65173 19.7541 8.68861 19.8094 8.68861 19.877C8.68861 19.9851 9.32156 20 13.8935 20C18.4655 20 19.0984 19.9851 19.0984 19.877C19.0984 19.8094 19.1353 19.7541 19.1804 19.7541C19.2324 19.7541 19.2624 19.1393 19.2624 18.0738C19.2624 16.4548 19.2558 16.3869 19.0831 16.2142C18.9677 16.0988 18.8922 16.0695 18.8713 16.1322C18.8534 16.1857 18.7866 16.2295 18.7228 16.2295C18.6266 16.2295 18.6066 16.498 18.6066 17.7875V19.3456L13.914 19.3244L9.2214 19.3033L9.1973 18.709L9.1732 18.1148H9.42271C9.58984 18.1148 9.67222 18.1553 9.67222 18.2377C9.67222 18.3288 9.76787 18.3607 10.0411 18.3607H10.4099V17.099V15.8375L10.6253 15.7834C10.7439 15.7536 10.9467 15.6234 11.0762 15.4939C11.2876 15.2824 11.3116 15.2038 11.3116 14.7194C11.3116 14.2948 11.3377 14.1803 11.4345 14.1803C11.5021 14.1803 11.5575 14.125 11.5575 14.0574C11.5575 13.9898 11.6128 13.9344 11.6804 13.9344C11.748 13.9344 11.8034 13.883 11.8034 13.8202C11.8034 13.7575 11.8587 13.6848 11.9263 13.6589C12.0928 13.595 12.0928 13.0443 11.9263 12.9805C11.8587 12.9545 11.8034 12.8819 11.8034 12.8191C11.8034 12.7563 11.748 12.7049 11.6804 12.7049C11.6128 12.7049 11.5575 12.6496 11.5575 12.582C11.5575 12.5143 11.5021 12.459 11.4345 12.459C11.337 12.459 11.3116 12.3407 11.3116 11.8852C11.3116 11.4298 11.2862 11.3115 11.1886 11.3115C11.121 11.3115 11.0657 11.2561 11.0657 11.1885C11.0657 11.1209 11.0134 11.0656 10.9495 11.0656C10.8857 11.0656 10.818 11.0194 10.7992 10.9631C10.7753 10.8917 10.5995 10.8674 10.2186 10.883C9.77427 10.9011 9.67222 10.882 9.67222 10.7805C9.67222 10.7119 9.63533 10.6557 9.59025 10.6557C9.54517 10.6557 9.50828 10.6004 9.50828 10.5328C9.50828 10.4652 9.4546 10.4098 9.38902 10.4098C9.20025 10.4098 9.17206 10.0242 9.19755 7.78689L9.2214 5.69672L13.914 5.67557L18.6066 5.65443V9.75926C18.6066 13.2075 18.6254 13.8829 18.7238 13.9812C18.8772 14.1348 19.0984 14.1313 19.0984 13.9754C19.0984 13.9078 19.1353 13.8525 19.1804 13.8525C19.234 13.8525 19.2624 12.3634 19.2624 9.54918C19.2624 6.735 19.234 5.2459 19.1804 5.2459C19.1353 5.2459 19.0984 5.19057 19.0984 5.12295C19.0984 5.01492 18.4655 5 13.8935 5C9.32156 5 8.68861 5.01492 8.68861 5.12295ZM13.8525 6.51639C13.8525 6.58402 13.8157 6.63934 13.7706 6.63934C13.7224 6.63934 13.6886 6.92623 13.6886 7.33607C13.6886 7.90074 13.7119 8.03279 13.8116 8.03279C13.8792 8.03279 13.9345 8.08811 13.9345 8.15574C13.9345 8.26139 14.193 8.27869 15.7692 8.27869C17.6025 8.27869 17.6039 8.27852 17.6534 8.09426C17.7173 7.85557 17.7173 6.81656 17.6534 6.57787L17.6039 6.39344H15.7282C14.1156 6.39344 13.8525 6.41066 13.8525 6.51639ZM11.096 6.82377C11.1231 6.92525 11.1459 7.03582 11.1465 7.06967C11.1488 7.1932 11.5575 7.13205 11.5575 7.0082C11.5575 6.94057 11.5944 6.88525 11.6394 6.88525C11.6845 6.88525 11.7214 6.82992 11.7214 6.7623C11.7214 6.67295 11.6293 6.63934 11.3839 6.63934C11.074 6.63934 11.0506 6.65434 11.096 6.82377ZM10.164 7.13115C10.164 7.34975 10.1913 7.37705 10.4099 7.37705C10.6285 7.37705 10.6558 7.34975 10.6558 7.13115C10.6558 6.91254 10.6285 6.88525 10.4099 6.88525C10.1913 6.88525 10.164 6.91254 10.164 7.13115ZM12.2132 7.00139C12.2132 7.06525 12.1671 7.13623 12.1107 7.1591C11.9525 7.22328 12.2094 7.37426 12.4796 7.37582C12.6757 7.37689 12.705 7.34508 12.705 7.13115C12.705 6.91254 12.6777 6.88525 12.4591 6.88525C12.3016 6.88525 12.2132 6.92697 12.2132 7.00139ZM14.399 7.10385C14.3689 7.13385 14.3443 7.24451 14.3443 7.34975V7.54098H15.7378H17.1312V7.34484C17.1312 7.23697 17.0729 7.12631 17.0016 7.09893C16.8248 7.03107 14.4673 7.03549 14.399 7.10385ZM11.1476 7.70492C11.1476 7.75 11.0212 7.78689 10.8666 7.78689C10.7121 7.78689 10.5303 7.84221 10.4626 7.90984C10.395 7.97746 10.3002 8.03279 10.2518 8.03279C10.1073 8.03279 10.1403 8.90779 10.287 8.9641C10.3546 8.99 10.4099 9.06771 10.4099 9.1368C10.4099 9.20582 10.4622 9.2623 10.5261 9.2623C10.5899 9.2623 10.6576 9.30844 10.6766 9.36475C10.7006 9.43631 10.9215 9.46639 11.4085 9.46451C12.0693 9.46205 12.1175 9.44951 12.3235 9.22713C12.4432 9.09811 12.5411 8.94254 12.5411 8.88148C12.5411 8.82041 12.578 8.77049 12.623 8.77049C12.6681 8.77049 12.705 8.65984 12.705 8.52459C12.705 8.38934 12.6681 8.27869 12.623 8.27869C12.578 8.27869 12.5411 8.22336 12.5411 8.15574C12.5411 8.08811 12.4857 8.03279 12.4181 8.03279C12.3505 8.03279 12.2952 7.97746 12.2952 7.90984C12.2952 7.82393 12.2086 7.78689 12.0083 7.78689C11.8505 7.78689 11.7214 7.75 11.7214 7.70492C11.7214 7.65984 11.5923 7.62295 11.4345 7.62295C11.2767 7.62295 11.1476 7.65984 11.1476 7.70492ZM10.8734 8.45992C10.7636 8.88008 11.5366 9.11295 11.9042 8.77049L12.0802 8.60656L11.9042 8.44262C11.7776 8.32467 11.6149 8.27869 11.3245 8.27869C10.9769 8.27869 10.9143 8.30385 10.8734 8.45992ZM13.7911 8.89311C13.6506 9.0527 13.6622 9.2623 13.8116 9.2623C13.8792 9.2623 13.9345 9.29918 13.9345 9.34426C13.9345 9.39648 14.6007 9.42623 15.7692 9.42623C17.535 9.42623 17.6055 9.42008 17.6468 9.2623C17.6703 9.17213 17.6703 9.02459 17.6468 8.93443C17.6055 8.77648 17.5363 8.77057 15.7487 8.77361C14.2519 8.77615 13.8738 8.79918 13.7911 8.89311ZM8.77058 10.9836C8.77058 11.0287 8.71525 11.0656 8.64763 11.0656C8.58001 11.0656 8.52468 11.1209 8.52468 11.1885C8.52468 11.2561 8.46935 11.3115 8.40173 11.3115C8.3341 11.3115 8.27878 11.3668 8.27878 11.4344C8.27878 11.532 8.16042 11.5574 7.70501 11.5574H7.13124V12.113C7.13124 12.5681 7.10148 12.694 6.9664 12.8097C6.87566 12.8873 6.76501 12.9508 6.7205 12.9508C6.67591 12.9508 6.63943 13.0061 6.63943 13.0738C6.63943 13.1414 6.5841 13.1967 6.51648 13.1967C6.44886 13.1967 6.39353 13.2494 6.39353 13.3139C6.39353 13.4648 6.6173 13.6885 6.7682 13.6885C6.83263 13.6885 6.88533 13.7439 6.88533 13.8115C6.88533 13.8791 6.94066 13.9344 7.00828 13.9344C7.10583 13.9344 7.13124 14.0528 7.13124 14.5082V15.082H7.66312C8.2023 15.082 8.52468 15.2268 8.52468 15.469C8.52468 15.5266 8.58001 15.5738 8.64763 15.5738C8.71525 15.5738 8.77058 15.6107 8.77058 15.6557C8.77058 15.7008 8.81009 15.7377 8.85837 15.7377C8.97189 15.7377 9.18042 15.5292 9.18042 15.4157C9.18042 15.3674 9.23574 15.3279 9.30337 15.3279C9.37099 15.3279 9.42632 15.2725 9.42632 15.2049C9.42632 15.1066 9.54927 15.082 10.0411 15.082H10.6558V14.5024C10.6558 13.936 10.7537 13.6885 10.9779 13.6885C11.0262 13.6885 11.0657 13.6332 11.0657 13.5656C11.0657 13.498 11.121 13.4426 11.1886 13.4426C11.2562 13.4426 11.3116 13.3873 11.3116 13.3197C11.3116 13.252 11.2562 13.1967 11.1886 13.1967C11.121 13.1967 11.0657 13.1414 11.0657 13.0738C11.0657 13.0061 11.0262 12.9508 10.9779 12.9508C10.9295 12.9508 10.8281 12.8889 10.7525 12.8132C10.6472 12.7079 10.6181 12.544 10.6289 12.1165L10.6429 11.5574H9.96148C9.30312 11.5574 9.27845 11.5505 9.22869 11.3525C9.20042 11.2398 9.14107 11.1475 9.09689 11.1475C9.05263 11.1475 9.01648 11.0922 9.01648 11.0246C9.01648 10.957 8.96115 10.9016 8.89353 10.9016C8.82591 10.9016 8.77058 10.9385 8.77058 10.9836ZM12.6435 11.0243C12.5098 11.1761 12.514 11.2961 12.6582 11.4402C12.7544 11.5365 13.2065 11.5574 15.1896 11.5574C17.535 11.5574 17.6052 11.5527 17.6468 11.3934C17.6703 11.3033 17.6703 11.1557 17.6468 11.0656C17.6051 10.9062 17.5363 10.9017 15.1749 10.9048C13.1825 10.9073 12.7275 10.9288 12.6435 11.0243ZM8.27878 11.9262C8.27878 11.9945 8.20591 12.0492 8.11484 12.0492C7.92337 12.0492 7.66263 12.287 7.5846 12.5329C7.5546 12.6275 7.49566 12.7049 7.45361 12.7049C7.41156 12.7049 7.37714 12.9631 7.37714 13.2787C7.37714 13.5943 7.41001 13.8525 7.45025 13.8525C7.49042 13.8525 7.54665 13.9456 7.57525 14.0594C7.64304 14.3295 7.90804 14.5902 8.11484 14.5902C8.20591 14.5902 8.27878 14.6448 8.27878 14.7131C8.27878 14.8105 8.39624 14.8361 8.84378 14.8361C9.27042 14.8361 9.42033 14.806 9.45599 14.7131C9.48189 14.6455 9.59648 14.5902 9.71066 14.5902C9.84042 14.5902 9.91812 14.5441 9.91812 14.4672C9.91812 14.3996 9.97345 14.3443 10.0411 14.3443C10.1161 14.3443 10.164 14.2678 10.164 14.1481C10.164 14.0402 10.2194 13.9307 10.287 13.9048C10.3789 13.8695 10.4099 13.7222 10.4099 13.3197C10.4099 12.9171 10.3789 12.7698 10.287 12.7346C10.2194 12.7086 10.164 12.5991 10.164 12.4912C10.164 12.3716 10.1161 12.2951 10.0411 12.2951C9.97345 12.2951 9.91812 12.2398 9.91812 12.1721C9.91812 12.0952 9.84042 12.0492 9.71066 12.0492C9.59648 12.0492 9.48189 11.9939 9.45599 11.9262C9.42033 11.8334 9.27042 11.8033 8.84378 11.8033C8.39624 11.8033 8.27878 11.8289 8.27878 11.9262ZM12.6845 12.2696C12.4658 12.3268 12.4971 12.6911 12.7255 12.7468C12.8269 12.7716 13.9796 12.7815 15.287 12.7689L17.664 12.7459L17.6889 12.5316C17.7101 12.3488 17.6755 12.3097 17.4532 12.2652C17.162 12.207 12.9093 12.2109 12.6845 12.2696ZM8.45165 12.5171C8.12419 12.647 8.03287 12.822 8.03287 13.3197C8.03287 13.9803 8.19853 14.1393 8.88673 14.1393C9.20181 14.1393 9.38361 14.1034 9.40583 14.0369C9.4246 13.9806 9.49222 13.9344 9.55607 13.9344C9.64599 13.9344 9.67222 13.7954 9.67222 13.3197C9.67222 12.9371 9.63902 12.7049 9.58443 12.7049C9.53607 12.7049 9.44124 12.6496 9.37361 12.582C9.25345 12.4617 8.69115 12.4222 8.45165 12.5171ZM12.705 13.5656C12.705 13.6332 12.6681 13.6885 12.623 13.6885C12.5039 13.6885 12.5227 13.8458 12.6582 13.9812C12.7544 14.0775 13.2066 14.0984 15.1904 14.0984C17.8186 14.0984 17.7721 14.107 17.6551 13.6411L17.6053 13.4426H15.1552C13.0319 13.4426 12.705 13.459 12.705 13.5656ZM12.5411 15.082V15.3302L15.1025 15.3085L17.664 15.2869V15.082V14.877L15.1025 14.8554L12.5411 14.8338V15.082ZM18.6066 15.082C18.6066 15.3006 18.6339 15.3279 18.8525 15.3279C19.0712 15.3279 19.0984 15.3006 19.0984 15.082C19.0984 14.8634 19.0712 14.8361 18.8525 14.8361C18.6339 14.8361 18.6066 14.8634 18.6066 15.082ZM8.05009 16.7352C8.07566 17.4545 8.16542 17.5933 8.41599 17.3006C8.49583 17.2074 8.6082 17.1311 8.66583 17.1311C8.72345 17.1311 8.77058 17.0943 8.77058 17.0492C8.77058 17.0041 8.82591 16.9672 8.89353 16.9672C8.96115 16.9672 9.01648 17.0001 9.01648 17.0403C9.01648 17.0805 9.10869 17.1366 9.2214 17.1648C9.3341 17.1931 9.42632 17.2525 9.42632 17.2966C9.42632 17.3409 9.48165 17.377 9.54927 17.377C9.64681 17.377 9.67222 17.2587 9.67222 16.8033C9.67222 16.1991 9.58214 16.0854 9.31509 16.3525C9.24607 16.4215 9.04574 16.4754 8.85837 16.4754C8.6164 16.4754 8.52468 16.4416 8.52468 16.3525C8.52468 16.2848 8.46935 16.2295 8.40173 16.2295C8.3341 16.2295 8.27878 16.1926 8.27878 16.1475C8.27878 16.1025 8.22197 16.0656 8.15255 16.0656C8.04714 16.0656 8.03017 16.1765 8.05009 16.7352ZM14.3966 16.8443C14.3707 16.9119 14.293 16.9672 14.2239 16.9672C14.0612 16.9672 14.063 17.1659 14.2272 17.3302C14.3357 17.4386 14.613 17.459 15.98 17.459C17.5948 17.459 17.6042 17.458 17.6534 17.2746C17.7262 17.0027 17.7177 16.9672 17.5795 16.9672C17.5104 16.9672 17.4327 16.9119 17.4068 16.8443C17.3673 16.7413 17.122 16.7213 15.9017 16.7213C14.6815 16.7213 14.4362 16.7413 14.3966 16.8443Z" fill="#26A387"/>
</g>
<line x1="6.43731" y1="1.7576" x2="18.2085" y2="22.9934" stroke="#26A387"/>
<defs>
<clipPath id="clip0_384_10665">
<rect width="15" height="15" fill="white" transform="translate(5 5)"/>
</clipPath>
</defs>
</svg>
