<svg width="35" height="35" viewBox="0 0 35 35" fill="none" xmlns="http://www.w3.org/2000/svg">
<path fill-rule="evenodd" clip-rule="evenodd" d="M8.7501 0.2625C8.7501 0.495862 8.72096 0.525 8.4876 0.525H8.2251V6.5625V12.6H7.91885C7.63692 12.6 7.6126 12.6208 7.6126 12.8625C7.6126 13.0959 7.58346 13.125 7.3501 13.125H7.0876V13.65V14.175H6.5626C6.0691 14.175 6.0376 14.1626 6.0376 13.9683C6.0376 13.7826 5.98799 13.7558 5.5504 13.7043C4.9876 13.6382 4.9001 13.6716 4.9001 13.9528C4.9001 14.1382 4.85005 14.1636 4.3751 14.2188C3.86804 14.2776 3.8501 14.2884 3.8501 14.5336C3.8501 14.7574 3.81895 14.7875 3.5876 14.7875H3.3251V15.8812V16.975H3.54385C3.72856 16.975 3.7626 17.0159 3.7626 17.2375C3.7626 17.4974 3.7577 17.5 3.28135 17.5C2.805 17.5 2.8001 17.5026 2.8001 17.7625C2.8001 18.0042 2.77577 18.025 2.49385 18.025H2.1876V18.5938V19.1625H1.9251H1.6626V19.6875V20.2125H1.9251C2.16677 20.2125 2.1876 20.2368 2.1876 20.5187C2.1876 20.8007 2.20842 20.825 2.4501 20.825C2.68346 20.825 2.7126 20.8541 2.7126 21.0875C2.7126 21.3292 2.73692 21.35 3.01885 21.35C3.30077 21.35 3.3251 21.3708 3.3251 21.6125C3.3251 21.8341 3.35914 21.875 3.54385 21.875C3.72856 21.875 3.7626 21.9159 3.7626 22.1375C3.7626 22.3591 3.72856 22.4 3.54385 22.4C3.32589 22.4 3.3251 22.4029 3.3251 23.2312V24.0625H3.5876C3.82096 24.0625 3.8501 24.0916 3.8501 24.325C3.8501 24.5584 3.87924 24.5875 4.1126 24.5875C4.3443 24.5875 4.3751 24.6174 4.3751 24.843C4.3751 25.093 4.38761 25.0999 4.94385 25.1595L5.5126 25.2204V28.1852V31.15H6.3001H7.0876V30.8875V30.625H7.65635H8.2251V32.55V34.475H8.4876C8.72096 34.475 8.7501 34.5041 8.7501 34.7375V35H20.7813H32.8126V34.7375C32.8126 34.5041 32.8417 34.475 33.0751 34.475H33.3376V30.3625V26.25H33.0751C32.8417 26.25 32.8126 26.2209 32.8126 25.9875C32.8126 25.7541 32.7835 25.725 32.5501 25.725C32.3167 25.725 32.2876 25.7541 32.2876 25.9875C32.2876 26.2181 32.2571 26.25 32.037 26.25C31.8052 26.25 31.7822 26.2805 31.7307 26.656C31.7001 26.8792 31.6751 28.4938 31.6751 30.2438V33.4257L20.7595 33.4035L9.84385 33.3812L9.81979 32.0031L9.79564 30.625H10.3667H10.9376V30.8875V31.15H11.7688H12.6001V28.1836V25.2172L13.1251 25.1562C13.5997 25.1011 13.6501 25.0757 13.6501 24.8907C13.6501 24.7238 13.7025 24.681 13.9345 24.6586C14.1845 24.6346 14.2222 24.597 14.2462 24.3469C14.2704 24.0968 14.3047 24.0625 14.5306 24.0625H14.7876V22.7062V21.35H15.0501C15.2835 21.35 15.3126 21.3209 15.3126 21.0875C15.3126 20.8554 15.3423 20.825 15.5696 20.825C15.7955 20.825 15.8298 20.7907 15.854 20.5406C15.8768 20.3037 15.9215 20.2516 16.122 20.2286L16.3626 20.2009V19.425V18.6491L16.122 18.6214C15.9215 18.5984 15.8768 18.5463 15.854 18.3094C15.8298 18.0593 15.7955 18.025 15.5696 18.025C15.3423 18.025 15.3126 17.9945 15.3126 17.7625C15.3126 17.5291 15.2835 17.5 15.0501 17.5H14.7876V16.1437V14.7875H14.5306C14.3047 14.7875 14.2704 14.7532 14.2462 14.5031C14.2222 14.253 14.1845 14.2154 13.9345 14.1914C13.6844 14.1672 13.6501 14.1329 13.6501 13.907V13.65H12.2938H10.9376V13.3875C10.9376 13.1541 10.9085 13.125 10.6751 13.125C10.4417 13.125 10.4126 13.0959 10.4126 12.8625C10.4126 12.6308 10.3827 12.6 10.1571 12.6C9.90781 12.6 9.9002 12.5865 9.84656 12.0531C9.81629 11.7524 9.80333 9.28156 9.81769 6.5625L9.84385 1.61875L20.7591 1.59652L31.6743 1.5743L31.6966 11.1778L31.7188 20.7812L31.9541 20.8085C32.136 20.8295 32.1956 20.889 32.2166 21.071C32.2391 21.2656 32.293 21.311 32.5282 21.3336C32.801 21.36 32.8126 21.3483 32.8126 21.0493C32.8126 20.7612 32.8325 20.7375 33.0751 20.7375H33.3376V10.6312V0.525H33.0751C32.8417 0.525 32.8126 0.495862 32.8126 0.2625V0H20.7813H8.7501V0.2625ZM20.796 3.29586C20.7638 3.32789 20.7376 3.44339 20.7376 3.5525C20.7376 3.70387 20.6805 3.75742 20.497 3.7786L20.2563 3.80625L20.2325 5.44119L20.2087 7.07613L20.495 7.10369C20.7341 7.1267 20.7859 7.17097 20.809 7.37187L20.8367 7.6125H25.1502H29.4638L29.5194 7.2065C29.5501 6.98329 29.5751 6.02402 29.5751 5.075V3.34941L29.1157 3.2942C28.4998 3.22026 20.8701 3.22175 20.796 3.29586ZM14.547 3.82576L14.2626 3.86111V4.38051V4.9H14.7876H15.3126V4.6375C15.3126 4.40414 15.3417 4.375 15.5751 4.375C15.8057 4.375 15.8376 4.34455 15.8376 4.1244C15.8376 3.89261 15.8071 3.8696 15.4316 3.81815C15.2084 3.78753 14.9819 3.7688 14.9285 3.7765C14.8751 3.7842 14.7033 3.80642 14.547 3.82576ZM12.0053 4.92188L12.0313 5.46875L12.5782 5.49482L13.1251 5.52081V4.94795V4.375H12.5521H11.9793L12.0053 4.92188ZM16.8876 4.6375C16.8876 4.85914 16.8536 4.9 16.6688 4.9C16.4864 4.9 16.4501 4.94165 16.4501 5.1506C16.4501 5.38125 16.4814 5.40549 16.8438 5.45519C17.0604 5.48485 17.4148 5.48485 17.6313 5.45519L18.0251 5.4012V4.8881V4.375H17.4563H16.8876V4.6375ZM21.8751 5.46875V6.0375H25.1563H28.4376V5.46875V4.9H25.1563H21.8751V5.46875ZM14.2626 6.3V6.5625H13.4369H12.6112L12.5837 6.84687C12.5612 7.08111 12.5154 7.13597 12.3238 7.1582C12.109 7.18296 12.0865 7.22522 12.0307 7.70507C11.9976 7.99102 11.9978 8.46125 12.0313 8.75C12.0902 9.25706 12.101 9.275 12.3462 9.275C12.578 9.275 12.6001 9.3016 12.6001 9.58125C12.6001 9.86317 12.6209 9.8875 12.8626 9.8875C13.0963 9.8875 13.1251 9.91646 13.1251 10.1517V10.4159L15.0282 10.3924L16.9313 10.3687L16.9587 10.0844C16.9829 9.8343 17.0172 9.8 17.2431 9.8C17.4989 9.8 17.5001 9.79746 17.5001 9.275V8.75H17.7626H18.0251V8.225V7.7H17.7626C17.5209 7.7 17.5001 7.67567 17.5001 7.39375C17.5001 7.11182 17.4793 7.0875 17.2376 7.0875C17.0042 7.0875 16.9751 7.05836 16.9751 6.825V6.5625H16.4063H15.8376V6.3V6.0375H15.0501H14.2626V6.3ZM13.7063 8.02812C13.6007 8.6667 13.6245 8.75 13.9126 8.75C14.146 8.75 14.1751 8.77914 14.1751 9.0125V9.275H15.0063H15.8376V9.0125C15.8376 8.77914 15.8667 8.75 16.1001 8.75C16.3418 8.75 16.3626 8.72567 16.3626 8.44375C16.3626 8.17539 16.3355 8.1375 16.1438 8.1375C15.9688 8.1375 15.9251 8.09375 15.9251 7.91875V7.7H14.8428H13.7605L13.7063 8.02812ZM20.7376 9.0125C20.7376 9.247 20.7091 9.275 20.4696 9.275C20.2199 9.275 20.2034 9.29443 20.229 9.55937C20.2516 9.79457 20.297 9.84847 20.4916 9.87096C20.6735 9.89196 20.7331 9.95155 20.7541 10.1335L20.7813 10.3687L25.1225 10.3914L29.4636 10.4142L29.5201 10.0022C29.5511 9.77559 29.5515 9.40118 29.5208 9.17009L29.465 8.75H25.1013H20.7376V9.0125ZM8.7501 13.9125C8.7501 14.1459 8.72096 14.175 8.4876 14.175C8.24592 14.175 8.2251 14.1993 8.2251 14.4812C8.2251 14.7632 8.20427 14.7875 7.9626 14.7875C7.72924 14.7875 7.7001 14.8166 7.7001 15.05V15.3125H6.3001H4.9001V16.6687V18.025H4.6376C4.39592 18.025 4.3751 18.0493 4.3751 18.3312C4.3751 18.6132 4.35427 18.6375 4.1126 18.6375C3.87924 18.6375 3.8501 18.6666 3.8501 18.9C3.8501 19.1334 3.82096 19.1625 3.5876 19.1625H3.3251V19.6875V20.2125H3.8501H4.3751V20.5187C4.3751 20.8007 4.39592 20.825 4.6376 20.825H4.9001V22.1812V23.5375H6.3001H7.7001V23.8C7.7001 24.0334 7.72924 24.0625 7.9626 24.0625C8.19596 24.0625 8.2251 24.0916 8.2251 24.325C8.2251 24.5584 8.25424 24.5875 8.4876 24.5875C8.72096 24.5875 8.7501 24.6166 8.7501 24.85C8.7501 25.0917 8.77442 25.1125 9.05635 25.1125C9.32471 25.1125 9.3626 25.0854 9.3626 24.8937C9.3626 24.7188 9.40635 24.675 9.58135 24.675C9.77297 24.675 9.8001 24.6371 9.8001 24.3687C9.8001 24.0771 9.81471 24.0625 10.1063 24.0625C10.3883 24.0625 10.4126 24.0417 10.4126 23.8V23.5375H11.7688H13.1251V22.1375V20.7375H13.3876C13.621 20.7375 13.6501 20.7084 13.6501 20.475C13.6501 20.2333 13.6744 20.2125 13.9563 20.2125C14.2383 20.2125 14.2626 20.1917 14.2626 19.95C14.2626 19.7166 14.2917 19.6875 14.5251 19.6875C14.7571 19.6875 14.7876 19.6577 14.7876 19.4305C14.7876 19.2046 14.7533 19.1703 14.5032 19.1461C14.2663 19.1233 14.2142 19.0786 14.1912 18.8781C14.168 18.6766 14.1217 18.6375 13.9068 18.6375C13.6799 18.6375 13.6501 18.607 13.6501 18.375C13.6501 18.1416 13.621 18.1125 13.3876 18.1125H13.1251V16.7125V15.3125H11.5149H9.90475L9.84446 14.7926C9.78872 14.3127 9.76615 14.2705 9.55142 14.2457C9.3598 14.2235 9.31403 14.1686 9.29146 13.9344C9.26731 13.6843 9.23301 13.65 9.00708 13.65C8.77985 13.65 8.7501 13.6804 8.7501 13.9125ZM18.3095 13.7114C18.0766 13.7419 18.0251 13.7872 18.0251 13.9618C18.0251 14.1404 17.9825 14.175 17.7626 14.175C17.5209 14.175 17.5001 14.1993 17.5001 14.4812C17.5001 14.7632 17.5209 14.7875 17.7626 14.7875C17.996 14.7875 18.0251 14.8166 18.0251 15.05V15.3125H23.8124H29.5998L29.553 14.5635C29.5273 14.1516 29.4792 13.7874 29.4459 13.7541C29.3815 13.6896 18.7877 13.6489 18.3095 13.7114ZM7.7001 16.0875C7.7001 16.3362 7.68706 16.3435 7.13135 16.403C6.57511 16.4626 6.5626 16.4695 6.5626 16.7195C6.5626 16.9451 6.5318 16.975 6.3001 16.975H6.0376V17.5C6.0376 18.0198 6.03506 18.025 5.7863 18.025H5.53509L5.49396 18.7358C5.4713 19.1269 5.4713 19.7351 5.49387 20.0874C5.53333 20.7014 5.54453 20.7292 5.76442 20.7547C5.98142 20.7799 5.99525 20.8109 6.01992 21.3281C6.04565 21.8696 6.04853 21.875 6.3043 21.875C6.53206 21.875 6.5626 21.9055 6.5626 22.1333C6.5626 22.3891 6.56802 22.3919 7.10947 22.4177C7.62669 22.4423 7.65775 22.4562 7.68295 22.6732C7.70841 22.8931 7.73624 22.9043 8.35022 22.9437C8.7025 22.9663 9.31071 22.9663 9.70175 22.9436L10.4126 22.9025V22.6513C10.4126 22.4025 10.4178 22.4 10.9376 22.4H11.4626V22.1375C11.4626 21.9058 11.4925 21.875 11.7181 21.875C11.9681 21.875 11.975 21.8625 12.0346 21.3062C12.0941 20.7505 12.1013 20.7375 12.3501 20.7375H12.6046L12.5805 19.4031L12.5563 18.0688L12.3238 18.0418C12.109 18.017 12.0865 17.9748 12.0307 17.4949C11.9725 16.9934 11.9614 16.975 11.7165 16.975C11.4946 16.975 11.4626 16.943 11.4626 16.7211C11.4626 16.4762 11.4442 16.465 10.9427 16.4069C10.4628 16.3511 10.4206 16.3286 10.3958 16.1138L10.3688 15.8812L9.03447 15.8571L7.7001 15.8329V16.0875ZM17.5001 17.4878V18.0006L17.9595 18.0558C18.5614 18.1281 28.6424 18.129 29.1691 18.0569L29.5751 18.0012V17.4881V16.975H23.5376H17.5001V17.4878ZM7.7001 17.757C7.7001 17.9829 7.6658 18.0172 7.41572 18.0414L7.13135 18.0688L7.1072 19.3974L7.08313 20.726L7.3697 20.7537C7.62284 20.778 7.65959 20.8148 7.68391 21.0679L7.71156 21.3545L9.04016 21.3304L10.3688 21.3062L10.3962 21.0219C10.4204 20.7718 10.4547 20.7375 10.6806 20.7375H10.9376V19.3813V18.025H10.6751C10.4417 18.025 10.4126 17.9959 10.4126 17.7625V17.5H9.05635H7.7001V17.757ZM18.0251 19.95C18.0251 20.1834 17.996 20.2125 17.7626 20.2125C17.5209 20.2125 17.5001 20.2368 17.5001 20.5187C17.5001 20.8007 17.5209 20.825 17.7626 20.825C17.996 20.825 18.0251 20.8541 18.0251 21.0875V21.35H23.7444H29.4638L29.5201 20.9388C29.5511 20.7127 29.5515 20.3387 29.5208 20.1076L29.465 19.6875H23.7451H18.0251V19.95ZM17.7845 22.988L17.5001 23.0236V23.543V24.0625H23.5418H29.5834L29.5574 23.5156L29.5313 22.9688L23.8001 22.9605C20.6479 22.9561 17.9408 22.9684 17.7845 22.988ZM32.047 22.9883L31.7626 23.0236V23.543V24.0625H32.2876H32.8126V23.4937C32.8126 22.8606 32.8543 22.8881 32.047 22.9883ZM7.0876 27.3438V28.9625H7.6126H8.1376V28.7C8.1376 28.4583 8.16192 28.4375 8.44385 28.4375C8.72577 28.4375 8.7501 28.4167 8.7501 28.175C8.7501 27.9333 8.77442 27.9125 9.05635 27.9125C9.33827 27.9125 9.3626 27.9333 9.3626 28.175V28.4375H9.8876H10.4126V28.7C10.4126 28.9334 10.4417 28.9625 10.6751 28.9625H10.9376V27.6062V26.25H10.4126H9.8876V26.5125V26.775H9.05635H8.2251V26.5125C8.2251 26.2708 8.20077 26.25 7.91885 26.25C7.63692 26.25 7.6126 26.2292 7.6126 25.9875C7.6126 25.7541 7.58346 25.725 7.3501 25.725H7.0876V27.3438ZM21.8751 27.65C21.8751 27.8834 21.846 27.9125 21.6126 27.9125H21.3501V28.4375V28.9625H25.4668H29.5834L29.5574 28.4156C29.5313 27.8687 29.5313 27.8687 29.247 27.8414C29.0114 27.8186 28.9626 27.7773 28.9626 27.6007V27.3875H25.4188H21.8751V27.65Z" fill="#26A387"/>
</svg>
