<svg width="25" height="25" viewBox="0 0 25 25" fill="none" xmlns="http://www.w3.org/2000/svg">
<g clip-path="url(#clip0_384_10675)">
<path fill-rule="evenodd" clip-rule="evenodd" d="M1.54244 2.84514C1.25484 2.96014 0.790271 3.32079 0.510054 3.64644L0.000488281 4.23883L0.000488281 12.4997L0.000488281 20.7606L0.507445 21.3499C0.786358 21.6743 1.28179 22.041 1.60831 22.1651C2.41636 22.4723 22.5794 22.4741 23.387 22.1671C23.7109 22.0438 24.2537 21.6282 24.5933 21.2432L25.2105 20.5432L25.214 12.228C25.2159 7.46405 25.1346 3.93601 25.0238 3.96709C24.9172 3.99709 24.6398 3.80514 24.4077 3.54057C23.7998 2.84862 23.0009 2.6084 21.3081 2.6084C19.6259 2.6084 19.1305 2.73731 19.1305 3.17514C19.1305 3.41014 19.5435 3.47796 20.9766 3.47796C22.5622 3.47796 22.8998 3.54492 23.3679 3.95188C23.6679 4.21275 23.9131 4.65296 23.9131 4.93014V5.43449H12.5001H1.08701V4.93014C1.08701 4.65296 1.33223 4.21275 1.63223 3.95188C2.16788 3.48622 2.29723 3.47796 9.13223 3.47796C14.932 3.47796 16.087 3.42775 16.087 3.17514C16.087 3.00862 15.9322 2.81296 15.7431 2.74036C15.1742 2.52209 2.10918 2.6184 1.54244 2.84514ZM17.174 3.15188C17.174 3.33296 17.3672 3.47796 17.6087 3.47796C17.8503 3.47796 18.0435 3.33296 18.0435 3.15188C18.0435 2.97079 17.8503 2.82579 17.6087 2.82579C17.3672 2.82579 17.174 2.97079 17.174 3.15188ZM0.0989665 12.4997C0.0989665 17.1627 0.127662 19.0395 0.16288 16.6701C0.198097 14.3008 0.19788 10.4856 0.162662 8.19188C0.127662 5.89818 0.0987492 7.83666 0.0989665 12.4997ZM1.08701 12.4958L1.08701 18.6873L6.14136 18.7458C10.4633 18.7956 11.1957 18.8512 11.1957 19.1301C11.1957 19.4091 10.4633 19.4647 6.14136 19.5145L1.08701 19.573V20.0732C1.08701 20.3484 1.33223 20.7867 1.63223 21.0475C2.17592 21.5201 2.20418 21.5214 12.5001 21.5214C22.7959 21.5214 22.8242 21.5201 23.3679 21.0475C23.6679 20.7867 23.9131 20.3464 23.9131 20.0693V19.5649H19.0059C14.4494 19.5649 14.1038 19.5377 14.1718 19.1845C14.2383 18.838 14.6748 18.7988 19.079 18.7456L23.9131 18.6871V12.4956V6.30405H12.5001H1.08701L1.08701 12.4958ZM2.29505 7.87427C2.02744 8.25601 1.95658 9.00057 1.95658 11.4275C1.95658 15.4267 1.73549 15.2171 5.95658 15.2171C8.66723 15.2171 9.21788 15.1608 9.52636 14.8521C10.0696 14.3091 10.0696 8.29905 9.52636 7.75601C9.21723 7.44666 8.66331 7.39101 5.89744 7.39101C2.77092 7.39101 2.61918 7.41144 2.29505 7.87427ZM10.8696 8.12862C10.8696 8.58231 11.3716 8.69536 13.3874 8.69536C15.0724 8.69536 15.2174 8.66101 15.2174 8.26057C15.2174 7.8547 15.0724 7.82579 13.0435 7.82579C11.3303 7.82579 10.8696 7.88992 10.8696 8.12862ZM16.5631 8.20622C16.6268 8.53666 16.9074 8.58666 18.6957 8.58666C20.484 8.58666 20.7646 8.53666 20.8283 8.20622C20.8942 7.86405 20.6794 7.82579 18.6957 7.82579C16.712 7.82579 16.4972 7.86405 16.5631 8.20622ZM3.19462 8.39927C3.02527 8.56862 2.98288 12.8258 3.15049 12.8258C3.2094 12.8258 3.50288 12.6125 3.80266 12.3519C4.24158 11.9701 4.34788 11.6767 4.34788 10.8449C4.34788 9.94209 4.43114 9.75253 5.00918 9.34101C5.70831 8.84318 6.29723 8.86753 7.06027 9.42557C7.37658 9.65688 7.48853 9.98992 7.48418 10.6851C7.48049 11.2791 7.60788 11.7512 7.82745 11.9562C8.0194 12.1356 8.34505 12.5269 8.55114 12.8258C8.91397 13.3525 8.92375 13.2921 8.86505 10.8693L8.8044 8.36927L6.07505 8.30883C4.57397 8.27536 3.27766 8.31623 3.19462 8.39927ZM5.56831 10.3321C5.12962 10.7708 5.35462 11.3041 5.97831 11.3041C6.60201 11.3041 6.82701 10.7708 6.38831 10.3321C6.20549 10.1493 6.02092 9.9997 5.97831 9.9997C5.93571 9.9997 5.75114 10.1493 5.56831 10.3321ZM11.1414 10.1436C10.992 10.2041 10.8696 10.3919 10.8696 10.5612C10.8696 10.9767 12.6788 10.9827 13.0224 10.5686C13.2157 10.3358 13.1931 10.2375 12.9227 10.1338C12.5183 9.97862 11.537 9.98405 11.1414 10.1436ZM15.5918 10.6543C15.3859 10.8949 15.2174 11.3351 15.2174 11.6325C15.2174 12.0623 15.1074 12.1736 14.6827 12.1736C14.2487 12.1736 14.1446 12.2862 14.1301 12.7714C14.0103 16.7643 13.9631 16.406 14.6196 16.4814C14.9618 16.521 15.2174 16.6836 15.2174 16.8619C15.2174 17.2806 16.2216 17.268 16.3831 16.8475C16.4788 16.598 16.889 16.5214 18.1298 16.5214C19.2816 16.5214 19.8461 16.616 20.0777 16.8475C20.257 17.0269 20.5574 17.1736 20.7455 17.1736C20.9333 17.1736 21.087 17.0269 21.087 16.8475C21.087 16.6682 21.2746 16.5214 21.504 16.5214C22.4542 16.5214 22.6087 16.3073 22.6087 14.9893C22.6087 14.2917 22.5109 13.6606 22.3914 13.5867C22.2718 13.5127 22.174 13.1647 22.174 12.813C22.174 12.4612 22.0692 12.1736 21.9411 12.1736C21.589 12.1736 21.087 11.5986 21.087 11.1954C21.087 10.4012 20.5468 10.2171 18.2161 10.2171C16.2309 10.2171 15.9222 10.2686 15.5918 10.6543ZM16.4468 11.2669C16.249 11.4856 16.087 11.9258 16.087 12.2451V12.8258H18.1522C20.2944 12.8258 20.3237 12.8119 20.2214 11.8475C20.1359 11.046 19.7831 10.8693 18.2681 10.8693C17.1283 10.8693 16.7274 10.9569 16.4468 11.2669ZM11.1009 12.3777C10.6216 12.6812 11.2107 13.2606 11.9987 13.2606C12.7881 13.2606 13.349 12.7834 12.9861 12.4206C12.6916 12.126 11.5403 12.0999 11.1009 12.3777ZM5.04092 12.6201C4.32679 12.9067 3.9131 13.3749 3.9131 13.8973C3.9131 14.321 4.03418 14.3475 5.97831 14.3475C8.19049 14.3475 8.43005 14.2027 7.6631 13.328C6.89136 12.4475 6.04244 12.2184 5.04092 12.6201ZM14.8761 14.2217C14.5507 15.5186 14.5968 15.5377 18.2094 15.6032L21.5218 15.6632V14.6793V13.6954H18.2651H15.0083L14.8761 14.2217ZM15.6522 14.6736C15.6522 15.2647 15.8555 15.3617 16.2557 14.9614C16.4424 14.7747 16.447 14.628 16.2727 14.418C15.9031 13.9725 15.6522 14.076 15.6522 14.6736ZM20.1209 14.328C19.9955 14.5308 20.1838 15.2171 20.3648 15.2171C20.4205 15.2171 20.5994 15.0836 20.7624 14.9206C20.9838 14.6993 20.9964 14.5612 20.8122 14.3771C20.514 14.0788 20.2848 14.0625 20.1209 14.328ZM2.22831 16.448C2.07897 16.5084 1.95658 16.6962 1.95658 16.8656C1.95658 17.1043 2.32853 17.1736 3.61027 17.1736C5.02897 17.1736 5.24527 17.1247 5.13201 16.8297C5.0594 16.6406 5.00005 16.4449 5.00005 16.3949C5.00005 16.2677 2.55962 16.3143 2.22831 16.448ZM6.88418 16.4491C6.8044 16.5286 6.73918 16.7243 6.73918 16.8838C6.73918 17.0977 7.13766 17.1736 8.26092 17.1736C9.63766 17.1736 9.78266 17.1323 9.78266 16.7388C9.78266 16.3499 9.63766 16.3041 8.40592 16.3041C7.64853 16.3041 6.96375 16.3693 6.88418 16.4491ZM12.3264 18.8327C11.9842 19.1751 12.1872 19.5932 12.6631 19.5258C12.932 19.4875 13.1522 19.3108 13.1522 19.1332C13.1522 18.7877 12.5796 18.5795 12.3264 18.8327Z" fill="#26A387"/>
</g>
<defs>
<clipPath id="clip0_384_10675">
<rect width="25" height="25" fill="white"/>
</clipPath>
</defs>
</svg>
