<svg width="25" height="25" viewBox="0 0 25 25" fill="none" xmlns="http://www.w3.org/2000/svg">
<g clip-path="url(#clip0_338_10295)">
<path fill-rule="evenodd" clip-rule="evenodd" d="M7.87223 0.315345C7.66033 0.549483 7.58688 0.961897 7.58688 1.91741V3.20414L6.79722 3.97276C5.73774 5.00397 5.44429 5.57293 5.71085 6.07914C5.99205 6.61293 6.19395 6.71845 6.94033 6.72155C7.56016 6.72397 7.58688 6.74828 7.58688 7.31052C7.58688 7.79845 7.48516 7.95707 6.98085 8.25465C6.0086 8.8281 5.7555 9.97034 6.37533 10.9867C6.56171 11.2924 6.90688 11.5909 7.14257 11.65C7.4286 11.7217 7.63326 11.9459 7.75792 12.3234C7.96826 12.9609 9.20774 14.3103 9.58292 14.3103C9.98602 14.3103 9.86067 14.939 9.39723 15.2428C9.07429 15.4543 8.96619 15.6755 8.96619 16.1247V16.7241H6.71929C4.12705 16.7241 3.65791 16.8616 2.72602 17.8943C2.06757 18.624 1.98826 18.8867 1.81447 20.9105C1.74257 21.7478 1.61774 22.176 1.37464 22.4191C1.13102 22.6628 1.03516 22.9929 1.03516 23.5878C1.03516 24.9947 1.08395 25.0169 4.0536 24.9617L6.6386 24.9138L6.68516 21.25L6.73171 17.5862H7.29998C7.82602 17.5862 7.8974 17.6566 8.25981 18.5309C8.78223 19.7914 9.43136 20.7257 10.2164 21.3471C10.8615 21.8579 10.8621 21.8593 10.4369 21.966C9.8286 22.1186 9.63223 22.6122 9.69085 23.84C9.73688 24.804 9.78171 24.9195 10.13 24.969C10.4984 25.0212 10.5179 24.9672 10.5179 23.8914V22.7586H12.4145H14.311L14.3134 23.4914C14.3167 24.5474 14.4748 25 14.8405 25C15.0672 25 15.1902 24.8253 15.2724 24.3869C15.4995 23.1772 15.0198 21.8966 14.3398 21.8966C14.1953 21.8966 14.3688 21.6791 14.725 21.4134C15.4876 20.845 16.1615 19.8883 16.7391 18.5543C17.121 17.6724 17.2024 17.5919 17.7127 17.5891L18.2696 17.5862L18.3162 21.25L18.3627 24.9138L20.9477 24.9617C23.9174 25.0169 23.9662 24.9947 23.9662 23.5878C23.9662 22.9829 23.871 22.6634 23.6141 22.4066C23.3546 22.1471 23.2391 21.7512 23.174 20.8979C23.0227 18.9153 22.9365 18.6271 22.2753 17.8943C21.3434 16.8616 20.8743 16.7241 18.2821 16.7241H16.0352V16.2191C16.0352 15.7305 15.6608 15.1724 15.3333 15.1724C15.0176 15.1724 15.1674 14.3353 15.5021 14.2291C15.9855 14.0757 17.2421 12.649 17.2421 12.2533C17.2421 12.0314 17.4596 11.8095 17.8667 11.6164C18.4727 11.3288 18.9662 10.5595 18.9662 9.90224C18.9662 9.37035 18.4426 8.51879 17.9289 8.21552C17.5164 7.97172 17.4145 7.79397 17.4145 7.31776C17.4145 6.7619 17.4505 6.72414 17.9795 6.72414C18.7691 6.72414 19.311 6.30172 19.311 5.68621C19.311 5.31052 19.0472 4.9031 18.2567 4.0581L17.2026 2.93103H16.2257C15.2983 2.93103 15.2388 2.90466 15.0533 2.41345C14.8207 1.79707 14.311 1.86914 14.311 2.51845C14.311 2.92741 14.2952 2.93103 12.5007 2.93103C10.8446 2.93103 10.6903 2.90345 10.6903 2.60724C10.6903 2.14862 10.2919 1.84672 10.031 2.10759C9.91947 2.21914 9.82826 2.45 9.82826 2.62069C9.82826 2.86776 9.68774 2.93103 9.13861 2.93103H8.44895V1.89345V0.85569L12.456 0.902069L16.4629 0.948276L16.5526 1.46552C16.6167 1.83707 16.7388 1.98276 16.9852 1.98276C17.4967 1.98276 17.5631 0.838276 17.0795 0.354655C16.7405 0.0156896 16.5345 0 12.4412 0C8.51033 0 8.13412 0.0260345 7.87223 0.315345ZM7.34171 4.69534C6.90757 5.19155 6.5524 5.65707 6.5524 5.72983C6.5524 5.80259 9.22912 5.86207 12.5007 5.86207C15.7722 5.86207 18.4489 5.81224 18.4489 5.75138C18.4489 5.69052 18.0938 5.225 17.6598 4.7169L16.8705 3.7931H12.5007H8.13085L7.34171 4.69534ZM8.44929 9.26724C8.44947 12.1702 8.62516 12.7588 9.65585 13.3117C10.1802 13.5929 10.58 13.6288 12.7027 13.585C15.0357 13.5367 15.1676 13.515 15.6129 13.1034C16.3153 12.4547 16.5524 11.7183 16.5524 10.1857V8.80879L15.9921 8.72155C15.6839 8.67362 14.811 8.58414 14.0524 8.52293C12.4622 8.39448 11.9264 8.16517 11.2572 7.32655C10.7934 6.74534 10.7357 6.72414 9.61274 6.72414H8.44895L8.44929 9.26724ZM12.1791 7.08259C12.5517 7.45534 14.0693 7.74155 15.7334 7.75293C16.5296 7.75845 16.5524 7.74431 16.5524 7.24138V6.72414H14.1865H11.8207L12.1791 7.08259ZM7.16567 9.17638C6.80016 9.6981 6.8286 10.2293 7.24205 10.6034C7.58326 10.9122 7.58688 10.9047 7.58688 9.85431C7.58688 9.27069 7.55257 8.7931 7.5105 8.7931C7.46843 8.7931 7.31326 8.96552 7.16567 9.17638ZM12.1022 9.68483C12.1464 10.2983 12.2172 10.431 12.5007 10.431C12.7881 10.431 12.8455 10.316 12.8455 9.74138C12.8455 9.15207 12.7876 9.04345 12.4471 8.99517C12.0767 8.94276 12.0522 8.99155 12.1022 9.68483ZM17.4145 9.91379C17.4145 10.4353 17.4515 10.8621 17.4967 10.8621C17.5419 10.8621 17.7064 10.6676 17.8621 10.43C18.1007 10.0659 18.1115 9.9169 17.9314 9.48172C17.6072 8.69914 17.4145 8.86034 17.4145 9.91379ZM10.8993 11.0669C10.5058 11.4603 10.6908 11.7109 11.5671 11.9712C13.0327 12.4064 14.9691 11.791 14.2853 11.1074C14.0608 10.8828 13.9515 10.8857 13.3602 11.1329C12.7108 11.4041 12.2798 11.3631 11.2874 10.935C11.1889 10.8924 11.0143 10.9519 10.8993 11.0669ZM10.6903 14.7321C10.6903 14.8759 10.8845 15.0422 11.1219 15.1017C11.3593 15.1614 11.7564 15.4514 12.0046 15.7462L12.4557 16.2824L12.8253 15.8188C13.0286 15.564 13.4495 15.2666 13.7608 15.1581C14.7784 14.8033 14.3008 14.5719 12.4436 14.5198C10.9703 14.4786 10.6903 14.5124 10.6903 14.7321ZM9.82826 16.3793C9.82826 16.6781 9.94326 16.7241 10.6903 16.7241C11.1645 16.7241 11.5524 16.6621 11.5524 16.5862C11.5524 16.2697 11.0969 16.0345 10.4834 16.0345C9.94326 16.0345 9.82826 16.095 9.82826 16.3793ZM13.4489 16.3793C13.2748 16.7048 13.3179 16.7241 14.2188 16.7241C15.0581 16.7241 15.1731 16.6826 15.1731 16.3793C15.1731 16.086 15.0581 16.0345 14.4033 16.0345C13.81 16.0345 13.5912 16.1134 13.4489 16.3793ZM4.0524 17.9071C3.04671 18.5283 2.8955 18.8391 2.77585 20.5326C2.69809 21.6303 2.72292 22.1321 2.85723 22.1834C2.96343 22.2243 3.62481 22.2345 4.32723 22.2064L5.60412 22.1552L5.65223 19.8707L5.70033 17.5862L5.13498 17.5869C4.82412 17.5872 4.33688 17.7312 4.0524 17.9071ZM9.05636 18.2328C9.56205 19.4571 10.3808 20.4578 11.3648 21.054C11.8948 21.3752 12.4058 21.6379 12.5007 21.6379C12.5955 21.6379 13.1065 21.3752 13.6365 21.054C14.6205 20.4578 15.4393 19.4571 15.945 18.2328L16.2122 17.5862H14.5784H12.9446L12.8952 19.181C12.8496 20.6443 12.8171 20.7759 12.5007 20.7759C12.1843 20.7759 12.1517 20.6443 12.1062 19.181L12.0567 17.5862H10.4229H8.78912L9.05636 18.2328ZM19.3491 19.8707L19.3972 22.1552L20.6741 22.2064C21.3765 22.2345 22.0374 22.2245 22.1426 22.1841C22.2577 22.14 22.3091 21.7966 22.2714 21.3231L22.2088 20.5355L21.4927 20.4833C20.9089 20.4407 20.7765 20.3672 20.7765 20.0862C20.7765 19.8122 20.9093 19.7303 21.4231 19.6879C22.1852 19.6248 22.2743 19.2722 21.7096 18.5543C21.249 17.9686 20.5071 17.5862 19.8319 17.5862H19.301L19.3491 19.8707ZM2.06964 23.6207V24.1379H3.87998H5.69033V23.6207V23.1034H3.87998H2.06964V23.6207ZM19.311 23.6207V24.1379H21.1214H22.9317V23.6207V23.1034H21.1214H19.311V23.6207Z" fill="#26A387"/>
<path fill-rule="evenodd" clip-rule="evenodd" d="M8.00962 0.423276C7.64014 0.792586 7.58634 1.00121 7.58634 2.06259V3.27879L6.63807 4.31034C5.336 5.72672 5.37876 6.34776 6.7891 6.50672L7.58634 6.59655V7.34552C7.58634 8.00172 7.52289 8.12741 7.07427 8.35948C6.4291 8.6931 6.20703 9.10552 6.20703 9.97052C6.20703 10.4859 6.32962 10.7843 6.7072 11.1886C6.98238 11.4831 7.31203 11.7272 7.43996 11.7312C7.56789 11.7352 7.85686 12.1309 8.08203 12.6105C8.3791 13.2436 8.69824 13.6078 9.24582 13.9384C9.77927 14.2607 10.0001 14.5079 10.0001 14.7833C10.0001 14.9972 9.92255 15.1724 9.82772 15.1724C9.471 15.1724 8.96565 15.8798 8.96565 16.3793V16.8966H6.69255C4.746 16.8966 4.31341 16.9479 3.68203 17.2534C2.69203 17.7328 2.14341 18.8709 1.98824 20.7669C1.89996 21.8462 1.80513 22.1869 1.54151 22.3714C1.27565 22.5578 1.20703 22.8116 1.20703 23.6093C1.20703 24.2548 1.29238 24.6838 1.44617 24.8116C1.60789 24.9457 2.46013 24.9943 4.07548 24.9619L6.46565 24.9138L6.5122 21.25L6.55876 17.5862H7.30393H8.0491L8.51979 18.786C8.89531 19.7433 9.19738 20.1774 10.0125 20.9322C10.5748 21.4526 11.0346 21.9212 11.0346 21.9736C11.0346 22.026 10.8434 22.069 10.6096 22.069C10.0162 22.069 9.80238 22.576 9.86272 23.84C9.90169 24.6567 9.97582 24.9138 10.1725 24.9138C10.3719 24.9138 10.4429 24.6469 10.4822 23.75L10.5331 22.5862H12.5081H14.4829V23.6967C14.4829 24.6874 14.6769 25.2083 14.9457 24.9397C15.1594 24.7259 15.1989 23.2748 15.0069 22.6929C14.8457 22.2043 14.7103 22.069 14.3832 22.069C14.1536 22.069 13.9657 22.026 13.9657 21.9736C13.9657 21.9212 14.4255 21.4526 14.9877 20.9322C15.8029 20.1774 16.105 19.7433 16.4805 18.786L16.9512 17.5862H17.6963H18.4415L18.4881 21.25L18.5346 24.9138L20.9248 24.9619C22.5401 24.9943 23.3924 24.9457 23.5541 24.8116C23.7079 24.6838 23.7932 24.2548 23.7932 23.6093C23.7932 22.8116 23.7246 22.5578 23.4588 22.3714C23.1951 22.1869 23.1003 21.8462 23.012 20.7669C22.8569 18.8709 22.3082 17.7328 21.3182 17.2534C20.6879 16.9483 20.2541 16.8966 18.327 16.8966H16.0731L15.9596 16.2917C15.8907 15.9248 15.6798 15.5781 15.4231 15.4098C14.8308 15.0219 14.8655 14.3888 15.4969 14.0624C16.0981 13.7514 16.7572 12.9943 17.0572 12.27C17.1789 11.976 17.422 11.69 17.5974 11.6345C18.172 11.4521 18.7932 10.5376 18.7932 9.87379C18.7932 9.37845 18.6574 9.12776 18.1036 8.60086C17.521 8.04672 17.4139 7.83672 17.4139 7.24828C17.4139 6.57155 17.4305 6.55172 17.9982 6.55172C18.3196 6.55172 18.7658 6.40241 18.9896 6.22C19.392 5.89207 19.3931 5.88155 19.0901 5.31483C18.9215 4.99948 18.3903 4.33414 17.9096 3.83621C17.0493 2.94517 17.0198 2.93103 16.0179 2.93103C15.1151 2.93103 15.0001 2.89207 15.0001 2.58621C15.0001 2.13414 14.4788 2.13414 14.3605 2.58621C14.2772 2.90414 14.1253 2.93103 12.4058 2.93103C10.6622 2.93103 10.5377 2.90828 10.4863 2.57931C10.415 2.12431 10.1025 2.12431 10.0312 2.57931C9.98445 2.87828 9.84876 2.93103 9.126 2.93103H8.276V2.0831C8.276 0.592414 7.98082 0.689655 12.5077 0.689655H16.53L16.5841 1.24862C16.6196 1.61672 16.741 1.82707 16.9398 1.86466C17.3863 1.94931 17.3538 0.801897 16.8967 0.344828C16.5713 0.0194828 16.322 0 12.4924 0H8.43272L8.00962 0.423276ZM7.26651 4.55862C6.77858 5.07448 6.37945 5.57879 6.37945 5.67931C6.37945 5.80466 8.30841 5.86207 12.5144 5.86207C16.0905 5.86207 18.6257 5.79724 18.592 5.70638C18.5605 5.62086 18.1582 5.11655 17.6981 4.58569L16.8615 3.62069H12.5075H8.15358L7.26651 4.55862ZM8.34962 6.78103C8.30117 6.90724 8.28738 8.12931 8.31893 9.49655C8.38738 12.4666 8.56186 12.9441 9.77358 13.4802C10.4536 13.781 10.8453 13.8188 12.7432 13.7667C15.1643 13.7005 15.5969 13.5467 16.2146 12.5338C16.4858 12.0888 16.5507 11.664 16.5512 10.3272L16.5519 8.67172L14.6563 8.47879C12.5374 8.2631 11.9512 8.0331 11.2817 7.15534C10.8338 6.5681 10.7889 6.55172 9.62945 6.55172C8.79651 6.55172 8.411 6.62086 8.34962 6.78103ZM11.7639 6.75672C11.9365 7.27466 12.7251 7.58517 14.3105 7.75966C15.2113 7.85879 16.0841 7.9819 16.2501 8.03328C16.507 8.11276 16.5519 8.00983 16.5519 7.33914V6.55172H14.1238C12.3241 6.55172 11.7132 6.60483 11.7639 6.75672ZM7.0691 9.13793C6.60979 9.59724 6.63427 10.0509 7.14979 10.6369L7.57548 11.1207L7.58082 9.9569C7.58393 9.3169 7.54755 8.7931 7.50013 8.7931C7.45272 8.7931 7.25876 8.94828 7.0691 9.13793ZM17.2415 9.79879C17.2415 10.96 17.3489 11.1469 17.7879 10.7495C18.1981 10.3783 18.1982 9.44948 17.7882 9.07845C17.3019 8.63828 17.2415 8.71776 17.2415 9.79879ZM12.2479 9.21655C11.9625 9.56017 12.0931 10.2433 12.457 10.3126C12.6981 10.3586 12.7588 10.2483 12.7588 9.76414C12.7588 9.07638 12.55 8.85241 12.2479 9.21655ZM10.8622 11.4843C10.8622 11.5916 11.2158 11.7783 11.6481 11.8993C12.2741 12.0747 12.6246 12.0767 13.3722 11.9093C14.9088 11.5655 14.5588 11.2893 12.5863 11.2893C11.4188 11.2893 10.8622 11.3522 10.8622 11.4843ZM10.5174 14.7502C10.5174 14.8972 10.7807 15.1276 11.1025 15.2621C11.4244 15.3966 11.8469 15.7224 12.0413 15.986L12.395 16.4655L12.9051 15.9126C13.1858 15.6084 13.6169 15.3091 13.8629 15.2474C14.1474 15.176 14.3105 15.0162 14.3105 14.809C14.3105 14.5088 14.1593 14.4828 12.4139 14.4828C10.8153 14.4828 10.5174 14.5248 10.5174 14.7502ZM9.71772 16.1207C9.50082 16.6857 9.78703 16.8966 10.7707 16.8966C11.7943 16.8966 11.9231 16.7505 11.3794 16.2069C10.9612 15.7886 9.86686 15.7319 9.71772 16.1207ZM13.4627 16.2312C12.9763 16.7534 13.2139 16.9269 14.3289 16.8633C15.1917 16.8141 15.2588 16.7793 15.2588 16.3793C15.2588 15.9969 15.1777 15.9424 14.5412 15.896C13.9772 15.855 13.7465 15.9267 13.4627 16.2312ZM3.75117 17.8888C3.06496 18.3143 2.75565 19.1171 2.63841 20.7766L2.53513 22.2414H4.19858H5.8622V19.9138V17.5862L5.04324 17.5909C4.57996 17.5934 4.01876 17.7228 3.75117 17.8888ZM8.79324 17.7536C8.79324 17.8459 8.97479 18.3319 9.19686 18.8338C9.62065 19.7921 10.8351 21.0319 11.9253 21.619L12.5288 21.944L13.4627 21.3383C14.6962 20.5384 15.4177 19.7524 15.8515 18.7357C16.047 18.2774 16.207 17.8312 16.207 17.7443C16.207 17.6574 15.4312 17.5862 14.4829 17.5862H12.7588V19.1278C12.7588 20.5878 12.5989 21.1283 12.3069 20.6559C12.2348 20.5393 12.142 19.8009 12.1008 19.015L12.0258 17.5862H10.4096C9.47858 17.5862 8.79324 17.6572 8.79324 17.7536ZM19.1381 19.9138V22.2414H20.785H22.432L22.3798 21.3362L22.3277 20.431L21.595 20.3781C20.6458 20.3093 20.5812 19.8717 21.5088 19.7948C22.11 19.7452 22.1527 19.7052 22.1188 19.2241C22.0946 18.8829 21.8755 18.5162 21.4748 18.1466C20.9577 17.6697 20.7386 17.5862 20.0027 17.5862H19.1381V19.9138ZM1.89669 23.6207V24.3217L3.83634 24.2729L5.776 24.2241V23.6207V23.0172L3.83634 22.9684L1.89669 22.9197V23.6207ZM19.2053 23.1771C19.1532 23.3124 19.1363 23.6034 19.1675 23.8236C19.2225 24.2122 19.2822 24.2255 21.1639 24.2729L23.1036 24.3217V23.6264V22.931H21.2017C19.7131 22.931 19.2791 22.9845 19.2053 23.1771Z" fill="#26A387"/>
</g>
<defs>
<clipPath id="clip0_338_10295">
<rect width="25" height="25" fill="white"/>
</clipPath>
</defs>
</svg>
