<svg width="25" height="25" viewBox="0 0 25 25" fill="none" xmlns="http://www.w3.org/2000/svg">
<path d="M12.5007 13.5418C13.0759 13.5418 13.5423 13.0755 13.5423 12.5002C13.5423 11.9249 13.0759 11.4585 12.5007 11.4585C11.9254 11.4585 11.459 11.9249 11.459 12.5002C11.459 13.0755 11.9254 13.5418 12.5007 13.5418Z" fill="#26A387"/>
<path d="M16.6686 13.5418C17.2439 13.5418 17.7103 13.0755 17.7103 12.5002C17.7103 11.9249 17.2439 11.4585 16.6686 11.4585C16.0933 11.4585 15.627 11.9249 15.627 12.5002C15.627 13.0755 16.0933 13.5418 16.6686 13.5418Z" fill="#26A387"/>
<path d="M8.33464 13.5418C8.90993 13.5418 9.3763 13.0755 9.3763 12.5002C9.3763 11.9249 8.90993 11.4585 8.33464 11.4585C7.75934 11.4585 7.29297 11.9249 7.29297 12.5002C7.29297 13.0755 7.75934 13.5418 8.33464 13.5418Z" fill="#26A387"/>
<path d="M12.5003 22.8457C10.4536 22.8457 8.45281 22.2388 6.75105 21.1017C5.0493 19.9645 3.72299 18.3483 2.93984 16.4573C2.15669 14.5664 1.95189 12.4856 2.35133 10.4783C2.75078 8.47092 3.73653 6.6271 5.18392 5.18C6.63131 3.73291 8.47533 2.74753 10.4828 2.34849C12.4902 1.94944 14.5709 2.15466 16.4617 2.93819C18.3525 3.72172 19.9685 5.04836 21.1053 6.75035C22.242 8.45233 22.8486 10.4532 22.8482 12.4999C22.8449 15.2431 21.7535 17.873 19.8136 19.8126C17.8736 21.7522 15.2435 22.843 12.5003 22.8457ZM12.5003 3.19262C10.6597 3.19262 8.86048 3.73839 7.3301 4.76093C5.79972 5.78347 4.60691 7.23684 3.90251 8.93728C3.19811 10.6377 3.01376 12.5088 3.37276 14.314C3.73176 16.1192 4.61799 17.7775 5.91938 19.079C7.22078 20.3806 8.8789 21.267 10.6841 21.6262C12.4892 21.9854 14.3604 21.8012 16.0609 21.097C17.7614 20.3928 19.2149 19.2002 20.2376 17.6699C21.2603 16.1396 21.8063 14.3405 21.8065 12.4999C21.804 10.0324 20.8228 7.66665 19.0781 5.92177C17.3334 4.17688 14.9678 3.19537 12.5003 3.19262Z" fill="#26A387"/>
</svg>
