<svg width="25" height="25" viewBox="0 0 25 25" fill="none" xmlns="http://www.w3.org/2000/svg">
<path fill-rule="evenodd" clip-rule="evenodd" d="M4.0543 0.235517C3.59758 0.56931 3.46154 2.4119 3.86844 2.74966C4.26999 3.08293 4.4531 2.81759 4.51551 1.8119C4.55637 1.15534 4.64051 0.937759 4.87068 0.894138C5.15447 0.840172 5.17241 1.30414 5.17241 8.69431C5.17241 16.4367 5.16741 16.5517 4.82758 16.5517C4.48913 16.5517 4.48275 16.4367 4.48275 10.355C4.48275 6.23655 4.42241 4.12103 4.30275 4.04707C4.20378 3.98586 4.00982 4.02965 3.87172 4.14414C3.66051 4.31948 3.62068 5.32224 3.62068 10.4521V16.5517H3.19241C2.95672 16.5517 2.51068 16.7781 2.20103 17.0547C1.65499 17.5424 1.63603 17.6052 1.57775 19.1209L1.51758 20.684L2.55947 21.769C3.56999 22.8214 3.60275 22.8847 3.65396 23.8838L3.70689 24.9138L6.10706 24.9619C7.42706 24.9884 8.57241 24.9448 8.65206 24.8652C8.73172 24.7855 8.64085 24.2667 8.45016 23.7124C8.15534 22.8553 8.10344 22.261 8.10344 19.7398C8.10344 16.9379 8.08189 16.7429 7.70948 16.1893C7.47775 15.8445 7.06982 15.5234 6.7181 15.409L6.12068 15.2145L6.06999 13.8864C6.02154 12.6141 6.03447 12.5629 6.37396 12.6707C6.84137 12.8191 8.48896 12.8145 9.18741 12.6631C10.6338 12.3491 16.2233 8.89052 16.3478 8.23224C16.4514 7.68379 15.8876 7.69931 15.1278 8.26586C13.8786 9.19724 11.5134 10.7007 10.431 11.2512C9.28068 11.8366 7.3643 12.0776 6.50861 11.7447L6.03447 11.5603V7.3319C6.03447 5.00621 6.07775 3.10345 6.13085 3.10345C6.18378 3.10345 6.51344 3.33293 6.86361 3.61328C7.21361 3.89379 8.0431 4.33517 8.70689 4.59431C9.77034 5.00948 10.1391 5.06414 11.8103 5.05483C12.8534 5.04914 14.0172 4.95724 14.3965 4.85069C14.7759 4.74431 15.8667 4.65672 16.8207 4.65621C18.2653 4.65534 18.7396 4.72741 19.6581 5.08741C21.1014 5.65293 21.209 5.79121 20.3124 5.92793C18.3595 6.22569 16.9098 6.97879 17.3814 7.45035C17.5343 7.60328 17.8402 7.56448 18.6619 7.28776C20.2878 6.74035 20.8121 6.69552 22.0262 7C23.1705 7.2869 23.5524 7.19603 23.3557 6.68362C23.1705 6.20103 21.5876 4.99879 20.3912 4.43207L19.2241 3.87931L16.4655 3.93897C9.49965 4.08966 9.66568 4.09707 8.57206 3.58466C8.02379 3.32759 7.22844 2.83345 6.80482 2.48621C6.18861 1.98138 6.03447 1.74603 6.03447 1.31069C6.03447 0.507586 5.60947 0 4.93689 0C4.62861 0 4.23137 0.106034 4.0543 0.235517ZM6.00223 16.7672L5.94827 17.3276L4.42516 17.4138C2.5743 17.5186 2.41379 17.6655 2.41379 19.2553V20.3414L3.49137 21.5402L4.56896 22.739L5.86206 22.749L7.15516 22.759L7.10413 19.7066C7.05206 16.6003 6.96948 16.2069 6.36913 16.2069C6.14223 16.2069 6.04154 16.3609 6.00223 16.7672ZM4.48275 23.8726C4.48275 24.0919 4.75413 24.1379 6.04879 24.1379C7.22482 24.1379 7.59723 24.0843 7.54361 23.9224C7.49551 23.7774 6.98275 23.6905 5.97741 23.6571C4.72534 23.6153 4.48275 23.6503 4.48275 23.8726Z" fill="#26A387"/>
<path fill-rule="evenodd" clip-rule="evenodd" d="M4.21685 0.24324C3.94961 0.438585 3.88392 0.700482 3.8822 1.57945C3.8803 2.43721 3.93547 2.67255 4.1384 2.67255C4.33271 2.67255 4.40995 2.42307 4.44909 1.67031C4.49685 0.749275 4.53185 0.672551 4.88013 0.722033L5.25909 0.775999V8.70703V16.6381L4.8734 16.6929L4.48754 16.7477L4.44237 10.486C4.40306 5.05514 4.36271 4.22427 4.1384 4.22427C3.91409 4.22427 3.87375 5.05376 3.83461 10.4743L3.78926 16.7243H3.26099C2.90685 16.7243 2.56633 16.8905 2.22857 17.2282C1.74909 17.7077 1.72461 17.805 1.72461 19.226V20.7196L2.74926 21.7869C3.74133 22.8198 3.77582 22.8869 3.82685 23.8839L3.87978 24.9139L6.16771 24.962C8.80926 25.0176 8.8234 25.0088 8.28444 23.6413C7.98202 22.8739 7.93133 22.3588 7.93047 20.0369C7.92926 16.3701 7.74426 15.7843 6.50806 15.5313L5.94875 15.417V13.9586C5.94875 12.5053 5.9503 12.5003 6.37978 12.5469C7.96357 12.7188 8.93306 12.6079 10.2175 12.1081C11.8481 11.4736 16.1758 8.66772 16.1944 8.2329C16.2015 8.06703 16.1341 7.93117 16.0444 7.93117C15.9548 7.93117 15.0819 8.46341 14.1048 9.11376C11.0039 11.1779 10.6337 11.3867 9.4253 11.7538C8.19789 12.1265 6.93944 12.116 6.21237 11.7269C5.8753 11.5465 5.86254 11.3836 5.86254 7.23548C5.86254 4.86807 5.92513 2.93117 6.00151 2.93117C6.07789 2.93117 6.40754 3.13393 6.73426 3.38169C8.57151 4.77583 10.3739 5.11841 13.9134 4.74669C15.2944 4.60152 16.786 4.4829 17.2279 4.4829C18.3801 4.4829 19.9629 4.93617 20.8625 5.52376L21.6384 6.03048L20.7398 6.03255C19.3496 6.03565 17.0898 6.98221 17.5005 7.3891C17.6146 7.50221 18.0229 7.41376 18.7074 7.12772C19.9896 6.59186 21.5415 6.52462 22.391 6.96807C23.0136 7.2929 23.3658 7.15807 23.1774 6.66686C23.0141 6.24152 21.4851 5.07721 20.3713 4.53031C19.3025 4.00548 18.7269 3.97927 12.1536 4.15496L9.56547 4.22427L8.43995 3.671C7.82099 3.36669 6.98788 2.81617 6.58857 2.44755C5.99426 1.89893 5.86254 1.66479 5.86254 1.15703C5.86254 0.196516 4.9634 -0.302794 4.21685 0.24324ZM5.95185 16.2501C5.91202 16.3688 5.85633 16.6596 5.82789 16.8967C5.77823 17.3124 5.72237 17.3308 4.25323 17.4139C2.40168 17.5188 2.24185 17.6653 2.24185 19.2582V20.347L3.40564 21.6281L4.56944 22.9091L5.90564 22.9201L7.24185 22.9312V19.7513C7.24185 16.6608 7.23116 16.5639 6.85857 16.3031C6.39599 15.9789 6.04961 15.9588 5.95185 16.2501ZM4.48323 23.9657C4.48323 24.2865 4.59823 24.3105 6.13961 24.3105C7.57909 24.3105 7.78237 24.2748 7.69133 24.0377C7.63375 23.8877 7.58668 23.7325 7.58668 23.6929C7.58668 23.6532 6.8884 23.6208 6.03495 23.6208C4.59823 23.6208 4.48323 23.6463 4.48323 23.9657Z" fill="#26A387"/>
</svg>
