<svg width="25" height="25" viewBox="0 0 25 25" fill="none" xmlns="http://www.w3.org/2000/svg">
<path fill-rule="evenodd" clip-rule="evenodd" d="M18.5336 0.239318C17.855 0.535525 16.7588 1.76104 16.631 2.36639C16.5755 2.62949 16.5048 2.97449 16.474 3.13294C16.4431 3.29139 16.4853 3.78242 16.5679 4.22415C16.6812 4.8307 16.6557 5.14794 16.4634 5.51949L16.209 6.01156L15.1855 5.5957C12.6831 4.5788 8.58327 4.65415 9.23275 5.70501C9.31896 5.84449 9.71965 5.87777 10.5115 5.81139C14.5869 5.46966 18.1736 7.49122 19.8834 11.0936C22.0169 15.5883 20.1257 20.9833 15.6464 23.18C10.3481 25.7788 3.99534 22.8288 2.66016 17.1498C2.30051 15.6197 2.40861 13.2497 2.90154 11.8621C3.62844 9.81501 5.34568 7.84397 7.24051 6.88104C8.52258 6.22966 8.70223 6.04328 8.36913 5.70984C8.1662 5.50708 7.95844 5.55225 6.97379 6.01294C4.63361 7.10811 2.27534 10.1317 1.73965 12.724C1.47051 14.0262 1.50637 16.3083 1.8143 17.491C2.16741 18.8466 3.16068 20.6976 4.08879 21.73C5.03913 22.7871 6.90689 24.0397 8.21948 24.5002C9.51361 24.9543 12.1895 25.1214 13.6524 24.8391C16.4421 24.301 19.3484 22.0376 20.5945 19.4324C21.9979 16.4983 22.0429 13.6162 20.729 10.8279C20.3579 10.0407 19.7721 9.06156 19.4271 8.65208C18.8245 7.9369 18.8107 7.89087 19.0745 7.48828C19.2255 7.25759 19.3984 7.06294 19.4586 7.0557C19.5188 7.04846 19.9119 7.00432 20.3319 6.95777C21.2781 6.85311 21.8236 6.57415 22.5317 5.83363C23.2188 5.11501 23.4474 4.51949 23.4474 3.44828C23.4474 2.98656 23.365 2.39018 23.2645 2.12328C23.0162 1.46501 22.1033 0.528111 21.4271 0.238111C20.7333 -0.0596473 19.2171 -0.0591301 18.5336 0.239318ZM18.7957 1.16415C17.9238 1.60208 17.4129 2.45656 17.4129 3.47708C17.4129 4.27811 17.4321 4.31208 17.8279 4.21277C18.5319 4.03604 19.9991 5.07122 19.9991 5.74449C19.9991 6.03501 20.085 6.06587 20.6457 5.9769C21.8938 5.77846 22.7828 4.29639 22.5138 2.86225C22.21 1.24277 20.3395 0.388456 18.7957 1.16415ZM17.3515 5.75863L16.9043 6.34501L17.5283 6.82087L18.1524 7.2969L18.64 6.7088C19.2164 6.01397 19.2419 5.83794 18.8217 5.45777C18.3319 5.01432 17.8429 5.11449 17.3515 5.75863ZM9.90723 7.13984C8.3462 7.49553 7.30344 8.05639 6.0862 9.19501C4.1512 11.0052 3.18792 13.7129 3.61223 16.1497C4.53879 21.4704 10.019 24.4371 14.8865 22.2533C16.0507 21.7309 17.7578 20.3228 17.7578 19.8848C17.7578 19.345 17.2183 19.4709 16.4078 20.1995C15.4114 21.0954 13.9148 21.8628 12.8903 22.0031C12.1676 22.1022 12.1453 22.0905 11.9795 21.5266C11.754 20.7593 11.31 20.7621 11.2365 21.5312L11.1809 22.114L10.346 22.0152C9.28965 21.89 7.60344 21.0448 6.64172 20.1583C5.7612 19.3466 4.69361 17.4035 4.54913 16.3495C4.44844 15.6152 4.45896 15.5948 5.0243 15.4286C5.77965 15.2066 5.79051 14.7595 5.04223 14.6874C4.52034 14.6371 4.48189 14.5895 4.48189 13.9928C4.48189 13.0717 5.55672 10.9345 6.51861 9.94277C6.9631 9.48449 7.68017 8.92828 8.11189 8.7069C8.98741 8.25794 10.844 7.72759 11.0638 7.86346C11.1421 7.91191 11.206 8.25259 11.206 8.6207C11.206 8.9888 11.2953 9.34518 11.4046 9.41277C11.6983 9.59415 12.0681 8.9838 12.0681 8.31742C12.0681 7.84466 12.1248 7.7519 12.3698 7.82294C12.5359 7.87104 13.0193 8.00053 13.4445 8.1107C15.2314 8.57328 17.1141 10.0754 17.9133 11.6759C18.3412 12.5326 18.825 14.2902 18.6922 14.505C18.6412 14.5876 18.3714 14.6552 18.0924 14.6552C17.7098 14.6552 17.5853 14.7354 17.5853 14.9816C17.5853 15.32 17.9022 15.5173 18.4462 15.5173C18.744 15.5173 18.7479 15.5759 18.5183 16.5604C18.3845 17.134 18.1521 17.8412 18.0017 18.1317C17.7007 18.714 17.8529 19.0388 18.3791 18.9376C18.5921 18.8966 18.8279 18.491 19.1155 17.6714C19.9796 15.2093 19.5259 12.1804 17.9895 10.1543C16.1409 7.71656 12.8169 6.4769 9.90723 7.13984ZM8.96879 8.96294C8.68982 9.13535 8.87585 10 9.19206 10C9.54034 10 9.79465 9.65587 9.70361 9.30777C9.60396 8.92673 9.2762 8.77294 8.96879 8.96294ZM13.6409 9.01346C13.3976 9.25673 13.39 9.77173 13.6274 9.91846C13.874 10.0709 14.3095 9.68087 14.3095 9.30777C14.3095 8.93104 13.9024 8.7519 13.6409 9.01346ZM6.75258 10.529C6.8293 11.0469 7.32999 11.3588 7.61982 11.069C7.90965 10.7791 7.59775 10.2785 7.07982 10.2017C6.76792 10.1555 6.70637 10.2171 6.75258 10.529ZM15.5183 10.4288C15.2696 10.7283 15.4031 11.2069 15.7352 11.2069C16.0598 11.2069 16.3784 10.8483 16.3784 10.4828C16.3784 10.1017 15.8188 10.0667 15.5183 10.4288ZM13.4474 11.7241C13.2103 11.8 12.5365 11.8698 11.95 11.8793C11.3634 11.8888 10.6652 11.9791 10.3983 12.08C9.80999 12.3022 8.96465 13.0804 8.96465 13.3997C8.96465 13.8681 9.50206 13.8383 10.0207 13.3414C10.4781 12.9031 10.6741 12.8419 11.6914 12.8197C12.3253 12.8059 13.1076 12.7357 13.4296 12.6638C14.0121 12.5338 14.0145 12.5359 13.8683 13.0338C13.7874 13.3091 13.7384 14 13.7598 14.569C13.8274 16.3791 12.7791 17.395 11.1029 17.1436C10.6269 17.0723 10.1431 17.1104 9.81879 17.2447C9.15016 17.5216 9.06999 17.4223 9.30775 16.6116C9.57551 15.6991 9.33361 14.569 8.87068 14.569C8.58206 14.569 8.53258 14.6928 8.52689 15.431C8.5231 15.9052 8.41258 16.6267 8.28154 17.0343C8.05741 17.7305 8.06534 17.7981 8.41241 18.145C8.77154 18.5041 8.80723 18.5069 9.69223 18.2405C10.1929 18.0897 10.8879 18.005 11.2369 18.0524C12.4698 18.2195 13.9495 17.3878 14.4191 16.2636C14.5484 15.954 14.6543 15.2283 14.6543 14.6509C14.6543 14.0735 14.7412 13.256 14.8474 12.8343C15.1386 11.6776 14.694 11.3248 13.4474 11.7241ZM5.54741 12.6293C5.62241 13.1567 6.55085 13.3041 6.55085 12.7885C6.55085 12.4531 6.24068 12.2414 5.74896 12.2414C5.58154 12.2414 5.51154 12.3762 5.54741 12.6293ZM16.6088 12.5116C16.5517 12.6602 16.5846 12.8614 16.6821 12.9588C16.9684 13.2452 17.4946 13.0454 17.5543 12.6276C17.5991 12.3124 17.5267 12.2414 17.1609 12.2414C16.9128 12.2414 16.6662 12.3621 16.6088 12.5116ZM10.9228 13.4469C9.95723 13.8366 9.66982 15.376 10.4224 16.1285C11.2433 16.9495 12.8998 16.5212 13.1771 15.4164C13.516 14.0662 12.2117 12.9267 10.9228 13.4469ZM11.0336 14.4828C10.5371 14.9793 10.6153 15.2907 11.3314 15.6678C11.6534 15.8374 11.7715 15.8138 12.0641 15.5212C12.5003 15.085 12.501 14.9157 12.0681 14.4828C11.8784 14.2931 11.6457 14.1379 11.5509 14.1379C11.456 14.1379 11.2233 14.2931 11.0336 14.4828ZM5.80775 16.9231C5.48448 17.104 5.42137 17.5072 5.69034 17.6735C5.98775 17.8571 6.55085 17.579 6.55085 17.2483C6.55085 16.8602 6.19672 16.7054 5.80775 16.9231ZM16.6036 17.0078C16.4898 17.3043 16.9472 17.7586 17.3596 17.7586C17.6809 17.7586 17.6402 16.9545 17.3126 16.8288C16.8809 16.6631 16.7203 16.7036 16.6036 17.0078ZM6.89758 19.0495C6.64448 19.3545 6.78448 19.8276 7.12775 19.8276C7.47292 19.8276 7.81465 19.3624 7.6962 19.054C7.56844 18.721 7.17189 18.7188 6.89758 19.0495ZM15.4055 19.054C15.3503 19.1974 15.4012 19.4302 15.5183 19.5712C15.8188 19.9333 16.3784 19.8983 16.3784 19.5173C16.3784 18.8967 15.6069 18.5291 15.4055 19.054ZM8.96654 20.2564C8.71344 20.5614 8.85344 21.0345 9.19672 21.0345C9.54189 21.0345 9.88361 20.5693 9.76517 20.2609C9.63741 19.9279 9.24085 19.9257 8.96654 20.2564ZM13.4778 20.4605C13.5188 20.819 13.6398 20.9633 13.9343 21.005C14.2828 21.0545 14.3278 20.9981 14.2791 20.574C14.2381 20.2155 14.1171 20.0712 13.8226 20.0295C13.4741 19.98 13.4291 20.0364 13.4778 20.4605Z" fill="#26A387"/>
<path fill-rule="evenodd" clip-rule="evenodd" d="M18.7054 0.321778C17.8618 0.705054 17.0054 1.64798 16.7225 2.50557C16.5258 3.10143 16.5587 3.90471 16.8149 4.75936C16.8885 5.00505 16.7942 5.27074 16.5222 5.58316L16.1208 6.04419L15.1053 5.68471C13.6191 5.15833 11.6663 4.91505 10.4311 5.10212C9.69613 5.2135 9.39665 5.33367 9.39665 5.51747C9.39665 5.73178 9.64803 5.76592 10.8622 5.71678C13.7403 5.6004 15.9111 6.33471 17.7661 8.05195C19.7694 9.90678 20.662 11.7673 20.8101 14.3968C21.0617 18.8678 18.4891 22.5645 14.1942 23.9037C10.888 24.9344 7.37027 23.9773 4.79924 21.3475C3.23631 19.7485 2.24148 17.2433 2.24148 14.9059C2.24148 13.6397 2.84303 11.423 3.482 10.334C4.44234 8.69747 6.51113 6.84867 7.93889 6.35109C8.21906 6.25333 8.44838 6.05488 8.44838 5.91005C8.44838 5.06281 5.23234 6.98454 3.90372 8.62592C2.33372 10.5656 1.44338 13.2478 1.61217 15.5302C1.74044 17.2654 2.57251 19.5459 3.55338 20.8507C5.75889 23.7849 9.47268 25.3852 12.8553 24.8594C17.6311 24.1169 21.1727 20.2902 21.5054 15.5128C21.6596 13.2987 20.753 10.4245 19.4025 8.84695C19.0673 8.4554 18.7958 8.03109 18.7989 7.90385C18.8092 7.49195 19.4408 6.89678 19.8677 6.89678C21.6291 6.89678 23.4465 5.14557 23.4465 3.4485C23.4465 1.7735 21.6779 0.0078125 20.0001 0.0078125C19.6682 0.0078125 19.0856 0.149019 18.7054 0.321778ZM18.707 1.01074C18.4225 1.18643 18.0637 1.47712 17.9098 1.65661C17.488 2.1485 17.1942 3.22902 17.3118 3.85609C17.4094 4.37592 17.4568 4.40867 18.0172 4.34333C18.522 4.28436 18.7144 4.36971 19.2229 4.87816C19.5554 5.21074 19.8277 5.65609 19.8277 5.86764C19.8277 6.2154 19.8892 6.2423 20.4703 6.14799C21.2934 6.01436 21.8841 5.57161 22.368 4.7254C22.8579 3.86867 22.857 3.0285 22.3653 2.16057C21.5865 0.785399 19.9198 0.261606 18.707 1.01074ZM17.8134 5.1304C17.6341 5.29592 17.3113 5.63471 17.0963 5.8835L16.7054 6.33557L17.4303 6.90971L18.1551 7.48385L18.6465 6.89505C19.2082 6.22247 19.2723 5.68626 18.8363 5.31178C18.3006 4.85178 18.1453 4.82419 17.8134 5.1304ZM9.50044 7.34212C7.42372 7.90057 5.00372 9.9973 4.31682 11.8332C3.24406 14.7006 3.58906 17.454 5.30303 19.7033C6.89803 21.7964 8.90044 22.7835 11.5518 22.7835C13.7917 22.7835 15.5468 22.0971 17.1122 20.6094C17.6141 20.1323 17.738 19.6554 17.3599 19.6554C17.2354 19.6554 16.9075 19.8913 16.6313 20.1797C15.8185 21.0282 14.6394 21.6916 13.4444 21.9733C11.9477 22.3261 11.9265 22.3223 11.8644 21.6945C11.7927 20.9685 11.3794 20.8261 11.3794 21.5275C11.3794 21.8142 11.3008 22.0975 11.2046 22.1569C10.9327 22.3249 9.13751 21.8999 8.27596 21.4635C6.54458 20.5868 5.06096 18.7526 4.55975 16.8695C4.19941 15.5159 4.2251 15.3994 4.91389 15.2702C5.73286 15.1166 5.73286 14.6554 4.91389 14.6554C4.20734 14.6554 4.18131 14.534 4.56906 13.0456C5.25269 10.4207 8.07855 7.9223 10.4273 7.86592L11.2932 7.84505L11.3468 8.58867C11.4165 9.55609 11.7911 9.46109 11.8644 8.4573L11.9185 7.71712L12.7708 7.79902C13.9215 7.90954 15.6337 8.8085 16.6844 9.85385C17.7306 10.8944 18.6418 12.624 18.7529 13.7797L18.8348 14.6304L18.2668 14.6861C17.4668 14.7644 17.4254 15.1268 18.1999 15.2721L18.8358 15.3914L18.7365 16.2301C18.6818 16.6914 18.4765 17.4318 18.2803 17.8756C17.9379 18.6495 18.0077 19.152 18.4222 18.8957C18.7582 18.6882 19.318 16.859 19.4216 15.6309C19.8798 10.1978 14.7668 5.92592 9.50044 7.34212ZM8.96562 9.3004C8.96562 9.66971 9.22355 9.90195 9.46665 9.75161C9.697 9.60919 9.482 8.96574 9.20406 8.96574C9.07303 8.96574 8.96562 9.11626 8.96562 9.3004ZM13.6148 9.23161C13.4468 9.43402 13.442 9.54557 13.5949 9.6985C13.8415 9.94505 14.4194 9.45385 14.2344 9.15471C14.0732 8.89367 13.8748 8.91833 13.6148 9.23161ZM6.89665 10.5175C6.89665 10.7071 6.92906 10.8623 6.96872 10.8623C7.00838 10.8623 7.16355 10.9094 7.31355 10.967C7.50631 11.0409 7.58631 10.9704 7.58631 10.7268C7.58631 10.5371 7.46355 10.3349 7.31355 10.2773C6.91803 10.1256 6.89665 10.1378 6.89665 10.5175ZM15.7242 10.3795C15.4448 10.659 15.4623 11.0347 15.7549 11.0347C16.073 11.0347 16.437 10.5776 16.2979 10.3526C16.1522 10.117 15.9787 10.1251 15.7242 10.3795ZM13.3934 11.8368C13.3227 11.9076 12.6487 11.9735 11.896 11.9832C10.6396 11.9994 10.4737 12.0442 9.87579 12.5278C9.19096 13.0816 8.93803 13.6209 9.36286 13.6209C9.50044 13.6209 9.71389 13.4994 9.83717 13.3509C10.2718 12.8271 11.0634 12.5449 11.8494 12.6335C12.2661 12.6804 12.9617 12.6121 13.3949 12.4818L14.1827 12.2447L14.0473 12.8897C13.9729 13.2444 13.9277 13.9909 13.9468 14.5487C13.9756 15.3887 13.9044 15.6792 13.5311 16.2432C12.9608 17.1051 12.1072 17.4847 11.0846 17.3314C10.6523 17.2666 10.0744 17.3042 9.72406 17.4197C9.38906 17.5304 9.06889 17.5747 9.01269 17.5185C8.95648 17.4623 9.002 17.1102 9.11407 16.7361C9.35751 15.9238 9.20096 14.6554 8.85734 14.6554C8.69148 14.6554 8.62079 14.8902 8.62079 15.4411C8.62079 15.8733 8.53251 16.5775 8.42458 17.0061C8.26131 17.6542 8.27182 17.8287 8.487 18.0437C8.70441 18.2611 8.86562 18.2694 9.50217 18.0952C9.9182 17.9814 10.7018 17.9002 11.2435 17.9149C12.5196 17.9492 13.2477 17.6309 13.9653 16.7249C14.4984 16.0518 14.5513 15.8761 14.6084 14.5906C14.6425 13.8202 14.6865 12.8795 14.706 12.5002C14.7406 11.8276 14.7265 11.8094 14.1318 11.7592C13.7966 11.7311 13.4642 11.7659 13.3934 11.8368ZM5.76269 12.4725C5.6332 12.8099 5.80475 13.1037 6.13096 13.1037C6.4551 13.1037 6.4501 12.6873 6.12286 12.4157C5.91544 12.2437 5.84648 12.2545 5.76269 12.4725ZM16.7242 12.6438C16.7242 12.9814 16.8748 13.0771 17.2515 12.9787C17.742 12.8502 17.6677 12.414 17.1553 12.414C16.911 12.414 16.7242 12.5137 16.7242 12.6438ZM10.5082 13.8892C9.9532 14.4801 9.93906 15.5332 10.4791 16.073C11.0599 16.6538 12.1498 16.6071 12.6908 15.9782C13.9523 14.5114 11.8311 12.4811 10.5082 13.8892ZM11.0777 14.2302C10.651 14.5297 10.5518 15.3106 10.8967 15.6554C11.2658 16.0245 12.036 15.9006 12.3499 15.4214C12.6237 15.0037 12.6208 14.9561 12.2927 14.5163C11.8667 13.9451 11.5799 13.8776 11.0777 14.2302ZM5.81182 17.094C5.64579 17.1868 5.5551 17.3356 5.6101 17.4245C5.76872 17.6813 6.37941 17.6125 6.37941 17.338C6.37941 16.9887 6.16475 16.8964 5.81182 17.094ZM16.8104 17.0692C16.6513 17.3268 16.8727 17.5864 17.2517 17.5864C17.653 17.5864 17.6992 17.1494 17.3135 17.0014C16.956 16.8642 16.9354 16.867 16.8104 17.0692ZM6.95613 19.2318C6.89993 19.3782 6.89907 19.5428 6.95406 19.598C7.12803 19.772 7.58631 19.5051 7.58631 19.2297C7.58631 18.8856 7.08838 18.8873 6.95613 19.2318ZM15.5173 19.2297C15.5173 19.5278 15.9289 19.7411 16.1911 19.579C16.4608 19.4123 16.2077 18.9657 15.8437 18.9657C15.6642 18.9657 15.5173 19.0845 15.5173 19.2297ZM9.0251 20.4387C8.96889 20.5851 8.96803 20.7497 9.02303 20.8049C9.197 20.9788 9.65527 20.712 9.65527 20.4366C9.65527 20.0925 9.15734 20.0942 9.0251 20.4387ZM13.5753 20.2757C13.3773 20.4737 13.6604 20.8623 14.0025 20.8623C14.2461 20.8623 14.3167 20.7823 14.2427 20.5895C14.1851 20.4395 14.138 20.2844 14.138 20.2447C14.138 20.1345 13.6918 20.159 13.5753 20.2757Z" fill="#26A387"/>
</svg>
