<svg width="25" height="25" viewBox="0 0 25 25" fill="none" xmlns="http://www.w3.org/2000/svg">
<rect x="0.5" y="0.5" width="24" height="24" rx="12" stroke="#26A387"/>
<g clip-path="url(#clip0_384_10049)">
<path fill-rule="evenodd" clip-rule="evenodd" d="M12.2385 6.61296V7.52866H12.5001H12.7617V6.61296V5.69727H12.5001H12.2385V6.61296ZM9.01171 6.87459C9.01171 6.9945 9.04668 7.09261 9.0895 7.09261C9.13223 7.09261 9.19188 7.19072 9.22197 7.31064C9.25206 7.43055 9.3152 7.52866 9.3622 7.52866C9.40929 7.52866 9.44775 7.60715 9.44775 7.70308C9.44775 7.79901 9.48621 7.8775 9.53331 7.8775C9.58031 7.8775 9.64223 7.97072 9.67084 8.08462C9.70764 8.23139 9.78447 8.29174 9.93412 8.29174C10.1087 8.29174 10.1454 8.24822 10.1454 8.04102C10.1454 7.90314 10.107 7.79029 10.0599 7.79029C10.0129 7.79029 9.94973 7.69218 9.91964 7.57227C9.88956 7.45235 9.82991 7.35424 9.78717 7.35424C9.74435 7.35424 9.70938 7.25613 9.70938 7.13622C9.70938 7.00052 9.65993 6.9182 9.57857 6.9182C9.50662 6.9182 9.44775 6.85933 9.44775 6.78738C9.44775 6.70602 9.36543 6.65657 9.22973 6.65657C9.05531 6.65657 9.01171 6.70017 9.01171 6.87459ZM15.5524 6.78738C15.5524 6.85933 15.4935 6.9182 15.4216 6.9182C15.3402 6.9182 15.2908 7.00052 15.2908 7.13622C15.2908 7.25613 15.2523 7.35424 15.2052 7.35424C15.1582 7.35424 15.0951 7.45235 15.065 7.57227C15.0349 7.69218 14.9753 7.79029 14.9325 7.79029C14.8897 7.79029 14.8547 7.90802 14.8547 8.05192C14.8547 8.26968 14.8897 8.31354 15.0633 8.31354C15.2131 8.31354 15.2873 8.25206 15.3266 8.09552C15.3567 7.97561 15.4198 7.8775 15.4669 7.8775C15.5139 7.8775 15.5524 7.79901 15.5524 7.70308C15.5524 7.60715 15.5909 7.52866 15.638 7.52866C15.685 7.52866 15.7481 7.43055 15.7782 7.31064C15.8083 7.19072 15.8679 7.09261 15.9107 7.09261C15.9535 7.09261 15.9885 6.9945 15.9885 6.87459C15.9885 6.70017 15.9448 6.65657 15.7704 6.65657C15.6347 6.65657 15.5524 6.70602 15.5524 6.78738ZM11.5723 8.61878C11.5396 8.70407 11.4039 8.74959 11.1826 8.74959C10.9959 8.74959 10.8431 8.78805 10.8431 8.83514C10.8431 8.88215 10.745 8.94529 10.6251 8.97538C10.4685 9.01471 10.4071 9.08892 10.4071 9.23866C10.4071 9.42389 10.4461 9.44727 10.7559 9.44727C11.0078 9.44727 11.1047 9.4109 11.1047 9.31645C11.1047 9.22506 11.1968 9.18564 11.41 9.18564C11.5778 9.18564 11.7152 9.14639 11.7152 9.09843C11.7152 9.05046 11.8313 9.01122 11.9732 9.01122H12.2311L12.2566 9.68709L12.2821 10.363L12.7399 10.3893C13.1603 10.4135 13.1978 10.4331 13.1978 10.6291C13.1978 10.8298 13.1689 10.8426 12.7181 10.8426H12.2385V11.5403V12.238H11.8024C11.3989 12.238 11.3664 12.2222 11.3664 12.0261C11.3664 11.9097 11.3075 11.7555 11.2355 11.6836C11.1636 11.6116 11.1047 11.5138 11.1047 11.4662C11.1047 11.4186 10.9921 11.355 10.8543 11.3247C10.5643 11.261 10.1454 11.3462 10.1454 11.4688C10.1454 11.5149 10.0866 11.6116 10.0146 11.6836C9.94267 11.7555 9.8838 11.9097 9.8838 12.0261C9.8838 12.2222 9.85127 12.238 9.44775 12.238C9.02139 12.238 9.01171 12.2321 9.01171 11.9763C9.01171 11.8324 9.05095 11.7147 9.09892 11.7147C9.14688 11.7147 9.18613 11.5774 9.18613 11.4095C9.18613 11.1963 9.22554 11.1042 9.31694 11.1042C9.41139 11.1042 9.44775 11.0074 9.44775 10.7554C9.44775 10.4456 9.42438 10.4066 9.23915 10.4066C9.08941 10.4066 9.0152 10.4681 8.97586 10.6246C8.94578 10.7445 8.88264 10.8426 8.83563 10.8426C8.78854 10.8426 8.75008 10.9954 8.75008 11.1821C8.75008 11.4035 8.70456 11.5391 8.61927 11.5719C8.51496 11.6119 8.48845 11.8 8.48845 12.4996C8.48845 13.1992 8.51496 13.3873 8.61927 13.4273C8.70456 13.4601 8.75008 13.5957 8.75008 13.8171C8.75008 14.0038 8.78854 14.1566 8.83563 14.1566C8.88264 14.1566 8.94578 14.2547 8.97586 14.3746C9.00595 14.4945 9.0656 14.5926 9.10834 14.5926C9.15116 14.5926 9.18613 14.6515 9.18613 14.7234C9.18613 14.7954 9.24499 14.8542 9.31694 14.8542C9.39831 14.8542 9.44775 14.9366 9.44775 15.0723C9.44775 15.208 9.4972 15.2903 9.57857 15.2903C9.65052 15.2903 9.70938 15.3287 9.70938 15.3758C9.70938 15.4228 9.80749 15.486 9.92741 15.5161C10.0473 15.5462 10.1454 15.6254 10.1454 15.6921C10.1454 15.759 10.2043 15.8135 10.2762 15.8135C10.3707 15.8135 10.4071 15.9104 10.4071 16.1624C10.4071 16.4763 10.4289 16.5112 10.6251 16.5112C10.7995 16.5112 10.8431 16.5548 10.8431 16.7292C10.8431 16.9037 10.7995 16.9473 10.6251 16.9473C10.4507 16.9473 10.4071 16.9909 10.4071 17.1653C10.4071 17.3397 10.4507 17.3833 10.6251 17.3833C10.8312 17.3833 10.8431 17.4095 10.8431 17.863C10.8431 18.304 10.8591 18.3426 11.0418 18.3426C11.2566 18.3426 11.4884 18.5633 11.5813 18.8564C11.6134 18.9573 11.7351 19.0638 11.8519 19.0931C11.9685 19.1224 12.064 19.1814 12.064 19.2241C12.064 19.3617 12.8258 19.307 13.1059 19.1493C13.2551 19.0654 13.3998 18.9084 13.4276 18.8005C13.4555 18.6925 13.5133 18.6042 13.556 18.6042C13.5988 18.6042 13.6338 18.5454 13.6338 18.4734C13.6338 18.3862 13.721 18.3426 13.8954 18.3426C14.1544 18.3426 14.1571 18.3377 14.1571 17.863C14.1571 17.4095 14.1689 17.3833 14.3751 17.3833C14.5495 17.3833 14.5931 17.3397 14.5931 17.1653C14.5931 16.9909 14.5495 16.9473 14.3751 16.9473C14.2007 16.9473 14.1571 16.9037 14.1571 16.7292C14.1571 16.5548 14.2007 16.5112 14.3751 16.5112C14.5713 16.5112 14.5931 16.4763 14.5931 16.1624C14.5931 15.9104 14.6295 15.8135 14.7239 15.8135C14.7959 15.8135 14.8547 15.759 14.8547 15.6921C14.8547 15.6254 14.9502 15.5469 15.0669 15.5176C15.1837 15.4883 15.304 15.3859 15.3345 15.2901C15.3648 15.1943 15.4263 15.1159 15.471 15.1159C15.5158 15.1159 15.5524 15.057 15.5524 14.9851C15.5524 14.9131 15.6113 14.8542 15.6832 14.8542C15.7552 14.8542 15.814 14.7954 15.814 14.7234C15.814 14.6515 15.8533 14.5926 15.9012 14.5926C15.9492 14.5926 15.9885 14.4945 15.9885 14.3746C15.9885 14.2389 16.0379 14.1566 16.1193 14.1566C16.2133 14.1566 16.2501 14.0605 16.2501 13.815C16.2501 13.6193 16.2966 13.4579 16.3591 13.4371C16.4369 13.4112 16.4681 13.143 16.4681 12.4996C16.4681 11.8562 16.4369 11.588 16.3591 11.5621C16.2966 11.5412 16.2501 11.3799 16.2501 11.1842C16.2501 10.9387 16.2133 10.8426 16.1193 10.8426C16.0379 10.8426 15.9885 10.7603 15.9885 10.6246C15.9885 10.5047 15.9492 10.4066 15.9012 10.4066C15.8533 10.4066 15.814 10.3477 15.814 10.2758C15.814 10.2038 15.7594 10.1449 15.6926 10.1449C15.6259 10.1449 15.5466 10.0468 15.5166 9.92692C15.4865 9.807 15.4233 9.70889 15.3763 9.70889C15.3292 9.70889 15.2908 9.65003 15.2908 9.57808C15.2908 9.49671 15.2085 9.44727 15.0728 9.44727C14.9371 9.44727 14.8547 9.39782 14.8547 9.31645C14.8547 9.2445 14.7959 9.18564 14.7239 9.18564C14.652 9.18564 14.5931 9.15067 14.5931 9.10785C14.5931 9.06511 14.495 9.00546 14.3751 8.97538C14.2552 8.94529 14.1571 8.88215 14.1571 8.83514C14.1571 8.78805 14.0043 8.74959 13.8176 8.74959C13.5962 8.74959 13.4606 8.70407 13.4278 8.61878C13.3878 8.51447 13.1997 8.48796 12.5001 8.48796C11.8005 8.48796 11.6124 8.51447 11.5723 8.61878ZM6.65706 9.22924C6.65706 9.36494 6.7065 9.44727 6.78787 9.44727C6.85982 9.44727 6.91868 9.50613 6.91868 9.57808C6.91868 9.65945 7.00101 9.70889 7.13671 9.70889C7.25662 9.70889 7.35473 9.74386 7.35473 9.78668C7.35473 9.82942 7.45284 9.88907 7.57275 9.91916C7.69267 9.94924 7.79078 10.0124 7.79078 10.0594C7.79078 10.1065 7.90851 10.1449 8.05241 10.1449C8.27017 10.1449 8.31403 10.11 8.31403 9.93634C8.31403 9.7866 8.25255 9.71238 8.09601 9.67305C7.9761 9.64296 7.87799 9.57982 7.87799 9.53282C7.87799 9.48572 7.7995 9.44727 7.70357 9.44727C7.60764 9.44727 7.52915 9.40881 7.52915 9.36171C7.52915 9.31471 7.43104 9.25157 7.31113 9.22148C7.19121 9.19139 7.0931 9.13174 7.0931 9.08901C7.0931 9.04619 6.99499 9.01122 6.87508 9.01122C6.70066 9.01122 6.65706 9.05482 6.65706 9.22924ZM12.7617 9.44727C12.7617 9.85078 12.7775 9.88331 12.9735 9.88331C13.09 9.88331 13.2441 9.94218 13.3161 10.0141C13.388 10.0861 13.4889 10.1449 13.5404 10.1449C13.5955 10.1449 13.6338 10.3417 13.6338 10.6246C13.6338 10.9075 13.5955 11.1042 13.5404 11.1042C13.4889 11.1042 13.388 11.1631 13.3161 11.2351C13.2441 11.307 13.09 11.3659 12.9735 11.3659C12.7775 11.3659 12.7617 11.3984 12.7617 11.8019V12.238H13.4594H14.1571V12.7176C14.1571 13.1711 14.1689 13.1973 14.3751 13.1973C14.5812 13.1973 14.5931 13.1711 14.5931 12.7176V12.238H15.2908C15.9769 12.238 15.9885 12.2343 15.9885 12.0199C15.9885 11.9 15.9492 11.8019 15.9012 11.8019C15.8533 11.8019 15.814 11.687 15.814 11.5465C15.814 11.4061 15.7552 11.2323 15.6832 11.1603C15.6113 11.0884 15.5524 10.947 15.5524 10.8461C15.5524 10.7452 15.4935 10.6401 15.4216 10.6126C15.3496 10.5849 15.2908 10.5245 15.2908 10.4783C15.2908 10.3092 14.6812 9.70889 14.5096 9.70889C14.4596 9.70889 14.4187 9.65003 14.4187 9.57808C14.4187 9.49575 14.3357 9.44727 14.1945 9.44727C14.0711 9.44727 13.9113 9.3884 13.8394 9.31645C13.7674 9.2445 13.5936 9.18564 13.4532 9.18564C13.3127 9.18564 13.1978 9.14639 13.1978 9.09843C13.1978 9.05046 13.0996 9.01122 12.9797 9.01122C12.7763 9.01122 12.7617 9.04026 12.7617 9.44727ZM17.9071 9.08901C17.9071 9.13174 17.8089 9.19139 17.689 9.22148C17.5691 9.25157 17.471 9.31471 17.471 9.36171C17.471 9.40881 17.3925 9.44727 17.2966 9.44727C17.2007 9.44727 17.1222 9.48572 17.1222 9.53282C17.1222 9.57982 17.0217 9.64357 16.8989 9.67436C16.7504 9.71168 16.6921 9.77299 16.7245 9.85759C16.7514 9.92753 16.7733 10.0208 16.7733 10.0649C16.7733 10.1089 16.8714 10.1449 16.9914 10.1449C17.1113 10.1449 17.2094 10.1065 17.2094 10.0594C17.2094 10.0124 17.3075 9.94924 17.4274 9.91916C17.5473 9.88907 17.6454 9.82942 17.6454 9.78668C17.6454 9.74386 17.7435 9.70889 17.8635 9.70889C17.9992 9.70889 18.0815 9.65945 18.0815 9.57808C18.0815 9.50613 18.1403 9.44727 18.2123 9.44727C18.2937 9.44727 18.3431 9.36494 18.3431 9.22924C18.3431 9.05482 18.2995 9.01122 18.1251 9.01122C18.0052 9.01122 17.9071 9.04619 17.9071 9.08901ZM9.70938 9.92692C9.70938 10.1905 9.74514 10.1964 9.97101 9.97052C10.1969 9.74465 10.191 9.70889 9.92741 9.70889C9.75299 9.70889 9.70938 9.7525 9.70938 9.92692ZM10.3898 12.2598L10.3635 12.7176L9.68758 12.7431C9.03482 12.7677 9.01171 12.7759 9.01171 12.9829C9.01171 13.1008 9.05095 13.1973 9.09892 13.1973C9.14688 13.1973 9.18613 13.3122 9.18613 13.4527C9.18613 13.5931 9.24499 13.7669 9.31694 13.8389C9.38889 13.9108 9.44775 14.0706 9.44775 14.194C9.44775 14.3352 9.49624 14.4182 9.57857 14.4182C9.65052 14.4182 9.70938 14.4591 9.70938 14.5091C9.70938 14.6012 9.83592 14.777 10.0395 14.9674C10.3085 15.2192 10.3977 15.2903 10.4445 15.2903C10.5652 15.2903 10.8431 15.6551 10.8431 15.8135C10.8431 15.9734 10.9013 15.988 11.5408 15.988H12.2385V15.5519C12.2385 15.1484 12.2227 15.1159 12.0266 15.1159C11.9102 15.1159 11.756 15.057 11.6841 14.9851C11.6121 14.9131 11.5154 14.8542 11.4693 14.8542C11.3466 14.8542 11.2615 14.4354 11.3252 14.1454C11.3555 14.0076 11.4191 13.8949 11.4667 13.8949C11.5143 13.8949 11.6121 13.8361 11.6841 13.7641C11.756 13.6922 11.9102 13.6333 12.0266 13.6333C12.2224 13.6333 12.2385 13.6006 12.2385 13.2009V12.7685L11.5626 12.7431L10.8867 12.7176L10.8604 12.2598C10.8363 11.8422 10.8156 11.8019 10.6251 11.8019C10.4345 11.8019 10.4139 11.8422 10.3898 12.2598ZM5.69775 12.4996V12.7612H6.61345H7.52915V12.4996V12.238H6.61345H5.69775V12.4996ZM17.4154 12.3688C17.3877 12.4407 17.3882 12.5599 17.4165 12.6335C17.459 12.7441 17.6231 12.7631 18.3633 12.7425L19.2588 12.7176L19.2864 12.4778L19.314 12.238H18.3898C17.6487 12.238 17.4556 12.2639 17.4154 12.3688ZM12.7436 13.4371L12.7181 14.113L12.2603 14.1393C11.8427 14.1634 11.8024 14.184 11.8024 14.3746C11.8024 14.5651 11.8427 14.5858 12.2603 14.6099L12.7181 14.6362L12.7436 15.3121L12.769 15.988H13.463C14.0989 15.988 14.1571 15.9733 14.1571 15.8135C14.1571 15.6551 14.435 15.2903 14.5557 15.2903C14.6024 15.2903 14.6916 15.2192 14.9607 14.9674C15.1581 14.7827 15.2908 14.6023 15.2908 14.5184C15.2908 14.4736 15.3496 14.4143 15.4216 14.3866C15.4935 14.3591 15.5524 14.254 15.5524 14.1531C15.5524 14.0522 15.6113 13.9108 15.6832 13.8389C15.7552 13.7669 15.814 13.5931 15.814 13.4527C15.814 13.3122 15.8533 13.1973 15.9012 13.1973C15.9492 13.1973 15.9885 13.0992 15.9885 12.9792C15.9885 12.7758 15.9594 12.7612 15.5524 12.7612C15.1489 12.7612 15.1164 12.777 15.1164 12.9731C15.1164 13.0895 15.0575 13.2437 14.9855 13.3156C14.9136 13.3876 14.8547 13.4885 14.8547 13.5399C14.8547 13.595 14.658 13.6333 14.3751 13.6333C14.0922 13.6333 13.8954 13.595 13.8954 13.5399C13.8954 13.4885 13.8366 13.3876 13.7646 13.3156C13.6927 13.2437 13.6338 13.0895 13.6338 12.9731C13.6338 12.7773 13.6011 12.7612 13.2014 12.7612H12.769L12.7436 13.4371ZM7.79078 14.932C7.79078 14.9748 7.69267 15.0344 7.57275 15.0645C7.45284 15.0946 7.35473 15.1577 7.35473 15.2047C7.35473 15.2518 7.25662 15.2903 7.13671 15.2903C7.00101 15.2903 6.91868 15.3397 6.91868 15.4211C6.91868 15.4931 6.85982 15.5519 6.78787 15.5519C6.7065 15.5519 6.65706 15.6342 6.65706 15.7699C6.65706 15.9444 6.70066 15.988 6.87508 15.988C6.99499 15.988 7.0931 15.953 7.0931 15.9102C7.0931 15.8674 7.19121 15.8078 7.31113 15.7777C7.43104 15.7476 7.52915 15.6845 7.52915 15.6375C7.52915 15.5904 7.60764 15.5519 7.70357 15.5519C7.7995 15.5519 7.87799 15.5135 7.87799 15.4664C7.87799 15.4194 7.9761 15.3562 8.09601 15.3261C8.25255 15.2868 8.31403 15.2126 8.31403 15.0628C8.31403 14.8892 8.27017 14.8542 8.05241 14.8542C7.90851 14.8542 7.79078 14.8892 7.79078 14.932ZM16.6861 15.0628C16.6861 15.2126 16.7476 15.2868 16.9042 15.3261C17.0241 15.3562 17.1222 15.4194 17.1222 15.4664C17.1222 15.5135 17.2007 15.5519 17.2966 15.5519C17.3925 15.5519 17.471 15.5904 17.471 15.6375C17.471 15.6845 17.5691 15.7476 17.689 15.7777C17.8089 15.8078 17.9071 15.8674 17.9071 15.9102C17.9071 15.953 18.0052 15.988 18.1251 15.988C18.2995 15.988 18.3431 15.9444 18.3431 15.7699C18.3431 15.6342 18.2937 15.5519 18.2123 15.5519C18.1403 15.5519 18.0815 15.4931 18.0815 15.4211C18.0815 15.3397 17.9992 15.2903 17.8635 15.2903C17.7435 15.2903 17.6454 15.2518 17.6454 15.2047C17.6454 15.1577 17.5473 15.0946 17.4274 15.0645C17.3075 15.0344 17.2094 14.9748 17.2094 14.932C17.2094 14.8892 17.0917 14.8542 16.9478 14.8542C16.73 14.8542 16.6861 14.8892 16.6861 15.0628ZM11.3664 16.7292V16.9473H12.5001H13.6338V16.7292V16.5112H12.5001H11.3664V16.7292ZM11.3664 17.6449V17.9066H12.5001H13.6338V17.6449V17.3833H12.5001H11.3664V17.6449ZM11.9768 18.4734C11.9768 18.5454 12.0357 18.6042 12.1076 18.6042C12.1796 18.6042 12.2385 18.6435 12.2385 18.6915C12.2385 18.7394 12.3562 18.7787 12.5001 18.7787C12.644 18.7787 12.7617 18.7394 12.7617 18.6915C12.7617 18.6435 12.8206 18.6042 12.8925 18.6042C12.9645 18.6042 13.0233 18.5454 13.0233 18.4734C13.0233 18.3717 12.9071 18.3426 12.5001 18.3426C12.0931 18.3426 11.9768 18.3717 11.9768 18.4734Z" fill="#26A387"/>
</g>
<line x1="6.43731" y1="1.7576" x2="18.2085" y2="22.9934" stroke="#26A387"/>
<defs>
<clipPath id="clip0_384_10049">
<rect width="15" height="15" fill="white" transform="translate(5 5)"/>
</clipPath>
</defs>
</svg>
