<svg width="35" height="35" viewBox="0 0 35 35" fill="none" xmlns="http://www.w3.org/2000/svg">
<path fill-rule="evenodd" clip-rule="evenodd" d="M16.9746 3.84961V6.03711H17.4996H18.0246V3.84961V1.66211H17.4996H16.9746V3.84961ZM9.27461 4.37461C9.27461 4.89567 9.27653 4.89961 9.52853 4.89961C9.77345 4.89961 9.78456 4.91798 9.84275 5.41953C9.89848 5.89938 9.92106 5.94165 10.1358 5.96641C10.3274 5.98863 10.3732 6.0435 10.3957 6.27773C10.4199 6.52781 10.4542 6.56211 10.6801 6.56211C10.9359 6.56211 10.9371 6.56465 10.9371 7.08711V7.61211H11.4621H11.9871V7.08711C11.9871 6.59116 11.9755 6.56211 11.7769 6.56211C11.5852 6.56211 11.5614 6.51617 11.5059 6.03711C11.447 5.53005 11.4362 5.51211 11.191 5.51211H10.9371V4.94336V4.37461H10.6746C10.4412 4.37461 10.4121 4.34547 10.4121 4.11211V3.84961H9.84336H9.27461V4.37461ZM24.5871 4.11211C24.5871 4.34547 24.558 4.37461 24.3246 4.37461H24.0621V4.94336V5.51211H23.8082C23.563 5.51211 23.5522 5.53005 23.4934 6.03711C23.4378 6.51617 23.414 6.56211 23.2223 6.56211C23.0237 6.56211 23.0121 6.59116 23.0121 7.08711V7.61211H23.5371H24.0621V7.08711C24.0621 6.56465 24.0633 6.56211 24.3191 6.56211C24.545 6.56211 24.5793 6.52781 24.6035 6.27773C24.626 6.0435 24.6718 5.98863 24.8634 5.96641C25.0782 5.94165 25.1007 5.89938 25.1565 5.41953C25.2147 4.91798 25.2258 4.89961 25.4707 4.89961C25.7227 4.89961 25.7246 4.89567 25.7246 4.37461V3.84961H25.1559H24.5871V4.11211ZM15.3121 8.48711V8.74961H14.4809H13.6496V9.01211V9.27461H13.1246H12.5996V9.84336V10.4121L13.059 10.4111C13.8775 10.4094 14.1746 10.3278 14.1746 10.1046C14.1746 9.92657 14.2297 9.90163 14.7434 9.8466C15.2636 9.79086 15.3121 9.76828 15.3121 9.58138C15.3121 9.39125 15.3569 9.37287 15.9549 9.31678C17.0161 9.21738 16.9273 9.07143 16.9547 10.9601L16.9785 12.5996H18.0703H19.1621V13.1246V13.6496H18.0684H16.9746V15.3121V16.9746H15.8809H14.7871V16.5494C14.7871 16.3154 14.7621 15.9413 14.7315 15.7181C14.68 15.3426 14.657 15.3121 14.4252 15.3121C14.2051 15.3121 14.1746 15.2802 14.1746 15.0496V14.7871H13.1246H12.0746V15.0496C12.0746 15.2802 12.0442 15.3121 11.824 15.3121C11.5922 15.3121 11.5692 15.3426 11.5178 15.7181C11.4871 15.9413 11.4621 16.3166 11.4621 16.552V16.98L10.3913 16.9554C9.15307 16.927 9.21992 16.9892 9.31678 15.9549C9.37287 15.3569 9.39125 15.3121 9.58138 15.3121C9.76828 15.3121 9.79086 15.2636 9.8466 14.7434C9.90163 14.2297 9.92657 14.1746 10.1046 14.1746C10.3278 14.1746 10.4094 13.8775 10.4111 13.059L10.4121 12.5996H9.84336H9.27461V13.1246V13.6496H9.01211H8.74961V14.4809V15.3121H8.48711H8.22461V17.4996V19.6871H8.48711H8.74961V20.5184V21.3496H9.01211H9.27461V21.8746C9.27461 22.3971 9.27583 22.3996 9.5316 22.3996C9.75752 22.3996 9.79182 22.4339 9.81597 22.684C9.83863 22.9197 9.88387 22.973 10.0802 22.9957C10.3003 23.021 10.3214 23.0601 10.376 23.5425C10.4325 24.0427 10.4441 24.0621 10.6859 24.0621C10.9042 24.0621 10.9371 24.095 10.9371 24.3133C10.9371 24.5551 10.9565 24.5667 11.4567 24.6232C11.9392 24.6778 11.9782 24.6989 12.0036 24.919C12.0262 25.1153 12.0795 25.1606 12.3152 25.1832L12.5996 25.2107V25.9926V26.7746H13.1246H13.6496V27.3434V27.9121H13.1246H12.5996V28.4371V28.9621H13.1246H13.6496V30.0559V31.1496H14.2184H14.7871V31.4559C14.7871 31.7378 14.8079 31.7621 15.0496 31.7621H15.3121V32.2871V32.8121H15.8371H16.3621V33.0746V33.3371H17.4996H18.6371V33.0746V32.8121H19.1621H19.6871V32.2871V31.7621H19.9496C20.1913 31.7621 20.2121 31.7378 20.2121 31.4559V31.1496H20.7809H21.3496V30.0559V28.9621H21.8746H22.3996V28.4371V27.9121H21.8746H21.3496V27.3434V26.7746H21.8746H22.3996V25.9926V25.2107L22.684 25.1832C22.9341 25.1592 22.9717 25.1216 22.9957 24.8715C23.0199 24.6214 23.0542 24.5871 23.2801 24.5871C23.5074 24.5871 23.5371 24.5567 23.5371 24.3246C23.5371 24.0912 23.5662 24.0621 23.7996 24.0621C24.0317 24.0621 24.0621 24.0324 24.0621 23.8051C24.0621 23.5792 24.0964 23.5449 24.3465 23.5207C24.5817 23.4981 24.6356 23.4527 24.6581 23.2581C24.6791 23.0762 24.7387 23.0166 24.9206 22.9956C25.1152 22.9731 25.1606 22.9192 25.1832 22.684C25.2074 22.4339 25.2417 22.3996 25.4676 22.3996C25.7234 22.3996 25.7246 22.3971 25.7246 21.8746V21.3496H25.9871H26.2496V20.5184V19.6871H26.5121H26.7746V17.4996V15.3121H26.5121H26.2496V14.4809V13.6496H25.9871H25.7246V13.1246C25.7246 12.6021 25.7234 12.5996 25.4676 12.5996C25.2417 12.5996 25.2074 12.5653 25.1832 12.3152C25.1606 12.0795 25.1153 12.0262 24.919 12.0036C24.6989 11.9782 24.6778 11.9392 24.6232 11.4567L24.5645 10.9371H24.0563H23.5482L23.5207 10.6527C23.4981 10.4175 23.4527 10.3636 23.2581 10.3411C23.0762 10.3201 23.0166 10.2606 22.9956 10.0786C22.9731 9.88405 22.9192 9.83863 22.684 9.81597C22.4339 9.79182 22.3996 9.75752 22.3996 9.5316C22.3996 9.27583 22.3971 9.27461 21.8746 9.27461H21.3496V9.01211V8.74961H20.5184H19.6871V8.48711V8.22461H17.4996H15.3121V8.48711ZM3.84961 9.84336V10.4121H4.11211C4.34547 10.4121 4.37461 10.4412 4.37461 10.6746V10.9371H4.94336H5.51211V11.191C5.51211 11.4362 5.53005 11.447 6.03711 11.5059C6.51617 11.5614 6.56211 11.5852 6.56211 11.7769C6.56211 11.9755 6.59116 11.9871 7.08711 11.9871H7.61211V11.4621V10.9371H7.08711C6.56465 10.9371 6.56211 10.9359 6.56211 10.6801C6.56211 10.4542 6.52781 10.4199 6.27773 10.3957C6.0435 10.3732 5.98863 10.3274 5.96641 10.1358C5.94165 9.92106 5.89938 9.89848 5.41953 9.84275C4.91798 9.78456 4.89961 9.77345 4.89961 9.52853C4.89961 9.27653 4.89567 9.27461 4.37461 9.27461H3.84961V9.84336ZM18.083 9.33297C18.0509 9.365 18.0246 9.85718 18.0246 10.4267V11.4621H18.4499C18.6838 11.4621 19.0579 11.4871 19.2811 11.5178C19.6567 11.5692 19.6871 11.5922 19.6871 11.824C19.6871 12.0442 19.719 12.0746 19.9496 12.0746H20.2121V13.1246V14.1746H19.9496C19.719 14.1746 19.6871 14.2051 19.6871 14.4252C19.6871 14.657 19.6567 14.68 19.2811 14.7315C19.0579 14.7621 18.6838 14.7871 18.4499 14.7871H18.0246V15.8809V16.9746H19.6871H21.3496V18.0684V19.1621H21.8746H22.3996V18.0684V16.9746H24.0132C25.013 16.9746 25.6477 16.9407 25.6818 16.8856C25.7121 16.8366 25.7098 16.5807 25.6769 16.3169C25.6231 15.8864 25.5955 15.8371 25.4083 15.8371C25.2212 15.8371 25.1995 15.7985 25.1988 15.4652C25.1985 15.2607 25.1733 14.8866 25.1429 14.634C25.0942 14.2282 25.0642 14.1746 24.8855 14.1746C24.7033 14.1746 24.6774 14.1227 24.6239 13.6496C24.5666 13.1437 24.5554 13.1246 24.3133 13.1246C24.0846 13.1246 24.0621 13.0972 24.0621 12.8184C24.0621 12.5391 24.0398 12.5121 23.8097 12.5121C23.5697 12.5121 23.5543 12.4887 23.4978 12.0365L23.4384 11.5608L22.9628 11.5014C22.5106 11.4449 22.4871 11.4295 22.4871 11.1895C22.4871 10.9594 22.4601 10.9371 22.1809 10.9371C21.902 10.9371 21.8746 10.9146 21.8746 10.6859C21.8746 10.4438 21.8555 10.4326 21.3496 10.3754C20.8748 10.3216 20.8246 10.2963 20.8246 10.1117C20.8246 9.92491 20.776 9.90225 20.2559 9.8466C19.7399 9.7913 19.6871 9.76715 19.6871 9.58611C19.6871 9.41067 19.6315 9.37978 19.2277 9.33131C18.6284 9.2593 18.1559 9.26 18.083 9.33297ZM30.0996 9.52853C30.0996 9.77345 30.0812 9.78456 29.5797 9.84275C29.0998 9.89848 29.0576 9.92106 29.0328 10.1358C29.0106 10.3274 28.9557 10.3732 28.7215 10.3957C28.4714 10.4199 28.4371 10.4542 28.4371 10.6801C28.4371 10.9359 28.4346 10.9371 27.9121 10.9371H27.3871V11.4621V11.9871H27.9121C28.4081 11.9871 28.4371 11.9755 28.4371 11.7769C28.4371 11.5852 28.483 11.5614 28.9621 11.5059C29.4692 11.447 29.4871 11.4362 29.4871 11.191V10.9371H30.0559H30.6246V10.6746C30.6246 10.4412 30.6537 10.4121 30.8871 10.4121H31.1496V9.84336V9.27461H30.6246C30.1035 9.27461 30.0996 9.27653 30.0996 9.52853ZM10.9371 11.4621V11.9871H11.1996C11.433 11.9871 11.4621 11.958 11.4621 11.7246C11.4621 11.4912 11.4912 11.4621 11.7246 11.4621C11.958 11.4621 11.9871 11.433 11.9871 11.1996V10.9371H11.4621H10.9371V11.4621ZM12.5996 16.9289V18.0208L10.959 18.0446L9.31836 18.0684V18.5934C9.31836 19.101 9.32632 19.1192 9.55898 19.146C9.77861 19.1713 9.7997 19.2057 9.8004 19.5398C9.80075 19.7411 9.82595 20.1126 9.85631 20.3652C9.90505 20.771 9.93506 20.8246 10.1137 20.8246C10.2959 20.8246 10.3218 20.8765 10.3754 21.3496C10.4326 21.8555 10.4438 21.8746 10.6859 21.8746C10.9343 21.8746 10.9371 21.8804 10.9371 22.3941V22.9135L11.2215 22.941C11.4567 22.9636 11.5106 23.009 11.5331 23.2036C11.5541 23.3856 11.6137 23.4451 11.7956 23.4661C11.9902 23.4886 12.0356 23.5425 12.0582 23.7777L12.0857 24.0621H12.6051C13.124 24.0621 13.1246 24.0625 13.1246 24.3246C13.1246 24.558 13.1537 24.5871 13.3871 24.5871H13.6496V25.1559V25.7246H15.3121H16.9746V24.6309V23.5371H16.5494C16.3154 23.5371 15.9413 23.5121 15.7181 23.4815C15.3426 23.43 15.3121 23.407 15.3121 23.1752C15.3121 22.9551 15.2802 22.9246 15.0496 22.9246H14.7871V21.8746V20.8246H15.0496C15.2802 20.8246 15.3121 20.7942 15.3121 20.574C15.3121 20.3422 15.3426 20.3192 15.7181 20.2678C15.9413 20.2371 16.3154 20.2121 16.5494 20.2121H16.9746V19.1184V18.0246H15.3121H13.6496V16.9309V15.8371H13.1246H12.5996V16.9289ZM1.66211 17.4996V18.0246H3.84961H6.03711V17.4996V16.9746H3.84961H1.66211V17.4996ZM28.9621 17.4996V18.0246H31.1496H33.3371V17.4996V16.9746H31.1496H28.9621V17.4996ZM18.0246 19.6871V21.3496H16.9309H15.8371V21.8746V22.3996H16.9309H18.0246V24.0621V25.7246H19.6871H21.3496V25.1559V24.5871H21.6121C21.8455 24.5871 21.8746 24.558 21.8746 24.3246C21.8746 24.0625 21.8752 24.0621 22.3941 24.0621H22.9135L22.941 23.7777C22.9636 23.5426 23.009 23.4886 23.2034 23.4662C23.4175 23.4415 23.4436 23.3968 23.4978 22.9631C23.5543 22.5106 23.5697 22.4871 23.8097 22.4871C24.0398 22.4871 24.0621 22.4601 24.0621 22.1809C24.0621 21.902 24.0846 21.8746 24.3133 21.8746C24.5554 21.8746 24.5666 21.8555 24.6239 21.3496C24.6774 20.8765 24.7033 20.8246 24.8855 20.8246C25.0642 20.8246 25.0942 20.771 25.1429 20.3652C25.1733 20.1126 25.1985 19.7411 25.1988 19.5398C25.1995 19.2057 25.2206 19.1713 25.4402 19.146C25.6729 19.1192 25.6809 19.101 25.6809 18.5934V18.0684L24.609 18.0438L23.5371 18.0192V18.4472C23.5371 18.6826 23.5121 19.0579 23.4815 19.2811C23.43 19.6567 23.407 19.6871 23.1752 19.6871C22.9551 19.6871 22.9246 19.719 22.9246 19.9496V20.2121H21.8746H20.8246V19.9496C20.8246 19.719 20.7942 19.6871 20.574 19.6871C20.3422 19.6871 20.3192 19.6567 20.2678 19.2811C20.2371 19.0579 20.2121 18.6838 20.2121 18.4499V18.0246H19.1184H18.0246V19.6871ZM6.56211 23.2223C6.56211 23.414 6.51617 23.4378 6.03711 23.4934C5.53005 23.5522 5.51211 23.563 5.51211 23.8082V24.0621H4.94336H4.37461V24.3246C4.37461 24.558 4.34547 24.5871 4.11211 24.5871H3.84961V25.1559V25.7246H4.37461C4.89567 25.7246 4.89961 25.7227 4.89961 25.4707C4.89961 25.2258 4.91798 25.2147 5.41953 25.1565C5.89938 25.1007 5.94165 25.0782 5.96641 24.8634C5.98863 24.6718 6.0435 24.626 6.27773 24.6035C6.52781 24.5793 6.56211 24.545 6.56211 24.3191C6.56211 24.0633 6.56465 24.0621 7.08711 24.0621H7.61211V23.5371V23.0121H7.08711C6.59116 23.0121 6.56211 23.0237 6.56211 23.2223ZM27.3871 23.5371V24.0621H27.9121C28.4346 24.0621 28.4371 24.0633 28.4371 24.3191C28.4371 24.545 28.4714 24.5793 28.7215 24.6035C28.9557 24.626 29.0106 24.6718 29.0328 24.8634C29.0576 25.0782 29.0998 25.1007 29.5797 25.1565C30.0812 25.2147 30.0996 25.2258 30.0996 25.4707C30.0996 25.7227 30.1035 25.7246 30.6246 25.7246H31.1496V25.1559V24.5871H30.8871C30.6537 24.5871 30.6246 24.558 30.6246 24.3246V24.0621H30.0559H29.4871V23.8082C29.4871 23.563 29.4692 23.5522 28.9621 23.4934C28.483 23.4378 28.4371 23.414 28.4371 23.2223C28.4371 23.0237 28.4081 23.0121 27.9121 23.0121H27.3871V23.5371ZM14.7871 27.3434V27.9121H17.4996H20.2121V27.3434V26.7746H17.4996H14.7871V27.3434ZM14.7871 29.5309V30.0996H17.4996H20.2121V29.5309V28.9621H17.4996H14.7871V29.5309ZM16.1652 31.2123C15.9786 31.2405 15.9246 31.2965 15.9246 31.4616C15.9246 31.64 15.9674 31.6746 16.1871 31.6746C16.4185 31.6746 16.4496 31.7047 16.4496 31.9285C16.4496 32.1737 16.4675 32.1845 16.9746 32.2434C17.2634 32.2769 17.7359 32.2769 18.0246 32.2434C18.5317 32.1845 18.5496 32.1737 18.5496 31.9285C18.5496 31.7047 18.5808 31.6746 18.8121 31.6746C19.0299 31.6746 19.0746 31.6393 19.0746 31.4673C19.0746 31.2957 19.0181 31.2507 18.7465 31.2058C18.3941 31.1475 16.5622 31.1521 16.1652 31.2123Z" fill="#26A387"/>
</svg>
