<svg width="25" height="25" viewBox="0 0 25 25" fill="none" xmlns="http://www.w3.org/2000/svg">
<g clip-path="url(#clip0_384_10059)">
<path fill-rule="evenodd" clip-rule="evenodd" d="M19.954 0.587004C19.7631 0.703139 19.4982 0.897997 19.3652 1.01981C19.2322 1.14179 19.0615 1.24144 18.9856 1.24144C18.9099 1.24144 18.7056 1.55704 18.5317 1.94268C18.146 2.798 18.1427 4.36165 18.5255 4.7847C18.6732 4.94782 18.7941 5.14073 18.7941 5.21307C18.7941 5.44108 19.2893 5.85137 19.5645 5.85137C19.7097 5.85137 19.8569 5.937 19.8918 6.04179C19.9783 6.30119 22.3948 6.30793 22.4811 6.04888C22.5175 5.9402 22.6239 5.85137 22.7177 5.85137C23.2028 5.85137 24.2905 4.12654 24.2905 3.35739C24.2905 2.82832 23.8042 1.7659 23.4028 1.41768C23.2085 1.24906 23.0494 1.02087 23.0494 0.910408C23.0494 0.799947 22.8946 0.709522 22.7053 0.709522C22.5159 0.709522 22.3118 0.629734 22.2515 0.532217C22.1003 0.287358 20.379 0.328493 19.954 0.587004ZM4.16643 1.47991C3.44072 1.75367 2.71501 2.60296 2.59976 3.31324C2.48806 4.00154 2.64285 5.14215 2.84781 5.14215C2.92601 5.14215 3.04072 5.30172 3.1026 5.49676C3.16448 5.69179 3.36271 5.85137 3.54303 5.85137C3.72335 5.85137 3.90136 5.9425 3.93842 6.05403C4.02884 6.3253 6.07707 6.3253 6.16749 6.05403C6.20455 5.9425 6.31182 5.85137 6.40562 5.85137C6.49941 5.85137 6.77193 5.65544 7.01129 5.41608C7.38487 5.04268 7.44657 4.81626 7.44657 3.82034C7.44657 3.18204 7.37211 2.65988 7.28115 2.65988C7.19019 2.65988 7.06519 2.5003 7.00331 2.30527C6.94143 2.11023 6.77654 1.95066 6.63682 1.95066C6.4971 1.95066 6.38274 1.88683 6.38274 1.80899C6.38274 1.64161 5.31696 1.2331 4.95171 1.26023C4.81235 1.27069 4.45898 1.36945 4.16643 1.47991ZM20.2125 1.41874C20.2125 1.51626 20.053 1.59605 19.8579 1.59605C19.6216 1.59605 19.5033 1.71431 19.5033 1.95066C19.5033 2.14569 19.4235 2.30527 19.326 2.30527C19.2271 2.30527 19.1487 2.78754 19.1487 3.39764C19.1487 4.40137 19.1944 4.5308 19.7125 4.99339C20.4712 5.67069 21.8253 5.71041 22.5618 5.0769C22.8299 4.8464 23.0494 4.56715 23.0494 4.45669C23.0494 4.34605 23.1292 4.25562 23.2267 4.25562C23.3242 4.25562 23.404 3.89658 23.404 3.45775C23.404 3.01892 23.3242 2.65988 23.2267 2.65988C23.1292 2.65988 23.0494 2.53452 23.0494 2.38133C23.0494 2.07477 22.7971 1.80119 22.2028 1.46307C21.7389 1.19924 20.2125 1.1652 20.2125 1.41874ZM3.90047 2.57122C3.90047 2.7175 3.82069 2.83718 3.72317 2.83718C3.62565 2.83718 3.54586 3.28665 3.54586 3.83594C3.54586 5.05261 3.93452 5.49676 4.99923 5.49676C6.03097 5.49676 6.65402 4.85332 6.63168 3.81076C6.60827 2.71342 6.12476 2.30527 4.84852 2.30527C4.12406 2.30527 3.90047 2.36803 3.90047 2.57122ZM11.0262 2.61555C11.0796 2.89303 11.3833 2.93098 13.8968 2.97477C16.6125 3.02211 17.1983 2.9308 17.1983 2.46094C17.1983 2.3753 15.7962 2.30527 14.0826 2.30527C11.2106 2.30527 10.9714 2.32956 11.0262 2.61555ZM21.4537 2.57122C21.4537 2.7175 21.3739 2.83718 21.2764 2.83718C21.1788 2.83718 21.0991 2.95846 21.0991 3.10651C21.0991 3.30119 20.9827 3.34676 20.6799 3.27069C20.0505 3.11271 19.9354 3.64002 20.4803 4.18488L20.9218 4.62637L21.321 4.21927C22.3611 3.15934 22.618 2.30527 21.8969 2.30527C21.621 2.30527 21.4537 2.4058 21.4537 2.57122ZM10.9927 5.49676C10.9927 5.83168 11.1109 5.85137 13.1203 5.85137C15.1297 5.85137 15.248 5.83168 15.248 5.49676C15.248 5.16183 15.1297 5.14215 13.1203 5.14215C11.1109 5.14215 10.9927 5.16183 10.9927 5.49676ZM1.95012 7.62442C1.95012 7.72193 1.85047 7.80278 1.72849 7.80385C1.60668 7.80509 1.32742 8.08328 1.10792 8.42193C0.727956 9.00864 0.708984 9.20669 0.708984 12.6001V16.1624L1.22725 16.6806C1.53186 16.9852 1.93381 17.1989 2.20242 17.1989H2.65934V20.9223V24.6457H5.05296H7.44657V20.9223C7.44657 17.8673 7.49072 17.1989 7.69232 17.1989C8.15668 17.1989 8.89888 16.6998 9.14781 16.2202C9.44959 15.6382 9.51395 9.13612 9.21962 8.9542C9.1221 8.89392 9.04232 8.72388 9.04232 8.57654C9.04232 8.26679 8.62423 7.80172 8.34569 7.80172C8.24125 7.80172 8.15579 7.72193 8.15579 7.62442C8.15579 7.51289 7.00331 7.44711 5.05296 7.44711C3.1026 7.44711 1.95012 7.51289 1.95012 7.62442ZM20.2125 7.97903C20.2125 8.07654 20.0893 8.15633 19.9386 8.15633C19.6751 8.15633 18.7941 8.91059 18.7941 9.13612C18.7941 9.19622 18.6744 9.3652 18.5281 9.51147C18.2609 9.77867 18.1992 10.1984 18.2579 11.3478C18.3134 12.4322 19.3363 13.6528 20.1897 13.6528C20.4785 13.6528 20.7483 13.7526 20.7895 13.8744C20.8491 14.0517 20.9875 14.0517 21.4817 13.8744C21.8214 13.7526 22.1962 13.6528 22.3143 13.6528C22.9386 13.6528 24.2905 11.6411 24.2905 10.7124C24.2905 9.84091 23.0512 8.15633 22.41 8.15633C22.2741 8.15633 22.1629 8.07654 22.1629 7.97903C22.1629 7.88151 21.7241 7.80172 21.1877 7.80172C20.6514 7.80172 20.2125 7.88151 20.2125 7.97903ZM2.17175 8.27371C2.04994 8.323 1.95012 8.47619 1.95012 8.61431C1.95012 8.75243 1.87033 8.86555 1.77281 8.86555C1.66058 8.86555 1.59551 10.1404 1.59551 12.3356C1.59551 15.212 1.64179 15.8521 1.86643 16.0767C2.08257 16.2929 2.19001 16.3038 2.39835 16.131C2.60792 15.957 2.65934 15.3632 2.65934 13.1136C2.65934 9.8941 2.70455 9.64232 3.20508 10.071C3.53008 10.3492 3.54586 10.6725 3.54586 17.0609V23.7592H4.07778H4.60969V20.1349C4.60969 18.1414 4.68221 16.4657 4.77104 16.4109C4.85969 16.3562 5.05916 16.3599 5.2143 16.4195C5.45916 16.5134 5.49622 17.0017 5.49622 20.1434V23.7592H6.02601H6.55579L6.60225 16.9773L6.6487 10.1953L7.04764 10.1386L7.44657 10.082V13.1971C7.44657 15.9109 7.48239 16.3124 7.72512 16.3124C8.43576 16.3124 8.5104 15.9427 8.5104 12.4242C8.5104 10.2882 8.44515 9.04286 8.3331 9.04286C8.23558 9.04286 8.15579 8.95739 8.15579 8.85296C8.15579 8.26378 7.662 8.15633 5.02122 8.17034C3.57601 8.17796 2.29374 8.22459 2.17175 8.27371ZM19.8038 9.28842C19.1966 9.84463 19.1487 9.96183 19.1487 10.8902C19.1487 11.7718 19.2131 11.9547 19.6866 12.4177C20.1515 12.8719 20.3577 12.9436 21.2019 12.9436C22.003 12.9436 22.2574 12.8652 22.6141 12.5083C22.8535 12.2689 23.0494 11.9897 23.0494 11.8877C23.0494 11.7858 23.1292 11.7024 23.2267 11.7024C23.3242 11.7024 23.404 11.3434 23.404 10.9046C23.404 10.4657 23.3242 10.1067 23.2267 10.1067C23.1292 10.1067 23.0494 9.98133 23.0494 9.82814C23.0494 9.27335 22.0163 8.68825 21.0366 8.68825C20.6276 8.68825 20.268 8.86325 19.8038 9.28842ZM10.9927 9.39747C10.9927 9.7386 11.1109 9.75208 14.0955 9.75208C17.0801 9.75208 17.1983 9.7386 17.1983 9.39747C17.1983 9.05633 17.0801 9.04286 14.0955 9.04286C11.1109 9.04286 10.9927 9.05633 10.9927 9.39747ZM21.5051 10.1067C21.454 10.3017 21.3418 10.4613 21.2556 10.4613C21.1696 10.4613 21.0991 10.581 21.0991 10.7273C21.0991 11.0366 20.8943 11.0721 20.6306 10.8085C20.5022 10.6801 20.3819 10.7005 20.2374 10.8746C19.992 11.1703 20.1498 11.7024 20.4827 11.7024C20.6104 11.7024 20.7491 11.8023 20.7909 11.9241C20.8379 12.0613 21.0803 11.9093 21.4267 11.5251C22.3054 10.5514 22.3402 10.4976 22.3402 10.1141C22.3402 9.62459 21.6327 9.61821 21.5051 10.1067ZM11.2143 11.9971C10.9022 12.123 10.9384 12.5303 11.2732 12.6586C11.6361 12.798 16.2772 12.7945 16.7994 12.6546C17.0187 12.5957 17.1983 12.4466 17.1983 12.323C17.1983 12.1994 17.0187 12.0503 16.7994 11.9914C16.3235 11.864 11.5324 11.8689 11.2143 11.9971ZM20.7444 15.4258C20.7444 15.5234 20.5015 15.6031 20.2046 15.6031C19.7235 15.6031 18.7941 16.2489 18.7941 16.5829C18.7941 16.643 18.6744 16.812 18.5281 16.9583C18.1421 17.3443 18.1682 19.29 18.5671 19.8632C19.0615 20.5739 19.6446 21.0996 19.9386 21.0996C20.0893 21.0996 20.2125 21.1794 20.2125 21.2769C20.2125 21.3744 20.6115 21.4542 21.0991 21.4542C21.5866 21.4542 21.9856 21.3744 21.9856 21.2769C21.9856 21.1794 22.1907 21.0996 22.4414 21.0996C22.9005 21.0996 23.404 20.7429 23.404 20.4179C23.404 20.3214 23.4639 20.2161 23.537 20.1835C23.7968 20.068 24.2905 18.9989 24.2905 18.5517C24.2905 17.3616 22.9193 15.6031 21.9914 15.6031C21.6957 15.6031 21.4537 15.5234 21.4537 15.4258C21.4537 15.3283 21.2941 15.2485 21.0991 15.2485C20.904 15.2485 20.7444 15.3283 20.7444 15.4258ZM10.9927 16.2934C10.9927 16.478 11.1189 16.6774 11.2732 16.7366C11.4274 16.7959 12.7097 16.8443 14.1226 16.8443C16.1129 16.8443 16.7489 16.7872 16.945 16.5909C17.5154 16.0207 17.2322 15.9577 14.0955 15.9577C11.1693 15.9577 10.9927 15.9769 10.9927 16.2934ZM20.2226 16.4413C20.0819 16.4968 19.7827 16.7262 19.5577 16.951C19.2207 17.2881 19.1487 17.5489 19.1487 18.432C19.1487 19.0283 19.2274 19.5038 19.326 19.5038C19.4235 19.5038 19.5033 19.6138 19.5033 19.748C19.5033 19.8822 19.8983 20.162 20.3813 20.3698C21.2338 20.7365 21.2787 20.7384 21.9327 20.4359C22.7585 20.054 23.0494 19.7914 23.0494 19.4278C23.0494 19.2746 23.1292 19.1492 23.2267 19.1492C23.3242 19.1492 23.404 18.7902 23.404 18.3514C23.404 17.9125 23.3242 17.5535 23.2267 17.5535C23.1292 17.5535 23.0475 17.414 23.045 17.2432C23.0363 16.6186 21.14 16.0797 20.2226 16.4413ZM10.9927 19.1492C10.9927 19.4723 11.1109 19.5038 12.3225 19.5038C13.534 19.5038 13.6522 19.4723 13.6522 19.1492C13.6522 18.8262 13.534 18.7946 12.3225 18.7946C11.1109 18.7946 10.9927 18.8262 10.9927 19.1492Z" fill="#26A387"/>
</g>
<defs>
<clipPath id="clip0_384_10059">
<rect width="25" height="25" fill="white"/>
</clipPath>
</defs>
</svg>
