<svg width="25" height="25" viewBox="0 0 25 25" fill="none" xmlns="http://www.w3.org/2000/svg">
<g clip-path="url(#clip0_384_7855)">
<path fill-rule="evenodd" clip-rule="evenodd" d="M12.4454 0.163755C12.4454 0.253821 12.3717 0.327511 12.2817 0.327511C12.1907 0.327511 12.1179 0.424563 12.1179 0.545852C12.1179 0.691375 12.0451 0.764192 11.8996 0.764192C11.7228 0.764192 11.6812 0.837009 11.6812 1.14629C11.6812 1.3988 11.63 1.52838 11.5302 1.52838C11.4472 1.52838 11.3535 1.62664 11.3221 1.74672C11.2907 1.86681 11.1867 1.96507 11.091 1.96507C10.965 1.96507 10.917 2.07031 10.917 2.34716C10.917 2.65644 10.8754 2.72926 10.6987 2.72926C10.5532 2.72926 10.4803 2.80207 10.4803 2.9476C10.4803 3.06889 10.4075 3.16594 10.3166 3.16594C10.2074 3.16594 10.1528 3.27511 10.1528 3.49345C10.1528 3.72031 10.0993 3.82096 9.97882 3.82096C9.88319 3.82096 9.77915 3.91921 9.74782 4.0393C9.71638 4.15939 9.62271 4.25764 9.53963 4.25764C9.45666 4.25764 9.38865 4.3559 9.38865 4.47598C9.38865 4.59607 9.31714 4.69432 9.2298 4.69432C9.13482 4.69432 9.04225 4.84771 8.99934 5.07642C8.95972 5.28788 8.86223 5.45852 8.781 5.45852C8.69978 5.45852 8.60229 5.62915 8.56266 5.84061C8.52162 6.0595 8.4262 6.22271 8.33941 6.22271C8.256 6.22271 8.18777 6.32096 8.18777 6.44105C8.18777 6.58657 8.11496 6.65939 7.96943 6.65939C7.79269 6.65939 7.75109 6.7322 7.75109 7.04148C7.75109 7.3083 7.70175 7.42358 7.58734 7.42358C7.49727 7.42358 7.42358 7.49159 7.42358 7.57456C7.42358 7.65764 7.32533 7.75131 7.20524 7.78275C7.07456 7.81692 6.9869 7.93166 6.9869 8.06834C6.9869 8.1988 6.91659 8.29694 6.82314 8.29694C6.71397 8.29694 6.65939 8.40611 6.65939 8.62445C6.65939 8.87915 6.61092 8.95196 6.44105 8.95196C6.29552 8.95196 6.22271 9.02478 6.22271 9.17031C6.22271 9.29039 6.1512 9.38865 6.06386 9.38865C5.96889 9.38865 5.87631 9.54203 5.83341 9.77074C5.79236 9.98963 5.69694 10.1528 5.61015 10.1528C5.52675 10.1528 5.45852 10.2511 5.45852 10.3712C5.45852 10.4913 5.38876 10.5895 5.30338 10.5895C5.21812 10.5895 5.11594 10.7369 5.07642 10.917C5.0369 11.0972 4.93472 11.2445 4.84945 11.2445C4.76408 11.2445 4.69432 11.3371 4.69432 11.4501C4.69432 11.564 4.59683 11.6812 4.47598 11.7129C4.31703 11.7545 4.25764 11.8618 4.25764 12.1076C4.25764 12.3352 4.20415 12.4454 4.09389 12.4454C4.00295 12.4454 3.93013 12.5425 3.93013 12.6638C3.93013 12.8093 3.85731 12.8821 3.71179 12.8821C3.53646 12.8821 3.49345 12.9549 3.49345 13.2514C3.49345 13.529 3.43919 13.635 3.27511 13.6779C3.15502 13.7093 3.05677 13.8133 3.05677 13.909C3.05677 14.0047 2.98308 14.083 2.89301 14.083C2.76725 14.083 2.72926 14.2225 2.72926 14.6834C2.72926 15.3073 2.76496 15.3444 3.24159 15.2167C3.39225 15.1763 3.50677 15.0352 3.55044 14.836C3.58865 14.662 3.68974 14.5197 3.775 14.5197C3.86037 14.5197 3.93013 14.4214 3.93013 14.3013C3.93013 14.1812 4.00164 14.083 4.08897 14.083C4.18395 14.083 4.27653 13.9296 4.31943 13.7009C4.36048 13.482 4.45589 13.3188 4.54269 13.3188C4.62609 13.3188 4.69432 13.2205 4.69432 13.1004C4.69432 12.9549 4.76714 12.8821 4.91266 12.8821C5.08941 12.8821 5.131 12.8093 5.131 12.5C5.131 12.2332 5.18035 12.1179 5.29476 12.1179C5.38483 12.1179 5.45852 12.0396 5.45852 11.9439C5.45852 11.8483 5.55677 11.7442 5.67686 11.7129C5.79771 11.6812 5.8952 11.564 5.8952 11.4501C5.8952 11.3371 5.96496 11.2445 6.05033 11.2445C6.13559 11.2445 6.23777 11.0972 6.27729 10.917C6.31681 10.7369 6.419 10.5895 6.50426 10.5895C6.58963 10.5895 6.65939 10.4913 6.65939 10.3712C6.65939 10.2511 6.7309 10.1528 6.81823 10.1528C6.91321 10.1528 7.00579 9.99945 7.04869 9.77074C7.08974 9.55186 7.18515 9.38865 7.27194 9.38865C7.35535 9.38865 7.42358 9.29039 7.42358 9.17031C7.42358 9.05022 7.49509 8.95196 7.58242 8.95196C7.6774 8.95196 7.76998 8.79858 7.81288 8.56987C7.85229 8.35972 7.94705 8.18777 8.02347 8.18777C8.09978 8.18777 8.18799 8.08952 8.21943 7.96943C8.25076 7.84934 8.3548 7.75109 8.45044 7.75109C8.57096 7.75109 8.62445 7.65044 8.62445 7.42358C8.62445 7.20524 8.67904 7.09607 8.78821 7.09607C8.87915 7.09607 8.95196 6.99902 8.95196 6.87773C8.95196 6.70098 9.02478 6.65939 9.33406 6.65939C9.60087 6.65939 9.71616 6.70873 9.71616 6.82314C9.71616 6.91408 9.81321 6.9869 9.9345 6.9869C10.08 6.9869 10.1528 7.05972 10.1528 7.20524C10.1528 7.38199 10.2257 7.42358 10.5349 7.42358C10.8442 7.42358 10.917 7.46517 10.917 7.64192C10.917 7.78745 10.9898 7.86026 11.1354 7.86026C11.2567 7.86026 11.3537 7.93308 11.3537 8.02402C11.3537 8.13428 11.464 8.18777 11.6915 8.18777C11.9373 8.18777 12.0447 8.24716 12.0862 8.40611C12.1179 8.52697 12.2352 8.62445 12.349 8.62445C12.462 8.62445 12.5546 8.69421 12.5546 8.77958C12.5546 8.86485 12.702 8.96703 12.8821 9.00655C13.0622 9.04607 13.2096 9.14825 13.2096 9.23352C13.2096 9.31889 13.3079 9.38865 13.4279 9.38865C13.5549 9.38865 13.6463 9.46146 13.6463 9.56266C13.6463 9.6583 13.7445 9.76234 13.8646 9.79367C13.9847 9.82511 14.083 9.91878 14.083 10.0019C14.083 10.1016 14.2126 10.1528 14.4651 10.1528C14.7743 10.1528 14.8472 10.1944 14.8472 10.3712C14.8472 10.5167 14.92 10.5895 15.0655 10.5895C15.1868 10.5895 15.2838 10.6623 15.2838 10.7533C15.2838 10.8635 15.3941 10.917 15.6216 10.917C15.8675 10.917 15.9748 10.9764 16.0164 11.1354C16.0478 11.2555 16.1415 11.3537 16.2246 11.3537C16.3075 11.3537 16.3755 11.4274 16.3755 11.5175C16.3755 11.6084 16.4726 11.6812 16.5939 11.6812C16.7394 11.6812 16.8122 11.754 16.8122 11.8996C16.8122 12.0451 16.7394 12.1179 16.5939 12.1179C16.4171 12.1179 16.3755 12.1907 16.3755 12.5C16.3755 12.7668 16.3262 12.8821 16.2118 12.8821C16.1217 12.8821 16.048 12.9604 16.048 13.0561C16.048 13.1517 15.9498 13.2558 15.8297 13.2871C15.675 13.3276 15.6114 13.436 15.6114 13.6591C15.6114 13.8742 15.5563 13.9738 15.4373 13.9738C15.3417 13.9738 15.2377 14.0721 15.2063 14.1921C15.1749 14.3122 15.0812 14.4105 14.9981 14.4105C14.8984 14.4105 14.8472 14.5401 14.8472 14.7926C14.8472 15.1019 14.8056 15.1747 14.6288 15.1747C14.4833 15.1747 14.4105 15.2475 14.4105 15.393C14.4105 15.5143 14.3377 15.6114 14.2467 15.6114C14.1558 15.6114 14.083 15.7084 14.083 15.8297C14.083 15.9498 14.0115 16.048 13.9241 16.048C13.8291 16.048 13.7366 16.2014 13.6937 16.4301C13.6543 16.6403 13.5595 16.8122 13.4831 16.8122C13.4068 16.8122 13.3186 16.9105 13.2871 17.0306C13.2558 17.1507 13.1517 17.2489 13.0561 17.2489C12.9356 17.2489 12.8821 17.3496 12.8821 17.5764C12.8821 17.8033 12.8286 17.9039 12.7081 17.9039C12.6124 17.9039 12.5084 18.0022 12.4771 18.1223C12.4456 18.2424 12.352 18.3406 12.2689 18.3406C12.1691 18.3406 12.1179 18.4702 12.1179 18.7227C12.1179 19.032 12.0763 19.1048 11.8996 19.1048C11.754 19.1048 11.6812 19.1776 11.6812 19.3231C11.6812 19.4432 11.613 19.5415 11.5296 19.5415C11.4428 19.5415 11.3474 19.7047 11.3063 19.9236C11.2634 20.1523 11.1709 20.3057 11.0759 20.3057C10.9885 20.3057 10.917 20.4039 10.917 20.524C10.917 20.6441 10.8473 20.7424 10.7619 20.7424C10.6766 20.7424 10.5745 20.8897 10.5349 21.0699C10.4954 21.25 10.3932 21.3974 10.308 21.3974C10.2226 21.3974 10.1528 21.49 10.1528 21.6029C10.1528 21.7168 10.0553 21.8341 9.9345 21.8657C9.77555 21.9073 9.71616 22.0146 9.71616 22.2605C9.71616 22.488 9.66266 22.5983 9.5524 22.5983C9.46146 22.5983 9.38865 22.6953 9.38865 22.8166C9.38865 22.9621 9.31583 23.0349 9.17031 23.0349C8.99356 23.0349 8.95196 23.1077 8.95196 23.417C8.95196 23.7263 8.91037 23.7991 8.73362 23.7991C8.61354 23.7991 8.51528 23.8671 8.51528 23.9501C8.51528 24.1156 8.19127 24.232 7.7238 24.2343C7.49585 24.2355 7.42358 24.1832 7.42358 24.0175C7.42358 23.8719 7.35076 23.7991 7.20524 23.7991C7.08515 23.7991 6.9869 23.7294 6.9869 23.644C6.9869 23.5587 6.84367 23.4575 6.66856 23.419C6.49334 23.3806 6.32303 23.2784 6.28985 23.192C6.25666 23.1057 6.15437 23.0349 6.06234 23.0349C5.97041 23.0349 5.8952 22.9634 5.8952 22.8761C5.8952 22.7811 5.74181 22.6885 5.5131 22.6456C5.29421 22.6046 5.131 22.5092 5.131 22.4224C5.131 22.339 5.03275 22.2707 4.91266 22.2707C4.76714 22.2707 4.69432 22.1979 4.69432 22.0524C4.69432 21.8757 4.62151 21.8341 4.31223 21.8341C4.05972 21.8341 3.93013 21.7829 3.93013 21.6831C3.93013 21.6 3.83188 21.5063 3.71179 21.4749C3.5917 21.4436 3.49345 21.3395 3.49345 21.2439C3.49345 21.1178 3.38821 21.0699 3.11135 21.0699C2.80207 21.0699 2.72926 21.0283 2.72926 20.8515C2.72926 20.7302 2.65644 20.6332 2.5655 20.6332C2.47544 20.6332 2.40175 20.5595 2.40175 20.4694C2.40175 20.355 2.28646 20.3057 2.01965 20.3057C1.74279 20.3057 1.63755 20.2578 1.63755 20.1317C1.63755 20.036 1.5393 19.932 1.41921 19.9007C1.29913 19.8692 1.20087 19.7813 1.20087 19.7052C1.20087 19.6291 1.10262 19.5413 0.982533 19.5098C0.688755 19.4331 0.688755 18.8904 0.982533 18.6389C1.10262 18.536 1.20087 18.3532 1.20087 18.2325C1.20087 18.1103 1.27336 18.0131 1.36463 18.0131C1.45557 18.0131 1.52838 17.916 1.52838 17.7948C1.52838 17.6492 1.6012 17.5764 1.74672 17.5764C1.92347 17.5764 1.96507 17.5036 1.96507 17.1943C1.96507 16.885 2.00666 16.8122 2.18341 16.8122C2.36015 16.8122 2.40175 16.7394 2.40175 16.4301C2.40175 16.0571 2.39138 16.048 1.96507 16.048C1.64967 16.048 1.52838 16.0936 1.52838 16.2118C1.52838 16.3019 1.45469 16.3755 1.36463 16.3755C1.27369 16.3755 1.20087 16.4726 1.20087 16.5939C1.20087 16.714 1.12937 16.8122 1.04203 16.8122C0.947052 16.8122 0.854476 16.9656 0.811572 17.1943C0.759716 17.4709 0.68286 17.5764 0.533734 17.5764C0.400328 17.5764 0.327511 17.6535 0.327511 17.7948C0.327511 17.916 0.254694 18.0131 0.163755 18.0131C0.0303493 18.0131 0 18.1951 0 18.9956C0 19.7962 0.0303493 19.9782 0.163755 19.9782C0.253821 19.9782 0.327511 20.0519 0.327511 20.1419C0.327511 20.2329 0.424563 20.3057 0.545852 20.3057C0.691375 20.3057 0.764192 20.3785 0.764192 20.524C0.764192 20.6695 0.837009 20.7424 0.982533 20.7424C1.10262 20.7424 1.20087 20.8139 1.20087 20.9012C1.20087 20.9962 1.35426 21.0888 1.58297 21.1317C1.80186 21.1727 1.96507 21.2681 1.96507 21.3549C1.96507 21.4383 2.06332 21.5065 2.18341 21.5065C2.30349 21.5065 2.40175 21.5763 2.40175 21.6617C2.40175 21.7469 2.54913 21.8491 2.72926 21.8886C2.90939 21.9282 3.05677 22.0303 3.05677 22.1156C3.05677 22.201 3.15502 22.2707 3.27511 22.2707C3.3952 22.2707 3.49345 22.3422 3.49345 22.4296C3.49345 22.5246 3.64683 22.6171 3.87555 22.66C4.09443 22.7011 4.25764 22.7965 4.25764 22.8833C4.25764 22.9667 4.3559 23.0349 4.47598 23.0349C4.62151 23.0349 4.69432 23.1077 4.69432 23.2533C4.69432 23.43 4.76714 23.4716 5.07642 23.4716C5.3857 23.4716 5.45852 23.5132 5.45852 23.69C5.45852 23.81 5.52697 23.9083 5.61059 23.9083C5.69421 23.9083 5.79094 23.982 5.82555 24.0721C5.86004 24.1621 5.9881 24.2358 6.11015 24.2358C6.2321 24.2358 6.33188 24.3056 6.33188 24.3909C6.33188 24.4762 6.47926 24.5784 6.65939 24.6179C6.83952 24.6574 6.9869 24.7596 6.9869 24.8449C6.9869 24.9675 7.19323 25 7.96943 25C8.79563 25 8.95196 24.9723 8.95196 24.826C8.95196 24.7303 9.05022 24.6263 9.17031 24.595C9.29039 24.5635 9.38865 24.4699 9.38865 24.3868C9.38865 24.3038 9.46015 24.2358 9.54749 24.2358C9.64247 24.2358 9.73504 24.0824 9.77795 23.8537C9.819 23.6348 9.91441 23.4716 10.0012 23.4716C10.0846 23.4716 10.1528 23.3734 10.1528 23.2533C10.1528 23.1077 10.2257 23.0349 10.3712 23.0349C10.5167 23.0349 10.5895 22.9621 10.5895 22.8166C10.5895 22.6953 10.6623 22.5983 10.7533 22.5983C10.8433 22.5983 10.917 22.5246 10.917 22.4345C10.917 22.3444 10.9907 22.2707 11.0808 22.2707C11.1709 22.2707 11.2445 22.1925 11.2445 22.0967C11.2445 22.0011 11.3428 21.8971 11.4629 21.8657C11.583 21.8343 11.6821 21.7529 11.6831 21.6848C11.6855 21.5282 12.1633 21.0699 12.3243 21.0699C12.3909 21.0699 12.4454 20.9916 12.4454 20.8959C12.4454 20.8002 12.5437 20.6962 12.6638 20.6648C12.7838 20.6334 12.8821 20.5397 12.8821 20.4567C12.8821 20.3737 12.9536 20.3057 13.0409 20.3057C13.1359 20.3057 13.2285 20.1523 13.2714 19.9236C13.3233 19.6471 13.4001 19.5415 13.5492 19.5415C13.6627 19.5415 13.7555 19.4678 13.7555 19.3777C13.7555 19.2877 13.8291 19.214 13.9192 19.214C14.0102 19.214 14.083 19.1169 14.083 18.9956C14.083 18.8501 14.1558 18.7773 14.3013 18.7773C14.4226 18.7773 14.5197 18.7045 14.5197 18.6135C14.5197 18.5235 14.5933 18.4498 14.6834 18.4498C14.7743 18.4498 14.8472 18.3527 14.8472 18.2314C14.8472 18.0859 14.92 18.0131 15.0655 18.0131C15.211 18.0131 15.2838 17.9403 15.2838 17.7948C15.2838 17.6492 15.3567 17.5764 15.5022 17.5764C15.6235 17.5764 15.7205 17.5036 15.7205 17.4127C15.7205 17.3226 15.7942 17.2489 15.8843 17.2489C15.9752 17.2489 16.048 17.1519 16.048 17.0306C16.048 16.885 16.1209 16.8122 16.2664 16.8122C16.3877 16.8122 16.4847 16.7394 16.4847 16.6485C16.4847 16.5584 16.5584 16.4847 16.6485 16.4847C16.7394 16.4847 16.8122 16.3877 16.8122 16.2664C16.8122 16.1209 16.885 16.048 17.0306 16.048C17.1761 16.048 17.2489 15.9752 17.2489 15.8297C17.2489 15.7084 17.3217 15.6114 17.4127 15.6114C17.5027 15.6114 17.5764 15.5377 17.5764 15.4476C17.5764 15.3567 17.6735 15.2838 17.7948 15.2838C17.9403 15.2838 18.0131 15.211 18.0131 15.0655C18.0131 14.9442 18.0859 14.8472 18.1769 14.8472C18.2669 14.8472 18.3406 14.7735 18.3406 14.6834C18.3406 14.5925 18.4377 14.5197 18.559 14.5197C18.7045 14.5197 18.7773 14.4468 18.7773 14.3013C18.7773 14.1558 18.8501 14.083 18.9956 14.083C19.1157 14.083 19.214 14.0145 19.214 13.9309C19.214 13.8473 19.2877 13.7505 19.3777 13.7159C19.4678 13.6814 19.5415 13.5779 19.5415 13.4859C19.5415 13.3916 19.6366 13.3188 19.7598 13.3188C19.9053 13.3188 19.9782 13.246 19.9782 13.1004C19.9782 12.9791 20.051 12.8821 20.1419 12.8821C20.232 12.8821 20.3057 12.8084 20.3057 12.7183C20.3057 12.6274 20.4027 12.5546 20.524 12.5546C20.6695 12.5546 20.7424 12.4818 20.7424 12.3362C20.7424 12.215 20.8152 12.1179 20.9061 12.1179C20.9962 12.1179 21.0699 12.0442 21.0699 11.9541C21.0699 11.8632 21.1669 11.7904 21.2882 11.7904C21.4293 11.7904 21.5065 11.7176 21.5065 11.5848C21.5065 11.471 21.604 11.3537 21.7249 11.3221C21.845 11.2907 21.9432 11.1867 21.9432 11.091C21.9432 10.9953 22.0169 10.917 22.107 10.917C22.2214 10.917 22.2707 10.8017 22.2707 10.5349C22.2707 10.1711 22.2525 10.1528 21.8886 10.1528C21.6218 10.1528 21.5065 10.2022 21.5065 10.3166C21.5065 10.4075 21.4095 10.4803 21.2882 10.4803C21.1427 10.4803 21.0699 10.5532 21.0699 10.6987C21.0699 10.8442 20.9971 10.917 20.8515 10.917C20.7302 10.917 20.6332 10.9898 20.6332 11.0808C20.6332 11.1709 20.5595 11.2445 20.4694 11.2445C20.3785 11.2445 20.3057 11.3416 20.3057 11.4629C20.3057 11.5842 20.2329 11.6812 20.1419 11.6812C20.0519 11.6812 19.9782 11.6075 19.9782 11.5175C19.9782 11.4265 19.8811 11.3537 19.7598 11.3537C19.6143 11.3537 19.5415 11.2809 19.5415 11.1354C19.5415 11.0153 19.4739 10.917 19.3914 10.917C19.217 10.917 19.0888 10.4014 19.1781 10.0599C19.2118 9.93089 19.3074 9.82533 19.3905 9.82533C19.4735 9.82533 19.5415 9.72707 19.5415 9.60699C19.5415 9.46146 19.6143 9.38865 19.7598 9.38865C19.9366 9.38865 19.9782 9.31583 19.9782 9.00655C19.9782 8.73974 20.0275 8.62445 20.1419 8.62445C20.2329 8.62445 20.3057 8.5274 20.3057 8.40611C20.3057 8.26059 20.3785 8.18777 20.524 8.18777C20.6695 8.18777 20.7424 8.11496 20.7424 7.96943C20.7424 7.84934 20.8121 7.75109 20.8975 7.75109C20.9828 7.75109 21.084 7.60786 21.1225 7.43275C21.1609 7.25753 21.2631 7.08723 21.3495 7.05404C21.4655 7.0095 21.5065 6.79323 21.5065 6.22609C21.5065 5.61659 21.5403 5.45852 21.6703 5.45852C21.7604 5.45852 21.8341 5.38483 21.8341 5.29476C21.8341 5.18035 21.9493 5.131 22.2162 5.131C22.483 5.131 22.5983 5.18035 22.5983 5.29476C22.5983 5.3857 22.6953 5.45852 22.8166 5.45852C22.9621 5.45852 23.0349 5.53133 23.0349 5.67686C23.0349 5.79694 23.1029 5.8952 23.1859 5.8952C23.269 5.8952 23.3627 5.99345 23.3941 6.11354C23.4254 6.23362 23.5295 6.33188 23.6251 6.33188C23.7209 6.33188 23.7991 6.40557 23.7991 6.49563C23.7991 6.58657 23.8962 6.65939 24.0175 6.65939C24.1942 6.65939 24.2358 6.7322 24.2358 7.04148C24.2358 7.30306 24.1857 7.42358 24.077 7.42358C23.982 7.42358 23.8894 7.57696 23.8465 7.80568C23.7947 8.0822 23.7178 8.18777 23.5687 8.18777C23.4552 8.18777 23.3624 8.26146 23.3624 8.35153C23.3624 8.44159 23.2888 8.51528 23.1987 8.51528C23.0805 8.51528 23.0349 8.63657 23.0349 8.95196C23.0349 9.37533 23.0462 9.38865 23.4043 9.38865C23.6819 9.38865 23.7879 9.33439 23.8308 9.17031C23.8621 9.05022 23.9662 8.95196 24.0618 8.95196C24.1575 8.95196 24.2358 8.87827 24.2358 8.78821C24.2358 8.69814 24.3038 8.62445 24.3868 8.62445C24.4699 8.62445 24.5635 8.5262 24.595 8.40611C24.6263 8.28603 24.7303 8.18777 24.826 8.18777C24.9723 8.18777 25 8.03144 25 7.20524C25 6.44148 24.9664 6.22271 24.849 6.22271C24.7659 6.22271 24.6723 6.12445 24.6408 6.00437C24.6095 5.88428 24.5055 5.78603 24.4098 5.78603C24.3141 5.78603 24.2358 5.71234 24.2358 5.62227C24.2358 5.53221 24.1678 5.45852 24.0848 5.45852C24.0017 5.45852 23.9081 5.36026 23.8766 5.24017C23.8453 5.12009 23.7413 5.02183 23.6456 5.02183C23.5499 5.02183 23.4716 4.95382 23.4716 4.87085C23.4716 4.78777 23.3734 4.6941 23.2533 4.66266C23.1332 4.63133 23.0349 4.52729 23.0349 4.43166C23.0349 4.33592 22.9669 4.25764 22.884 4.25764C22.8009 4.25764 22.7072 4.15939 22.6758 4.0393C22.6444 3.91921 22.5404 3.82096 22.4448 3.82096C22.349 3.82096 22.2707 3.74727 22.2707 3.65721C22.2707 3.56714 22.1971 3.49345 22.107 3.49345C22.0169 3.49345 21.9432 3.41517 21.9432 3.31943C21.9432 3.2238 21.845 3.11976 21.7249 3.08843C21.6048 3.05699 21.5065 2.96332 21.5065 2.88024C21.5065 2.79727 21.4329 2.72926 21.3428 2.72926C21.2527 2.72926 21.179 2.65098 21.179 2.55524C21.179 2.45961 21.0808 2.35557 20.9607 2.32424C20.8406 2.29279 20.7424 2.19913 20.7424 2.11605C20.7424 2.03308 20.6441 1.96507 20.524 1.96507C20.3785 1.96507 20.3057 1.89225 20.3057 1.74672C20.3057 1.62544 20.2329 1.52838 20.1419 1.52838C20.0519 1.52838 19.9782 1.45469 19.9782 1.36463C19.9782 1.27369 19.8811 1.20087 19.7598 1.20087C19.6143 1.20087 19.5415 1.12806 19.5415 0.982533C19.5415 0.862445 19.4735 0.764192 19.3905 0.764192C19.3074 0.764192 19.2138 0.665939 19.1823 0.545852C19.1407 0.3869 19.0334 0.327511 18.7876 0.327511C18.56 0.327511 18.4498 0.274017 18.4498 0.163755C18.4498 0.0363537 18.3043 0 17.7948 0C17.3098 0 17.1397 0.0391921 17.1397 0.150983C17.1397 0.234061 17.0415 0.327729 16.9214 0.35917C16.8013 0.390502 16.7031 0.494541 16.7031 0.590175C16.7031 0.685917 16.6294 0.764192 16.5393 0.764192C16.4492 0.764192 16.3755 0.837882 16.3755 0.927948C16.3755 1.04236 16.2603 1.0917 15.9934 1.0917C15.7266 1.0917 15.6114 1.04236 15.6114 0.927948C15.6114 0.837882 15.5377 0.764192 15.4476 0.764192C15.3575 0.764192 15.2838 0.695961 15.2838 0.612555C15.2838 0.525764 15.1206 0.430349 14.9017 0.389301C14.673 0.346397 14.5197 0.253821 14.5197 0.158843C14.5197 0.0310044 14.3172 0 13.4825 0C12.6334 0 12.4454 0.0296943 12.4454 0.163755ZM13.3188 0.93821C13.3188 1.03384 13.2205 1.13788 13.1004 1.16921C12.9803 1.20065 12.8821 1.29432 12.8821 1.3774C12.8821 1.46037 12.8084 1.52838 12.7183 1.52838C12.6274 1.52838 12.5546 1.62544 12.5546 1.74672C12.5546 1.89225 12.4818 1.96507 12.3362 1.96507C12.1595 1.96507 12.1179 2.03788 12.1179 2.34716C12.1179 2.59967 12.0667 2.72926 11.9669 2.72926C11.8838 2.72926 11.7902 2.82751 11.7587 2.9476C11.7274 3.06769 11.6234 3.16594 11.5277 3.16594C11.406 3.16594 11.3537 3.26747 11.3537 3.50371C11.3537 3.74956 11.2943 3.85688 11.1354 3.89847C11.0145 3.93013 10.917 4.04738 10.917 4.16124C10.917 4.27424 10.8473 4.36681 10.7619 4.36681C10.6766 4.36681 10.5745 4.51419 10.5349 4.69432C10.4954 4.87445 10.3932 5.02183 10.308 5.02183C10.2226 5.02183 10.1528 5.12009 10.1528 5.24017C10.1528 5.36146 10.08 5.45852 9.98908 5.45852C9.89902 5.45852 9.82533 5.53221 9.82533 5.62227C9.82533 5.71234 9.89902 5.78603 9.98908 5.78603C10.0791 5.78603 10.1528 5.87882 10.1528 5.99225C10.1528 6.14138 10.2584 6.21823 10.5349 6.27009C10.7636 6.31299 10.917 6.40557 10.917 6.50055C10.917 6.58788 11.0153 6.65939 11.1354 6.65939C11.2555 6.65939 11.3537 6.72696 11.3537 6.8095C11.3537 6.89203 11.5011 6.98908 11.6812 7.02511C11.8734 7.06354 12.0087 7.1595 12.0087 7.2571C12.0087 7.3619 12.1098 7.42358 12.2817 7.42358C12.4447 7.42358 12.5546 7.48603 12.5546 7.57871C12.5546 7.66397 12.702 7.76616 12.8821 7.80568C13.0622 7.8452 13.2096 7.94738 13.2096 8.03264C13.2096 8.11801 13.3079 8.18777 13.4279 8.18777C13.5492 8.18777 13.6463 8.26059 13.6463 8.35153C13.6463 8.44247 13.7433 8.51528 13.8646 8.51528C13.9859 8.51528 14.083 8.44247 14.083 8.35153C14.083 8.26146 14.1567 8.18777 14.2467 8.18777C14.3377 8.18777 14.4105 8.09072 14.4105 7.96943C14.4105 7.82391 14.4833 7.75109 14.6288 7.75109C14.8056 7.75109 14.8472 7.67828 14.8472 7.369C14.8472 7.10218 14.8965 6.9869 15.0109 6.9869C15.101 6.9869 15.1747 6.91321 15.1747 6.82314C15.1747 6.7322 15.2717 6.65939 15.393 6.65939C15.5698 6.65939 15.6114 6.58657 15.6114 6.27729C15.6114 6.00044 15.6593 5.8952 15.7854 5.8952C15.881 5.8952 15.985 5.79694 16.0164 5.67686C16.0478 5.55677 16.1415 5.45852 16.2246 5.45852C16.3243 5.45852 16.3755 5.32893 16.3755 5.07642C16.3755 4.76714 16.4171 4.69432 16.5939 4.69432C16.7394 4.69432 16.8122 4.62151 16.8122 4.47598C16.8122 4.3559 16.8805 4.25764 16.9639 4.25764C17.0507 4.25764 17.1461 4.09443 17.1871 3.87555C17.23 3.64683 17.3226 3.49345 17.4176 3.49345C17.5049 3.49345 17.5764 3.41976 17.5764 3.32969C17.5764 3.21528 17.4611 3.16594 17.1943 3.16594C16.885 3.16594 16.8122 3.12434 16.8122 2.9476C16.8122 2.80207 16.7394 2.72926 16.5939 2.72926C16.4726 2.72926 16.3755 2.65644 16.3755 2.5655C16.3755 2.45109 16.2603 2.40175 15.9934 2.40175C15.6842 2.40175 15.6114 2.36015 15.6114 2.18341C15.6114 2.03788 15.5385 1.96507 15.393 1.96507C15.2729 1.96507 15.1747 1.89356 15.1747 1.80622C15.1747 1.71124 15.0213 1.61867 14.7926 1.57576C14.5737 1.53472 14.4105 1.4393 14.4105 1.35251C14.4105 1.2691 14.3122 1.20087 14.1921 1.20087C14.0721 1.20087 13.9738 1.13286 13.9738 1.04989C13.9738 0.966812 13.8632 0.869214 13.7282 0.832969C13.3643 0.73548 13.3188 0.747162 13.3188 0.93821ZM17.2489 1.37489C17.2489 1.47052 17.1507 1.57456 17.0306 1.6059C16.6533 1.70459 16.7721 1.96507 17.1943 1.96507C17.4611 1.96507 17.5764 2.01441 17.5764 2.12882C17.5764 2.21976 17.6735 2.29258 17.7948 2.29258C17.9403 2.29258 18.0131 2.36539 18.0131 2.51092C18.0131 2.68766 18.0859 2.72926 18.3952 2.72926C18.662 2.72926 18.7773 2.7786 18.7773 2.89301C18.7773 2.98308 18.8556 3.05677 18.9513 3.05677C19.0469 3.05677 19.151 3.15502 19.1823 3.27511C19.2234 3.43177 19.3312 3.49345 19.5644 3.49345C19.7976 3.49345 19.9056 3.55513 19.9465 3.71179C19.9779 3.83188 20.0716 3.93013 20.1547 3.93013C20.2377 3.93013 20.3057 3.99836 20.3057 4.08177C20.3057 4.16856 20.4689 4.26397 20.6878 4.30502C20.8979 4.34443 21.0699 4.42358 21.0699 4.4809C21.0699 4.53821 21.1436 4.58515 21.2336 4.58515C21.3428 4.58515 21.3974 4.47598 21.3974 4.25764C21.3974 4.0393 21.3428 3.93013 21.2336 3.93013C21.1436 3.93013 21.0699 3.86212 21.0699 3.77915C21.0699 3.69607 20.9716 3.6024 20.8515 3.57096C20.7314 3.53963 20.6332 3.43559 20.6332 3.33996C20.6332 3.24421 20.5595 3.16594 20.4694 3.16594C20.3785 3.16594 20.3057 3.06889 20.3057 2.9476C20.3057 2.77085 20.2329 2.72926 19.9236 2.72926C19.6143 2.72926 19.5415 2.68766 19.5415 2.51092C19.5415 2.38963 19.4687 2.29258 19.3777 2.29258C19.2877 2.29258 19.214 2.21889 19.214 2.12882C19.214 2.03788 19.1169 1.96507 18.9956 1.96507C18.8501 1.96507 18.7773 1.89225 18.7773 1.74672C18.7773 1.6012 18.7045 1.52838 18.559 1.52838C18.4377 1.52838 18.3406 1.45557 18.3406 1.36463C18.3406 1.24094 18.2072 1.20087 17.7948 1.20087C17.3681 1.20087 17.2489 1.23886 17.2489 1.37489ZM13.7555 2.12882C13.7555 2.22227 13.6573 2.29258 13.5269 2.29258C13.3902 2.29258 13.2754 2.38024 13.2413 2.51092C13.2098 2.631 13.1162 2.72926 13.0331 2.72926C12.9333 2.72926 12.8821 2.85884 12.8821 3.11135C12.8821 3.42063 12.8405 3.49345 12.6638 3.49345C12.5182 3.49345 12.4454 3.56627 12.4454 3.71179C12.4454 3.83308 12.3726 3.93013 12.2817 3.93013C12.1916 3.93013 12.1179 4.00535 12.1179 4.09727C12.1179 4.1893 12.0472 4.29159 11.9608 4.32478C11.8745 4.35797 11.7723 4.52828 11.7338 4.70349C11.6953 4.8786 11.5941 5.02183 11.5088 5.02183C11.4053 5.02183 11.3537 5.14487 11.3537 5.39116C11.3537 5.68199 11.406 5.77456 11.5993 5.82642C12.0095 5.93624 12.1179 5.90502 12.1179 5.67686C12.1179 5.53133 12.1907 5.45852 12.3362 5.45852C12.4818 5.45852 12.5546 5.3857 12.5546 5.24017C12.5546 5.11889 12.6274 5.02183 12.7183 5.02183C12.8275 5.02183 12.8821 4.91266 12.8821 4.69432C12.8821 4.46747 12.9356 4.36681 13.0561 4.36681C13.1517 4.36681 13.2558 4.26856 13.2871 4.14847C13.3186 4.02838 13.4068 3.93013 13.4831 3.93013C13.5595 3.93013 13.6543 3.75819 13.6937 3.54803C13.7366 3.31932 13.8291 3.16594 13.9241 3.16594C14.0921 3.16594 14.1385 2.67456 14.0142 2.2107C13.9403 1.93504 13.7555 1.87653 13.7555 2.12882ZM14.0303 4.24847C13.9919 4.42369 13.8897 4.594 13.8034 4.62718C13.717 4.66037 13.6463 4.76266 13.6463 4.85469C13.6463 4.94662 13.5781 5.02183 13.4946 5.02183C13.4079 5.02183 13.3124 5.18504 13.2714 5.40393C13.2285 5.63264 13.1359 5.78603 13.0409 5.78603C12.9284 5.78603 12.8821 5.91332 12.8821 6.22271C12.8821 6.64607 12.8933 6.65939 13.2514 6.65939C13.529 6.65939 13.635 6.60513 13.6779 6.44105C13.7093 6.32096 13.8133 6.22271 13.909 6.22271C14.035 6.22271 14.083 6.11747 14.083 5.84061C14.083 5.53133 14.1246 5.45852 14.3013 5.45852C14.4468 5.45852 14.5197 5.3857 14.5197 5.24017C14.5197 5.11889 14.5925 5.02183 14.6834 5.02183C14.8071 5.02183 14.8472 4.88843 14.8472 4.47598V3.93013H14.4737C14.15 3.93013 14.091 3.97249 14.0303 4.24847ZM18.0131 4.47598C18.0131 4.62151 17.9403 4.69432 17.7948 4.69432C17.6194 4.69432 17.5764 4.76714 17.5764 5.06365C17.5764 5.34127 17.5222 5.44727 17.3581 5.49017C17.238 5.52151 17.1397 5.62555 17.1397 5.72118C17.1397 5.81692 17.066 5.8952 16.976 5.8952C16.885 5.8952 16.8122 5.99225 16.8122 6.11354C16.8122 6.23362 16.7425 6.33188 16.6571 6.33188C16.5718 6.33188 16.4697 6.47926 16.4301 6.65939C16.3906 6.83952 16.2884 6.9869 16.2032 6.9869C16.1178 6.9869 16.048 7.08515 16.048 7.20524C16.048 7.32533 15.9765 7.42358 15.8892 7.42358C15.7942 7.42358 15.7016 7.57696 15.6587 7.80568C15.6177 8.02456 15.5223 8.18777 15.4355 8.18777C15.3521 8.18777 15.2838 8.28603 15.2838 8.40611C15.2838 8.55164 15.211 8.62445 15.0655 8.62445C14.8888 8.62445 14.8472 8.69727 14.8472 9.00655C14.8472 9.37041 14.8654 9.38865 15.2293 9.38865C15.4961 9.38865 15.6114 9.43799 15.6114 9.5524C15.6114 9.64334 15.7084 9.71616 15.8297 9.71616C15.9752 9.71616 16.048 9.78897 16.048 9.9345C16.048 10.1112 16.1209 10.1528 16.4301 10.1528C16.6969 10.1528 16.8122 10.2022 16.8122 10.3166C16.8122 10.4067 16.8905 10.4803 16.9862 10.4803C17.0819 10.4803 17.1859 10.5786 17.2172 10.6987C17.3159 11.076 17.5764 10.9572 17.5764 10.5349C17.5764 10.2681 17.6258 10.1528 17.7402 10.1528C17.8302 10.1528 17.9039 10.0746 17.9039 9.97882C17.9039 9.88319 18.0022 9.77915 18.1223 9.74782C18.2431 9.71616 18.3406 9.59891 18.3406 9.48504C18.3406 9.37205 18.4104 9.27948 18.4957 9.27948C18.581 9.27948 18.6832 9.1321 18.7227 8.95196C18.7622 8.77183 18.8644 8.62445 18.9497 8.62445C19.035 8.62445 19.1048 8.5262 19.1048 8.40611C19.1048 8.26059 19.1776 8.18777 19.3231 8.18777C19.4999 8.18777 19.5415 8.11496 19.5415 7.80568C19.5415 7.53886 19.5908 7.42358 19.7052 7.42358C19.7962 7.42358 19.869 7.32653 19.869 7.20524C19.869 7.05972 19.9418 6.9869 20.0873 6.9869C20.2641 6.9869 20.3057 6.91408 20.3057 6.6048C20.3057 6.33799 20.355 6.22271 20.4694 6.22271C20.5838 6.22271 20.6332 6.10742 20.6332 5.84061C20.6332 5.5738 20.5838 5.45852 20.4694 5.45852C20.3794 5.45852 20.3057 5.39028 20.3057 5.30688C20.3057 5.22009 20.1425 5.12467 19.9236 5.08362C19.6949 5.04072 19.5415 4.94814 19.5415 4.85317C19.5415 4.76583 19.4432 4.69432 19.3231 4.69432C19.2031 4.69432 19.1048 4.62631 19.1048 4.54334C19.1048 4.37784 18.7808 4.26146 18.3133 4.25917C18.0854 4.25797 18.0131 4.31026 18.0131 4.47598ZM18.3406 5.24017C18.3406 5.36146 18.2678 5.45852 18.1769 5.45852C18.0859 5.45852 18.0131 5.55557 18.0131 5.67686C18.0131 5.79814 18.0859 5.8952 18.1769 5.8952C18.2669 5.8952 18.3406 5.96343 18.3406 6.04683C18.3406 6.13362 18.5038 6.22904 18.7227 6.27009C18.9679 6.31605 19.1048 6.4036 19.1048 6.51419C19.1048 6.64978 19.179 6.67183 19.4516 6.61736C19.8678 6.53406 19.834 6.56419 19.9265 6.1952C19.9908 5.93897 19.9682 5.8952 19.7716 5.8952C19.6143 5.8952 19.5415 5.8262 19.5415 5.67686C19.5415 5.50011 19.4687 5.45852 19.1594 5.45852C18.8501 5.45852 18.7773 5.41692 18.7773 5.24017C18.7773 5.09465 18.7045 5.02183 18.559 5.02183C18.4134 5.02183 18.3406 5.09465 18.3406 5.24017ZM17.5764 6.65939C17.5764 6.97478 17.6219 7.09607 17.7402 7.09607C17.8302 7.09607 17.9039 7.16976 17.9039 7.25983C17.9039 7.37424 17.7886 7.42358 17.5218 7.42358C17.255 7.42358 17.1397 7.37424 17.1397 7.25983C17.1397 7.0083 16.8456 7.06561 16.7763 7.33068C16.7426 7.45961 16.7421 7.70076 16.7752 7.86648C16.8229 8.10469 16.9132 8.18242 17.206 8.23734C17.4255 8.27849 17.5764 8.37151 17.5764 8.46561C17.5764 8.57434 17.6969 8.62445 17.9585 8.62445C18.3316 8.62445 18.3406 8.61408 18.3406 8.18777C18.3406 7.87238 18.2951 7.75109 18.1769 7.75109C18.0868 7.75109 18.0131 7.6774 18.0131 7.58734C18.0131 7.49727 18.0868 7.42358 18.1769 7.42358C18.2669 7.42358 18.3406 7.49727 18.3406 7.58734C18.3406 7.67828 18.4377 7.75109 18.559 7.75109C18.6802 7.75109 18.7773 7.67828 18.7773 7.58734C18.7773 7.4964 18.8743 7.42358 18.9956 7.42358C19.1226 7.42358 19.214 7.35076 19.214 7.24956C19.214 7.15393 19.1157 7.04989 18.9956 7.01856C18.8755 6.98712 18.7773 6.89345 18.7773 6.81037C18.7773 6.7274 18.679 6.65939 18.559 6.65939C18.4134 6.65939 18.3406 6.58657 18.3406 6.44105C18.3406 6.2643 18.2678 6.22271 17.9585 6.22271C17.5855 6.22271 17.5764 6.23308 17.5764 6.65939ZM16.048 8.62445C16.048 8.93985 16.0936 9.06114 16.2118 9.06114C16.3019 9.06114 16.3755 9.13482 16.3755 9.22489C16.3755 9.31583 16.4726 9.38865 16.5939 9.38865C16.714 9.38865 16.8122 9.45666 16.8122 9.53963C16.8122 9.68002 17.1223 9.82041 17.44 9.8238C17.5266 9.82478 17.5764 9.66605 17.5764 9.38865C17.5764 9.07325 17.5309 8.95196 17.4127 8.95196C17.3226 8.95196 17.2489 8.8583 17.2489 8.74389C17.2489 8.58952 17.1925 8.55044 17.0306 8.59279C16.863 8.63668 16.8122 8.59618 16.8122 8.41889C16.8122 8.22751 16.7465 8.18777 16.4301 8.18777C16.0571 8.18777 16.048 8.19814 16.048 8.62445ZM10.917 9.98908C10.917 10.08 10.82 10.1528 10.6987 10.1528C10.5774 10.1528 10.4803 10.2257 10.4803 10.3166C10.4803 10.4067 10.4067 10.4803 10.3166 10.4803C10.2257 10.4803 10.1528 10.5774 10.1528 10.6987C10.1528 10.8188 10.0813 10.917 9.99399 10.917C9.89902 10.917 9.80644 11.0704 9.76354 11.2991C9.72249 11.518 9.62707 11.6812 9.54028 11.6812C9.45688 11.6812 9.38865 11.7795 9.38865 11.8996C9.38865 12.0451 9.31583 12.1179 9.17031 12.1179C8.99356 12.1179 8.95196 12.1907 8.95196 12.5C8.95196 12.7525 8.90076 12.8821 8.80098 12.8821C8.7179 12.8821 8.62424 12.9803 8.59279 13.1004C8.56146 13.2205 8.45742 13.3188 8.36179 13.3188C8.24279 13.3188 8.18777 13.4183 8.18777 13.6335C8.18777 13.8566 8.12413 13.965 7.96943 14.0055C7.80218 14.0491 7.75109 14.1544 7.75109 14.4548C7.75109 14.8397 7.75928 14.8472 8.18777 14.8472C8.55164 14.8472 8.62445 14.8108 8.62445 14.6288C8.62445 14.5087 8.69421 14.4105 8.77958 14.4105C8.86485 14.4105 8.96605 14.2672 9.00459 14.0921C9.04301 13.9169 9.1452 13.7466 9.23155 13.7134C9.3179 13.6802 9.38865 13.5779 9.38865 13.4859C9.38865 13.394 9.46015 13.3188 9.54749 13.3188C9.64247 13.3188 9.73504 13.1654 9.77795 12.9367C9.819 12.7178 9.91441 12.5546 10.0012 12.5546C10.0846 12.5546 10.1528 12.4563 10.1528 12.3362C10.1528 12.1907 10.2257 12.1179 10.3712 12.1179C10.5479 12.1179 10.5895 12.0451 10.5895 11.7358C10.5895 11.469 10.6389 11.3537 10.7533 11.3537C10.8442 11.3537 10.917 11.2567 10.917 11.1354C10.917 10.9898 10.9898 10.917 11.1354 10.917C11.3246 10.917 11.3537 10.8442 11.3537 10.3712C11.3537 9.89814 11.3246 9.82533 11.1354 9.82533C11.0141 9.82533 10.917 9.89814 10.917 9.98908ZM12.4454 11.0808C12.4454 11.1709 12.3717 11.2445 12.2817 11.2445C12.1907 11.2445 12.1179 11.3416 12.1179 11.4629C12.1179 11.6084 12.0451 11.6812 11.8996 11.6812C11.754 11.6812 11.6812 11.754 11.6812 11.8996C11.6812 12.0197 11.613 12.1179 11.5296 12.1179C11.4428 12.1179 11.3474 12.2811 11.3063 12.5C11.2634 12.7287 11.1709 12.8821 11.0759 12.8821C10.9885 12.8821 10.917 12.9803 10.917 13.1004C10.917 13.2205 10.8473 13.3188 10.7619 13.3188C10.6766 13.3188 10.5745 13.4662 10.5349 13.6463C10.4954 13.8264 10.3932 13.9738 10.308 13.9738C10.2226 13.9738 10.1528 14.0721 10.1528 14.1921C10.1528 14.3122 10.0846 14.4105 10.0012 14.4105C9.91441 14.4105 9.819 14.5737 9.77795 14.7926C9.73504 15.0213 9.64247 15.1747 9.54749 15.1747C9.46015 15.1747 9.38865 15.2729 9.38865 15.393C9.38865 15.5385 9.31583 15.6114 9.17031 15.6114C8.99356 15.6114 8.95196 15.6842 8.95196 15.9934C8.95196 16.2603 8.90262 16.3755 8.78821 16.3755C8.69814 16.3755 8.62445 16.4538 8.62445 16.5496C8.62445 16.6452 8.5262 16.7492 8.40611 16.7806C8.24203 16.8235 8.18777 16.9295 8.18777 17.2071C8.18777 17.5036 8.14476 17.5764 7.96943 17.5764C7.82391 17.5764 7.75109 17.6492 7.75109 17.7948C7.75109 17.916 7.67828 18.0131 7.58734 18.0131C7.4964 18.0131 7.42358 18.1102 7.42358 18.2314C7.42358 18.3515 7.35382 18.4498 7.26845 18.4498C7.18319 18.4498 7.081 18.5972 7.04148 18.7773C7.00197 18.9574 6.89978 19.1048 6.81452 19.1048C6.72915 19.1048 6.65939 19.2031 6.65939 19.3231C6.65939 19.4432 6.58788 19.5415 6.50055 19.5415C6.40557 19.5415 6.31299 19.6949 6.27009 19.9236C6.21725 20.205 6.14236 20.3057 5.98559 20.3057C5.80655 20.3057 5.77817 20.3704 5.80677 20.7151C5.83788 21.0909 5.87031 21.1273 6.20371 21.1593C6.49498 21.1872 6.57838 21.1495 6.62576 20.9682C6.6583 20.844 6.75284 20.7424 6.83592 20.7424C6.91889 20.7424 6.9869 20.6441 6.9869 20.524C6.9869 20.3785 7.05972 20.3057 7.20524 20.3057C7.38199 20.3057 7.42358 20.2329 7.42358 19.9236C7.42358 19.6143 7.46517 19.5415 7.64192 19.5415C7.78745 19.5415 7.86026 19.4687 7.86026 19.3231C7.86026 19.2019 7.93308 19.1048 8.02402 19.1048C8.13428 19.1048 8.18777 18.9945 8.18777 18.767C8.18777 18.5212 8.24716 18.4139 8.40611 18.3723C8.5262 18.3408 8.62445 18.2472 8.62445 18.1641C8.62445 18.0811 8.69269 18.0131 8.77609 18.0131C8.86288 18.0131 8.9583 17.8499 8.99934 17.631C9.04225 17.4023 9.13482 17.2489 9.2298 17.2489C9.31714 17.2489 9.38865 17.1507 9.38865 17.0306C9.38865 16.9105 9.46015 16.8122 9.54749 16.8122C9.64247 16.8122 9.73504 16.6588 9.77795 16.4301C9.819 16.2112 9.91441 16.048 10.0012 16.048C10.0846 16.048 10.1528 15.9498 10.1528 15.8297C10.1528 15.6842 10.2257 15.6114 10.3712 15.6114C10.5479 15.6114 10.5895 15.5385 10.5895 15.2293C10.5895 14.9767 10.6407 14.8472 10.7405 14.8472C10.8236 14.8472 10.9172 14.7489 10.9487 14.6288C10.98 14.5087 11.0841 14.4105 11.1797 14.4105C11.2809 14.4105 11.3537 14.3191 11.3537 14.1921C11.3537 14.0721 11.4235 13.9738 11.5088 13.9738C11.5941 13.9738 11.6963 13.8264 11.7358 13.6463C11.7753 13.4662 11.8775 13.3188 11.9628 13.3188C12.0481 13.3188 12.1179 13.2205 12.1179 13.1004C12.1179 12.9803 12.1894 12.8821 12.2767 12.8821C12.3717 12.8821 12.4643 12.7287 12.5072 12.5C12.5466 12.2898 12.6414 12.1179 12.7178 12.1179C12.8873 12.1179 12.9945 11.6258 12.914 11.2172C12.8507 10.8957 12.4454 10.7777 12.4454 11.0808ZM18.0131 11.8996C18.0131 12.0451 17.9403 12.1179 17.7948 12.1179C17.6492 12.1179 17.5764 12.1907 17.5764 12.3362C17.5764 12.4563 17.5049 12.5546 17.4176 12.5546C17.3226 12.5546 17.23 12.708 17.1871 12.9367C17.1461 13.1556 17.0507 13.3188 16.9639 13.3188C16.8805 13.3188 16.8122 13.417 16.8122 13.5371C16.8122 13.6572 16.7425 13.7555 16.6571 13.7555C16.5718 13.7555 16.4697 13.9028 16.4301 14.083C16.3906 14.2631 16.2884 14.4105 16.2032 14.4105C16.1178 14.4105 16.048 14.5087 16.048 14.6288C16.048 14.7743 15.9752 14.8472 15.8297 14.8472C15.6529 14.8472 15.6114 14.92 15.6114 15.2293C15.6114 15.4961 15.562 15.6114 15.4476 15.6114C15.3567 15.6114 15.2838 15.7084 15.2838 15.8297C15.2838 15.9752 15.211 16.048 15.0655 16.048C14.8888 16.048 14.8472 16.1209 14.8472 16.4301C14.8472 16.6969 14.7978 16.8122 14.6834 16.8122C14.5933 16.8122 14.5197 16.8859 14.5197 16.976C14.5197 17.066 14.5933 17.1397 14.6834 17.1397C14.7735 17.1397 14.8472 17.066 14.8472 16.976C14.8472 16.8859 14.9209 16.8122 15.0109 16.8122C15.1019 16.8122 15.1747 16.7152 15.1747 16.5939C15.1747 16.4484 15.2475 16.3755 15.393 16.3755C15.5143 16.3755 15.6114 16.3027 15.6114 16.2118C15.6114 16.1217 15.6896 16.048 15.7854 16.048C15.881 16.048 15.985 15.9498 16.0164 15.8297C16.0478 15.7096 16.1415 15.6114 16.2246 15.6114C16.3075 15.6114 16.3755 15.5131 16.3755 15.393C16.3755 15.2475 16.4484 15.1747 16.5939 15.1747C16.7152 15.1747 16.8122 15.1019 16.8122 15.0109C16.8122 14.9209 16.8859 14.8472 16.976 14.8472C17.0669 14.8472 17.1397 14.7501 17.1397 14.6288C17.1397 14.4833 17.2126 14.4105 17.3581 14.4105C17.4794 14.4105 17.5764 14.3377 17.5764 14.2467C17.5764 14.1567 17.6444 14.083 17.7274 14.083C17.8105 14.083 17.9041 13.9847 17.9356 13.8646C17.9669 13.7445 18.071 13.6463 18.1666 13.6463C18.2678 13.6463 18.3406 13.5549 18.3406 13.4279C18.3406 13.2824 18.4134 13.2096 18.559 13.2096C18.6802 13.2096 18.7773 13.1368 18.7773 13.0459C18.7773 12.9558 18.851 12.8821 18.941 12.8821C19.0311 12.8821 19.1055 12.8207 19.1063 12.7456C19.1071 12.6706 19.1374 12.4986 19.1736 12.3635C19.2267 12.1654 19.1948 12.1179 19.0084 12.1179C18.8501 12.1179 18.7773 12.0491 18.7773 11.8996C18.7773 11.7228 18.7045 11.6812 18.3952 11.6812C18.0859 11.6812 18.0131 11.7228 18.0131 11.8996ZM4.69432 15.0109C4.69432 15.1019 4.59727 15.1747 4.47598 15.1747C4.33046 15.1747 4.25764 15.2475 4.25764 15.393C4.25764 15.5131 4.18963 15.6114 4.10666 15.6114C4.02358 15.6114 3.92991 15.7096 3.89847 15.8297C3.86714 15.9498 3.7631 16.048 3.66747 16.048C3.54138 16.048 3.49345 16.1533 3.49345 16.4301C3.49345 16.7394 3.45186 16.8122 3.27511 16.8122C3.12959 16.8122 3.05677 16.885 3.05677 17.0306C3.05677 17.1519 2.98395 17.2489 2.89301 17.2489C2.76026 17.2489 2.72926 17.4248 2.72926 18.1769C2.72926 18.9532 2.75764 19.1048 2.90328 19.1048C2.99891 19.1048 3.10295 19.2031 3.13428 19.3231C3.18603 19.5209 3.28319 19.5415 4.16124 19.5415C4.95044 19.5415 5.131 19.511 5.131 19.3777C5.131 19.2877 5.20928 19.214 5.30502 19.214C5.40066 19.214 5.50469 19.1157 5.53603 18.9956C5.56747 18.8755 5.66114 18.7773 5.74421 18.7773C5.82718 18.7773 5.8952 18.679 5.8952 18.559C5.8952 18.4389 5.9667 18.3406 6.05404 18.3406C6.14902 18.3406 6.24159 18.1872 6.2845 17.9585C6.32555 17.7396 6.42096 17.5764 6.50775 17.5764C6.59116 17.5764 6.65939 17.4782 6.65939 17.3581C6.65939 17.2368 6.7322 17.1397 6.82314 17.1397C6.94683 17.1397 6.9869 17.0063 6.9869 16.5939C6.9869 16.1814 6.94683 16.048 6.82314 16.048C6.7322 16.048 6.65939 15.951 6.65939 15.8297C6.65939 15.7096 6.59138 15.6114 6.50841 15.6114C6.42533 15.6114 6.33166 15.5131 6.30022 15.393C6.26605 15.2623 6.15131 15.1747 6.01463 15.1747C5.88417 15.1747 5.78603 15.1044 5.78603 15.0109C5.78603 14.8872 5.65262 14.8472 5.24017 14.8472C4.82773 14.8472 4.69432 14.8872 4.69432 15.0109ZM11.7129 15.393C11.6814 15.5131 11.5932 15.6114 11.5169 15.6114C11.4405 15.6114 11.3457 15.7833 11.3063 15.9934C11.2634 16.2222 11.1709 16.3755 11.0759 16.3755C10.9885 16.3755 10.917 16.4738 10.917 16.5939C10.917 16.714 10.8455 16.8122 10.7582 16.8122C10.6632 16.8122 10.5706 16.9656 10.5277 17.1943C10.4867 17.4132 10.3913 17.5764 10.3045 17.5764C10.2211 17.5764 10.1528 17.6747 10.1528 17.7948C10.1528 17.9148 10.0831 18.0131 9.99771 18.0131C9.91245 18.0131 9.81026 18.1605 9.77074 18.3406C9.73122 18.5207 9.62904 18.6681 9.54378 18.6681C9.45841 18.6681 9.38865 18.7607 9.38865 18.8737C9.38865 18.9876 9.29116 19.1048 9.17031 19.1365C9.01135 19.1781 8.95196 19.2854 8.95196 19.5312C8.95196 19.7587 8.89847 19.869 8.78821 19.869C8.69727 19.869 8.62445 19.966 8.62445 20.0873C8.62445 20.2329 8.55164 20.3057 8.40611 20.3057C8.22937 20.3057 8.18777 20.3785 8.18777 20.6878C8.18777 20.9971 8.14618 21.0699 7.96943 21.0699C7.82391 21.0699 7.75109 21.1427 7.75109 21.2882C7.75109 21.4095 7.67828 21.5065 7.58734 21.5065C7.47293 21.5065 7.42358 21.6218 7.42358 21.8886C7.42358 22.2525 7.44181 22.2707 7.80568 22.2707C8.07249 22.2707 8.18777 22.2214 8.18777 22.107C8.18777 22.016 8.28483 21.9432 8.40611 21.9432C8.55164 21.9432 8.62445 21.8704 8.62445 21.7249C8.62445 21.6048 8.69269 21.5065 8.77609 21.5065C8.86288 21.5065 8.9583 21.3433 8.99934 21.1245C9.04225 20.8957 9.13482 20.7424 9.2298 20.7424C9.31714 20.7424 9.38865 20.6441 9.38865 20.524C9.38865 20.4039 9.46015 20.3057 9.54749 20.3057C9.64247 20.3057 9.73504 20.1523 9.77795 19.9236C9.819 19.7047 9.91441 19.5415 10.0012 19.5415C10.0846 19.5415 10.1528 19.4432 10.1528 19.3231C10.1528 19.1776 10.2257 19.1048 10.3712 19.1048C10.541 19.1048 10.5895 19.032 10.5895 18.7773C10.5895 18.559 10.6441 18.4498 10.7533 18.4498C10.8442 18.4498 10.917 18.3527 10.917 18.2314C10.917 18.0859 10.9898 18.0131 11.1354 18.0131C11.2809 18.0131 11.3537 17.9403 11.3537 17.7948C11.3537 17.6747 11.4219 17.5764 11.5053 17.5764C11.5921 17.5764 11.6876 17.4132 11.7286 17.1943C11.7715 16.9656 11.8641 16.8122 11.9591 16.8122C12.0464 16.8122 12.1179 16.714 12.1179 16.5939C12.1179 16.4738 12.1859 16.3755 12.2689 16.3755C12.4409 16.3755 12.5509 16.048 12.5531 15.5295C12.5545 15.1948 12.5324 15.1747 12.1622 15.1747C11.8618 15.1747 11.7565 15.2258 11.7129 15.393ZM4.69432 16.2664C4.69432 16.3865 4.62456 16.4847 4.53919 16.4847C4.45393 16.4847 4.35175 16.6321 4.31223 16.8122C4.27271 16.9924 4.17052 17.1397 4.08526 17.1397C3.99989 17.1397 3.93013 17.238 3.93013 17.3581C3.93013 17.4794 3.85731 17.5764 3.76638 17.5764C3.65295 17.5764 3.60262 17.6904 3.60262 17.9468C3.60262 18.1754 3.66528 18.3413 3.76638 18.3801C3.85644 18.4146 3.93013 18.5181 3.93013 18.6102C3.93013 18.8793 4.59105 18.8331 4.66266 18.559C4.6941 18.4389 4.78199 18.3406 4.85808 18.3406C4.93417 18.3406 5.02205 18.2424 5.05349 18.1223C5.08483 18.0022 5.18886 17.9039 5.2845 17.9039C5.40502 17.9039 5.45852 17.8033 5.45852 17.5764C5.45852 17.3713 5.51463 17.2489 5.60862 17.2489C5.7583 17.2489 5.8952 16.7991 5.8952 16.3073C5.8952 16.0658 5.85404 16.048 5.29476 16.048C4.76714 16.048 4.69432 16.0745 4.69432 16.2664ZM14.083 17.4127C14.083 17.5027 14.1567 17.5764 14.2467 17.5764C14.3368 17.5764 14.4105 17.5027 14.4105 17.4127C14.4105 17.3226 14.3368 17.2489 14.2467 17.2489C14.1567 17.2489 14.083 17.3226 14.083 17.4127Z" fill="#26A387"/>
<path fill-rule="evenodd" clip-rule="evenodd" d="M12.8821 0.158843C12.8821 0.253821 12.7287 0.346397 12.5 0.389301C12.1526 0.454476 12.1179 0.494541 12.1179 0.830895C12.1179 1.07314 12.0657 1.20087 11.9669 1.20087C11.8838 1.20087 11.7902 1.29913 11.7587 1.41921C11.7274 1.5393 11.6234 1.63755 11.5277 1.63755C11.4087 1.63755 11.3537 1.73712 11.3537 1.95229C11.3537 2.17533 11.2901 2.28373 11.1354 2.32424C11.0153 2.35557 10.917 2.45961 10.917 2.55524C10.917 2.65098 10.8488 2.72926 10.7654 2.72926C10.6786 2.72926 10.5832 2.89247 10.5421 3.11135C10.4992 3.34007 10.4067 3.49345 10.3117 3.49345C10.2243 3.49345 10.1528 3.5917 10.1528 3.71179C10.1528 3.83188 10.0831 3.93013 9.99771 3.93013C9.91245 3.93013 9.81026 4.07751 9.77074 4.25764C9.73122 4.43777 9.62904 4.58515 9.54378 4.58515C9.45109 4.58515 9.38865 4.69509 9.38865 4.85808C9.38865 5.05819 9.33046 5.131 9.17031 5.131C9.02478 5.131 8.95196 5.20382 8.95196 5.34934C8.95196 5.47063 8.87915 5.56769 8.78821 5.56769C8.67795 5.56769 8.62445 5.67795 8.62445 5.90546C8.62445 6.15131 8.56507 6.25862 8.40611 6.30022C8.25142 6.34072 8.18777 6.44913 8.18777 6.67216C8.18777 6.87915 8.13177 6.9869 8.02402 6.9869C7.93308 6.9869 7.86026 7.08395 7.86026 7.20524C7.86026 7.35076 7.78745 7.42358 7.64192 7.42358C7.46517 7.42358 7.42358 7.4964 7.42358 7.80568C7.42358 8.08253 7.37565 8.18777 7.24956 8.18777C7.15393 8.18777 7.04989 8.28603 7.01856 8.40611C6.98712 8.5262 6.89345 8.62445 6.81037 8.62445C6.71441 8.62445 6.65939 8.74738 6.65939 8.96223C6.65939 9.20808 6.6 9.31539 6.44105 9.35699C6.3202 9.38865 6.22271 9.50589 6.22271 9.61976C6.22271 9.73275 6.15295 9.82533 6.06758 9.82533C5.98231 9.82533 5.88013 9.97271 5.84061 10.1528C5.80109 10.333 5.69891 10.4803 5.61365 10.4803C5.52828 10.4803 5.45852 10.5786 5.45852 10.6987C5.45852 10.82 5.3857 10.917 5.29476 10.917C5.20382 10.917 5.131 11.0141 5.131 11.1354C5.131 11.2809 5.05819 11.3537 4.91266 11.3537C4.73592 11.3537 4.69432 11.4265 4.69432 11.7358C4.69432 12.0026 4.64498 12.1179 4.53057 12.1179C4.4405 12.1179 4.36681 12.1962 4.36681 12.2919C4.36681 12.3876 4.26856 12.4916 4.14847 12.5229C3.99181 12.564 3.93013 12.6718 3.93013 12.905C3.93013 13.1382 3.86845 13.2462 3.71179 13.2871C3.59094 13.3188 3.49345 13.436 3.49345 13.5499C3.49345 13.6629 3.41976 13.7555 3.32969 13.7555C3.22052 13.7555 3.16594 13.8646 3.16594 14.083C3.16594 14.3377 3.11747 14.4105 2.9476 14.4105C2.77085 14.4105 2.72926 14.4833 2.72926 14.7926C2.72926 15.0594 2.7786 15.1747 2.89301 15.1747C2.98308 15.1747 3.05677 15.101 3.05677 15.0109C3.05677 14.92 3.15382 14.8472 3.27511 14.8472C3.42063 14.8472 3.49345 14.7743 3.49345 14.6288C3.49345 14.5087 3.56496 14.4105 3.65229 14.4105C3.74727 14.4105 3.83985 14.2571 3.88275 14.0284C3.9238 13.8095 4.01921 13.6463 4.106 13.6463C4.18941 13.6463 4.25764 13.568 4.25764 13.4723C4.25764 13.3766 4.3559 13.2726 4.47598 13.2413C4.63068 13.2008 4.69432 13.0924 4.69432 12.8693C4.69432 12.6623 4.75033 12.5546 4.85808 12.5546C4.94902 12.5546 5.02183 12.4575 5.02183 12.3362C5.02183 12.1907 5.09465 12.1179 5.24017 12.1179C5.4155 12.1179 5.45852 12.0451 5.45852 11.7486C5.45852 11.471 5.51277 11.365 5.67686 11.3221C5.79694 11.2907 5.8952 11.1867 5.8952 11.091C5.8952 10.9953 5.96343 10.917 6.04683 10.917C6.13362 10.917 6.22904 10.7538 6.27009 10.5349C6.31299 10.3062 6.40557 10.1528 6.50055 10.1528C6.58788 10.1528 6.65939 10.0546 6.65939 9.9345C6.65939 9.81441 6.72915 9.71616 6.81452 9.71616C6.89978 9.71616 7.00197 9.56878 7.04148 9.38865C7.081 9.20852 7.18319 9.06114 7.26845 9.06114C7.35382 9.06114 7.42358 8.96288 7.42358 8.84279C7.42358 8.72151 7.4964 8.62445 7.58734 8.62445C7.67828 8.62445 7.75109 8.5274 7.75109 8.40611C7.75109 8.26059 7.82391 8.18777 7.96943 8.18777C8.14618 8.18777 8.18777 8.11496 8.18777 7.80568C8.18777 7.4964 8.22937 7.42358 8.40611 7.42358C8.55164 7.42358 8.62445 7.35076 8.62445 7.20524C8.62445 7.08515 8.69498 6.9869 8.78133 6.9869C8.87751 6.9869 8.95131 6.85295 8.97238 6.6405C9.01234 6.23603 9.26659 6.09541 9.35404 6.42958C9.40022 6.60611 9.49978 6.65939 9.78351 6.65939C10.039 6.65939 10.1528 6.70983 10.1528 6.82314C10.1528 6.91321 10.2311 6.9869 10.3269 6.9869C10.4225 6.9869 10.5265 7.08515 10.5579 7.20524C10.5984 7.35993 10.7068 7.42358 10.9298 7.42358C11.1368 7.42358 11.2445 7.47959 11.2445 7.58734C11.2445 7.67828 11.3416 7.75109 11.4629 7.75109C11.6041 7.75109 11.6812 7.82391 11.6812 7.95731C11.6812 8.10535 11.7859 8.18308 12.0527 8.23319C12.2571 8.27151 12.4521 8.37522 12.486 8.46365C12.52 8.55207 12.6229 8.62445 12.715 8.62445C12.8069 8.62445 12.8821 8.69814 12.8821 8.78821C12.8821 8.87915 12.9791 8.95196 13.1004 8.95196C13.2205 8.95196 13.3188 9.02347 13.3188 9.11081C13.3188 9.20579 13.4722 9.29836 13.7009 9.34127C13.911 9.38068 14.083 9.47544 14.083 9.55186C14.083 9.62817 14.1812 9.71638 14.3013 9.74782C14.4214 9.77915 14.5197 9.88319 14.5197 9.97882C14.5197 10.0978 14.6192 10.1528 14.8344 10.1528C15.0574 10.1528 15.1658 10.2165 15.2063 10.3712C15.2377 10.4913 15.3417 10.5895 15.4373 10.5895C15.5331 10.5895 15.6114 10.6632 15.6114 10.7533C15.6114 10.8442 15.7084 10.917 15.8297 10.917C15.9498 10.917 16.048 10.9885 16.048 11.0759C16.048 11.1709 16.2014 11.2634 16.4301 11.3063C16.8034 11.3763 16.8122 11.3901 16.8122 11.899C16.8122 12.3282 16.7738 12.43 16.5939 12.4771C16.4632 12.5112 16.3755 12.626 16.3755 12.7627C16.3755 12.8931 16.3052 12.9913 16.2118 12.9913C16.1026 12.9913 16.048 13.1004 16.048 13.3188C16.048 13.5735 15.9996 13.6463 15.8297 13.6463C15.6842 13.6463 15.6114 13.7191 15.6114 13.8646C15.6114 13.9847 15.5431 14.083 15.4597 14.083C15.3729 14.083 15.2775 14.2462 15.2365 14.4651C15.1936 14.6938 15.101 14.8472 15.006 14.8472C14.9187 14.8472 14.8472 14.9454 14.8472 15.0655C14.8472 15.1856 14.7757 15.2838 14.6883 15.2838C14.5933 15.2838 14.5008 15.4372 14.4579 15.6659C14.4168 15.8848 14.3214 16.048 14.2346 16.048C14.1512 16.048 14.083 16.1217 14.083 16.2118C14.083 16.3019 14.0147 16.3755 13.9313 16.3755C13.8445 16.3755 13.7491 16.5388 13.7081 16.7576C13.6652 16.9864 13.5726 17.1397 13.4776 17.1397C13.3903 17.1397 13.3188 17.238 13.3188 17.3581C13.3188 17.5036 13.246 17.5764 13.1004 17.5764C12.9237 17.5764 12.8821 17.6492 12.8821 17.9585C12.8821 18.211 12.8309 18.3406 12.7311 18.3406C12.648 18.3406 12.5544 18.4389 12.5229 18.559C12.4916 18.679 12.3876 18.7773 12.2919 18.7773C12.1907 18.7773 12.1179 18.8687 12.1179 18.9956C12.1179 19.1157 12.0464 19.214 11.9591 19.214C11.8641 19.214 11.7715 19.3674 11.7286 19.5961C11.6876 19.815 11.5921 19.9782 11.5053 19.9782C11.4219 19.9782 11.3537 20.0519 11.3537 20.1419C11.3537 20.232 11.2822 20.3057 11.1949 20.3057C11.0999 20.3057 11.0073 20.4591 10.9644 20.6878C10.9234 20.9067 10.8279 21.0699 10.7412 21.0699C10.6578 21.0699 10.5895 21.1681 10.5895 21.2882C10.5895 21.4337 10.5167 21.5065 10.3712 21.5065C10.1944 21.5065 10.1528 21.5794 10.1528 21.8886C10.1528 22.1555 10.1035 22.2707 9.98908 22.2707C9.89902 22.2707 9.82533 22.349 9.82533 22.4448C9.82533 22.5404 9.72707 22.6444 9.60699 22.6758C9.45502 22.7155 9.38865 22.8247 9.38865 23.0349C9.38865 23.2452 9.32227 23.3544 9.17031 23.3941C9.05022 23.4254 8.95196 23.5295 8.95196 23.6251C8.95196 23.7209 8.87827 23.7991 8.78821 23.7991C8.69421 23.7991 8.62445 23.8976 8.62445 24.0301C8.62445 24.2468 8.57937 24.2584 7.90393 24.2154C7.37314 24.1815 7.156 24.1206 7.07969 23.9843C7.02271 23.8824 6.9048 23.7991 6.81769 23.7991C6.73068 23.7991 6.65939 23.7254 6.65939 23.6354C6.65939 23.5444 6.56234 23.4716 6.44105 23.4716C6.32096 23.4716 6.22271 23.4001 6.22271 23.3128C6.22271 23.2178 6.06932 23.1252 5.84061 23.0823C5.63046 23.0429 5.45852 22.9481 5.45852 22.8717C5.45852 22.7954 5.36026 22.7072 5.24017 22.6758C5.12009 22.6444 5.02183 22.5404 5.02183 22.4448C5.02183 22.3187 4.91659 22.2707 4.63974 22.2707C4.37293 22.2707 4.25764 22.2214 4.25764 22.107C4.25764 22.0169 4.17937 21.9432 4.08362 21.9432C3.98799 21.9432 3.88395 21.845 3.85262 21.7249C3.81212 21.5702 3.70371 21.5065 3.48068 21.5065C3.2655 21.5065 3.16594 21.4515 3.16594 21.3325C3.16594 21.2369 3.06769 21.1329 2.9476 21.1015C2.82751 21.0701 2.72926 20.9764 2.72926 20.8933C2.72926 20.7936 2.59967 20.7424 2.34716 20.7424C2.03788 20.7424 1.96507 20.7008 1.96507 20.524C1.96507 20.3785 1.89225 20.3057 1.74672 20.3057C1.62664 20.3057 1.52838 20.2359 1.52838 20.1505C1.52838 20.0653 1.38603 19.9642 1.21201 19.926C0.853821 19.8474 0.767904 19.642 0.76572 18.8592C0.764629 18.4775 0.806113 18.3406 0.923035 18.3406C1.01801 18.3406 1.11059 18.1872 1.15349 17.9585C1.19454 17.7396 1.28996 17.5764 1.37675 17.5764C1.46015 17.5764 1.52838 17.4782 1.52838 17.3581C1.52838 17.2126 1.6012 17.1397 1.74672 17.1397C1.93592 17.1397 1.96507 17.0669 1.96507 16.5939C1.96507 15.9319 1.69083 15.8165 1.57576 16.4301C1.53635 16.6403 1.44159 16.8122 1.36517 16.8122C1.28886 16.8122 1.20065 16.9105 1.16921 17.0306C1.13788 17.1507 1.03384 17.2489 0.93821 17.2489C0.817686 17.2489 0.764192 17.3496 0.764192 17.5764C0.764192 17.7948 0.709607 17.9039 0.600437 17.9039C0.506987 17.9039 0.436681 18.0021 0.436681 18.1325C0.436681 18.2692 0.349017 18.384 0.218341 18.4181C0.0375546 18.4654 0 18.567 0 19.0084C0 19.4021 0.0414847 19.5415 0.158843 19.5415C0.253821 19.5415 0.346397 19.6949 0.389301 19.9236C0.441157 20.2001 0.518013 20.3057 0.66714 20.3057C0.780568 20.3057 0.873362 20.3754 0.873362 20.4608C0.873362 20.5461 1.02074 20.6483 1.20087 20.6878C1.381 20.7273 1.52838 20.8295 1.52838 20.9147C1.52838 21.0001 1.62664 21.0699 1.74672 21.0699C1.86681 21.0699 1.96507 21.1414 1.96507 21.2287C1.96507 21.3237 2.11845 21.4163 2.34716 21.4592C2.56605 21.5002 2.72926 21.5956 2.72926 21.6824C2.72926 21.7658 2.82751 21.8341 2.9476 21.8341C3.09312 21.8341 3.16594 21.9069 3.16594 22.0524C3.16594 22.2291 3.23876 22.2707 3.54803 22.2707C3.80055 22.2707 3.93013 22.3219 3.93013 22.4217C3.93013 22.5048 4.02838 22.5985 4.14847 22.6299C4.26856 22.6612 4.36681 22.7653 4.36681 22.8609C4.36681 22.9814 4.46747 23.0349 4.69432 23.0349C4.92118 23.0349 5.02183 23.0884 5.02183 23.209C5.02183 23.3046 5.12009 23.4086 5.24017 23.44C5.36026 23.4714 5.45852 23.5651 5.45852 23.6481C5.45852 23.7479 5.5881 23.7991 5.84061 23.7991C6.14989 23.7991 6.22271 23.8407 6.22271 24.0175C6.22271 24.163 6.29552 24.2358 6.44105 24.2358C6.56234 24.2358 6.65939 24.3086 6.65939 24.3996C6.65939 24.514 6.77467 24.5633 7.04148 24.5633C7.35076 24.5633 7.42358 24.6049 7.42358 24.7817C7.42358 24.9708 7.4964 25 7.96943 25C8.39607 25 8.51528 24.962 8.51528 24.826C8.51528 24.7303 8.61354 24.6263 8.73362 24.595C8.85371 24.5635 8.95196 24.4699 8.95196 24.3868C8.95196 24.3038 9.05022 24.2358 9.17031 24.2358C9.31583 24.2358 9.38865 24.163 9.38865 24.0175C9.38865 23.8962 9.46146 23.7991 9.5524 23.7991C9.64247 23.7991 9.71616 23.7209 9.71616 23.6251C9.71616 23.5295 9.81441 23.4254 9.9345 23.3941C10.0865 23.3544 10.1528 23.2452 10.1528 23.0349C10.1528 22.8247 10.2192 22.7155 10.3712 22.6758C10.4913 22.6444 10.5895 22.5404 10.5895 22.4448C10.5895 22.349 10.6632 22.2707 10.7533 22.2707C10.8442 22.2707 10.917 22.1737 10.917 22.0524C10.917 21.9069 10.9898 21.8341 11.1354 21.8341C11.2567 21.8341 11.3537 21.7612 11.3537 21.6703C11.3537 21.5802 11.4274 21.5065 11.5175 21.5065C11.6084 21.5065 11.6812 21.4095 11.6812 21.2882C11.6812 21.1427 11.754 21.0699 11.8996 21.0699C12.0451 21.0699 12.1179 20.9971 12.1179 20.8515C12.1179 20.7302 12.1907 20.6332 12.2817 20.6332C12.3717 20.6332 12.4454 20.5595 12.4454 20.4694C12.4454 20.3785 12.5425 20.3057 12.6638 20.3057C12.8093 20.3057 12.8821 20.2329 12.8821 20.0873C12.8821 19.966 12.9549 19.869 13.0459 19.869C13.1359 19.869 13.2096 19.7953 13.2096 19.7052C13.2096 19.6143 13.3067 19.5415 13.4279 19.5415C13.5735 19.5415 13.6463 19.4687 13.6463 19.3231C13.6463 19.1776 13.7191 19.1048 13.8646 19.1048C13.9859 19.1048 14.083 19.032 14.083 18.941C14.083 18.851 14.1567 18.7773 14.2467 18.7773C14.3377 18.7773 14.4105 18.6802 14.4105 18.559C14.4105 18.4134 14.4833 18.3406 14.6288 18.3406C14.7743 18.3406 14.8472 18.2678 14.8472 18.1223C14.8472 18.001 14.92 17.9039 15.0109 17.9039C15.101 17.9039 15.1747 17.8302 15.1747 17.7402C15.1747 17.6492 15.2717 17.5764 15.393 17.5764C15.5385 17.5764 15.6114 17.5036 15.6114 17.3581C15.6114 17.2126 15.6842 17.1397 15.8297 17.1397C15.951 17.1397 16.048 17.0669 16.048 16.976C16.048 16.8859 16.1217 16.8122 16.2118 16.8122C16.3027 16.8122 16.3755 16.7152 16.3755 16.5939C16.3755 16.4484 16.4484 16.3755 16.5939 16.3755C16.7394 16.3755 16.8122 16.3027 16.8122 16.1572C16.8122 16.0359 16.885 15.9389 16.976 15.9389C17.066 15.9389 17.1397 15.8652 17.1397 15.7751C17.1397 15.6842 17.2368 15.6114 17.3581 15.6114C17.5036 15.6114 17.5764 15.5385 17.5764 15.393C17.5764 15.2717 17.6492 15.1747 17.7402 15.1747C17.8302 15.1747 17.9039 15.101 17.9039 15.0109C17.9039 14.92 18.001 14.8472 18.1223 14.8472C18.2678 14.8472 18.3406 14.7743 18.3406 14.6288C18.3406 14.5087 18.4086 14.4105 18.4916 14.4105C18.5747 14.4105 18.6683 14.3122 18.6998 14.1921C18.7311 14.0721 18.8352 13.9738 18.9308 13.9738C19.0265 13.9738 19.1048 13.9001 19.1048 13.81C19.1048 13.7191 19.2019 13.6463 19.3231 13.6463C19.4687 13.6463 19.5415 13.5735 19.5415 13.4279C19.5415 13.3067 19.6143 13.2096 19.7052 13.2096C19.7953 13.2096 19.869 13.1359 19.869 13.0459C19.869 12.9549 19.966 12.8821 20.0873 12.8821C20.2329 12.8821 20.3057 12.8093 20.3057 12.6638C20.3057 12.5425 20.3785 12.4454 20.4694 12.4454C20.5595 12.4454 20.6332 12.3671 20.6332 12.2714C20.6332 12.1758 20.7314 12.0717 20.8515 12.0404C20.9716 12.009 21.0699 11.9153 21.0699 11.8322C21.0699 11.7492 21.1436 11.6812 21.2336 11.6812C21.3237 11.6812 21.3974 11.6029 21.3974 11.5072C21.3974 11.4116 21.4915 11.3086 21.6064 11.2786C21.8382 11.218 22.0117 10.7235 21.8559 10.5677C21.7148 10.4266 21.179 10.5829 21.179 10.7651C21.179 10.8487 21.0808 10.917 20.9607 10.917C20.8152 10.917 20.7424 10.9898 20.7424 11.1354C20.7424 11.2809 20.6695 11.3537 20.524 11.3537C20.3785 11.3537 20.3057 11.4265 20.3057 11.5721C20.3057 11.8583 19.9755 11.8583 19.9007 11.5721C19.8692 11.452 19.7755 11.3537 19.6925 11.3537C19.6095 11.3537 19.5415 11.2754 19.5415 11.1797C19.5415 11.0841 19.4432 10.98 19.3231 10.9487C19.2023 10.917 19.1048 10.7998 19.1048 10.6859C19.1048 10.5729 19.0311 10.4803 18.941 10.4803C18.851 10.4803 18.7773 10.4067 18.7773 10.3166C18.7773 10.2265 18.851 10.1528 18.941 10.1528C19.0311 10.1528 19.1048 10.0746 19.1048 9.97882C19.1048 9.88319 19.2031 9.77915 19.3231 9.74782C19.4778 9.70731 19.5415 9.59891 19.5415 9.37587C19.5415 9.16889 19.5975 9.06114 19.7052 9.06114C19.7962 9.06114 19.869 8.96408 19.869 8.84279C19.869 8.69727 19.9418 8.62445 20.0873 8.62445C20.2329 8.62445 20.3057 8.55164 20.3057 8.40611C20.3057 8.28603 20.3739 8.18777 20.4573 8.18777C20.5441 8.18777 20.6395 8.02456 20.6806 7.80568C20.7235 7.57696 20.816 7.42358 20.911 7.42358C20.9984 7.42358 21.0699 7.32533 21.0699 7.20524C21.0699 7.08515 21.1379 6.9869 21.2208 6.9869C21.4195 6.9869 21.5033 6.64509 21.505 5.82609C21.5063 5.24902 21.5367 5.14858 21.7249 5.09934C21.845 5.06801 21.9432 4.96397 21.9432 4.86834C21.9432 4.7726 22.0169 4.69432 22.107 4.69432C22.1971 4.69432 22.2707 4.76801 22.2707 4.85808C22.2707 4.94814 22.349 5.02183 22.4448 5.02183C22.5404 5.02183 22.6444 5.12009 22.6758 5.24017C22.7072 5.36026 22.8009 5.45852 22.884 5.45852C22.9669 5.45852 23.0349 5.53221 23.0349 5.62227C23.0349 5.71234 23.1132 5.78603 23.209 5.78603C23.3046 5.78603 23.4086 5.88428 23.44 6.00437C23.4714 6.12445 23.5593 6.22271 23.6354 6.22271C23.7115 6.22271 23.7993 6.32096 23.8308 6.44105C23.8621 6.56114 23.9662 6.65939 24.0618 6.65939C24.1999 6.65939 24.2358 6.78319 24.2358 7.25983C24.2358 7.78745 24.2094 7.86026 24.0175 7.86026C23.8962 7.86026 23.7991 7.93308 23.7991 8.02402C23.7991 8.11408 23.7254 8.18777 23.6354 8.18777C23.5444 8.18777 23.4716 8.28483 23.4716 8.40611C23.4716 8.55164 23.3988 8.62445 23.2533 8.62445C23.0844 8.62445 23.0349 8.69727 23.0349 8.94552C23.0349 9.32107 23.2345 9.49127 23.4063 9.26212C23.4723 9.17413 23.6121 9.06998 23.7172 9.03046C23.8224 8.99105 23.9083 8.88362 23.9083 8.79159C23.9083 8.69967 23.982 8.62445 24.0721 8.62445C24.163 8.62445 24.2358 8.5274 24.2358 8.40611C24.2358 8.28603 24.3038 8.18777 24.3868 8.18777C24.4699 8.18777 24.5635 8.08952 24.595 7.96943C24.6263 7.84934 24.7303 7.75109 24.826 7.75109C24.9615 7.75109 25 7.63297 25 7.21801C25 6.77664 24.9624 6.675 24.7817 6.62773C24.6227 6.58613 24.5633 6.47882 24.5633 6.23297C24.5633 6.00546 24.5098 5.8952 24.3996 5.8952C24.3086 5.8952 24.2358 5.79814 24.2358 5.67686C24.2358 5.53133 24.163 5.45852 24.0175 5.45852C23.8962 5.45852 23.7991 5.3857 23.7991 5.29476C23.7991 5.20469 23.7209 5.131 23.6251 5.131C23.5295 5.131 23.4254 5.03275 23.3941 4.91266C23.3627 4.79258 23.269 4.69432 23.1859 4.69432C23.1029 4.69432 23.0349 4.62063 23.0349 4.53057C23.0349 4.4405 22.9567 4.36681 22.8609 4.36681C22.7653 4.36681 22.6612 4.26856 22.6299 4.14847C22.5985 4.02838 22.5048 3.93013 22.4217 3.93013C22.3388 3.93013 22.2707 3.83188 22.2707 3.71179C22.2707 3.56627 22.1979 3.49345 22.0524 3.49345C21.9311 3.49345 21.8341 3.42063 21.8341 3.32969C21.8341 3.23963 21.7604 3.16594 21.6703 3.16594C21.5794 3.16594 21.5065 3.06889 21.5065 2.9476C21.5065 2.80207 21.4337 2.72926 21.2882 2.72926C21.1681 2.72926 21.0699 2.66124 21.0699 2.57828C21.0699 2.4952 20.9716 2.40153 20.8515 2.37009C20.7314 2.33876 20.6332 2.23472 20.6332 2.13908C20.6332 2.04334 20.5595 1.96507 20.4694 1.96507C20.3794 1.96507 20.3057 1.89705 20.3057 1.81408C20.3057 1.731 20.2074 1.63734 20.0873 1.6059C19.9672 1.57456 19.869 1.47052 19.869 1.37489C19.869 1.27915 19.801 1.20087 19.718 1.20087C19.6349 1.20087 19.5413 1.10262 19.5098 0.982533C19.4682 0.823581 19.3609 0.764192 19.1151 0.764192C18.8969 0.764192 18.7773 0.709607 18.7773 0.610044C18.7773 0.515284 18.6091 0.427402 18.3406 0.382096C18.0722 0.33679 17.9039 0.248908 17.9039 0.154148C17.9039 0.0693231 17.8302 0 17.7402 0C17.6492 0 17.5764 0.0970524 17.5764 0.218341C17.5764 0.395087 17.5036 0.436681 17.1943 0.436681C16.9275 0.436681 16.8122 0.486026 16.8122 0.600437C16.8122 0.690502 16.734 0.764192 16.6382 0.764192C16.5426 0.764192 16.4385 0.862445 16.4072 0.982533C16.3643 1.14662 16.2583 1.20087 15.9807 1.20087C15.6842 1.20087 15.6114 1.15786 15.6114 0.982533C15.6114 0.805786 15.5385 0.764192 15.2293 0.764192C14.9624 0.764192 14.8472 0.714847 14.8472 0.600437C14.8472 0.509498 14.7501 0.436681 14.6288 0.436681C14.4833 0.436681 14.4105 0.363865 14.4105 0.218341C14.4105 0.0207424 14.3377 0 13.6463 0C13.0503 0 12.8821 0.0349345 12.8821 0.158843ZM12.8821 0.982533C12.8821 1.10262 12.8106 1.20087 12.7233 1.20087C12.6283 1.20087 12.5357 1.35426 12.4928 1.58297C12.4534 1.79312 12.3586 1.96507 12.2822 1.96507C12.2059 1.96507 12.1177 2.06332 12.0862 2.18341C12.0549 2.30349 11.9509 2.40175 11.8552 2.40175C11.7347 2.40175 11.6812 2.5024 11.6812 2.72926C11.6812 2.9476 11.6266 3.05677 11.5175 3.05677C11.4265 3.05677 11.3537 3.15382 11.3537 3.27511C11.3537 3.42063 11.2809 3.49345 11.1354 3.49345C10.9586 3.49345 10.917 3.56627 10.917 3.87555C10.917 4.1524 10.8691 4.25764 10.743 4.25764C10.6474 4.25764 10.5433 4.3559 10.512 4.47598C10.4806 4.59607 10.3869 4.69432 10.3038 4.69432C10.204 4.69432 10.1528 4.82391 10.1528 5.07642C10.1528 5.3857 10.1112 5.45852 9.9345 5.45852C9.70633 5.45852 9.67511 5.56692 9.78493 5.97707C9.83395 6.15983 9.93144 6.22271 10.1656 6.22271C10.3808 6.22271 10.4803 6.27773 10.4803 6.39672C10.4803 6.49236 10.5786 6.5964 10.6987 6.62773C10.8188 6.65917 10.917 6.74738 10.917 6.82369C10.917 6.90011 11.089 6.99487 11.2991 7.03428C11.5278 7.07718 11.6812 7.16976 11.6812 7.26474C11.6812 7.35207 11.7795 7.42358 11.8996 7.42358C12.0197 7.42358 12.1179 7.49509 12.1179 7.58242C12.1179 7.6774 12.2713 7.76998 12.5 7.81288C12.7189 7.85393 12.8821 7.94934 12.8821 8.03613C12.8821 8.11954 12.9803 8.18777 13.1004 8.18777C13.2205 8.18777 13.3188 8.25579 13.3188 8.33876C13.3188 8.50273 13.6419 8.62063 14.0981 8.62293C14.3413 8.62424 14.3974 8.56496 14.4579 8.24236C14.5008 8.01365 14.5933 7.86026 14.6883 7.86026C14.7757 7.86026 14.8472 7.76201 14.8472 7.64192C14.8472 7.52183 14.9187 7.42358 15.006 7.42358C15.101 7.42358 15.1936 7.2702 15.2365 7.04148C15.2775 6.8226 15.3729 6.65939 15.4597 6.65939C15.5431 6.65939 15.6114 6.56114 15.6114 6.44105C15.6114 6.29552 15.6842 6.22271 15.8297 6.22271C15.9996 6.22271 16.048 6.14989 16.048 5.8952C16.048 5.67686 16.1026 5.56769 16.2118 5.56769C16.3027 5.56769 16.3755 5.47063 16.3755 5.34934C16.3755 5.20382 16.4484 5.131 16.5939 5.131C16.754 5.131 16.8122 5.05819 16.8122 4.85808C16.8122 4.69509 16.8747 4.58515 16.9674 4.58515C17.0526 4.58515 17.1548 4.43777 17.1943 4.25764C17.2338 4.07751 17.336 3.93013 17.4213 3.93013C17.5295 3.93013 17.5764 3.79793 17.5764 3.49345C17.5764 3.12959 17.5401 3.05677 17.3581 3.05677C17.2368 3.05677 17.1397 2.98395 17.1397 2.89301C17.1397 2.7786 17.0245 2.72926 16.7576 2.72926C16.4484 2.72926 16.3755 2.68766 16.3755 2.51092C16.3755 2.36539 16.3027 2.29258 16.1572 2.29258C16.0359 2.29258 15.9389 2.21976 15.9389 2.12882C15.9389 2.01965 15.8297 1.96507 15.6114 1.96507C15.3567 1.96507 15.2838 1.91659 15.2838 1.74672C15.2838 1.6012 15.211 1.52838 15.0655 1.52838C14.9454 1.52838 14.8472 1.46015 14.8472 1.37675C14.8472 1.28996 14.684 1.19454 14.4651 1.15349C14.2364 1.11059 14.083 1.01801 14.083 0.923035C14.083 0.803275 13.9352 0.764192 13.4825 0.764192C12.9549 0.764192 12.8821 0.790611 12.8821 0.982533ZM17.5764 1.03712C17.5764 1.12806 17.4794 1.20087 17.3581 1.20087C17.2368 1.20087 17.1397 1.27369 17.1397 1.36463C17.1397 1.45469 17.066 1.52838 16.976 1.52838C16.885 1.52838 16.8122 1.62544 16.8122 1.74672C16.8122 1.86801 16.885 1.96507 16.976 1.96507C17.066 1.96507 17.1397 2.0333 17.1397 2.1167C17.1397 2.20349 17.3029 2.29891 17.5218 2.33996C17.7505 2.38286 17.9039 2.47544 17.9039 2.57041C17.9039 2.65775 18.0022 2.72926 18.1223 2.72926C18.2424 2.72926 18.3406 2.80076 18.3406 2.8881C18.3406 2.98308 18.494 3.07565 18.7227 3.11856C18.9416 3.15961 19.1048 3.25502 19.1048 3.34181C19.1048 3.42522 19.2031 3.49345 19.3231 3.49345C19.4687 3.49345 19.5415 3.56627 19.5415 3.71179C19.5415 3.88854 19.6143 3.93013 19.9236 3.93013C20.2329 3.93013 20.3057 3.97172 20.3057 4.14847C20.3057 4.294 20.3785 4.36681 20.524 4.36681C20.6453 4.36681 20.7424 4.43963 20.7424 4.53057C20.7424 4.64498 20.8576 4.69432 21.1245 4.69432C21.4858 4.69432 21.5065 4.67435 21.5065 4.325C21.5065 4.04738 21.4523 3.94138 21.2882 3.89847C21.1681 3.86714 21.0699 3.7631 21.0699 3.66747C21.0699 3.57172 21.0019 3.49345 20.9189 3.49345C20.8358 3.49345 20.7421 3.3952 20.7107 3.27511C20.6794 3.15502 20.5753 3.05677 20.4797 3.05677C20.384 3.05677 20.3057 2.98308 20.3057 2.89301C20.3057 2.80295 20.232 2.72926 20.1419 2.72926C20.0519 2.72926 19.9782 2.65098 19.9782 2.55524C19.9782 2.45961 19.8799 2.35557 19.7598 2.32424C19.6397 2.29279 19.5415 2.19913 19.5415 2.11605C19.5415 2.03308 19.4632 1.96507 19.3675 1.96507C19.2718 1.96507 19.1678 1.86681 19.1365 1.74672C19.105 1.62664 19.0114 1.52838 18.9283 1.52838C18.8453 1.52838 18.7773 1.45906 18.7773 1.37424C18.7773 1.27948 18.6091 1.19159 18.3406 1.14629C18.1004 1.10568 17.9039 1.02773 17.9039 0.972926C17.9039 0.918122 17.8302 0.873362 17.7402 0.873362C17.6501 0.873362 17.5764 0.947052 17.5764 1.03712ZM13.2662 2.72009C13.2277 2.89531 13.1255 3.06561 13.0392 3.0988C12.9528 3.13199 12.8821 3.23428 12.8821 3.32631C12.8821 3.41823 12.8139 3.49345 12.7305 3.49345C12.6437 3.49345 12.5483 3.65666 12.5072 3.87555C12.4643 4.10426 12.3717 4.25764 12.2767 4.25764C12.1894 4.25764 12.1179 4.3559 12.1179 4.47598C12.1179 4.59607 12.0481 4.69432 11.9628 4.69432C11.7719 4.69432 11.6165 5.32828 11.7699 5.48166C11.9065 5.61834 12.1179 5.50087 12.1179 5.28832C12.1179 5.20175 12.1916 5.131 12.2817 5.131C12.3726 5.131 12.4454 5.03395 12.4454 4.91266C12.4454 4.76714 12.5182 4.69432 12.6638 4.69432C12.8093 4.69432 12.8821 4.62151 12.8821 4.47598C12.8821 4.3559 12.9503 4.25764 13.0337 4.25764C13.1205 4.25764 13.2159 4.09443 13.257 3.87555C13.2999 3.64683 13.3925 3.49345 13.4874 3.49345C13.5748 3.49345 13.6463 3.3952 13.6463 3.27511C13.6463 3.15502 13.7143 3.05677 13.7973 3.05677C13.9266 3.05677 14.0765 2.75448 14.0814 2.48362C14.0823 2.43854 13.915 2.40175 13.7095 2.40175C13.3858 2.40175 13.3269 2.4441 13.2662 2.72009ZM18.0131 4.10415C18.0131 4.19978 17.9148 4.30382 17.7948 4.33515C17.6401 4.37565 17.5764 4.48406 17.5764 4.7071C17.5764 4.92227 17.5214 5.02183 17.4024 5.02183C17.3068 5.02183 17.2027 5.12009 17.1714 5.24017C17.14 5.36026 17.0463 5.45852 16.9632 5.45852C16.8634 5.45852 16.8122 5.5881 16.8122 5.84061C16.8122 6.14989 16.7706 6.22271 16.5939 6.22271C16.4484 6.22271 16.3755 6.29552 16.3755 6.44105C16.3755 6.56114 16.3073 6.65939 16.2239 6.65939C16.1371 6.65939 16.0417 6.8226 16.0007 7.04148C15.9578 7.2702 15.8652 7.42358 15.7702 7.42358C15.6829 7.42358 15.6114 7.52183 15.6114 7.64192C15.6114 7.76201 15.5416 7.86026 15.4562 7.86026C15.371 7.86026 15.2688 8.00764 15.2293 8.18777C15.1897 8.3679 15.0876 8.51528 15.0023 8.51528C14.8941 8.51528 14.8472 8.64749 14.8472 8.95196C14.8472 9.25098 14.8948 9.38865 14.9981 9.38865C15.0812 9.38865 15.1749 9.4869 15.2063 9.60699C15.2479 9.76594 15.3552 9.82533 15.6011 9.82533C15.8286 9.82533 15.9389 9.87882 15.9389 9.98908C15.9389 10.08 16.0359 10.1528 16.1572 10.1528C16.3027 10.1528 16.3755 10.2257 16.3755 10.3712C16.3755 10.5479 16.4484 10.5895 16.7576 10.5895C17.0245 10.5895 17.1397 10.6389 17.1397 10.7533C17.1397 10.8442 17.2368 10.917 17.3581 10.917C17.4782 10.917 17.5764 10.849 17.5764 10.766C17.5764 10.683 17.6747 10.5893 17.7948 10.5579C17.9148 10.5265 18.0131 10.4225 18.0131 10.3269C18.0131 10.2311 18.0868 10.1528 18.1769 10.1528C18.2913 10.1528 18.3406 10.0376 18.3406 9.77074C18.3406 9.46146 18.3822 9.38865 18.559 9.38865C18.7045 9.38865 18.7773 9.31583 18.7773 9.17031C18.7773 9.05022 18.8488 8.95196 18.9361 8.95196C19.0311 8.95196 19.1237 8.79858 19.1666 8.56987C19.2076 8.35098 19.3031 8.18777 19.3898 8.18777C19.4733 8.18777 19.5415 8.08952 19.5415 7.96943C19.5415 7.84934 19.6112 7.75109 19.6966 7.75109C19.7819 7.75109 19.8841 7.60371 19.9236 7.42358C19.9631 7.24345 20.0653 7.09607 20.1505 7.09607C20.2359 7.09607 20.3057 6.99782 20.3057 6.87773C20.3057 6.75764 20.3737 6.65939 20.4567 6.65939C20.6287 6.65939 20.7386 6.33188 20.7408 5.81332C20.742 5.53079 20.6979 5.45852 20.524 5.45852C20.3785 5.45852 20.3057 5.3857 20.3057 5.24017C20.3057 5.11889 20.2329 5.02183 20.1419 5.02183C20.0519 5.02183 19.9782 4.94814 19.9782 4.85808C19.9782 4.74367 19.8629 4.69432 19.5961 4.69432C19.2868 4.69432 19.214 4.65273 19.214 4.47598C19.214 4.33046 19.1412 4.25764 18.9956 4.25764C18.8743 4.25764 18.7773 4.18483 18.7773 4.09389C18.7773 3.97948 18.662 3.93013 18.3952 3.93013C18.1183 3.93013 18.0131 3.97806 18.0131 4.10415ZM14.083 4.47598C14.083 4.59607 14.0115 4.69432 13.9241 4.69432C13.8291 4.69432 13.7366 4.84771 13.6937 5.07642C13.6526 5.29531 13.5572 5.45852 13.4704 5.45852C13.387 5.45852 13.3188 5.55677 13.3188 5.67686C13.3188 5.82238 13.246 5.8952 13.1004 5.8952C12.9237 5.8952 12.8821 5.96801 12.8821 6.27729C12.8821 6.58657 12.9237 6.65939 13.1004 6.65939C13.2217 6.65939 13.3188 6.58657 13.3188 6.49563C13.3188 6.40557 13.3925 6.33188 13.4825 6.33188C13.5726 6.33188 13.6463 6.2393 13.6463 6.12631C13.6463 6.01245 13.7438 5.8952 13.8646 5.86354C13.9847 5.8322 14.083 5.72817 14.083 5.63253C14.083 5.53679 14.1567 5.45852 14.2467 5.45852C14.3611 5.45852 14.4105 5.34323 14.4105 5.07642C14.4105 4.76714 14.4521 4.69432 14.6288 4.69432C14.7743 4.69432 14.8472 4.62151 14.8472 4.47598C14.8472 4.29924 14.7743 4.25764 14.4651 4.25764C14.1558 4.25764 14.083 4.29924 14.083 4.47598ZM18.3406 5.67686C18.3406 5.82238 18.4134 5.8952 18.559 5.8952C18.6802 5.8952 18.7773 5.96801 18.7773 6.05895C18.7773 6.14902 18.8388 6.22336 18.9138 6.22424C18.9889 6.225 19.1607 6.25535 19.2959 6.29148C19.4906 6.34367 19.5415 6.31212 19.5415 6.13897C19.5415 6.01245 19.4497 5.89662 19.3231 5.86354C19.2031 5.8322 19.1048 5.72817 19.1048 5.63253C19.1048 5.50644 18.9996 5.45852 18.7227 5.45852C18.4134 5.45852 18.3406 5.50011 18.3406 5.67686ZM17.5764 6.59269C17.5764 6.92904 17.6111 6.9691 17.9585 7.03428C18.1872 7.07718 18.3406 7.16976 18.3406 7.26474C18.3406 7.37347 18.4611 7.42358 18.7227 7.42358C18.9895 7.42358 19.1048 7.37424 19.1048 7.25983C19.1048 7.16976 19.0311 7.09607 18.941 7.09607C18.8501 7.09607 18.7773 6.99902 18.7773 6.87773C18.7773 6.7024 18.7045 6.65939 18.408 6.65939C18.1304 6.65939 18.0243 6.60513 17.9814 6.44105C17.882 6.06048 17.5764 6.17489 17.5764 6.59269ZM16.8122 7.64192C16.8122 7.76321 16.885 7.86026 16.976 7.86026C17.066 7.86026 17.1397 7.93395 17.1397 8.02402C17.1397 8.11496 17.2368 8.18777 17.3581 8.18777C17.4794 8.18777 17.5764 8.26059 17.5764 8.35153C17.5764 8.46594 17.6917 8.51528 17.9585 8.51528C18.2253 8.51528 18.3406 8.46594 18.3406 8.35153C18.3406 8.26146 18.2669 8.18777 18.1769 8.18777C18.0868 8.18777 18.0131 8.11408 18.0131 8.02402C18.0131 7.93308 17.916 7.86026 17.7948 7.86026C17.6492 7.86026 17.5764 7.78745 17.5764 7.64192C17.5764 7.46517 17.5036 7.42358 17.1943 7.42358C16.885 7.42358 16.8122 7.46517 16.8122 7.64192ZM16.048 8.78821C16.048 8.87915 16.1451 8.95196 16.2664 8.95196C16.3865 8.95196 16.4847 9.01998 16.4847 9.10295C16.4847 9.26845 16.8087 9.38482 17.2762 9.38712C17.5041 9.38832 17.5764 9.33603 17.5764 9.17031C17.5764 9.02478 17.5036 8.95196 17.3581 8.95196C17.2368 8.95196 17.1397 8.87915 17.1397 8.78821C17.1397 8.66452 17.0063 8.62445 16.5939 8.62445C16.1814 8.62445 16.048 8.66452 16.048 8.78821ZM10.5895 10.3712C10.5895 10.5167 10.5167 10.5895 10.3712 10.5895C10.1944 10.5895 10.1528 10.6623 10.1528 10.9716C10.1528 11.2241 10.1016 11.3537 10.0019 11.3537C9.91878 11.3537 9.82511 11.452 9.79367 11.5721C9.76234 11.6921 9.6583 11.7904 9.56266 11.7904C9.44367 11.7904 9.38865 11.89 9.38865 12.1051C9.38865 12.3282 9.325 12.4366 9.17031 12.4771C9.05022 12.5084 8.95196 12.6124 8.95196 12.7081C8.95196 12.8038 8.87827 12.8821 8.78821 12.8821C8.6738 12.8821 8.62445 12.9974 8.62445 13.2642C8.62445 13.5735 8.58286 13.6463 8.40611 13.6463C8.26059 13.6463 8.18777 13.7191 8.18777 13.8646C8.18777 13.9859 8.11496 14.083 8.02402 14.083C7.90961 14.083 7.86026 14.1983 7.86026 14.4651C7.86026 14.7319 7.90961 14.8472 8.02402 14.8472C8.11408 14.8472 8.18777 14.7735 8.18777 14.6834C8.18777 14.5933 8.26605 14.5197 8.36179 14.5197C8.45742 14.5197 8.56146 14.4214 8.59279 14.3013C8.62424 14.1812 8.7179 14.083 8.80098 14.083C8.88395 14.083 8.95196 13.9847 8.95196 13.8646C8.95196 13.7445 9.02347 13.6463 9.11081 13.6463C9.20579 13.6463 9.29836 13.4929 9.34127 13.2642C9.38231 13.0453 9.47773 12.8821 9.56452 12.8821C9.64793 12.8821 9.71616 12.8038 9.71616 12.7081C9.71616 12.6124 9.81441 12.5084 9.9345 12.4771C10.0986 12.4342 10.1528 12.3282 10.1528 12.0505C10.1528 11.7951 10.2033 11.6812 10.3166 11.6812C10.4067 11.6812 10.4803 11.6029 10.4803 11.5072C10.4803 11.4116 10.5786 11.3075 10.6987 11.2762C10.8507 11.2365 10.917 11.1273 10.917 10.917C10.917 10.7068 10.9834 10.5976 11.1354 10.5579C11.2555 10.5265 11.3537 10.4225 11.3537 10.3269C11.3537 10.2008 11.2485 10.1528 10.9716 10.1528C10.6623 10.1528 10.5895 10.1944 10.5895 10.3712ZM12.1179 11.6915C12.1179 11.9373 12.0585 12.0447 11.8996 12.0862C11.7787 12.1179 11.6812 12.2352 11.6812 12.349C11.6812 12.462 11.6136 12.5546 11.5311 12.5546C11.4486 12.5546 11.3515 12.702 11.3155 12.8821C11.2771 13.0742 11.1811 13.2096 11.0835 13.2096C10.9898 13.2096 10.917 13.305 10.917 13.4279C10.917 13.5492 10.8442 13.6463 10.7533 13.6463C10.6623 13.6463 10.5895 13.7433 10.5895 13.8646C10.5895 14.0102 10.5167 14.083 10.3712 14.083C10.1944 14.083 10.1528 14.1558 10.1528 14.4651C10.1528 14.7176 10.1016 14.8472 10.0019 14.8472C9.91878 14.8472 9.82511 14.9454 9.79367 15.0655C9.76234 15.1856 9.6583 15.2838 9.56266 15.2838C9.43657 15.2838 9.38865 15.3891 9.38865 15.6659C9.38865 15.9752 9.34705 16.048 9.17031 16.048C9.02478 16.048 8.95196 16.1209 8.95196 16.2664C8.95196 16.3877 8.87915 16.4847 8.78821 16.4847C8.67904 16.4847 8.62445 16.5939 8.62445 16.8122C8.62445 17.0669 8.57598 17.1397 8.40611 17.1397C8.26059 17.1397 8.18777 17.2126 8.18777 17.3581C8.18777 17.4782 8.11954 17.5764 8.03613 17.5764C7.94934 17.5764 7.85393 17.7396 7.81288 17.9585C7.76998 18.1872 7.6774 18.3406 7.58242 18.3406C7.49509 18.3406 7.42358 18.4389 7.42358 18.559C7.42358 18.679 7.35207 18.7773 7.26474 18.7773C7.16976 18.7773 7.07718 18.9307 7.03428 19.1594C6.99323 19.3783 6.89782 19.5415 6.81103 19.5415C6.72762 19.5415 6.65939 19.6397 6.65939 19.7598C6.65939 19.8799 6.58963 19.9782 6.50426 19.9782C6.419 19.9782 6.31681 20.1255 6.27729 20.3057C6.23777 20.4858 6.13559 20.6332 6.05033 20.6332C5.96496 20.6332 5.8952 20.7314 5.8952 20.8515C5.8952 21.0283 5.96801 21.0699 6.27729 21.0699C6.64116 21.0699 6.65939 21.0516 6.65939 20.6878C6.65939 20.4353 6.71059 20.3057 6.81037 20.3057C6.89345 20.3057 6.98712 20.2074 7.01856 20.0873C7.04989 19.9672 7.15393 19.869 7.24956 19.869C7.37009 19.869 7.42358 19.7683 7.42358 19.5415C7.42358 19.3231 7.47817 19.214 7.58734 19.214C7.67828 19.214 7.75109 19.1169 7.75109 18.9956C7.75109 18.8501 7.82391 18.7773 7.96943 18.7773C8.11496 18.7773 8.18777 18.7045 8.18777 18.559C8.18777 18.4389 8.25928 18.3406 8.34662 18.3406C8.44159 18.3406 8.53417 18.1872 8.57707 17.9585C8.61812 17.7396 8.71354 17.5764 8.80033 17.5764C8.88373 17.5764 8.95196 17.4782 8.95196 17.3581C8.95196 17.238 9.02347 17.1397 9.11081 17.1397C9.20579 17.1397 9.29836 16.9864 9.34127 16.7576C9.38068 16.5475 9.47544 16.3755 9.55186 16.3755C9.62817 16.3755 9.71638 16.2773 9.74782 16.1572C9.77915 16.0371 9.88319 15.9389 9.97882 15.9389C10.0993 15.9389 10.1528 15.8382 10.1528 15.6114C10.1528 15.3845 10.2063 15.2838 10.3269 15.2838C10.4225 15.2838 10.5265 15.1856 10.5579 15.0655C10.5893 14.9454 10.683 14.8472 10.766 14.8472C10.8658 14.8472 10.917 14.7176 10.917 14.4651C10.917 14.1558 10.9586 14.083 11.1354 14.083C11.2809 14.083 11.3537 14.0102 11.3537 13.8646C11.3537 13.7445 11.4219 13.6463 11.5053 13.6463C11.5921 13.6463 11.6876 13.4831 11.7286 13.2642C11.7715 13.0355 11.8641 12.8821 11.9591 12.8821C12.0464 12.8821 12.1179 12.7838 12.1179 12.6638C12.1179 12.5437 12.1877 12.4454 12.273 12.4454C12.3583 12.4454 12.4605 12.298 12.5 12.1179C12.5395 11.9378 12.6417 11.7904 12.727 11.7904C12.8123 11.7904 12.8821 11.6921 12.8821 11.5721C12.8821 11.3953 12.8093 11.3537 12.5 11.3537C12.1456 11.3537 12.1179 11.3783 12.1179 11.6915ZM17.9513 11.7358C17.9103 11.9547 17.8148 12.1179 17.7281 12.1179C17.6447 12.1179 17.5764 12.1916 17.5764 12.2817C17.5764 12.3717 17.4981 12.4454 17.4024 12.4454C17.3068 12.4454 17.2027 12.5437 17.1714 12.6638C17.14 12.7838 17.0517 12.8821 16.9754 12.8821C16.899 12.8821 16.8043 13.054 16.7648 13.2642C16.7219 13.4929 16.6294 13.6463 16.5344 13.6463C16.4471 13.6463 16.3755 13.7445 16.3755 13.8646C16.3755 13.9847 16.304 14.083 16.2167 14.083C16.1217 14.083 16.0291 14.2364 15.9862 14.4651C15.9452 14.684 15.8498 14.8472 15.763 14.8472C15.6796 14.8472 15.6114 14.9209 15.6114 15.0109C15.6114 15.101 15.5431 15.1747 15.4597 15.1747C15.3729 15.1747 15.2775 15.3379 15.2365 15.5568C15.1936 15.7855 15.101 15.9389 15.006 15.9389C14.9187 15.9389 14.8472 16.0314 14.8472 16.1444C14.8472 16.2583 14.7497 16.3755 14.6288 16.4072C14.5087 16.4385 14.4105 16.5426 14.4105 16.6382C14.4105 16.734 14.3422 16.8122 14.2588 16.8122C14.1721 16.8122 14.0766 16.9754 14.0356 17.1943C13.9927 17.423 13.9001 17.5764 13.8051 17.5764C13.7178 17.5764 13.6463 17.6747 13.6463 17.7948C13.6463 17.916 13.5735 18.0131 13.4825 18.0131C13.3681 18.0131 13.3188 18.1284 13.3188 18.3952C13.3188 18.662 13.3681 18.7773 13.4825 18.7773C13.5735 18.7773 13.6463 18.6802 13.6463 18.559C13.6463 18.4134 13.7191 18.3406 13.8646 18.3406C14.0102 18.3406 14.083 18.2678 14.083 18.1223C14.083 18.001 14.1558 17.9039 14.2467 17.9039C14.3368 17.9039 14.4105 17.8302 14.4105 17.7402C14.4105 17.6492 14.5075 17.5764 14.6288 17.5764C14.7743 17.5764 14.8472 17.5036 14.8472 17.3581C14.8472 17.2368 14.92 17.1397 15.0109 17.1397C15.101 17.1397 15.1747 17.066 15.1747 16.976C15.1747 16.885 15.2717 16.8122 15.393 16.8122C15.5385 16.8122 15.6114 16.7394 15.6114 16.5939C15.6114 16.4738 15.6794 16.3755 15.7623 16.3755C15.8454 16.3755 15.9391 16.2773 15.9705 16.1572C16.0019 16.0371 16.1059 15.9389 16.2015 15.9389C16.2973 15.9389 16.3755 15.8652 16.3755 15.7751C16.3755 15.685 16.4436 15.6114 16.5265 15.6114C16.6096 15.6114 16.7033 15.5131 16.7347 15.393C16.766 15.2729 16.8662 15.1747 16.9571 15.1747C17.052 15.1747 17.1531 15.0352 17.1943 14.8472C17.2338 14.667 17.336 14.5197 17.4213 14.5197C17.5067 14.5197 17.5764 14.4214 17.5764 14.3013C17.5764 14.1558 17.6492 14.083 17.7948 14.083C17.916 14.083 18.0131 14.0102 18.0131 13.9192C18.0131 13.8291 18.0914 13.7555 18.1871 13.7555C18.2827 13.7555 18.3868 13.6572 18.4181 13.5371C18.4496 13.417 18.5432 13.3188 18.6263 13.3188C18.7093 13.3188 18.7773 13.2508 18.7773 13.1678C18.7773 13.0847 18.8755 12.991 18.9956 12.9596C19.1157 12.9283 19.214 12.8242 19.214 12.7286C19.214 12.6329 19.2877 12.5546 19.3777 12.5546C19.6226 12.5546 19.5758 12.1523 19.3231 12.0862C19.2031 12.0549 19.1048 11.9509 19.1048 11.8552C19.1048 11.7595 19.0311 11.6812 18.941 11.6812C18.851 11.6812 18.7773 11.6075 18.7773 11.5175C18.7773 11.4035 18.6626 11.3537 18.4001 11.3537C18.0556 11.3537 18.0168 11.3867 17.9513 11.7358ZM4.78734 15.2514C4.5071 15.2825 4.37271 15.3586 4.33362 15.5081C4.30306 15.6249 4.19978 15.7205 4.10415 15.7205C3.98515 15.7205 3.93013 15.8201 3.93013 16.0353C3.93013 16.2583 3.86648 16.3667 3.71179 16.4072C3.5917 16.4385 3.49345 16.5426 3.49345 16.6382C3.49345 16.734 3.41976 16.8122 3.32969 16.8122C3.21528 16.8122 3.16594 16.9275 3.16594 17.1943C3.16594 17.5036 3.12434 17.5764 2.9476 17.5764C2.75841 17.5764 2.72926 17.6492 2.72926 18.1223C2.72926 18.5489 2.76725 18.6681 2.90328 18.6681C2.99891 18.6681 3.10295 18.7664 3.13428 18.8865C3.16572 19.0065 3.2536 19.1048 3.32969 19.1048C3.40579 19.1048 3.49367 19.2031 3.52511 19.3231C3.57478 19.5131 3.67402 19.5415 4.2893 19.5415C4.90459 19.5415 5.00382 19.5131 5.05349 19.3231C5.08483 19.2031 5.18886 19.1048 5.2845 19.1048C5.38024 19.1048 5.45852 19.0296 5.45852 18.9377C5.45852 18.8456 5.52926 18.7433 5.61561 18.7102C5.70196 18.677 5.80415 18.5067 5.84258 18.3314C5.88111 18.1563 5.98231 18.0131 6.06758 18.0131C6.15295 18.0131 6.22271 17.9148 6.22271 17.7948C6.22271 17.6492 6.29552 17.5764 6.44105 17.5764C6.64323 17.5764 6.65939 17.5036 6.65939 16.5939C6.65939 15.6842 6.64323 15.6114 6.44105 15.6114C6.31976 15.6114 6.22271 15.5385 6.22271 15.4476C6.22271 15.3421 6.11594 15.2833 5.92249 15.2823C5.75731 15.2815 5.52402 15.2643 5.40393 15.244C5.28384 15.2238 5.00644 15.2271 4.78734 15.2514ZM12.1179 15.4476C12.1179 15.5377 12.0396 15.6114 11.9439 15.6114C11.8483 15.6114 11.7442 15.7096 11.7129 15.8297C11.6814 15.9498 11.5878 16.048 11.5047 16.048C11.4217 16.048 11.3537 16.1467 11.3537 16.2675C11.3537 16.3881 11.2555 16.571 11.1354 16.6738C11.0153 16.7766 10.917 16.9235 10.917 17.0002C10.917 17.077 10.8433 17.1397 10.7533 17.1397C10.6623 17.1397 10.5895 17.2368 10.5895 17.3581C10.5895 17.5036 10.5167 17.5764 10.3712 17.5764C10.1944 17.5764 10.1528 17.6492 10.1528 17.9585C10.1528 18.2253 10.1035 18.3406 9.98908 18.3406C9.89814 18.3406 9.82533 18.4377 9.82533 18.559C9.82533 18.7045 9.75251 18.7773 9.60699 18.7773C9.43024 18.7773 9.38865 18.8501 9.38865 19.1594C9.38865 19.4687 9.34705 19.5415 9.17031 19.5415C9.02478 19.5415 8.95196 19.6143 8.95196 19.7598C8.95196 19.8811 8.87915 19.9782 8.78821 19.9782C8.67795 19.9782 8.62445 20.0884 8.62445 20.3159C8.62445 20.5618 8.56507 20.6691 8.40611 20.7107C8.28526 20.7424 8.18777 20.8596 8.18777 20.9735C8.18777 21.0865 8.11976 21.179 8.03679 21.179C7.87129 21.179 7.75491 21.5031 7.75262 21.9705C7.75142 22.1985 7.80371 22.2707 7.96943 22.2707C8.11496 22.2707 8.18777 22.1979 8.18777 22.0524C8.18777 21.9323 8.25928 21.8341 8.34662 21.8341C8.44159 21.8341 8.53417 21.6807 8.57707 21.452C8.61812 21.2331 8.71354 21.0699 8.80033 21.0699C8.88373 21.0699 8.95196 20.9716 8.95196 20.8515C8.95196 20.7314 9.02172 20.6332 9.1071 20.6332C9.19236 20.6332 9.29454 20.4858 9.33406 20.3057C9.37358 20.1255 9.47576 19.9782 9.56103 19.9782C9.6464 19.9782 9.71616 19.8799 9.71616 19.7598C9.71616 19.6143 9.78897 19.5415 9.9345 19.5415C10.1098 19.5415 10.1528 19.4687 10.1528 19.1722C10.1528 18.8945 10.2071 18.7885 10.3712 18.7456C10.4913 18.7143 10.5895 18.6103 10.5895 18.5146C10.5895 18.4189 10.6632 18.3406 10.7533 18.3406C10.8677 18.3406 10.917 18.2253 10.917 17.9585C10.917 17.6492 10.9586 17.5764 11.1354 17.5764C11.2809 17.5764 11.3537 17.5036 11.3537 17.3581C11.3537 17.238 11.4235 17.1397 11.5088 17.1397C11.5941 17.1397 11.6953 16.9965 11.7338 16.8214C11.7723 16.6462 11.8745 16.4759 11.9608 16.4427C12.0472 16.4095 12.1179 16.3072 12.1179 16.2152C12.1179 16.1233 12.1916 16.048 12.2817 16.048C12.3961 16.048 12.4454 15.9328 12.4454 15.6659C12.4454 15.3991 12.3961 15.2838 12.2817 15.2838C12.1916 15.2838 12.1179 15.3575 12.1179 15.4476ZM5.02183 15.7751C5.02183 15.8652 4.94814 15.9389 4.85808 15.9389C4.76714 15.9389 4.69432 16.0359 4.69432 16.1572C4.69432 16.3027 4.62151 16.3755 4.47598 16.3755C4.33046 16.3755 4.25764 16.4484 4.25764 16.5939C4.25764 16.714 4.18941 16.8122 4.106 16.8122C4.01921 16.8122 3.9238 16.9754 3.88275 17.1943C3.83985 17.423 3.74727 17.5764 3.65229 17.5764C3.53253 17.5764 3.49345 17.7242 3.49345 18.1769V18.7773H4.25273H5.0119L5.08362 18.3952C5.12467 18.1763 5.22009 18.0131 5.30688 18.0131C5.39028 18.0131 5.45852 17.9148 5.45852 17.7948C5.45852 17.6492 5.53133 17.5764 5.67686 17.5764C5.8536 17.5764 5.8952 17.5036 5.8952 17.1943C5.8952 16.9275 5.94454 16.8122 6.05895 16.8122C6.32795 16.8122 6.27828 16.088 6.00437 16.0164C5.88428 15.985 5.78603 15.881 5.78603 15.7854C5.78603 15.6593 5.68079 15.6114 5.40393 15.6114C5.13712 15.6114 5.02183 15.6607 5.02183 15.7751ZM12.8821 18.941C12.8821 19.0311 12.9558 19.1048 13.0459 19.1048C13.1359 19.1048 13.2096 19.0311 13.2096 18.941C13.2096 18.851 13.1359 18.7773 13.0459 18.7773C12.9558 18.7773 12.8821 18.851 12.8821 18.941Z" fill="#26A387"/>
</g>
<defs>
<clipPath id="clip0_384_7855">
<rect width="25" height="25" fill="white"/>
</clipPath>
</defs>
</svg>
