<svg width="25" height="25" viewBox="0 0 25 25" fill="none" xmlns="http://www.w3.org/2000/svg">
<g clip-path="url(#clip0_384_7864)">
<path fill-rule="evenodd" clip-rule="evenodd" d="M13.5371 1.6078C13.4471 1.64186 13.3341 1.73618 13.286 1.81751C13.238 1.89873 13.1275 1.96522 13.0404 1.96522C12.9534 1.96522 12.8821 2.03891 12.8821 2.12897C12.8821 2.21991 12.785 2.29273 12.6638 2.29273C12.5182 2.29273 12.4454 2.36555 12.4454 2.51107C12.4454 2.63236 12.3726 2.72941 12.2817 2.72941C12.1916 2.72941 12.1179 2.8031 12.1179 2.89317C12.1179 2.98411 12.0209 3.05692 11.8996 3.05692C11.754 3.05692 11.6812 3.12974 11.6812 3.27526C11.6812 3.39852 11.6084 3.4936 11.5141 3.4936C11.4221 3.4936 11.3186 3.56729 11.2841 3.65736C11.2495 3.74742 11.1527 3.82111 11.0691 3.82111C10.9855 3.82111 10.917 3.91937 10.917 4.03945C10.917 4.18498 10.8442 4.2578 10.6987 4.2578C10.5532 4.2578 10.4803 4.33061 10.4803 4.47614C10.4803 4.59742 10.4075 4.69448 10.3166 4.69448C10.2265 4.69448 10.1528 4.76817 10.1528 4.85823C10.1528 4.94917 10.0558 5.02199 9.9345 5.02199C9.78897 5.02199 9.71616 5.0948 9.71616 5.24033C9.71616 5.36162 9.64334 5.45867 9.5524 5.45867C9.46234 5.45867 9.38865 5.53236 9.38865 5.62242C9.38865 5.71336 9.29159 5.78618 9.17031 5.78618C9.02926 5.78618 8.95196 5.859 8.95196 5.99175C8.95196 6.10561 8.85448 6.22286 8.73362 6.25452C8.61354 6.28585 8.51528 6.38989 8.51528 6.48552C8.51528 6.58127 8.44159 6.65954 8.35153 6.65954C8.26146 6.65954 8.18777 6.73323 8.18777 6.8233C8.18777 6.91424 8.09072 6.98705 7.96943 6.98705C7.82391 6.98705 7.75109 7.05987 7.75109 7.20539C7.75109 7.32668 7.67828 7.42373 7.58734 7.42373C7.49727 7.42373 7.42358 7.49742 7.42358 7.58749C7.42358 7.67843 7.32653 7.75125 7.20524 7.75125C7.05972 7.75125 6.9869 7.82406 6.9869 7.96959C6.9869 8.09087 6.91408 8.18793 6.82314 8.18793C6.73308 8.18793 6.65939 8.25594 6.65939 8.33891C6.65939 8.42199 6.56114 8.51566 6.44105 8.5471C6.32096 8.57843 6.22271 8.68247 6.22271 8.7781C6.22271 8.8793 6.13133 8.95212 6.00437 8.95212C5.85884 8.95212 5.78603 9.02493 5.78603 9.17046C5.78603 9.29175 5.71321 9.3888 5.62227 9.3888C5.53221 9.3888 5.45852 9.46249 5.45852 9.55256C5.45852 9.64349 5.36146 9.71631 5.24017 9.71631C5.09465 9.71631 5.02183 9.78913 5.02183 9.93465C5.02183 10.0559 4.94902 10.153 4.85808 10.153C4.76801 10.153 4.69432 10.2267 4.69432 10.3167C4.69432 10.4077 4.59727 10.4805 4.47598 10.4805C4.33046 10.4805 4.25764 10.5533 4.25764 10.6988C4.25764 10.8189 4.19629 10.9181 4.12118 10.919C3.9548 10.9213 3.49345 11.3926 3.49345 11.5603C3.49345 11.6269 3.3952 11.6814 3.27511 11.6814C3.12959 11.6814 3.05677 11.7542 3.05677 11.8997C3.05677 12.021 2.98395 12.1181 2.89301 12.1181C2.80295 12.1181 2.72926 12.1917 2.72926 12.2818C2.72926 12.3728 2.63221 12.4456 2.51092 12.4456C2.36539 12.4456 2.29258 12.5184 2.29258 12.6639C2.29258 12.7852 2.21976 12.8822 2.12882 12.8822C2.03876 12.8822 1.96507 12.9559 1.96507 13.046C1.96507 13.1369 1.86801 13.2098 1.74672 13.2098C1.60568 13.2098 1.52838 13.2826 1.52838 13.4153C1.52838 13.5292 1.4309 13.6464 1.31004 13.6781C1.18996 13.7094 1.0917 13.8135 1.0917 13.9091C1.0917 14.0048 1.01801 14.0831 0.927948 14.0831C0.837882 14.0831 0.764192 14.1511 0.764192 14.2341C0.764192 14.3172 0.665939 14.4109 0.545852 14.4423C0.425764 14.4736 0.327511 14.5777 0.327511 14.6733C0.327511 14.769 0.253821 14.8473 0.163755 14.8473C0.0281659 14.8473 0 15.0535 0 16.0482C0 17.013 0.0304585 17.2491 0.155131 17.2491C0.240393 17.2491 0.342576 17.3964 0.382096 17.5766C0.421616 17.7567 0.523799 17.9041 0.609061 17.9041C0.694432 17.9041 0.764192 18.0023 0.764192 18.1224C0.764192 18.2679 0.837009 18.3408 0.982533 18.3408C1.12806 18.3408 1.20087 18.4136 1.20087 18.5591C1.20087 18.6804 1.27369 18.7774 1.36463 18.7774C1.45469 18.7774 1.52838 18.8511 1.52838 18.9412C1.52838 19.0321 1.62544 19.105 1.74672 19.105C1.89225 19.105 1.96507 19.1778 1.96507 19.3233C1.96507 19.5125 2.03788 19.5416 2.51092 19.5416C2.91299 19.5416 3.05677 19.5003 3.05677 19.3845C3.05677 19.0809 4.94236 19.0179 5.1262 19.3154C5.16004 19.3703 5.32238 19.449 5.4869 19.4902C5.70284 19.5445 5.78603 19.6341 5.78603 19.8127C5.78603 20.2937 5.92435 20.7425 6.0726 20.7425C6.15513 20.7425 6.22271 20.8162 6.22271 20.9063C6.22271 20.9963 6.15513 21.07 6.0726 21.07C5.92293 21.07 5.78603 21.5198 5.78603 22.0116C5.78603 22.1693 5.72183 22.2709 5.62227 22.2709C5.44651 22.2709 5.42293 22.3999 5.52729 22.7895C5.56354 22.9246 5.66114 23.0351 5.74421 23.0351C5.82718 23.0351 5.8952 23.1333 5.8952 23.2534C5.8952 23.3747 5.96801 23.4718 6.05895 23.4718C6.14902 23.4718 6.22271 23.5455 6.22271 23.6355C6.22271 23.7265 6.31976 23.7993 6.44105 23.7993C6.58657 23.7993 6.65939 23.8721 6.65939 24.0176C6.65939 24.1631 6.7322 24.236 6.87773 24.236C6.99782 24.236 7.09607 24.3057 7.09607 24.3911C7.09607 24.4764 7.24345 24.5785 7.42358 24.6181C7.60371 24.6576 7.75109 24.7598 7.75109 24.845C7.75109 24.9697 7.98712 25.0002 8.95196 25.0002C9.94662 25.0002 10.1528 24.972 10.1528 24.8364C10.1528 24.7455 10.2499 24.6726 10.3712 24.6726C10.5167 24.6726 10.5895 24.5998 10.5895 24.4543C10.5895 24.3088 10.6623 24.236 10.8079 24.236C10.9291 24.236 11.0262 24.1631 11.0262 24.0722C11.0262 23.9821 11.0999 23.9084 11.19 23.9084C11.2809 23.9084 11.3537 23.8114 11.3537 23.6901C11.3537 23.5446 11.4265 23.4718 11.5721 23.4718C11.6933 23.4718 11.7904 23.399 11.7904 23.308C11.7904 23.2179 11.8641 23.1443 11.9541 23.1443C12.0451 23.1443 12.1179 23.0472 12.1179 22.9259C12.1179 22.7804 12.1907 22.7076 12.3362 22.7076C12.4818 22.7076 12.5546 22.6348 12.5546 22.4892C12.5546 22.3437 12.6274 22.2709 12.7729 22.2709C12.8942 22.2709 12.9913 22.1981 12.9913 22.1071C12.9913 22.0171 13.065 21.9434 13.155 21.9434C13.246 21.9434 13.3188 21.8463 13.3188 21.725C13.3188 21.5795 13.3916 21.5067 13.5371 21.5067C13.6584 21.5067 13.7555 21.4339 13.7555 21.3429C13.7555 21.2529 13.8291 21.1792 13.9192 21.1792C14.0102 21.1792 14.083 21.0821 14.083 20.9608C14.083 20.8153 14.1558 20.7425 14.3013 20.7425C14.4226 20.7425 14.5197 20.6697 14.5197 20.5788C14.5197 20.4887 14.5933 20.415 14.6834 20.415C14.7743 20.415 14.8472 20.3179 14.8472 20.1967C14.8472 20.0511 14.92 19.9783 15.0655 19.9783C15.211 19.9783 15.2838 19.9055 15.2838 19.76C15.2838 19.6145 15.3567 19.5416 15.5022 19.5416C15.6235 19.5416 15.7205 19.4688 15.7205 19.3779C15.7205 19.2878 15.7942 19.2141 15.8843 19.2141C15.9752 19.2141 16.048 19.1171 16.048 18.9958C16.048 18.8503 16.1209 18.7774 16.2664 18.7774C16.3877 18.7774 16.4847 18.7046 16.4847 18.6137C16.4847 18.5236 16.5584 18.4499 16.6485 18.4499C16.7394 18.4499 16.8122 18.3529 16.8122 18.2316C16.8122 18.0861 16.885 18.0133 17.0306 18.0133C17.1761 18.0133 17.2489 17.9404 17.2489 17.7949C17.2489 17.6736 17.3217 17.5766 17.4127 17.5766C17.5027 17.5766 17.5764 17.5029 17.5764 17.4128C17.5764 17.3219 17.6735 17.2491 17.7948 17.2491C17.9403 17.2491 18.0131 17.1762 18.0131 17.0307C18.0131 16.8852 18.0859 16.8124 18.2314 16.8124C18.3527 16.8124 18.4498 16.7396 18.4498 16.6486C18.4498 16.5586 18.5235 16.4849 18.6135 16.4849C18.7045 16.4849 18.7773 16.3878 18.7773 16.2665C18.7773 16.121 18.8501 16.0482 18.9956 16.0482C19.1169 16.0482 19.214 15.9754 19.214 15.8844C19.214 15.7944 19.2877 15.7207 19.3777 15.7207C19.4687 15.7207 19.5415 15.6236 19.5415 15.5023C19.5415 15.3568 19.6143 15.284 19.7598 15.284C19.9053 15.284 19.9782 15.2112 19.9782 15.0657C19.9782 14.9444 20.051 14.8473 20.1419 14.8473C20.232 14.8473 20.3057 14.7736 20.3057 14.6836C20.3057 14.5926 20.4027 14.5198 20.524 14.5198C20.6695 14.5198 20.7424 14.447 20.7424 14.3015C20.7424 14.1559 20.8152 14.0831 20.9607 14.0831C21.082 14.0831 21.179 14.0103 21.179 13.9194C21.179 13.8293 21.2527 13.7556 21.3428 13.7556C21.4337 13.7556 21.5065 13.6586 21.5065 13.5373C21.5065 13.3917 21.5794 13.3189 21.7249 13.3189C21.8462 13.3189 21.9432 13.2461 21.9432 13.1552C21.9432 13.0651 22.0169 12.9914 22.107 12.9914C22.1979 12.9914 22.2707 12.8944 22.2707 12.7731C22.2707 12.6276 22.3436 12.5547 22.4891 12.5547C22.6346 12.5547 22.7074 12.4819 22.7074 12.3364C22.7074 12.2151 22.7802 12.1181 22.8712 12.1181C22.9612 12.1181 23.0349 12.05 23.0349 11.9671C23.0349 11.884 23.1332 11.7903 23.2533 11.7589C23.4544 11.7064 23.4716 11.61 23.4716 10.5419C23.4716 9.63345 23.4376 9.36893 23.3145 9.32166C23.2282 9.28847 23.126 9.11817 23.0876 8.94295C23.049 8.76784 22.9478 8.62461 22.8626 8.62461C22.7772 8.62461 22.7074 8.52635 22.7074 8.40627C22.7074 8.26074 22.6346 8.18793 22.4891 8.18793C22.369 8.18793 22.2707 8.11991 22.2707 8.03694C22.2707 7.95386 22.1725 7.8602 22.0524 7.82876C21.9323 7.79742 21.8341 7.69338 21.8341 7.59775C21.8341 7.50201 21.7604 7.42373 21.6703 7.42373C21.5794 7.42373 21.5065 7.32668 21.5065 7.20539C21.5065 7.05987 21.4337 6.98705 21.2882 6.98705C21.1669 6.98705 21.0699 6.91424 21.0699 6.8233C21.0699 6.73323 20.9962 6.65954 20.9061 6.65954C20.8152 6.65954 20.7424 6.56249 20.7424 6.4412C20.7424 6.29568 20.6695 6.22286 20.524 6.22286C20.4027 6.22286 20.3057 6.15004 20.3057 6.0591C20.3057 5.96904 20.232 5.89535 20.1419 5.89535C20.051 5.89535 19.9782 5.7983 19.9782 5.67701C19.9782 5.53149 19.9053 5.45867 19.7598 5.45867C19.6143 5.45867 19.5415 5.38585 19.5415 5.24033C19.5415 5.11904 19.4687 5.02199 19.3777 5.02199C19.2877 5.02199 19.214 4.9483 19.214 4.85823C19.214 4.76729 19.1169 4.69448 18.9956 4.69448C18.8501 4.69448 18.7773 4.62166 18.7773 4.47614C18.7773 4.33061 18.7045 4.2578 18.559 4.2578C18.4377 4.2578 18.3406 4.18498 18.3406 4.09404C18.3406 4.00397 18.2669 3.93028 18.1769 3.93028C18.0859 3.93028 18.0131 3.83323 18.0131 3.71194C18.0131 3.56642 17.9403 3.4936 17.7948 3.4936C17.6492 3.4936 17.5764 3.42079 17.5764 3.27526C17.5764 3.15397 17.5036 3.05692 17.4127 3.05692C17.3226 3.05692 17.2489 2.98323 17.2489 2.89317C17.2489 2.80223 17.1519 2.72941 17.0306 2.72941C16.885 2.72941 16.8122 2.65659 16.8122 2.51107C16.8122 2.36555 16.7394 2.29273 16.5939 2.29273C16.4726 2.29273 16.3755 2.21991 16.3755 2.12897C16.3755 2.03771 16.2784 1.96522 16.1561 1.96522C16.0355 1.96522 15.8526 1.86697 15.7498 1.74688C15.5886 1.55878 15.4341 1.52974 14.6319 1.53716C14.1198 1.54186 13.6272 1.57362 13.5371 1.6078ZM14.083 2.94775C14.083 3.09328 14.0102 3.16609 13.8646 3.16609C13.7433 3.16609 13.6463 3.23891 13.6463 3.32985C13.6463 3.41991 13.5783 3.4936 13.4953 3.4936C13.4122 3.4936 13.3186 3.59186 13.2871 3.71194C13.2558 3.83203 13.1517 3.93028 13.0561 3.93028C12.8705 3.93028 12.8453 4.05474 12.9509 4.44884C12.9871 4.58389 13.0847 4.69448 13.1678 4.69448C13.2508 4.69448 13.3188 4.76249 13.3188 4.84546C13.3188 4.92854 13.417 5.02221 13.5371 5.05365C13.6572 5.08498 13.7555 5.18902 13.7555 5.28465C13.7555 5.38039 13.8291 5.45867 13.9192 5.45867C14.0093 5.45867 14.083 5.53236 14.083 5.62242C14.083 5.71249 14.1612 5.78618 14.257 5.78618C14.3526 5.78618 14.4567 5.88443 14.488 6.00452C14.5194 6.12461 14.6131 6.22286 14.6962 6.22286C14.7791 6.22286 14.8472 6.29655 14.8472 6.38662C14.8472 6.47668 14.9254 6.55037 15.0212 6.55037C15.1168 6.55037 15.2209 6.64862 15.2522 6.76871C15.2836 6.8888 15.3819 6.98705 15.4705 6.98705C15.5593 6.98705 15.6575 7.08531 15.6889 7.20539C15.7203 7.32548 15.814 7.42373 15.8971 7.42373C15.98 7.42373 16.048 7.49742 16.048 7.58749C16.048 7.67756 16.1263 7.75125 16.2221 7.75125C16.3177 7.75125 16.4217 7.8495 16.4531 7.96959C16.4845 8.08967 16.5782 8.18793 16.6612 8.18793C16.7442 8.18793 16.8122 8.25594 16.8122 8.33891C16.8122 8.42199 16.9105 8.51566 17.0306 8.5471C17.1507 8.57843 17.2489 8.68247 17.2489 8.7781C17.2489 8.87384 17.3226 8.95212 17.4127 8.95212C17.5036 8.95212 17.5764 9.04917 17.5764 9.17046C17.5764 9.31598 17.6492 9.3888 17.7948 9.3888C17.916 9.3888 18.0131 9.46162 18.0131 9.55256C18.0131 9.64262 18.0868 9.71631 18.1769 9.71631C18.2678 9.71631 18.3406 9.81336 18.3406 9.93465C18.3406 10.0802 18.4134 10.153 18.559 10.153C18.6802 10.153 18.7773 10.2258 18.7773 10.3167C18.7773 10.4068 18.8556 10.4805 18.9513 10.4805C19.0469 10.4805 19.151 10.5788 19.1823 10.6988C19.2138 10.8189 19.3074 10.9172 19.3905 10.9172C19.4735 10.9172 19.5415 10.9909 19.5415 11.0809C19.5415 11.171 19.6198 11.2447 19.7155 11.2447C19.8111 11.2447 19.9152 11.3429 19.9465 11.463C19.9779 11.5831 20.0716 11.6814 20.1547 11.6814C20.2377 11.6814 20.3057 11.7796 20.3057 11.8997C20.3057 12.0736 20.3778 12.1176 20.6605 12.1162C21.012 12.1143 21.5065 11.7396 21.5065 11.4749C21.5065 11.4083 21.5746 11.3539 21.6575 11.3539C21.7406 11.3539 21.8343 11.2556 21.8657 11.1355C21.8971 11.0154 22.0011 10.9172 22.0967 10.9172C22.2328 10.9172 22.2707 10.798 22.2707 10.3713C22.2707 9.8983 22.2416 9.82548 22.0524 9.82548C21.9069 9.82548 21.8341 9.75266 21.8341 9.60714C21.8341 9.48585 21.7612 9.3888 21.6703 9.3888C21.5802 9.3888 21.5065 9.31052 21.5065 9.21478C21.5065 9.11915 21.4083 9.01511 21.2882 8.98378C21.1681 8.95234 21.0699 8.85867 21.0699 8.77559C21.0699 8.69262 20.9716 8.62461 20.8515 8.62461C20.706 8.62461 20.6332 8.55179 20.6332 8.40627C20.6332 8.28498 20.5604 8.18793 20.4694 8.18793C20.3794 8.18793 20.3057 8.11424 20.3057 8.02417C20.3057 7.93323 20.2086 7.86041 20.0873 7.86041C19.9418 7.86041 19.869 7.7876 19.869 7.64207C19.869 7.52079 19.7962 7.42373 19.7052 7.42373C19.6152 7.42373 19.5415 7.35004 19.5415 7.25998C19.5415 7.16991 19.4632 7.09622 19.3675 7.09622C19.2718 7.09622 19.1678 6.99797 19.1365 6.87788C19.105 6.75779 19.0171 6.65954 18.941 6.65954C18.865 6.65954 18.7771 6.56129 18.7456 6.4412C18.7143 6.32111 18.6103 6.22286 18.5146 6.22286C18.4189 6.22286 18.3406 6.15485 18.3406 6.07188C18.3406 5.9888 18.2424 5.89513 18.1223 5.86369C18.0022 5.83236 17.9039 5.72832 17.9039 5.63269C17.9039 5.53694 17.8302 5.45867 17.7402 5.45867C17.6501 5.45867 17.5764 5.38498 17.5764 5.29491C17.5764 5.20397 17.4794 5.13116 17.3581 5.13116C17.2126 5.13116 17.1397 5.05834 17.1397 4.91282C17.1397 4.79153 17.0669 4.69448 16.976 4.69448C16.8859 4.69448 16.8122 4.62079 16.8122 4.53072C16.8122 4.44066 16.734 4.36697 16.6382 4.36697C16.5426 4.36697 16.4385 4.26871 16.4072 4.14862C16.3758 4.02854 16.2821 3.93028 16.199 3.93028C16.116 3.93028 16.048 3.85201 16.048 3.75627C16.048 3.66063 15.9498 3.55659 15.8297 3.52526C15.7096 3.49382 15.6114 3.40561 15.6114 3.3293C15.6114 3.25288 15.4394 3.15812 15.2293 3.11871C15.0005 3.07581 14.8472 2.98323 14.8472 2.88825C14.8472 2.77952 14.7266 2.72941 14.4651 2.72941C14.1558 2.72941 14.083 2.771 14.083 2.94775ZM11.3537 5.63269C11.3537 5.72832 11.2555 5.83236 11.1354 5.86369C11.0153 5.89513 10.917 5.9888 10.917 6.07188C10.917 6.15485 10.8433 6.22286 10.7533 6.22286C10.6623 6.22286 10.5895 6.31991 10.5895 6.4412C10.5895 6.58673 10.5167 6.65954 10.3712 6.65954C10.2499 6.65954 10.1528 6.73236 10.1528 6.8233C10.1528 6.91336 10.0791 6.98705 9.98908 6.98705C9.89814 6.98705 9.82533 7.08411 9.82533 7.20539C9.82533 7.35092 9.75251 7.42373 9.60699 7.42373C9.46146 7.42373 9.38865 7.49655 9.38865 7.64207C9.38865 7.7876 9.31583 7.86041 9.17031 7.86041C9.04902 7.86041 8.95196 7.93323 8.95196 8.02417C8.95196 8.11424 8.87827 8.18793 8.78821 8.18793C8.69727 8.18793 8.62445 8.28498 8.62445 8.40627C8.62445 8.55179 8.55164 8.62461 8.40611 8.62461C8.28483 8.62461 8.18777 8.69742 8.18777 8.78836C8.18777 8.87843 8.11976 8.95212 8.03679 8.95212C7.95371 8.95212 7.86004 9.05037 7.8286 9.17046C7.79727 9.29055 7.69323 9.3888 7.5976 9.3888C7.4964 9.3888 7.42358 9.48018 7.42358 9.60714C7.42358 9.75266 7.35076 9.82548 7.20524 9.82548C7.08395 9.82548 6.9869 9.8983 6.9869 9.98924C6.9869 10.0793 6.91321 10.153 6.82314 10.153C6.7322 10.153 6.65939 10.25 6.65939 10.3713C6.65939 10.5169 6.58657 10.5897 6.44105 10.5897C6.31976 10.5897 6.22271 10.6625 6.22271 10.7534C6.22271 10.8435 6.15469 10.9172 6.07172 10.9172C5.98865 10.9172 5.89498 11.0154 5.86354 11.1355C5.8322 11.2556 5.72817 11.3539 5.63253 11.3539C5.53679 11.3539 5.45852 11.4276 5.45852 11.5176C5.45852 11.6077 5.3905 11.6814 5.30753 11.6814C5.22445 11.6814 5.13079 11.7796 5.09934 11.8997C5.06801 12.0198 4.96976 12.1181 4.881 12.1181C4.79236 12.1181 4.6941 12.2163 4.66266 12.3364C4.63133 12.4565 4.52729 12.5547 4.43166 12.5547C4.33592 12.5547 4.25764 12.6284 4.25764 12.7185C4.25764 12.8086 4.18395 12.8822 4.09389 12.8822C4.00295 12.8822 3.93013 12.9793 3.93013 13.1006C3.93013 13.2461 3.85731 13.3189 3.71179 13.3189C3.5905 13.3189 3.49345 13.3917 3.49345 13.4827C3.49345 13.5728 3.41976 13.6464 3.32969 13.6464C3.23876 13.6464 3.16594 13.7435 3.16594 13.8648C3.16594 14.0103 3.09312 14.0831 2.9476 14.0831C2.82631 14.0831 2.72926 14.1559 2.72926 14.2469C2.72926 14.3369 2.65557 14.4106 2.5655 14.4106C2.47456 14.4106 2.40175 14.5077 2.40175 14.629C2.40175 14.77 2.32893 14.8473 2.19618 14.8473C2.08231 14.8473 1.96507 14.9448 1.93341 15.0657C1.90207 15.1857 1.79803 15.284 1.7024 15.284C1.57631 15.284 1.52838 15.3892 1.52838 15.6661C1.52838 15.9329 1.47904 16.0482 1.36463 16.0482C1.27456 16.0482 1.20087 16.1219 1.20087 16.2119C1.20087 16.302 1.2691 16.3757 1.35251 16.3757C1.4393 16.3757 1.53472 16.5389 1.57576 16.7578C1.61867 16.9865 1.71124 17.1399 1.80622 17.1399C1.89356 17.1399 1.96507 17.2381 1.96507 17.3582C1.96507 17.5038 2.03788 17.5766 2.18341 17.5766C2.30469 17.5766 2.40175 17.6494 2.40175 17.7403C2.40175 17.8495 2.51092 17.9041 2.72926 17.9041C2.9476 17.9041 3.05677 17.8495 3.05677 17.7403C3.05677 17.6063 3.24476 17.5766 4.09389 17.5766C4.94301 17.5766 5.131 17.6063 5.131 17.7403C5.131 17.8506 5.24127 17.9041 5.46878 17.9041C5.70906 17.9041 5.82216 17.964 5.86092 18.1122C5.89552 18.2447 6.05033 18.3456 6.28734 18.39C6.61092 18.4507 6.65939 18.5018 6.65939 18.7824C6.65939 19.0321 6.70862 19.105 6.87773 19.105C7.02325 19.105 7.09607 19.1778 7.09607 19.3233C7.09607 19.4446 7.16889 19.5416 7.25983 19.5416C7.39662 19.5416 7.42358 19.7661 7.42358 20.9063C7.42358 22.0464 7.39662 22.2709 7.25983 22.2709C7.16976 22.2709 7.09607 22.3446 7.09607 22.4347C7.09607 22.5247 7.16976 22.5984 7.25983 22.5984C7.35076 22.5984 7.42358 22.6955 7.42358 22.8167C7.42358 22.9623 7.4964 23.0351 7.64192 23.0351C7.76201 23.0351 7.86026 23.1066 7.86026 23.1939C7.86026 23.2889 8.01365 23.3815 8.24236 23.4244C8.46124 23.4654 8.62445 23.5609 8.62445 23.6476C8.62445 23.7482 8.75327 23.7993 9.00655 23.7993C9.27336 23.7993 9.38865 23.7499 9.38865 23.6355C9.38865 23.5455 9.46692 23.4718 9.56266 23.4718C9.6583 23.4718 9.76234 23.3735 9.79367 23.2534C9.82511 23.1333 9.91878 23.0351 10.0019 23.0351C10.0848 23.0351 10.1528 22.9614 10.1528 22.8713C10.1528 22.7813 10.2311 22.7076 10.3269 22.7076C10.4225 22.7076 10.5265 22.6093 10.5579 22.4892C10.5893 22.3691 10.683 22.2709 10.766 22.2709C10.849 22.2709 10.917 22.1972 10.917 22.1071C10.917 22.0171 10.9953 21.9434 11.091 21.9434C11.1867 21.9434 11.2907 21.8451 11.3221 21.725C11.3535 21.605 11.4279 21.5067 11.4876 21.5067C11.6453 21.5067 12.1138 21.0388 12.116 20.879C12.117 20.804 12.1962 20.7425 12.2919 20.7425C12.3876 20.7425 12.4916 20.6443 12.5229 20.5242C12.5546 20.4033 12.6718 20.3058 12.7857 20.3058C12.8987 20.3058 12.9913 20.2374 12.9913 20.1538C12.9913 20.0701 13.065 19.9734 13.155 19.9388C13.2451 19.9043 13.3188 19.8008 13.3188 19.7088C13.3188 19.6169 13.3802 19.5408 13.4552 19.5398C13.6151 19.5375 14.083 19.069 14.083 18.9113C14.083 18.8517 14.1812 18.7772 14.3013 18.7458C14.4214 18.7145 14.5197 18.6104 14.5197 18.5148C14.5197 18.419 14.5933 18.3408 14.6834 18.3408C14.7735 18.3408 14.8472 18.2728 14.8472 18.1898C14.8472 18.1067 14.9454 18.013 15.0655 17.9816C15.1856 17.9503 15.2838 17.8462 15.2838 17.7506C15.2838 17.6494 15.3752 17.5766 15.5022 17.5766C15.6223 17.5766 15.7205 17.5081 15.7205 17.4245C15.7205 17.3409 15.7942 17.2441 15.8843 17.2095C15.9743 17.175 16.048 17.0716 16.048 16.9795C16.048 16.8876 16.1095 16.8115 16.1845 16.8105C16.3443 16.8082 16.8122 16.3398 16.8122 16.182C16.8122 16.1224 16.9105 16.048 17.0306 16.0165C17.1507 15.9852 17.2489 15.8812 17.2489 15.7855C17.2489 15.6898 17.3226 15.6115 17.4127 15.6115C17.5027 15.6115 17.5764 15.5378 17.5764 15.4478C17.5764 15.3577 17.6547 15.284 17.7504 15.284C17.8461 15.284 17.9501 15.1857 17.9814 15.0657C18.0129 14.9456 18.1066 14.8473 18.1896 14.8473C18.2726 14.8473 18.3406 14.7793 18.3406 14.6963C18.3406 14.6133 18.4389 14.5196 18.559 14.4881C18.679 14.4568 18.7773 14.3528 18.7773 14.2571C18.7773 14.1614 18.8388 14.0822 18.9138 14.0813C18.9889 14.0802 19.1607 13.9627 19.2959 13.8202C19.5736 13.5272 19.6386 12.8822 19.3905 12.8822C19.3074 12.8822 19.2138 12.784 19.1823 12.6639C19.151 12.5438 19.0469 12.4456 18.9513 12.4456C18.8556 12.4456 18.7773 12.3719 18.7773 12.2818C18.7773 12.1909 18.6802 12.1181 18.559 12.1181C18.4134 12.1181 18.3406 12.0452 18.3406 11.8997C18.3406 11.7784 18.2678 11.6814 18.1769 11.6814C18.0868 11.6814 18.0131 11.6077 18.0131 11.5176C18.0131 11.4267 17.916 11.3539 17.7948 11.3539C17.6492 11.3539 17.5764 11.281 17.5764 11.1355C17.5764 11.0154 17.5084 10.9172 17.4254 10.9172C17.3424 10.9172 17.2487 10.8189 17.2172 10.6988C17.1859 10.5788 17.0819 10.4805 16.9862 10.4805C16.8905 10.4805 16.8122 10.4068 16.8122 10.3167C16.8122 10.2258 16.7152 10.153 16.5939 10.153C16.4484 10.153 16.3755 10.0802 16.3755 9.93465C16.3755 9.81336 16.3027 9.71631 16.2118 9.71631C16.1217 9.71631 16.048 9.64262 16.048 9.55256C16.048 9.46162 15.951 9.3888 15.8297 9.3888C15.6842 9.3888 15.6114 9.31598 15.6114 9.17046C15.6114 9.04917 15.5385 8.95212 15.4476 8.95212C15.3575 8.95212 15.2838 8.87843 15.2838 8.78836C15.2838 8.69742 15.1868 8.62461 15.0655 8.62461C14.92 8.62461 14.8472 8.55179 14.8472 8.40627C14.8472 8.28618 14.7791 8.18793 14.6962 8.18793C14.6131 8.18793 14.5194 8.08967 14.488 7.96959C14.4567 7.8495 14.3526 7.75125 14.257 7.75125C14.1612 7.75125 14.083 7.67756 14.083 7.58749C14.083 7.49742 14.0093 7.42373 13.9192 7.42373C13.8291 7.42373 13.7555 7.34546 13.7555 7.24972C13.7555 7.15408 13.6572 7.05004 13.5371 7.01871C13.417 6.98727 13.3188 6.89939 13.3188 6.8233C13.3188 6.74721 13.2205 6.65932 13.1004 6.62788C12.9803 6.59655 12.8821 6.49251 12.8821 6.39688C12.8821 6.30114 12.8084 6.22286 12.7183 6.22286C12.6283 6.22286 12.5546 6.14459 12.5546 6.04884C12.5546 5.95321 12.4563 5.84917 12.3362 5.81784C12.2162 5.7864 12.1179 5.69273 12.1179 5.60965C12.1179 5.50987 11.9883 5.45867 11.7358 5.45867C11.459 5.45867 11.3537 5.50659 11.3537 5.63269Z" fill="#26A387"/>
<path fill-rule="evenodd" clip-rule="evenodd" d="M13.7555 1.80145C13.7555 1.91586 13.6402 1.96521 13.3734 1.96521C13.0965 1.96521 12.9913 2.01313 12.9913 2.13922C12.9913 2.23486 12.893 2.3389 12.7729 2.37023C12.6528 2.40167 12.5546 2.49534 12.5546 2.57842C12.5546 2.66139 12.4563 2.7294 12.3362 2.7294C12.1907 2.7294 12.1179 2.80221 12.1179 2.94774C12.1179 3.06903 12.0451 3.16608 11.9541 3.16608C11.8641 3.16608 11.7904 3.24435 11.7904 3.3401C11.7904 3.43573 11.6921 3.53977 11.5721 3.5711C11.452 3.60254 11.3537 3.69621 11.3537 3.77929C11.3537 3.86226 11.2555 3.93027 11.1354 3.93027C10.9898 3.93027 10.917 4.00309 10.917 4.14861C10.917 4.2699 10.8442 4.36695 10.7533 4.36695C10.6632 4.36695 10.5895 4.44064 10.5895 4.53071C10.5895 4.62165 10.4925 4.69446 10.3712 4.69446C10.2257 4.69446 10.1528 4.76728 10.1528 4.9128C10.1528 5.03409 10.08 5.13115 9.98908 5.13115C9.89902 5.13115 9.82533 5.20484 9.82533 5.2949C9.82533 5.38584 9.72828 5.45866 9.60699 5.45866C9.46146 5.45866 9.38865 5.53147 9.38865 5.677C9.38865 5.79708 9.32063 5.89534 9.23766 5.89534C9.15458 5.89534 9.06092 5.99359 9.02948 6.11368C8.99814 6.23377 8.8941 6.33202 8.79847 6.33202C8.70273 6.33202 8.62445 6.40571 8.62445 6.49577C8.62445 6.58671 8.5274 6.65953 8.40611 6.65953C8.26059 6.65953 8.18777 6.73235 8.18777 6.87787C8.18777 6.99916 8.11496 7.09621 8.02402 7.09621C7.93395 7.09621 7.86026 7.1699 7.86026 7.25997C7.86026 7.3509 7.76321 7.42372 7.64192 7.42372C7.4964 7.42372 7.42358 7.49654 7.42358 7.64206C7.42358 7.76335 7.35076 7.8604 7.25983 7.8604C7.16976 7.8604 7.09607 7.93409 7.09607 8.02416C7.09607 8.1151 6.99902 8.18791 6.87773 8.18791C6.73221 8.18791 6.65939 8.26073 6.65939 8.40625C6.65939 8.52634 6.59138 8.6246 6.50841 8.6246C6.42533 8.6246 6.33166 8.72285 6.30022 8.84294C6.26889 8.96302 6.16485 9.06128 6.06921 9.06128C5.97347 9.06128 5.8952 9.13497 5.8952 9.22503C5.8952 9.31597 5.79814 9.38879 5.67686 9.38879C5.53133 9.38879 5.45852 9.4616 5.45852 9.60713C5.45852 9.72842 5.3857 9.82547 5.29476 9.82547C5.20469 9.82547 5.131 9.89916 5.131 9.98922C5.131 10.0802 5.03395 10.153 4.91266 10.153C4.76714 10.153 4.69432 10.2258 4.69432 10.3713C4.69432 10.4914 4.62631 10.5897 4.54334 10.5897C4.46026 10.5897 4.36659 10.6879 4.33515 10.808C4.30382 10.9281 4.19978 11.0263 4.10415 11.0263C4.00841 11.0263 3.93013 11.1 3.93013 11.1901C3.93013 11.2802 3.86212 11.3539 3.77915 11.3539C3.69607 11.3539 3.6024 11.4521 3.57096 11.5722C3.53963 11.6923 3.43559 11.7905 3.33996 11.7905C3.24421 11.7905 3.16594 11.8642 3.16594 11.9543C3.16594 12.0452 3.06889 12.118 2.9476 12.118C2.80207 12.118 2.72926 12.1909 2.72926 12.3364C2.72926 12.4577 2.65644 12.5547 2.5655 12.5547C2.47544 12.5547 2.40175 12.6284 2.40175 12.7185C2.40175 12.8094 2.30469 12.8822 2.18341 12.8822C2.03788 12.8822 1.96507 12.9551 1.96507 13.1006C1.96507 13.2207 1.89705 13.3189 1.81408 13.3189C1.731 13.3189 1.63734 13.4172 1.6059 13.5373C1.57456 13.6573 1.47052 13.7556 1.37489 13.7556C1.27915 13.7556 1.20087 13.8293 1.20087 13.9194C1.20087 14.0103 1.10382 14.0831 0.982533 14.0831C0.805786 14.0831 0.764192 14.1559 0.764192 14.4652C0.764192 14.7185 0.7131 14.8473 0.612555 14.8473C0.525764 14.8473 0.430349 15.0105 0.389301 15.2294C0.346397 15.4581 0.253821 15.6115 0.158843 15.6115C0.039083 15.6115 0 15.7593 0 16.2119C0 16.7396 0.0264192 16.8124 0.218341 16.8124C0.395087 16.8124 0.436681 16.8852 0.436681 17.1945C0.436681 17.447 0.487882 17.5766 0.587664 17.5766C0.670742 17.5766 0.76441 17.6748 0.795852 17.7949C0.827183 17.915 0.931223 18.0132 1.02686 18.0132C1.1226 18.0132 1.20087 18.0869 1.20087 18.177C1.20087 18.2671 1.26889 18.3408 1.35186 18.3408C1.43493 18.3408 1.5286 18.439 1.56004 18.5591C1.59138 18.6792 1.69541 18.7774 1.79105 18.7774C1.88679 18.7774 1.96507 18.8454 1.96507 18.9284C1.96507 19.12 2.38428 19.2016 3.00786 19.1313C3.31954 19.0961 3.49345 19.023 3.49345 18.927C3.49345 18.8146 3.68341 18.7774 4.25764 18.7774C4.86419 18.7774 5.02183 18.8113 5.02183 18.9412C5.02183 19.0321 5.11889 19.1049 5.24017 19.1049C5.3857 19.1049 5.45852 19.1778 5.45852 19.3233C5.45852 19.4688 5.53133 19.5416 5.67686 19.5416C5.82238 19.5416 5.8952 19.6144 5.8952 19.76C5.8952 19.8813 5.96801 19.9783 6.05895 19.9783C6.1917 19.9783 6.22271 20.1542 6.22271 20.9063C6.22271 21.6583 6.1917 21.8342 6.05895 21.8342C5.93319 21.8342 5.8952 21.9737 5.8952 22.4346C5.8952 22.8956 5.93319 23.0351 6.05895 23.0351C6.14902 23.0351 6.22271 23.1133 6.22271 23.2091C6.22271 23.3047 6.32096 23.4088 6.44105 23.4401C6.56114 23.4715 6.65939 23.5652 6.65939 23.6483C6.65939 23.7313 6.73308 23.7993 6.82314 23.7993C6.91321 23.7993 6.9869 23.8775 6.9869 23.9733C6.9869 24.0689 7.08515 24.173 7.20524 24.2043C7.32533 24.2357 7.42358 24.3239 7.42358 24.4003C7.42358 24.4767 7.59552 24.5714 7.80568 24.6108C8.03439 24.6537 8.18777 24.7463 8.18777 24.8413C8.18777 24.9649 8.35448 25.0001 8.93919 25.0001C9.59891 25.0001 9.69771 24.9735 9.74782 24.7818C9.78941 24.6228 9.89672 24.5635 10.1426 24.5635C10.3701 24.5635 10.4803 24.51 10.4803 24.3997C10.4803 24.3088 10.5774 24.236 10.6987 24.236C10.8442 24.236 10.917 24.1631 10.917 24.0176C10.917 23.8721 10.9898 23.7993 11.1354 23.7993C11.2567 23.7993 11.3537 23.7265 11.3537 23.6355C11.3537 23.5454 11.4274 23.4718 11.5175 23.4718C11.6084 23.4718 11.6812 23.3747 11.6812 23.2534C11.6812 23.1079 11.754 23.0351 11.8996 23.0351C12.0451 23.0351 12.1179 22.9623 12.1179 22.8167C12.1179 22.6954 12.1907 22.5984 12.2817 22.5984C12.3717 22.5984 12.4454 22.5247 12.4454 22.4346C12.4454 22.3437 12.5425 22.2709 12.6638 22.2709C12.8093 22.2709 12.8821 22.1981 12.8821 22.0525C12.8821 21.9313 12.9549 21.8342 13.0459 21.8342C13.1359 21.8342 13.2096 21.7605 13.2096 21.6704C13.2096 21.5795 13.3067 21.5067 13.4279 21.5067C13.5735 21.5067 13.6463 21.4339 13.6463 21.2884C13.6463 21.1428 13.7191 21.07 13.8646 21.07C14.0102 21.07 14.083 20.9972 14.083 20.8517C14.083 20.7304 14.1558 20.6333 14.2467 20.6333C14.3368 20.6333 14.4105 20.5596 14.4105 20.4696C14.4105 20.3786 14.5075 20.3058 14.6288 20.3058C14.7743 20.3058 14.8472 20.233 14.8472 20.0875C14.8472 19.9662 14.92 19.8691 15.0109 19.8691C15.101 19.8691 15.1747 19.7954 15.1747 19.7054C15.1747 19.6144 15.2717 19.5416 15.393 19.5416C15.5385 19.5416 15.6114 19.4688 15.6114 19.3233C15.6114 19.1778 15.6842 19.1049 15.8297 19.1049C15.951 19.1049 16.048 19.0321 16.048 18.9412C16.048 18.8511 16.1217 18.7774 16.2118 18.7774C16.3027 18.7774 16.3755 18.6804 16.3755 18.5591C16.3755 18.4136 16.4484 18.3408 16.5939 18.3408C16.7394 18.3408 16.8122 18.2679 16.8122 18.1224C16.8122 18.0011 16.885 17.9041 16.976 17.9041C17.066 17.9041 17.1397 17.8304 17.1397 17.7403C17.1397 17.6494 17.2368 17.5766 17.3581 17.5766C17.5036 17.5766 17.5764 17.5037 17.5764 17.3582C17.5764 17.2369 17.6492 17.1399 17.7402 17.1399C17.8302 17.1399 17.9039 17.0662 17.9039 16.9761C17.9039 16.8852 18.001 16.8124 18.1223 16.8124C18.2678 16.8124 18.3406 16.7396 18.3406 16.594C18.3406 16.4485 18.4134 16.3757 18.559 16.3757C18.6802 16.3757 18.7773 16.3029 18.7773 16.2119C18.7773 16.1219 18.851 16.0482 18.941 16.0482C19.032 16.0482 19.1048 15.9511 19.1048 15.8298C19.1048 15.6843 19.1776 15.6115 19.3231 15.6115C19.4687 15.6115 19.5415 15.5387 19.5415 15.3932C19.5415 15.2719 19.6143 15.1748 19.7052 15.1748C19.7953 15.1748 19.869 15.1011 19.869 15.0111C19.869 14.9201 19.966 14.8473 20.0873 14.8473C20.2329 14.8473 20.3057 14.7745 20.3057 14.629C20.3057 14.5077 20.3785 14.4106 20.4694 14.4106C20.5595 14.4106 20.6332 14.3369 20.6332 14.2469C20.6332 14.1559 20.7302 14.0831 20.8515 14.0831C20.9971 14.0831 21.0699 14.0103 21.0699 13.8648C21.0699 13.7192 21.1427 13.6464 21.2882 13.6464C21.4337 13.6464 21.5066 13.5736 21.5066 13.4281C21.5066 13.3068 21.5794 13.2097 21.6703 13.2097C21.7604 13.2097 21.8341 13.1361 21.8341 13.046C21.8341 12.9551 21.9311 12.8822 22.0524 12.8822C22.1979 12.8822 22.2707 12.8094 22.2707 12.6639C22.2707 12.5426 22.3436 12.4456 22.4345 12.4456C22.5246 12.4456 22.5983 12.3719 22.5983 12.2818C22.5983 12.1909 22.6953 12.118 22.8166 12.118C22.9933 12.118 23.0349 12.0452 23.0349 11.7359C23.0349 11.4691 23.0843 11.3539 23.1987 11.3539C23.3297 11.3539 23.3624 11.1901 23.3624 10.5351C23.3624 10.0847 23.3155 9.7163 23.2582 9.7163C23.2009 9.7163 23.1217 9.54435 23.0823 9.3342C23.0413 9.11532 22.9459 8.95211 22.8591 8.95211C22.7757 8.95211 22.7074 8.87842 22.7074 8.78835C22.7074 8.69741 22.6104 8.6246 22.4891 8.6246C22.3436 8.6246 22.2707 8.55178 22.2707 8.40625C22.2707 8.28497 22.1979 8.18791 22.107 8.18791C22.0169 8.18791 21.9432 8.10964 21.9432 8.0139C21.9432 7.91826 21.845 7.81422 21.7249 7.78289C21.6048 7.75145 21.5066 7.65778 21.5066 7.5747C21.5066 7.49173 21.4083 7.42372 21.2882 7.42372C21.1427 7.42372 21.0699 7.3509 21.0699 7.20538C21.0699 7.08409 20.9971 6.98704 20.9061 6.98704C20.816 6.98704 20.7424 6.91335 20.7424 6.82329C20.7424 6.73235 20.6453 6.65953 20.524 6.65953C20.3785 6.65953 20.3057 6.58671 20.3057 6.44119C20.3057 6.3211 20.2377 6.22285 20.1547 6.22285C20.0716 6.22285 19.9779 6.1246 19.9465 6.00451C19.9152 5.88442 19.8111 5.78617 19.7155 5.78617C19.6198 5.78617 19.5415 5.71248 19.5415 5.62241C19.5415 5.53235 19.4735 5.45866 19.3905 5.45866C19.3074 5.45866 19.2138 5.3604 19.1823 5.24032C19.151 5.12023 19.0469 5.02198 18.9513 5.02198C18.8556 5.02198 18.7773 4.94828 18.7773 4.85822C18.7773 4.76728 18.6802 4.69446 18.559 4.69446C18.4134 4.69446 18.3406 4.62165 18.3406 4.47612C18.3406 4.35484 18.2678 4.25778 18.1769 4.25778C18.0868 4.25778 18.0131 4.18409 18.0131 4.09403C18.0131 4.00309 17.916 3.93027 17.7948 3.93027C17.6492 3.93027 17.5764 3.85746 17.5764 3.71193C17.5764 3.59184 17.5084 3.49359 17.4254 3.49359C17.3424 3.49359 17.2487 3.39534 17.2173 3.27525C17.1859 3.15516 17.0819 3.05691 16.9862 3.05691C16.8905 3.05691 16.8122 2.98322 16.8122 2.89315C16.8122 2.80221 16.7152 2.7294 16.5939 2.7294C16.4484 2.7294 16.3755 2.65658 16.3755 2.51106C16.3755 2.38977 16.3027 2.29272 16.2118 2.29272C16.1217 2.29272 16.048 2.21903 16.048 2.12896C16.048 2.01455 15.9328 1.96521 15.6659 1.96521C15.3991 1.96521 15.2838 1.91586 15.2838 1.80145C15.2838 1.67154 15.1262 1.6377 14.5197 1.6377C13.9131 1.6377 13.7555 1.67154 13.7555 1.80145ZM13.7555 2.90342C13.7555 2.99905 13.6572 3.10309 13.5371 3.13442C13.417 3.16586 13.3188 3.25953 13.3188 3.34261C13.3188 3.42558 13.2205 3.49359 13.1004 3.49359C12.9549 3.49359 12.8821 3.56641 12.8821 3.71193C12.8821 3.83322 12.8093 3.93027 12.7183 3.93027C12.6283 3.93027 12.5546 4.00396 12.5546 4.09403C12.5546 4.18409 12.6283 4.25778 12.7183 4.25778C12.8093 4.25778 12.8821 4.35484 12.8821 4.47612C12.8821 4.59621 12.9501 4.69446 13.0331 4.69446C13.1162 4.69446 13.2098 4.79272 13.2413 4.9128C13.2726 5.03289 13.3766 5.13115 13.4723 5.13115C13.568 5.13115 13.6463 5.19916 13.6463 5.28213C13.6463 5.36521 13.7445 5.45887 13.8646 5.49032C13.9847 5.52165 14.083 5.62569 14.083 5.72132C14.083 5.81706 14.1567 5.89534 14.2467 5.89534C14.3368 5.89534 14.4105 5.96903 14.4105 6.05909C14.4105 6.15003 14.5075 6.22285 14.6288 6.22285C14.7743 6.22285 14.8472 6.29566 14.8472 6.44119C14.8472 6.56128 14.9152 6.65953 14.9981 6.65953C15.0812 6.65953 15.1749 6.75778 15.2063 6.87787C15.2377 6.99796 15.3417 7.09621 15.4373 7.09621C15.5331 7.09621 15.6114 7.1699 15.6114 7.25997C15.6114 7.3509 15.7084 7.42372 15.8297 7.42372C15.9752 7.42372 16.048 7.49654 16.048 7.64206C16.048 7.76335 16.1209 7.8604 16.2118 7.8604C16.3019 7.8604 16.3755 7.93409 16.3755 8.02416C16.3755 8.1151 16.4726 8.18791 16.5939 8.18791C16.7394 8.18791 16.8122 8.26073 16.8122 8.40625C16.8122 8.52754 16.885 8.6246 16.976 8.6246C17.066 8.6246 17.1397 8.69829 17.1397 8.78835C17.1397 8.87929 17.2368 8.95211 17.3581 8.95211C17.5036 8.95211 17.5764 9.02492 17.5764 9.17045C17.5764 9.29173 17.6492 9.38879 17.7402 9.38879C17.8302 9.38879 17.9039 9.46706 17.9039 9.56281C17.9039 9.65844 18.0022 9.76248 18.1223 9.79381C18.2424 9.82525 18.3406 9.91892 18.3406 10.002C18.3406 10.085 18.4086 10.153 18.4916 10.153C18.5747 10.153 18.6683 10.2512 18.6998 10.3713C18.7311 10.4914 18.8294 10.5897 18.9181 10.5897C19.0068 10.5897 19.105 10.6879 19.1365 10.808C19.1678 10.9281 19.2718 11.0263 19.3675 11.0263C19.4632 11.0263 19.5415 11.1 19.5415 11.1901C19.5415 11.2802 19.6095 11.3539 19.6925 11.3539C19.7755 11.3539 19.8692 11.4521 19.9007 11.5722C19.932 11.6923 20.036 11.7905 20.1317 11.7905C20.2274 11.7905 20.3057 11.8642 20.3057 11.9543C20.3057 12.0444 20.3737 12.118 20.4567 12.118C20.5397 12.118 20.6334 12.2163 20.6648 12.3364C20.7397 12.6226 21.0699 12.6226 21.0699 12.3364C21.0699 12.1909 21.1427 12.118 21.2882 12.118C21.4337 12.118 21.5066 12.0452 21.5066 11.8997C21.5066 11.7784 21.5794 11.6814 21.6703 11.6814C21.7604 11.6814 21.8341 11.6077 21.8341 11.5176C21.8341 11.4267 21.9311 11.3539 22.0524 11.3539C22.2513 11.3539 22.2707 11.281 22.2707 10.5351C22.2707 9.88005 22.238 9.7163 22.107 9.7163C22.0169 9.7163 21.9432 9.63802 21.9432 9.54228C21.9432 9.44665 21.845 9.34261 21.7249 9.31128C21.6048 9.27984 21.5066 9.18617 21.5066 9.10309C21.5066 9.02012 21.4329 8.95211 21.3428 8.95211C21.2527 8.95211 21.179 8.87383 21.179 8.77809C21.179 8.68246 21.0808 8.57842 20.9607 8.54708C20.8406 8.51564 20.7424 8.42198 20.7424 8.3389C20.7424 8.25593 20.6441 8.18791 20.524 8.18791C20.3785 8.18791 20.3057 8.1151 20.3057 7.96957C20.3057 7.84829 20.2329 7.75123 20.1419 7.75123C20.0519 7.75123 19.9782 7.67754 19.9782 7.58748C19.9782 7.49654 19.8811 7.42372 19.7598 7.42372C19.6143 7.42372 19.5415 7.3509 19.5415 7.20538C19.5415 7.08529 19.4735 6.98704 19.3905 6.98704C19.3074 6.98704 19.2138 6.88879 19.1823 6.7687C19.151 6.64861 19.0469 6.55036 18.9513 6.55036C18.8556 6.55036 18.7773 6.47667 18.7773 6.3866C18.7773 6.29654 18.7036 6.22285 18.6135 6.22285C18.5235 6.22285 18.4498 6.14457 18.4498 6.04883C18.4498 5.9532 18.3515 5.84916 18.2314 5.81783C18.1114 5.78639 18.0131 5.69272 18.0131 5.60964C18.0131 5.52667 17.9148 5.45866 17.7948 5.45866C17.6492 5.45866 17.5764 5.38584 17.5764 5.24032C17.5764 5.11903 17.5036 5.02198 17.4127 5.02198C17.3226 5.02198 17.2489 4.94828 17.2489 4.85822C17.2489 4.76728 17.1519 4.69446 17.0306 4.69446C16.885 4.69446 16.8122 4.62165 16.8122 4.47612C16.8122 4.35604 16.7442 4.25778 16.6612 4.25778C16.5782 4.25778 16.4845 4.15953 16.4531 4.03944C16.4217 3.91935 16.3177 3.8211 16.2221 3.8211C16.1263 3.8211 16.048 3.74741 16.048 3.65735C16.048 3.56728 15.98 3.49359 15.8971 3.49359C15.814 3.49359 15.7203 3.39534 15.6889 3.27525C15.6575 3.15516 15.5535 3.05691 15.4579 3.05691C15.3621 3.05691 15.2838 2.98322 15.2838 2.89315C15.2838 2.76324 15.1262 2.7294 14.5197 2.7294C13.8932 2.7294 13.7555 2.76073 13.7555 2.90342ZM11.5448 5.09719C11.4396 5.1247 11.3537 5.21728 11.3537 5.30287C11.3537 5.38857 11.2555 5.45866 11.1354 5.45866C10.9898 5.45866 10.917 5.53147 10.917 5.677C10.917 5.79829 10.8442 5.89534 10.7533 5.89534C10.6632 5.89534 10.5895 5.96903 10.5895 6.05909C10.5895 6.15003 10.4925 6.22285 10.3712 6.22285C10.2257 6.22285 10.1528 6.29566 10.1528 6.44119C10.1528 6.56248 10.08 6.65953 9.98908 6.65953C9.89902 6.65953 9.82533 6.73322 9.82533 6.82329C9.82533 6.91422 9.72828 6.98704 9.60699 6.98704C9.46146 6.98704 9.38865 7.05986 9.38865 7.20538C9.38865 7.3509 9.31583 7.42372 9.17031 7.42372C9.02478 7.42372 8.95197 7.49654 8.95197 7.64206C8.95197 7.76335 8.87915 7.8604 8.78821 7.8604C8.69814 7.8604 8.62445 7.93409 8.62445 8.02416C8.62445 8.1151 8.5274 8.18791 8.40611 8.18791C8.26059 8.18791 8.18777 8.26073 8.18777 8.40625C8.18777 8.52754 8.11496 8.6246 8.02402 8.6246C7.93395 8.6246 7.86026 8.69829 7.86026 8.78835C7.86026 8.87929 7.76321 8.95211 7.64192 8.95211C7.4964 8.95211 7.42358 9.02492 7.42358 9.17045C7.42358 9.31597 7.35076 9.38879 7.20524 9.38879C7.05972 9.38879 6.9869 9.4616 6.9869 9.60713C6.9869 9.72842 6.91408 9.82547 6.82314 9.82547C6.73308 9.82547 6.65939 9.89916 6.65939 9.98922C6.65939 10.0802 6.56234 10.153 6.44105 10.153C6.29552 10.153 6.22271 10.2258 6.22271 10.3713C6.22271 10.4926 6.14989 10.5897 6.05895 10.5897C5.96889 10.5897 5.8952 10.6634 5.8952 10.7534C5.8952 10.8444 5.79814 10.9172 5.67686 10.9172C5.53133 10.9172 5.45852 10.99 5.45852 11.1355C5.45852 11.2568 5.3857 11.3539 5.29476 11.3539C5.20469 11.3539 5.131 11.4275 5.131 11.5176C5.131 11.6085 5.03395 11.6814 4.91266 11.6814C4.76714 11.6814 4.69432 11.7542 4.69432 11.8997C4.69432 12.0452 4.62151 12.118 4.47598 12.118C4.33046 12.118 4.25764 12.1909 4.25764 12.3364C4.25764 12.4577 4.18483 12.5547 4.09389 12.5547C4.00382 12.5547 3.93013 12.6284 3.93013 12.7185C3.93013 12.8094 3.83308 12.8822 3.71179 12.8822C3.56627 12.8822 3.49345 12.9551 3.49345 13.1006C3.49345 13.2219 3.42063 13.3189 3.32969 13.3189C3.23963 13.3189 3.16594 13.3926 3.16594 13.4827C3.16594 13.5736 3.06889 13.6464 2.9476 13.6464C2.80207 13.6464 2.72926 13.7192 2.72926 13.8648C2.72926 13.9861 2.65644 14.0831 2.5655 14.0831C2.47544 14.0831 2.40175 14.1568 2.40175 14.2469C2.40175 14.3378 2.30469 14.4106 2.18341 14.4106C2.03788 14.4106 1.96507 14.4834 1.96507 14.629C1.96507 14.7745 1.89225 14.8473 1.74672 14.8473C1.6012 14.8473 1.52838 14.9201 1.52838 15.0656C1.52838 15.1869 1.45557 15.284 1.36463 15.284C1.23472 15.284 1.20087 15.4416 1.20087 16.0482C1.20087 16.6547 1.23472 16.8124 1.36463 16.8124C1.45557 16.8124 1.52838 16.9094 1.52838 17.0307C1.52838 17.1762 1.6012 17.2491 1.74672 17.2491C1.86801 17.2491 1.96507 17.3219 1.96507 17.4128C1.96507 17.5029 2.03876 17.5766 2.12882 17.5766C2.21976 17.5766 2.29258 17.6736 2.29258 17.7949C2.29258 17.9799 2.36539 18.0132 2.7702 18.0132C3.46517 18.0132 3.93013 17.8984 3.93013 17.7267C3.93013 17.6441 4.00382 17.5766 4.09389 17.5766C4.18395 17.5766 4.25764 17.6441 4.25764 17.7267C4.25764 17.8936 4.71921 18.0132 5.36299 18.0132C5.66627 18.0132 5.78603 18.0596 5.78603 18.177C5.78603 18.2679 5.88308 18.3408 6.00437 18.3408C6.14989 18.3408 6.22271 18.4136 6.22271 18.5591C6.22271 18.7046 6.29552 18.7774 6.44105 18.7774C6.58657 18.7774 6.65939 18.8503 6.65939 18.9958C6.65939 19.1171 6.73221 19.2141 6.82314 19.2141C6.9286 19.2141 6.98745 19.3209 6.98843 19.5143C6.99072 19.9818 7.1071 20.3058 7.2726 20.3058C7.38286 20.3058 7.42358 20.4678 7.42358 20.9063C7.42358 21.3447 7.38286 21.5067 7.2726 21.5067C7.10055 21.5067 6.99061 21.8342 6.98843 22.3528C6.98723 22.6353 7.03133 22.7076 7.20524 22.7076C7.32653 22.7076 7.42358 22.7804 7.42358 22.8713C7.42358 22.9614 7.49727 23.0351 7.58734 23.0351C7.67828 23.0351 7.75109 23.1321 7.75109 23.2534C7.75109 23.3989 7.82391 23.4718 7.96943 23.4718C8.09072 23.4718 8.18777 23.5446 8.18777 23.6355C8.18777 23.7654 8.34542 23.7993 8.95197 23.7993C9.55852 23.7993 9.71616 23.7654 9.71616 23.6355C9.71616 23.5446 9.81321 23.4718 9.9345 23.4718C10.08 23.4718 10.1528 23.3989 10.1528 23.2534C10.1528 23.1079 10.2257 23.0351 10.3712 23.0351C10.4925 23.0351 10.5895 22.9623 10.5895 22.8713C10.5895 22.7813 10.6632 22.7076 10.7533 22.7076C10.8442 22.7076 10.917 22.6105 10.917 22.4892C10.917 22.3437 10.9898 22.2709 11.1354 22.2709C11.2809 22.2709 11.3537 22.1981 11.3537 22.0525C11.3537 21.9313 11.4265 21.8342 11.5175 21.8342C11.6075 21.8342 11.6812 21.7605 11.6812 21.6704C11.6812 21.5795 11.7783 21.5067 11.8996 21.5067C12.0451 21.5067 12.1179 21.4339 12.1179 21.2884C12.1179 21.1428 12.1907 21.07 12.3362 21.07C12.4575 21.07 12.5546 20.9972 12.5546 20.9063C12.5546 20.8162 12.6283 20.7425 12.7183 20.7425C12.8093 20.7425 12.8821 20.6454 12.8821 20.5242C12.8821 20.3786 12.9549 20.3058 13.1004 20.3058C13.2217 20.3058 13.3188 20.233 13.3188 20.1421C13.3188 20.052 13.3925 19.9783 13.4825 19.9783C13.5735 19.9783 13.6463 19.8813 13.6463 19.76C13.6463 19.6144 13.7191 19.5416 13.8646 19.5416C13.9859 19.5416 14.083 19.4688 14.083 19.3779C14.083 19.2878 14.1567 19.2141 14.2467 19.2141C14.3377 19.2141 14.4105 19.1171 14.4105 18.9958C14.4105 18.8503 14.4833 18.7774 14.6288 18.7774C14.7743 18.7774 14.8472 18.7046 14.8472 18.5591C14.8472 18.4136 14.92 18.3408 15.0655 18.3408C15.1868 18.3408 15.2838 18.2679 15.2838 18.177C15.2838 18.0869 15.3575 18.0132 15.4476 18.0132C15.5385 18.0132 15.6114 17.9162 15.6114 17.7949C15.6114 17.6494 15.6842 17.5766 15.8297 17.5766C15.951 17.5766 16.048 17.5037 16.048 17.4128C16.048 17.3227 16.1217 17.2491 16.2118 17.2491C16.3027 17.2491 16.3755 17.152 16.3755 17.0307C16.3755 16.8852 16.4484 16.8124 16.5939 16.8124C16.7394 16.8124 16.8122 16.7396 16.8122 16.594C16.8122 16.4727 16.885 16.3757 16.976 16.3757C17.066 16.3757 17.1397 16.302 17.1397 16.2119C17.1397 16.121 17.2368 16.0482 17.3581 16.0482C17.5036 16.0482 17.5764 15.9754 17.5764 15.8298C17.5764 15.6843 17.6492 15.6115 17.7948 15.6115C17.916 15.6115 18.0131 15.5387 18.0131 15.4477C18.0131 15.3577 18.0868 15.284 18.1769 15.284C18.2678 15.284 18.3406 15.1869 18.3406 15.0656C18.3406 14.9201 18.4134 14.8473 18.559 14.8473C18.7045 14.8473 18.7773 14.7745 18.7773 14.629C18.7773 14.5077 18.8501 14.4106 18.941 14.4106C19.0311 14.4106 19.1048 14.3369 19.1048 14.2469C19.1048 14.1559 19.2019 14.0831 19.3231 14.0831C19.4687 14.0831 19.5415 14.0103 19.5415 13.8648C19.5415 13.7192 19.6143 13.6464 19.7598 13.6464C20.0664 13.6464 20.0753 12.9964 19.7699 12.9165C19.6553 12.8866 19.5371 12.7684 19.5072 12.6539C19.4773 12.5392 19.3745 12.4456 19.2788 12.4456C19.1831 12.4456 19.1048 12.3719 19.1048 12.2818C19.1048 12.1917 19.0311 12.118 18.941 12.118C18.8501 12.118 18.7773 12.021 18.7773 11.8997C18.7773 11.7542 18.7045 11.6814 18.559 11.6814C18.4377 11.6814 18.3406 11.6085 18.3406 11.5176C18.3406 11.4275 18.2669 11.3539 18.1769 11.3539C18.0859 11.3539 18.0131 11.2568 18.0131 11.1355C18.0131 10.99 17.9403 10.9172 17.7948 10.9172C17.6747 10.9172 17.5764 10.8492 17.5764 10.7662C17.5764 10.6831 17.4782 10.5894 17.3581 10.558C17.238 10.5267 17.1397 10.4226 17.1397 10.327C17.1397 10.2313 17.066 10.153 16.976 10.153C16.885 10.153 16.8122 10.0559 16.8122 9.93464C16.8122 9.78911 16.7394 9.7163 16.5939 9.7163C16.4726 9.7163 16.3755 9.64348 16.3755 9.55254C16.3755 9.46248 16.3019 9.38879 16.2118 9.38879C16.1209 9.38879 16.048 9.29173 16.048 9.17045C16.048 9.02492 15.9752 8.95211 15.8297 8.95211C15.7084 8.95211 15.6114 8.87929 15.6114 8.78835C15.6114 8.69829 15.5377 8.6246 15.4476 8.6246C15.3567 8.6246 15.2838 8.52754 15.2838 8.40625C15.2838 8.26073 15.211 8.18791 15.0655 8.18791C14.9454 8.18791 14.8472 8.1199 14.8472 8.03693C14.8472 7.95385 14.7489 7.86018 14.6288 7.82874C14.5087 7.79741 14.4105 7.69337 14.4105 7.59774C14.4105 7.502 14.3368 7.42372 14.2467 7.42372C14.1558 7.42372 14.083 7.32667 14.083 7.20538C14.083 7.05986 14.0102 6.98704 13.8646 6.98704C13.7433 6.98704 13.6463 6.91422 13.6463 6.82329C13.6463 6.73322 13.5726 6.65953 13.4825 6.65953C13.3916 6.65953 13.3188 6.56248 13.3188 6.44119C13.3188 6.29566 13.246 6.22285 13.1004 6.22285C12.9791 6.22285 12.8821 6.15003 12.8821 6.05909C12.8821 5.96903 12.8084 5.89534 12.7183 5.89534C12.6274 5.89534 12.5546 5.79829 12.5546 5.677C12.5546 5.53147 12.4818 5.45866 12.3362 5.45866C12.1907 5.45866 12.1179 5.38584 12.1179 5.24032C12.1179 5.02339 11.9692 4.98628 11.5448 5.09719Z" fill="#26A387"/>
</g>
<defs>
<clipPath id="clip0_384_7864">
<rect width="25" height="25" fill="white"/>
</clipPath>
</defs>
</svg>
