<svg width="25" height="25" viewBox="0 0 25 25" fill="none" xmlns="http://www.w3.org/2000/svg">
<path fill-rule="evenodd" clip-rule="evenodd" d="M17.9196 3.67881C17.8433 3.81516 17.6261 3.87608 17.0953 3.90992C16.5768 3.94289 16.3748 3.99813 16.3748 4.10675C16.3748 4.21396 16.2243 4.25828 15.8562 4.25937C15.1823 4.26123 14.8464 4.35577 14.8464 4.54354C14.8464 4.65381 14.6844 4.69453 14.246 4.69453C13.7851 4.69453 13.6455 4.73252 13.6455 4.85828C13.6455 4.98066 13.5144 5.02236 13.127 5.02357C12.4531 5.02542 12.1172 5.11996 12.1172 5.30774C12.1172 5.42193 11.9308 5.45872 11.353 5.45872C10.7785 5.45872 10.5888 5.49584 10.5888 5.60839C10.5888 5.71374 10.3625 5.78033 9.82459 5.83328C9.26727 5.88819 9.06039 5.95119 9.06039 6.06581C9.06039 6.18328 8.91039 6.22291 8.46542 6.22291C8.01945 6.22291 7.84445 6.26931 7.76673 6.40806C7.69042 6.54442 7.47328 6.60533 6.94249 6.63918C6.42393 6.67215 6.22197 6.72739 6.22197 6.83601C6.22197 6.94322 6.07142 6.98754 5.70341 6.98863C5.0295 6.99049 4.69358 7.08503 4.69358 7.2728C4.69358 7.38306 4.53157 7.42378 4.09314 7.42378C3.65472 7.42378 3.49271 7.4645 3.49271 7.57477C3.49271 7.65785 3.39445 7.75151 3.27437 7.78295C3.15428 7.81429 3.05603 7.91832 3.05603 8.01396C3.05603 8.1097 2.98234 8.18798 2.89227 8.18798C2.75668 8.18798 2.72852 8.3942 2.72852 9.38885C2.72852 10.3447 2.75963 10.5897 2.88124 10.5897C2.99009 10.5897 3.05581 10.8086 3.11061 11.3539C3.16542 11.8992 3.23114 12.1181 3.33998 12.1181C3.45231 12.1181 3.49271 12.2769 3.49271 12.7185C3.49271 13.1682 3.53212 13.319 3.6498 13.319C3.76443 13.319 3.82742 13.5259 3.88234 14.0832C3.93528 14.6211 4.00188 14.8474 4.10723 14.8474C4.21585 14.8474 4.2569 15.012 4.2569 15.4478C4.2569 15.9754 4.28332 16.0482 4.47524 16.0482C4.59533 16.0482 4.69358 16.1163 4.69358 16.1992C4.69358 16.2823 4.79183 16.376 4.91192 16.4074C5.03201 16.4387 5.13026 16.5428 5.13026 16.6384C5.13026 16.7811 5.26804 16.8124 5.89445 16.8124C6.47011 16.8124 6.65865 16.7754 6.65865 16.6623C6.65865 16.4954 7.12022 16.3757 7.764 16.3757C8.05144 16.3757 8.18703 16.3273 8.18703 16.2247C8.18703 16.116 8.389 16.0608 8.90756 16.0278C9.43834 15.994 9.65548 15.9331 9.73179 15.7967C9.81258 15.6525 9.99096 15.6116 10.5397 15.6116C11.0928 15.6116 11.2438 15.5764 11.2438 15.4478C11.2438 15.3569 11.3409 15.284 11.4621 15.284C11.6627 15.284 11.6806 15.3573 11.682 16.1847C11.6836 17.2277 11.7549 17.5766 11.9662 17.5766C12.066 17.5766 12.1172 17.7062 12.1172 17.9587C12.1172 18.2255 12.1665 18.3408 12.2809 18.3408C12.3719 18.3408 12.4447 18.4379 12.4447 18.5592C12.4447 18.7047 12.5175 18.7775 12.663 18.7775C12.8398 18.7775 12.8814 18.8503 12.8814 19.1596C12.8814 19.4689 12.9229 19.5417 13.0997 19.5417C13.221 19.5417 13.318 19.6145 13.318 19.7054C13.318 19.7955 13.3963 19.8692 13.4921 19.8692C13.5877 19.8692 13.6917 19.9675 13.7231 20.0875C13.7636 20.2422 13.872 20.3059 14.095 20.3059C14.3369 20.3059 14.4097 20.3563 14.4097 20.5242C14.4097 20.701 14.4826 20.7426 14.7918 20.7426C15.0409 20.7426 15.1739 20.7942 15.1739 20.8908C15.1739 21.1408 17.066 21.2634 18.5422 21.1092C19.0001 21.0612 19.2132 20.9919 19.2132 20.8908C19.2132 20.7942 19.3463 20.7426 19.5953 20.7426C19.9046 20.7426 19.9774 20.701 19.9774 20.5242C19.9774 20.3475 20.0502 20.3059 20.3595 20.3059C20.6263 20.3059 20.7416 20.2565 20.7416 20.1421C20.7416 20.0521 20.8153 19.9784 20.9054 19.9784C20.9963 19.9784 21.0691 19.8813 21.0691 19.76C21.0691 19.6145 21.1419 19.5417 21.2875 19.5417C21.433 19.5417 21.5058 19.4689 21.5058 19.3233C21.5058 19.2033 21.5756 19.105 21.6609 19.105C21.7462 19.105 21.8484 18.9576 21.8879 18.7775C21.9274 18.5974 22.0296 18.45 22.1149 18.45C22.2231 18.45 22.27 18.3178 22.27 18.0133C22.27 17.6494 22.3064 17.5766 22.4883 17.5766C22.6905 17.5766 22.7067 17.5038 22.7067 16.5941C22.7067 15.7935 22.737 15.6116 22.8704 15.6116C22.9605 15.6116 23.0342 15.5379 23.0342 15.4478C23.0342 15.3577 22.9605 15.284 22.8704 15.284C22.7459 15.284 22.7064 15.1469 22.7052 14.7109C22.7033 13.9847 22.613 13.6465 22.421 13.6465C22.3212 13.6465 22.27 13.5169 22.27 13.2644C22.27 12.9976 22.2207 12.8823 22.1062 12.8823C21.9918 12.8823 21.9425 12.767 21.9425 12.5002C21.9425 12.2334 21.9918 12.1181 22.1062 12.1181C22.1972 12.1181 22.27 12.0211 22.27 11.8998C22.27 11.7797 22.3398 11.6814 22.4251 11.6814C22.5104 11.6814 22.6128 11.533 22.6526 11.3515C22.7544 10.8883 22.6142 10.153 22.4242 10.153C22.306 10.153 22.27 9.97422 22.27 9.38885C22.27 8.7823 22.2362 8.62466 22.1062 8.62466C22.0067 8.62466 21.9425 8.52302 21.9425 8.36538C21.9425 7.87357 21.8056 7.42378 21.6559 7.42378C21.5428 7.42378 21.5058 7.23525 21.5058 6.65959C21.5058 6.08394 21.4688 5.8954 21.3557 5.8954C21.1888 5.8954 21.0691 5.43383 21.0691 4.79005C21.0691 4.48677 21.0227 4.36701 20.9054 4.36701C20.8144 4.36701 20.7416 4.26996 20.7416 4.14867C20.7416 4.00315 20.6688 3.93033 20.5233 3.93033C20.3778 3.93033 20.3049 3.85752 20.3049 3.71199C20.3049 3.50763 20.2321 3.49365 19.1641 3.49365C18.2048 3.49365 18.0067 3.52313 17.9196 3.67881ZM18.7766 4.53077C18.7766 4.66068 18.6189 4.69453 18.0124 4.69453C17.4367 4.69453 17.2482 4.73153 17.2482 4.84463C17.2482 5.00064 16.7941 5.13121 16.252 5.13121C16.0458 5.13121 15.9381 5.18732 15.9381 5.29496C15.9381 5.42357 15.7871 5.45872 15.234 5.45872C14.6853 5.45872 14.5069 5.49966 14.4261 5.64387C14.3498 5.78022 14.1327 5.84114 13.6019 5.87498C13.1213 5.90555 12.8814 5.96647 12.8814 6.05774C12.8814 6.14736 12.6171 6.22073 12.1172 6.26996C11.5598 6.32488 11.353 6.38787 11.353 6.5025C11.353 6.62018 11.2022 6.65959 10.7525 6.65959C10.3109 6.65959 10.1521 6.69998 10.1521 6.81232C10.1521 6.92116 9.93321 6.98688 9.3879 7.04169C8.8426 7.09649 8.62371 7.16221 8.62371 7.27105C8.62371 7.38732 8.4414 7.42378 7.85952 7.42378C7.28386 7.42378 7.09533 7.46079 7.09533 7.57389C7.09533 7.74081 6.63376 7.86046 5.98998 7.86046C5.6867 7.86046 5.56694 7.90686 5.56694 8.02422C5.56694 8.15009 5.4271 8.18798 4.96312 8.18798C4.53845 8.18798 4.34129 8.23459 4.29893 8.34507C4.26574 8.43143 4.09544 8.53361 3.92022 8.57204C3.62229 8.63754 3.60188 8.67575 3.60188 9.16745C3.60188 9.53394 3.65144 9.71199 3.76563 9.75588C3.88386 9.80119 3.92939 9.98645 3.92939 10.4226C3.92939 10.8752 3.96869 11.0264 4.08649 11.0264C4.20111 11.0264 4.26411 11.2333 4.31902 11.7906C4.37197 12.3285 4.43856 12.5548 4.54391 12.5548C4.65646 12.5548 4.69358 12.7445 4.69358 13.319C4.69358 13.8968 4.73037 14.0832 4.84456 14.0832C5.01662 14.0832 5.12655 14.4107 5.12873 14.9292C5.12983 15.1712 5.18234 15.284 5.29402 15.284C5.38408 15.284 5.45777 15.3577 5.45777 15.4478C5.45777 15.5812 5.63976 15.6116 6.44031 15.6116C7.20406 15.6116 7.42284 15.5779 7.42284 15.4606C7.42284 15.2728 7.75876 15.1783 8.43266 15.1764C8.82011 15.1752 8.95122 15.1335 8.95122 15.0111C8.95122 14.8854 9.09074 14.8474 9.55166 14.8474C9.99009 14.8474 10.1521 14.8066 10.1521 14.6964C10.1521 14.5086 10.488 14.4141 11.1619 14.4122C11.5092 14.4112 11.6805 14.3646 11.6805 14.2712C11.6805 14.1944 11.7787 14.0476 11.8988 13.9447C12.0498 13.8155 12.1172 13.6227 12.1172 13.3201C12.1172 13.0201 12.1648 12.8823 12.2681 12.8823C12.3512 12.8823 12.4449 12.784 12.4763 12.664C12.5077 12.5439 12.6117 12.4456 12.7073 12.4456C12.8085 12.4456 12.8814 12.3542 12.8814 12.2273C12.8814 12.106 12.9542 12.0089 13.0451 12.0089C13.1352 12.0089 13.2089 11.9352 13.2089 11.8452C13.2089 11.7551 13.3014 11.6814 13.4144 11.6814C13.5283 11.6814 13.6455 11.5839 13.6772 11.4631C13.7085 11.343 13.8126 11.2447 13.9082 11.2447C14.004 11.2447 14.0822 11.1711 14.0822 11.081C14.0822 10.99 14.1793 10.9172 14.3006 10.9172C14.4207 10.9172 14.5189 10.8492 14.5189 10.7663C14.5189 10.6007 14.8429 10.4844 15.3104 10.4821C15.5038 10.4811 15.6106 10.4223 15.6106 10.3168C15.6106 10.178 15.8774 10.153 17.3573 10.153C18.775 10.153 19.1041 10.1816 19.1041 10.3047C19.1041 10.3915 19.2673 10.4869 19.4862 10.5279C19.6976 10.5676 19.8683 10.6651 19.8683 10.7463C19.8683 10.8269 20.0355 10.9243 20.2398 10.9626C20.4441 11.001 20.6391 11.1047 20.6731 11.1931C20.707 11.2815 20.81 11.3539 20.902 11.3539C20.9939 11.3539 21.0691 11.4276 21.0691 11.5177C21.0691 11.6119 21.1677 11.6814 21.3011 11.6814C21.5236 11.6814 21.5311 11.6425 21.484 10.7444C21.4508 10.1117 21.3862 9.77739 21.285 9.71483C21.1913 9.65686 21.1179 9.35315 21.0893 8.90501C21.0589 8.42575 20.9982 8.18798 20.9064 8.18798C20.7508 8.18798 20.6324 7.71025 20.6324 7.08263C20.6324 6.77935 20.5861 6.65959 20.4687 6.65959C20.3429 6.65959 20.3049 6.52007 20.3049 6.05915C20.3049 5.60446 20.2661 5.45872 20.1449 5.45872C20.0354 5.45872 19.9621 5.28667 19.9126 4.91287L19.8401 4.36701H19.3083C18.9084 4.36701 18.7766 4.40763 18.7766 4.53077ZM16.6477 10.9971C16.5276 11.0272 16.3986 11.1004 16.361 11.1601C16.3234 11.2197 16.0655 11.2941 15.7879 11.3254C15.4851 11.3596 15.2831 11.4373 15.2831 11.5197C15.2831 11.5953 15.1112 11.6894 14.901 11.7288C14.6723 11.7717 14.5189 11.8643 14.5189 11.9593C14.5189 12.0466 14.4207 12.1181 14.3006 12.1181C14.155 12.1181 14.0822 12.1909 14.0822 12.3364C14.0822 12.482 14.0094 12.5548 13.8639 12.5548C13.7426 12.5548 13.6455 12.6276 13.6455 12.7185C13.6455 12.8086 13.5719 12.8823 13.4818 12.8823C13.3685 12.8823 13.318 12.9962 13.318 13.2516C13.318 13.5292 13.2638 13.6352 13.0997 13.6782C12.9174 13.7257 12.8814 13.8271 12.8814 14.2913C12.8814 14.7128 12.8417 14.8474 12.7176 14.8474C12.5866 14.8474 12.5538 15.0111 12.5538 15.6661C12.5538 16.3212 12.5866 16.4849 12.7176 16.4849C12.8413 16.4849 12.8814 16.6183 12.8814 17.0308C12.8814 17.4357 12.9224 17.5766 13.0402 17.5766C13.1352 17.5766 13.2278 17.73 13.2707 17.9587C13.3101 18.1689 13.4048 18.3408 13.4812 18.3408C13.5576 18.3408 13.6458 18.4391 13.6772 18.5592C13.7085 18.6792 13.8126 18.7775 13.9082 18.7775C14.004 18.7775 14.0822 18.8512 14.0822 18.9413C14.0822 19.0313 14.1502 19.105 14.2332 19.105C14.3163 19.105 14.41 19.2033 14.4414 19.3233C14.4727 19.4434 14.5768 19.5417 14.6724 19.5417C14.7681 19.5417 14.8464 19.6154 14.8464 19.7054C14.8464 19.8109 14.9532 19.8697 15.1466 19.8707C15.6141 19.873 15.9381 19.9894 15.9381 20.1549C15.9381 20.2757 16.2217 20.3059 17.3573 20.3059C18.7037 20.3059 18.7766 20.2946 18.7766 20.0875C18.7766 19.9108 18.8494 19.8692 19.1586 19.8692C19.4119 19.8692 19.5407 19.8181 19.5407 19.7176C19.5407 19.6308 19.704 19.5354 19.9228 19.4943C20.1516 19.4514 20.3049 19.3588 20.3049 19.2638C20.3049 19.1765 20.3729 19.105 20.4559 19.105C20.539 19.105 20.6327 19.0068 20.6641 18.8867C20.6954 18.7666 20.7995 18.6683 20.8951 18.6683C21.0156 18.6683 21.0691 18.5677 21.0691 18.3408C21.0691 18.1315 21.1248 18.0133 21.2233 18.0133C21.318 18.0133 21.4059 17.8451 21.4512 17.5766C21.4965 17.3082 21.5844 17.1399 21.6792 17.1399C21.8037 17.1399 21.8333 16.8778 21.8333 15.7753C21.8333 14.6351 21.8064 14.4107 21.6696 14.4107C21.5641 14.4107 21.5053 14.3039 21.5043 14.1105C21.502 13.643 21.3856 13.319 21.2201 13.319C21.1371 13.319 21.0691 13.2207 21.0691 13.1006C21.0691 12.9794 20.9963 12.8823 20.9054 12.8823C20.8153 12.8823 20.7416 12.804 20.7416 12.7083C20.7416 12.6126 20.6434 12.5086 20.5233 12.4773C20.4032 12.4458 20.3049 12.3522 20.3049 12.2691C20.3049 12.1861 20.2067 12.1181 20.0866 12.1181C19.9665 12.1181 19.8683 12.0483 19.8683 11.963C19.8683 11.8777 19.7209 11.7755 19.5407 11.736C19.3606 11.6965 19.2132 11.6005 19.2132 11.5229C19.2132 11.4327 19.0106 11.3622 18.6526 11.3278C18.2901 11.293 18.0567 11.2109 17.9922 11.0956C17.8928 10.9181 17.1747 10.8655 16.6477 10.9971ZM8.95122 11.5177C8.95122 11.64 8.82011 11.6818 8.43266 11.683C7.75876 11.6848 7.42284 11.7794 7.42284 11.9671C7.42284 12.0774 7.26083 12.1181 6.8224 12.1181C6.36149 12.1181 6.22197 12.1561 6.22197 12.2819C6.22197 12.3728 6.12491 12.4456 6.00362 12.4456C5.8581 12.4456 5.78528 12.5184 5.78528 12.664C5.78528 12.7852 5.71247 12.8823 5.62153 12.8823C5.50712 12.8823 5.45777 12.9976 5.45777 13.2644C5.45777 13.5312 5.50712 13.6465 5.62153 13.6465C5.7367 13.6465 5.78528 13.7629 5.78528 14.0388C5.78528 14.3393 5.83638 14.4445 6.00362 14.4882C6.12371 14.5196 6.22197 14.6133 6.22197 14.6964C6.22197 14.7998 6.35963 14.8474 6.65865 14.8474C6.95996 14.8474 7.09533 14.8 7.09533 14.6946C7.09533 14.5858 7.31421 14.5201 7.85952 14.4653C8.36836 14.4142 8.62371 14.3418 8.62371 14.2486C8.62371 14.1534 8.8569 14.0938 9.35362 14.0621C9.77153 14.0356 10.1017 13.9616 10.1258 13.8891C10.149 13.8195 10.3364 13.731 10.5422 13.6923L10.9163 13.6221V12.6518C10.9163 11.862 10.8858 11.6814 10.7525 11.6814C10.6625 11.6814 10.5888 11.6077 10.5888 11.5177C10.5888 11.3867 10.425 11.3539 9.77 11.3539C9.11498 11.3539 8.95122 11.3867 8.95122 11.5177ZM8.86935 12.5241C8.46127 12.554 8.2962 12.6117 8.2962 12.7242C8.2962 12.8446 8.14009 12.8823 7.64118 12.8823C7.13168 12.8823 6.98616 12.9187 6.98616 13.0461C6.98616 13.1361 6.91247 13.2098 6.8224 13.2098C6.73146 13.2098 6.65865 13.3069 6.65865 13.4282C6.65865 13.6173 6.73146 13.6465 7.2045 13.6465C7.59489 13.6465 7.75035 13.6037 7.75035 13.4964C7.75035 13.3457 8.20079 13.2098 8.69969 13.2098C8.84664 13.2098 9.04052 13.1361 9.13059 13.0461C9.22066 12.956 9.48736 12.8823 9.72317 12.8823C10.0317 12.8823 10.1521 12.8363 10.1521 12.7185C10.1521 12.6285 10.0907 12.5541 10.0156 12.5533C9.94063 12.5525 9.78092 12.5361 9.66083 12.5169C9.54074 12.4977 9.18463 12.5009 8.86935 12.5241ZM15.0375 13.285C14.9024 13.3204 14.8464 13.4446 14.8464 13.709C14.8464 14.0104 14.8889 14.0832 15.0648 14.0832C15.186 14.0832 15.2831 14.156 15.2831 14.2469C15.2831 14.337 15.3568 14.4107 15.4469 14.4107C15.5378 14.4107 15.6106 14.5077 15.6106 14.629C15.6106 14.7745 15.6834 14.8474 15.829 14.8474C15.9502 14.8474 16.0473 14.9202 16.0473 15.0111C16.0473 15.1012 16.121 15.1749 16.211 15.1749C16.48 15.1749 16.4304 15.8991 16.1565 15.9707C16.0364 16.0021 15.9381 16.1061 15.9381 16.2017C15.9381 16.2975 15.8644 16.3757 15.7744 16.3757C15.6834 16.3757 15.6106 16.4728 15.6106 16.5941C15.6106 16.7396 15.5378 16.8124 15.3923 16.8124C15.271 16.8124 15.1739 16.8852 15.1739 16.9762C15.1739 17.0663 15.1002 17.1399 15.0102 17.1399C14.8919 17.1399 14.8464 17.2612 14.8464 17.5766C14.8464 18.0029 14.8555 18.0133 15.2285 18.0133C15.5378 18.0133 15.6106 17.9717 15.6106 17.795C15.6106 17.6494 15.6834 17.5766 15.829 17.5766C15.9502 17.5766 16.0473 17.5038 16.0473 17.4129C16.0473 17.3228 16.1256 17.2491 16.2213 17.2491C16.3169 17.2491 16.421 17.1509 16.4523 17.0308C16.4838 16.9107 16.5774 16.8124 16.6605 16.8124C16.7435 16.8124 16.8115 16.7444 16.8115 16.6614C16.8115 16.5211 17.1215 16.3807 17.4392 16.3773C17.5143 16.3764 17.5757 16.474 17.5757 16.5941C17.5757 16.7396 17.6485 16.8124 17.794 16.8124C17.9153 16.8124 18.0124 16.8852 18.0124 16.9762C18.0124 17.0663 18.086 17.1399 18.1761 17.1399C18.2671 17.1399 18.3399 17.237 18.3399 17.3583C18.3399 17.5038 18.4127 17.5766 18.5582 17.5766C18.7037 17.5766 18.7766 17.6494 18.7766 17.795C18.7766 17.9842 18.8494 18.0133 19.3224 18.0133H19.8683V17.6312C19.8683 17.3644 19.8189 17.2491 19.7045 17.2491C19.6136 17.2491 19.5407 17.1521 19.5407 17.0308C19.5407 16.8852 19.4679 16.8124 19.3224 16.8124C19.1769 16.8124 19.1041 16.7396 19.1041 16.5941C19.1041 16.4728 19.0312 16.3757 18.9403 16.3757C18.8502 16.3757 18.7766 16.3021 18.7766 16.212C18.7766 16.1211 18.6795 16.0482 18.5582 16.0482C18.4127 16.0482 18.3399 15.9754 18.3399 15.8299C18.3399 15.7086 18.2671 15.6116 18.1761 15.6116C18.086 15.6116 18.0124 15.5379 18.0124 15.4478C18.0124 15.3577 18.086 15.284 18.1761 15.284C18.2671 15.284 18.3399 15.187 18.3399 15.0657C18.3399 14.9202 18.4127 14.8474 18.5582 14.8474C18.6783 14.8474 18.7766 14.7794 18.7766 14.6964C18.7766 14.6133 18.8748 14.5196 18.9949 14.4882C19.115 14.4569 19.2132 14.3528 19.2132 14.2572C19.2132 14.1614 19.2869 14.0832 19.377 14.0832C19.4952 14.0832 19.5407 13.9619 19.5407 13.6465C19.5407 13.218 19.5333 13.2098 19.1484 13.2098C18.8479 13.2098 18.7427 13.2609 18.699 13.4282C18.6676 13.5482 18.5739 13.6465 18.4909 13.6465C18.4079 13.6465 18.3399 13.7202 18.3399 13.8102C18.3399 13.9003 18.2616 13.974 18.1659 13.974C18.0702 13.974 17.9662 14.0723 17.9348 14.1923C17.9034 14.3124 17.8097 14.4107 17.7267 14.4107C17.6437 14.4107 17.5757 14.5089 17.5757 14.629C17.5757 14.7745 17.5029 14.8474 17.3573 14.8474C17.2118 14.8474 17.139 14.7745 17.139 14.629C17.139 14.5077 17.0662 14.4107 16.9752 14.4107C16.8852 14.4107 16.8115 14.337 16.8115 14.2469C16.8115 14.156 16.7144 14.0832 16.5931 14.0832C16.4476 14.0832 16.3748 14.0104 16.3748 13.8648C16.3748 13.7435 16.302 13.6465 16.211 13.6465C16.121 13.6465 16.0473 13.5789 16.0473 13.4964C16.0473 13.4138 15.8938 13.3156 15.7061 13.278C15.3467 13.2062 15.3391 13.2062 15.0375 13.285Z" fill="#26A387"/>
<path fill-rule="evenodd" clip-rule="evenodd" d="M18.6674 3.57248C18.5773 3.60654 18.4643 3.70086 18.4163 3.78219C18.36 3.87761 18.1185 3.9299 17.734 3.9299C17.2971 3.9299 17.139 3.97051 17.139 4.08263C17.139 4.19147 16.9201 4.25719 16.3748 4.312C15.8295 4.3668 15.6106 4.43252 15.6106 4.54137C15.6106 4.65763 15.4283 4.69409 14.8464 4.69409C14.2708 4.69409 14.0822 4.7311 14.0822 4.8442C14.0822 4.99388 13.6324 5.13078 13.1406 5.13078C12.983 5.13078 12.8814 5.19497 12.8814 5.29453C12.8814 5.42444 12.7237 5.45829 12.1172 5.45829C11.5415 5.45829 11.353 5.4953 11.353 5.6084C11.353 5.77532 10.8914 5.89497 10.2476 5.89497C9.94434 5.89497 9.82459 5.94137 9.82459 6.05872C9.82459 6.18361 9.6878 6.22248 9.24838 6.22248C8.80734 6.22248 8.62841 6.27368 8.48528 6.44082C8.33681 6.61418 8.16323 6.65916 7.64227 6.65916C7.15297 6.65916 6.98616 6.69802 6.98616 6.81189C6.98616 6.92073 6.76727 6.98645 6.22197 7.04126C5.67666 7.09606 5.45777 7.16178 5.45777 7.27062C5.45777 7.38689 5.27546 7.42335 4.69358 7.42335C4.09762 7.42335 3.92939 7.45829 3.92939 7.5822C3.92939 7.67674 3.77731 7.76953 3.55352 7.81145C3.2521 7.868 3.164 7.94464 3.10821 8.19857C3.07 8.37259 2.96891 8.51506 2.88365 8.51506C2.76683 8.51506 2.72852 8.67685 2.72852 9.17008C2.72852 9.65501 2.76771 9.8251 2.8795 9.8251C3.06727 9.8251 3.16181 10.161 3.16367 10.8349C3.16487 11.2224 3.20657 11.3535 3.32895 11.3535C3.44631 11.3535 3.49271 11.4732 3.49271 11.7765C3.49271 12.4203 3.61236 12.8819 3.77928 12.8819C3.89238 12.8819 3.92939 13.0704 3.92939 13.6461C3.92939 14.2217 3.9664 14.4103 4.0795 14.4103C4.22917 14.4103 4.36607 14.86 4.36607 15.3518C4.36607 15.5095 4.43026 15.6111 4.52983 15.6111C4.64304 15.6111 4.69358 15.7248 4.69358 15.9794C4.69358 16.3435 4.6998 16.3481 5.26673 16.404C6.16651 16.4928 7.42284 16.3715 7.42284 16.1958C7.42284 16.0922 7.57852 16.0474 7.9414 16.0463C8.61531 16.0444 8.95122 15.9499 8.95122 15.7621C8.95122 15.6479 9.13758 15.6111 9.71542 15.6111C10.3074 15.6111 10.4796 15.5758 10.4796 15.454C10.4796 15.3516 10.6501 15.2714 10.9696 15.2236C11.7344 15.1088 11.7897 15.1642 11.7897 16.0444C11.7897 16.6539 11.8234 16.812 11.9534 16.812C12.0792 16.812 12.1172 16.9515 12.1172 17.4124C12.1172 17.8584 12.157 18.0129 12.2723 18.0129C12.3576 18.0129 12.4597 18.1603 12.4993 18.3404C12.5388 18.5205 12.641 18.6679 12.7262 18.6679C12.8116 18.6679 12.8814 18.7661 12.8814 18.8862C12.8814 19.0132 12.9542 19.1046 13.0554 19.1046C13.151 19.1046 13.255 19.2028 13.2864 19.3229C13.3178 19.443 13.4115 19.5413 13.4946 19.5413C13.5775 19.5413 13.6455 19.6149 13.6455 19.705C13.6455 19.7951 13.7238 19.8688 13.8196 19.8688C13.9152 19.8688 14.0192 19.967 14.0506 20.0871C14.0935 20.2512 14.1995 20.3054 14.4771 20.3054C14.7275 20.3054 14.8464 20.3565 14.8464 20.4643C14.8464 20.5593 14.9998 20.6518 15.2285 20.6947C15.4474 20.7358 15.6106 20.8312 15.6106 20.918C15.6106 21.0404 15.9156 21.0696 17.1936 21.0696C18.5114 21.0696 18.7766 21.0428 18.7766 20.9096C18.7766 20.8001 18.9486 20.7268 19.3224 20.6773C19.6768 20.6302 19.8683 20.5523 19.8683 20.4551C19.8683 20.3728 19.9665 20.3054 20.0866 20.3054C20.2079 20.3054 20.3049 20.2326 20.3049 20.1417C20.3049 20.0516 20.3832 19.9779 20.479 19.9779C20.5746 19.9779 20.6779 19.8825 20.7083 19.7658C20.7402 19.644 20.8954 19.5248 21.0732 19.4858C21.3022 19.4355 21.4007 19.3348 21.4528 19.0975C21.4915 18.9213 21.5929 18.7771 21.6782 18.7771C21.7636 18.7771 21.8333 18.6788 21.8333 18.5587C21.8333 18.4132 21.9061 18.3404 22.0517 18.3404C22.2436 18.3404 22.27 18.2676 22.27 17.7399C22.27 17.279 22.308 17.1395 22.4338 17.1395C22.5715 17.1395 22.5975 16.8969 22.5975 15.6111C22.5975 14.3253 22.5715 14.0827 22.4338 14.0827C22.3155 14.0827 22.27 13.9615 22.27 13.6461C22.27 13.3456 22.2226 13.2094 22.1179 13.2094C21.9274 13.2094 21.8333 12.9717 21.8333 12.4908C21.8333 12.1905 21.8759 12.1177 22.0517 12.1177C22.2583 12.1177 22.27 12.0449 22.27 10.753C22.27 9.66396 22.2395 9.38842 22.119 9.38842C21.9312 9.38842 21.8367 9.0525 21.8348 8.37859C21.8338 8.01254 21.7892 7.86003 21.6834 7.86003C21.583 7.86003 21.516 7.6763 21.48 7.3025C21.4506 6.99595 21.3601 6.70403 21.2791 6.65392C21.1855 6.59606 21.1156 6.28121 21.088 5.79224C21.0584 5.26888 21.0005 5.02161 20.9071 5.02161C20.8247 5.02161 20.7407 4.80326 20.6973 4.47575C20.6296 3.96538 20.6047 3.9299 20.3139 3.9299C20.0947 3.9299 19.986 3.86549 19.9458 3.71156C19.8982 3.52947 19.8009 3.49464 19.36 3.50185C19.0691 3.50654 18.7574 3.53831 18.6674 3.57248ZM18.2034 4.33263C18.0983 4.36014 18.0124 4.45272 18.0124 4.53831C18.0124 4.65589 17.8519 4.69409 17.3573 4.69409C16.8478 4.69409 16.7023 4.73045 16.7023 4.85785C16.7023 4.97521 16.5826 5.02161 16.2793 5.02161C15.6355 5.02161 15.1739 5.14126 15.1739 5.30818C15.1739 5.42128 14.9854 5.45829 14.4097 5.45829C13.8279 5.45829 13.6455 5.49475 13.6455 5.61102C13.6455 5.71986 13.4267 5.78558 12.8814 5.84038C12.336 5.89519 12.1172 5.96091 12.1172 6.06975C12.1172 6.18209 11.9583 6.22248 11.5167 6.22248C11.0783 6.22248 10.9163 6.2632 10.9163 6.37346C10.9163 6.56123 10.5804 6.65578 9.90646 6.65763C9.51902 6.65883 9.3879 6.70054 9.3879 6.82292C9.3879 6.9453 9.25679 6.987 8.86935 6.9882C8.19544 6.99006 7.85952 7.0846 7.85952 7.27237C7.85952 7.38656 7.67317 7.42335 7.09533 7.42335C6.48878 7.42335 6.33114 7.4572 6.33114 7.58711C6.33114 7.69475 6.22349 7.75086 6.01727 7.75086C5.47513 7.75086 5.02109 7.88143 5.02109 8.03744C5.02109 8.14344 4.8688 8.18809 4.50253 8.1894C3.73277 8.19224 3.49271 8.48733 3.49271 9.4311C3.49271 9.97051 3.53059 10.1526 3.64282 10.1526C3.81454 10.1526 3.92939 10.6176 3.92939 11.3125C3.92939 11.6643 3.97251 11.7902 4.09314 11.7902C4.2105 11.7902 4.2569 11.9099 4.2569 12.2132C4.2569 12.857 4.37655 13.3185 4.54347 13.3185C4.65657 13.3185 4.69358 13.5071 4.69358 14.0827C4.69358 14.6893 4.72742 14.8469 4.85734 14.8469C4.97175 14.8469 5.02109 14.9622 5.02109 15.229C5.02109 15.5383 5.06269 15.6111 5.23943 15.6111C5.38496 15.6111 5.45777 15.6839 5.45777 15.8295C5.45777 16.0034 5.53004 16.0475 5.81258 16.0463C6.33114 16.0441 6.65865 15.9342 6.65865 15.7621C6.65865 15.6479 6.845 15.6111 7.42284 15.6111C8.02939 15.6111 8.18703 15.5773 8.18703 15.4474C8.18703 15.3478 8.28867 15.2836 8.44631 15.2836C8.93812 15.2836 9.3879 15.1467 9.3879 14.997C9.3879 14.8839 9.57644 14.8469 10.1521 14.8469C10.7586 14.8469 10.9163 14.8131 10.9163 14.6832C10.9163 14.5836 11.0179 14.5194 11.1756 14.5194C11.3181 14.5194 11.5883 14.4887 11.776 14.4512C12.1021 14.386 12.1172 14.3595 12.1172 13.8508C12.1172 13.4366 12.1557 13.3185 12.2912 13.3185C12.3868 13.3185 12.4909 13.2203 12.5222 13.1002C12.5536 12.9801 12.6473 12.8819 12.7304 12.8819C12.8302 12.8819 12.8814 12.7523 12.8814 12.4998C12.8814 12.1905 12.9229 12.1177 13.0997 12.1177C13.221 12.1177 13.318 12.0449 13.318 11.9539C13.318 11.8639 13.3917 11.7902 13.4818 11.7902C13.5727 11.7902 13.6455 11.6931 13.6455 11.5718C13.6455 11.4263 13.7184 11.3535 13.8639 11.3535C13.984 11.3535 14.0822 11.282 14.0822 11.1946C14.0822 11.0997 14.2356 11.0071 14.4643 10.9642C14.6832 10.9231 14.8464 10.8277 14.8464 10.7409C14.8464 10.6314 15.0008 10.5893 15.4025 10.5893C15.8667 10.5893 15.968 10.5533 16.0156 10.371C16.0681 10.1703 16.1645 10.1526 17.2064 10.1526C18.0987 10.1526 18.3399 10.1847 18.3399 10.3036C18.3399 10.4756 18.6674 10.5856 19.1859 10.5878C19.4279 10.5889 19.5407 10.6414 19.5407 10.753C19.5407 10.8675 19.656 10.9168 19.9228 10.9168C20.2321 10.9168 20.3049 10.9584 20.3049 11.1351C20.3049 11.2807 20.3778 11.3535 20.5233 11.3535C20.6434 11.3535 20.7416 11.4215 20.7416 11.5045C20.7416 11.6449 21.0517 11.7853 21.3693 11.7886C21.4445 11.7895 21.5058 11.6919 21.5058 11.5718C21.5058 11.4505 21.5786 11.3535 21.6696 11.3535C21.7878 11.3535 21.8333 11.2322 21.8333 10.9168C21.8333 10.6014 21.7878 10.4801 21.6696 10.4801C21.541 10.4801 21.5058 10.3291 21.5058 9.77597C21.5058 9.22728 21.4649 9.0489 21.3207 8.96811C21.1843 8.8918 21.1234 8.67466 21.0895 8.14388C21.0566 7.62532 21.0013 7.42335 20.8927 7.42335C20.7823 7.42335 20.7416 7.26134 20.7416 6.82292C20.7416 6.2953 20.7152 6.22248 20.5233 6.22248C20.3257 6.22248 20.3049 6.14966 20.3049 5.45829C20.3049 4.88045 20.2681 4.69409 20.154 4.69409C20.0709 4.69409 19.9772 4.59584 19.9458 4.47575C19.8953 4.28263 19.8026 4.25883 19.1416 4.27008C18.7307 4.27706 18.3085 4.30523 18.2034 4.33263ZM15.6423 11.1351C15.5994 11.2992 15.4934 11.3535 15.2157 11.3535C14.9603 11.3535 14.8464 11.4039 14.8464 11.5172C14.8464 11.6082 14.7494 11.681 14.6281 11.681C14.508 11.681 14.4097 11.7508 14.4097 11.8361C14.4097 11.9214 14.2639 12.0231 14.0857 12.0623C13.8239 12.1199 13.7482 12.2054 13.6914 12.5076C13.641 12.777 13.5634 12.8819 13.4151 12.8819C13.2817 12.8819 13.2089 12.9589 13.2089 13.1002C13.2089 13.2215 13.136 13.3185 13.0451 13.3185C12.9307 13.3185 12.8814 13.4338 12.8814 13.7006C12.8814 13.9521 12.83 14.0827 12.7312 14.0827C12.5302 14.0827 12.4443 14.5717 12.4462 15.7066C12.4478 16.7895 12.5173 17.1395 12.7304 17.1395C12.8338 17.1395 12.8814 17.2772 12.8814 17.5762C12.8814 17.8856 12.9276 18.0129 13.0402 18.0129C13.1352 18.0129 13.2278 18.1663 13.2707 18.395C13.3117 18.6139 13.4071 18.7771 13.4939 18.7771C13.5773 18.7771 13.6455 18.8508 13.6455 18.9408C13.6455 19.0309 13.7238 19.1046 13.8196 19.1046C13.9152 19.1046 14.0192 19.2028 14.0506 19.3229C14.0935 19.487 14.1995 19.5413 14.4771 19.5413C14.7736 19.5413 14.8464 19.5843 14.8464 19.7596C14.8464 19.9051 14.9192 19.9779 15.0648 19.9779C15.186 19.9779 15.2831 20.0508 15.2831 20.1417C15.2831 20.2744 15.459 20.3054 16.211 20.3054C16.9631 20.3054 17.139 20.3365 17.139 20.4692C17.139 20.5601 17.236 20.633 17.3573 20.633C17.4786 20.633 17.5757 20.5601 17.5757 20.4692C17.5757 20.3393 17.7333 20.3054 18.3399 20.3054C18.9191 20.3054 19.1041 20.2688 19.1041 20.1538C19.1041 20.067 19.2673 19.9716 19.4862 19.9306C19.7149 19.8877 19.8683 19.7951 19.8683 19.7001C19.8683 19.6128 19.9665 19.5413 20.0866 19.5413C20.2079 19.5413 20.3049 19.4684 20.3049 19.3775C20.3049 19.2874 20.3832 19.2137 20.479 19.2137C20.5746 19.2137 20.6786 19.1155 20.71 18.9954C20.7414 18.8753 20.8351 18.7771 20.9181 18.7771C21.0011 18.7771 21.0691 18.6788 21.0691 18.5587C21.0691 18.4132 21.1419 18.3404 21.2875 18.3404C21.4642 18.3404 21.5058 18.2676 21.5058 17.9583C21.5058 17.7069 21.5571 17.5762 21.6559 17.5762C21.8276 17.5762 21.9425 17.1112 21.9425 16.4163C21.9425 16.0645 21.9856 15.9386 22.1062 15.9386C22.1963 15.9386 22.27 15.8649 22.27 15.7749C22.27 15.6848 22.1963 15.6111 22.1062 15.6111C21.989 15.6111 21.9425 15.4915 21.9425 15.1897C21.9425 14.411 21.8109 13.7552 21.6547 13.7552C21.5687 13.7552 21.5058 13.6401 21.5058 13.4823C21.5058 13.3193 21.4434 13.2094 21.3507 13.2094C21.2654 13.2094 21.1632 13.062 21.1237 12.8819C21.0842 12.7017 20.982 12.5544 20.8967 12.5544C20.8114 12.5544 20.7416 12.4561 20.7416 12.336C20.7416 12.1905 20.6688 12.1177 20.5233 12.1177C20.4032 12.1177 20.3049 12.0462 20.3049 11.9588C20.3049 11.8639 20.1516 11.7713 19.9228 11.7284C19.7127 11.689 19.5407 11.594 19.5407 11.5172C19.5407 11.4405 19.3688 11.3455 19.1586 11.3061C18.9299 11.2632 18.7766 11.1706 18.7766 11.0756C18.7766 10.9442 18.5115 10.9168 17.2379 10.9168C15.7912 10.9168 15.696 10.9298 15.6423 11.1351ZM9.71542 11.5062C9.71542 11.6151 9.49653 11.6808 8.95122 11.7356C8.40592 11.7904 8.18703 11.8561 8.18703 11.9649C8.18703 12.0812 8.00472 12.1177 7.42284 12.1177C6.84358 12.1177 6.65865 12.1544 6.65865 12.2693C6.65865 12.3561 6.49544 12.4515 6.27655 12.4926L5.89445 12.5643V13.4872V14.4103H6.87699C7.67753 14.4103 7.85952 14.3799 7.85952 14.2465C7.85952 14.1291 7.97928 14.0827 8.28255 14.0827C8.92633 14.0827 9.3879 13.9631 9.3879 13.7962C9.3879 13.687 9.55166 13.6461 9.98834 13.6461C10.4493 13.6461 10.5888 13.6081 10.5888 13.4823C10.5888 13.3922 10.6625 13.3185 10.7525 13.3185C10.8783 13.3185 10.9163 13.179 10.9163 12.7181C10.9163 12.2572 10.8783 12.1177 10.7525 12.1177C10.6625 12.1177 10.5888 12.0394 10.5888 11.9437C10.5888 11.848 10.4905 11.744 10.3704 11.7127C10.2503 11.6812 10.1521 11.5875 10.1521 11.5045C10.1521 11.4215 10.0538 11.3535 9.93376 11.3535C9.81367 11.3535 9.71542 11.4222 9.71542 11.5062ZM9.06039 12.2814C9.06039 12.3891 8.95275 12.4452 8.74653 12.4452C8.20439 12.4452 7.75035 12.5758 7.75035 12.7318C7.75035 12.8392 7.59435 12.8819 7.20111 12.8819C6.57731 12.8819 6.4843 12.9914 6.59697 13.5923C6.66389 13.9485 6.91978 14.118 7.00504 13.8624C7.02535 13.8013 7.29969 13.7207 7.61454 13.6834C7.9914 13.6389 8.18703 13.5648 8.18703 13.4671C8.18703 13.3644 8.33463 13.3185 8.66465 13.3185C9.35963 13.3185 9.82459 13.2037 9.82459 13.032C9.82459 12.9494 9.89828 12.8819 9.98834 12.8819C10.1028 12.8819 10.1521 12.7666 10.1521 12.4998V12.1177H9.60624C9.1938 12.1177 9.06039 12.1577 9.06039 12.2814ZM15.1755 13.455C15.1788 13.7727 15.3192 14.0827 15.4596 14.0827C15.5426 14.0827 15.6106 14.1564 15.6106 14.2465C15.6106 14.3366 15.6889 14.4103 15.7846 14.4103C15.8803 14.4103 15.9843 14.5085 16.0156 14.6286C16.0471 14.7487 16.135 14.8469 16.211 14.8469C16.2871 14.8469 16.375 14.9452 16.4065 15.0653C16.4378 15.1854 16.5418 15.2836 16.6375 15.2836C16.7332 15.2836 16.8115 15.3573 16.8115 15.4474C16.8115 15.5374 16.7435 15.6111 16.6605 15.6111C16.5774 15.6111 16.4838 15.7094 16.4523 15.8295C16.421 15.9496 16.3169 16.0478 16.2213 16.0478C16.1256 16.0478 16.0473 16.1261 16.0473 16.2218C16.0473 16.3175 15.949 16.4215 15.829 16.4528C15.7089 16.4843 15.6106 16.5779 15.6106 16.661C15.6106 16.744 15.5426 16.812 15.4596 16.812C15.3766 16.812 15.2829 16.9103 15.2514 17.0303C15.2201 17.1504 15.1161 17.2487 15.0204 17.2487C14.8999 17.2487 14.8464 17.3493 14.8464 17.5762C14.8464 17.8777 14.8768 17.9037 15.2285 17.9037C15.4953 17.9037 15.6106 17.8544 15.6106 17.7399C15.6106 17.6499 15.6786 17.5762 15.7616 17.5762C15.8447 17.5762 15.9383 17.4779 15.9698 17.3579C16.0011 17.2378 16.1052 17.1395 16.2008 17.1395C16.2965 17.1395 16.3748 17.0715 16.3748 16.9885C16.3748 16.9054 16.4731 16.8118 16.5931 16.7803C16.7132 16.749 16.8115 16.645 16.8115 16.5493C16.8115 16.4536 16.8852 16.3753 16.9752 16.3753C17.0653 16.3753 17.139 16.3016 17.139 16.2116C17.139 16.1206 17.236 16.0478 17.3573 16.0478C17.4774 16.0478 17.5757 16.1158 17.5757 16.1988C17.5757 16.2819 17.6739 16.3755 17.794 16.407C17.9141 16.4383 18.0124 16.5423 18.0124 16.638C18.0124 16.7337 18.086 16.812 18.1761 16.812C18.2662 16.812 18.3399 16.8857 18.3399 16.9758C18.3399 17.0658 18.4181 17.1395 18.5139 17.1395C18.6095 17.1395 18.7136 17.2378 18.7449 17.3579C18.7763 17.4779 18.87 17.5762 18.9531 17.5762C19.036 17.5762 19.1041 17.6499 19.1041 17.7399C19.1041 17.8309 19.2011 17.9037 19.3224 17.9037C19.4991 17.9037 19.5407 17.8309 19.5407 17.5216C19.5407 17.2123 19.4991 17.1395 19.3224 17.1395C19.2011 17.1395 19.1041 17.0667 19.1041 16.9758C19.1041 16.8857 19.0304 16.812 18.9403 16.812C18.8494 16.812 18.7766 16.7149 18.7766 16.5937C18.7766 16.4481 18.7037 16.3753 18.5582 16.3753C18.4369 16.3753 18.3399 16.3025 18.3399 16.2116C18.3399 16.1215 18.2723 16.0478 18.1898 16.0478C18.0338 16.0478 17.8585 15.4441 17.9647 15.2724C17.9979 15.2185 18.096 15.1744 18.1826 15.1744C18.2691 15.1744 18.3399 15.1008 18.3399 15.0107C18.3399 14.9206 18.4136 14.8469 18.5036 14.8469C18.5937 14.8469 18.6674 14.7687 18.6674 14.6729C18.6674 14.5773 18.761 14.4744 18.8757 14.4445C18.9902 14.4146 19.1084 14.2964 19.1383 14.1819C19.1683 14.0672 19.2711 13.9736 19.3667 13.9736C19.4872 13.9736 19.5407 13.8729 19.5407 13.6461C19.5407 13.3467 19.509 13.3185 19.1714 13.3185C18.8938 13.3185 18.7878 13.3728 18.7449 13.5369C18.7136 13.657 18.6095 13.7552 18.5139 13.7552C18.4181 13.7552 18.3399 13.8289 18.3399 13.919C18.3399 14.0091 18.2662 14.0827 18.1761 14.0827C18.0852 14.0827 18.0124 14.1798 18.0124 14.3011C18.0124 14.4466 17.9395 14.5194 17.794 14.5194C17.6727 14.5194 17.5757 14.5922 17.5757 14.6832C17.5757 14.7976 17.4604 14.8469 17.1936 14.8469C16.8843 14.8469 16.8115 14.8053 16.8115 14.6286C16.8115 14.4831 16.7387 14.4103 16.5931 14.4103C16.4719 14.4103 16.3748 14.3374 16.3748 14.2465C16.3748 14.1564 16.3011 14.0827 16.211 14.0827C16.1201 14.0827 16.0473 13.9857 16.0473 13.8644C16.0473 13.7189 15.9745 13.6461 15.829 13.6461C15.7077 13.6461 15.6106 13.5732 15.6106 13.4823C15.6106 13.3914 15.5136 13.3185 15.3923 13.3185C15.2722 13.3185 15.1746 13.38 15.1755 13.455Z" fill="#26A387"/>
</svg>
