<svg width="32" height="32" viewBox="0 0 32 32" fill="none" xmlns="http://www.w3.org/2000/svg">
<g clip-path="url(#clip0_1071_3315)">
<path d="M10.6822 7.5294C10.7764 7.67058 10.9175 7.7647 11.1058 7.7647C11.294 7.7647 11.3881 7.67058 11.9058 7.38823V7.99999C11.9058 8.28234 12.094 8.47058 12.3764 8.47058C12.6587 8.47058 12.8469 8.28234 12.8469 7.99999V7.38823L13.4116 7.71764C13.6469 7.85881 13.9293 7.7647 14.0705 7.5294C14.2116 7.29411 14.1175 7.01175 13.8822 6.87058L13.2705 6.58823L13.8352 6.25881C14.0705 6.11764 14.1175 5.83528 14.0234 5.59999C13.8822 5.3647 13.5999 5.31764 13.3646 5.41175L12.7999 5.74117V5.1294C12.7999 4.84705 12.6116 4.65881 12.3293 4.65881C12.0469 4.65881 11.8587 4.84705 11.8587 5.1294V5.74117L11.294 5.41175C11.0587 5.27058 10.7764 5.3647 10.6352 5.59999C10.494 5.83528 10.5881 6.11764 10.8234 6.25881L11.3881 6.58823L10.8234 6.91764C10.6352 7.01175 10.5411 7.29411 10.6822 7.5294ZM17.6469 25.6941C17.3646 25.6941 17.1764 25.8823 17.1764 26.1647V27.3412C17.1764 27.6235 17.3646 27.8118 17.6469 27.8118C17.9293 27.8118 18.1175 27.6235 18.1175 27.3412V26.1647C18.1175 25.9294 17.9293 25.6941 17.6469 25.6941Z" fill="#26A387"/>
<path d="M30.6825 30.1647H30.2119V11.1059C30.2119 10.8235 30.0236 10.6353 29.7413 10.6353H22.5883V9.6941C22.5883 9.41175 22.4001 9.22352 22.1178 9.22352C21.8354 9.22352 21.6472 9.41175 21.6472 9.6941C21.6472 11.8118 21.6472 19.8588 21.6472 21.9294C19.3883 19.3882 15.2001 21.0353 15.2001 24.3765V30.2117H9.78834C10.4472 29.647 10.8707 28.8941 11.0119 28.047L12.3295 29.3647C12.6589 29.6941 13.2707 29.7412 13.6001 29.4118L14.4942 28.6117C14.6825 28.4235 14.6825 28.1412 14.5413 27.9529C14.3531 27.7647 14.0707 27.7647 13.8825 27.9059L12.9883 28.7059L10.8707 26.5882C10.8236 26.4941 10.6825 26.3529 10.5413 26.3529L7.90599 26.4C7.71776 26.4 7.52952 26.2588 7.52952 26.0706L7.48246 24L9.8354 23.9529C10.1178 23.9529 10.306 23.7176 10.306 23.4823C10.306 23.247 10.0707 23.0118 9.8354 23.0118L7.48246 23.0588V22.4C8.09423 22.1647 8.51776 21.6 8.51776 20.8941C8.51776 20.4706 8.32952 20.0941 8.04717 19.7647C7.76482 19.4823 7.34129 19.3412 6.96482 19.3412C6.0707 19.3412 5.36481 20.047 5.41187 20.9412C5.41187 21.647 5.92952 22.2588 6.54129 22.447C6.54129 22.6353 6.54129 24.0941 6.54129 24C4.98834 24.4235 3.85893 25.8353 3.85893 27.4823C3.85893 28.5176 4.28246 29.4588 5.12952 30.1647H3.05893V3.71763H21.6472V7.76469C21.6472 8.04705 21.8354 8.23528 22.1178 8.23528C22.4001 8.23528 22.5883 8.04705 22.5883 7.76469V3.71763H23.3883C24.1883 3.71763 24.8001 3.10587 24.8001 2.30587C24.8001 1.50587 24.1883 0.894104 23.3883 0.894104H2.25893C1.45893 0.894104 0.847168 1.50587 0.847168 2.30587C0.847168 3.05881 1.41187 3.62352 2.11776 3.71763V30.1647H1.31776C1.0354 30.1647 0.847168 30.3529 0.847168 30.6353C0.847168 30.9176 1.0354 31.1059 1.31776 31.1059C13.8354 31.1059 18.5883 31.1059 30.7295 31.1059C31.0119 31.1059 31.2001 30.9176 31.2001 30.6353C31.2001 30.3529 30.9648 30.1647 30.6825 30.1647ZM2.25893 2.77646C1.97658 2.77646 1.78834 2.58822 1.78834 2.30587C1.78834 2.02352 1.97658 1.83528 2.25893 1.83528H23.3883C23.6707 1.83528 23.8589 2.02352 23.8589 2.30587C23.8589 2.58822 23.6707 2.77646 23.3883 2.77646C12.9883 2.77646 10.9648 2.77646 2.25893 2.77646ZM6.35305 20.8941C6.35305 20.5647 6.6354 20.2823 6.96482 20.2353C7.29423 20.2353 7.57658 20.5176 7.57658 20.847C7.57658 21.1765 7.29423 21.4588 6.96482 21.5059C6.6354 21.5059 6.35305 21.2235 6.35305 20.8941ZM4.84717 27.4353C4.84717 26.3059 5.55305 25.3176 6.58834 24.9412V26.0706C6.58834 26.7765 7.15305 27.3412 7.90599 27.3412L10.1178 27.2941C10.1648 28.047 9.88246 28.7529 9.36482 29.2235C7.71776 30.9647 4.84717 29.7882 4.84717 27.4353ZM21.6472 30.1647H16.1413V24.3294C16.1413 20.7059 21.6472 20.7059 21.6472 24.3294V30.1647ZM29.2707 30.1647H22.5883V11.5765H29.2707V30.1647Z" fill="#26A387"/>
<path d="M8.47065 10.447C8.47065 10.1647 8.28241 9.97644 8.00006 9.97644H4.70594C4.42359 9.97644 4.23535 10.1647 4.23535 10.447V12.8C4.23535 13.0823 4.42359 13.2706 4.70594 13.2706H8.00006C8.28241 13.2706 8.47065 13.0823 8.47065 12.8V10.447ZM7.52947 12.3294H5.17653V10.9176H7.52947V12.3294ZM14.4942 10.447C14.4942 10.1647 14.3059 9.97644 14.0236 9.97644H10.6824C10.4001 9.97644 10.2118 10.1647 10.2118 10.447V12.8C10.2118 13.0823 10.4001 13.2706 10.6824 13.2706H14.0236C14.3059 13.2706 14.4942 13.0823 14.4942 12.8V10.447ZM13.553 12.3294H11.153V10.9176H13.553V12.3294ZM20.4706 10.447C20.4706 10.1647 20.2824 9.97644 20.0001 9.97644H16.6589C16.3765 9.97644 16.1883 10.1647 16.1883 10.447V12.8C16.1883 13.0823 16.3765 13.2706 16.6589 13.2706H20.0001C20.2824 13.2706 20.4706 13.0823 20.4706 12.8V10.447ZM19.5295 12.3294H17.1295V10.9176H19.5295V12.3294ZM8.00006 14.2117H4.70594C4.42359 14.2117 4.23535 14.4 4.23535 14.6823V17.0353C4.23535 17.3176 4.42359 17.5059 4.70594 17.5059H8.00006C8.28241 17.5059 8.47065 17.3176 8.47065 17.0353V14.6823C8.47065 14.4 8.28241 14.2117 8.00006 14.2117ZM7.52947 16.5647H5.17653V15.1529H7.52947V16.5647ZM14.0236 14.2117H10.6824C10.4001 14.2117 10.2118 14.4 10.2118 14.6823V17.0353C10.2118 17.3176 10.4001 17.5059 10.6824 17.5059H14.0236C14.3059 17.5059 14.4942 17.3176 14.4942 17.0353V14.6823C14.4942 14.4 14.2589 14.2117 14.0236 14.2117ZM13.553 16.5647H11.153V15.1529H13.553V16.5647ZM20.0001 14.2117H16.6589C16.3765 14.2117 16.1883 14.4 16.1883 14.6823V17.0353C16.1883 17.3176 16.3765 17.5059 16.6589 17.5059H20.0001C20.2824 17.5059 20.4706 17.3176 20.4706 17.0353V14.6823C20.4706 14.4 20.2354 14.2117 20.0001 14.2117ZM19.5295 16.5647H17.1295V15.1529H19.5295V16.5647ZM24.753 28.9882H27.1059C27.3883 28.9882 27.5765 28.8 27.5765 28.5176V25.1764C27.5765 24.8941 27.3883 24.7059 27.1059 24.7059H24.753C24.4706 24.7059 24.2824 24.8941 24.2824 25.1764V28.5176C24.2824 28.8 24.5177 28.9882 24.753 28.9882ZM25.2236 25.6941H26.6353V28.0941H25.2236V25.6941ZM24.753 23.0117H27.1059C27.3883 23.0117 27.5765 22.8235 27.5765 22.5411V19.2C27.5765 18.9176 27.3883 18.7294 27.1059 18.7294H24.753C24.4706 18.7294 24.2824 18.9176 24.2824 19.2V22.5411C24.2824 22.8235 24.5177 23.0117 24.753 23.0117ZM25.2236 19.7176H26.6353V22.1176H25.2236V19.7176ZM24.753 17.0353H27.1059C27.3883 17.0353 27.5765 16.847 27.5765 16.5647V13.2235C27.5765 12.9411 27.3883 12.7529 27.1059 12.7529H24.753C24.4706 12.7529 24.2824 12.9411 24.2824 13.2235V16.5647C24.2824 16.847 24.5177 17.0353 24.753 17.0353ZM25.2236 13.6941H26.6353V16.0941H25.2236V13.6941Z" fill="#26A387"/>
</g>
<defs>
<clipPath id="clip0_1071_3315">
<rect width="32" height="32" fill="white"/>
</clipPath>
</defs>
</svg>
