<svg width="32" height="32" viewBox="0 0 32 32" fill="none" xmlns="http://www.w3.org/2000/svg">
<path d="M15.9998 7C15.7367 7.0005 15.4783 7.06999 15.2503 7.20152C15.0224 7.33305 14.8329 7.52203 14.7008 7.74963C14.6674 7.80648 14.6455 7.8694 14.6365 7.93474C14.6275 8.00008 14.6315 8.06656 14.6483 8.13035C14.6651 8.19414 14.6943 8.25398 14.7343 8.30641C14.7744 8.35885 14.8244 8.40285 14.8815 8.43588C14.9385 8.46891 15.0016 8.49032 15.067 8.49887C15.1324 8.50742 15.1989 8.50295 15.2625 8.4857C15.3262 8.46846 15.3858 8.43879 15.438 8.3984C15.4901 8.35801 15.5338 8.3077 15.5664 8.25037C15.6103 8.17426 15.6735 8.11105 15.7496 8.0671C15.8257 8.02315 15.912 8.00001 15.9998 8.00001C16.0877 8.00001 16.174 8.02315 16.2501 8.0671C16.3262 8.11105 16.3894 8.17426 16.4333 8.25037C16.4659 8.3077 16.5095 8.35801 16.5617 8.3984C16.6138 8.43879 16.6735 8.46846 16.7371 8.4857C16.8008 8.50295 16.8673 8.50742 16.9327 8.49887C16.9981 8.49032 17.0611 8.46891 17.1182 8.43588C17.1753 8.40285 17.2253 8.35885 17.2653 8.30641C17.3054 8.25398 17.3346 8.19414 17.3514 8.13035C17.3682 8.06656 17.3722 8.00008 17.3632 7.93474C17.3541 7.8694 17.3323 7.80648 17.2988 7.74963C17.1667 7.52203 16.9773 7.33305 16.7493 7.20152C16.5214 7.06999 16.263 7.0005 15.9998 7Z" fill="#26A387"/>
<path d="M17.6002 7.30001C17.6396 7.35251 17.689 7.39672 17.7456 7.43013C17.8021 7.46353 17.8647 7.48548 17.9297 7.49471C17.9947 7.50394 18.0609 7.50028 18.1245 7.48393C18.1881 7.46758 18.2478 7.43886 18.3003 7.39942C18.3528 7.35998 18.397 7.31058 18.4304 7.25405C18.4638 7.19752 18.4858 7.13497 18.495 7.06996C18.5042 7.00495 18.5006 6.93876 18.4842 6.87517C18.4679 6.81157 18.4391 6.75182 18.3997 6.69933C18.1202 6.3269 17.7579 6.02464 17.3414 5.81646C16.9248 5.60829 16.4656 5.49991 16 5.49991C15.5343 5.49991 15.0751 5.60829 14.6586 5.81646C14.242 6.02464 13.8797 6.3269 13.6002 6.69933C13.5608 6.75185 13.5321 6.81164 13.5157 6.87526C13.4994 6.93888 13.4957 7.0051 13.505 7.07014C13.5142 7.13517 13.5362 7.19774 13.5697 7.25428C13.6031 7.31083 13.6473 7.36023 13.6999 7.39967C13.8059 7.47933 13.9393 7.51358 14.0707 7.49489C14.1357 7.48563 14.1983 7.46366 14.2548 7.43022C14.3114 7.39679 14.3608 7.35254 14.4002 7.30001C14.5865 7.05153 14.8281 6.84983 15.1058 6.71092C15.3836 6.572 15.6899 6.49968 16.0005 6.49968C16.311 6.49968 16.6173 6.572 16.8951 6.71092C17.1728 6.84983 17.4144 7.05153 17.6007 7.30001H17.6002Z" fill="#26A387"/>
<path d="M12.6782 6.30937C12.7797 6.39471 12.9109 6.43624 13.043 6.42484C13.1751 6.41344 13.2973 6.35002 13.3826 6.24855C13.7022 5.86823 14.099 5.56028 14.5468 5.34518C14.9946 5.13008 15.483 5.01276 15.9796 5.00102C16.4762 4.98928 16.9696 5.08339 17.4271 5.27708C17.8845 5.47078 18.2955 5.75963 18.6326 6.12443C18.6772 6.17282 18.7308 6.21195 18.7905 6.23959C18.8501 6.26722 18.9147 6.28281 18.9804 6.28546C19.0461 6.28811 19.1117 6.27778 19.1734 6.25505C19.2351 6.23232 19.2917 6.19764 19.34 6.15299C19.3883 6.10835 19.4273 6.05462 19.4548 5.99488C19.4823 5.93514 19.4977 5.87056 19.5002 5.80485C19.5027 5.73914 19.4922 5.67357 19.4693 5.61192C19.4464 5.55027 19.4116 5.49373 19.3669 5.44555C18.9334 4.97651 18.405 4.60511 17.8169 4.35605C17.2288 4.10699 16.5944 3.98597 15.9559 4.00104C15.3174 4.01611 14.6894 4.16692 14.1137 4.44345C13.538 4.71998 13.0277 5.11589 12.6169 5.60487C12.5746 5.65515 12.5427 5.71326 12.5229 5.77588C12.5032 5.8385 12.4959 5.9044 12.5016 5.96982C12.5073 6.03524 12.5258 6.0989 12.5561 6.15716C12.5864 6.21542 12.6279 6.26714 12.6782 6.30937ZM24 17.1812C23.9986 15.9401 23.5049 14.7503 22.6273 13.8727C21.7497 12.9951 20.5599 12.5014 19.3188 12.5H12.6812C11.4401 12.5014 10.2503 12.9951 9.37266 13.8727C8.49506 14.7503 8.00141 15.9401 8 17.1812V19.8612C7.67338 20.3543 7.49945 20.9327 7.5 21.5241V24.4071C7.50033 24.6968 7.61558 24.9746 7.82046 25.1795C8.02534 25.3844 8.30312 25.4996 8.59287 25.5H8.89006L8.50969 27.4019C8.49681 27.4663 8.49674 27.5326 8.50948 27.597C8.52223 27.6614 8.54753 27.7227 8.58396 27.7774C8.62038 27.832 8.66721 27.8789 8.72177 27.9155C8.77633 27.952 8.83755 27.9774 8.90194 27.9903C8.96633 28.0032 9.03262 28.0033 9.09704 27.9905C9.16145 27.9778 9.22273 27.9525 9.27736 27.916C9.332 27.8796 9.37892 27.8328 9.41546 27.7782C9.452 27.7237 9.47743 27.6624 9.49031 27.5981L9.90994 25.5H22.0901L22.5097 27.5981C22.5357 27.7281 22.6123 27.8425 22.7226 27.916C22.7773 27.9525 22.8385 27.9778 22.903 27.9905C22.9674 28.0033 23.0337 28.0032 23.0981 27.9903C23.1625 27.9774 23.2237 27.952 23.2782 27.9155C23.3328 27.8789 23.3796 27.832 23.416 27.7774C23.4525 27.7227 23.4778 27.6614 23.4905 27.597C23.5033 27.5326 23.5032 27.4663 23.4903 27.4019L23.1099 25.5H23.4071C23.6969 25.4996 23.9747 25.3844 24.1795 25.1795C24.3844 24.9746 24.4997 24.6968 24.5 24.4071V21.5241C24.5005 20.9327 24.3266 20.3543 24 19.8612V17.1812ZM23.5 22.5H8.5V21.5241C8.5006 20.9875 8.71404 20.473 9.09351 20.0935C9.47298 19.714 9.98748 19.5006 10.5241 19.5H21.4759C22.0125 19.5006 22.527 19.714 22.9065 20.0935C23.286 20.473 23.4994 20.9875 23.5 21.5241V22.5ZM14.5 18.5H11.5V18.2454C11.5002 18.0477 11.5788 17.8583 11.7186 17.7185C11.8583 17.5788 12.0478 17.5002 12.2454 17.5H13.7546C13.9522 17.5002 14.1417 17.5788 14.2814 17.7185C14.4212 17.8583 14.4998 18.0477 14.5 18.2454V18.5ZM20.5 18.5H17.5V18.2454C17.5002 18.0477 17.5788 17.8583 17.7186 17.7185C17.8583 17.5788 18.0478 17.5002 18.2454 17.5H19.7546C19.9522 17.5002 20.1417 17.5788 20.2814 17.7185C20.4212 17.8583 20.4998 18.0477 20.5 18.2454V18.5ZM12.6812 13.5H19.3188C20.2947 13.5011 21.2304 13.8893 21.9206 14.5794C22.6107 15.2696 22.9989 16.2053 23 17.1812V18.9138C22.545 18.6467 22.0276 18.5042 21.5 18.5006V18.2454C21.4995 17.7826 21.3154 17.339 20.9882 17.0118C20.661 16.6846 20.2173 16.5005 19.7546 16.5H18.2454C17.7827 16.5005 17.339 16.6846 17.0118 17.0118C16.6846 17.339 16.5005 17.7826 16.5 18.2454V18.5H15.5V18.2454C15.4995 17.7826 15.3154 17.339 14.9882 17.0118C14.661 16.6846 14.2173 16.5005 13.7546 16.5H12.2454C11.7827 16.5005 11.339 16.6846 11.0118 17.0118C10.6846 17.339 10.5005 17.7826 10.5 18.2454V18.5006C9.97239 18.5042 9.45503 18.6467 9 18.9138V17.1812C9.00111 16.2053 9.38931 15.2696 10.0794 14.5794C10.7696 13.8893 11.7053 13.5011 12.6812 13.5ZM23.4071 24.5H8.59287C8.56824 24.5 8.54463 24.4902 8.52722 24.4727C8.5098 24.4553 8.50002 24.4317 8.5 24.4071V23.5H23.5V24.4071C23.5 24.4317 23.4902 24.4553 23.4728 24.4727C23.4554 24.4902 23.4318 24.5 23.4071 24.5ZM5.83856 19H4.16144C3.85349 19.0003 3.55824 19.1227 3.34049 19.3405C3.12274 19.5582 3.00028 19.8535 3 20.1614V23.3386C3.00033 23.5709 3.0703 23.7979 3.20087 23.9901C3.33143 24.1823 3.51661 24.331 3.7325 24.4169L3.55281 24.7764C3.52284 24.8352 3.5048 24.8993 3.49973 24.9651C3.49467 25.0309 3.50267 25.097 3.52329 25.1597C3.54391 25.2224 3.57674 25.2804 3.61987 25.3303C3.66301 25.3803 3.7156 25.4212 3.77462 25.4507C3.83365 25.4802 3.89792 25.4977 3.96376 25.5023C4.02959 25.5068 4.09567 25.4983 4.15819 25.4772C4.22071 25.4561 4.27844 25.4228 4.32804 25.3793C4.37764 25.3358 4.41813 25.2829 4.44719 25.2236L4.809 24.5H5.191L5.55281 25.2236C5.58187 25.2829 5.62236 25.3358 5.67196 25.3793C5.72156 25.4228 5.77929 25.4561 5.84181 25.4772C5.90433 25.4983 5.97041 25.5068 6.03624 25.5023C6.10208 25.4977 6.16635 25.4802 6.22538 25.4507C6.2844 25.4212 6.33699 25.3803 6.38013 25.3303C6.42326 25.2804 6.45609 25.2224 6.47671 25.1597C6.49733 25.097 6.50533 25.0309 6.50027 24.9651C6.4952 24.8993 6.47716 24.8352 6.44719 24.7764L6.2675 24.4169C6.48339 24.331 6.66857 24.1823 6.79913 23.9901C6.9297 23.7979 6.99967 23.5709 7 23.3386V20.1614C6.99972 19.8535 6.87726 19.5582 6.65951 19.3405C6.44176 19.1227 6.14651 19.0003 5.83856 19ZM4 20.1614C4.00005 20.1186 4.01707 20.0776 4.04734 20.0473C4.0776 20.0171 4.11864 20 4.16144 20H5.83856C5.88136 20 5.9224 20.0171 5.95266 20.0473C5.98293 20.0776 5.99995 20.1186 6 20.1614V20.5H4V20.1614ZM5.83856 23.5H4.16144C4.11864 23.4999 4.0776 23.4829 4.04734 23.4527C4.01707 23.4224 4.00005 23.3814 4 23.3386V21.5H6V23.3386C5.99995 23.3814 5.98293 23.4224 5.95266 23.4527C5.9224 23.4829 5.88136 23.4999 5.83856 23.5ZM27.8386 19H26.1614C25.8535 19.0003 25.5582 19.1227 25.3405 19.3405C25.1227 19.5582 25.0003 19.8535 25 20.1614V23.3386C25.0003 23.5709 25.0703 23.7979 25.2009 23.9901C25.3314 24.1823 25.5166 24.331 25.7325 24.4169L25.5528 24.7764C25.5228 24.8352 25.5048 24.8993 25.4997 24.9651C25.4947 25.0309 25.5027 25.097 25.5233 25.1597C25.5439 25.2224 25.5767 25.2804 25.6199 25.3303C25.663 25.3803 25.7156 25.4212 25.7746 25.4507C25.8336 25.4802 25.8979 25.4977 25.9638 25.5023C26.0296 25.5068 26.0957 25.4983 26.1582 25.4772C26.2207 25.4561 26.2784 25.4228 26.328 25.3793C26.3776 25.3358 26.4181 25.2829 26.4472 25.2236L26.809 24.5H27.191L27.5528 25.2236C27.5819 25.2829 27.6224 25.3358 27.672 25.3793C27.7216 25.4228 27.7793 25.4561 27.8418 25.4772C27.9043 25.4983 27.9704 25.5068 28.0362 25.5023C28.1021 25.4977 28.1664 25.4802 28.2254 25.4507C28.2844 25.4212 28.337 25.3803 28.3801 25.3303C28.4233 25.2804 28.4561 25.2224 28.4767 25.1597C28.4973 25.097 28.5053 25.0309 28.5003 24.9651C28.4952 24.8993 28.4772 24.8352 28.4472 24.7764L28.2675 24.4169C28.4834 24.331 28.6686 24.1823 28.7991 23.9901C28.9297 23.7979 28.9997 23.5709 29 23.3386V20.1614C28.9997 19.8535 28.8773 19.5582 28.6595 19.3405C28.4418 19.1227 28.1465 19.0003 27.8386 19ZM26.1614 20H27.8386C27.8814 20 27.9224 20.0171 27.9527 20.0473C27.9829 20.0776 28 20.1186 28 20.1614V20.5H26V20.1614C26 20.1186 26.0171 20.0776 26.0473 20.0473C26.0776 20.0171 26.1186 20 26.1614 20ZM27.8386 23.5H26.1614C26.1186 23.4999 26.0776 23.4829 26.0473 23.4527C26.0171 23.4224 26 23.3814 26 23.3386V21.5H28V23.3386C28 23.3814 27.9829 23.4224 27.9527 23.4527C27.9224 23.4829 27.8814 23.4999 27.8386 23.5Z" fill="#26A387"/>
</svg>
