<svg width="32" height="32" viewBox="0 0 32 32" fill="none" xmlns="http://www.w3.org/2000/svg">
<path d="M13.7588 10.3553H10.4585C10.2859 10.3553 10.146 10.2153 10.146 10.0428C10.146 9.87022 10.2859 9.73029 10.4585 9.73029H13.7587C13.9313 9.73029 14.0712 9.87022 14.0712 10.0428C14.0712 10.2153 13.9314 10.3553 13.7588 10.3553ZM21.541 12.8021H10.4585C10.2859 12.8021 10.146 12.6622 10.146 12.4896C10.146 12.317 10.2859 12.1771 10.4585 12.1771H21.541C21.7136 12.1771 21.8535 12.317 21.8535 12.4896C21.8535 12.6622 21.7136 12.8021 21.541 12.8021Z" fill="#26A387"/>
<path d="M12.4665 10.3553C12.2939 10.3553 12.154 10.2153 12.154 10.0428V9.34341C12.154 9.11028 11.9643 8.92059 11.7312 8.92059H10.4585C10.2859 8.92059 10.146 8.78066 10.146 8.60809C10.146 8.43553 10.2859 8.29559 10.4585 8.29559H11.7312C12.3089 8.29559 12.779 8.76566 12.779 9.34341V10.0428C12.779 10.2153 12.6391 10.3553 12.4665 10.3553ZM21.5412 11.4806H10.4585C10.2859 11.4806 10.146 11.3407 10.146 11.1681C10.146 10.9955 10.2859 10.8556 10.4585 10.8556H21.5412C21.7139 10.8556 21.8537 10.9955 21.8537 11.1681C21.8537 11.3407 21.7139 11.4806 21.5412 11.4806Z" fill="#26A387"/>
<path d="M9.83308 13.8004C9.31583 13.8004 8.89502 13.3795 8.89502 12.8623V6.77498C8.89502 6.25773 9.31583 5.83691 9.83308 5.83691C10.3503 5.83691 10.7711 6.25773 10.7711 6.77498V12.8623C10.7711 13.3795 10.3503 13.8004 9.83308 13.8004ZM9.83308 6.46185C9.66046 6.46185 9.52002 6.60229 9.52002 6.77491V12.8622C9.52002 13.0349 9.66046 13.1753 9.83308 13.1753C10.0057 13.1753 10.1461 13.0349 10.1461 12.8622V6.77491C10.1461 6.60229 10.0057 6.46185 9.83308 6.46185ZM22.1667 13.8004C21.6495 13.8004 21.2286 13.3795 21.2286 12.8623V8.77241C21.2286 8.25516 21.6495 7.83435 22.1667 7.83435C22.684 7.83435 23.1048 8.25516 23.1048 8.77241V12.8623C23.1048 13.3795 22.684 13.8004 22.1667 13.8004ZM22.1667 8.45929C21.9941 8.45929 21.8536 8.59973 21.8536 8.77235V12.8622C21.8536 13.0349 21.9941 13.1753 22.1667 13.1753C22.3394 13.1753 22.4798 13.0349 22.4798 12.8622V8.77235C22.4798 8.59973 22.3394 8.45929 22.1667 8.45929Z" fill="#26A387"/>
<path d="M13.7588 11.4806C13.5862 11.4806 13.4463 11.3406 13.4463 11.1681V9.47132C13.4463 9.0202 13.8133 8.6532 14.2644 8.6532H20.0956C20.565 8.6532 21.0104 8.8602 21.3496 9.23582C21.6699 9.59051 21.8535 10.0599 21.8535 10.5236C21.8535 10.6961 21.7137 10.8361 21.541 10.8361C21.3684 10.8361 21.2285 10.6961 21.2285 10.5236C21.2285 10.2127 21.1036 9.89601 20.8857 9.65476C20.6665 9.41195 20.3859 9.27826 20.0955 9.27826H14.2644C14.1579 9.27826 14.0712 9.36489 14.0712 9.47139V11.1681C14.0713 11.3407 13.9314 11.4806 13.7588 11.4806Z" fill="#26A387"/>
<path d="M13.7588 22.7181H10.4585C10.2859 22.7181 10.146 22.5783 10.146 22.4056C10.146 22.233 10.2859 22.0931 10.4585 22.0931H13.7587C13.9313 22.0931 14.0712 22.233 14.0712 22.4056C14.0712 22.5783 13.9314 22.7181 13.7588 22.7181ZM21.541 25.165H10.4585C10.2859 25.165 10.146 25.0251 10.146 24.8525C10.146 24.6799 10.2859 24.54 10.4585 24.54H21.541C21.7136 24.54 21.8535 24.6799 21.8535 24.8525C21.8535 25.0251 21.7136 25.165 21.541 25.165Z" fill="#26A387"/>
<path d="M12.4665 22.7181C12.2939 22.7181 12.154 22.5783 12.154 22.4056V21.7063C12.154 21.4732 11.9643 21.2835 11.7312 21.2835H10.4585C10.2859 21.2835 10.146 21.1436 10.146 20.971C10.146 20.7984 10.2859 20.6585 10.4585 20.6585H11.7312C12.3089 20.6585 12.779 21.1286 12.779 21.7063V22.4056C12.779 22.5783 12.6391 22.7181 12.4665 22.7181ZM21.5412 23.8435H10.4585C10.2859 23.8435 10.146 23.7036 10.146 23.531C10.146 23.3584 10.2859 23.2185 10.4585 23.2185H21.5412C21.7139 23.2185 21.8537 23.3584 21.8537 23.531C21.8537 23.7036 21.7139 23.8435 21.5412 23.8435Z" fill="#26A387"/>
<path d="M9.83308 26.1632C9.31583 26.1632 8.89502 25.7424 8.89502 25.2251V19.1378C8.89502 18.6205 9.31583 18.1997 9.83308 18.1997C10.3503 18.1997 10.7711 18.6205 10.7711 19.1378V25.2251C10.7711 25.7424 10.3503 26.1632 9.83308 26.1632ZM9.83308 18.8247C9.66046 18.8247 9.52002 18.9651 9.52002 19.1378V25.2251C9.52002 25.3978 9.66046 25.5382 9.83308 25.5382C10.0057 25.5382 10.1461 25.3978 10.1461 25.2251V19.1378C10.1461 18.9651 10.0057 18.8247 9.83308 18.8247ZM22.1667 26.1632C21.6495 26.1632 21.2286 25.7424 21.2286 25.2251V21.1352C21.2286 20.618 21.6495 20.1971 22.1667 20.1971C22.684 20.1971 23.1048 20.6179 23.1048 21.1352V25.2251C23.1048 25.7424 22.684 26.1632 22.1667 26.1632ZM22.1667 20.8221C21.9941 20.8221 21.8536 20.9626 21.8536 21.1353V25.2251C21.8536 25.3978 21.9941 25.5383 22.1667 25.5383C22.3394 25.5383 22.4798 25.3978 22.4798 25.2251V21.1353C22.4798 20.9626 22.3394 20.8221 22.1667 20.8221Z" fill="#26A387"/>
<path d="M13.7588 23.8435C13.5862 23.8435 13.4463 23.7036 13.4463 23.531V21.8342C13.4463 21.3831 13.8133 21.0161 14.2644 21.0161H20.0956C20.5651 21.0161 21.0105 21.2231 21.3496 21.5987C21.6699 21.9534 21.8535 22.4227 21.8535 22.8864C21.8535 23.0591 21.7137 23.1989 21.541 23.1989C21.3684 23.1989 21.2285 23.0591 21.2285 22.8864C21.2285 22.5756 21.1036 22.2589 20.8857 22.0177C20.6665 21.7749 20.3859 21.6412 20.0955 21.6412L14.2644 21.6411C14.1579 21.6411 14.0712 21.7278 14.0712 21.8343V23.5311C14.0713 23.7036 13.9314 23.8435 13.7588 23.8435Z" fill="#26A387"/>
<path d="M21.9363 14.8386H10.0635C7.29539 14.8386 5.04346 12.5866 5.04346 9.81858C5.04346 7.05058 7.29546 4.79858 10.0635 4.79858H21.9363C24.7043 4.79858 26.9563 7.05058 26.9563 9.81858C26.9563 12.5866 24.7043 14.8386 21.9363 14.8386ZM10.0635 5.42352C7.64002 5.42352 5.66846 7.39508 5.66846 9.81852C5.66846 12.242 7.64002 14.2135 10.0635 14.2135H21.9363C24.3596 14.2135 26.3313 12.242 26.3313 9.81852C26.3313 7.39508 24.3596 5.42352 21.9363 5.42352H10.0635ZM21.9363 27.2015H10.0635C7.29539 27.2015 5.04346 24.9496 5.04346 22.1815C5.04346 19.4135 7.29546 17.1615 10.0635 17.1615H21.9363C24.7043 17.1615 26.9563 19.4135 26.9563 22.1815C26.9563 24.9496 24.7043 27.2015 21.9363 27.2015ZM10.0635 17.7865C7.64002 17.7865 5.66846 19.7581 5.66846 22.1815C5.66846 24.6048 7.64002 26.5765 10.0635 26.5765H21.9363C24.3596 26.5765 26.3313 24.6048 26.3313 22.1815C26.3313 19.7581 24.3596 17.7865 21.9363 17.7865H10.0635Z" fill="#26A387"/>
<path d="M26.1487 29.75H5.85131C3.86556 29.75 2.25 28.1344 2.25 26.1487V5.85131C2.25 3.86556 3.86556 2.25 5.85131 2.25H26.1487C28.1344 2.25 29.75 3.86556 29.75 5.85131V26.1487C29.75 28.1344 28.1344 29.75 26.1487 29.75ZM5.85131 2.875C4.21019 2.875 2.875 4.21019 2.875 5.85131V26.1487C2.875 27.7899 4.21019 29.125 5.85131 29.125H26.1487C27.7899 29.125 29.125 27.7899 29.125 26.1487V5.85131C29.125 4.21019 27.7899 2.875 26.1487 2.875H5.85131Z" fill="#26A387"/>
</svg>
