<svg width="32" height="32" viewBox="0 0 32 32" fill="none" xmlns="http://www.w3.org/2000/svg">
<path d="M29.8817 16.1318V6.10816C29.8817 3.63391 27.8686 1.62079 25.3944 1.62079H6.60561C4.13136 1.62079 2.11849 3.63391 2.11849 6.10816V16.1316C1.1248 16.3374 0.375488 17.2191 0.375488 18.2729C0.375488 21.029 0.375488 27.2279 0.375488 29.8909C0.375488 30.1605 0.594113 30.3792 0.863738 30.3792C1.13336 30.3792 1.35199 30.1605 1.35199 29.8909V27.1122H30.6481V29.8909C30.6481 30.1605 30.8664 30.3792 31.1363 30.3792C31.4062 30.3792 31.6246 30.1605 31.6246 29.8909C31.6246 27.2269 31.6246 21.0267 31.6246 18.2729C31.6246 17.2193 30.8752 16.3377 29.8817 16.1318ZM3.09474 6.10816C3.09474 4.17229 4.66968 2.59729 6.60561 2.59729H25.3944C27.3302 2.59729 28.9052 4.17223 28.9052 6.10816V16.0859H3.09474V6.10816ZM1.35199 18.2729C1.35199 17.6055 1.89511 17.0624 2.56243 17.0624H2.6068H29.3936H29.4374C30.105 17.0624 30.6481 17.6055 30.6481 18.2729V26.1357H1.35199V18.2729Z" fill="#26A387"/>
<path d="M25.5049 19.6378H6.49488C5.41344 19.6378 4.53369 20.5175 4.53369 21.599C4.53369 22.6804 5.41344 23.5604 6.49488 23.5604H25.5049C26.5863 23.5604 27.4661 22.6804 27.4661 21.599C27.4661 20.5175 26.5863 19.6378 25.5049 19.6378ZM25.5049 22.5839H6.49488C5.95175 22.5839 5.51025 22.1421 5.51025 21.599C5.51025 21.0561 5.95182 20.6144 6.49488 20.6144H25.5049C26.048 20.6144 26.4895 21.0561 26.4895 21.599C26.4895 22.142 26.048 22.5839 25.5049 22.5839ZM21.994 6.02924H10.0058C9.73588 6.02924 9.5175 6.24786 9.5175 6.51749C9.5175 6.78711 9.73588 7.00574 10.0058 7.00574H21.9941C22.2639 7.00574 22.4823 6.78711 22.4823 6.51749C22.4823 6.24786 22.2639 6.02924 21.994 6.02924Z" fill="#26A387"/>
</svg>
