<svg width="32" height="32" viewBox="0 0 32 32" fill="none" xmlns="http://www.w3.org/2000/svg">
<path d="M5.35625 1.2C5.3 1.24375 4.18125 2.51875 2.875 4.03125L0.50625 6.78125L0.5 18.7C0.5 30.5437 0.5 30.625 0.625 30.75C0.75 30.875 0.83125 30.875 16 30.875C31.1688 30.875 31.25 30.875 31.375 30.75C31.5 30.625 31.5 30.5437 31.5 18.7L31.4937 6.78125L29.125 4.03125C27.8188 2.51875 26.7 1.24375 26.6438 1.2C26.4875 1.0875 5.5125 1.0875 5.35625 1.2ZM25.9375 12.0938V22.125H16H6.0625V12.0938V2.0625H16H25.9375V12.0938ZM5.125 12.9625V22.9812L3.3 25.8375L1.46875 28.7L1.45 17.9437L1.4375 7.18125L3.2625 5.0625C4.26875 3.89375 5.1 2.9375 5.1125 2.9375C5.11875 2.9375 5.125 7.45 5.125 12.9625ZM28.8313 5.16875L30.5625 7.18125L30.55 17.9375L30.5312 28.6937L28.7063 25.8375L26.875 22.9812V12.9438C26.8813 3.45 26.8875 2.9125 26.9875 3.03125C27.0438 3.1 27.875 4.0625 28.8313 5.16875ZM8.85 23.325C8.7625 23.475 8.3875 24.125 8.00625 24.7812L7.31875 25.9688L5.85 25.9875C5.0375 25.9938 4.375 25.9875 4.375 25.9688C4.375 25.95 4.7875 25.2875 5.29375 24.5L6.2125 23.0625H7.60625H9.00625L8.85 23.325ZM12.5 23.1188C12.5 23.1562 12.3562 23.7062 12.1875 24.3562C12.0125 25 11.8438 25.6375 11.8063 25.7625L11.7438 26H10.0875C9.175 26 8.4375 25.975 8.45 25.95C8.4625 25.9187 8.8375 25.2562 9.28125 24.4812L10.0938 23.0687L11.3 23.0625C12.0063 23.0625 12.5 23.0875 12.5 23.1188ZM15.6875 24.5312V26H14.2188C13.4125 26 12.75 25.9812 12.75 25.9562C12.75 25.9375 12.9187 25.2875 13.125 24.5187C13.3313 23.7438 13.5 23.1 13.5 23.0875C13.5 23.075 13.9938 23.0625 14.5938 23.0625H15.6875V24.5312ZM18.8125 23.1C18.8125 23.1188 18.9813 23.7625 19.1875 24.5312C19.3938 25.3 19.5625 25.9437 19.5625 25.9625C19.5625 25.9812 18.9 26 18.0938 26H16.625V24.5312V23.0625H17.7188C18.3188 23.0625 18.8125 23.0812 18.8125 23.1ZM23.2 24.5187L23.8062 25.9688L22.2063 25.9875C21.325 25.9938 20.5938 25.9875 20.5813 25.975C20.5438 25.9375 19.8188 23.2438 19.8125 23.1375C19.8125 23.0812 20.1313 23.0625 21.2063 23.0625H22.5938L23.2 24.5187ZM26.7063 24.5C27.2125 25.2875 27.625 25.95 27.625 25.9688C27.625 25.9875 27 26 26.2375 26H24.8438L24.3438 24.8C24.0688 24.1437 23.7938 23.4812 23.7375 23.3312L23.625 23.0625H24.7063H25.7875L26.7063 24.5ZM6.64375 27.1375C6.58125 27.25 6.1875 27.925 5.78125 28.6375L5.03125 29.9375H3.425H1.8125L2.325 29.1375C2.60625 28.7 3.03125 28.025 3.275 27.6437L3.71875 26.9375H5.2375H6.7625L6.64375 27.1375ZM11.4688 27.0125C11.4563 27.0562 11.3125 27.5875 11.1562 28.1875C10.9938 28.7875 10.825 29.4312 10.7688 29.6062L10.6813 29.9375H8.40625H6.1375L6.91875 28.575C7.35 27.8312 7.74375 27.1562 7.7875 27.075C7.875 26.9375 7.88125 26.9375 9.6875 26.9375C11.1062 26.9375 11.4875 26.9562 11.4688 27.0125ZM15.6875 28.4375V29.9375H13.6813C11.8 29.9375 11.675 29.9312 11.7 29.825C11.7188 29.7687 11.8938 29.0938 12.1 28.3312L12.4688 26.9375H14.0813H15.6875V28.4375ZM20.1938 28.2812C20.3813 29.0063 20.5625 29.6687 20.5875 29.7625L20.625 29.9375H18.625H16.625V28.4375V26.9375L18.2313 26.95L19.8438 26.9688L20.1938 28.2812ZM24.8313 28.3875C25.1625 29.1875 25.4375 29.8625 25.4375 29.8875C25.4375 29.9187 24.5813 29.9375 23.5375 29.9375H21.6375L21.5688 29.7312C21.5312 29.625 21.3625 28.9812 21.1812 28.3125C21.0063 27.6437 20.8438 27.0562 20.8313 27.0187C20.8062 26.9562 21.1625 26.9375 22.5063 26.9375H24.2188L24.8313 28.3875ZM28.725 27.6437C28.9688 28.025 29.3938 28.7 29.675 29.1375L30.1875 29.9375H28.35H26.5188L26.1562 29.0812C25.9563 28.6063 25.6688 27.9312 25.525 27.575L25.2563 26.9375H26.7688H28.2812L28.725 27.6437Z" fill="#26A387"/>
<path d="M17.0502 15.2312C17.0002 15.2937 16.9189 15.4125 16.8752 15.5C16.7064 15.8187 16.4564 16.075 16.0439 16.3562C15.3252 16.8312 15.3439 17.1375 16.1002 17.525C16.5939 17.7812 16.7939 17.9937 16.9314 18.4437C16.9814 18.6062 17.0627 18.7 17.1939 18.7562C17.4939 18.875 17.6814 18.775 17.8814 18.3812C18.1127 17.9375 18.3064 17.7375 18.7627 17.5C19.1502 17.2937 19.2877 17.0937 19.2252 16.8375C19.2002 16.7562 18.9689 16.5312 18.7064 16.3312C18.4064 16.1062 18.1189 15.8187 17.9377 15.5625C17.6752 15.1875 17.6252 15.1562 17.4002 15.1375C17.2189 15.125 17.1252 15.15 17.0502 15.2312ZM17.6314 17.1062L17.4064 17.3062L17.1877 17.0937L16.9752 16.875L17.1814 16.6625L17.3939 16.4437L17.6252 16.675L17.8627 16.9062L17.6314 17.1062Z" fill="#26A387"/>
<path d="M11.7373 16.45C11.6873 16.4938 11.5373 16.7063 11.4123 16.9188C11.1498 17.3625 10.6248 17.8688 10.1498 18.1313C9.92485 18.2625 9.79985 18.375 9.7561 18.5063C9.6436 18.825 9.7561 18.975 10.2686 19.2125C10.9936 19.5438 11.4061 19.9813 11.5311 20.5438C11.5811 20.7938 11.7686 20.9375 12.0373 20.9375C12.2686 20.9375 12.3498 20.85 12.6248 20.325C12.8686 19.8688 13.2873 19.4688 13.7873 19.225C14.1936 19.025 14.3373 18.8313 14.2811 18.5688C14.2498 18.425 14.1248 18.3 13.7623 18.0438C13.2123 17.6563 12.7873 17.225 12.5373 16.7938C12.4373 16.6313 12.3123 16.4688 12.2498 16.4375C12.0873 16.35 11.8561 16.3625 11.7373 16.45ZM12.7373 18.7375C12.6561 18.7875 12.4748 18.9563 12.3311 19.1063L12.0623 19.375L11.8373 19.125C11.7123 18.9875 11.5186 18.8188 11.4061 18.75L11.2061 18.625L11.6123 18.2L12.0248 17.7813L12.4498 18.2125L12.8811 18.6438L12.7373 18.7375Z" fill="#26A387"/>
</svg>
