<svg width="32" height="32" viewBox="0 0 32 32" fill="none" xmlns="http://www.w3.org/2000/svg">
<path d="M5.35625 1.2C5.3 1.24375 4.18125 2.51875 2.875 4.03125L0.50625 6.78125L0.5 18.7C0.5 30.5437 0.5 30.625 0.625 30.75C0.75 30.875 0.83125 30.875 16 30.875C31.1688 30.875 31.25 30.875 31.375 30.75C31.5 30.625 31.5 30.5437 31.5 18.7L31.4937 6.78125L29.125 4.03125C27.8188 2.51875 26.7 1.24375 26.6438 1.2C26.4875 1.0875 5.5125 1.0875 5.35625 1.2ZM25.9375 12.0938V22.125H16H6.0625V12.0938V2.0625H16H25.9375V12.0938ZM5.125 12.9625V22.9812L3.3 25.8375L1.46875 28.7L1.45 17.9437L1.4375 7.18125L3.2625 5.0625C4.26875 3.89375 5.1 2.9375 5.1125 2.9375C5.11875 2.9375 5.125 7.45 5.125 12.9625ZM28.8313 5.16875L30.5625 7.18125L30.55 17.9375L30.5312 28.6937L28.7063 25.8375L26.875 22.9812V12.9438C26.8813 3.45 26.8875 2.9125 26.9875 3.03125C27.0438 3.1 27.875 4.0625 28.8313 5.16875ZM8.85 23.325C8.7625 23.475 8.3875 24.125 8.00625 24.7812L7.31875 25.9688L5.85 25.9875C5.0375 25.9938 4.375 25.9875 4.375 25.9688C4.375 25.95 4.7875 25.2875 5.29375 24.5L6.2125 23.0625H7.60625H9.00625L8.85 23.325ZM12.5 23.1188C12.5 23.1562 12.3562 23.7062 12.1875 24.3562C12.0125 25 11.8438 25.6375 11.8063 25.7625L11.7438 26H10.0875C9.175 26 8.4375 25.975 8.45 25.95C8.4625 25.9187 8.8375 25.2562 9.28125 24.4812L10.0938 23.0687L11.3 23.0625C12.0063 23.0625 12.5 23.0875 12.5 23.1188ZM15.6875 24.5312V26H14.2188C13.4125 26 12.75 25.9812 12.75 25.9562C12.75 25.9375 12.9187 25.2875 13.125 24.5187C13.3313 23.7438 13.5 23.1 13.5 23.0875C13.5 23.075 13.9938 23.0625 14.5938 23.0625H15.6875V24.5312ZM18.8125 23.1C18.8125 23.1188 18.9813 23.7625 19.1875 24.5312C19.3938 25.3 19.5625 25.9437 19.5625 25.9625C19.5625 25.9812 18.9 26 18.0938 26H16.625V24.5312V23.0625H17.7188C18.3188 23.0625 18.8125 23.0812 18.8125 23.1ZM23.2 24.5187L23.8062 25.9688L22.2063 25.9875C21.325 25.9938 20.5938 25.9875 20.5813 25.975C20.5438 25.9375 19.8188 23.2438 19.8125 23.1375C19.8125 23.0812 20.1313 23.0625 21.2063 23.0625H22.5938L23.2 24.5187ZM26.7063 24.5C27.2125 25.2875 27.625 25.95 27.625 25.9688C27.625 25.9875 27 26 26.2375 26H24.8438L24.3438 24.8C24.0688 24.1437 23.7938 23.4812 23.7375 23.3312L23.625 23.0625H24.7063H25.7875L26.7063 24.5ZM6.64375 27.1375C6.58125 27.25 6.1875 27.925 5.78125 28.6375L5.03125 29.9375H3.425H1.8125L2.325 29.1375C2.60625 28.7 3.03125 28.025 3.275 27.6437L3.71875 26.9375H5.2375H6.7625L6.64375 27.1375ZM11.4688 27.0125C11.4563 27.0562 11.3125 27.5875 11.1562 28.1875C10.9938 28.7875 10.825 29.4312 10.7688 29.6062L10.6813 29.9375H8.40625H6.1375L6.91875 28.575C7.35 27.8312 7.74375 27.1562 7.7875 27.075C7.875 26.9375 7.88125 26.9375 9.6875 26.9375C11.1062 26.9375 11.4875 26.9562 11.4688 27.0125ZM15.6875 28.4375V29.9375H13.6813C11.8 29.9375 11.675 29.9312 11.7 29.825C11.7188 29.7687 11.8938 29.0938 12.1 28.3312L12.4688 26.9375H14.0813H15.6875V28.4375ZM20.1938 28.2812C20.3813 29.0063 20.5625 29.6687 20.5875 29.7625L20.625 29.9375H18.625H16.625V28.4375V26.9375L18.2313 26.95L19.8438 26.9688L20.1938 28.2812ZM24.8313 28.3875C25.1625 29.1875 25.4375 29.8625 25.4375 29.8875C25.4375 29.9187 24.5813 29.9375 23.5375 29.9375H21.6375L21.5688 29.7312C21.5312 29.625 21.3625 28.9812 21.1812 28.3125C21.0063 27.6437 20.8438 27.0562 20.8313 27.0187C20.8062 26.9562 21.1625 26.9375 22.5063 26.9375H24.2188L24.8313 28.3875ZM28.725 27.6437C28.9688 28.025 29.3938 28.7 29.675 29.1375L30.1875 29.9375H28.35H26.5188L26.1562 29.0812C25.9563 28.6063 25.6688 27.9312 25.525 27.575L25.2563 26.9375H26.7688H28.2812L28.725 27.6437Z" fill="#26A387"/>
<g clip-path="url(#clip0_1071_3441)">
<path d="M17.1758 10.5078C17.0117 10.5508 16.7676 10.6738 16.6543 10.7695C16.5859 10.8262 16.5762 10.8457 16.5762 10.918C16.5762 10.9805 16.5879 11.0098 16.623 11.0371C16.6992 11.0996 16.791 11.0859 16.9355 10.9863C17.1211 10.8594 17.2598 10.8145 17.5 10.8047C17.6758 10.7969 17.7188 10.8027 17.8613 10.8477C18.0332 10.9004 18.2402 11.0293 18.3594 11.1602C18.4141 11.2188 18.4395 11.2305 18.502 11.2305C18.6055 11.2305 18.6562 11.1777 18.6562 11.0703C18.6562 10.9922 18.6465 10.9766 18.5137 10.8496C18.3457 10.6875 18.127 10.5645 17.9023 10.5078C17.7012 10.4551 17.375 10.457 17.1758 10.5078Z" fill="#26A387"/>
<path d="M13.08 10.7812C12.5175 10.8516 12.0311 11.2793 11.8905 11.8281C11.828 12.0723 11.869 12.1875 12.0175 12.1875C12.1268 12.1875 12.1639 12.1465 12.201 11.9824C12.2479 11.7656 12.3514 11.5781 12.5018 11.4258C12.7264 11.2031 12.9667 11.1074 13.2909 11.1094C13.4706 11.1094 13.4882 11.1074 13.5311 11.0645C13.6327 10.9629 13.5604 10.7812 13.4178 10.7812C13.3827 10.7812 13.3221 10.7773 13.285 10.7734C13.2479 10.7695 13.1542 10.7734 13.08 10.7812Z" fill="#26A387"/>
<path d="M14.8378 10.8398C14.5038 10.8848 14.1796 11.1035 14.0292 11.3887C13.9238 11.582 13.9628 11.7188 14.121 11.7188C14.2128 11.7188 14.2402 11.6973 14.3105 11.5742C14.5038 11.2324 14.9023 11.0781 15.2441 11.209C15.3359 11.2441 15.4218 11.2344 15.4687 11.1855C15.5156 11.1367 15.5253 11.0391 15.4921 10.9746C15.4413 10.8809 15.0859 10.8086 14.8378 10.8398Z" fill="#26A387"/>
<path d="M18.0897 11.7695C17.871 11.8418 17.7987 11.9551 17.8944 12.0742C17.9491 12.1445 18.0155 12.1504 18.1718 12.0957C18.3612 12.0293 18.5937 12.0371 18.7577 12.1133C18.8905 12.1738 19.0312 12.3008 19.0995 12.416C19.1835 12.5625 19.2851 12.5977 19.3866 12.5176C19.4628 12.457 19.4569 12.3516 19.3671 12.2129C19.2265 11.9922 18.9823 11.8164 18.7226 11.748C18.5409 11.7012 18.2655 11.709 18.0897 11.7695Z" fill="#26A387"/>
<path d="M12.7637 12.627C12.4316 12.7344 12.1641 13.0039 12.0527 13.3438C12.0156 13.457 12.0059 13.5273 12.0059 13.6816C12.0078 13.9766 12.0488 14.0625 12.1914 14.0625C12.3242 14.0625 12.377 13.9785 12.3438 13.8164C12.2754 13.457 12.5195 13.0508 12.8691 12.9473C12.9863 12.9141 13.0312 12.8652 13.0312 12.7754C13.0312 12.6328 12.9258 12.5742 12.7637 12.627Z" fill="#26A387"/>
<path d="M14.3201 12.8516C14.2225 12.9492 14.2615 13.0684 14.4217 13.1523C14.7342 13.3203 15.0408 13.5547 15.1365 13.7031C15.2283 13.8418 15.2225 13.9238 15.1131 14.0293C15.0662 14.0742 14.9373 14.166 14.826 14.2324C14.4354 14.4629 14.3221 14.5723 14.2811 14.7559C14.242 14.9316 14.328 15.1191 14.5135 15.2598C14.578 15.3086 14.7264 15.4043 14.8397 15.4707C15.0819 15.6133 15.199 15.7148 15.199 15.7812C15.199 15.8477 15.1014 15.9277 14.8123 16.1016C14.4061 16.3477 14.2713 16.5098 14.2713 16.7578C14.2713 17.0684 14.5545 17.3848 15.1307 17.7129C15.326 17.8242 15.4237 17.8418 15.492 17.7734C15.5369 17.7285 15.5447 17.6035 15.5076 17.5547C15.494 17.5391 15.4158 17.4863 15.3358 17.4414C14.951 17.2207 14.7225 17.0312 14.6405 16.8633C14.5897 16.7598 14.5897 16.752 14.619 16.6914C14.658 16.6074 14.7674 16.5215 15.0428 16.3574C15.4158 16.1348 15.5311 15.998 15.5311 15.7812C15.5311 15.5605 15.3983 15.4082 15.0037 15.1758C14.7752 15.041 14.5936 14.8965 14.5936 14.8477C14.5936 14.7949 14.7264 14.6855 14.9647 14.541C15.4119 14.2715 15.5311 14.127 15.5311 13.8555C15.5311 13.7461 15.5213 13.6973 15.4783 13.6113C15.3768 13.4043 15.0272 13.1035 14.6307 12.8848C14.4822 12.8008 14.3807 12.791 14.3201 12.8516Z" fill="#26A387"/>
<path d="M15.414 12.8516C15.3691 12.8965 15.3613 13.0215 15.4004 13.0703C15.4121 13.0859 15.4902 13.1387 15.5703 13.1836C15.9511 13.4023 16.1836 13.5938 16.2636 13.7578C16.3125 13.8555 16.3125 13.8672 16.2871 13.9297C16.25 14.0156 16.1445 14.0996 15.8633 14.2676C15.4902 14.4902 15.375 14.627 15.375 14.8438C15.375 15.0664 15.5058 15.2148 15.9238 15.4629C16.1523 15.5977 16.3125 15.7285 16.3125 15.7793C16.3125 15.8223 16.2011 15.9238 16.0625 16.0078C15.5996 16.2891 15.4863 16.3848 15.414 16.5488C15.3515 16.6875 15.3574 16.8672 15.4258 17.0098C15.5273 17.2188 15.875 17.5176 16.2754 17.7402C16.4668 17.8477 16.582 17.8359 16.625 17.707C16.6582 17.6035 16.6172 17.5449 16.4375 17.4434C15.9668 17.1777 15.707 16.9316 15.707 16.7539C15.707 16.6895 15.7207 16.666 15.7929 16.5957C15.8398 16.5508 15.9687 16.459 16.082 16.3926C16.3437 16.2363 16.4765 16.1387 16.5469 16.041C16.6211 15.9395 16.6504 15.8086 16.625 15.6934C16.582 15.5059 16.4609 15.3867 16.0664 15.1543C15.8242 15.0117 15.707 14.9102 15.707 14.8438C15.707 14.7773 15.8047 14.6973 16.0957 14.5215C16.416 14.3281 16.5683 14.1816 16.6172 14.0098C16.7187 13.6582 16.4375 13.2891 15.7754 12.9121C15.5801 12.8008 15.4824 12.7832 15.414 12.8516Z" fill="#26A387"/>
<path d="M16.5078 12.8516C16.4629 12.8965 16.4551 13.0215 16.4941 13.0703C16.5058 13.0859 16.584 13.1387 16.664 13.1836C17.0449 13.4023 17.2773 13.5938 17.3574 13.7578C17.4062 13.8555 17.4062 13.8672 17.3808 13.9297C17.3437 14.0156 17.2383 14.0996 16.957 14.2676C16.584 14.4902 16.4687 14.627 16.4687 14.8438C16.4687 15.0664 16.5996 15.2148 17.0176 15.4629C17.2461 15.5977 17.4062 15.7285 17.4062 15.7793C17.4062 15.8223 17.2949 15.9238 17.1562 16.0078C16.6933 16.2891 16.5801 16.3848 16.5078 16.5488C16.4453 16.6875 16.4511 16.8672 16.5195 17.0098C16.6211 17.2188 16.9687 17.5176 17.3691 17.7402C17.5605 17.8477 17.6758 17.8359 17.7187 17.707C17.7519 17.6035 17.7109 17.5449 17.5312 17.4434C17.0605 17.1777 16.8008 16.9316 16.8008 16.7539C16.8008 16.6895 16.8144 16.666 16.8867 16.5957C16.9336 16.5508 17.0625 16.459 17.1758 16.3926C17.4375 16.2363 17.5703 16.1387 17.6406 16.041C17.7148 15.9395 17.7441 15.8086 17.7187 15.6934C17.6758 15.5059 17.5547 15.3867 17.1601 15.1543C16.9179 15.0117 16.8008 14.9102 16.8008 14.8438C16.8008 14.7773 16.8984 14.6973 17.1894 14.5215C17.5097 14.3281 17.6621 14.1816 17.7109 14.0098C17.8125 13.6582 17.5312 13.2891 16.8691 12.9121C16.6738 12.8008 16.5761 12.7832 16.5078 12.8516Z" fill="#26A387"/>
<path d="M18.8533 13.0059C18.7986 13.0605 18.7967 13.1875 18.8494 13.2402C18.8709 13.2617 18.9295 13.2832 18.9822 13.291C19.3865 13.3457 19.6443 13.6055 19.699 14.0137C19.7244 14.2031 19.7596 14.2578 19.8611 14.2578C20.0154 14.2578 20.0564 14.1699 20.0232 13.9238C19.9783 13.5996 19.8142 13.3301 19.5545 13.1543C19.3767 13.0352 19.242 12.9863 19.0447 12.9746C18.9099 12.9648 18.8904 12.9688 18.8533 13.0059Z" fill="#26A387"/>
<path d="M13.332 14.5508C13.1035 14.625 12.873 14.8086 12.7422 15.0234C12.623 15.2207 12.5937 15.334 12.5937 15.5996C12.5918 15.8242 12.5937 15.8398 12.6387 15.8867C12.707 15.959 12.8359 15.959 12.8926 15.8867C12.9277 15.8418 12.9316 15.8184 12.9219 15.666C12.9121 15.5234 12.916 15.4785 12.9531 15.373C13.0019 15.2266 13.0762 15.1113 13.1797 15.0195C13.2559 14.9531 13.4687 14.8438 13.5215 14.8438C13.5391 14.8438 13.5762 14.8262 13.6055 14.8027C13.6465 14.7715 13.6562 14.7461 13.6562 14.6777C13.6562 14.6094 13.6465 14.584 13.6055 14.5527C13.543 14.502 13.4863 14.502 13.332 14.5508Z" fill="#26A387"/>
<path d="M18.2422 14.6875C18.1973 14.7207 18.1875 14.7461 18.1875 14.8125C18.1875 14.9316 18.2383 14.9727 18.4102 14.9863C18.6504 15.0078 18.877 15.1465 19.0039 15.3477C19.0723 15.4531 19.125 15.6191 19.125 15.7227C19.125 15.834 19.1855 15.8984 19.291 15.8984C19.3594 15.8984 19.3848 15.8887 19.416 15.8477C19.4922 15.75 19.4609 15.5156 19.3398 15.2637C19.1719 14.916 18.832 14.6875 18.4316 14.6562C18.3105 14.6445 18.2891 14.6484 18.2422 14.6875Z" fill="#26A387"/>
<path d="M12.5078 16.7578C12.0293 16.8848 11.6309 17.2852 11.5078 17.7656C11.4551 17.9707 11.4551 18.2793 11.5078 18.4844C11.6309 18.9688 12.0312 19.3691 12.5156 19.4922C12.6621 19.5312 12.748 19.5312 16 19.5312C19.252 19.5312 19.3379 19.5312 19.4844 19.4922C19.9688 19.3691 20.3691 18.9688 20.4922 18.4844C20.5449 18.2793 20.5449 17.9707 20.4922 17.7656C20.3691 17.2812 19.9688 16.8809 19.4844 16.7578C19.4004 16.7363 19.2695 16.7188 19.1895 16.7188C19.0156 16.7188 18.9688 16.752 18.9688 16.875C18.9688 16.9785 19.0176 17.0254 19.1387 17.0391C19.4492 17.0762 19.5898 17.127 19.7793 17.2715C19.9766 17.4199 20.125 17.6504 20.1797 17.8926C20.2148 18.0469 20.1973 18.3398 20.1445 18.4863C20.0371 18.7812 19.7773 19.0391 19.4863 19.1426C19.4238 19.1641 19.2969 19.1914 19.2051 19.2012C19.1016 19.2129 17.8008 19.2168 15.873 19.2148L12.709 19.209L12.5527 19.1562C12.2266 19.0449 11.9688 18.7969 11.8555 18.4863C11.8027 18.3398 11.7852 18.0469 11.8203 17.8926C11.875 17.6504 12.0234 17.4199 12.2207 17.2715C12.4102 17.127 12.5508 17.0762 12.8613 17.0391C12.9824 17.0254 13.0312 16.9785 13.0312 16.875C13.0312 16.75 12.9844 16.7188 12.8027 16.7207C12.7188 16.7207 12.5859 16.7383 12.5078 16.7578Z" fill="#26A387"/>
<path d="M12.2891 17.3828C12.2637 17.4082 12.25 17.4473 12.25 17.5C12.25 17.5527 12.2637 17.5918 12.2891 17.6172C12.3262 17.6543 12.3535 17.6562 12.9531 17.6562C13.5527 17.6562 13.5801 17.6543 13.6172 17.6172C13.6426 17.5918 13.6562 17.5527 13.6562 17.5C13.6562 17.4473 13.6426 17.4082 13.6172 17.3828C13.5801 17.3457 13.5527 17.3438 12.9531 17.3438C12.3535 17.3438 12.3262 17.3457 12.2891 17.3828Z" fill="#26A387"/>
<path d="M18.6953 17.6953C18.6699 17.7207 18.6562 17.7598 18.6562 17.8125C18.6562 17.8652 18.6699 17.9043 18.6953 17.9297C18.7324 17.9668 18.7598 17.9688 19.2812 17.9688C19.8027 17.9688 19.8301 17.9668 19.8672 17.9297C19.8926 17.9043 19.9062 17.8652 19.9062 17.8125C19.9062 17.7598 19.8926 17.7207 19.8672 17.6953C19.8301 17.6582 19.8027 17.6562 19.2812 17.6562C18.7598 17.6562 18.7324 17.6582 18.6953 17.6953Z" fill="#26A387"/>
<path d="M12.7578 18.0078C12.7324 18.0332 12.7188 18.0723 12.7188 18.125C12.7188 18.1777 12.7324 18.2168 12.7578 18.2422C12.7949 18.2793 12.8223 18.2812 13.5781 18.2812C14.334 18.2812 14.3613 18.2793 14.3984 18.2422C14.4238 18.2168 14.4375 18.1777 14.4375 18.125C14.4375 18.0723 14.4238 18.0332 14.3984 18.0078C14.3613 17.9707 14.334 17.9688 13.5781 17.9688C12.8223 17.9688 12.7949 17.9707 12.7578 18.0078Z" fill="#26A387"/>
<path d="M17.2891 18.0078C17.2637 18.0332 17.25 18.0723 17.25 18.125C17.25 18.1777 17.2637 18.2168 17.2891 18.2422C17.3262 18.2793 17.3535 18.2812 17.7969 18.2812C18.2402 18.2812 18.2676 18.2793 18.3047 18.2422C18.3301 18.2168 18.3438 18.1777 18.3438 18.125C18.3438 18.0723 18.3301 18.0332 18.3047 18.0078C18.2676 17.9707 18.2402 17.9688 17.7969 17.9688C17.3535 17.9688 17.3262 17.9707 17.2891 18.0078Z" fill="#26A387"/>
<path d="M13.6953 18.6328C13.6699 18.6582 13.6562 18.6973 13.6562 18.75C13.6562 18.8027 13.6699 18.8418 13.6953 18.8672C13.7324 18.9043 13.7598 18.9062 14.4375 18.9062C15.1152 18.9062 15.1426 18.9043 15.1797 18.8672C15.2051 18.8418 15.2188 18.8027 15.2188 18.75C15.2188 18.6973 15.2051 18.6582 15.1797 18.6328C15.1426 18.5957 15.1152 18.5938 14.4375 18.5938C13.7598 18.5938 13.7324 18.5957 13.6953 18.6328Z" fill="#26A387"/>
<path d="M16.0391 18.6328C16.0137 18.6582 16 18.6973 16 18.75C16 18.8027 16.0137 18.8418 16.0391 18.8672C16.0762 18.9043 16.1035 18.9062 16.9375 18.9062C17.7715 18.9062 17.7988 18.9043 17.8359 18.8672C17.8613 18.8418 17.875 18.8027 17.875 18.75C17.875 18.6973 17.8613 18.6582 17.8359 18.6328C17.7988 18.5957 17.7715 18.5938 16.9375 18.5938C16.1035 18.5938 16.0762 18.5957 16.0391 18.6328Z" fill="#26A387"/>
</g>
<defs>
<clipPath id="clip0_1071_3441">
<rect width="10" height="10" fill="white" transform="translate(11 10)"/>
</clipPath>
</defs>
</svg>
