<svg width="32" height="32" viewBox="0 0 32 32" fill="none" xmlns="http://www.w3.org/2000/svg">
<path d="M24.0002 10H22.6668C22.2935 10 22.0002 10.2933 22.0002 10.6667C22.0002 11.04 22.2935 11.3333 22.6668 11.3333H24.0002C25.8402 11.3333 27.3335 12.8267 27.3335 14.6667V16.6667H25.8802C25.9602 16.4533 26.0002 16.24 26.0002 16C26.0002 14.8933 25.1068 14 24.0002 14H20.0002C18.8935 14 18.0002 14.8933 18.0002 16C18.0002 16.24 18.0535 16.4533 18.1202 16.6667H13.8802C13.9602 16.4533 14.0002 16.24 14.0002 16C14.0002 14.8933 13.1068 14 12.0002 14H8.00016C6.8935 14 6.00016 14.8933 6.00016 16C6.00016 16.24 6.0535 16.4533 6.12016 16.6667H4.66683V14.6667C4.66683 12.8267 6.16016 11.3333 8.00016 11.3333H9.3335C9.70683 11.3333 10.0002 11.04 10.0002 10.6667C10.0002 10.2933 9.70683 10 9.3335 10H8.00016C5.42683 10 3.3335 12.0933 3.3335 14.6667V26C3.3335 26.7333 3.9335 27.3333 4.66683 27.3333H6.00016C6.7335 27.3333 7.3335 26.7333 7.3335 26V25.3333C7.3335 24.96 7.62683 24.6667 8.00016 24.6667H24.0002C24.3735 24.6667 24.6668 24.96 24.6668 25.3333V26C24.6668 26.7333 25.2668 27.3333 26.0002 27.3333H27.3335C28.0668 27.3333 28.6668 26.7333 28.6668 26V14.6667C28.6668 12.0933 26.5735 10 24.0002 10ZM19.3335 16C19.3335 15.6267 19.6268 15.3333 20.0002 15.3333H24.0002C24.3735 15.3333 24.6668 15.6267 24.6668 16C24.6668 16.3733 24.3735 16.6667 24.0002 16.6667H20.0002C19.6268 16.6667 19.3335 16.3733 19.3335 16ZM7.3335 16C7.3335 15.6267 7.62683 15.3333 8.00016 15.3333H12.0002C12.3735 15.3333 12.6668 15.6267 12.6668 16C12.6668 16.3733 12.3735 16.6667 12.0002 16.6667H8.00016C7.62683 16.6667 7.3335 16.3733 7.3335 16ZM8.00016 18H27.3335V20.6667H4.66683V18H8.00016ZM26.0002 26V25.3333C26.0002 24.2267 25.1068 23.3333 24.0002 23.3333H8.00016C6.8935 23.3333 6.00016 24.2267 6.00016 25.3333V26H4.66683V22H27.3335V26H26.0002Z" fill="#26A387"/>
<path d="M14.5865 12.8667C14.9732 13.2533 15.4932 13.4533 15.9998 13.4533C16.5065 13.4533 17.0265 13.2533 17.4132 12.8667L21.1198 9.15999C21.7332 8.54666 21.8798 7.62666 21.4932 6.85333L20.9598 5.78666C20.6265 5.10666 19.9332 4.67999 19.1732 4.67999H12.8265C12.0665 4.67999 11.3732 5.10666 11.0398 5.78666L10.5065 6.85333C10.1198 7.62666 10.2665 8.54666 10.8798 9.15999L14.5865 12.8667ZM11.6932 7.43999L12.2265 6.37333C12.3332 6.14666 12.5732 5.99999 12.8265 5.99999H19.1732C19.4265 5.99999 19.6532 6.14666 19.7732 6.37333L20.3065 7.43999C20.4398 7.69333 20.3865 7.99999 20.1865 8.21333L16.4798 11.92C16.2132 12.1867 15.7998 12.1867 15.5332 11.92L11.8265 8.21333C11.6265 8.01333 11.5732 7.70666 11.7065 7.43999H11.6932Z" fill="#26A387"/>
<path d="M14.3735 8.59999C14.7068 8.75999 15.1068 8.62666 15.2668 8.30666C15.5468 7.73333 16.4535 7.73333 16.7468 8.30666C16.8668 8.54666 17.0935 8.67999 17.3468 8.67999C17.4535 8.67999 17.5468 8.65333 17.6402 8.61332C17.9735 8.45333 18.1068 8.05332 17.9335 7.71999C17.5602 6.98666 16.8268 6.53333 16.0002 6.53333C15.1735 6.53333 14.4402 6.98666 14.0668 7.71999C13.9068 8.05332 14.0402 8.45333 14.3602 8.61332L14.3735 8.59999Z" fill="#26A387"/>
</svg>
