<svg width="32" height="32" viewBox="0 0 32 32" fill="none" xmlns="http://www.w3.org/2000/svg">
<path d="M27.2498 12.725C27.2561 12.2562 26.8748 11.8687 26.4061 11.8687L24.5748 11.8625C24.4873 11.8625 24.4186 11.7937 24.4186 11.7062V8.39997C24.4186 8.27497 24.4748 8.23747 24.5936 8.28747C25.2311 8.58747 25.8623 9.04372 26.5748 8.98747C28.0561 8.87497 28.9248 7.97497 29.1748 6.28747C29.1873 6.21872 29.1561 6.18747 29.0873 6.18747H27.3373C27.2748 6.18747 27.2436 6.21872 27.2373 6.28122C27.1373 7.00622 26.8561 7.26247 26.3936 7.04997C23.4436 5.68747 20.4936 4.33122 17.5436 2.96247C16.6373 2.54372 15.9748 2.18122 15.2311 2.52497C11.9686 4.01872 8.70605 5.51872 5.4373 7.03122C5.3498 7.07497 5.2498 7.08122 5.1623 7.06247C4.8748 6.99997 4.6873 6.82497 4.6123 6.53122C4.5498 6.29997 4.3998 6.18747 4.1623 6.18747H2.9623C2.7248 6.18747 2.6248 6.30622 2.66855 6.54372C2.89355 7.81247 3.5998 8.61247 4.79355 8.94372C5.6498 9.17497 6.46855 8.66872 7.2498 8.32497C7.34355 8.28122 7.3873 8.31247 7.3873 8.41247L7.39355 11.6625C7.39355 11.775 7.30605 11.8625 7.19355 11.8687L5.40605 11.8812C4.89355 11.8875 4.49355 12.3187 4.53105 12.825C4.6623 14.7875 2.4123 16.0812 0.768555 16.525V18.4312L3.2998 18.4812C3.46855 18.4875 3.60605 18.625 3.60605 18.7875C3.6123 21.8437 3.6123 24.925 3.60605 28.0437C3.5998 29.3312 4.6998 29.8437 5.8998 29.85C12.7311 29.8625 19.5623 29.8625 26.3998 29.8562C27.6998 29.85 28.1936 28.775 28.1998 27.5625C28.2123 24.6062 28.2123 21.6437 28.2061 18.675C28.2061 18.5625 28.2623 18.5062 28.3748 18.5062L31.0498 18.5125V16.5437C29.2936 16 27.2248 14.8125 27.2498 12.725Z" fill="#26A387"/>
<path d="M22.5373 9.33752L22.5311 11.5625C22.5311 11.7313 22.3936 11.875 22.2186 11.875L19.9998 11.8688C19.8311 11.8688 19.6873 11.7313 19.6873 11.5563L19.6936 9.33127C19.6936 9.16252 19.8311 9.01877 20.0061 9.01877L22.2248 9.02502C22.3936 9.02502 22.5373 9.16252 22.5373 9.33752ZM10.4748 6.84377L15.7498 4.45627C15.8498 4.41252 15.9623 4.41252 16.0623 4.45627L21.6561 6.97502C21.7373 7.01252 21.7123 7.12502 21.6248 7.12502H10.5373C10.0686 7.13127 10.0498 7.03752 10.4748 6.84377ZM17.7998 9.37502L17.7936 11.525C17.7936 11.7188 17.6373 11.875 17.4436 11.875L14.3561 11.8688C14.1623 11.8688 14.0061 11.7125 14.0061 11.5188L14.0123 9.36877C14.0123 9.17502 14.1686 9.01877 14.3623 9.01877L17.4498 9.02502C17.6436 9.02502 17.7998 9.18127 17.7998 9.37502ZM9.26855 9.35002C9.26855 9.16877 9.41855 9.02502 9.59355 9.02502H11.7873C11.9686 9.02502 12.1123 9.17502 12.1123 9.35002V11.5313C12.1123 11.7125 11.9623 11.8563 11.7873 11.8563H9.59355C9.4123 11.8563 9.26855 11.7063 9.26855 11.5313V9.35002ZM14.6186 27.9563L12.4686 27.9625C12.2748 27.9625 12.1248 27.8063 12.1248 27.6188L12.1186 22.625C12.1186 22.4375 12.2686 22.2813 12.4623 22.2813L14.6123 22.275C14.8061 22.275 14.9561 22.4313 14.9561 22.6188L14.9623 27.6125C14.9623 27.8 14.8061 27.9563 14.6186 27.9563ZM19.6936 27.6125C19.6936 27.8 19.5436 27.9563 19.3498 27.9563H17.1811C16.9936 27.9563 16.8373 27.8063 16.8373 27.6125V22.6125C16.8373 22.425 16.9873 22.2688 17.1811 22.2688H19.3498C19.5373 22.2688 19.6936 22.4188 19.6936 22.6125V27.6125Z" fill="#EAFEF1"/>
<path d="M26.3123 27.7938C26.3123 27.9 26.2561 27.9563 26.1561 27.9563L21.7748 27.95C21.6748 27.95 21.5998 27.8688 21.5936 27.775C21.5686 26.1188 21.5623 24.475 21.5748 22.85C21.5873 21.275 21.1061 20.4125 19.4498 20.3938C17.0811 20.3688 14.7186 20.3688 12.3498 20.4C10.7186 20.4188 10.1936 21.2813 10.2123 22.775C10.2373 24.4375 10.2373 26.1125 10.2061 27.8063C10.1998 27.8938 10.1373 27.9563 10.0498 27.9563H5.64984C5.54359 27.9563 5.49359 27.9 5.49359 27.7938L5.49984 18.6375C5.49984 18.525 5.55609 18.4688 5.66859 18.4688L26.0748 18.475C26.2123 18.475 26.3186 18.5875 26.3186 18.7188V27.7938H26.3123ZM26.8686 16.6125L4.85609 16.5938C4.76234 16.5938 4.72484 16.4813 4.79359 16.425C5.57484 15.7563 6.08109 14.9188 6.31859 13.9188C6.34359 13.825 6.42484 13.7625 6.51234 13.7625L25.2936 13.7688C25.3998 13.7688 25.4623 13.8188 25.4811 13.9188C25.7311 14.8938 26.2248 15.7188 26.9561 16.3938C27.0498 16.4688 26.9873 16.6125 26.8686 16.6125Z" fill="#EAFEF1"/>
</svg>
