<svg width="32" height="32" viewBox="0 0 32 32" fill="none" xmlns="http://www.w3.org/2000/svg">
<g clip-path="url(#clip0_1071_3393)">
<path d="M30.3067 24.1467H1.70003C1.61163 24.1467 1.52684 24.1818 1.46433 24.2443C1.40182 24.3068 1.3667 24.3916 1.3667 24.48V27.48C1.3667 27.5684 1.40182 27.6532 1.46433 27.7157C1.52684 27.7782 1.61163 27.8133 1.70003 27.8133H30.3C30.3884 27.8133 30.4732 27.7782 30.5357 27.7157C30.5982 27.6532 30.6334 27.5684 30.6334 27.48V24.48C30.6334 24.3927 30.5992 24.3089 30.5381 24.2466C30.477 24.1843 30.3939 24.1484 30.3067 24.1467ZM29.9734 27.1467H2.0267V24.8133H29.97V27.1567L29.9734 27.1467Z" fill="#26A387"/>
<path d="M31.9665 21.23V20.9167C31.9662 20.3072 31.7852 19.7115 31.4464 19.2048C31.1076 18.6981 30.6263 18.3032 30.0632 18.07V6.99999C30.0632 5.85072 29.6067 4.74852 28.794 3.93586C27.9814 3.1232 26.8792 2.66666 25.7299 2.66666H20.1499L19.7665 1.42666C19.6427 1.01261 19.388 0.649839 19.0407 0.392651C18.6933 0.135463 18.2721 -0.00229975 17.8399 -9.73647e-06H14.1732C13.7388 -0.00520096 13.3144 0.131221 12.9644 0.388623C12.6144 0.646025 12.3577 1.01041 12.2332 1.42666L11.8499 2.68666H6.26321C5.69415 2.68666 5.13066 2.79874 4.60492 3.01651C4.07917 3.23428 3.60147 3.55347 3.19908 3.95586C2.38643 4.76852 1.92988 5.87072 1.92988 7.01999V18.07C1.36804 18.3043 0.88812 18.6996 0.550596 19.2062C0.213072 19.7128 0.0330486 20.3079 0.0332132 20.9167V21.23C0.0345856 21.5724 0.114303 21.9099 0.266259 22.2167C0.418214 22.5235 0.638376 22.7914 0.90988 23C0.643993 23.1431 0.421987 23.3558 0.267579 23.6153C0.113172 23.8748 0.0321648 24.1714 0.0332132 24.4733V27.4933C0.0332132 27.9354 0.208808 28.3593 0.521369 28.6718C0.833929 28.9844 1.25785 29.16 1.69988 29.16H2.99988V31.6667C2.99988 31.7551 3.035 31.8398 3.09751 31.9024C3.16002 31.9649 3.24481 32 3.33321 32H6.72988C6.81829 32 6.90307 31.9649 6.96558 31.9024C7.02809 31.8398 7.06321 31.7551 7.06321 31.6667V29.1567H24.4965V31.6667C24.4965 31.7551 24.5317 31.8398 24.5942 31.9024C24.6567 31.9649 24.7415 32 24.8299 32H28.2332C28.3216 32 28.4064 31.9649 28.4689 31.9024C28.5314 31.8398 28.5665 31.7551 28.5665 31.6667V29.1567H30.3065C30.7486 29.1567 31.1725 28.9811 31.4851 28.6685C31.7976 28.3559 31.9732 27.932 31.9732 27.49V24.4733C31.9736 24.1707 31.8916 23.8736 31.736 23.6141C31.5804 23.3545 31.357 23.1422 31.0899 23C31.3614 22.7914 31.5815 22.5235 31.7335 22.2167C31.8855 21.9099 31.9652 21.5724 31.9665 21.23ZM12.8699 1.61999C12.9523 1.34263 13.1228 1.09962 13.3555 0.927644C13.5882 0.755669 13.8705 0.664064 14.1599 0.666657H17.8265C18.1159 0.664064 18.3982 0.755669 18.6309 0.927644C18.8636 1.09962 19.0341 1.34263 19.1165 1.61999L19.4499 2.68666H12.5432L12.8699 1.61999ZM2.60321 6.99999C2.60321 6.02753 2.98952 5.0949 3.67716 4.40727C4.36479 3.71963 5.29742 3.33332 6.26988 3.33332H25.7365C26.2181 3.33332 26.6949 3.42816 27.1397 3.61243C27.5846 3.7967 27.9888 4.06678 28.3293 4.40727C28.6698 4.74775 28.9398 5.15196 29.1241 5.59682C29.3084 6.04168 29.4032 6.51848 29.4032 6.99999V17.8767C29.1186 17.8347 28.8306 17.8202 28.5432 17.8333C28.481 17.4725 28.3168 17.1371 28.0699 16.8667V6.99999C28.0699 6.38115 27.824 5.78766 27.3865 5.35007C26.9489 4.91249 26.3554 4.66666 25.7365 4.66666H6.26321C5.64438 4.66666 5.05088 4.91249 4.6133 5.35007C4.17571 5.78766 3.92988 6.38115 3.92988 6.99999V16.8667C3.68301 17.1371 3.51875 17.4725 3.45655 17.8333C3.16915 17.8197 2.88112 17.8343 2.59655 17.8767L2.60321 6.99999ZM27.3965 16.3833C26.9714 16.2237 26.5143 16.1677 26.0632 16.22C26.1432 15.9467 26.1265 15.8867 26.1265 14.4633C26.1257 13.8297 25.8736 13.2223 25.4256 12.7743C24.9775 12.3263 24.3701 12.0742 23.7365 12.0733H19.3599C18.7263 12.0742 18.1189 12.3263 17.6709 12.7743C17.2228 13.2223 16.9708 13.8297 16.9699 14.4633C16.9699 15.84 16.9499 15.9367 17.0332 16.22H14.9665C15.0465 15.9467 15.0299 15.8867 15.0299 14.4633C15.029 13.8297 14.7769 13.2223 14.3289 12.7743C13.8809 12.3263 13.2735 12.0742 12.6399 12.0733H8.25655C7.62295 12.0742 7.01556 12.3263 6.56754 12.7743C6.11951 13.2223 5.86743 13.8297 5.86655 14.4633C5.86655 15.84 5.84655 15.9367 5.92988 16.22C5.47878 16.1693 5.02208 16.2253 4.59655 16.3833V6.99999C4.59655 6.55796 4.77214 6.13404 5.0847 5.82148C5.39726 5.50892 5.82119 5.33332 6.26321 5.33332H25.7365C25.9554 5.33332 26.1721 5.37643 26.3744 5.46019C26.5766 5.54395 26.7603 5.66671 26.9151 5.82148C27.0698 5.97624 27.1926 6.15998 27.2763 6.36218C27.3601 6.56439 27.4032 6.78112 27.4032 6.99999L27.3965 16.3833ZM24.3665 16.86H18.7365C18.5259 16.861 18.3195 16.8011 18.1421 16.6876C17.9647 16.574 17.8239 16.4117 17.7365 16.22C17.5999 15.9333 17.6332 15.8267 17.6332 14.4633C17.6341 14.0065 17.8159 13.5687 18.1389 13.2457C18.4619 12.9227 18.8998 12.7409 19.3565 12.74H23.7432C24.2 12.7409 24.6378 12.9227 24.9608 13.2457C25.2838 13.5687 25.4657 14.0065 25.4665 14.4633V15.76C25.4657 16.0515 25.3495 16.3307 25.1434 16.5368C24.9373 16.7429 24.658 16.8591 24.3665 16.86ZM13.2632 16.86H7.63321C7.42259 16.861 7.21618 16.8011 7.03877 16.6876C6.86137 16.574 6.72054 16.4117 6.63321 16.22C6.49655 15.9333 6.52988 15.8267 6.52988 14.4633C6.53076 14.0065 6.71261 13.5687 7.03561 13.2457C7.3586 12.9227 7.79643 12.7409 8.25321 12.74H8.73655C8.50336 12.9623 8.31781 13.2297 8.19117 13.526C8.06453 13.8222 7.99945 14.1411 7.99988 14.4633C7.99988 14.5517 8.035 14.6365 8.09751 14.699C8.16002 14.7615 8.24481 14.7967 8.33321 14.7967C8.42162 14.7967 8.5064 14.7615 8.56892 14.699C8.63143 14.6365 8.66655 14.5517 8.66655 14.4633C8.66655 14.0068 8.84765 13.569 9.17012 13.2459C9.49259 12.9228 9.93007 12.7409 10.3865 12.74H12.6399C13.0967 12.7409 13.5345 12.9227 13.8575 13.2457C14.1805 13.5687 14.3623 14.0065 14.3632 14.4633C14.3632 15.7967 14.3965 15.93 14.2599 16.22C14.1728 16.4111 14.0325 16.5731 13.8557 16.6866C13.679 16.8001 13.4733 16.8603 13.2632 16.86ZM4.59655 17.1533C5.01988 16.82 5.38321 16.8867 6.26321 16.8867C6.42694 17.0873 6.6334 17.2489 6.86753 17.3596C7.10166 17.4704 7.35756 17.5274 7.61655 17.5267H13.2632C13.5227 17.5274 13.7791 17.4704 14.0138 17.3597C14.2484 17.249 14.4555 17.0874 14.6199 16.8867H17.3799C17.5443 17.0874 17.7513 17.249 17.986 17.3597C18.2207 17.4704 18.4771 17.5274 18.7365 17.5267H24.3665C24.6255 17.5274 24.8814 17.4704 25.1156 17.3596C25.3497 17.2489 25.5562 17.0873 25.7199 16.8867H26.6165C26.8981 16.8865 27.1719 16.9791 27.3954 17.1503C27.619 17.3214 27.7799 17.5615 27.8532 17.8333H4.14655C4.21926 17.5623 4.37988 17.3232 4.60321 17.1533H4.59655ZM6.39655 31.3333H3.66655V29.1567H6.40321L6.39655 31.3333ZM27.8999 31.3333H25.1632V29.1567H27.8999V31.3333ZM31.2999 24.4733V27.4933C31.2999 27.7585 31.1945 28.0129 31.007 28.2004C30.8195 28.388 30.5651 28.4933 30.2999 28.4933H1.69321C1.428 28.4933 1.17364 28.388 0.986106 28.2004C0.79857 28.0129 0.693213 27.7585 0.693213 27.4933V24.4733C0.693213 24.2081 0.79857 23.9538 0.986106 23.7662C1.17364 23.5787 1.428 23.4733 1.69321 23.4733H30.3065C30.5706 23.4751 30.8233 23.5812 31.0093 23.7686C31.1954 23.9559 31.2999 24.2093 31.2999 24.4733ZM30.0632 22.7733C29.8232 22.83 31.7565 22.8133 2.27988 22.8133C1.86053 22.8124 1.45866 22.6452 1.16245 22.3484C0.866236 22.0516 0.699879 21.6493 0.69988 21.23V20.9167C0.701639 20.2763 0.956816 19.6626 1.40965 19.2098C1.86248 18.7569 2.47615 18.5017 3.11655 18.5C30.6765 18.5 29.0265 18.4767 29.3965 18.5567C29.9352 18.6744 30.4175 18.9725 30.7636 19.4016C31.1097 19.8308 31.2989 20.3653 31.2999 20.9167V21.23C31.3007 21.5897 31.1786 21.9389 30.9536 22.2197C30.7287 22.5004 30.4145 22.6957 30.0632 22.7733Z" fill="#26A387"/>
<path d="M19.083 25.6667H12.9163C12.8279 25.6667 12.7432 25.7018 12.6806 25.7643C12.6181 25.8268 12.583 25.9116 12.583 26C12.583 26.0884 12.6181 26.1732 12.6806 26.2357C12.7432 26.2982 12.8279 26.3333 12.9163 26.3333H19.083C19.1714 26.3333 19.2562 26.2982 19.3187 26.2357C19.3812 26.1732 19.4163 26.0884 19.4163 26C19.4163 25.9116 19.3812 25.8268 19.3187 25.7643C19.2562 25.7018 19.1714 25.6667 19.083 25.6667Z" fill="#26A387"/>
</g>
<defs>
<clipPath id="clip0_1071_3393">
<rect width="32" height="32" fill="white"/>
</clipPath>
</defs>
</svg>
