<svg width="32" height="32" viewBox="0 0 32 32" fill="none" xmlns="http://www.w3.org/2000/svg">
<path d="M22.0627 1.9625C21.9752 2.0125 21.7752 2.28125 21.6064 2.5875C21.3127 3.1125 21.3002 3.125 20.7814 3.4125C20.1752 3.7375 20.0314 3.93125 20.0814 4.325C20.1252 4.65 20.2377 4.76875 20.8439 5.09375C21.3252 5.3625 21.3502 5.3875 21.5877 5.84375C21.9189 6.475 22.0564 6.59375 22.4377 6.59375C22.8189 6.59375 22.9752 6.45625 23.3189 5.8125C23.5564 5.3625 23.5877 5.33125 24.0439 5.09375C24.6127 4.79375 24.8127 4.575 24.8127 4.2625C24.8127 3.89375 24.6377 3.6875 24.0752 3.3875C23.5752 3.125 23.5627 3.1125 23.2814 2.59375C23.1252 2.30625 22.9314 2.025 22.8564 1.96875C22.6939 1.85625 22.2752 1.85 22.0627 1.9625ZM22.6564 3.55625C22.7877 3.79375 22.9064 3.90625 23.1689 4.05L23.5127 4.23125L23.1814 4.4125C22.9252 4.55 22.8002 4.66875 22.6564 4.91875C22.5564 5.1 22.4564 5.24375 22.4377 5.25C22.4189 5.25 22.3377 5.11875 22.2502 4.95625C22.1627 4.79375 21.9939 4.59375 21.8752 4.51875C21.3627 4.19375 21.3752 4.225 21.7314 4.0375C21.9814 3.9125 22.0939 3.80625 22.2314 3.5625C22.3252 3.39375 22.4252 3.25 22.4502 3.25C22.4752 3.25 22.5689 3.3875 22.6564 3.55625Z" fill="#26A387"/>
<path d="M13.4312 2.24375C13.3188 2.33125 13.2875 2.4375 13.2625 2.74375L13.2375 3.125H12.9C12.475 3.125 12.3125 3.2625 12.3125 3.61875C12.3125 3.95625 12.525 4.125 12.9438 4.125H13.25V4.425C13.25 4.91875 13.5438 5.1875 13.9375 5.05625C14.1812 4.96875 14.25 4.83125 14.25 4.45V4.1375L14.6313 4.1125C14.9375 4.0875 15.0438 4.05625 15.1313 3.94375C15.3 3.7375 15.2812 3.4625 15.0938 3.28125C14.9688 3.15 14.8813 3.125 14.5938 3.125H14.25V2.75625C14.25 2.43125 14.2313 2.36875 14.0875 2.25625C13.8813 2.09375 13.6187 2.0875 13.4312 2.24375Z" fill="#26A387"/>
<path d="M9.25625 4.43125C9.18125 4.4875 8.95 4.83125 8.75625 5.18125L8.40625 5.825L7.75 6.1875C6.98125 6.6125 6.85 6.7625 6.9 7.2L6.93125 7.5H6.15625C5.575 7.5 5.29375 7.53125 5.00625 7.61875C4.25625 7.85 3.6875 8.3375 3.36875 9.03125C3.125 9.54375 3.0625 9.96875 3.0625 11.1C3.0625 11.9625 3.075 12.0625 3.19375 12.2125C3.29375 12.3375 3.375 12.375 3.55625 12.375C4.0125 12.375 4.025 12.3438 4.0625 11.0187C4.09375 9.8875 4.1 9.83125 4.26875 9.4875C4.36875 9.2875 4.55625 9.03125 4.7 8.9125C5.1375 8.5375 5.34375 8.5 7 8.5H8.475L8.79375 9.075C8.96875 9.39375 9.18125 9.70625 9.26875 9.775C9.45625 9.9125 9.8875 9.925 10.0938 9.7875C10.175 9.7375 10.3813 9.425 10.5625 9.09375L10.8813 8.5H18.6812C27.325 8.5 26.7938 8.475 27.3 8.9125C27.4438 9.03125 27.6313 9.2875 27.7313 9.4875L27.9062 9.84375L27.925 13.4812L27.9438 17.125H27.3813H26.8188L26.8 15.1687L26.7812 13.2188L26.6 12.8875C26.3938 12.5125 26.125 12.2563 25.7313 12.05C25.4688 11.9062 25.4688 11.9062 21.9125 11.8875C18.875 11.875 18.3125 11.8875 18.0312 11.9688C17.6 12.0938 17.125 12.5187 16.8938 12.9875L16.7188 13.3438L16.7 15.2312L16.675 17.125H15.9938H15.3125V15.4812C15.3125 14.575 15.2812 13.6687 15.2438 13.4625C15.1625 13 14.9563 12.6437 14.5938 12.325C14.0688 11.8625 14.1062 11.8687 10.0875 11.8875L6.53125 11.9062L6.2 12.0875C5.825 12.2937 5.56875 12.5625 5.3625 12.9562C5.225 13.2125 5.21875 13.2812 5.2 15.1687L5.18125 17.125H4.61875H4.0625V15.5C4.0625 13.9562 4.05625 13.8687 3.9375 13.75C3.74375 13.5562 3.35625 13.5812 3.19375 13.7875C3.06875 13.95 3.0625 14.0312 3.0625 15.625V17.3L2.70625 17.4688C2.21875 17.7125 1.625 18.3187 1.3875 18.8187C1.14375 19.3375 1.0625 19.75 1.0625 20.4688V21.05L0.85625 21.1187C0.59375 21.2063 0.28125 21.5125 0.11875 21.825C0 22.0562 -0.00625 22.1875 0.0125 24.125L0.03125 26.175L0.21875 26.45C0.34375 26.6312 0.5125 26.7687 0.73125 26.875L1.05625 27.0312L1.0625 28.0687V29.1125L0.6625 29.1375C0.1625 29.1687 0 29.2875 0 29.6375C0 29.7937 0.04375 29.9188 0.125 30C0.25 30.125 0.33125 30.125 16 30.125C31.6688 30.125 31.75 30.125 31.875 30C31.9563 29.9188 32 29.7937 32 29.6375C32 29.2875 31.8375 29.1687 31.3375 29.1375L30.9375 29.1125L30.9438 28.0687V27.0312L31.2688 26.875C31.475 26.7687 31.6562 26.6187 31.7812 26.4437L31.9688 26.175L31.9875 24.1188C32 22.3125 31.9937 22.0437 31.9 21.8625C31.75 21.5625 31.3813 21.2 31.1438 21.1187L30.9375 21.05V20.4688C30.9375 19.75 30.8563 19.3375 30.6125 18.8187C30.375 18.3187 29.7812 17.7125 29.2938 17.4688L28.9375 17.3V13.725C28.9375 11.7625 28.9125 9.99375 28.875 9.79375C28.7063 8.7625 27.9875 7.93125 27.0063 7.625C26.625 7.50625 26.4062 7.5 19.5 7.5H12.3938L12.4563 7.2625C12.5 7.0875 12.4938 6.98125 12.4187 6.80625C12.3375 6.6125 12.225 6.525 11.65 6.20625L10.9688 5.83125L10.5938 5.1625C10.375 4.76875 10.15 4.45625 10.0625 4.4C9.8375 4.28125 9.4375 4.29375 9.25625 4.43125ZM9.96875 6.1375C10.1938 6.54375 10.2563 6.60625 10.6375 6.8125C10.8688 6.9375 11.075 7.05625 11.1 7.075C11.1188 7.1 10.95 7.21875 10.725 7.34375C10.275 7.59375 10.1188 7.75625 9.85625 8.25L9.675 8.58125L9.45625 8.18125C9.16875 7.65 9.1125 7.6 8.6125 7.33125L8.1875 7.1L8.55 6.90625C9.1375 6.5875 9.18125 6.55 9.4125 6.1125C9.53125 5.875 9.65 5.6875 9.675 5.6875C9.7 5.6875 9.83125 5.8875 9.96875 6.1375ZM13.8125 13.0187C13.9313 13.0938 14.0813 13.2563 14.15 13.375C14.275 13.5812 14.2812 13.7125 14.3 15.3562L14.3188 17.125H10.2563H6.1875V15.325C6.1875 13.6437 6.19375 13.5187 6.3125 13.325C6.38125 13.2125 6.525 13.0688 6.6375 13C6.8375 12.8813 6.9625 12.875 10.225 12.875H13.6062L13.8125 13.0187ZM25.3625 13C25.475 13.0688 25.6187 13.2125 25.6875 13.325C25.8062 13.5187 25.8125 13.6437 25.8125 15.325V17.125H24.4062H22.9937L22.8438 17.2812C22.6562 17.4625 22.6438 17.7437 22.8062 17.9437L22.925 18.0938L25.6375 18.125L28.3438 18.1562L28.6875 18.3187C29.1875 18.55 29.4688 18.825 29.7 19.3C29.8813 19.6687 29.9062 19.7812 29.925 20.3562L29.95 21H16H2.05L2.075 20.3562C2.09375 19.7812 2.11875 19.6687 2.3 19.3C2.53125 18.825 2.8125 18.55 3.3125 18.3187L3.65625 18.1562L12.4563 18.125L21.2625 18.0938L21.3813 17.9437C21.5438 17.7437 21.5312 17.4625 21.3438 17.2812L21.1938 17.125H19.4375H17.6812L17.7 15.3562C17.7188 13.7125 17.725 13.5812 17.85 13.375C17.9188 13.2563 18.0688 13.0938 18.1875 13.0187L18.3938 12.875H21.775C25.0375 12.875 25.1625 12.8813 25.3625 13ZM30.8563 22.15C31.025 22.2937 31.0312 22.325 31.05 22.9938L31.075 23.6875H16H0.925L0.95 22.9938C0.96875 22.325 0.975 22.2937 1.14375 22.15L1.31875 22H16H30.6812L30.8563 22.15ZM31.0625 25.1188C31.0625 25.6062 30.975 25.9125 30.8125 26C30.7375 26.0375 27.075 26.0625 20.625 26.0625H10.5563L10.4062 26.2188C10.2 26.4188 10.2 26.7062 10.4062 26.9062L10.5563 27.0625H18.7812H27V28.0938V29.125H16H5V28.0938V27.0625H6.875H8.75625L8.90625 26.9062C9.1125 26.7062 9.1125 26.4188 8.90625 26.2188L8.75625 26.0625H5.03125C2.71875 26.0625 1.2625 26.0375 1.1875 26C1.025 25.9125 0.9375 25.6062 0.9375 25.1188V24.6875H16H31.0625V25.1188ZM4 28.0938V29.125H3.03125H2.0625V28.0938V27.0625H3.03125H4V28.0938ZM29.9375 28.0938V29.125H28.9688H28V28.0938V27.0625H28.9688H29.9375V28.0938Z" fill="#26A387"/>
<path d="M17.4499 4.6625C17.3686 4.71875 17.2999 4.85 17.2749 5.00625C17.2374 5.225 17.2124 5.25 17.0561 5.25C16.6374 5.25 16.4499 5.85625 16.7874 6.11875C16.8811 6.19375 17.0186 6.25 17.0999 6.25C17.2124 6.25 17.2499 6.28125 17.2499 6.39375C17.2499 6.7375 17.6061 6.98125 17.9374 6.86875C18.1499 6.79375 18.2499 6.65 18.2499 6.41875C18.2499 6.2875 18.2874 6.2625 18.4936 6.225C18.7749 6.18125 18.9374 6 18.9374 5.73125C18.9374 5.49375 18.6874 5.25 18.4374 5.25C18.2624 5.25 18.2499 5.23125 18.2499 5.0375C18.2499 4.65 17.7811 4.43125 17.4499 4.6625Z" fill="#26A387"/>
</svg>
