<svg width="32" height="32" viewBox="0 0 32 32" fill="none" xmlns="http://www.w3.org/2000/svg">
<path d="M21 20.5V11.5C21 11.3674 20.9473 11.2402 20.8536 11.1464C20.7598 11.0527 20.6326 11 20.5 11H11.5C11.3674 11 11.2402 11.0527 11.1464 11.1464C11.0527 11.2402 11 11.3674 11 11.5V20.5C11 20.6326 11.0527 20.7598 11.1464 20.8536C11.2402 20.9473 11.3674 21 11.5 21H20.5C20.6326 21 20.7598 20.9473 20.8536 20.8536C20.9473 20.7598 21 20.6326 21 20.5ZM20 20H12V12H20V20ZM30.5 1H1.5C1.36739 1 1.24021 1.05268 1.14645 1.14645C1.05268 1.24021 1 1.36739 1 1.5V30.5C1 30.6326 1.05268 30.7598 1.14645 30.8536C1.24021 30.9473 1.36739 31 1.5 31H30.5C30.6326 31 30.7598 30.9473 30.8536 30.8536C30.9473 30.7598 31 30.6326 31 30.5V1.5C31 1.36739 30.9473 1.24021 30.8536 1.14645C30.7598 1.05268 30.6326 1 30.5 1ZM30 30H2V2H30V30ZM4 28.5H28C28.1326 28.5 28.2598 28.4473 28.3536 28.3536C28.4473 28.2598 28.5 28.1326 28.5 28V4C28.5 3.86739 28.4473 3.74021 28.3536 3.64645C28.2598 3.55268 28.1326 3.5 28 3.5H4C3.86739 3.5 3.74021 3.55268 3.64645 3.64645C3.55268 3.74021 3.5 3.86739 3.5 4V28C3.5 28.1326 3.55268 28.2598 3.64645 28.3536C3.74021 28.4473 3.86739 28.5 4 28.5ZM27.5 27.5H23V12H27.5V27.5ZM12 4.5H27.5V9H12V4.5ZM4.5 4.5H9V20H4.5V4.5ZM4.5 21H9.5C9.63261 21 9.75979 20.9473 9.85355 20.8536C9.94732 20.7598 10 20.6326 10 20.5V4.5H11V9.5C11 9.63261 11.0527 9.75979 11.1464 9.85355C11.2402 9.94732 11.3674 10 11.5 10H27.5V11H22.5C22.3674 11 22.2402 11.0527 22.1464 11.1464C22.0527 11.2402 22 11.3674 22 11.5V27.5H21V22.5C21 22.3674 20.9473 22.2402 20.8536 22.1464C20.7598 22.0527 20.6326 22 20.5 22H4.5V21ZM4.5 23H20V27.5H4.5V23Z" fill="#26A387"/>
</svg>
