<svg width="32" height="32" viewBox="0 0 32 32" fill="none" xmlns="http://www.w3.org/2000/svg">
<g clip-path="url(#clip0_1071_3381)">
<path d="M15.8126 0.0499935C15.6626 0.0687428 0.0563926 5.24374 0.00639261 5.28749C-0.0498574 5.33749 0.281393 6.26249 0.362643 6.29374C0.406393 6.31249 3.76889 5.21249 7.83139 3.84999C11.9001 2.48749 15.2439 1.37499 15.2689 1.37499C15.2939 1.37499 15.3126 4.87499 15.3126 9.14999V16.925L14.3564 17.2437C13.8376 17.4187 13.3876 17.5625 13.3626 17.5625C13.3376 17.5625 13.3126 16.525 13.3001 15.2562L13.2814 12.95L13.1314 12.7875C13.0189 12.6687 12.9126 12.625 12.7439 12.625C12.3876 12.625 0.443893 16.2812 0.287643 16.4375C0.156393 16.5625 0.156393 16.6125 0.137643 20.9625C0.125143 25.2 0.125143 25.3625 0.243893 25.5062C0.318893 25.6 1.36889 26.1375 3.11889 26.9687C4.63139 27.6937 5.87514 28.3 5.87514 28.3187C5.87514 28.3375 5.33139 28.6 4.66264 28.9062C3.59389 29.3875 3.43139 29.475 3.35014 29.65C3.24389 29.8812 3.28139 30.1375 3.44389 30.2875C3.55639 30.3875 6.64389 31.875 6.74389 31.875C6.76889 31.875 6.89389 31.6562 7.01889 31.3937L7.25014 30.9062L6.21264 30.4062L5.16889 29.9062L6.19389 29.4437C6.75639 29.1875 7.24389 28.9812 7.28139 28.9812C7.31264 28.9812 8.50014 29.5375 9.90639 30.2187C11.3189 30.8937 12.5564 31.4625 12.6564 31.4812C12.8064 31.5062 14.0189 31.0062 18.4689 29.1C21.8064 27.6687 24.1126 26.6437 24.1564 26.5812C24.1876 26.5187 24.2314 25.925 24.2501 25.2437L24.2814 24.025L27.1751 25.3687C28.7626 26.1062 30.0626 26.7312 30.0626 26.75C30.0626 26.7687 27.9939 27.7187 25.4689 28.8687C22.9439 30.0187 20.8751 30.975 20.8751 31C20.8751 31.025 20.9751 31.2625 21.0939 31.525C21.2814 31.9375 21.3251 31.9937 21.4189 31.95C21.4814 31.9125 23.8376 30.8437 26.6564 29.5625C29.4751 28.2875 31.8314 27.1812 31.8939 27.1125C32.0376 26.9437 32.0376 26.5375 31.8876 26.3875C31.8314 26.3312 30.0626 25.4812 27.9689 24.5062C25.8689 23.525 24.1126 22.6937 24.0626 22.6562C24.0126 22.6125 21.8126 21.6562 19.1689 20.5312C16.5314 19.4 14.3939 18.4562 14.4189 18.4312C14.4501 18.4125 14.7814 18.2875 15.1626 18.1625L15.8564 17.9312L23.3501 21.0375C28.4564 23.1562 30.9189 24.1437 31.0751 24.15C31.2439 24.15 31.3564 24.1125 31.4501 24.0125L31.5939 23.8687L31.6126 15.2812L31.6251 6.69374L31.4876 6.53124C31.3814 6.41249 29.4751 5.59999 23.7501 3.23124C19.5751 1.49999 16.1126 0.0749931 16.0626 0.056242C16.0126 0.0374928 15.9001 0.0374928 15.8126 0.0499935ZM17.9751 2.05624L19.4689 2.67499L19.4876 10.4375C19.5001 16.85 19.4876 18.1937 19.4189 18.175C19.3751 18.1625 18.6814 17.8875 17.8876 17.5625L16.4376 16.9687V9.19999C16.4376 4.93124 16.4501 1.43749 16.4626 1.43749C16.4751 1.43749 17.1564 1.71249 17.9751 2.05624ZM23.5001 4.33749L26.2814 5.49374L26.3001 8.11874L26.3126 10.75L25.9876 10.6187C25.8064 10.5437 25.4689 10.4125 25.2376 10.3187L24.8126 10.1562V9.26874V8.37499H24.2501H23.6876V9.23749V10.0937L22.1564 10.475L20.6251 10.8562V7.02499C20.6251 4.91249 20.6439 3.18749 20.6751 3.18749C20.7001 3.18749 21.9689 3.70624 23.5001 4.33749ZM29.0001 6.61249L30.4689 7.21874L30.4876 14.9875C30.5001 22.6437 30.5001 22.7562 30.3814 22.7187C30.3126 22.7 29.6314 22.4187 28.8626 22.1L27.4689 21.5187L27.4501 13.7562C27.4439 9.49374 27.4564 5.99999 27.4814 5.99999C27.5126 6.00624 28.1939 6.28124 29.0001 6.61249ZM23.6876 11.7187V12.1812L23.4564 12.2437C22.9501 12.375 20.6876 12.9375 20.6564 12.9375C20.6376 12.9375 20.6251 12.725 20.6251 12.4687C20.6251 12.0125 20.6314 12 20.8001 11.9562C20.8939 11.9375 21.5439 11.7687 22.2501 11.5875C22.9564 11.4062 23.5689 11.2562 23.6126 11.2562C23.6626 11.25 23.6876 11.3812 23.6876 11.7187ZM25.5939 11.6625L26.3126 11.95V12.3812C26.3126 12.6187 26.3001 12.8125 26.2814 12.8125C26.2626 12.8125 25.9251 12.6812 25.5314 12.525L24.8126 12.2375V11.8062C24.8126 11.5687 24.8251 11.375 24.8439 11.375C24.8626 11.375 25.2001 11.5062 25.5939 11.6625ZM23.6876 15.4V17.425L23.1876 17.55L22.6876 17.675V15.6312V13.5812L23.0814 13.4875C23.7564 13.3187 23.6876 13.0937 23.6876 15.4ZM26.3001 16.0562C26.3126 17.6625 26.3001 18.0687 26.2376 18.0437C26.1939 18.025 25.8564 17.8937 25.4876 17.7437L24.8126 17.4812V15.4625V13.45L25.5501 13.7437L26.2814 14.0375L26.3001 16.0562ZM12.1876 15.925V17.975L11.9376 18.0437L11.6876 18.1062V17.0562V16.0062L11.5251 15.8812C11.4314 15.8062 11.2689 15.75 11.1626 15.75C10.9751 15.75 7.98764 16.7125 7.70014 16.8687C7.49389 16.975 7.43764 17.3125 7.43764 18.4125V19.4187L7.08139 19.5187C6.88139 19.575 6.67514 19.6375 6.61264 19.6562C6.51889 19.6937 6.50639 19.5937 6.48764 18.6562L6.46889 17.6125L6.29389 17.4625C6.20014 17.3812 6.04389 17.3125 5.95014 17.3125C5.65014 17.3125 2.55014 18.3812 2.39389 18.5375C2.25639 18.675 2.25014 18.7125 2.25014 19.8375V20.9875L1.81889 21.1187C1.58139 21.1937 1.35639 21.25 1.31889 21.25C1.26889 21.25 1.25014 20.6562 1.25014 19.2312V17.2187L6.70639 15.5562C9.70014 14.6375 12.1626 13.8875 12.1751 13.8812C12.1814 13.875 12.1876 14.8 12.1876 15.925ZM21.6251 15.9062V17.9312L21.3626 18C20.9189 18.1187 20.8501 18.1312 20.7314 18.1687C20.6314 18.1937 20.6251 18.0812 20.6376 16.15L20.6564 14.1L21.0626 13.9937C21.2876 13.9375 21.5064 13.8812 21.5501 13.8812C21.6064 13.875 21.6251 14.3187 21.6251 15.9062ZM10.6251 17.7437V18.4312L9.89389 18.6562C9.48764 18.7812 9.03139 18.925 8.88139 18.975C8.72514 19.0187 8.59389 19.0625 8.58139 19.0625C8.56889 19.0625 8.56889 18.7625 8.57514 18.3937L8.59389 17.7312L9.56264 17.4C10.0939 17.2187 10.5501 17.0687 10.5814 17.0687C10.6064 17.0625 10.6251 17.3687 10.6251 17.7437ZM25.3251 18.8937L26.3126 19.2812V20.1375C26.3126 20.6125 26.2939 21 26.2689 21C26.2376 21 25.1814 20.575 23.9126 20.05L21.6064 19.1L22.8814 18.775C23.5814 18.5937 24.2001 18.4625 24.2501 18.475C24.3001 18.4937 24.7876 18.6812 25.3251 18.8937ZM5.37514 19.3312V20.0375L4.39389 20.3312C3.85014 20.4937 3.38764 20.625 3.36264 20.625C3.33139 20.625 3.31264 20.3312 3.31264 19.975V19.325L4.33139 18.9812C4.88764 18.7875 5.35014 18.6312 5.36264 18.6312C5.36889 18.625 5.37514 18.9437 5.37514 19.3312ZM15.6314 20.2312C17.2126 20.9062 18.4814 21.4812 18.4564 21.5062C18.4251 21.5312 16.3564 22.45 13.8564 23.55L9.30639 25.5437L5.76889 23.85C3.82514 22.9187 2.26264 22.15 2.30014 22.1375C2.96264 21.9187 12.5626 19.0125 12.6439 19.0062C12.7064 19 14.0501 19.5562 15.6314 20.2312ZM21.1689 22.6062L22.3064 23.0875L17.5251 25.1375L12.7439 27.1875L11.7001 26.6812C11.1251 26.4 10.6876 26.1625 10.7189 26.15C10.7564 26.1312 12.8189 25.225 15.3126 24.1312C17.8064 23.0312 19.8876 22.1312 19.9376 22.1312C19.9876 22.125 20.5439 22.3375 21.1689 22.6062ZM7.10639 25.7312L12.1876 28.1562V29.1062V30.0562L11.6314 29.7937C11.3251 29.65 8.86264 28.475 6.16264 27.1875L1.25639 24.8437L1.25014 23.8937V22.9437L1.64389 23.125C1.85639 23.225 4.31889 24.4 7.10639 25.7312ZM23.1876 24.8937V25.8562L18.3439 27.925C15.6814 29.0687 13.4626 30.0187 13.4064 30.0375C13.3251 30.0687 13.3126 29.9562 13.3126 29.1187V28.1562L18.2376 26.05C20.9439 24.8875 23.1626 23.9437 23.1751 23.9375C23.1814 23.9375 23.1876 24.3687 23.1876 24.8937Z" fill="#26A387"/>
<path d="M11.0938 4.2375C11.025 4.25 8.8375 4.9625 6.225 5.81875C2.6625 6.99375 1.45 7.41875 1.3375 7.53125L1.1875 7.68125V11.0312V14.3875L1.36875 14.5687C1.46875 14.6687 1.61875 14.75 1.7 14.75C1.975 14.75 11.3875 11.575 11.5437 11.4312L11.6875 11.2938V7.90625V4.51875L11.55 4.39375C11.3813 4.24375 11.2625 4.2 11.0938 4.2375ZM10.6125 8.10625L10.5938 10.6437L6.5 12.0125C4.25 12.7625 2.3875 13.375 2.35625 13.375C2.33125 13.375 2.31875 12.2313 2.325 10.8312L2.34375 8.29375L6.40625 6.93125C8.64375 6.18125 10.5063 5.56875 10.55 5.56875C10.6125 5.5625 10.625 6.0875 10.6125 8.10625Z" fill="#26A387"/>
<path d="M7.72535 8.43123L6.7941 9.36248L6.1691 9.14998C5.8191 9.03123 5.46285 8.93748 5.3691 8.93748C5.13785 8.93748 3.47535 10.0312 3.53785 10.1437C3.5816 10.2125 4.06285 10.9437 4.10035 10.9875C4.1066 11 4.41285 10.8125 4.77535 10.5687C5.13785 10.325 5.4691 10.125 5.51285 10.125C5.5566 10.125 5.90035 10.225 6.2691 10.35C6.7316 10.5062 6.9941 10.5625 7.11285 10.5312C7.28785 10.4875 9.43785 8.40623 9.43785 8.28123C9.43785 8.21873 8.7441 7.49998 8.68785 7.49998C8.6691 7.49998 8.23785 7.91873 7.72535 8.43123Z" fill="#26A387"/>
</g>
<defs>
<clipPath id="clip0_1071_3381">
<rect width="32" height="32" fill="white"/>
</clipPath>
</defs>
</svg>
