<svg width="35" height="34" viewBox="0 0 35 34" fill="none" xmlns="http://www.w3.org/2000/svg">
<path d="M24.8332 11.6292H10.7232C10.2896 11.6294 9.87389 11.8018 9.56729 12.1084C9.2607 12.415 9.08833 12.8307 9.08805 13.2643V16.9682H26.4684V13.2643C26.4681 12.8307 26.2958 12.415 25.9892 12.1084C25.6826 11.8018 25.2668 11.6294 24.8332 11.6292Z" fill="#26A387"/>
<path d="M32.1847 19.0517C32.1834 18.3188 31.9329 17.6081 31.4743 17.0364C31.0157 16.4647 30.3764 16.0659 29.6612 15.9056V7.4375H5.52442V15.9545C4.84379 16.1402 4.24285 16.5441 3.81373 17.1041C3.38461 17.6641 3.15098 18.3494 3.14867 19.0549V24.395H5.5988V26.5625H6.74417V24.3918H28.5892V26.5625H29.7345V24.3918H32.1847V19.0517ZM6.6698 8.57969H28.5159V15.8228H6.6698V8.57969ZM31.0393 23.2422H4.29405V19.0517C4.29489 18.4994 4.51468 17.9699 4.90524 17.5793C5.2958 17.1888 5.82527 16.969 6.37761 16.9681H28.9557C29.5081 16.969 30.0375 17.1888 30.4281 17.5793C30.8187 17.9699 31.0385 18.4994 31.0393 19.0517V23.2422Z" fill="#26A387"/>
</svg>
