<svg width="35" height="35" viewBox="0 0 35 35" fill="none" xmlns="http://www.w3.org/2000/svg">
<path fill-rule="evenodd" clip-rule="evenodd" d="M3.25581 6.82685V7.08192L2.99203 7.09063L2.72825 7.09934L2.71957 7.37819L2.71092 7.65705H2.45929H2.20762L2.18562 8.19968L2.16361 8.74232H1.91409H1.6646L1.64259 9.30003L1.62058 9.85774H1.37266H1.12473L1.10511 10.2421C1.09435 10.4535 1.08545 10.8198 1.08539 11.0561L1.08527 11.4856H0.813954H0.542636V12.0283V12.5709H0.271318H0V13.3802V14.1895L0.41174 14.2092C0.6382 14.2201 1.62866 14.229 2.61273 14.229H4.40198L4.39414 15.5931L4.3863 16.9572L3.00711 16.9651L1.62791 16.9729V17.2288V17.4848H1.08527H0.542636V17.7561V18.0274H0.271318H0V22.1424V26.2574H0.271318H0.542636V26.5287V26.8H0.813954H1.08527V27.3415V27.883L1.36413 27.8917L1.64298 27.9004L1.65169 28.1642L1.6604 28.4279H1.91547H2.17054V28.1566V27.8853H2.43839H2.70624L2.72825 27.3427L2.75026 26.8H5.47158H8.19289L8.21484 27.3415L8.23682 27.883L8.49719 27.8917L8.75754 27.9004L8.76625 28.1642L8.77496 28.4279H9.03003H9.2851V28.1566V27.8853H9.57149H9.85788V27.3427V26.8H10.1292H10.4005V26.5299V26.2597L10.6643 26.251L10.9281 26.2423V22.1424V18.0425L10.6654 18.0338L10.4028 18.0251L10.3941 17.7625L10.3854 17.4999L9.83527 17.4916L9.2851 17.4834V17.2278V16.9723H7.65719H6.02928V15.6008V14.2294L8.20736 14.2216L10.3854 14.2139L10.3941 13.935L10.4028 13.6562H10.6579H10.913V13.3999V13.1437H10.6568H10.4005V12.586V12.0283H10.1292H9.85788V11.6261C9.85788 11.4049 9.84902 11.0391 9.83819 10.8132L9.81848 10.4026L9.55934 10.394L9.30017 10.3853L9.29194 9.83513L9.28374 9.28496H9.01309H8.74246V8.74232V8.19968H8.47115H8.19983V7.65705V7.11441H7.92851H7.65719V6.8431V6.57178H5.4565H3.25581V6.82685ZM3.8286 8.471V8.74232H3.55797H3.28732L3.27912 9.29249L3.27089 9.84266L3.0078 9.85138L2.74471 9.86006L2.73648 10.394L2.72825 10.9279L2.46447 10.9366L2.20069 10.9454V11.3464C2.20069 11.5669 2.1918 11.9327 2.18094 12.1592L2.1612 12.5709H5.45183H8.74246V12.0283V11.4856H8.47115H8.19983V10.943V10.4004H7.92851H7.65719V9.84266V9.28496H7.38587H7.11456V8.74232V8.19968H5.47158H3.8286V8.471ZM16.3997 8.471V8.74232H15.5868H14.774L14.7654 9.02117L14.7567 9.30003L14.4975 9.30868L14.2384 9.3173L14.2187 9.72796C14.2078 9.95381 14.199 10.3196 14.199 10.5408V10.943H13.9427H13.6865V13.6713V16.3995H13.4186H13.1508L13.1288 16.941L13.1069 17.4825L12.8465 17.4912L12.5861 17.4999V22.1173C12.5861 24.6569 12.5957 26.7443 12.6074 26.756C12.6192 26.7677 13.1109 26.7844 13.7003 26.7931L14.7717 26.8089V27.3471V27.8853H15.0431H15.3144V28.1566V28.4279H15.5857H15.857V28.1566V27.8853H16.1283H16.3997V27.3427V26.8H24.0568H31.714V27.3427V27.8853H31.9854H32.2567V28.1566V28.4279H32.5245H32.7924L32.8144 27.8853L32.8364 27.3427H33.0892H33.3419V27.0713V26.8H34.171H35V21.8862V16.9723H34.7287H34.4574V16.6859V16.3995H34.186H33.9147L33.9146 13.8145C33.9145 12.3927 33.9057 11.0361 33.8949 10.7998L33.8752 10.3702H33.6271H33.379L33.357 9.82759L33.335 9.28496H33.0672H32.7993V9.01364V8.74232H32.2567H31.714V8.49075V8.23918L31.3023 8.21943C31.0758 8.20858 29.9702 8.19968 28.8454 8.19968H26.8002V8.471V8.74232H26.5289H26.2575V9.28028V9.81825L26.6693 9.83799C26.8957 9.84884 28.1235 9.85774 29.3975 9.85774H31.714V10.114V10.3702H31.9854H32.2567V13.1136V15.8569H31.4427H30.6288V14.4852V13.1136H30.3575H30.0861V12.8422V12.5709H29.7997H29.5134V12.2996V12.0283H27.0564H24.5995V12.2996V12.5709H24.0568H23.5142V12.2996V12.0283H20.786H18.0577V12.2985V12.5687L17.7789 12.5773L17.5 12.586L17.4913 12.8486L17.4826 13.1112L17.22 13.1199L16.9574 13.1286L16.9495 14.4928L16.9417 15.8569H16.128H15.3144V13.1286V10.4004H15.5857H15.857V10.1316V9.86271L18.5677 9.8527C20.0586 9.84719 21.285 9.83588 21.2931 9.82759C21.3012 9.8193 21.3177 9.57171 21.3297 9.27742L21.3517 8.74232H21.0613H20.7709V8.471V8.19968H18.5853H16.3997V8.471ZM23.5142 8.50115V8.77247H23.2429H22.9716V9.02871V9.28496H23.2429H23.5142V9.57135V9.85774H23.6451C23.7171 9.85774 23.9613 9.84884 24.1877 9.83799L24.5995 9.81825V9.28028V8.74232H24.3282H24.0568V8.48608V8.22983H23.7855H23.5142V8.50115ZM18.5905 13.6761C18.5793 13.6872 18.5702 13.8162 18.5702 13.9627V14.229H18.314H18.0577V15.0429V15.8569H20.515H22.9723L22.9644 14.7641L22.9565 13.6713L20.7836 13.6635C19.5886 13.6593 18.6016 13.6649 18.5905 13.6761ZM24.8783 13.6786L24.5995 13.6886V14.7727V15.8569H27.0564H29.5134V14.7763V13.6957L29.1016 13.6759C28.7004 13.6567 25.435 13.6588 24.8783 13.6786ZM14.2291 19.6855V21.856H23.8006H33.3721V19.6855V17.5149H23.8006H14.2291V19.6855ZM1.63532 21.8786L1.64298 25.157H5.47158H9.30017L9.30783 21.8786L9.31552 18.6002H5.47158H1.62764L1.63532 21.8786ZM2.74332 21.8862V22.4288H3.01464H3.28596V22.685V22.9413H3.55728H3.8286V22.1424V21.3435H3.28596H2.74332V21.8862ZM14.2291 24.3356V25.157L23.7931 25.1506L33.357 25.1442L33.365 24.3291L33.3731 23.5141H23.8011H14.2291V24.3356Z" fill="#26A387"/>
</svg>
