<svg width="38" height="38" viewBox="0 0 38 38" fill="none" xmlns="http://www.w3.org/2000/svg">
<path d="M34.0413 19.7915H29.2913M34.0413 19.7915V25.3332C34.0413 26.5998 32.933 27.7082 31.6663 27.7082H29.2913V19.7915M34.0413 19.7915V17.4165C34.0413 16.1498 32.933 15.0415 31.6663 15.0415H29.2913V19.7915M3.95801 19.7915H8.70801M3.95801 19.7915V25.3332C3.95801 26.5998 5.06634 27.7082 6.33301 27.7082H8.70801V19.7915M3.95801 19.7915V17.4165C3.95801 16.1498 5.06634 15.0415 6.33301 15.0415H8.70801V19.7915M7.91634 32.4582H30.083C31.3497 32.4582 32.458 33.5665 32.458 34.8332C32.458 36.0998 31.3497 37.2082 30.083 37.2082H7.91634C6.64967 37.2082 5.54134 36.0998 5.54134 34.8332C5.54134 33.5665 6.64967 32.4582 7.91634 32.4582Z" stroke="#26A387" stroke-width="1.5" stroke-linecap="round" stroke-linejoin="round"/>
<path d="M10.2913 32.4582H13.458V37.2082H10.2913V32.4582ZM24.5413 32.4582H27.708V37.2082H24.5413V32.4582ZM11.8747 19.7915H26.1247V29.2915H11.8747V19.7915ZM18.9997 0.791504C20.2663 0.791504 21.3747 1.89984 21.3747 3.1665V3.95817H16.6247V3.1665C16.6247 1.89984 17.733 0.791504 18.9997 0.791504ZM11.8747 3.95817H11.083C9.81634 3.95817 8.70801 5.0665 8.70801 6.33317V9.49984C8.70801 10.7665 9.81634 11.8748 11.083 11.8748H11.8747V3.95817ZM15.0413 3.95817H22.958V11.8748H15.0413V3.95817ZM26.9163 3.95817H26.1247V11.8748H26.9163C28.183 11.8748 29.2913 10.7665 29.2913 9.49984V6.33317C29.2913 5.0665 28.183 3.95817 26.9163 3.95817Z" stroke="#26A387" stroke-width="1.5" stroke-linecap="round" stroke-linejoin="round"/>
<path d="M26.9163 11.875H26.1247V15.0417L24.5413 16.625L22.958 15.0417V11.875H15.0413V15.0417L13.458 16.625L11.8747 15.0417V11.875H11.083C9.81634 11.875 8.70801 12.9833 8.70801 14.25V30.0833C8.70801 31.35 9.65801 32.4583 10.9247 32.4583H26.9163C28.183 32.4583 29.2913 31.35 29.133 30.0833V14.25C29.2913 12.9833 28.183 11.875 26.9163 11.875Z" stroke="#26A387" stroke-width="1.5" stroke-linecap="round" stroke-linejoin="round"/>
<path d="M11.875 19.7918C11.875 19.7918 15.8333 24.5418 19 24.5418C22.1667 24.5418 26.125 19.7918 26.125 19.7918M19 22.9585V26.1252M15.0417 15.0418L13.4583 16.6252L11.875 15.0418V3.9585H15.0417V15.0418ZM26.125 15.0418L24.5417 16.6252L22.9583 15.0418V3.9585H26.125V15.0418Z" stroke="#26A387" stroke-width="1.5" stroke-linecap="round" stroke-linejoin="round"/>
</svg>
