<svg width="15" height="16" viewBox="0 0 15 16" fill="none" xmlns="http://www.w3.org/2000/svg">
<path d="M13.3594 8C13.3594 8.18648 13.2853 8.36532 13.1534 8.49718C13.0216 8.62905 12.8427 8.70312 12.6562 8.70312H8.20312V13.1562C8.20312 13.3427 8.12905 13.5216 7.99718 13.6534C7.86532 13.7853 7.68648 13.8594 7.5 13.8594C7.31352 13.8594 7.13468 13.7853 7.00282 13.6534C6.87095 13.5216 6.79688 13.3427 6.79688 13.1562V8.70312H2.34375C2.15727 8.70312 1.97843 8.62905 1.84657 8.49718C1.7147 8.36532 1.64062 8.18648 1.64062 8C1.64062 7.81352 1.7147 7.63468 1.84657 7.50282C1.97843 7.37095 2.15727 7.29688 2.34375 7.29688H6.79688V2.84375C6.79688 2.65727 6.87095 2.47843 7.00282 2.34657C7.13468 2.2147 7.31352 2.14062 7.5 2.14062C7.68648 2.14062 7.86532 2.2147 7.99718 2.34657C8.12905 2.47843 8.20312 2.65727 8.20312 2.84375V7.29688H12.6562C12.8427 7.29688 13.0216 7.37095 13.1534 7.50282C13.2853 7.63468 13.3594 7.81352 13.3594 8Z" fill="#26A387"/>
</svg>
