<svg width="24" height="24" viewBox="0 0 24 24" fill="none" xmlns="http://www.w3.org/2000/svg">
<path d="M18.75 24C20.1424 24 21.4777 23.4469 22.4623 22.4623C23.4469 21.4777 24 20.1424 24 18.75C24 17.3576 23.4469 16.0223 22.4623 15.0377C21.4777 14.0531 20.1424 13.5 18.75 13.5C17.3576 13.5 16.0223 14.0531 15.0377 15.0377C14.0531 16.0223 13.5 17.3576 13.5 18.75C13.5 20.1424 14.0531 21.4777 15.0377 22.4623C16.0223 23.4469 17.3576 24 18.75 24ZM19.5 16.5V18H21C21.1989 18 21.3897 18.079 21.5303 18.2197C21.671 18.3603 21.75 18.5511 21.75 18.75C21.75 18.9489 21.671 19.1397 21.5303 19.2803C21.3897 19.421 21.1989 19.5 21 19.5H19.5V21C19.5 21.1989 19.421 21.3897 19.2803 21.5303C19.1397 21.671 18.9489 21.75 18.75 21.75C18.5511 21.75 18.3603 21.671 18.2197 21.5303C18.079 21.3897 18 21.1989 18 21V19.5H16.5C16.3011 19.5 16.1103 19.421 15.9697 19.2803C15.829 19.1397 15.75 18.9489 15.75 18.75C15.75 18.5511 15.829 18.3603 15.9697 18.2197C16.1103 18.079 16.3011 18 16.5 18H18V16.5C18 16.3011 18.079 16.1103 18.2197 15.9697C18.3603 15.829 18.5511 15.75 18.75 15.75C18.9489 15.75 19.1397 15.829 19.2803 15.9697C19.421 16.1103 19.5 16.3011 19.5 16.5Z" fill="white"/>
<path d="M3 1.5C3 1.10218 3.15804 0.720644 3.43934 0.43934C3.72064 0.158035 4.10218 0 4.5 0L19.5 0C19.8978 0 20.2794 0.158035 20.5607 0.43934C20.842 0.720644 21 1.10218 21 1.5V11.25C21 11.4489 20.921 11.6397 20.7803 11.7803C20.6397 11.921 20.4489 12 20.25 12C20.0511 12 19.8603 11.921 19.7197 11.7803C19.579 11.6397 19.5 11.4489 19.5 11.25V1.5H4.5V22.5H9V18.75C9 18.5511 9.07902 18.3603 9.21967 18.2197C9.36032 18.079 9.55109 18 9.75 18H12V24H4.5C4.10218 24 3.72064 23.842 3.43934 23.5607C3.15804 23.2794 3 22.8978 3 22.5V1.5Z" fill="white"/>
<path d="M6.75 3C6.55109 3 6.36032 3.07902 6.21967 3.21967C6.07902 3.36032 6 3.55109 6 3.75V5.25C6 5.44891 6.07902 5.63968 6.21967 5.78033C6.36032 5.92098 6.55109 6 6.75 6H8.25C8.44891 6 8.63968 5.92098 8.78033 5.78033C8.92098 5.63968 9 5.44891 9 5.25V3.75C9 3.55109 8.92098 3.36032 8.78033 3.21967C8.63968 3.07902 8.44891 3 8.25 3H6.75ZM11.25 3C11.0511 3 10.8603 3.07902 10.7197 3.21967C10.579 3.36032 10.5 3.55109 10.5 3.75V5.25C10.5 5.44891 10.579 5.63968 10.7197 5.78033C10.8603 5.92098 11.0511 6 11.25 6H12.75C12.9489 6 13.1397 5.92098 13.2803 5.78033C13.421 5.63968 13.5 5.44891 13.5 5.25V3.75C13.5 3.55109 13.421 3.36032 13.2803 3.21967C13.1397 3.07902 12.9489 3 12.75 3H11.25ZM15.75 3C15.5511 3 15.3603 3.07902 15.2197 3.21967C15.079 3.36032 15 3.55109 15 3.75V5.25C15 5.44891 15.079 5.63968 15.2197 5.78033C15.3603 5.92098 15.5511 6 15.75 6H17.25C17.4489 6 17.6397 5.92098 17.7803 5.78033C17.921 5.63968 18 5.44891 18 5.25V3.75C18 3.55109 17.921 3.36032 17.7803 3.21967C17.6397 3.07902 17.4489 3 17.25 3H15.75ZM6.75 7.5C6.55109 7.5 6.36032 7.57902 6.21967 7.71967C6.07902 7.86032 6 8.05109 6 8.25V9.75C6 9.94891 6.07902 10.1397 6.21967 10.2803C6.36032 10.421 6.55109 10.5 6.75 10.5H8.25C8.44891 10.5 8.63968 10.421 8.78033 10.2803C8.92098 10.1397 9 9.94891 9 9.75V8.25C9 8.05109 8.92098 7.86032 8.78033 7.71967C8.63968 7.57902 8.44891 7.5 8.25 7.5H6.75ZM11.25 7.5C11.0511 7.5 10.8603 7.57902 10.7197 7.71967C10.579 7.86032 10.5 8.05109 10.5 8.25V9.75C10.5 9.94891 10.579 10.1397 10.7197 10.2803C10.8603 10.421 11.0511 10.5 11.25 10.5H12.75C12.9489 10.5 13.1397 10.421 13.2803 10.2803C13.421 10.1397 13.5 9.94891 13.5 9.75V8.25C13.5 8.05109 13.421 7.86032 13.2803 7.71967C13.1397 7.57902 12.9489 7.5 12.75 7.5H11.25ZM15.75 7.5C15.5511 7.5 15.3603 7.57902 15.2197 7.71967C15.079 7.86032 15 8.05109 15 8.25V9.75C15 9.94891 15.079 10.1397 15.2197 10.2803C15.3603 10.421 15.5511 10.5 15.75 10.5H17.25C17.4489 10.5 17.6397 10.421 17.7803 10.2803C17.921 10.1397 18 9.94891 18 9.75V8.25C18 8.05109 17.921 7.86032 17.7803 7.71967C17.6397 7.57902 17.4489 7.5 17.25 7.5H15.75ZM6.75 12C6.55109 12 6.36032 12.079 6.21967 12.2197C6.07902 12.3603 6 12.5511 6 12.75V14.25C6 14.4489 6.07902 14.6397 6.21967 14.7803C6.36032 14.921 6.55109 15 6.75 15H8.25C8.44891 15 8.63968 14.921 8.78033 14.7803C8.92098 14.6397 9 14.4489 9 14.25V12.75C9 12.5511 8.92098 12.3603 8.78033 12.2197C8.63968 12.079 8.44891 12 8.25 12H6.75ZM11.25 12C11.0511 12 10.8603 12.079 10.7197 12.2197C10.579 12.3603 10.5 12.5511 10.5 12.75V14.25C10.5 14.4489 10.579 14.6397 10.7197 14.7803C10.8603 14.921 11.0511 15 11.25 15H12.75C12.9489 15 13.1397 14.921 13.2803 14.7803C13.421 14.6397 13.5 14.4489 13.5 14.25V12.75C13.5 12.5511 13.421 12.3603 13.2803 12.2197C13.1397 12.079 12.9489 12 12.75 12H11.25Z" fill="white"/>
</svg>
