<svg width="32" height="32" viewBox="0 0 32 32" fill="none" xmlns="http://www.w3.org/2000/svg">
<g clip-path="url(#clip0_238_106295)">
<path d="M26.7583 0C26.8499 0.05 26.9332 0.1 27.0249 0.15C27.5666 0.491667 27.6249 1.20833 27.1499 1.70833C26.1999 2.7 25.2416 3.68333 24.2832 4.66667C24.2083 4.74167 24.1416 4.81667 24.0499 4.91667C24.1249 5 24.1999 5.08333 24.2749 5.16667C25.2166 6.14167 26.1583 7.10833 27.0916 8.08333C27.2333 8.23333 27.3749 8.425 27.4333 8.625C27.5916 9.175 27.2499 9.70833 26.6833 9.81667C26.5416 9.84167 26.3916 9.84167 26.2499 9.84167C23.5499 9.84167 20.8416 9.84167 18.1416 9.84167C18.0166 9.84167 17.8916 9.84167 17.7499 9.84167C17.7499 14.8167 17.7499 19.7667 17.7499 24.75C18.2499 24.8333 18.7583 24.925 19.2666 24.9917C19.3249 25 19.4249 24.8833 19.4666 24.8C20.1083 23.6917 20.7499 22.5917 21.3833 21.475C21.5499 21.175 21.7666 20.9833 22.1082 20.9C22.5416 20.8 22.8999 20.5417 23.2166 20.1667C22.8916 19.975 22.5832 19.8 22.2749 19.6167C21.6666 19.2667 21.5583 18.85 21.9082 18.2333C22.0833 17.925 22.2582 17.6167 22.4416 17.3167C22.7582 16.7917 23.1749 16.675 23.7083 16.9667C24.0916 17.175 24.4666 17.4 24.8666 17.6333C24.9166 17.5667 24.9666 17.5083 25.0083 17.4417C25.5999 16.4167 26.1916 15.3833 26.7832 14.3583C26.8749 14.2 26.8749 14.1083 26.7499 13.9583C26.2582 13.4 26.2666 12.5917 26.7583 11.9833C27.2333 11.4 27.9749 11.2417 28.6333 11.6083C29.4083 12.05 30.1833 12.5 30.9583 12.95C31.6249 13.3417 31.8582 14.0583 31.5833 14.7833C31.2999 15.5083 30.5916 15.925 29.8749 15.775C29.7166 15.7417 29.6333 15.7417 29.5499 15.9C28.9249 17 28.2833 18.1 27.6333 19.2333C27.9916 19.4417 28.3499 19.65 28.7083 19.8583C29.3499 20.2333 29.4583 20.6417 29.0916 21.2833C28.9083 21.6 28.7332 21.9167 28.5416 22.225C28.2582 22.6833 27.8083 22.8083 27.3333 22.5417C26.9916 22.35 26.6499 22.15 26.2916 21.9417C26.1082 22.3833 26.0666 22.8083 26.1999 23.2417C26.3083 23.5917 26.2499 23.8833 26.0749 24.1917C25.4916 25.1833 24.9166 26.1917 24.3333 27.2C24.6416 27.4417 24.9416 27.675 25.2332 27.925C25.5082 28.1583 25.5583 28.4417 25.3749 28.6583C25.1916 28.875 24.9083 28.875 24.6333 28.6417C21.9333 26.3917 18.8166 25.475 15.3416 25.6917C14.6916 25.7333 14.0499 25.875 13.4083 25.9917C13.3166 26.0083 13.1999 26.1 13.1666 26.1833C12.3416 28.1417 11.0583 29.7333 9.33325 30.9667C9.31658 30.975 9.31658 31 9.29158 31.0333C15.1083 31.0333 20.9083 31.0333 26.7666 31.0333C26.5916 30.7917 26.4333 30.575 26.2832 30.3667C26.0499 30.05 26.0583 29.7833 26.2999 29.6C26.5416 29.4167 26.7999 29.4833 27.0332 29.8083C27.2832 30.15 27.5083 30.5167 27.7666 30.85C27.8416 30.95 27.9833 31.0333 28.0999 31.0417C28.6333 31.0583 29.1582 31.0583 29.6916 31.05C29.9583 31.0417 30.1999 31.0833 30.2999 31.375C30.3999 31.6667 30.2333 31.85 30.0083 31.9917C20.8999 31.9917 11.7916 31.9917 2.68325 31.9917C2.44158 31.8583 2.29158 31.6667 2.38325 31.3833C2.47492 31.0917 2.71658 31.05 2.98325 31.0583C3.52492 31.0667 4.06658 31.0667 4.60825 31.0583C4.69158 31.0583 4.78325 30.9833 4.86658 30.95C4.81658 30.8833 4.77492 30.7917 4.70825 30.7417C2.31658 28.875 0.88325 26.45 0.466584 23.4333C0.249917 21.875 0.38325 20.3333 0.841584 18.8333C1.04992 18.15 1.59158 17.7417 2.29992 17.7333C5.54158 17.725 8.78325 17.725 12.0333 17.7333C12.7916 17.7333 13.3166 18.1667 13.5333 18.9417C14.0749 20.8333 14.1083 22.7417 13.6499 24.65C13.6333 24.7333 13.6166 24.8083 13.5999 24.8917C13.5999 24.9083 13.6166 24.925 13.6249 24.9667C14.0499 24.9083 14.4749 24.8417 14.9499 24.775C14.9499 24.6417 14.9499 24.5083 14.9499 24.375C14.9499 21.8417 14.9499 19.3167 14.9499 16.7833C14.9499 16.6833 14.9499 16.575 14.9499 16.475C14.9666 16.1667 15.1333 15.9917 15.4083 15.9833C15.6749 15.9833 15.8583 16.15 15.8833 16.4583C15.8916 16.5583 15.8916 16.6667 15.8916 16.7667C15.8916 19.2833 15.8916 21.8083 15.8916 24.325C15.8916 24.45 15.8916 24.5667 15.8916 24.7083C16.2083 24.7083 16.4833 24.7083 16.7833 24.7083C16.7833 19.7667 16.7833 14.8333 16.7833 9.88333C16.4916 9.88333 16.2166 9.88333 15.8916 9.88333C15.8916 10.0167 15.8916 10.1417 15.8916 10.2667C15.8916 11.5167 15.8916 12.7667 15.8916 14.0167C15.8916 14.1333 15.8916 14.25 15.8666 14.3583C15.8166 14.6083 15.6416 14.7333 15.3916 14.725C15.1666 14.7167 14.9999 14.5833 14.9666 14.3417C14.9499 14.2417 14.9499 14.1333 14.9499 14.0333C14.9499 9.6 14.9499 5.15833 14.9416 0.725C14.9416 0.441667 14.9916 0.191667 15.2249 0.00833333C19.0666 0 22.9166 0 26.7583 0ZM26.5583 8.90833C26.4583 8.79167 26.3916 8.71667 26.3249 8.64167C25.3832 7.66667 24.4416 6.7 23.5083 5.725C22.9749 5.175 22.9833 4.675 23.5166 4.11667C24.4499 3.15 25.3832 2.19167 26.3166 1.225C26.3916 1.15 26.4583 1.06667 26.5583 0.95C22.9666 0.95 19.4416 0.95 15.8999 0.95C15.8999 3.60833 15.8999 6.24167 15.8999 8.9C19.4416 8.90833 22.9666 8.90833 26.5583 8.90833ZM7.17492 18.675C5.60825 18.675 4.03325 18.675 2.46658 18.675C1.98325 18.675 1.82492 18.7917 1.69158 19.2667C1.34158 20.5167 1.20825 21.7833 1.37492 23.0667C1.81658 26.625 3.64158 29.2333 6.77492 30.9333C7.05825 31.0917 7.31658 31.0667 7.59992 30.925C11.8333 28.7417 13.9499 23.8917 12.6666 19.3C12.5249 18.7917 12.3749 18.675 11.8499 18.675C10.2916 18.675 8.73325 18.675 7.17492 18.675ZM23.2583 17.8C23.0666 18.1417 22.8832 18.4583 22.6916 18.7833C24.3916 19.7667 26.0583 20.7333 27.7583 21.7167C27.9499 21.375 28.1332 21.0583 28.3249 20.725C26.6249 19.75 24.9499 18.7833 23.2583 17.8ZM24.0499 20.6583C23.6583 21.1333 23.2249 21.5 22.6833 21.725C22.6333 21.75 22.5666 21.8583 22.5833 21.9083C22.7499 22.5667 22.9333 23.225 23.1166 23.9083C23.8416 23.7167 24.5249 23.5333 25.1416 23.3667C25.2249 22.7 25.2999 22.0917 25.3749 21.425C24.9916 21.2 24.5333 20.9333 24.0499 20.6583ZM27.7249 14.625C27.0499 15.8 26.3832 16.95 25.7083 18.1333C26.0916 18.35 26.4416 18.5583 26.8249 18.7833C27.4999 17.6083 28.1666 16.45 28.8499 15.275C28.4583 15.0417 28.0999 14.8417 27.7249 14.625ZM30.1416 14.8833C30.4666 14.8417 30.6416 14.6667 30.7249 14.4C30.8083 14.1333 30.7333 13.9083 30.4749 13.7667C29.7249 13.3333 28.9666 12.8917 28.2166 12.4583C27.8999 12.275 27.6083 12.3667 27.4249 12.6833C27.2416 13 27.3083 13.2917 27.6249 13.475C28.3749 13.9167 29.1333 14.35 29.8833 14.7833C29.9749 14.8333 30.0749 14.8583 30.1416 14.8833ZM20.2999 25.2667C20.6749 25.4 21.0083 25.5 21.3333 25.6333C21.4999 25.7 21.5749 25.6583 21.6499 25.5167C21.8249 25.2 22.0166 24.8833 22.1916 24.5667C22.2332 24.5 22.2749 24.4083 22.2583 24.3417C22.1249 23.8 21.9666 23.2583 21.8083 22.6417C21.2833 23.5583 20.7999 24.4 20.2999 25.2667ZM23.5416 26.7C23.9749 25.9417 24.3999 25.2083 24.8582 24.4083C24.2499 24.575 23.7249 24.7167 23.1999 24.8583C23.1499 24.875 23.0916 24.9 23.0749 24.9333C22.8499 25.3083 22.6332 25.6917 22.4082 26.0833C22.7916 26.3 23.1499 26.4917 23.5416 26.7Z" fill="#26A387"/>
<path d="M9.46669 26.9833C9.07502 26.5917 8.70835 26.2167 8.31669 25.825C7.31669 26.325 6.36669 26.2583 5.56669 25.4C4.92502 24.7167 4.85835 23.8083 5.30835 22.8833C4.61668 22.1917 3.94168 21.5167 3.21668 20.7917C3.21668 21.4583 3.21668 22.1083 3.21668 22.7583C3.21668 22.8583 3.24169 22.9667 3.22502 23.0667C3.18335 23.3083 3.03335 23.4667 2.78335 23.475C2.54169 23.4833 2.35002 23.35 2.31668 23.1083C2.18335 22.1333 2.20835 21.1583 2.43335 20.1917C2.51669 19.825 2.82502 19.6167 3.22502 19.6083C3.73335 19.6 4.24168 19.6083 4.75002 19.6083C6.76669 19.6083 8.78335 19.6083 10.8 19.6083C11.65 19.6083 11.875 19.7833 11.9834 20.625C12.4584 24.5 11.05 27.5167 7.83335 29.7083C7.38335 30.0167 6.98335 30.0167 6.51668 29.7167C4.86668 28.6583 3.65835 27.2333 2.90002 25.4167C2.81668 25.2083 2.76669 24.9917 2.95002 24.8417C3.06669 24.7417 3.30002 24.6583 3.41668 24.7083C3.58335 24.7833 3.72502 24.975 3.80002 25.15C4.47502 26.7 5.51668 27.9417 6.93335 28.8583C7.10002 28.9667 7.22502 28.9917 7.40002 28.8667C8.18335 28.3583 8.87502 27.7416 9.46669 26.9833ZM6.05002 22.1167C7.08335 21.65 7.97502 21.7583 8.66669 22.4333C9.37502 23.125 9.48335 23.975 9.03335 25.0666C9.38335 25.425 9.71669 25.7583 10.0417 26.0833C10.9584 24.7917 11.425 22.1417 11 20.5667C8.83335 20.5667 6.65835 20.5667 4.50002 20.5667C5.01669 21.0833 5.52502 21.5833 6.05002 22.1167ZM7.16669 25.1916C7.84168 25.1916 8.37502 24.6667 8.38335 23.9917C8.39169 23.3083 7.85002 22.75 7.17502 22.75C6.50002 22.75 5.94168 23.3167 5.95002 23.9833C5.95835 24.6583 6.50002 25.1916 7.16669 25.1916Z" fill="#26A387"/>
</g>
<defs>
<clipPath id="clip0_238_106295">
<rect width="32" height="32" fill="white"/>
</clipPath>
</defs>
</svg>
