<svg width="32" height="32" viewBox="0 0 32 32" fill="none" xmlns="http://www.w3.org/2000/svg">
<g clip-path="url(#clip0_238_106282)">
<path d="M32.0001 24.7C32.0001 26.9833 32.0001 29.275 32.0001 31.5583C31.8418 31.825 31.6251 31.9333 31.3085 31.9333C21.1168 31.925 10.9335 31.925 0.741795 31.925C0.250129 31.925 0.0584621 31.7417 0.0584621 31.25C0.0584621 29.0917 0.0584621 26.925 0.0584621 24.7667C0.0584621 24.2917 0.241795 24.1083 0.725129 24.1083C1.7418 24.1083 2.7668 24.1083 3.78346 24.1083C4.2668 24.1083 4.44179 24.2833 4.44179 24.7667C4.44179 25.9167 4.44179 27.075 4.44179 28.225C4.44179 28.325 4.45013 28.425 4.45846 28.5167C4.4918 28.5417 4.53346 28.575 4.56679 28.6C4.62513 28.5 4.6668 28.3833 4.7418 28.3083C5.46679 27.575 6.20013 26.85 6.92513 26.125C7.11679 25.9333 7.32513 25.8583 7.57513 25.9667C7.81679 26.0667 7.89179 26.275 7.89179 26.525C7.89179 27.15 7.89179 27.775 7.89179 28.4C7.89179 28.675 7.89179 28.9583 7.89179 29.25C8.74179 29.25 9.55846 29.25 10.4085 29.25C10.4085 29.1167 10.4085 29.0083 10.4085 28.8917C10.4085 27.8083 10.4085 26.7333 10.4085 25.65C10.4085 25.1167 10.6751 24.9 11.1835 25.0333C12.2085 25.2833 13.2335 25.55 14.2668 25.8083C14.6585 25.9083 14.7835 26.0667 14.7835 26.4667C14.7835 26.8 14.7835 27.1417 14.7835 27.5667C15.6501 26.7167 16.6501 26.65 17.6918 26.7C18.0168 26.7167 18.2085 26.9083 18.2251 27.2333C18.2335 27.3583 18.2251 27.4833 18.2251 27.6083C18.2251 28.1583 18.2251 28.7 18.2251 29.25C18.5085 29.25 18.7501 29.25 19.0168 29.25C19.0168 28.8667 19.0085 28.5 19.0168 28.1417C19.0251 27.7583 19.2085 27.575 19.6001 27.5667C20.0751 27.5583 20.5585 27.5583 21.0335 27.5667C21.4751 27.5667 21.6585 27.75 21.6585 28.1917C21.6668 28.5417 21.6585 28.8917 21.6585 29.25C22.2251 29.25 22.7585 29.25 23.3168 29.25C23.3168 28.4917 23.3168 27.75 23.3085 27.0167C23.3085 26.95 23.2251 26.8583 23.1585 26.825C22.7418 26.65 22.4668 26.35 22.2501 25.9667C21.5501 24.7417 20.8251 23.525 20.1418 22.2917C19.8835 21.8167 19.6335 21.45 19.0001 21.5667C18.7168 21.6167 18.5251 21.375 18.5251 21.1083C18.5251 20.8417 18.7085 20.6583 19.0001 20.6417C19.1835 20.6333 19.3668 20.6417 19.5001 20.6417C19.6751 20.3417 19.8251 20.0917 19.9918 19.8083C19.7751 19.75 19.5668 19.6583 19.3501 19.6583C18.4918 19.6417 17.6251 19.6167 16.7668 19.6583C16.1168 19.6917 15.6251 20.05 15.2335 20.6417C15.7918 20.6417 16.2751 20.6333 16.7668 20.6417C17.0585 20.65 17.2585 20.8333 17.2668 21.0917C17.2751 21.3583 17.0668 21.5583 16.7668 21.575C16.6835 21.5833 16.6001 21.575 16.5168 21.575C14.7918 21.575 13.0668 21.5667 11.3418 21.575C10.4501 21.5833 9.58346 21.4833 8.72513 21.25C8.61679 21.225 8.46679 21.2583 8.36679 21.3083C8.08346 21.4667 7.81679 21.4 7.65013 21.1167C7.60013 21.025 7.50013 20.9167 7.40013 20.8917C6.05013 20.5167 4.69179 20.1583 3.3418 19.8C3.0668 19.725 3.00013 19.7917 3.0668 20.075C3.1418 20.4 3.25013 20.7167 3.3168 21.0417C3.42513 21.55 3.1918 21.975 2.72513 22.1833C2.0668 22.475 1.32513 22.25 0.925129 21.625C0.716795 21.2917 0.525129 20.9417 0.325129 20.6C0.0667954 20.1583 0.000128724 19.6833 0.133462 19.1917C0.325129 18.4917 0.508462 17.7833 0.700129 17.0833C0.883462 16.4333 1.4168 16.1333 2.07513 16.3C2.40013 16.3833 2.7168 16.4667 3.03346 16.5583C3.85846 16.8 4.69179 16.925 5.55013 16.8833C6.15013 16.85 6.75013 16.9083 7.35013 16.9583C7.76679 16.9917 8.14179 16.8917 8.42513 16.6167C10.4251 14.6333 12.4168 12.6417 14.4085 10.65C14.8001 10.2583 15.3251 9.925 15.5168 9.45C15.7085 8.96667 15.5585 8.34167 15.5751 7.78333C15.5835 7.58333 15.5168 7.5 15.3335 7.41667C14.6251 7.1 14.2418 6.41667 14.3501 5.64167C14.3835 5.375 14.5001 5.11667 14.5835 4.84167C14.5501 4.83333 14.5168 4.80833 14.4751 4.80833C12.7168 4.51667 10.9501 4.225 9.19179 3.925C6.32513 3.45833 3.4668 2.98333 0.616795 2.5C0.216795 2.43333 0.0667954 2.25833 0.0667954 1.84167C0.0584621 1.48333 0.0834621 1.11667 0.0584621 0.75C0.0334621 0.416667 0.150129 0.166667 0.441795 0C0.566795 0 0.691795 0 0.816795 0C1.50013 0.125 2.17513 0.258333 2.85846 0.375C4.46679 0.65 6.07513 0.908333 7.68346 1.18333C8.00846 1.24167 8.17513 1.46667 8.11679 1.75C8.05846 2.00833 7.82513 2.15 7.51679 2.1C6.48346 1.925 5.45846 1.75 4.43346 1.58333C3.30013 1.39167 2.1668 1.20833 1.00846 1.01667C1.00013 1.13333 1.00013 1.225 0.991795 1.31667C0.991795 1.41667 0.991795 1.51667 0.991795 1.625C5.57513 2.39167 10.1251 3.14167 14.6751 3.9C14.7085 3.40833 14.6251 3.29167 14.2168 3.21667C13.2751 3.05 12.3335 2.9 11.3918 2.74167C10.8501 2.65 10.3085 2.56667 9.76679 2.46667C9.45013 2.40833 9.28346 2.2 9.32513 1.93333C9.36679 1.65833 9.56679 1.51667 9.90013 1.54167C9.99179 1.55 10.0835 1.56667 10.1751 1.58333C10.8085 1.68333 11.4418 1.79167 12.0835 1.9C12.1001 1.825 12.1168 1.775 12.1335 1.73333C12.3501 0.725 13.0418 0.216667 14.0585 0.375C15.5585 0.608333 17.0501 0.866667 18.5418 1.11667C19.3835 1.25833 19.9251 1.875 19.9501 2.725C19.9585 2.88333 19.9501 3.05 19.9501 3.21667C20.9751 3.39167 21.9585 3.55 22.9418 3.71667C25.7251 4.18333 28.5085 4.65 31.3001 5.10833C31.5918 5.15833 31.8418 5.23333 32.0085 5.49167C32.0085 6.09167 32.0085 6.7 32.0085 7.3C31.8251 7.55833 31.5918 7.675 31.2668 7.61667C29.5751 7.325 27.8835 7.05 26.2001 6.76667C25.8585 6.70833 25.6918 6.48333 25.7418 6.21667C25.7918 5.94167 26.0168 5.8 26.3585 5.85C27.3335 6.00833 28.3085 6.16667 29.2751 6.33333C29.8668 6.43333 30.4585 6.525 31.0585 6.625C31.0585 6.40833 31.0585 6.225 31.0585 6.025C30.9835 6.00833 30.9251 5.99167 30.8668 5.98333C29.4335 5.74167 28.0001 5.50833 26.5668 5.26667C23.6751 4.78333 20.7918 4.3 17.9001 3.81667C17.5501 3.75833 17.3751 3.93333 17.3918 4.33333C17.4335 4.34167 17.4835 4.35833 17.5335 4.36667C19.6501 4.725 21.7751 5.075 23.8918 5.425C24.3335 5.5 24.5251 5.68333 24.4751 6C24.4335 6.30833 24.2001 6.425 23.7418 6.35833C22.4335 6.14167 21.1168 5.91667 19.8085 5.7C19.1168 5.58333 18.4251 5.475 17.7168 5.35833C17.7168 5.41667 17.7085 5.45 17.7085 5.475C17.8418 6.40833 17.5001 7.075 16.6418 7.475C16.5668 7.50833 16.5085 7.65 16.5085 7.74167C16.4918 8.25833 16.4918 8.78333 16.5085 9.3C16.5168 9.425 16.5835 9.58333 16.6751 9.675C18.5085 11.6583 20.3501 13.6333 22.2001 15.6083C22.3085 15.7167 22.5001 15.8 22.6501 15.8C23.3668 15.8167 24.0835 15.825 24.8001 15.8083C25.3835 15.7917 25.8751 15.9167 26.1668 16.4583C26.4751 16.425 26.5668 16.2667 26.5418 15.9833C26.5085 15.625 26.5001 15.2583 26.5168 14.8917C26.5918 13.5083 27.7585 12.4083 29.1668 12.375C30.5335 12.3417 31.7668 13.3917 31.8668 14.7583C31.9418 15.7417 31.9251 16.7333 31.8918 17.7167C31.8668 18.5167 31.2918 19.1583 30.5418 19.2417C30.1001 19.2917 29.6418 19.175 29.1835 19.1333C29.0668 19.125 28.9335 19.0917 28.8251 19.125C28.0585 19.3167 27.3001 19.525 26.5335 19.725C26.3751 19.7667 26.3001 19.825 26.2835 20.0083C26.1835 21.0167 25.5585 21.575 24.5418 21.575C23.9751 21.575 23.4085 21.575 22.8001 21.575C23.0168 22.0417 23.2251 22.4583 23.4085 22.8833C23.4918 23.075 23.5918 23.175 23.8168 23.1917C24.2418 23.2333 24.5751 23.4667 24.8085 23.825C24.9418 24.025 25.0418 24.2417 25.1751 24.4417C25.6251 25.1167 25.6835 25.7667 25.0501 26.4C25.1585 26.4583 25.2418 26.5083 25.3335 26.5583C25.9668 26.875 26.5918 27.2 27.2335 27.5C27.5751 27.6583 27.7168 27.8917 27.6918 28.2583C27.6751 28.5833 27.6835 28.9167 27.6835 29.25C27.9835 29.25 28.2501 29.25 28.5501 29.25C28.5501 28.9583 28.5335 28.675 28.5585 28.4C28.6001 27.9583 28.6251 27.5083 28.7335 27.0833C29.0418 25.9 29.8501 25.1 30.8585 24.4583C31.3751 24.1417 31.6835 24.1917 32.0001 24.7ZM31.0418 30.9917C31.0418 29.15 31.0418 27.3417 31.0418 25.4833C30.2335 26.025 29.7085 26.7167 29.5751 27.6333C29.4835 28.275 29.5168 28.9417 29.5001 29.5917C29.4835 30.0083 29.3001 30.2083 28.8835 30.2083C28.3751 30.2167 27.8668 30.2167 27.3585 30.2083C26.9585 30.2 26.7668 30.0083 26.7585 29.6083C26.7501 29.275 26.7418 28.9417 26.7668 28.6083C26.7835 28.375 26.6918 28.2583 26.4835 28.1667C26.0918 27.9917 25.7168 27.7917 25.3418 27.6C24.9918 27.425 24.6418 27.2583 24.2835 27.0833C24.2668 27.1417 24.2585 27.1583 24.2585 27.1833C24.2585 27.9667 24.2585 28.7417 24.2501 29.525C24.2501 30.0417 24.0751 30.2167 23.5501 30.2167C22.8418 30.2167 22.1335 30.2167 21.4335 30.2167C20.8918 30.2167 20.7251 30.05 20.7251 29.5083C20.7251 29.1833 20.7251 28.85 20.7251 28.525C20.4418 28.525 20.2085 28.525 19.9501 28.525C19.9501 28.9083 19.9585 29.2667 19.9501 29.6333C19.9418 30.0167 19.7418 30.2083 19.3668 30.2167C18.8668 30.225 18.3668 30.225 17.8668 30.2167C17.4918 30.2083 17.2918 30.0167 17.2835 29.6333C17.2751 29.3083 17.2835 28.9917 17.2835 28.6667C17.2835 28.325 17.2835 27.9917 17.2835 27.6583C15.8001 27.575 14.9251 28.3167 14.7835 29.7417C14.7501 30.0417 14.5751 30.2167 14.3085 30.2167C14.0335 30.2167 13.8501 30.025 13.8501 29.7C13.8418 29.15 13.8501 28.6 13.8501 28.05C13.8501 27.5917 13.8501 27.1417 13.8501 26.675C13.0085 26.4667 12.1918 26.2667 11.3418 26.05C11.3418 26.2083 11.3418 26.325 11.3418 26.4333C11.3418 27.4833 11.3418 28.5333 11.3418 29.5833C11.3418 30.0667 11.1918 30.2167 10.7085 30.2167C9.67513 30.2167 8.65013 30.2167 7.61679 30.2167C7.13346 30.2167 6.95846 30.0417 6.95846 29.5583C6.95013 28.9667 6.95846 28.375 6.95846 27.7833C6.95846 27.7 6.94179 27.6167 6.92513 27.475C6.10013 28.3083 5.3168 29.0833 4.5418 29.8667C4.35013 30.0583 4.15013 30.2167 3.85846 30.1C3.55846 29.975 3.50846 29.725 3.50846 29.4333C3.50846 28.0917 3.50846 26.75 3.50846 25.4083C3.50846 25.3 3.50846 25.1917 3.50846 25.0833C2.65013 25.0833 1.8418 25.0833 1.02513 25.0833C1.02513 27.0667 1.02513 29.0333 1.02513 31.0083C11.0335 30.9917 21.0251 30.9917 31.0418 30.9917ZM8.97513 17.4917C9.33346 17.7417 9.69179 18.025 10.0751 18.2667C10.2001 18.3417 10.3918 18.3833 10.5251 18.35C11.4918 18.1083 12.4501 17.8417 13.4168 17.5833C14.1251 17.3917 14.8335 17.2 15.5418 17.0083C15.5418 14.95 15.5418 12.925 15.5418 10.9167C13.3501 13.1167 11.1585 15.3083 8.97513 17.4917ZM21.1001 15.8167C19.5418 14.1417 18.0585 12.55 16.5251 10.9C16.5251 12.8917 16.5251 14.8 16.5251 16.75C17.0001 16.625 17.4501 16.5083 17.9001 16.3833C17.9418 16.375 18.0085 16.325 18.0168 16.2917C18.1168 15.8083 18.4835 15.8083 18.8668 15.8083C19.5668 15.8167 20.2835 15.8167 21.1001 15.8167ZM27.8168 18.4083C27.6668 18.25 27.5335 18.125 27.4251 17.975C27.2668 17.7667 27.2751 17.55 27.4585 17.3583C27.6335 17.1667 27.8918 17.1667 28.1001 17.35C28.1751 17.4083 28.2335 17.4833 28.3001 17.55C28.8418 18.0667 29.4835 18.3417 30.2418 18.3417C30.6251 18.3417 30.9418 18.1167 30.9585 17.7417C30.9918 17.0333 30.9668 16.3167 30.9668 15.5667C30.4418 15.5667 29.9418 15.5667 29.4335 15.575C29.3751 15.575 29.2918 15.625 29.2585 15.6833C28.9001 16.2833 28.3501 16.4583 27.6918 16.425C27.6001 16.4167 27.4585 16.5083 27.4168 16.5833C27.2335 16.9833 26.9418 17.225 26.5251 17.3417C26.4418 17.3667 26.3251 17.4583 26.3251 17.5167C26.3085 17.9333 26.3168 18.3583 26.3168 18.8167C26.7751 18.6917 27.1918 18.5833 27.6001 18.475C27.6501 18.4667 27.7168 18.4417 27.8168 18.4083ZM16.4001 4.16667C16.4168 4.11667 16.4251 4.08333 16.4335 4.05833C16.6335 3.16667 17.2168 2.775 18.1168 2.91667C18.4001 2.96667 18.6835 3.00833 18.9751 3.05C19.0918 2.44167 18.8918 2.13333 18.3168 2.025C18.0751 1.975 17.8251 1.94167 17.5835 1.9C16.3418 1.69167 15.1085 1.48333 13.8668 1.28333C13.4668 1.21667 13.1585 1.44167 13.0751 1.80833C13.0335 1.99167 13.0751 2.075 13.2668 2.10833C13.6585 2.16667 14.0418 2.23333 14.4335 2.3C15.1918 2.425 15.6251 2.925 15.6418 3.68333C15.6418 3.84167 15.6418 4 15.6418 4.15833C15.9251 4.16667 16.1585 4.16667 16.4001 4.16667ZM3.72513 17.6917C3.6668 17.9417 3.60846 18.1333 3.58346 18.325C3.53346 18.7417 3.6668 18.9333 4.06679 19.0417C4.56679 19.175 5.06679 19.3167 5.56679 19.45C6.23346 19.625 6.90846 19.8083 7.59179 19.9833C7.59179 19.3 7.59179 18.65 7.59179 18C6.33346 17.525 5.0168 18.0583 3.72513 17.6917ZM20.7751 19.0833C21.3251 18.5583 21.9335 17.975 22.5418 17.4C22.2668 16.9167 21.8418 16.6583 21.2168 16.75C20.8668 16.8 20.5085 16.7583 20.1585 16.7583C19.7668 16.7583 19.3751 16.7583 18.9751 16.7583C18.9751 17.425 18.9751 18.05 18.9751 18.6083C19.5751 18.7667 20.1335 18.9083 20.7751 19.0833ZM12.3668 20.6417C12.8668 20.6417 13.3501 20.6333 13.8168 20.65C14.0085 20.6583 14.1168 20.5917 14.2168 20.4333C14.5501 19.9333 14.9085 19.4417 15.4418 19.125C15.4918 19.0917 15.5501 19.0167 15.5501 18.9583C15.5585 18.65 15.5585 18.3417 15.5585 17.9833C14.4585 18.275 13.4085 18.5583 12.3585 18.8417C12.3668 19.4583 12.3668 20.025 12.3668 20.6417ZM21.7668 21.65C21.6668 21.1083 21.7251 20.8417 22.0585 20.6833C22.7168 20.3833 23.1251 19.8083 23.6001 19.3C23.8501 19.0333 23.8085 18.6917 23.5668 18.4667C23.3251 18.2417 22.9751 18.2333 22.7251 18.4833C22.0168 19.1833 21.3085 19.8833 20.6168 20.6C20.5251 20.7 20.4668 20.925 20.5168 21.0417C20.6668 21.3833 20.8751 21.7083 21.0751 22.05C21.3251 21.9 21.5501 21.775 21.7668 21.65ZM2.7418 17.4583C2.50013 17.3917 2.20846 17.3167 1.92513 17.2333C1.7168 17.1667 1.62513 17.2333 1.5668 17.4417C1.40013 18.1167 1.20013 18.7833 1.0418 19.4583C1.00013 19.6417 1.0168 19.8833 1.10013 20.0583C1.27513 20.4333 1.4918 20.7917 1.70846 21.1417C1.87513 21.4 2.08346 21.4417 2.40013 21.2833C2.3168 20.9583 2.23346 20.6333 2.1418 20.3083C1.9918 19.7917 2.15846 19.375 2.5418 19.025C2.60013 18.9667 2.6668 18.8833 2.67513 18.8083C2.70846 18.375 2.7168 17.9417 2.7418 17.4583ZM23.6668 20.6083C23.7418 20.625 23.7668 20.6417 23.8001 20.6417C24.0918 20.6417 24.3835 20.65 24.6751 20.6417C25.0751 20.625 25.3501 20.3917 25.3585 19.9833C25.3751 19.0083 25.3668 18.0333 25.3668 17.0583C25.3668 16.8333 25.2418 16.75 25.0251 16.75C24.5668 16.75 24.1085 16.75 23.6585 16.75C23.5501 16.75 23.4501 16.7583 23.2751 16.7667C23.6168 17.1417 23.9168 17.4583 24.2085 17.775C24.8751 18.5 24.8668 19.325 24.1918 20.05C24.0251 20.2333 23.8585 20.4167 23.6668 20.6083ZM30.9001 14.6333C30.6585 13.675 29.6918 13.125 28.7668 13.3667C27.8501 13.6 27.2501 14.6 27.5001 15.4917C27.8085 15.45 28.1835 15.625 28.4001 15.2583C28.6835 14.7833 29.1001 14.6167 29.6251 14.6333C30.0418 14.6417 30.4501 14.6333 30.9001 14.6333ZM11.4085 19.1167C11.3418 19.125 11.3085 19.1333 11.2835 19.1333C11.1918 19.1583 11.1001 19.175 11.0168 19.2083C10.3668 19.45 9.80846 19.3417 9.30013 18.8583C9.10013 18.6667 8.83346 18.5417 8.55013 18.35C8.55013 18.7 8.54179 18.9667 8.55013 19.2333C8.55846 19.5667 8.45013 20 8.61679 20.1917C8.80013 20.4083 9.23346 20.4333 9.56679 20.4833C10.1751 20.575 10.7918 20.6167 11.4168 20.6833C11.4085 20.1083 11.4085 19.625 11.4085 19.1167ZM21.5418 22.8667C22.0918 23.825 22.6251 24.75 23.1668 25.6667C23.3501 25.975 23.6918 26.05 24.0168 25.9083C24.1501 25.85 24.2751 25.775 24.4001 25.7C24.6085 25.575 24.6418 25.4 24.5335 25.1917C24.3918 24.9333 24.2668 24.6667 24.0918 24.4417C23.9751 24.2917 23.7835 24.1417 23.6085 24.1167C23.1251 24.05 22.8085 23.8083 22.6251 23.3667C22.5001 23.075 22.3501 22.7917 22.2085 22.4833C21.9751 22.6167 21.7751 22.7333 21.5418 22.8667ZM16.0418 5.09167C15.6085 5.09167 15.2751 5.41667 15.2668 5.85C15.2585 6.28333 15.5835 6.625 16.0168 6.63333C16.4585 6.64167 16.8085 6.3 16.8085 5.85833C16.8001 5.43333 16.4668 5.1 16.0418 5.09167ZM16.5168 18.6833C17.0251 18.6833 17.5001 18.6833 17.9918 18.6833C17.9918 18.225 17.9918 17.7917 17.9918 17.3417C17.7418 17.4083 17.5251 17.4667 17.3085 17.525C16.4251 17.7583 16.4251 17.7583 16.5168 18.6833Z" fill="#26A387"/>
</g>
<defs>
<clipPath id="clip0_238_106282">
<rect width="32" height="32" fill="white"/>
</clipPath>
</defs>
</svg>
