<svg width="32" height="32" viewBox="0 0 32 32" fill="none" xmlns="http://www.w3.org/2000/svg">
<g clip-path="url(#clip0_300_3541)">
<path d="M32 18.4667C31.9667 18.5667 31.9417 18.6584 31.9083 18.7584C31.5583 19.9584 30.75 20.6334 29.5 20.8667C29.5 20.9834 29.5 21.1084 29.5 21.225C29.5 24.5084 29.5 27.7917 29.5 31.075C29.5 31.7334 29.3083 31.9334 28.65 31.9334C26.95 31.9334 25.2583 31.9334 23.5583 31.9334C22.9667 31.9334 22.75 31.725 22.75 31.125C22.75 27.8334 22.75 24.5334 22.75 21.2417C22.75 21.1167 22.75 21 22.75 20.8584C21.8417 20.7084 21.1333 20.2834 20.6583 19.5084C20.375 19.05 20.25 18.5334 20.25 17.9917C20.25 16.6 20.25 15.2084 20.25 13.8167C20.2583 11.8 21.5417 10.2584 23.5167 9.87504C23.5833 9.85838 23.6583 9.85004 23.7333 9.83337C22.7417 8.02504 23.4083 6.21671 24.3917 5.50004C25.4583 4.72504 26.8917 4.75004 27.9333 5.55004C28.9917 6.37504 29.4333 8.25838 28.525 9.83337C29.175 9.92504 29.775 10.1334 30.3167 10.5C30.425 10.575 30.5417 10.6584 30.6333 10.75C30.8667 10.9834 30.8833 11.3167 30.675 11.575C30.4917 11.8084 30.125 11.9084 29.8917 11.7167C29.1167 11.075 28.2 11.0417 27.2667 11.0584C26.275 11.0834 25.2917 11.0584 24.3 11.0667C22.6333 11.075 21.5167 12.1917 21.5167 13.8417C21.5167 15.2334 21.5167 16.625 21.5167 18.0167C21.5167 18.7917 21.9833 19.375 22.75 19.5584C22.7583 19.45 22.7667 19.3417 22.7667 19.2334C22.7667 17.525 22.7667 15.825 22.7667 14.1167C22.7667 14.0334 22.7667 13.95 22.7667 13.8667C22.775 13.4584 23.0167 13.2 23.3917 13.2C23.7583 13.2 24.0167 13.4584 24.0167 13.8667C24.025 14.9917 24.0167 16.1084 24.0167 17.2334C24.0167 17.65 24.0167 18.0584 24.0167 18.4917C25.4417 18.4917 26.8333 18.4917 28.2667 18.4917C28.2667 18.3667 28.2667 18.2584 28.2667 18.15C28.2667 16.7334 28.2667 15.325 28.2667 13.9084C28.2667 13.4667 28.5 13.2 28.875 13.2C29.2667 13.1917 29.5083 13.4584 29.5083 13.9167C29.5083 15.3917 29.5083 16.8667 29.5083 18.3417C29.5083 18.7334 29.5083 19.1334 29.5083 19.525C30.1417 19.5 30.725 18.8417 30.75 18.1167C30.7667 17.65 30.7583 17.1834 30.7583 16.7167C30.7583 16.25 30.8833 16.0167 31.2 15.9084C31.5083 15.8084 31.7583 15.9334 32.0083 16.3167C32 17.05 32 17.7584 32 18.4667ZM25.475 30.675C25.475 27.0334 25.475 23.4084 25.475 19.7917C24.975 19.7917 24.5 19.7917 24.0167 19.7917C24.0167 23.425 24.0167 27.0417 24.0167 30.675C24.5083 30.675 24.9833 30.675 25.475 30.675ZM26.7667 30.6667C27.2667 30.6667 27.75 30.6667 28.225 30.6667C28.225 27.025 28.225 23.4084 28.225 19.7917C27.725 19.7917 27.25 19.7917 26.7667 19.7917C26.7667 23.425 26.7667 27.0334 26.7667 30.6667ZM24.5 8.01671C24.4667 8.58337 24.6417 9.08337 25.1 9.46671C25.6167 9.88337 26.3417 9.95004 26.9083 9.61671C27.7 9.16671 27.8083 8.42504 27.7333 7.61671C27.6667 6.95838 27.1833 6.40838 26.55 6.24171C26.4333 6.20838 26.3083 6.19171 26.1833 6.18337C25.3333 6.14171 24.425 6.83337 24.5 8.01671Z" fill="#26A387"/>
<path d="M0 23.7C0.0833333 23.4333 0.141667 23.1667 0.241667 22.9083C0.816667 21.3583 2.36667 20.4167 4.04167 20.5833C5.63333 20.75 6.95 22.0083 7.19167 23.6167C7.225 23.8083 7.24167 24.0083 7.24167 24.2083C7.25 25.5667 7.25 26.9333 7.24167 28.2917C7.23333 30.2083 5.80833 31.7583 3.90833 31.925C2.05833 32.0917 0.383333 30.775 0.05 28.9C0.0416667 28.85 0.0166667 28.8083 0 28.7583C0 27.075 0 25.3917 0 23.7ZM1.725 29.7083C2.20833 30.4333 3.14167 30.825 4.06667 30.6417C5.00833 30.4583 5.78333 29.75 5.93333 28.825C6.01667 28.3 5.99167 27.75 6 27.2167C6.00833 26.6167 6 26.025 6 25.4417C4.575 26.8583 3.15833 28.275 1.725 29.7083ZM3.64167 21.825C2.7 21.8167 1.94167 22.5583 1.93333 23.4833C1.925 24.4333 2.66667 25.2 3.60833 25.2083C4.55833 25.2167 5.31667 24.4667 5.31667 23.5167C5.31667 22.5833 4.575 21.8333 3.64167 21.825ZM1.26667 28.2083C1.74167 27.7333 2.21667 27.2667 2.66667 26.8167C2.21667 26.3583 1.74167 25.8917 1.26667 25.4167C1.26667 26.3417 1.26667 27.275 1.26667 28.2083Z" fill="#26A387"/>
<path d="M0 6.8C0.191667 6.5 0.491667 6.40833 0.833333 6.34167C4.46667 5.64167 8.1 4.93333 11.725 4.225C15.65 3.45833 19.575 2.69167 23.5 1.93333C24.6083 1.71667 25.7167 1.5 26.7667 1.3C26.65 1.05833 26.4917 0.841667 26.45 0.6C26.4 0.316667 26.65 0.15 26.8667 0C26.9917 0 27.1167 0 27.2417 0C27.7917 0.316667 28.3333 0.633333 28.8833 0.95C29.35 1.225 29.4333 1.53333 29.1667 2.01667C28.8917 2.49167 28.6167 2.975 28.3417 3.45C28.125 3.81667 27.7667 3.93333 27.45 3.75C27.125 3.56667 27.0583 3.20833 27.2583 2.83333C27.3167 2.725 27.375 2.61667 27.475 2.45C26.875 2.55833 26.3333 2.65833 25.7917 2.76667C21.2083 3.65833 16.625 4.55 12.0417 5.44167C8.35 6.15833 4.65 6.875 0.958333 7.60833C0.541667 7.69167 0.225 7.60833 0 7.25C0 7.09167 0 6.94167 0 6.8Z" fill="#26A387"/>
<path d="M31.9998 13.9084C31.9665 13.95 31.9415 13.9917 31.9081 14.025C31.7248 14.2917 31.4581 14.4 31.1915 14.3C30.9081 14.2 30.7498 13.9917 30.7581 13.6917C30.7665 13.4 30.9248 13.2084 31.1998 13.1167C31.4665 13.025 31.7415 13.1417 31.9165 13.4C31.9415 13.4417 31.9748 13.4834 31.9998 13.525C31.9998 13.6584 31.9998 13.7834 31.9998 13.9084Z" fill="#26A387"/>
<path d="M16.4999 23.3167C16.4999 23.4417 16.4999 23.55 16.4999 23.6667C16.4999 26.15 16.4999 28.6334 16.4999 31.1167C16.4999 31.7334 16.2916 31.9334 15.6749 31.9334C14.1332 31.9334 12.5916 31.9334 11.0499 31.9334C10.4749 31.9334 10.2499 31.7167 10.2499 31.15C10.2499 28.6584 10.2499 26.1584 10.2499 23.6667C10.2499 23.55 10.2499 23.4417 10.2499 23.3167C10.0582 23.275 9.88324 23.25 9.71657 23.2C8.55824 22.8667 7.76657 21.8417 7.7499 20.6417C7.74157 19.4667 7.74157 18.2917 7.7499 17.1167C7.76657 15.2334 9.04157 13.7417 10.8999 13.4084C10.9332 13.4 10.9582 13.3917 11.0249 13.3667C10.5416 12.5417 10.4082 11.675 10.7582 10.775C10.9749 10.2167 11.3416 9.77503 11.8499 9.45003C12.8916 8.78337 14.2082 8.8667 15.1666 9.65003C16.2249 10.525 16.4082 11.7 15.7332 13.375C15.8749 13.4084 16.0082 13.4417 16.1416 13.475C17.7832 13.8834 18.9582 15.3334 18.9832 17.025C18.9999 18.2 18.9916 19.375 18.9832 20.55C18.9749 21.9834 18.0332 23.0667 16.6166 23.2834C16.6082 23.2834 16.5749 23.3 16.4999 23.3167ZM16.4999 22.0084C17.1749 21.975 17.7416 21.3667 17.7499 20.6334C17.7582 19.425 17.7666 18.225 17.7499 17.0167C17.7249 15.7167 16.6666 14.6417 15.3582 14.6084C14.0332 14.575 12.7166 14.575 11.3916 14.6084C10.1416 14.6417 9.08324 15.6334 9.0249 16.875C8.96657 18.1584 8.99157 19.45 9.01657 20.7417C9.03324 21.4167 9.65824 22.0167 10.2499 21.9917C10.2499 21.875 10.2499 21.7667 10.2499 21.65C10.2499 20.3 10.2499 18.95 10.2499 17.6C10.2499 16.9917 10.4416 16.7084 10.8666 16.7084C11.2999 16.7 11.4999 16.9834 11.4999 17.5834C11.4999 18.3917 11.4999 19.2084 11.4999 20.0167C11.4999 20.1167 11.5082 20.2167 11.5166 20.3084C12.7749 20.3084 14.0082 20.3084 15.2499 20.3084C15.2499 19.3334 15.2499 18.3917 15.2499 17.45C15.2499 16.9834 15.4749 16.7167 15.8666 16.7084C16.2666 16.7 16.4999 16.975 16.4999 17.4584C16.4999 18.2584 16.4999 19.0584 16.4999 19.8584C16.4999 20.575 16.4999 21.2917 16.4999 22.0084ZM11.5249 21.5917C11.5249 24.6334 11.5249 27.65 11.5249 30.6584C11.9499 30.6584 12.3416 30.6584 12.7332 30.6584C12.7332 27.625 12.7332 24.6167 12.7332 21.5917C12.3249 21.5917 11.9332 21.5917 11.5249 21.5917ZM14.0249 21.5917C14.0249 24.6334 14.0249 27.65 14.0249 30.6584C14.4499 30.6584 14.8416 30.6584 15.2332 30.6584C15.2332 27.625 15.2332 24.6167 15.2332 21.5917C14.8249 21.5917 14.4332 21.5917 14.0249 21.5917ZM13.3666 13.35C14.2332 13.35 14.9332 12.65 14.9332 11.7917C14.9249 10.95 14.2249 10.25 13.3832 10.2417C12.5249 10.2417 11.8166 10.95 11.8166 11.8084C11.8249 12.6584 12.5166 13.35 13.3666 13.35Z" fill="#26A387"/>
</g>
<defs>
<clipPath id="clip0_300_3541">
<rect width="32" height="32" fill="white"/>
</clipPath>
</defs>
</svg>
