<svg width="187" height="59" viewBox="0 0 187 59" fill="none" xmlns="http://www.w3.org/2000/svg">
<path d="M33.0022 39.7359C33.8068 45.5497 34.2335 51.4221 35.4929 57.1699C35.6678 57.9617 35.4229 58.6215 34.3735 58.5702C33.0791 58.5042 31.7708 58.4309 30.4905 58.5776C28.6784 58.7902 27.8598 58.2623 27.2861 56.2169C25.544 49.9852 23.4521 43.8561 21.4931 37.6905C20.9963 34.8899 19.8139 32.3019 19.1073 29.5673C18.8344 28.4896 18.0788 28.5556 17.2812 28.5556C12.7476 28.5702 8.22089 28.4969 3.68722 28.5922C1.82618 28.6289 0.496859 28.1523 0.0910675 26.0849C-0.335713 23.9221 0.47587 22.0086 2.39988 21.2535C7.00352 19.4353 11.6561 17.8298 16.7145 18.1377C27.8948 18.8122 39.0751 19.3327 50.2483 20.0732C52.4452 20.2198 54.2153 19.8679 55.5096 18.013C57.6015 15.0145 60.2602 14.494 63.4296 15.777C63.9683 15.9969 64.549 16.0702 65.3885 16.2902C63.9403 18.9075 62.3031 21.3268 61.1907 23.9954C59.6445 27.7051 57.2587 28.8488 53.4527 28.6582C46.7361 28.321 39.9916 28.6215 33.261 28.5262C31.6729 28.5042 31.414 29.0321 31.6589 30.4984C32.1626 33.5702 32.5474 36.6567 32.9742 39.7359H33.0022Z" fill="#00AC97"/>
<path d="M20.7024 16.8254C22.5354 13.7242 24.2146 10.8723 25.9147 8.03508C27.181 5.91631 28.5523 3.85619 29.7277 1.6861C30.3154 0.60106 30.9591 0.0658696 32.1625 0.190503C33.6947 0.351793 35.7866 -0.498647 36.6402 0.520415C37.5567 1.61279 36.1854 3.50429 35.8426 5.04388C35.031 8.65825 34.0445 12.2286 33.114 15.8063C32.8901 16.6641 32.6312 17.3459 31.4768 17.3753C27.9926 17.4632 24.5644 16.9134 20.7094 16.8327L20.7024 16.8254Z" fill="#353843"/>
<path d="M48.0723 33.1743C49.9683 33.1743 51.7454 33.6655 53.4176 34.6553C55.0827 35.645 56.384 36.9866 57.3216 38.6802C58.2591 40.3737 58.7208 42.1992 58.7208 44.1641C58.7208 46.1289 58.2521 47.9837 57.3076 49.7066C56.363 51.4221 55.0827 52.7711 53.4595 53.7388C51.8364 54.7066 50.0453 55.1904 48.0933 55.1904C45.2178 55.1904 42.755 54.1201 40.7191 51.9866C38.6831 49.8532 37.6686 47.2579 37.6686 44.2007C37.6686 40.9309 38.8161 38.2036 41.1179 36.0189C43.1328 34.1201 45.4556 33.1743 48.0723 33.1743ZM48.1563 38.123C46.5891 38.123 45.2877 38.6875 44.2453 39.8239C43.2028 40.9602 42.6851 42.4119 42.6851 44.1787C42.6851 45.9456 43.2028 47.4778 44.2313 48.6069C45.2597 49.7359 46.5611 50.3004 48.1423 50.3004C49.7234 50.3004 51.0318 49.7286 52.0812 48.5849C53.1307 47.4412 53.6554 45.9749 53.6554 44.1787C53.6554 42.3825 53.1377 40.9236 52.1092 39.8019C51.0808 38.6802 49.7654 38.1157 48.1632 38.1157L48.1563 38.123Z" fill="#353843"/>
<path d="M61.6593 33.7095H65.9761V36.3488C66.4449 35.3077 67.0676 34.5233 67.8372 33.9808C68.6138 33.4456 69.4603 33.1743 70.3839 33.1743C71.0345 33.1743 71.7202 33.3576 72.4338 33.7095L70.8666 38.233C70.2789 37.9251 69.7892 37.7711 69.4114 37.7711C68.6348 37.7711 67.9841 38.2696 67.4454 39.274C66.9136 40.2711 66.6408 42.2359 66.6408 45.1611L66.6618 46.1802V54.6479H61.6593V33.7095Z" fill="#353843"/>
<path d="M89.7429 33.7095H94.7803V54.6479H89.7429V52.4339C88.7564 53.4089 87.7769 54.1127 86.7835 54.538C85.797 54.9705 84.7195 55.1831 83.5651 55.1831C80.9694 55.1831 78.7306 54.1347 76.8346 52.038C74.9455 49.9412 73.994 47.3312 73.994 44.2154C73.994 41.0995 74.9105 38.3356 76.7436 36.2682C78.5767 34.2007 80.8015 33.167 83.4182 33.167C84.6216 33.167 85.755 33.4016 86.8114 33.8781C87.8679 34.3547 88.8474 35.0658 89.7429 36.0116V33.7022V33.7095ZM84.4466 38.0204C82.8865 38.0204 81.5991 38.5922 80.5636 39.7432C79.5352 40.8943 79.0174 42.3605 79.0174 44.1567C79.0174 45.9529 79.5422 47.4558 80.5916 48.6215C81.6411 49.7872 82.9284 50.3737 84.4606 50.3737C85.9929 50.3737 87.3572 49.8019 88.3996 48.6509C89.4421 47.4998 89.9598 45.9969 89.9598 44.1421C89.9598 42.2872 89.4351 40.8429 88.3996 39.7139C87.3572 38.5849 86.0418 38.0204 84.4466 38.0204Z" fill="#353843"/>
<path d="M120.093 44.6992C120.093 41.2388 121.087 38.4456 123.067 36.3415C125.047 34.23 127.621 33.1743 130.777 33.1743C133.757 33.1743 136.227 34.23 138.207 36.3415C140.18 38.4529 141.167 41.1069 141.167 44.296C141.167 47.4119 140.173 50.0072 138.193 52.0819C136.213 54.1567 133.645 55.1904 130.497 55.1904C128.468 55.1904 126.712 54.8165 125.236 54.0614C123.759 53.3136 122.493 52.1553 121.437 50.5863L125.683 48.5116C127.034 49.8825 128.657 50.5717 130.539 50.5717C132.113 50.5717 133.407 50.1318 134.422 49.252C135.436 48.3723 136.059 47.1919 136.297 45.7036H120.114L120.093 44.7066V44.6992ZM136.073 41.5614C135.506 40.2638 134.891 39.362 134.226 38.8488C133.17 38.0277 131.931 37.6171 130.532 37.6171C129.238 37.6171 128.104 37.9837 127.125 38.7168C126.145 39.45 125.488 40.3957 125.159 41.5614H136.08H136.073Z" fill="#353843"/>
<mask id="mask0_237_5757" style="mask-type:alpha" maskUnits="userSpaceOnUse" x="97" y="33" width="23" height="23">
<path d="M97.5263 33.1655H103.027L108.464 46.4115L113.895 33.1655H119.369L110.21 55.6107H106.707L97.5263 33.1655Z" fill="#D9D9D9"/>
</mask>
<g mask="url(#mask0_237_5757)">
<path d="M119.889 34.4081V53.9796C119.889 54.8174 119.456 55.4981 118.923 55.4981H98.4119C97.8789 55.4981 97.4458 54.8174 97.4458 53.9796V34.4081C97.4458 33.5703 97.8789 32.8896 98.4119 32.8896H118.929C119.462 32.8896 119.895 33.5703 119.895 34.4081H119.889Z" fill="url(#paint0_linear_237_5757)"/>
<path d="M102.521 47.7428C102.704 47.7428 102.976 47.9115 103.021 47.9406H101.349L101.849 47.353V47.8243C102.06 47.7777 102.304 47.7428 102.521 47.737V47.7428Z" fill="url(#paint1_linear_237_5757)"/>
<path d="M103.032 32.8896H101.349V47.9348H103.032V32.8896Z" fill="url(#paint2_linear_237_5757)"/>
<path d="M115.986 32.8896H114.303V47.9348H115.986V32.8896Z" fill="url(#paint3_linear_237_5757)"/>
<g style="mix-blend-mode:multiply">
<path d="M103.032 32.8896H101.349V42.9547H103.032V32.8896Z" fill="url(#paint4_linear_237_5757)"/>
<path d="M115.986 32.8896H114.303V42.9547H115.986V32.8896Z" fill="url(#paint5_linear_237_5757)"/>
</g>
<path d="M103.032 32.8896V40.3191C103.032 40.8078 102.654 41.2035 102.188 41.2035C101.721 41.2035 101.344 40.8078 101.344 40.3191V32.8896H103.026H103.032Z" fill="url(#paint6_linear_237_5757)"/>
<path d="M115.991 32.8896V40.3191C115.991 40.8078 115.614 41.2035 115.147 41.2035C114.681 41.2035 114.303 40.8078 114.303 40.3191V32.8896H115.986H115.991Z" fill="url(#paint7_linear_237_5757)"/>
<path d="M102.465 39.4754C102.465 39.6383 102.338 39.7721 102.182 39.7721C102.027 39.7721 101.899 39.6383 101.899 39.4754C101.899 39.3125 102.027 39.1787 102.182 39.1787C102.338 39.1787 102.465 39.3125 102.465 39.4754Z" fill="url(#paint8_linear_237_5757)"/>
<path d="M102.465 35.6707C102.465 35.8336 102.338 35.9675 102.182 35.9675C102.027 35.9675 101.899 35.8336 101.899 35.6707C101.899 35.5078 102.027 35.374 102.182 35.374C102.338 35.374 102.465 35.5078 102.465 35.6707Z" fill="url(#paint9_linear_237_5757)"/>
<path d="M102.993 36.7236H101.36C101.194 36.7236 101.06 36.8633 101.06 37.0378V37.8523C101.06 38.0268 101.194 38.1665 101.36 38.1665H102.993C103.159 38.1665 103.293 38.0268 103.293 37.8523V37.0378C103.293 36.8633 103.159 36.7236 102.993 36.7236ZM102.993 37.8465H101.366V37.0436H102.993V37.8465Z" fill="url(#paint10_linear_237_5757)"/>
<path d="M102.177 37.2358C102.043 37.2358 101.932 37.3522 101.932 37.4918V38.3762C101.932 38.5158 102.043 38.6321 102.177 38.6321C102.31 38.6321 102.421 38.5158 102.421 38.3762V37.4918C102.421 37.3522 102.31 37.2358 102.177 37.2358Z" fill="url(#paint11_linear_237_5757)"/>
<path d="M102.465 35.6707C102.465 35.8336 102.338 35.9675 102.182 35.9675C102.027 35.9675 101.899 35.8336 101.899 35.6707C101.899 35.5078 102.027 35.374 102.182 35.374C102.338 35.374 102.465 35.5078 102.465 35.6707Z" fill="url(#paint12_linear_237_5757)"/>
<path d="M115.453 39.4754C115.453 39.6383 115.325 39.7721 115.17 39.7721C115.014 39.7721 114.886 39.6383 114.886 39.4754C114.886 39.3125 115.014 39.1787 115.17 39.1787C115.325 39.1787 115.453 39.3125 115.453 39.4754Z" fill="url(#paint13_linear_237_5757)"/>
<path d="M115.975 36.7236H114.342C114.176 36.7236 114.042 36.8633 114.042 37.0378V37.8523C114.042 38.0268 114.176 38.1665 114.342 38.1665H115.975C116.141 38.1665 116.274 38.0268 116.274 37.8523V37.0378C116.274 36.8633 116.141 36.7236 115.975 36.7236ZM115.975 37.8465H114.348V37.0436H115.975V37.8465Z" fill="url(#paint14_linear_237_5757)"/>
<path d="M115.231 37.2358H115.092C114.997 37.2358 114.92 37.3166 114.92 37.4162V38.4518C114.92 38.5514 114.997 38.6321 115.092 38.6321H115.231C115.326 38.6321 115.403 38.5514 115.403 38.4518V37.4162C115.403 37.3166 115.326 37.2358 115.231 37.2358Z" fill="url(#paint15_linear_237_5757)"/>
<path d="M115.453 35.6707C115.453 35.8336 115.325 35.9675 115.17 35.9675C115.014 35.9675 114.886 35.8336 114.886 35.6707C114.886 35.5078 115.014 35.374 115.17 35.374C115.325 35.374 115.453 35.5078 115.453 35.6707Z" fill="url(#paint16_linear_237_5757)"/>
</g>
<path d="M113.797 33.0872H112.348L111.12 29.5274C111.032 29.2755 110.81 29.1098 110.551 29.1098H105.774C105.521 29.1098 105.293 29.2755 105.205 29.5274L103.959 33.0872H102.491L104.091 28.48C104.262 27.9828 104.718 27.6514 105.224 27.6514H111.076C111.582 27.6514 112.038 27.9828 112.209 28.48L113.803 33.0938L113.797 33.0872Z" fill="url(#paint17_linear_237_5757)"/>
<path d="M101.662 32.1392H103.933V33.1004H101.105V32.7291C101.105 32.4043 101.358 32.1458 101.662 32.1458V32.1392Z" fill="url(#paint18_linear_237_5757)"/>
<path d="M115.188 33.1006H112.36V32.1394H114.632C114.942 32.1394 115.188 32.4045 115.188 32.7227V33.094V33.1006Z" fill="url(#paint19_linear_237_5757)"/>
<path d="M110.222 27.1875H106.293C105.923 27.1875 105.622 27.5021 105.622 27.8902V28.7785C105.622 29.1665 105.923 29.4811 106.293 29.4811H110.222C110.592 29.4811 110.893 29.1665 110.893 28.7785V27.8902C110.893 27.5021 110.592 27.1875 110.222 27.1875Z" fill="url(#paint20_linear_237_5757)"/>
<path d="M145.266 25.6304H150.304V42.3459L157.72 33.7169H164.045L155.397 43.7535L165.08 54.6553H158.825L150.304 45.0072V54.6553H145.266V25.6304Z" fill="#353843"/>
<path d="M181.963 33.7095H187V54.6479H181.963V52.4339C180.976 53.4089 179.997 54.1127 179.003 54.538C178.017 54.9705 176.939 55.1831 175.785 55.1831C173.189 55.1831 170.95 54.1347 169.054 52.038C167.165 49.9412 166.214 47.3312 166.214 44.2154C166.214 41.0995 167.13 38.3356 168.963 36.2682C170.796 34.2007 173.021 33.167 175.638 33.167C176.841 33.167 177.975 33.4016 179.031 33.8781C180.088 34.3547 181.067 35.0658 181.963 36.0116V33.7022V33.7095ZM176.666 38.0204C175.106 38.0204 173.819 38.5922 172.783 39.7432C171.755 40.8943 171.237 42.3605 171.237 44.1567C171.237 45.9529 171.762 47.4558 172.811 48.6215C173.861 49.7872 175.148 50.3737 176.68 50.3737C178.213 50.3737 179.577 49.8019 180.619 48.6509C181.662 47.4998 182.179 45.9969 182.179 44.1421C182.179 42.2872 181.662 40.8429 180.619 39.7139C179.577 38.5849 178.261 38.0204 176.666 38.0204Z" fill="#353843"/>
<path d="M180.955 28.9809C180.955 28.9809 180.836 28.3211 180.528 27.2434L181.2 27.0308C181.522 28.1451 181.641 28.8123 181.648 28.8416L180.962 28.9736L180.955 28.9809Z" fill="#353843"/>
<path d="M179.255 23.6509C178.765 22.4779 178.206 21.3268 177.59 20.2345L178.192 19.8606C178.821 20.9823 179.395 22.1553 179.899 23.3576L179.255 23.6509ZM175.547 17.0526C174.798 16.0336 173.987 15.0585 173.14 14.1714L173.637 13.6509C174.511 14.5673 175.337 15.5644 176.107 16.6054L175.554 17.0526H175.547Z" fill="#353843"/>
<path d="M90.2467 19.0177C89.4911 19.0177 88.7564 18.9883 88.0708 18.9224L88.1338 18.1892C89.2532 18.2919 90.4776 18.3139 91.7859 18.2405L91.8209 18.9737C91.2822 19.003 90.7574 19.0177 90.2467 19.0177ZM95.536 18.5998L95.445 17.874C96.5714 17.7127 97.7608 17.5074 99.0831 17.2435L99.2161 17.962C97.8868 18.2259 96.6834 18.4312 95.543 18.5998H95.536ZM84.3697 18.1599C83.1313 17.742 82.0119 17.1775 80.9554 16.437L81.3472 15.8285C82.3477 16.5323 83.4042 17.0675 84.5866 17.4634L84.3767 18.1599H84.3697ZM102.847 17.1702L102.693 16.4517C103.841 16.1804 105.044 15.8872 106.289 15.5646L106.457 16.2757C105.205 16.5983 104.002 16.8916 102.84 17.1628L102.847 17.1702ZM110.061 15.3373L109.886 14.6262C111.04 14.3183 112.229 13.9883 113.468 13.6438L113.65 14.3549C112.411 14.6995 111.215 15.0294 110.061 15.3373ZM78.1149 13.8197C77.954 13.6291 77.7931 13.4385 77.6391 13.2405C77.0235 12.4561 76.3238 11.7376 75.5612 11.0998L75.995 10.5279C76.7926 11.1951 77.5272 11.9576 78.1709 12.7713C78.3248 12.962 78.4717 13.1452 78.6256 13.3285L78.1079 13.8197H78.1149ZM117.225 13.3505L117.043 12.6394L120.618 11.6276L120.8 12.3388L117.225 13.3505ZM170.384 11.635C169.418 10.8652 168.39 10.1614 167.326 9.5382L167.669 8.90037C168.76 9.5382 169.817 10.264 170.81 11.0485L170.391 11.635H170.384ZM124.382 11.3271L124.2 10.6159C125.362 10.286 126.558 9.95609 127.782 9.61152L127.964 10.3227C126.74 10.6672 125.551 10.9971 124.389 11.3271H124.382ZM47.4986 10.0954L47.2397 9.41357C48.3662 8.94436 49.5486 8.51181 50.7729 8.13058L50.9758 8.83439C49.7724 9.20829 48.611 9.63351 47.5056 10.0954H47.4986ZM131.539 9.32559L131.358 8.61445C132.526 8.29187 133.722 7.96196 134.94 7.63204L135.115 8.34319C133.89 8.6731 132.701 9.00301 131.532 9.32559H131.539ZM72.4898 9.09832C71.4403 8.57779 70.2859 8.14524 69.0685 7.81533L69.2435 7.10418C70.5028 7.44143 71.6922 7.88864 72.7906 8.4385L72.4898 9.09832ZM164.017 7.9033C162.904 7.44143 161.729 7.04553 160.533 6.72295L160.708 6.01181C161.932 6.34172 163.128 6.74495 164.276 7.21416L164.017 7.89597V7.9033ZM54.53 7.89597L54.3831 7.1775C55.6145 6.90624 56.8528 6.69363 58.0702 6.547L58.1541 7.27281C56.9578 7.41943 55.7404 7.63204 54.53 7.89597ZM138.704 7.38278L138.536 6.67163C139.767 6.35638 140.992 6.08512 142.174 5.85052L142.3 6.56899C141.125 6.79627 139.914 7.06753 138.697 7.38278H138.704ZM65.4794 7.1555C64.311 7.03087 63.0726 6.97955 61.8203 7.00155L61.8063 6.26841C63.0796 6.24641 64.353 6.29773 65.5494 6.42237L65.4794 7.1555ZM156.943 5.98981C155.768 5.82119 154.537 5.70389 153.291 5.65257L153.319 4.91943C154.586 4.97075 155.845 5.08806 157.041 5.26401L156.943 5.98981ZM145.952 5.98981L145.868 5.26401C147.127 5.10272 148.38 4.99275 149.583 4.94143L149.611 5.67457C148.422 5.73322 147.19 5.84319 145.945 5.99715L145.952 5.98981Z" fill="#353843"/>
<path d="M42.6641 12.6759L42.2723 12.0674C42.7271 11.7448 43.2378 11.4222 43.7905 11.0996L44.1264 11.7448C43.5876 12.0527 43.0979 12.3679 42.6571 12.6759H42.6641Z" fill="#353843"/>
<defs>
<linearGradient id="paint0_linear_237_5757" x1="120.261" y1="55.3119" x2="105.815" y2="42.6901" gradientUnits="userSpaceOnUse">
<stop stop-color="#C83628"/>
<stop offset="1" stop-color="#F04D3B"/>
</linearGradient>
<linearGradient id="paint1_linear_237_5757" x1="101.344" y1="47.6439" x2="103.021" y2="47.6439" gradientUnits="userSpaceOnUse">
<stop stop-color="#581914"/>
<stop offset="0.93" stop-color="#7E2623"/>
<stop offset="1" stop-color="#812825"/>
</linearGradient>
<linearGradient id="paint2_linear_237_5757" x1="101.349" y1="40.418" x2="103.032" y2="40.418" gradientUnits="userSpaceOnUse">
<stop stop-color="#FFD880"/>
<stop offset="1" stop-color="#F79330"/>
</linearGradient>
<linearGradient id="paint3_linear_237_5757" x1="114.303" y1="27.8222" x2="115.991" y2="27.8222" gradientUnits="userSpaceOnUse">
<stop stop-color="#FFD880"/>
<stop offset="1" stop-color="#F79330"/>
</linearGradient>
<linearGradient id="paint4_linear_237_5757" x1="102.193" y1="42.6521" x2="102.193" y2="39.0683" gradientUnits="userSpaceOnUse">
<stop stop-color="white"/>
<stop offset="1" stop-color="#894233"/>
</linearGradient>
<linearGradient id="paint5_linear_237_5757" x1="115.147" y1="42.6521" x2="115.147" y2="39.0683" gradientUnits="userSpaceOnUse">
<stop stop-color="white"/>
<stop offset="1" stop-color="#894233"/>
</linearGradient>
<linearGradient id="paint6_linear_237_5757" x1="96.7573" y1="37.0495" x2="97.3125" y2="37.0495" gradientUnits="userSpaceOnUse">
<stop stop-color="#FFD880"/>
<stop offset="1" stop-color="#F79330"/>
</linearGradient>
<linearGradient id="paint7_linear_237_5757" x1="114.303" y1="37.0495" x2="115.991" y2="37.0495" gradientUnits="userSpaceOnUse">
<stop stop-color="#FFD880"/>
<stop offset="1" stop-color="#F79330"/>
</linearGradient>
<linearGradient id="paint8_linear_237_5757" x1="101.899" y1="39.4754" x2="102.465" y2="39.4754" gradientUnits="userSpaceOnUse">
<stop stop-color="#581914"/>
<stop offset="0.93" stop-color="#7E2623"/>
<stop offset="1" stop-color="#812825"/>
</linearGradient>
<linearGradient id="paint9_linear_237_5757" x1="101.899" y1="35.6707" x2="102.465" y2="35.6707" gradientUnits="userSpaceOnUse">
<stop stop-color="#581914"/>
<stop offset="0.93" stop-color="#7E2623"/>
<stop offset="1" stop-color="#812825"/>
</linearGradient>
<linearGradient id="paint10_linear_237_5757" x1="101.055" y1="37.4451" x2="103.293" y2="37.4451" gradientUnits="userSpaceOnUse">
<stop stop-color="#F8FBFE"/>
<stop offset="1" stop-color="#DEDFE1"/>
</linearGradient>
<linearGradient id="paint11_linear_237_5757" x1="101.932" y1="37.934" x2="102.421" y2="37.934" gradientUnits="userSpaceOnUse">
<stop stop-color="#F8FBFE"/>
<stop offset="1" stop-color="#DEDFE1"/>
</linearGradient>
<linearGradient id="paint12_linear_237_5757" x1="101.899" y1="35.6707" x2="102.465" y2="35.6707" gradientUnits="userSpaceOnUse">
<stop stop-color="#581914"/>
<stop offset="0.93" stop-color="#7E2623"/>
<stop offset="1" stop-color="#812825"/>
</linearGradient>
<linearGradient id="paint13_linear_237_5757" x1="114.881" y1="39.4754" x2="115.453" y2="39.4754" gradientUnits="userSpaceOnUse">
<stop stop-color="#581914"/>
<stop offset="0.93" stop-color="#7E2623"/>
<stop offset="1" stop-color="#812825"/>
</linearGradient>
<linearGradient id="paint14_linear_237_5757" x1="114.042" y1="27.8222" x2="116.28" y2="27.8222" gradientUnits="userSpaceOnUse">
<stop stop-color="#F8FBFE"/>
<stop offset="1" stop-color="#DEDFE1"/>
</linearGradient>
<linearGradient id="paint15_linear_237_5757" x1="114.92" y1="37.934" x2="115.403" y2="37.934" gradientUnits="userSpaceOnUse">
<stop stop-color="#F8FBFE"/>
<stop offset="1" stop-color="#DEDFE1"/>
</linearGradient>
<linearGradient id="paint16_linear_237_5757" x1="114.881" y1="35.6707" x2="115.453" y2="35.6707" gradientUnits="userSpaceOnUse">
<stop stop-color="#581914"/>
<stop offset="0.93" stop-color="#7E2623"/>
<stop offset="1" stop-color="#812825"/>
</linearGradient>
<linearGradient id="paint17_linear_237_5757" x1="108.147" y1="33.0739" x2="108.147" y2="27.0017" gradientUnits="userSpaceOnUse">
<stop stop-color="#581914"/>
<stop offset="0.93" stop-color="#7E2623"/>
<stop offset="1" stop-color="#812825"/>
</linearGradient>
<linearGradient id="paint18_linear_237_5757" x1="102.516" y1="33.0739" x2="102.516" y2="27.0017" gradientUnits="userSpaceOnUse">
<stop stop-color="#581914"/>
<stop offset="0.93" stop-color="#7E2623"/>
<stop offset="1" stop-color="#812825"/>
</linearGradient>
<linearGradient id="paint19_linear_237_5757" x1="113.771" y1="33.0741" x2="113.771" y2="27.0019" gradientUnits="userSpaceOnUse">
<stop stop-color="#581914"/>
<stop offset="0.93" stop-color="#7E2623"/>
<stop offset="1" stop-color="#812825"/>
</linearGradient>
<linearGradient id="paint20_linear_237_5757" x1="108.254" y1="27.34" x2="108.254" y2="29.5938" gradientUnits="userSpaceOnUse">
<stop stop-color="#D87C30"/>
<stop offset="1" stop-color="#FCBC6F"/>
</linearGradient>
</defs>
</svg>
