<svg width="126" height="40" viewBox="0 0 126 40" fill="none" xmlns="http://www.w3.org/2000/svg">
<path d="M22.0736 26.9467C22.6114 30.8225 22.8967 34.7375 23.7385 38.5693C23.8554 39.0972 23.6917 39.5371 22.9902 39.5029C22.125 39.4589 21.2505 39.41 20.3946 39.5078C19.1833 39.6495 18.6362 39.2976 18.2527 37.934C17.0882 33.7795 15.6898 29.6935 14.3803 25.583C14.0483 23.716 13.2579 21.9907 12.7856 20.1676C12.6032 19.4491 12.0981 19.4931 11.5649 19.4931C8.5344 19.5029 5.50855 19.454 2.47802 19.5175C1.23401 19.542 0.345426 19.2243 0.0741744 17.846C-0.211107 16.4041 0.331395 15.1285 1.6175 14.6251C4.6948 13.4129 7.80483 12.3426 11.1861 12.5478C18.6596 12.9975 26.133 13.3445 33.6017 13.8382C35.0702 13.9359 36.2535 13.7013 37.1187 12.4647C38.517 10.4657 40.2942 10.1187 42.4127 10.974C42.7728 11.1207 43.161 11.1695 43.7222 11.3162C42.7541 13.061 41.6598 14.6739 40.9162 16.453C39.8826 18.9261 38.2878 19.6886 35.7437 19.5615C31.254 19.3367 26.7456 19.5371 22.2466 19.4735C21.185 19.4589 21.012 19.8108 21.1756 20.7883C21.5124 22.8362 21.7696 24.8939 22.0549 26.9467H22.0736Z" fill="#00AC97"/>
<path d="M13.8518 11.673C15.0771 9.60554 16.1995 7.70427 17.336 5.81277C18.1825 4.40026 19.0991 3.02685 19.8848 1.58012C20.2777 0.856762 20.7079 0.499968 21.5123 0.583057C22.5365 0.690584 23.9349 0.123624 24.5054 0.802998C25.1181 1.53125 24.2014 2.79225 23.9723 3.81864C23.4298 6.22822 22.7704 8.60847 22.1484 10.9936C21.9987 11.5655 21.8257 12.02 21.054 12.0396C18.725 12.0982 16.4334 11.7316 13.8565 11.6779L13.8518 11.673Z" fill="white"/>
<path d="M32.1472 22.5723C33.4146 22.5723 34.6025 22.8997 35.7202 23.5596C36.8333 24.2194 37.7032 25.1138 38.3298 26.2428C38.9565 27.3719 39.2652 28.5889 39.2652 29.8988C39.2652 31.2086 38.9519 32.4452 38.3205 33.5938C37.6891 34.7375 36.8333 35.6368 35.7483 36.2819C34.6633 36.9271 33.466 37.2497 32.1612 37.2497C30.2391 37.2497 28.5929 36.5361 27.2319 35.1138C25.871 33.6915 25.1929 31.9613 25.1929 29.9232C25.1929 27.7433 25.9599 25.9252 27.4985 24.4686C28.8454 23.2028 30.3981 22.5723 32.1472 22.5723ZM32.2033 25.8714C31.1557 25.8714 30.2858 26.2477 29.589 27.0053C28.8922 27.7629 28.5461 28.7306 28.5461 29.9085C28.5461 31.0864 28.8922 32.1079 29.5797 32.8606C30.2671 33.6133 31.137 33.9897 32.194 33.9897C33.2509 33.9897 34.1255 33.6084 34.827 32.846C35.5285 32.0835 35.8792 31.106 35.8792 29.9085C35.8792 28.7111 35.5332 27.7384 34.8457 26.9906C34.1582 26.2428 33.279 25.8665 32.208 25.8665L32.2033 25.8714Z" fill="white"/>
<path d="M41.2294 22.9291H44.115V24.6886C44.4283 23.9946 44.8446 23.4716 45.359 23.1099C45.8781 22.7531 46.444 22.5723 47.0613 22.5723C47.4963 22.5723 47.9546 22.6945 48.4316 22.9291L47.384 25.9447C46.9912 25.7394 46.6638 25.6368 46.4113 25.6368C45.8921 25.6368 45.4572 25.9691 45.0971 26.6387C44.7417 27.3034 44.5593 28.6133 44.5593 30.5635L44.5733 31.2428V36.888H41.2294V22.9291Z" fill="white"/>
<path d="M60.0019 22.9291H63.3692V36.888H60.0019V35.412C59.3425 36.062 58.6877 36.5312 58.0236 36.8147C57.3642 37.1031 56.644 37.2448 55.8723 37.2448C54.1373 37.2448 52.6407 36.5459 51.3733 35.148C50.1106 33.7502 49.4745 32.0102 49.4745 29.933C49.4745 27.8558 50.0872 26.0131 51.3125 24.6348C52.5378 23.2565 54.025 22.5674 55.7741 22.5674C56.5785 22.5674 57.3362 22.7238 58.0423 23.0415C58.7485 23.3592 59.4033 23.8333 60.0019 24.4638V22.9242V22.9291ZM56.4616 25.803C55.4187 25.803 54.5582 26.1842 53.866 26.9515C53.1785 27.7189 52.8325 28.6964 52.8325 29.8939C52.8325 31.0913 53.1832 32.0933 53.8847 32.8704C54.5862 33.6475 55.4467 34.0385 56.471 34.0385C57.4952 34.0385 58.4071 33.6573 59.104 32.89C59.8008 32.1226 60.1469 31.1207 60.1469 29.8841C60.1469 28.6475 59.7961 27.6847 59.104 26.932C58.4071 26.1793 57.5279 25.803 56.4616 25.803Z" fill="white"/>
<path d="M80.2896 30.2556C80.2896 27.9486 80.9537 26.0864 82.2772 24.6837C83.6007 23.2761 85.3218 22.5723 87.431 22.5723C89.4233 22.5723 91.0742 23.2761 92.3977 24.6837C93.7165 26.0913 94.376 27.8606 94.376 29.9867C94.376 32.064 93.7119 33.7942 92.3884 35.1774C91.0648 36.5605 89.3485 37.2497 87.2439 37.2497C85.8877 37.2497 84.7138 37.0004 83.727 36.497C82.7402 35.9985 81.8937 35.2262 81.1876 34.1803L84.0263 32.7971C84.9289 33.7111 86.0139 34.1705 87.272 34.1705C88.3243 34.1705 89.1895 33.8773 89.8676 33.2907C90.5457 32.7042 90.9619 31.9173 91.121 30.9252H80.3036L80.2896 30.2604V30.2556ZM90.9713 28.1637C90.5925 27.2986 90.1809 26.6974 89.7366 26.3553C89.0305 25.8078 88.2027 25.5341 87.2673 25.5341C86.4021 25.5341 85.6445 25.7785 84.9897 26.2673C84.335 26.756 83.8954 27.3865 83.6756 28.1637H90.976H90.9713Z" fill="white"/>
<mask id="mask0_238_82116" style="mask-type:alpha" maskUnits="userSpaceOnUse" x="65" y="22" width="15" height="16">
<path d="M65.2047 22.5664H68.8817L72.5158 31.397L76.1463 22.5664H79.8055L73.683 37.5298H71.3415L65.2047 22.5664Z" fill="#D9D9D9"/>
</mask>
<g mask="url(#mask0_238_82116)">
<path d="M80.1531 23.3949V36.4426C80.1531 37.0011 79.8636 37.4549 79.5073 37.4549H65.7967C65.4404 37.4549 65.1508 37.0011 65.1508 36.4426V23.3949C65.1508 22.8364 65.4404 22.3826 65.7967 22.3826H79.511C79.8673 22.3826 80.1568 22.8364 80.1568 23.3949H80.1531Z" fill="url(#paint0_linear_238_82116)"/>
<path d="M68.5432 32.2848C68.6657 32.2848 68.8476 32.3973 68.8773 32.4166H67.7601L68.0941 32.0249V32.3391C68.2352 32.308 68.3985 32.2848 68.5432 32.2809V32.2848Z" fill="url(#paint1_linear_238_82116)"/>
<path d="M68.8847 22.3826H67.7601V32.4127H68.8847V22.3826Z" fill="url(#paint2_linear_238_82116)"/>
<path d="M77.5439 22.3826H76.4193V32.4127H77.5439V22.3826Z" fill="url(#paint3_linear_238_82116)"/>
<g style="mix-blend-mode:multiply">
<path d="M68.8847 22.3826H67.7601V29.0926H68.8847V22.3826Z" fill="url(#paint4_linear_238_82116)"/>
<path d="M77.5439 22.3826H76.4193V29.0926H77.5439V22.3826Z" fill="url(#paint5_linear_238_82116)"/>
</g>
<path d="M68.8847 22.3826V27.3356C68.8847 27.6614 68.6323 27.9251 68.3205 27.9251C68.0088 27.9251 67.7564 27.6614 67.7564 27.3356V22.3826H68.881H68.8847Z" fill="url(#paint6_linear_238_82116)"/>
<path d="M77.5476 22.3826V27.3356C77.5476 27.6614 77.2952 27.9251 76.9834 27.9251C76.6716 27.9251 76.4193 27.6614 76.4193 27.3356V22.3826H77.5439H77.5476Z" fill="url(#paint7_linear_238_82116)"/>
<path d="M68.5061 26.7732C68.5061 26.8819 68.4207 26.9711 68.3168 26.9711C68.2129 26.9711 68.1275 26.8819 68.1275 26.7732C68.1275 26.6646 68.2129 26.5754 68.3168 26.5754C68.4207 26.5754 68.5061 26.6646 68.5061 26.7732Z" fill="url(#paint8_linear_238_82116)"/>
<path d="M68.5061 24.2366C68.5061 24.3452 68.4207 24.4344 68.3168 24.4344C68.2129 24.4344 68.1275 24.3452 68.1275 24.2366C68.1275 24.128 68.2129 24.0388 68.3168 24.0388C68.4207 24.0388 68.5061 24.128 68.5061 24.2366Z" fill="url(#paint9_linear_238_82116)"/>
<path d="M68.8587 24.9385H67.7675C67.6562 24.9385 67.5671 25.0316 67.5671 25.1479V25.6909C67.5671 25.8073 67.6562 25.9004 67.7675 25.9004H68.8587C68.9701 25.9004 69.0592 25.8073 69.0592 25.6909V25.1479C69.0592 25.0316 68.9701 24.9385 68.8587 24.9385ZM68.8587 25.687H67.7712V25.1518H68.8587V25.687Z" fill="url(#paint10_linear_238_82116)"/>
<path d="M68.3132 25.2798C68.2241 25.2798 68.1498 25.3574 68.1498 25.4504V26.04C68.1498 26.1331 68.2241 26.2107 68.3132 26.2107C68.4022 26.2107 68.4765 26.1331 68.4765 26.04V25.4504C68.4765 25.3574 68.4022 25.2798 68.3132 25.2798Z" fill="url(#paint11_linear_238_82116)"/>
<path d="M68.5061 24.2366C68.5061 24.3452 68.4207 24.4344 68.3168 24.4344C68.2129 24.4344 68.1275 24.3452 68.1275 24.2366C68.1275 24.128 68.2129 24.0388 68.3168 24.0388C68.4207 24.0388 68.5061 24.128 68.5061 24.2366Z" fill="url(#paint12_linear_238_82116)"/>
<path d="M77.1876 26.7732C77.1876 26.8819 77.1022 26.9711 76.9983 26.9711C76.8944 26.9711 76.809 26.8819 76.809 26.7732C76.809 26.6646 76.8944 26.5754 76.9983 26.5754C77.1022 26.5754 77.1876 26.6646 77.1876 26.7732Z" fill="url(#paint13_linear_238_82116)"/>
<path d="M77.5364 24.9385H76.4452C76.3339 24.9385 76.2448 25.0316 76.2448 25.1479V25.6909C76.2448 25.8073 76.3339 25.9004 76.4452 25.9004H77.5364C77.6478 25.9004 77.7369 25.8073 77.7369 25.6909V25.1479C77.7369 25.0316 77.6478 24.9385 77.5364 24.9385ZM77.5364 25.687H76.449V25.1518H77.5364V25.687Z" fill="url(#paint14_linear_238_82116)"/>
<path d="M77.0391 25.2798H76.9463C76.8828 25.2798 76.8312 25.3336 76.8312 25.4V26.0904C76.8312 26.1568 76.8828 26.2107 76.9463 26.2107H77.0391C77.1026 26.2107 77.1541 26.1568 77.1541 26.0904V25.4C77.1541 25.3336 77.1026 25.2798 77.0391 25.2798Z" fill="url(#paint15_linear_238_82116)"/>
<path d="M77.1876 24.2366C77.1876 24.3452 77.1022 24.4344 76.9983 24.4344C76.8944 24.4344 76.809 24.3452 76.809 24.2366C76.809 24.128 76.8944 24.0388 76.9983 24.0388C77.1022 24.0388 77.1876 24.128 77.1876 24.2366Z" fill="url(#paint16_linear_238_82116)"/>
</g>
<path d="M76.0805 22.5143H75.1121L74.2916 20.1411C74.2324 19.9731 74.0844 19.8626 73.911 19.8626H70.7181C70.5489 19.8626 70.3967 19.9731 70.3375 20.1411L69.5043 22.5143H68.5232L69.5931 19.4428C69.7073 19.1113 70.0118 18.8904 70.3501 18.8904H74.262C74.6003 18.8904 74.9048 19.1113 75.019 19.4428L76.0847 22.5187L76.0805 22.5143Z" fill="url(#paint17_linear_238_82116)"/>
<path d="M67.9692 21.8823H69.4874V22.5231H67.597V22.2756C67.597 22.0591 67.7662 21.8867 67.9692 21.8867V21.8823Z" fill="url(#paint18_linear_238_82116)"/>
<path d="M77.0109 22.5232H75.1205V21.8824H76.6387C76.846 21.8824 77.0109 22.0592 77.0109 22.2713V22.5188V22.5232Z" fill="url(#paint19_linear_238_82116)"/>
<path d="M73.6911 18.5811H71.0648C70.8172 18.5811 70.6165 18.7908 70.6165 19.0495V19.6417C70.6165 19.9004 70.8172 20.1102 71.0648 20.1102H73.6911C73.9386 20.1102 74.1393 19.9004 74.1393 19.6417V19.0495C74.1393 18.7908 73.9386 18.5811 73.6911 18.5811Z" fill="url(#paint20_linear_238_82116)"/>
<path d="M97.1165 17.543H100.484V28.6867L105.441 22.934H109.669L103.888 29.6251L110.361 36.8929H106.18L100.484 30.4609V36.8929H97.1165V17.543Z" fill="white"/>
<path d="M121.646 22.9291H125.013V36.888H121.646V35.412C120.987 36.062 120.332 36.5312 119.668 36.8147C119.008 37.1031 118.288 37.2448 117.516 37.2448C115.781 37.2448 114.285 36.5459 113.017 35.148C111.755 33.7502 111.119 32.0102 111.119 29.933C111.119 27.8558 111.731 26.0131 112.957 24.6348C114.182 23.2565 115.669 22.5674 117.418 22.5674C118.223 22.5674 118.98 22.7238 119.687 23.0415C120.393 23.3592 121.047 23.8333 121.646 24.4638V22.9242V22.9291ZM118.106 25.803C117.063 25.803 116.202 26.1842 115.51 26.9515C114.823 27.7189 114.477 28.6964 114.477 29.8939C114.477 31.0913 114.827 32.0933 115.529 32.8704C116.23 33.6475 117.091 34.0385 118.115 34.0385C119.139 34.0385 120.051 33.6573 120.748 32.89C121.445 32.1226 121.791 31.1207 121.791 29.8841C121.791 28.6475 121.445 27.6847 120.748 26.932C120.051 26.1793 119.172 25.803 118.106 25.803Z" fill="white"/>
<path d="M120.973 19.7767C120.973 19.7767 120.893 19.3368 120.687 18.6183L121.136 18.4766C121.351 19.2195 121.431 19.6642 121.436 19.6838L120.977 19.7718L120.973 19.7767Z" fill="white"/>
<path d="M119.836 16.2233C119.509 15.4413 119.135 14.6739 118.723 13.9457L119.125 13.6964C119.546 14.4442 119.93 15.2262 120.266 16.0278L119.836 16.2233ZM117.357 11.8245C116.857 11.1451 116.315 10.4951 115.749 9.90366L116.081 9.55664C116.665 10.1676 117.217 10.8323 117.732 11.5263L117.362 11.8245H117.357Z" fill="white"/>
<path d="M60.3386 13.1344C59.8336 13.1344 59.3425 13.1149 58.8842 13.0709L58.9263 12.5821C59.6746 12.6506 60.493 12.6652 61.3675 12.6163L61.3909 13.1051C61.0308 13.1246 60.6801 13.1344 60.3386 13.1344ZM63.8743 12.8558L63.8135 12.372C64.5664 12.2644 65.3615 12.1276 66.2454 11.9516L66.3342 12.4306C65.4457 12.6066 64.6413 12.7434 63.8789 12.8558H63.8743ZM56.4102 12.5626C55.5824 12.284 54.8341 11.9076 54.1279 11.414L54.3898 11.0083C55.0586 11.4775 55.7648 11.8343 56.5552 12.0983L56.4149 12.5626H56.4102ZM68.7615 11.9028L68.6586 11.4238C69.4256 11.2429 70.23 11.0474 71.0624 10.8324L71.1747 11.3065C70.3375 11.5215 69.5331 11.717 68.7568 11.8979L68.7615 11.9028ZM73.5832 10.6809L73.4663 10.2068C74.2379 10.0015 75.033 9.78154 75.8608 9.55182L75.9824 10.0259C75.1546 10.2556 74.3549 10.4756 73.5832 10.6809ZM52.2292 9.66912C52.1216 9.54205 52.014 9.41497 51.9112 9.283C51.4996 8.76003 51.0319 8.28105 50.5222 7.85583L50.8121 7.4746C51.3453 7.91937 51.8363 8.42768 52.2666 8.9702C52.3695 9.09728 52.4677 9.21947 52.5706 9.34166L52.2245 9.66912H52.2292ZM78.3722 9.35632L78.2506 8.88222L80.6404 8.20774L80.762 8.68183L78.3722 9.35632ZM113.906 8.21262C113.261 7.69943 112.573 7.23022 111.862 6.81477L112.091 6.38955C112.821 6.81477 113.527 7.29865 114.191 7.82162L113.911 8.21262H113.906ZM83.1565 8.00735L83.0349 7.53325C83.8112 7.31331 84.611 7.09337 85.4294 6.86365L85.551 7.33775C84.7325 7.56746 83.9375 7.7874 83.1612 8.00735H83.1565ZM31.7637 7.18623L31.5907 6.73169C32.3437 6.41888 33.134 6.13051 33.9525 5.87636L34.0881 6.34557C33.2837 6.59483 32.5073 6.87831 31.7684 7.18623H31.7637ZM87.9408 6.67303L87.8192 6.19894C88.6002 5.98389 89.3999 5.76394 90.2137 5.544L90.3306 6.0181C89.5122 6.23804 88.7171 6.45798 87.9361 6.67303H87.9408ZM48.4691 6.52152C47.7676 6.1745 46.9959 5.88613 46.1821 5.66619L46.2991 5.1921C47.1409 5.41692 47.9359 5.71507 48.6702 6.08164L48.4691 6.52152ZM109.65 5.72484C108.907 5.41692 108.121 5.153 107.321 4.93794L107.438 4.46385C108.257 4.68379 109.056 4.9526 109.823 5.26541L109.65 5.71996V5.72484ZM36.4639 5.71996L36.3657 5.24097C37.1888 5.06013 38.0165 4.91839 38.8303 4.82064L38.8864 5.30451C38.0867 5.40226 37.2729 5.544 36.4639 5.71996ZM92.7298 5.37782L92.6175 4.90373C93.4406 4.69356 94.2591 4.51272 95.0494 4.35632L95.1336 4.8353C94.3479 4.98682 93.5389 5.16766 92.7251 5.37782H92.7298ZM43.783 5.22631C43.002 5.14322 42.1742 5.10901 41.337 5.12367L41.3277 4.63491C42.1788 4.62025 43.03 4.65446 43.8297 4.73755L43.783 5.22631ZM104.922 4.44918C104.136 4.33677 103.313 4.25857 102.481 4.22435L102.499 3.7356C103.346 3.76981 104.188 3.84801 104.988 3.96531L104.922 4.44918ZM97.5749 4.44918L97.5188 3.96531C98.3606 3.85779 99.1977 3.78447 100.002 3.75026L100.021 4.23902C99.2258 4.27812 98.4027 4.35143 97.5702 4.45407L97.5749 4.44918Z" fill="white"/>
<path d="M28.5321 8.90654L28.2702 8.50087C28.5742 8.28582 28.9156 8.07077 29.2851 7.85571L29.5095 8.28582C29.1494 8.4911 28.8221 8.70127 28.5274 8.90654H28.5321Z" fill="white"/>
<defs>
<linearGradient id="paint0_linear_238_82116" x1="80.4018" y1="37.3308" x2="70.7675" y2="28.8907" gradientUnits="userSpaceOnUse">
<stop stop-color="#C83628"/>
<stop offset="1" stop-color="#F04D3B"/>
</linearGradient>
<linearGradient id="paint1_linear_238_82116" x1="67.7564" y1="32.2188" x2="68.8773" y2="32.2188" gradientUnits="userSpaceOnUse">
<stop stop-color="#581914"/>
<stop offset="0.93" stop-color="#7E2623"/>
<stop offset="1" stop-color="#812825"/>
</linearGradient>
<linearGradient id="paint2_linear_238_82116" x1="67.7601" y1="27.4015" x2="68.8847" y2="27.4015" gradientUnits="userSpaceOnUse">
<stop stop-color="#FFD880"/>
<stop offset="1" stop-color="#F79330"/>
</linearGradient>
<linearGradient id="paint3_linear_238_82116" x1="76.4193" y1="19.0043" x2="77.5476" y2="19.0043" gradientUnits="userSpaceOnUse">
<stop stop-color="#FFD880"/>
<stop offset="1" stop-color="#F79330"/>
</linearGradient>
<linearGradient id="paint4_linear_238_82116" x1="68.3243" y1="28.8909" x2="68.3243" y2="26.5017" gradientUnits="userSpaceOnUse">
<stop stop-color="white"/>
<stop offset="1" stop-color="#894233"/>
</linearGradient>
<linearGradient id="paint5_linear_238_82116" x1="76.9834" y1="28.8909" x2="76.9834" y2="26.5017" gradientUnits="userSpaceOnUse">
<stop stop-color="white"/>
<stop offset="1" stop-color="#894233"/>
</linearGradient>
<linearGradient id="paint6_linear_238_82116" x1="64.6906" y1="25.1558" x2="65.0618" y2="25.1558" gradientUnits="userSpaceOnUse">
<stop stop-color="#FFD880"/>
<stop offset="1" stop-color="#F79330"/>
</linearGradient>
<linearGradient id="paint7_linear_238_82116" x1="76.4193" y1="25.1558" x2="77.5476" y2="25.1558" gradientUnits="userSpaceOnUse">
<stop stop-color="#FFD880"/>
<stop offset="1" stop-color="#F79330"/>
</linearGradient>
<linearGradient id="paint8_linear_238_82116" x1="68.1275" y1="26.7732" x2="68.5061" y2="26.7732" gradientUnits="userSpaceOnUse">
<stop stop-color="#581914"/>
<stop offset="0.93" stop-color="#7E2623"/>
<stop offset="1" stop-color="#812825"/>
</linearGradient>
<linearGradient id="paint9_linear_238_82116" x1="68.1275" y1="24.2366" x2="68.5061" y2="24.2366" gradientUnits="userSpaceOnUse">
<stop stop-color="#581914"/>
<stop offset="0.93" stop-color="#7E2623"/>
<stop offset="1" stop-color="#812825"/>
</linearGradient>
<linearGradient id="paint10_linear_238_82116" x1="67.5634" y1="25.4194" x2="69.0592" y2="25.4194" gradientUnits="userSpaceOnUse">
<stop stop-color="#F8FBFE"/>
<stop offset="1" stop-color="#DEDFE1"/>
</linearGradient>
<linearGradient id="paint11_linear_238_82116" x1="68.1498" y1="25.7452" x2="68.4765" y2="25.7452" gradientUnits="userSpaceOnUse">
<stop stop-color="#F8FBFE"/>
<stop offset="1" stop-color="#DEDFE1"/>
</linearGradient>
<linearGradient id="paint12_linear_238_82116" x1="68.1275" y1="24.2366" x2="68.5061" y2="24.2366" gradientUnits="userSpaceOnUse">
<stop stop-color="#581914"/>
<stop offset="0.93" stop-color="#7E2623"/>
<stop offset="1" stop-color="#812825"/>
</linearGradient>
<linearGradient id="paint13_linear_238_82116" x1="76.8053" y1="26.7732" x2="77.1876" y2="26.7732" gradientUnits="userSpaceOnUse">
<stop stop-color="#581914"/>
<stop offset="0.93" stop-color="#7E2623"/>
<stop offset="1" stop-color="#812825"/>
</linearGradient>
<linearGradient id="paint14_linear_238_82116" x1="76.2448" y1="19.0042" x2="77.7406" y2="19.0042" gradientUnits="userSpaceOnUse">
<stop stop-color="#F8FBFE"/>
<stop offset="1" stop-color="#DEDFE1"/>
</linearGradient>
<linearGradient id="paint15_linear_238_82116" x1="76.8312" y1="25.7452" x2="77.1541" y2="25.7452" gradientUnits="userSpaceOnUse">
<stop stop-color="#F8FBFE"/>
<stop offset="1" stop-color="#DEDFE1"/>
</linearGradient>
<linearGradient id="paint16_linear_238_82116" x1="76.8053" y1="24.2366" x2="77.1876" y2="24.2366" gradientUnits="userSpaceOnUse">
<stop stop-color="#581914"/>
<stop offset="0.93" stop-color="#7E2623"/>
<stop offset="1" stop-color="#812825"/>
</linearGradient>
<linearGradient id="paint17_linear_238_82116" x1="72.304" y1="22.5054" x2="72.304" y2="18.4573" gradientUnits="userSpaceOnUse">
<stop stop-color="#581914"/>
<stop offset="0.93" stop-color="#7E2623"/>
<stop offset="1" stop-color="#812825"/>
</linearGradient>
<linearGradient id="paint18_linear_238_82116" x1="68.5401" y1="22.5055" x2="68.5401" y2="18.4573" gradientUnits="userSpaceOnUse">
<stop stop-color="#581914"/>
<stop offset="0.93" stop-color="#7E2623"/>
<stop offset="1" stop-color="#812825"/>
</linearGradient>
<linearGradient id="paint19_linear_238_82116" x1="76.0636" y1="22.5055" x2="76.0636" y2="18.4574" gradientUnits="userSpaceOnUse">
<stop stop-color="#581914"/>
<stop offset="0.93" stop-color="#7E2623"/>
<stop offset="1" stop-color="#812825"/>
</linearGradient>
<linearGradient id="paint20_linear_238_82116" x1="72.3758" y1="18.6827" x2="72.3758" y2="20.1853" gradientUnits="userSpaceOnUse">
<stop stop-color="#D87C30"/>
<stop offset="1" stop-color="#FCBC6F"/>
</linearGradient>
</defs>
</svg>
