<svg width="20" height="20" viewBox="0 0 20 20" fill="none" xmlns="http://www.w3.org/2000/svg">
<path fill-rule="evenodd" clip-rule="evenodd" d="M6.91083 10.5891C6.75461 10.4329 6.66684 10.2209 6.66684 9.99997C6.66684 9.779 6.75461 9.56708 6.91083 9.4108L11.625 4.69664C11.7019 4.61705 11.7938 4.55356 11.8955 4.50989C11.9972 4.46621 12.1065 4.44322 12.2172 4.44226C12.3278 4.4413 12.4375 4.46239 12.54 4.50429C12.6424 4.54619 12.7354 4.60807 12.8137 4.68631C12.8919 4.76455 12.9538 4.8576 12.9957 4.96001C13.0376 5.06242 13.0587 5.17216 13.0577 5.28281C13.0567 5.39346 13.0338 5.50281 12.9901 5.60448C12.9464 5.70615 12.8829 5.7981 12.8033 5.87497L8.67833 9.99997L12.8033 14.125C12.9551 14.2821 13.0391 14.4926 13.0372 14.7111C13.0353 14.9296 12.9477 15.1386 12.7932 15.2932C12.6387 15.4477 12.4297 15.5353 12.2112 15.5372C11.9927 15.5391 11.7822 15.4551 11.625 15.3033L6.91083 10.5891Z" fill="black"/>
</svg>
