<svg width="20" height="20" viewBox="0 0 20 20" fill="none" xmlns="http://www.w3.org/2000/svg">
<g clip-path="url(#clip0_2775_5043)">
<path d="M9.99998 1.11133C8.24192 1.11133 6.52334 1.63265 5.06157 2.60938C3.5998 3.5861 2.46049 4.97435 1.78771 6.59859C1.11494 8.22282 0.938906 10.0101 1.28189 11.7344C1.62487 13.4586 2.47145 15.0425 3.71458 16.2856C4.95772 17.5287 6.54157 18.3753 8.26584 18.7183C9.99012 19.0613 11.7774 18.8853 13.4016 18.2125C15.0258 17.5397 16.4141 16.4004 17.3908 14.9386C18.3675 13.4768 18.8889 11.7583 18.8889 10.0002C18.8889 7.64274 17.9524 5.38181 16.2854 3.71482C14.6184 2.04783 12.3575 1.11133 9.99998 1.11133ZM2.2222 10.0002C2.22273 8.13126 2.89959 6.32564 4.12775 4.91688L15.0833 15.8724C13.9566 16.8454 12.5743 17.4746 11.1006 17.6852C9.62692 17.8959 8.12372 17.6792 6.76953 17.0609C5.41533 16.4426 4.26703 15.4486 3.46097 14.1971C2.65491 12.9455 2.22497 11.4889 2.2222 10.0002ZM15.8722 15.0836L4.91664 4.12799C6.4074 2.8824 8.31032 2.23977 10.251 2.32654C12.1917 2.4133 14.0297 3.22318 15.4034 4.59683C16.777 5.97049 17.5869 7.80847 17.6737 9.74917C17.7604 11.6899 17.1178 13.5928 15.8722 15.0836Z" fill="#353843"/>
</g>
<defs>
<clipPath id="clip0_2775_5043">
<rect width="20" height="20" fill="white"/>
</clipPath>
</defs>
</svg>
