<svg width="24" height="24" viewBox="0 0 24 24" fill="none" xmlns="http://www.w3.org/2000/svg">
<path d="M17 2.625V6.625M7 2.625V6.625M3.12 16.362H20.88M17 4.625H7C5.93913 4.625 4.92172 5.04643 4.17157 5.79657C3.42143 6.54672 3 7.56413 3 8.625V17.375C3 18.4359 3.42143 19.4533 4.17157 20.2034C4.92172 20.9536 5.93913 21.375 7 21.375H17C18.0609 21.375 19.0783 20.9536 19.8284 20.2034C20.5786 19.4533 21 18.4359 21 17.375V8.625C21 7.56413 20.5786 6.54672 19.8284 5.79657C19.0783 5.04643 18.0609 4.625 17 4.625Z" stroke="white" stroke-width="1.5" stroke-linecap="round" stroke-linejoin="round"/>
<path d="M12 10.5149C12.3978 10.5149 12.7794 10.3569 13.0607 10.0756C13.342 9.79425 13.5 9.41272 13.5 9.01489C13.5 8.61707 13.342 8.23554 13.0607 7.95423C12.7794 7.67293 12.3978 7.51489 12 7.51489C11.6022 7.51489 11.2206 7.67293 10.9393 7.95423C10.658 8.23554 10.5 8.61707 10.5 9.01489C10.5 9.41272 10.658 9.79425 10.9393 10.0756C11.2206 10.3569 11.6022 10.5149 12 10.5149ZM12 10.5149C12.3978 10.5149 12.7794 10.6729 13.0607 10.9542C13.342 11.2355 13.5 11.6171 13.5 12.0149C13.5 12.4127 13.342 12.7942 13.0607 13.0756C12.7794 13.3569 12.3978 13.5149 12 13.5149C11.6022 13.5149 11.2206 13.3569 10.9393 13.0756C10.658 12.7942 10.5 12.4127 10.5 12.0149C10.5 11.6171 10.658 11.2355 10.9393 10.9542C11.2206 10.6729 11.6022 10.5149 12 10.5149Z" stroke="white" stroke-width="1.5" stroke-linecap="round" stroke-linejoin="round"/>
</svg>
