<svg width="20" height="20" viewBox="0 0 20 20" fill="none" xmlns="http://www.w3.org/2000/svg">
<path d="M4.99998 17.5001H8.33331C8.77534 17.5001 9.19926 17.3245 9.51182 17.0119C9.82438 16.6993 9.99998 16.2754 9.99998 15.8334V12.5001C9.99998 12.058 9.82438 11.6341 9.51182 11.3215C9.19926 11.009 8.77534 10.8334 8.33331 10.8334H4.99998C4.55795 10.8334 4.13403 11.009 3.82147 11.3215C3.50891 11.6341 3.33331 12.058 3.33331 12.5001V15.8334C3.33331 16.2754 3.50891 16.6993 3.82147 17.0119C4.13403 17.3245 4.55795 17.5001 4.99998 17.5001ZM4.16665 12.5001C4.16665 12.279 4.25444 12.0671 4.41072 11.9108C4.567 11.7545 4.77897 11.6667 4.99998 11.6667H8.33331C8.55433 11.6667 8.76629 11.7545 8.92257 11.9108C9.07885 12.0671 9.16665 12.279 9.16665 12.5001V15.8334C9.16665 16.0544 9.07885 16.2664 8.92257 16.4226C8.76629 16.5789 8.55433 16.6667 8.33331 16.6667H4.99998C4.77897 16.6667 4.567 16.5789 4.41072 16.4226C4.25444 16.2664 4.16665 16.0544 4.16665 15.8334V12.5001ZM14.1666 10.8334C13.5074 10.8334 12.8629 11.0289 12.3147 11.3952C11.7666 11.7614 11.3393 12.282 11.087 12.8911C10.8348 13.5002 10.7687 14.1704 10.8974 14.817C11.026 15.4636 11.3434 16.0576 11.8096 16.5237C12.2758 16.9899 12.8697 17.3074 13.5163 17.436C14.1629 17.5646 14.8332 17.4986 15.4423 17.2463C16.0513 16.994 16.5719 16.5668 16.9382 16.0186C17.3045 15.4705 17.5 14.826 17.5 14.1667C17.5 13.2827 17.1488 12.4348 16.5237 11.8097C15.8985 11.1846 15.0507 10.8334 14.1666 10.8334ZM14.1666 16.6667C13.6722 16.6667 13.1888 16.5201 12.7777 16.2454C12.3666 15.9707 12.0462 15.5802 11.8569 15.1234C11.6677 14.6666 11.6182 14.1639 11.7147 13.679C11.8111 13.194 12.0492 12.7486 12.3989 12.399C12.7485 12.0493 13.194 11.8112 13.6789 11.7148C14.1639 11.6183 14.6665 11.6678 15.1234 11.857C15.5802 12.0462 15.9706 12.3667 16.2453 12.7778C16.52 13.1889 16.6666 13.6723 16.6666 14.1667C16.6666 14.8298 16.4033 15.4656 15.9344 15.9345C15.4656 16.4033 14.8297 16.6667 14.1666 16.6667ZM8.00831 10.0001H12.825C13.1115 9.99983 13.3925 9.92154 13.6379 9.7736C13.8832 9.62566 14.0836 9.41366 14.2176 9.16038C14.3515 8.90709 14.4139 8.62211 14.398 8.33604C14.3821 8.04997 14.2886 7.77363 14.1275 7.53672L11.7383 4.03172C11.5915 3.81654 11.3944 3.64046 11.164 3.51878C10.9337 3.3971 10.6771 3.3335 10.4166 3.3335C10.1562 3.3335 9.89959 3.3971 9.66926 3.51878C9.43893 3.64046 9.2418 3.81654 9.09498 4.03172L6.70581 7.53172C6.54333 7.76867 6.44867 8.04552 6.43209 8.33236C6.4155 8.61919 6.4776 8.90511 6.61169 9.15921C6.74578 9.41332 6.94675 9.62595 7.19289 9.77414C7.43904 9.92234 7.721 10.0005 8.00831 10.0001ZM7.39415 8.00505L9.78331 4.50006C9.85366 4.39693 9.94813 4.31255 10.0585 4.25423C10.1689 4.19592 10.2918 4.16544 10.4166 4.16544C10.5415 4.16544 10.6644 4.19592 10.7748 4.25423C10.8852 4.31255 10.9796 4.39693 11.05 4.50006L13.4391 8.00505C13.5152 8.11676 13.5594 8.24708 13.5669 8.382C13.5744 8.51693 13.545 8.65135 13.4818 8.77082C13.4187 8.89028 13.3242 8.99027 13.2084 9.06003C13.0927 9.12978 12.9601 9.16667 12.825 9.16672H8.00831C7.87329 9.16639 7.74091 9.12932 7.62535 9.0595C7.50978 8.98968 7.41539 8.88974 7.35228 8.77038C7.28918 8.65101 7.25973 8.51673 7.26711 8.38191C7.27448 8.24709 7.3184 8.11682 7.39415 8.00505Z" fill="white"/>
</svg>
