<svg width="31" height="30" viewBox="0 0 31 30" fill="none" xmlns="http://www.w3.org/2000/svg">
<path d="M13.4584 21.7077L23.7397 11.4264L21.698 9.38477L13.4584 17.6243L9.30216 13.4681L7.2605 15.5098L13.4584 21.7077ZM15.5001 29.5827C13.4827 29.5827 11.5869 29.1999 9.81258 28.4342C8.03828 27.6686 6.49487 26.6296 5.18237 25.3171C3.86987 24.0046 2.83081 22.4612 2.06519 20.6868C1.29956 18.9125 0.916748 17.0167 0.916748 14.9993C0.916748 12.982 1.29956 11.0862 2.06519 9.31185C2.83081 7.53754 3.86987 5.99414 5.18237 4.68164C6.49487 3.36914 8.03828 2.33008 9.81258 1.56445C11.5869 0.798828 13.4827 0.416016 15.5001 0.416016C17.5174 0.416016 19.4133 0.798828 21.1876 1.56445C22.9619 2.33008 24.5053 3.36914 25.8178 4.68164C27.1303 5.99414 28.1693 7.53754 28.935 9.31185C29.7006 11.0862 30.0834 12.982 30.0834 14.9993C30.0834 17.0167 29.7006 18.9125 28.935 20.6868C28.1693 22.4612 27.1303 24.0046 25.8178 25.3171C24.5053 26.6296 22.9619 27.6686 21.1876 28.4342C19.4133 29.1999 17.5174 29.5827 15.5001 29.5827ZM15.5001 26.666C18.757 26.666 21.5157 25.5358 23.7761 23.2754C26.0365 21.015 27.1667 18.2563 27.1667 14.9993C27.1667 11.7424 26.0365 8.98372 23.7761 6.72331C21.5157 4.46289 18.757 3.33268 15.5001 3.33268C12.2431 3.33268 9.48446 4.46289 7.22404 6.72331C4.96362 8.98372 3.83341 11.7424 3.83341 14.9993C3.83341 18.2563 4.96362 21.015 7.22404 23.2754C9.48446 25.5358 12.2431 26.666 15.5001 26.666Z" fill="#26A387"/>
</svg>
