<svg width="22" height="20" viewBox="0 0 22 20" fill="none" xmlns="http://www.w3.org/2000/svg">
<path d="M10.1147 7.2399C10.3273 7.0273 10.3273 6.6826 10.1147 6.47C9.90209 6.2574 9.55742 6.2574 9.34475 6.47L8.27801 7.53678L7.93709 7.19586C7.72449 6.98326 7.3798 6.98326 7.1672 7.19586C6.9546 7.40846 6.9546 7.75315 7.1672 7.96575L7.89307 8.69158C8.10567 8.90425 8.45036 8.90425 8.66296 8.69158L10.1147 7.2399ZM14.4478 7.03641H11.5444C11.2438 7.03641 11 7.28015 11 7.58081C11 7.88147 11.2438 8.12521 11.5444 8.12521H14.4478C14.7485 8.12521 14.9923 7.88147 14.9923 7.58081C14.9923 7.28015 14.7485 7.03641 14.4478 7.03641ZM10.1147 10.0994C10.3273 10.312 10.3273 10.6567 10.1147 10.8692L8.66296 12.321C8.45036 12.5336 8.10567 12.5336 7.89307 12.321L7.1672 11.5952C6.9546 11.3825 6.9546 11.0378 7.1672 10.8252C7.3798 10.6127 7.72449 10.6127 7.93709 10.8252L8.27801 11.1662L9.34475 10.0994C9.55742 9.88675 9.90209 9.88675 10.1147 10.0994ZM14.4478 10.6658H11.5444C11.2438 10.6658 11 10.9095 11 11.2102C11 11.5108 11.2438 11.7546 11.5444 11.7546H14.4478C14.7485 11.7546 14.9923 11.5108 14.9923 11.2102C14.9923 10.9095 14.7485 10.6658 14.4478 10.6658ZM10.1147 14.4986C10.3273 14.2859 10.3273 13.9412 10.1147 13.7287C9.90209 13.5161 9.55742 13.5161 9.34475 13.7287L8.27801 14.7954L7.93709 14.4545C7.72449 14.2419 7.3798 14.2419 7.1672 14.4545C6.9546 14.6672 6.9546 15.0118 7.1672 15.2244L7.89307 15.9502C8.10567 16.1629 8.45036 16.1629 8.66296 15.9502L10.1147 14.4986ZM11.5444 14.2951H14.4478C14.7485 14.2951 14.9923 14.5388 14.9923 14.8395C14.9923 15.1402 14.7485 15.3838 14.4478 15.3838H11.5444C11.2438 15.3838 11 15.1402 11 14.8395C11 14.5388 11.2438 14.2951 11.5444 14.2951Z" fill="#26A387"/>
<path fill-rule="evenodd" clip-rule="evenodd" d="M9.73179 1.4585C9.55329 1.45849 9.38921 1.45848 9.25146 1.46788C9.10338 1.47798 8.94063 1.50099 8.77522 1.5695C8.43877 1.70887 8.16742 1.9687 8.0133 2.29686C7.82848 2.30045 7.66002 2.30657 7.50619 2.31707C7.12573 2.34303 6.7893 2.39775 6.47074 2.5297C5.70503 2.84688 5.09668 3.45523 4.7795 4.22095C4.64755 4.53951 4.59283 4.87594 4.56687 5.2564C4.54162 5.6264 4.54163 6.08101 4.54163 6.6446V12.9626C4.54161 14.1022 4.54159 15.0208 4.63873 15.7433C4.73958 16.4934 4.95532 17.1249 5.45692 17.6266C5.95852 18.1282 6.59008 18.3439 7.34017 18.4447C8.06264 18.5418 8.98121 18.5418 10.1209 18.5418H11.879C13.0187 18.5418 13.9373 18.5418 14.6598 18.4447C15.4099 18.3439 16.0414 18.1282 16.543 17.6266C17.0446 17.1249 17.2604 16.4934 17.3612 15.7433C17.4583 15.0208 17.4583 14.1022 17.4583 12.9626V6.15366C17.4585 5.47203 17.4587 5.0069 17.3518 4.60802C17.0629 3.52961 16.2205 2.68727 15.1421 2.39831C14.8239 2.31305 14.4635 2.2959 13.9846 2.29257C13.8301 1.96643 13.5597 1.70826 13.2247 1.5695C13.0593 1.50099 12.8965 1.47798 12.7485 1.46788C12.6107 1.45848 12.4467 1.45849 12.2681 1.4585H9.73179ZM14.1245 3.54489C14.1237 3.64898 14.1215 3.74565 14.1155 3.832C14.1055 3.98004 14.0825 4.14282 14.014 4.30825C13.866 4.66558 13.582 4.94948 13.2247 5.09749C13.0593 5.166 12.8965 5.18902 12.7485 5.19912C12.6107 5.20852 12.4467 5.20851 12.2681 5.2085H9.73179C9.55329 5.20851 9.38921 5.20852 9.25146 5.19912C9.10338 5.18902 8.94063 5.166 8.77522 5.09749C8.41788 4.94948 8.13399 4.66558 7.98597 4.30825C7.91745 4.14282 7.89444 3.98004 7.88434 3.832C7.87856 3.74724 7.87634 3.65253 7.87549 3.55061C7.77296 3.55382 7.67883 3.5582 7.59128 3.56417C7.27446 3.58579 7.08996 3.62621 6.94909 3.68455C6.48967 3.87485 6.12465 4.23987 5.93435 4.6993C5.876 4.84016 5.83558 5.02467 5.81397 5.34149C5.79197 5.66392 5.79163 6.07586 5.79163 6.66683V12.9168C5.79163 14.113 5.79295 14.9472 5.87758 15.5767C5.95979 16.1882 6.11017 16.512 6.3408 16.7427C6.57143 16.9733 6.89525 17.1237 7.50673 17.2059C8.13618 17.2905 8.97046 17.2918 10.1666 17.2918H11.8333C13.0295 17.2918 13.8637 17.2905 14.4932 17.2059C15.1047 17.1237 15.4285 16.9733 15.6591 16.7427C15.8898 16.512 16.0401 16.1882 16.1224 15.5767C16.207 14.9472 16.2083 14.113 16.2083 12.9168V6.25016C16.2083 5.43495 16.203 5.14995 16.1444 4.93155C15.971 4.2845 15.4656 3.7791 14.8185 3.60572C14.6686 3.56554 14.4873 3.55042 14.1245 3.54489ZM9.14188 2.83459C9.16296 2.78556 9.20204 2.74648 9.25104 2.72542C9.25721 2.72386 9.28088 2.71878 9.33654 2.71498C9.42654 2.70884 9.54729 2.7085 9.74996 2.7085H12.25C12.4526 2.7085 12.5734 2.70884 12.6634 2.71498C12.719 2.71878 12.7427 2.72386 12.7489 2.72542C12.7979 2.74648 12.837 2.78556 12.858 2.83459C12.8596 2.84071 12.8647 2.86439 12.8685 2.92008C12.8746 3.01009 12.875 3.1308 12.875 3.3335C12.875 3.53619 12.8746 3.65691 12.8685 3.74691C12.8647 3.8026 12.8596 3.82627 12.858 3.8324C12.837 3.88144 12.7979 3.92051 12.7489 3.94158C12.7427 3.94314 12.719 3.94822 12.6634 3.95202C12.5734 3.95816 12.4526 3.9585 12.25 3.9585H9.74996C9.54729 3.9585 9.42654 3.95816 9.33654 3.95202C9.28088 3.94822 9.25721 3.94314 9.25104 3.94158C9.20204 3.92051 9.16296 3.88144 9.14188 3.8324C9.14029 3.82628 9.13521 3.80261 9.13146 3.74691C9.12529 3.65691 9.12496 3.53619 9.12496 3.3335C9.12496 3.1308 9.12529 3.01009 9.13146 2.92008C9.13521 2.86439 9.14029 2.84072 9.14188 2.83459Z" fill="#26A387"/>
</svg>
