<svg width="20" height="20" viewBox="0 0 20 20" fill="none" xmlns="http://www.w3.org/2000/svg">
<path d="M10.835 1.66699H11.0622C13.7799 1.66699 15.1387 1.66699 16.0824 2.33185C16.3528 2.52235 16.5928 2.74826 16.7952 3.00273C17.5016 3.89089 17.5016 5.16979 17.5016 7.7276V9.84881C17.5016 12.3181 17.5016 13.5528 17.1108 14.5389C16.4826 16.1241 15.154 17.3746 13.4697 17.9659C12.4219 18.3337 11.1101 18.3337 8.48648 18.3337C6.98725 18.3337 6.23764 18.3337 5.63894 18.1235C4.67645 17.7856 3.91725 17.0711 3.55826 16.1652C3.33496 15.6017 3.33496 14.8962 3.33496 13.4852V10.0003" stroke="#26A387" stroke-width="1.5" stroke-linecap="round" stroke-linejoin="round"/>
<path d="M17.5023 9.99951C17.5023 11.5336 16.2586 12.7773 14.7245 12.7773C14.1697 12.7773 13.5156 12.6801 12.9761 12.8246C12.4968 12.953 12.1225 13.3274 11.994 13.8067C11.8495 14.3461 11.9467 15.0002 11.9467 15.5551C11.9467 17.0892 10.7031 18.3328 9.16895 18.3328" stroke="#26A387" stroke-width="1.5" stroke-linecap="round" stroke-linejoin="round"/>
<path d="M9.16764 5.00033L2.50098 5.00033M5.83431 1.66699V8.33366" stroke="#26A387" stroke-width="1.5" stroke-linecap="round"/>
</svg>
