<svg width="32" height="32" viewBox="0 0 32 32" fill="none" xmlns="http://www.w3.org/2000/svg">
<path d="M27.1925 5.47915V3.22915C27.1925 2.56623 26.6529 2.02686 25.99 2.02686H6.00914C5.34622 2.02686 4.80664 2.56623 4.80664 3.22915V5.47915C4.80664 5.65238 4.84505 5.8162 4.91125 5.96514L5.81706 9.87956C5.85039 10.0246 5.97997 10.1273 6.12872 10.1273H7.64622C7.82289 10.1273 7.96622 9.98394 7.96622 9.80727C7.96622 9.63061 7.82289 9.48727 7.64622 9.48727H6.38289L5.7249 6.64402C5.81648 6.66641 5.91076 6.68165 6.00914 6.68165C6.08532 6.68165 8.71 6.68165 8.64539 6.68165V13.9683C7.75117 14.2796 7.03154 14.8114 7.16039 15.7458C7.18496 15.9244 7.30918 15.9708 7.49831 16.1072V27.6709C6.94534 27.7592 6.52039 28.2356 6.52039 28.8131C6.52039 29.4529 7.04081 29.9735 7.68081 29.9735C8.20904 29.9735 8.65081 29.6167 8.79073 29.1331C13.966 29.1331 18.5703 29.1331 23.6492 29.1331C23.7892 29.6167 24.2309 29.9735 24.7591 29.9735C25.3991 29.9735 25.92 29.4529 25.92 28.8131C25.92 28.2703 25.5438 27.8169 25.0396 27.6907V15.2425C25.0396 14.5407 24.5171 13.9785 23.8883 13.8629V6.68165C23.9467 6.68165 26.0816 6.68165 25.99 6.68165C26.0881 6.68165 26.1822 6.66654 26.2735 6.64425L25.6125 9.48727H24.8962C24.7196 9.48727 24.5762 9.63061 24.5762 9.80727C24.5762 9.98394 24.7196 10.1273 24.8962 10.1273H25.8666C26.0154 10.1273 26.1446 10.0248 26.1783 9.87977L27.0887 5.96355C27.1545 5.81506 27.1925 5.65173 27.1925 5.47915ZM8.13831 24.123H24.3996V25.7677H8.13831V24.123ZM24.3996 23.0335H8.13831V21.3888H24.3996V23.0335ZM7.68081 29.3335C7.39372 29.3335 7.16039 29.1 7.16039 28.8131C7.16039 28.526 7.39372 28.2925 7.68081 28.2925C7.96643 28.2925 8.19799 28.5239 8.20039 28.809C8.20036 28.8104 8.19956 28.8116 8.19956 28.8131C8.19956 28.8146 8.20036 28.8158 8.20039 28.8172C8.19799 29.1021 7.96643 29.3335 7.68081 29.3335ZM8.79076 28.4931C8.69388 28.1582 8.45461 27.8835 8.13831 27.7472V26.8572H24.3996V27.7153C24.037 27.8345 23.7557 28.125 23.6492 28.4931C18.5769 28.4931 13.9427 28.4931 8.79076 28.4931ZM25.28 28.8131C25.28 29.1 25.0462 29.3335 24.7591 29.3335C24.4721 29.3335 24.2387 29.1 24.2387 28.8131C24.2387 28.526 24.4721 28.2925 24.7591 28.2925C25.0462 28.2925 25.28 28.526 25.28 28.8131ZM24.3996 20.2993H8.13831V16.5481C9.89299 17.68 11.6311 18.2486 13.4254 18.2748C13.4271 18.2748 13.4283 18.2748 13.43 18.2748C13.58 18.2748 13.71 18.1706 13.7425 18.0239C14.5762 14.2607 21.9923 15.3933 23.9712 14.5588C24.2238 14.684 24.3996 14.942 24.3996 15.2425V20.2993ZM23.2483 13.8373H22.6781C19.0123 13.6287 12.5748 13.0034 9.28539 13.7844V6.68165H12.9973V8.616C12.9973 8.96014 13.2488 9.26014 13.5885 9.30865C15.3973 9.56894 17.1841 9.58219 18.9576 9.31748C19.2929 9.26454 19.5399 8.96454 19.5399 8.62482V6.68165H23.2483V13.8373ZM6.00914 6.04165C5.46447 6.04165 5.47187 5.48561 5.44664 5.4417V3.22915C5.44664 2.91915 5.69914 2.66686 6.00914 2.66686H25.99C26.3 2.66686 26.5525 2.91915 26.5525 3.22915V5.44295C26.5278 5.48562 26.5197 6.04165 25.99 6.04165C21.3871 6.04165 10.667 6.04165 6.00914 6.04165Z" fill="#26A387"/>
</svg>
