<svg width="32" height="32" viewBox="0 0 32 32" fill="none" xmlns="http://www.w3.org/2000/svg">
<path d="M0 27.875C0 23.625 0 19.375 0 15.125C0.01875 15.0875 0.04375 15.0562 0.05 15.0125C0.25 14.025 0.81875 13.325 1.7125 12.875C1.95625 12.75 2.23125 12.675 2.49375 12.575C2.49375 11.2312 2.51875 9.89996 2.4875 8.56871C2.45625 7.44371 2.9125 6.57496 3.74375 5.87496C4.85 4.93746 6.175 4.44371 7.54375 4.06871C10.2437 3.32496 13.0063 3.07496 15.7937 3.06246C18.7938 3.04996 21.7625 3.29371 24.6625 4.12496C25.9688 4.49996 27.2313 4.98746 28.2812 5.89371C29.0875 6.58746 29.55 7.43746 29.5125 8.53746C29.4813 9.33746 29.5063 10.1437 29.5063 10.9437C29.5063 11.4937 29.5063 12.0437 29.5063 12.6C29.6313 12.6375 29.7313 12.6625 29.825 12.6937C30.7563 13 31.4312 13.5875 31.8062 14.5062C31.8875 14.7062 31.9375 14.9187 32 15.125C32 19.375 32 23.625 32 27.875C31.7437 28.6187 31.2188 28.9125 30.4438 28.8812C29.4688 28.85 28.4875 28.875 27.5063 28.875C26.5562 28.875 26.0688 28.3875 26.0688 27.4312C26.0688 26.8 26.0688 26.1687 26.0688 25.5187C19.35 25.5187 12.6625 25.5187 5.9375 25.5187C5.9375 26.2 5.9375 26.8625 5.9375 27.525C5.93125 28.35 5.4125 28.8687 4.59375 28.875C3.58125 28.875 2.575 28.85 1.5625 28.8812C0.78125 28.9062 0.25625 28.6187 0 27.875ZM1.26875 24.225C11.1062 24.225 20.9188 24.225 30.7188 24.225C30.7188 23.5187 30.7188 22.8375 30.7188 22.1312C30.5688 22.1312 30.4438 22.1312 30.325 22.1312C26.4813 22.1312 22.6375 22.1312 18.7938 22.1312C18.6813 22.1312 18.5625 22.1375 18.45 22.125C18.1188 22.0937 17.8875 21.8562 17.875 21.5375C17.8625 21.2062 18.0875 20.9312 18.4188 20.8875C18.5312 20.875 18.65 20.8812 18.7625 20.8812C22.625 20.8812 26.4875 20.8812 30.3563 20.8812C30.475 20.8812 30.6 20.8812 30.7188 20.8812C30.7313 20.8125 30.7437 20.7875 30.7437 20.7562C30.7437 19.0062 30.7562 17.2562 30.7375 15.5062C30.7312 14.8875 30.4375 14.3812 29.8875 14.1062C29.5312 13.9312 29.1 13.825 28.7 13.8187C24.4062 13.8 20.1187 13.8062 15.825 13.8062C11.6187 13.8062 7.4125 13.8062 3.2 13.8062C1.9875 13.8062 1.25 14.55 1.25 15.75C1.25 17.3437 1.25 18.9375 1.25 20.5312C1.25 20.6375 1.25 20.75 1.25 20.8687C1.425 20.8687 1.55 20.8687 1.675 20.8687C5.53125 20.8687 9.38125 20.8687 13.2375 20.8687C13.3438 20.8687 13.4438 20.8625 13.55 20.875C13.8875 20.9125 14.125 21.175 14.125 21.5C14.125 21.8312 13.8875 22.0875 13.5437 22.1187C13.4312 22.1312 13.3125 22.125 13.2 22.125C9.34375 22.125 5.49375 22.125 1.6375 22.125C1.51875 22.125 1.39375 22.125 1.2625 22.125C1.26875 22.85 1.26875 23.525 1.26875 24.225ZM17.5625 12.5437C17.5625 12.2062 17.5625 11.8937 17.5625 11.5875C17.5688 10.4062 18.3375 9.62496 19.5125 9.62496C21.275 9.62496 23.0312 9.62496 24.7938 9.62496C26 9.62496 26.7563 10.3812 26.7625 11.5937C26.7625 11.9 26.7625 12.2125 26.7625 12.5312C27.275 12.5312 27.75 12.5312 28.2437 12.5312C28.2437 12.4062 28.2437 12.3062 28.2437 12.2062C28.2437 10.9437 28.2375 9.68746 28.25 8.42496C28.2563 7.93746 28.0938 7.53121 27.7812 7.16871C27.3125 6.63121 26.7125 6.27496 26.075 5.98746C23.85 4.98746 21.475 4.63746 19.0688 4.43746C16.7938 4.24371 14.5125 4.26871 12.2375 4.49996C10.4 4.68121 8.5875 4.98746 6.84375 5.61246C5.95 5.93121 5.0875 6.31871 4.38125 6.98746C3.95625 7.39371 3.73125 7.87496 3.7375 8.48746C3.75625 9.72496 3.74375 10.9687 3.74375 12.2062C3.74375 12.3187 3.74375 12.425 3.74375 12.525C4.325 12.525 4.8625 12.525 5.4125 12.525C5.4125 12.1875 5.4125 11.875 5.4125 11.5625C5.425 10.375 6.1875 9.61871 7.38125 9.61871C9.11875 9.61871 10.8625 9.61871 12.6 9.61871C13.8625 9.61871 14.6125 10.375 14.6187 11.6437C14.6187 11.9375 14.6187 12.2375 14.6187 12.5437C15.6187 12.5437 16.5688 12.5437 17.5625 12.5437ZM6.68125 12.5375C8.925 12.5375 11.1313 12.5375 13.3625 12.5375C13.3625 12.1937 13.3688 11.8625 13.3625 11.5312C13.35 11.1125 13.1188 10.8875 12.6938 10.8812C12.3938 10.875 12.0875 10.8812 11.7875 10.8812C10.3125 10.8812 8.83125 10.8812 7.35625 10.8812C6.95625 10.8812 6.70625 11.075 6.6875 11.425C6.66875 11.7812 6.68125 12.15 6.68125 12.5375ZM18.825 12.5312C21.0688 12.5312 23.2812 12.5312 25.5063 12.5312C25.5063 12.1437 25.5187 11.7812 25.5 11.4187C25.4875 11.1 25.2562 10.8812 24.925 10.8812C23.0938 10.875 21.2625 10.875 19.4312 10.8812C19.0812 10.8812 18.8438 11.1187 18.825 11.4687C18.8125 11.8125 18.825 12.1562 18.825 12.5312ZM1.26875 27.6C2.4125 27.6 3.53125 27.6 4.65625 27.6C4.65625 26.8937 4.65625 26.2062 4.65625 25.525C3.5125 25.525 2.4 25.525 1.26875 25.525C1.26875 26.225 1.26875 26.8937 1.26875 27.6ZM27.35 25.5187C27.35 26.2312 27.35 26.9187 27.35 27.6C28.4937 27.6 29.6125 27.6 30.725 27.6C30.725 26.8937 30.725 26.2125 30.725 25.5187C29.5938 25.5187 28.4875 25.5187 27.35 25.5187Z" fill="#26A387"/>
<path d="M16.0188 22.125C15.6626 22.1313 15.3751 21.8625 15.3751 21.5125C15.3689 21.1625 15.6564 20.875 16.0064 20.875C16.3501 20.875 16.6251 21.1375 16.6314 21.4813C16.6439 21.8438 16.3813 22.1187 16.0188 22.125Z" fill="#26A387"/>
</svg>
