<svg width="24" height="25" viewBox="0 0 24 25" fill="none" xmlns="http://www.w3.org/2000/svg">
<path d="M21.3975 6.10249L18.3975 3.10249C18.292 2.99716 18.1491 2.93799 18 2.93799C17.8509 2.93799 17.708 2.99716 17.6025 3.10249L8.6025 12.1025C8.49698 12.2079 8.43763 12.3509 8.4375 12.5V15.5C8.4375 15.6492 8.49676 15.7923 8.60225 15.8977C8.70774 16.0032 8.85082 16.0625 9 16.0625H12C12.1491 16.0624 12.2921 16.003 12.3975 15.8975L21.3975 6.89749C21.5028 6.79202 21.562 6.64906 21.562 6.49999C21.562 6.35093 21.5028 6.20796 21.3975 6.10249ZM11.7666 14.9375H9.5625V12.7334L15.75 6.54593L17.9541 8.74999L11.7666 14.9375ZM18.75 7.95406L16.5459 5.74999L18 4.29593L20.2041 6.49999L18.75 7.95406ZM20.8125 12.5V20C20.8125 20.3481 20.6742 20.6819 20.4281 20.9281C20.1819 21.1742 19.8481 21.3125 19.5 21.3125H4.5C4.1519 21.3125 3.81806 21.1742 3.57192 20.9281C3.32578 20.6819 3.1875 20.3481 3.1875 20V4.99999C3.1875 4.6519 3.32578 4.31806 3.57192 4.07192C3.81806 3.82577 4.1519 3.68749 4.5 3.68749H12C12.1492 3.68749 12.2923 3.74676 12.3977 3.85225C12.5032 3.95773 12.5625 4.10081 12.5625 4.24999C12.5625 4.39918 12.5032 4.54225 12.3977 4.64774C12.2923 4.75323 12.1492 4.81249 12 4.81249H4.5C4.45027 4.81249 4.40258 4.83225 4.36742 4.86741C4.33225 4.90257 4.3125 4.95027 4.3125 4.99999V20C4.3125 20.0497 4.33225 20.0974 4.36742 20.1326C4.40258 20.1677 4.45027 20.1875 4.5 20.1875H19.5C19.5497 20.1875 19.5974 20.1677 19.6326 20.1326C19.6677 20.0974 19.6875 20.0497 19.6875 20V12.5C19.6875 12.3508 19.7468 12.2077 19.8523 12.1022C19.9577 11.9968 20.1008 11.9375 20.25 11.9375C20.3992 11.9375 20.5423 11.9968 20.6477 12.1022C20.7532 12.2077 20.8125 12.3508 20.8125 12.5Z" fill="#353843"/>
</svg>
