<svg width="35" height="35" viewBox="0 0 35 35" fill="none" xmlns="http://www.w3.org/2000/svg">
<g clip-path="url(#clip0_384_6952)">
<path fill-rule="evenodd" clip-rule="evenodd" d="M22.4289 0.271318V0.542636H22.1576H21.8863V0.813954V1.08527H21.615H21.3437V1.35544V1.62565L21.0648 1.6343L20.786 1.64298L20.7773 1.92183L20.7686 2.20069H20.4984H20.2283V2.47201V2.74332H19.9569H19.6856V3.01464V3.28596H19.4143H19.143V3.55728V3.8286H18.8717H18.6003V4.09991V4.37123H18.329H18.0577V4.64255V4.91387H17.7864H17.5151V5.18404V5.45424L17.2362 5.46289L16.9574 5.47158L16.9487 5.75043L16.94 6.02928H16.6698H16.3997V6.3006V6.57192H16.1283H15.857V6.84324V7.11456H15.5857H15.3144V7.38587V7.65719H15.0431H14.7717V7.92851V8.19983H14.5004H14.2291V8.47115V8.74246H13.9578H13.6865V9.01264V9.28284L13.4076 9.29149L13.1288 9.30017L13.1201 9.57903L13.1114 9.85788H12.8412H12.5711V10.1292V10.4005H12.2997H12.0284V10.6718V10.9432H11.7571H11.4858V11.2145V11.4858H11.2145H10.9432V11.7571V12.0284H10.6718H10.4005V12.2997V12.5711H10.1292H9.85788V12.8412V13.1114L9.57903 13.1201L9.30017 13.1288L9.29149 13.4076L9.28284 13.6865H9.01264H8.74246V13.9578V14.2291H8.47115H8.19983V14.5004V14.7717H7.92851H7.65719V15.0431V15.3144H7.38587H7.11456V15.5857V15.857H6.84324H6.57192V16.1283V16.3997H6.3006H6.02928V16.6698V16.94L5.75043 16.9487L5.47158 16.9574L5.46289 17.2362L5.45424 17.5151H5.18404H4.91387V17.7864V18.0577H4.64255H4.37123V18.329V18.6003H4.09991H3.8286V18.8717V19.143H3.55728H3.28596V19.4143V19.6856H3.01464H2.74332V19.9569V20.2283H2.47201H2.20069V20.4984V20.7686L1.92183 20.7773L1.64298 20.786L1.6343 21.0648L1.62565 21.3437H1.35544H1.08527V21.615V21.8863H0.813954H0.542636V22.1576V22.4289H0.271318H0V23.5142V24.5995H0.271318H0.542636V24.8708V25.1421H0.812808H1.08301L1.09166 25.421L1.10034 25.6998L1.36298 25.7085L1.62559 25.7172L1.6343 25.9798L1.64298 26.2425L1.92183 26.2511L2.20069 26.2598V26.53V26.8002H2.47201H2.74332V27.0715V27.3428H3.28596H3.8286V27.0715V26.8002H4.09991H4.37123V26.5289V26.2575H5.74289H7.11456V26.5108V26.764L7.65719 26.7859L8.19983 26.8079V27.3467V27.8854H8.47115H8.74246V29.2571V30.6288H8.47115H8.19983V30.9001V31.1714H7.92851H7.65719V31.714V32.2567H7.92851H8.19983V32.528V32.7993H8.47115H8.74246V33.0706V33.3419H9.01264H9.28284L9.29149 33.6208L9.30017 33.8997L9.57903 33.9083L9.85788 33.917V34.1872V34.4574H10.1292H10.4005V34.7287V35H11.4858H12.5711V34.7287V34.4574H12.8424H13.1137V34.186V33.9147H13.3839H13.6541L13.6627 33.6359L13.6714 33.357L13.9503 33.3483L14.2291 33.3397V33.0695V32.7993H14.5004H14.7717V32.528V32.2567H15.0431H15.3144V31.9854V31.714H15.5857H15.857V31.4427V31.1714H16.1283H16.3997V30.9001V30.6288H16.671H16.9423V30.3575V30.0861H17.2125H17.4827L17.4913 29.8073L17.5 29.5284L17.7789 29.5197L18.0577 29.5111V29.2409V28.9707H18.329H18.6003V28.6994V28.4281H18.8717H19.143V28.1568V27.8854H19.4143H19.6856V27.6141V27.3428H19.9569H20.2283V27.0715V26.8002H20.4996H20.7709V26.5289V26.2575H21.0422H21.3135V25.9874V25.7172L21.5924 25.7085L21.8712 25.6998L21.8799 25.421L21.8886 25.1421H22.1588H22.4289V24.8708V24.5995H22.7003H22.9716V24.3282V24.0568H23.2429H23.5142V23.7855V23.5142H23.7855H24.0568V23.2429V22.9716H24.3282H24.5995V22.7003V22.4289H24.8708H25.1421V22.1588V21.8886L25.421 21.8799L25.6998 21.8712L25.7085 21.5924L25.7172 21.3135H25.9874H26.2575V21.0422V20.7709H26.5289H26.8002V20.4996V20.2283H27.0715H27.3428V19.9569V19.6856H27.6141H27.8854V19.4143V19.143H28.1568H28.4281V18.8717V18.6003H28.6994H28.9707V18.329V18.0577H29.2409H29.5111L29.5197 17.7789L29.5284 17.5L29.8073 17.4913L30.0861 17.4827V17.2125V16.9423H30.3575H30.6288V16.671V16.3997H30.9001H31.1714V16.1283V15.857H31.4427H31.714V15.5857V15.3144H31.9854H32.2567V15.0431V14.7717H32.528H32.7993V14.5004V14.2291H33.0695H33.3397L33.3483 13.9503L33.357 13.6714L33.6359 13.6627L33.9147 13.6541V13.3839V13.1137H34.186H34.4574V12.8424V12.5711H34.7287H35V11.4858V10.4005H34.7287H34.4574V10.1292V9.85788H34.1872H33.917L33.9083 9.57903L33.8997 9.30017L33.6208 9.29149L33.3419 9.28284V9.01264V8.74246H33.0706H32.7993V8.47115V8.19983H32.528H32.2567V7.92851V7.65719H31.714H31.1714V7.92736V8.19757L30.8925 8.20622L30.6137 8.2149L30.605 8.47868L30.5963 8.74246H29.2571H27.9179L27.9092 8.47868L27.9005 8.2149L27.6217 8.20622L27.3428 8.19757V7.92736V7.65719H27.0715H26.8002V7.3708V7.08441H26.5289H26.2575V5.74407V4.40373L26.5213 4.39502L26.7851 4.3863L26.7938 4.10745L26.8024 3.8286H27.0726H27.3428V3.28596V2.74332H27.0715H26.8002V2.47201V2.20069H26.53H26.2598L26.2511 1.92183L26.2425 1.64298L25.9798 1.6343L25.7172 1.62559L25.7085 1.36298L25.6998 1.10034L25.421 1.09166L25.1421 1.08301V0.812808V0.542636H24.8708H24.5995V0.271318V0H23.5142H22.4289V0.271318ZM22.9652 1.36413L22.9565 1.64298L22.6939 1.65166L22.4313 1.66037L22.4226 1.92298L22.4139 2.18562L22.1512 2.1943L21.8886 2.20301L21.8799 2.46562L21.8712 2.72825L21.6086 2.73693L21.346 2.74565L21.3373 3.00825L21.3286 3.27089L21.0497 3.27957L20.7709 3.28822V3.55842V3.8286H20.4996H20.2283V4.09991V4.37123H19.9569H19.6856V4.64255V4.91387H19.4154H19.1452L19.1366 5.19272L19.1279 5.47158L18.8653 5.48026L18.6027 5.48897L18.594 5.75158L18.5853 6.01421L18.3226 6.02289L18.06 6.03161L18.0513 6.29421L18.0426 6.55685L17.78 6.56553L17.5174 6.57424L17.5087 6.83685L17.5 7.09948L17.2211 7.10817L16.9423 7.11682V7.38702V7.65719H16.671H16.3997V7.92851V8.19983H16.1283H15.857V8.47115V8.74246H15.5868H15.3166L15.308 9.02132L15.2993 9.30017L15.0367 9.30885L14.7741 9.31757L14.7654 9.58017L14.7567 9.84281L14.494 9.85149L14.2314 9.8602L14.2227 10.1228L14.214 10.3854L13.9514 10.3941L13.6888 10.4028L13.6801 10.6654L13.6714 10.9281L13.3925 10.9368L13.1137 10.9454V11.2156V11.4858H12.8424H12.5711V11.7571V12.0284H12.2997H12.0284V12.2997V12.5711H11.7583H11.488L11.4794 12.8499L11.4707 13.1288L11.2081 13.1375L10.9455 13.1462L10.9368 13.4088L10.9281 13.6714L10.6654 13.6801L10.4028 13.6888L10.3941 13.9514L10.3854 14.214L10.1228 14.2227L9.8602 14.2314L9.85149 14.494L9.84281 14.7567L9.58017 14.7654L9.31757 14.7741L9.30885 15.0367L9.30017 15.2993L9.02132 15.308L8.74246 15.3166V15.5868V15.857H8.47115H8.19983V16.1283V16.3997H7.92966H7.65945L7.6508 16.6785L7.64212 16.9574L7.37948 16.966L7.11688 16.9748L7.10817 17.2374L7.09948 17.5L6.83685 17.5087L6.57424 17.5174L6.56553 17.78L6.55685 18.0426L6.29421 18.0513L6.03161 18.06L6.02289 18.3226L6.01421 18.5853L5.75158 18.594L5.48897 18.6027L5.48026 18.8653L5.47158 19.1279L5.19272 19.1366L4.91387 19.1452V19.4154V19.6856H4.64255H4.37123V19.9569V20.2283H4.09991H3.8286V20.4996V20.7709H3.55842H3.28822L3.27957 21.0497L3.27089 21.3286L3.00825 21.3373L2.74565 21.346L2.73693 21.6086L2.72825 21.8712L2.46562 21.8799L2.20301 21.8886L2.1943 22.1512L2.18562 22.4139L1.90676 22.4226L1.62791 22.4312V22.7014V22.9716H1.35659H1.08527V23.5131V24.0546L1.36413 24.0632L1.64298 24.0719L1.65169 24.3357L1.6604 24.5995H1.93055H2.20069V24.8708V25.1421H2.47201H2.74332V25.4088V25.6754L3.15506 25.6952C3.38152 25.706 3.62571 25.7149 3.6977 25.7149H3.8286V25.4468V25.1788L4.37877 25.1586C4.68138 25.1475 5.53941 25.1427 6.28553 25.1478L7.64212 25.1572L7.65077 25.4175L7.65945 25.6779L8.20094 25.6999L8.74246 25.7218V25.9897V26.2575H9.01031H9.27816L9.30017 26.8002L9.32218 27.3428H9.57028H9.81839L9.83814 27.7545C9.8634 28.281 9.86331 29.3102 9.83795 30.3526L9.81806 31.1714H9.54689H9.27575L9.2955 31.5831C9.30635 31.8096 9.31525 32.0538 9.31525 32.1258V32.2567H9.58656H9.85788V32.528V32.7993H10.1292H10.4005V33.0706V33.3419H10.6718H10.9432V33.6133V33.8846H11.4858H12.0284V33.6133V33.3419H12.2997H12.5711V33.0706V32.7993H12.8424H13.1137V32.528V32.2567H13.385H13.6563V31.9854V31.714H13.9276H14.199V31.4427V31.1714H14.4854H14.7717V30.9001V30.6288H15.0431H15.3144V30.3575V30.0861H15.5857H15.857V29.7997V29.5134H16.1283H16.3997V29.242V28.9707H16.671H16.9423V28.6994V28.4281H17.2136H17.4849V28.1568V27.8854H17.7562H18.0276V27.6141V27.3428H18.314H18.6003V27.0715V26.8002H18.8717H19.143V26.5289V26.2575H19.4143H19.6856V25.9711V25.6848H19.9569H20.2283V25.4134V25.1421H20.4996H20.7709V24.8708V24.5995H21.0422H21.3135V24.3282V24.0568H21.5848H21.8562V23.7855V23.5142H22.1425H22.4289V23.2429V22.9716H22.7003H22.9716V22.7003V22.4289H23.2429H23.5142V22.1425V21.8562H23.7855H24.0568V21.5848V21.3135H24.3282H24.5995V21.0422V20.7709H24.8708H25.1421V20.4996V20.2283H25.4134H25.6848V19.9569V19.6856H25.9711H26.2575V19.4143V19.143H26.5289H26.8002V18.8717V18.6003H27.0715H27.3428V18.314V18.0276H27.6141H27.8854V17.7562V17.4849H28.1568H28.4281V17.2136V16.9423H28.6994H28.9707V16.671V16.3997H29.242H29.5134V16.1283V15.857H29.7997H30.0861V15.5857V15.3144H30.3575H30.6288V15.0431V14.7717H30.9001H31.1714V14.4854V14.199H31.4427H31.714V13.9276V13.6563H31.9854H32.2567V13.385V13.1137H32.528H32.7993V12.8424V12.5711H33.0706H33.3419V12.2997V12.0284H33.6133H33.8846V11.487V10.9455L33.6208 10.9368L33.357 10.9281L33.3483 10.6654L33.3396 10.4028L33.077 10.3941L32.8144 10.3854L32.8057 10.1228L32.797 9.8602L32.5344 9.85149L32.2717 9.84281L32.2631 9.58361L32.2545 9.32441L31.8605 9.30448C31.6438 9.29351 31.278 9.29354 31.0477 9.30454L30.6288 9.32453V9.57143V9.81836L30.1992 9.83801C29.6504 9.86313 28.8638 9.86313 28.315 9.83801L27.8854 9.81836V9.57028V9.32218L27.3428 9.30017L26.8002 9.27816V9.01031V8.74246H26.5289H26.2575V8.47115V8.19983H25.9897H25.7218L25.6998 7.65719L25.6778 7.11456H25.4283H25.1788L25.1585 6.56438C25.1474 6.2618 25.1425 5.64793 25.1477 5.20026L25.1572 4.3863L25.4164 4.37765L25.6756 4.36903L25.6955 3.95126C25.7065 3.72149 25.7065 3.3562 25.6955 3.13951L25.6756 2.74553L25.4164 2.7369L25.1572 2.72825L25.1485 2.46562L25.1398 2.20301L24.8772 2.1943L24.6146 2.18562L24.6059 1.92298L24.5972 1.66037L24.3346 1.65166L24.0719 1.64298L24.0632 1.36413L24.0546 1.08527H23.5142H22.9738L22.9652 1.36413ZM21.3361 9.85031L20.7709 9.85921V10.1099V10.3607L19.9521 10.3806C19.5017 10.3916 18.7691 10.4005 18.3241 10.4005H17.5151V10.6521V10.9037L17.1033 10.9234C16.8769 10.9343 16.5038 10.9432 16.2743 10.9432H15.857V11.7722V12.6012H15.5857H15.3144V13.8174C15.3144 14.4863 15.3055 15.2188 15.2946 15.4453L15.2749 15.857H15.0233H14.7717V16.9574V18.0577H15.3144H15.857V17.7864V17.5151H16.3985H16.9399L16.9487 17.7789L16.9574 18.0426L17.22 18.0513L17.4826 18.06L17.4913 18.3226L17.5 18.5853L17.7789 18.594L18.0577 18.6026V18.8728V19.143H18.329H18.6003V19.4143V19.6856H18.8717H19.143V19.9569V20.2283H19.4143H19.6856V21.0573V21.8863H20.2283H20.7709V21.6161V21.3459L21.0497 21.3373L21.3286 21.3286L21.3373 21.0497L21.3459 20.7709H21.6161H21.8863V20.4996V20.2283H22.1576H22.4289V19.9569V19.6856H22.7003H22.9716V19.4143V19.143H23.2429H23.5142V18.8717V18.6003H23.7855H24.0568V18.329V18.0577H24.3282H24.5995V17.7864V17.5151H24.8697H25.1399L25.1485 17.2362L25.1572 16.9574L25.436 16.9487L25.7149 16.94V16.6698V16.3997H25.9862H26.2575V16.1283V15.857H26.5289H26.8002V15.3149V14.7727L25.9787 14.7647L25.1572 14.7567L25.1485 14.494L25.1398 14.2314L24.8772 14.2227L24.6146 14.214L24.6059 13.9352L24.5972 13.6563H24.327H24.0568V13.385V13.1137H23.7855H23.5142V12.8424V12.5711H23.2429H22.9716V12.2997V12.0284H22.7003H22.4289V11.4858V10.9432H22.7003H22.9716V10.4052V9.86723L22.5598 9.84748C22.3334 9.83663 22.0926 9.83081 22.0247 9.83458C21.9569 9.83832 21.647 9.8454 21.3361 9.85031ZM18.0577 11.7571V12.0284H17.5H16.9423V12.5861V13.1438H16.6907H16.4391L16.4195 13.5282C16.4087 13.7396 16.3998 14.228 16.3998 14.6135L16.3997 15.3144H16.671H16.9423V15.0431V14.7717H17.2136H17.4849V14.5016V14.2314L17.7638 14.2227L18.0426 14.214L18.0513 13.9352L18.06 13.6563H18.3302H18.6003V13.385V13.1137H18.8717H19.143V12.8424V12.5711H19.4143H19.6856V12.2997V12.0284H19.9569H20.2283V11.7571V11.4858H19.143H18.0577V11.7571ZM20.7709 12.8417V13.1137H20.4996H20.2283V13.4001V13.6865H19.9569H19.6856V13.9578V14.2291H19.4143H19.143V14.5004V14.7717H18.8717H18.6003V15.0431V15.3144H18.329H18.0577V15.5857V15.857H17.7864H17.5151V16.3997V16.9423H18.0577H18.6003V16.671V16.3997H18.8717H19.143V16.1283V15.857H19.4143H19.6856V15.5857V15.3144H19.9569H20.2283V15.0431V14.7717H20.4996H20.7709V14.5004V14.2291H21.0411H21.3113L21.3199 13.9503L21.3286 13.6714L21.6081 13.6627L21.8877 13.654L21.8795 13.1201L21.8712 12.5861L21.3211 12.5779L20.7709 12.5697V12.8417ZM22.4289 14.5004V14.7717H22.1576H21.8863V15.0431V15.3144H21.615H21.3437V15.5857V15.857H21.615H21.8863V15.5857V15.3144H22.1576H22.4289V15.0431V14.7717H22.7003H22.9716V14.5004V14.2291H22.7003H22.4289V14.5004ZM23.5142 15.857V16.3997H24.0568H24.5995V15.857V15.3144H24.0568H23.5142V15.857ZM20.7709 16.1283V16.3997H20.4996H20.2283V16.671V16.9423H19.9569H19.6856V17.2136V17.4849H19.9569H20.2283V17.2136V16.9423H20.4996H20.7709V16.671V16.3997H21.0422H21.3135V16.1283V15.857H21.0422H20.7709V16.1283ZM21.8863 17.5V18.0577H22.4289H22.9716V17.5V16.9423H22.4289H21.8863V17.5ZM7.65719 18.0577V18.6003H7.92851H8.19983V18.8717V19.143H8.74246H9.2851V19.6845V20.226L9.56395 20.2346L9.84281 20.2433L9.85152 20.5071L9.86023 20.7709H10.4017H10.9432V21.3286V21.8863H11.2145H11.4858V22.1576V22.4289H12.0284H12.5711V22.9716V23.5142H12.8424H13.1137V23.7855V24.0568H13.6714H14.2291V24.5983V25.1398L14.4929 25.1485L14.7567 25.1572L14.7654 25.436L14.774 25.7149H15.3155H15.857V26.2575V26.8002H16.1283H16.3997V27.0715V27.3428H16.9423H17.4849V26.8013V26.2599L17.2211 26.2512L16.9574 26.2425L16.9487 25.9787L16.9399 25.7149H16.3985H15.857V25.1572V24.5995H15.5857H15.3144V24.3282V24.0568H14.7717H14.2291V23.5142V22.9716H13.9578H13.6865V22.7003V22.4289H13.1288H12.5711V21.8712V21.3135H12.2997H12.0284V21.0422V20.7709H11.4858H10.9432V20.2283V19.6856H10.6718H10.4005V19.4143V19.143H9.84281H9.2851V18.6015V18.0601L9.02132 18.0513L8.75754 18.0426L8.74882 17.7789L8.74011 17.5151H8.19865H7.65719V18.0577ZM19.143 17.7864V18.0577H19.4143H19.6856V17.7864V17.5151H19.4143H19.143V17.7864ZM20.2283 19.143V19.6856H20.7709H21.3135V19.143V18.6003H20.7709H20.2283V19.143Z" fill="#26A387"/>
</g>
<defs>
<clipPath id="clip0_384_6952">
<rect width="35" height="35" fill="white"/>
</clipPath>
</defs>
</svg>
