<svg width="32" height="32" viewBox="0 0 32 32" fill="none" xmlns="http://www.w3.org/2000/svg">
<g clip-path="url(#clip0_338_8120)">
<path d="M31.6754 0.967277C31.7404 0.947101 31.8006 0.913862 31.8524 0.869598C31.9041 0.825333 31.9462 0.770976 31.9762 0.709856C32.0061 0.648736 32.0233 0.582141 32.0266 0.514151C32.03 0.446161 32.0194 0.378209 31.9955 0.314459C31.9716 0.250708 31.935 0.192502 31.8879 0.143406C31.8407 0.0943104 31.784 0.0553596 31.7213 0.0289404C31.6586 0.0025212 31.5911 -0.0108099 31.523 -0.0102361C31.4549 -0.00966234 31.3877 0.00480432 31.3254 0.0322774L27.4104 1.49978H4.59043L0.675431 0.0322774C0.61315 0.00480432 0.545916 -0.00966234 0.477848 -0.0102361C0.409779 -0.0108099 0.342311 0.0025212 0.279576 0.0289404C0.216841 0.0553596 0.160162 0.0943104 0.11301 0.143406C0.0658591 0.192502 0.0292293 0.250708 0.00536542 0.314459C-0.0184984 0.378209 -0.0290937 0.446161 -0.0257712 0.514151C-0.0224487 0.582141 -0.00527832 0.648736 0.0246877 0.709856C0.0546538 0.770976 0.0967844 0.825333 0.148498 0.869598C0.200212 0.913862 0.260419 0.947101 0.325431 0.967277L4.00043 2.34728V22.4723L0.235431 24.8248C0.179533 24.8595 0.131039 24.9049 0.0927293 24.9584C0.0544196 25.0119 0.0270478 25.0725 0.0121833 25.1366C-0.00268119 25.2007 -0.00474594 25.2671 0.00610743 25.332C0.0169608 25.3969 0.0405188 25.459 0.0754307 25.5148C0.14855 25.6242 0.260592 25.7016 0.388769 25.7313C0.516945 25.761 0.65163 25.7408 0.765431 25.6748L4.64293 23.2498H5.76543L5.28043 24.5773C5.25283 24.6739 5.24267 24.7746 5.25043 24.8748V26.6248C5.25043 26.89 5.35579 27.1443 5.54332 27.3319C5.73086 27.5194 5.98521 27.6248 6.25043 27.6248H6.50043V28.4998C6.50043 28.8976 6.65847 29.2791 6.93977 29.5604C7.22107 29.8417 7.60261 29.9998 8.00043 29.9998C8.39826 29.9998 8.77979 29.8417 9.06109 29.5604C9.3424 29.2791 9.50043 28.8976 9.50043 28.4998V27.6248H16.5004V28.4998C16.5004 28.8976 16.6585 29.2791 16.9398 29.5604C17.2211 29.8417 17.6026 29.9998 18.0004 29.9998C18.3983 29.9998 18.7798 29.8417 19.0611 29.5604C19.3424 29.2791 19.5004 28.8976 19.5004 28.4998V27.6248H19.7504C20.0156 27.6248 20.27 27.5194 20.4575 27.3319C20.6451 27.1443 20.7504 26.89 20.7504 26.6248V24.8748C20.7582 24.7746 20.7481 24.6739 20.7204 24.5773L20.2329 23.2498H21.2504V23.9998C21.2504 24.265 21.3558 24.5193 21.5433 24.7069C21.7309 24.8944 21.9852 24.9998 22.2504 24.9998H24.7504C25.0156 24.9998 25.27 24.8944 25.4575 24.7069C25.6451 24.5193 25.7504 24.265 25.7504 23.9998V23.2498H27.3579L31.2354 25.6748C31.2912 25.7097 31.3533 25.7332 31.4182 25.7441C31.4831 25.755 31.5495 25.7529 31.6136 25.738C31.6777 25.7232 31.7383 25.6958 31.7918 25.6575C31.8453 25.6192 31.8907 25.5707 31.9254 25.5148C31.9603 25.459 31.9839 25.3969 31.9948 25.332C32.0056 25.2671 32.0035 25.2007 31.9887 25.1366C31.9738 25.0725 31.9464 25.0119 31.9081 24.9584C31.8698 24.9049 31.8213 24.8595 31.7654 24.8248L28.0004 22.4723V2.34728L31.6754 0.967277ZM8.50043 28.4998C8.50043 28.6324 8.44775 28.7596 8.35398 28.8533C8.26022 28.9471 8.13304 28.9998 8.00043 28.9998C7.86782 28.9998 7.74065 28.9471 7.64688 28.8533C7.55311 28.7596 7.50043 28.6324 7.50043 28.4998V27.6248H8.50043V28.4998ZM18.5004 28.4998C18.5004 28.6324 18.4478 28.7596 18.354 28.8533C18.2602 28.9471 18.133 28.9998 18.0004 28.9998C17.8678 28.9998 17.7406 28.9471 17.6469 28.8533C17.5531 28.7596 17.5004 28.6324 17.5004 28.4998V27.6248H18.5004V28.4998ZM19.7504 26.6248H6.25043V25.3748H19.7504V26.6248ZM16.5004 18.7498H14.0004C13.8678 18.7498 13.7406 18.8025 13.6469 18.8962C13.5531 18.99 13.5004 19.1172 13.5004 19.2498V19.7498H12.5004V19.2498C12.5004 19.1172 12.4478 18.99 12.354 18.8962C12.2602 18.8025 12.133 18.7498 12.0004 18.7498H9.50043C9.36782 18.7498 9.24065 18.8025 9.14688 18.8962C9.05311 18.99 9.00043 19.1172 9.00043 19.2498V19.7498H8.00043V17.7498H18.0004V19.7498H17.0004V19.2498C17.0004 19.1172 16.9478 18.99 16.854 18.8962C16.7602 18.8025 16.633 18.7498 16.5004 18.7498ZM16.0004 19.7498V20.7498H14.5004V19.7498H16.0004ZM11.5004 19.7498V20.7498H10.0004V19.7498H11.5004ZM9.00043 20.7498V21.2498C9.00043 21.3824 9.05311 21.5096 9.14688 21.6033C9.24065 21.6971 9.36782 21.7498 9.50043 21.7498H12.0004C12.133 21.7498 12.2602 21.6971 12.354 21.6033C12.4478 21.5096 12.5004 21.3824 12.5004 21.2498V20.7498H13.5004V21.2498C13.5004 21.3824 13.5531 21.5096 13.6469 21.6033C13.7406 21.6971 13.8678 21.7498 14.0004 21.7498H16.5004C16.633 21.7498 16.7602 21.6971 16.854 21.6033C16.9478 21.5096 17.0004 21.3824 17.0004 21.2498V20.7498H18.2504L19.5329 24.2498H6.46543L7.75043 20.7498H9.00043ZM22.2504 23.9998V22.2498H24.7504V23.9998H22.2504ZM22.2504 21.2498V20.2498H24.7504V21.2498H22.2504ZM27.0004 22.2498H25.7504V20.2498C25.7504 19.9846 25.6451 19.7302 25.4575 19.5427C25.27 19.3551 25.0156 19.2498 24.7504 19.2498H24.0004V18.4998H25.5004C25.5855 18.4997 25.6692 18.478 25.7436 18.4365C25.8179 18.3951 25.8804 18.3354 25.9252 18.2631C25.97 18.1907 25.9956 18.1081 25.9996 18.0231C26.0036 17.9381 25.9858 17.8535 25.9479 17.7773L24.6979 15.2773C24.6565 15.194 24.5927 15.1239 24.5137 15.0748C24.4346 15.0258 24.3435 14.9998 24.2504 14.9998H22.7504C22.6574 14.9998 22.5662 15.0258 22.4872 15.0748C22.4081 15.1239 22.3443 15.194 22.3029 15.2773L21.0529 17.7773C21.0151 17.8535 20.9973 17.9381 21.0012 18.0231C21.0052 18.1081 21.0308 18.1907 21.0756 18.2631C21.1204 18.3354 21.183 18.3951 21.2573 18.4365C21.3316 18.478 21.4153 18.4997 21.5004 18.4998H23.0004V19.2498H22.2504C21.9852 19.2498 21.7309 19.3551 21.5433 19.5427C21.3558 19.7302 21.2504 19.9846 21.2504 20.2498V22.2498H19.8679L19.0729 20.0773C19.0554 20.0306 19.0309 19.9867 19.0004 19.9473V17.7498C19.0004 17.4846 18.8951 17.2302 18.7075 17.0427C18.52 16.8551 18.2656 16.7498 18.0004 16.7498H8.00043C7.73521 16.7498 7.48086 16.8551 7.29332 17.0427C7.10579 17.2302 7.00043 17.4846 7.00043 17.7498V19.9473C6.96991 19.9867 6.94548 20.0306 6.92793 20.0773L6.13293 22.2498H5.00043V2.49978H27.0004V22.2498ZM22.3079 17.4998L23.0579 15.9998H23.9429L24.6929 17.4998H22.3079Z" fill="#26A387"/>
<path d="M10 8H11.6375L11.7075 8.25C11.7628 8.46412 11.8875 8.65387 12.0621 8.78958C12.2367 8.92528 12.4514 8.99928 12.6725 9H19.325C19.5461 8.99928 19.7608 8.92528 19.9354 8.78958C20.11 8.65387 20.2347 8.46412 20.29 8.25L20.36 8H22C22.1326 8 22.2598 7.94732 22.3536 7.85355C22.4473 7.75979 22.5 7.63261 22.5 7.5V4C22.5 3.86739 22.4473 3.74021 22.3536 3.64645C22.2598 3.55268 22.1326 3.5 22 3.5H10C9.86739 3.5 9.74021 3.55268 9.64645 3.64645C9.55268 3.74021 9.5 3.86739 9.5 4V7.5C9.5 7.63261 9.55268 7.75979 9.64645 7.85355C9.74021 7.94732 9.86739 8 10 8ZM19.325 8H12.675L12.405 7H19.5975L19.325 8ZM10.5 4.5H21.5V7H20.595C20.595 6.73478 20.4896 6.48043 20.3021 6.29289C20.1146 6.10536 19.8602 6 19.595 6H12.4025C12.1373 6 11.8829 6.10536 11.6954 6.29289C11.5079 6.48043 11.4025 6.73478 11.4025 7H10.5V4.5Z" fill="#26A387"/>
</g>
<defs>
<clipPath id="clip0_338_8120">
<rect width="32" height="32" fill="white"/>
</clipPath>
</defs>
</svg>
