<svg width="32" height="32" viewBox="0 0 32 32" fill="none" xmlns="http://www.w3.org/2000/svg">
<path fill-rule="evenodd" clip-rule="evenodd" d="M15.3 2.53785C15.0906 2.56385 15.04 2.60633 15.04 2.75577C15.04 2.92513 14.9945 2.94625 14.52 2.99705C14.0114 3.05153 14 3.05785 14 3.28641C14 3.49265 13.9718 3.52001 13.76 3.52001C13.5466 3.52001 13.52 3.54665 13.52 3.76001C13.52 3.97153 13.4925 4.00001 13.2878 4.00001C13.0639 4.00001 13.0537 4.01681 13.0005 4.47537C12.9496 4.91409 12.9289 4.95273 12.7326 4.97537C12.5201 5.00001 12.52 5.00065 12.4951 5.80001C12.4813 6.24001 12.4929 6.78897 12.5209 7.02001C12.5664 7.39745 12.5912 7.44001 12.7657 7.44001C12.9344 7.44001 12.96 7.47689 12.96 7.72001C12.96 7.97641 12.9797 8.00001 13.1949 8.00001C13.4015 8.00001 13.4329 8.03137 13.4549 8.26001C13.4769 8.48865 13.5113 8.52305 13.74 8.54505C13.9686 8.56713 14 8.59849 14 8.80505C14 9.01161 14.0284 9.04001 14.2347 9.04001C14.4312 9.04001 14.4735 9.07577 14.4947 9.26001L14.52 9.48001H16H17.48L17.5053 9.26001C17.5265 9.07577 17.5688 9.04001 17.7653 9.04001C17.9716 9.04001 18 9.01161 18 8.80505C18 8.59849 18.0313 8.56713 18.26 8.54505C18.4886 8.52305 18.523 8.48865 18.545 8.26001C18.5671 8.03137 18.5985 8.00001 18.805 8.00001C19.0202 8.00001 19.04 7.97641 19.04 7.72001C19.04 7.47689 19.0656 7.44001 19.2342 7.44001C19.4088 7.44001 19.4336 7.39745 19.4791 7.02001C19.507 6.78897 19.5186 6.24001 19.5049 5.80001C19.48 5.00065 19.4798 5.00001 19.2673 4.97537C19.071 4.95273 19.0504 4.91409 18.9994 4.47537C18.9462 4.01681 18.9361 4.00001 18.7121 4.00001C18.5075 4.00001 18.48 3.97153 18.48 3.76001C18.48 3.54665 18.4533 3.52001 18.24 3.52001C18.0281 3.52001 18 3.49265 18 3.28641C18 3.05785 17.9885 3.05153 17.48 2.99705C17.0107 2.94681 16.96 2.92385 16.96 2.76153C16.96 2.60833 16.9052 2.57425 16.5888 2.53089C16.2076 2.47865 15.7577 2.48105 15.3 2.53785ZM14.48 4.24001C14.48 4.45337 14.4533 4.48001 14.24 4.48001H14V5.00001V5.52001H13.76H13.52V6.24001V6.96001H13.76C13.9809 6.96001 14 6.98225 14 7.24001C14 7.49777 14.019 7.52001 14.24 7.52001C14.4533 7.52001 14.48 7.54665 14.48 7.76001C14.48 7.98097 14.5022 8.00001 14.76 8.00001C15.0177 8.00001 15.04 8.01905 15.04 8.24001V8.48001H16H16.96V8.24001C16.96 8.01905 16.9822 8.00001 17.24 8.00001C17.4977 8.00001 17.52 7.98097 17.52 7.76001C17.52 7.54665 17.5466 7.52001 17.76 7.52001H18V7.04001V6.56001H18.24H18.48V6.04001V5.52001H18.24H18V5.00001V4.48001H17.76C17.5466 4.48001 17.52 4.45337 17.52 4.24001V4.00001H16H14.48V4.24001ZM7.25998 5.01825C7.00574 5.04489 6.95998 5.07881 6.95998 5.24089C6.95998 5.41521 6.91758 5.43689 6.47998 5.48641C6.01742 5.53873 5.99998 5.54897 5.99998 5.77033C5.99998 5.97137 5.97054 6.00001 5.76382 6.00001C5.52998 6.00001 5.52734 6.00497 5.50382 6.50001C5.48094 6.97921 5.47086 7.00105 5.25998 7.02529L5.03998 7.05065V8.24001V9.42937L5.25998 9.45473C5.44326 9.47577 5.48414 9.52337 5.50502 9.74001C5.5271 9.96865 5.55846 10 5.76502 10C5.98022 10 5.99998 10.0236 5.99998 10.28C5.99998 10.5364 6.01982 10.56 6.2347 10.56C6.43118 10.56 6.4735 10.5958 6.4947 10.78C6.51894 10.9909 6.54078 11.001 7.01998 11.0239C7.51502 11.0474 7.51998 11.05 7.51998 11.2839C7.51998 11.513 7.5315 11.52 7.90878 11.52C8.1227 11.52 8.4647 11.4971 8.66878 11.4691C8.98622 11.4256 9.03998 11.392 9.03998 11.237C9.03998 11.075 9.09094 11.0498 9.51998 11C9.98358 10.9462 9.99998 10.9363 9.99998 10.7122C9.99998 10.5075 10.0285 10.48 10.24 10.48C10.4533 10.48 10.48 10.4534 10.48 10.24C10.48 10.0191 10.5022 10 10.76 10H11.04V9.52529C11.04 9.06697 11.0476 9.04977 11.26 9.02529C11.4693 9.00121 11.4813 8.97673 11.5058 8.52001C11.5201 8.25601 11.5082 7.81505 11.4795 7.54001C11.4321 7.08649 11.4101 7.04001 11.2429 7.04001C11.0751 7.04001 11.0537 6.99345 11.0029 6.52001C10.9485 6.01145 10.9421 6.00001 10.7136 6.00001C10.5073 6.00001 10.48 5.97185 10.48 5.76001V5.52001H9.99998C9.52518 5.52001 9.51998 5.51753 9.51998 5.29113C9.51998 5.07481 9.49702 5.05953 9.09998 5.01185C8.6675 4.95993 7.78878 4.96297 7.25998 5.01825ZM22.78 5.01825C22.5085 5.04665 22.48 5.07201 22.48 5.28481C22.48 5.51897 22.4778 5.52001 22 5.52001H21.52V5.76001C21.52 5.97185 21.4926 6.00001 21.2864 6.00001C21.0578 6.00001 21.0515 6.01145 20.997 6.52001C20.9463 6.99345 20.9249 7.04001 20.757 7.04001C20.5898 7.04001 20.5678 7.08649 20.5205 7.54001C20.4917 7.81505 20.4799 8.25601 20.4941 8.52001C20.5187 8.97673 20.5306 9.00121 20.74 9.02529C20.9524 9.04977 20.96 9.06697 20.96 9.52529V10H21.24C21.4977 10 21.52 10.0191 21.52 10.24C21.52 10.4534 21.5466 10.48 21.76 10.48C21.9809 10.48 22 10.5023 22 10.76V11.04H22.48C22.9313 11.04 22.96 11.0513 22.96 11.2291C22.96 11.3935 23.0086 11.4249 23.3312 11.4691C23.5353 11.4971 23.8773 11.52 24.0912 11.52C24.4685 11.52 24.48 11.513 24.48 11.2839C24.48 11.05 24.4849 11.0474 24.98 11.0239C25.4592 11.001 25.481 10.9909 25.5053 10.78C25.5265 10.5958 25.5688 10.56 25.7653 10.56C25.9801 10.56 26 10.5364 26 10.28C26 10.0236 26.0197 10 26.2349 10C26.4415 10 26.4729 9.96865 26.4949 9.74001C26.5158 9.52337 26.5567 9.47577 26.74 9.45473L26.96 9.42937V8.24001V7.05065L26.74 7.02529C26.5291 7.00105 26.519 6.97921 26.4961 6.50001C26.4726 6.00497 26.47 6.00001 26.2361 6.00001C26.0271 6.00001 26 5.97249 26 5.76001V5.52001H25.52C25.0452 5.52001 25.04 5.51753 25.04 5.29113C25.04 5.07481 25.017 5.05953 24.62 5.01185C24.1875 4.95993 23.3088 4.96297 22.78 5.01825ZM7.51998 6.22969C7.51998 6.45081 7.5023 6.46137 7.04358 6.51321L6.5671 6.56713L6.51318 7.04361C6.46134 7.50233 6.45078 7.52001 6.22966 7.52001H5.99998V8.24001V8.96001H6.23998C6.46094 8.96001 6.47998 8.98225 6.47998 9.24001C6.47998 9.49777 6.49902 9.52001 6.71998 9.52001C6.93334 9.52001 6.95998 9.54665 6.95998 9.76001V10H8.23998H9.51998V9.76001C9.51998 9.54665 9.54662 9.52001 9.75998 9.52001H9.99998V9.00001V8.48001H10.24H10.48V8.00001V7.52001H10.24C10.019 7.52001 9.99998 7.49777 9.99998 7.24001C9.99998 6.98225 9.98094 6.96001 9.75998 6.96001C9.54662 6.96001 9.51998 6.93337 9.51998 6.72001C9.51998 6.49905 9.49774 6.48001 9.23998 6.48001C8.98222 6.48001 8.95998 6.46097 8.95998 6.24001V6.00001H8.23998H7.51998V6.22969ZM23.04 6.24001C23.04 6.46097 23.0177 6.48001 22.76 6.48001C22.5022 6.48001 22.48 6.49905 22.48 6.72001C22.48 6.93337 22.4533 6.96001 22.24 6.96001C22.019 6.96001 22 6.98225 22 7.24001C22 7.49777 21.9809 7.52001 21.76 7.52001H21.52V8.00001V8.48001H21.76H22V9.00001V9.52001H22.24C22.4533 9.52001 22.48 9.54665 22.48 9.76001V10H23.76H25.04V9.76001C25.04 9.54665 25.0666 9.52001 25.28 9.52001C25.5009 9.52001 25.52 9.49777 25.52 9.24001C25.52 8.98225 25.539 8.96001 25.76 8.96001H26V8.24001V7.52001H25.7703C25.5492 7.52001 25.5386 7.50233 25.4868 7.04361L25.4329 6.56713L24.9564 6.51321C24.4977 6.46137 24.48 6.45081 24.48 6.22969V6.00001H23.76H23.04V6.24001ZM12.78 10.5373C12.6093 10.5631 12.56 10.6143 12.56 10.7653C12.56 10.9345 12.5233 10.96 12.28 10.96C12.0133 10.96 12 10.9734 12 11.24C12 11.4978 11.9809 11.52 11.76 11.52C11.5466 11.52 11.52 11.5467 11.52 11.76C11.52 11.9719 11.4926 12 11.2864 12C11.0578 12 11.0515 12.0115 10.997 12.52C10.9463 12.994 10.9249 13.04 10.7564 13.04C10.5929 13.04 10.5657 13.0887 10.522 13.46C10.4948 13.691 10.4832 15.59 10.4962 17.68L10.52 21.48L10.7326 21.5047C10.9289 21.5273 10.9496 21.5659 11.0005 22.0047L11.0557 22.48H11.6367C11.9562 22.48 12.3842 22.5028 12.5878 22.5307L12.9581 22.5815L12.979 25.5507L13 28.52L13.2151 28.5449C13.3814 28.5641 13.4359 28.6186 13.4551 28.7849C13.4757 28.9628 13.5249 29.0043 13.74 29.0251C13.9507 29.0454 14 29.0851 14 29.2342C14 29.3917 14.0519 29.4254 14.36 29.4676C14.558 29.4947 14.882 29.4947 15.08 29.4676C15.3912 29.425 15.44 29.3927 15.44 29.2291C15.44 29.0436 15.4543 29.04 16.2 29.04C16.9524 29.04 16.96 29.0419 16.96 29.2353C16.96 29.5028 17.0527 29.5399 17.5613 29.4764C17.9512 29.4277 18 29.4009 18 29.2359C18 29.0848 18.0485 29.0455 18.26 29.0251C18.4886 29.0031 18.523 28.9687 18.545 28.74C18.5671 28.5114 18.5985 28.48 18.805 28.48H19.04V25.5309V22.5818L19.4112 22.5309C19.6153 22.5029 20.0437 22.48 20.3633 22.48H20.9443L20.9994 22.0047C21.0504 21.5659 21.071 21.5273 21.2673 21.5047L21.48 21.48L21.504 17.76C21.5172 15.714 21.5053 13.8151 21.4776 13.54C21.4319 13.0859 21.4103 13.04 21.2429 13.04C21.0751 13.04 21.0537 12.9935 21.0029 12.52C20.9485 12.0115 20.9421 12 20.7136 12C20.5073 12 20.48 11.9719 20.48 11.76C20.48 11.5467 20.4533 11.52 20.24 11.52C20.019 11.52 20 11.4978 20 11.24C20 10.9734 19.9866 10.96 19.72 10.96C19.4788 10.96 19.44 10.9338 19.44 10.7705C19.44 10.6136 19.3883 10.5724 19.14 10.5314C18.8141 10.4775 13.1397 10.4828 12.78 10.5373ZM13.04 11.76C13.04 11.981 13.0177 12 12.76 12C12.5022 12 12.48 12.0191 12.48 12.24C12.48 12.4534 12.4533 12.48 12.24 12.48H12V13.24V14H11.76H11.52V17.48V20.96H11.76C11.9809 20.96 12 20.9823 12 21.24C12 21.4964 12.0197 21.52 12.2349 21.52C12.4415 21.52 12.4729 21.4887 12.4949 21.26C12.5158 21.0434 12.5567 20.9958 12.74 20.9747L12.96 20.9494V18.0859C12.96 16.5109 12.9831 15.0535 13.0114 14.847C13.0589 14.5003 13.0789 14.4735 13.2714 14.4958C13.4321 14.5144 13.4858 14.5706 13.5053 14.74C13.5265 14.9243 13.5688 14.96 13.7653 14.96H14V21.48V28H14.76H15.52V24.48V20.96H16H16.48V24.48V28H17.24H18V21.48V14.96H18.2347C18.4312 14.96 18.4735 14.9243 18.4947 14.74C18.5141 14.5706 18.5679 14.5144 18.7285 14.4958C18.9211 14.4735 18.941 14.5003 18.9885 14.847C19.0169 15.0535 19.04 16.5133 19.04 18.0912V20.96H19.2349C19.3964 20.96 19.4341 21.0047 19.4549 21.22C19.4769 21.4487 19.5113 21.4831 19.74 21.5051C19.9893 21.5291 20 21.5185 20 21.2451C20 20.9817 20.0182 20.96 20.24 20.96H20.48V17.48V14H20.24H20V13.24V12.48H19.76C19.5466 12.48 19.52 12.4534 19.52 12.24C19.52 12.0191 19.4977 12 19.24 12C18.9822 12 18.96 11.981 18.96 11.76V11.52H16H13.04V11.76ZM5.51998 12.2362C5.51998 12.47 5.51502 12.4727 5.01998 12.4962C4.51998 12.52 4.51998 12.52 4.49494 12.78C4.47286 13.0087 4.4415 13.04 4.23494 13.04C4.02718 13.04 3.99998 13.0679 3.99998 13.28C3.99998 13.4914 3.97238 13.52 3.76862 13.52H3.53734L3.47966 14.9809C3.41454 16.6315 3.4539 22.8407 3.53006 22.9167C3.55734 22.944 3.89022 22.9883 4.26982 23.0151L4.95998 23.0638V23.2919C4.95998 23.492 4.98942 23.52 5.19998 23.52H5.43998V25.5077C5.43998 26.601 5.46318 27.822 5.4915 28.2212L5.54302 28.947L6.0115 29.0014C6.43766 29.0508 6.47998 29.0731 6.47998 29.2479C6.47998 29.4311 6.5043 29.44 6.99998 29.44C7.49334 29.44 7.51998 29.4303 7.51998 29.2509C7.51998 29.0874 7.56878 29.0551 7.87998 29.0124C8.07798 28.9853 8.40198 28.9853 8.59998 29.0124C8.91118 29.0551 8.95998 29.0874 8.95998 29.2509C8.95998 29.4303 8.98662 29.44 9.47998 29.44C9.97774 29.44 9.99998 29.4317 9.99998 29.2451C9.99998 29.0836 10.0446 29.0459 10.26 29.0251C10.475 29.0043 10.5243 28.9628 10.5449 28.7849C10.5641 28.6186 10.6185 28.5641 10.7849 28.5449L11 28.52L11.0242 26.28C11.0375 25.048 11.0257 23.8151 10.9978 23.54C10.9516 23.0826 10.9312 23.04 10.7589 23.04C10.6129 23.04 10.5649 23.0895 10.5453 23.26C10.5242 23.4433 10.4766 23.4842 10.26 23.5051L9.99998 23.5302V25.7651V28H9.47998H8.95998V25V22H8.75998C8.5911 22 8.55998 21.9627 8.55998 21.76C8.55998 21.5391 8.53774 21.52 8.27998 21.52C8.02222 21.52 7.99998 21.5391 7.99998 21.76C7.99998 21.9734 7.97334 22 7.75998 22H7.51998V25V28H6.99998H6.47998V22V16H5.95998H5.43998V18.76V21.52H5.23998C5.0711 21.52 5.03998 21.5574 5.03998 21.76C5.03998 21.981 5.01774 22 4.75998 22H4.47998V18.3712C4.47998 16.3753 4.50286 14.5753 4.53086 14.3712C4.5779 14.0279 4.59894 14 4.81086 14C5.01214 14 5.03998 13.9708 5.03998 13.76V13.52H5.51998H5.99998V13.28V13.04H7.75998H9.51998V12.52V12H7.51998H5.51998V12.2362ZM22.48 12.52V13.04H24.24H26V13.28V13.52H26.48H26.96V13.76C26.96 13.9708 26.9878 14 27.1891 14C27.401 14 27.4221 14.0279 27.4691 14.3712C27.4971 14.5753 27.52 16.3753 27.52 18.3712V22H27.24C26.9822 22 26.96 21.981 26.96 21.76C26.96 21.5574 26.9289 21.52 26.76 21.52H26.56V18.76V16H26.04H25.52V22V28H25H24.48V25V22H24.24C24.0266 22 24 21.9734 24 21.76C24 21.5391 23.9777 21.52 23.72 21.52C23.4622 21.52 23.44 21.5391 23.44 21.76C23.44 21.9627 23.4089 22 23.24 22H23.04V25V28H22.52H22V25.7651V23.5302L21.74 23.5051C21.5233 23.4842 21.4757 23.4433 21.4547 23.26C21.435 23.0895 21.387 23.04 21.241 23.04C21.0688 23.04 21.0484 23.0826 21.0021 23.54C20.9743 23.8151 20.9625 25.048 20.9757 26.28L21 28.52L21.2151 28.5449C21.3814 28.5641 21.4359 28.6186 21.4551 28.7849C21.4757 28.9628 21.5249 29.0043 21.74 29.0251C21.9506 29.0454 22 29.0851 22 29.2341C22 29.3977 22.0492 29.4238 22.4454 29.4703C22.9588 29.5307 23.04 29.5001 23.04 29.2462C23.04 29.0883 23.0917 29.0547 23.4 29.0124C23.598 28.9853 23.922 28.9853 24.12 29.0124C24.4312 29.0551 24.48 29.0874 24.48 29.2509C24.48 29.4303 24.5066 29.44 25 29.44C25.5013 29.44 25.52 29.4328 25.52 29.24C25.52 29.0711 25.5573 29.04 25.76 29.04C25.9733 29.04 26 29.0134 26 28.8C26 28.5893 26.0279 28.56 26.2289 28.56C26.4452 28.56 26.4605 28.5371 26.5081 28.14C26.5359 27.9091 26.5589 26.7774 26.5593 25.6253L26.56 23.5307L26.78 23.5053C26.9493 23.4859 27.0056 23.4321 27.0241 23.2716C27.0477 23.0695 27.0692 23.0617 27.7343 23.0148C28.1116 22.9882 28.4426 22.944 28.4699 22.9167C28.5461 22.8407 28.5854 16.6315 28.5203 14.9809L28.4626 13.52H28.2313C28.0276 13.52 28 13.4914 28 13.28C28 13.0679 27.9728 13.04 27.765 13.04C27.5585 13.04 27.5271 13.0087 27.505 12.78C27.48 12.52 27.48 12.52 26.98 12.4962C26.4849 12.4727 26.48 12.47 26.48 12.2362V12H24.48H22.48V12.52Z" fill="#26A387"/>
</svg>
