<svg width="32" height="32" viewBox="0 0 32 32" fill="none" xmlns="http://www.w3.org/2000/svg">
<g clip-path="url(#clip0_238_106307)">
<path d="M2.55856 32C2.37523 31.9583 2.20023 31.9166 2.01689 31.8666C0.800228 31.5 0.0668945 30.4833 0.0668945 29.1416C0.0668945 24.55 0.0668945 19.95 0.0668945 15.3583C0.0668945 14.55 0.0668945 13.7333 0.0668945 12.925C0.0752279 11.3416 1.21689 10.1833 2.79189 10.175C4.15023 10.1666 5.51689 10.175 6.87523 10.175C7.60856 10.175 8.04189 10.6083 8.04189 11.3333C8.04189 11.6416 8.04189 11.95 8.04189 12.3C8.19189 12.3 8.30856 12.3 8.43356 12.3C10.3586 12.3 12.2836 12.3083 14.2002 12.2916C14.5419 12.2916 14.7919 12.4 14.9919 12.6833C15.3086 13.1416 15.6586 13.5833 16.0336 14.0666C16.2752 13.7416 16.5169 13.45 16.7252 13.1333C17.0919 12.5833 17.4669 12.075 18.3252 12.3416C18.2419 12.1583 18.2002 12.0583 18.1502 11.9583C17.2586 10.175 16.8002 8.2833 16.8419 6.27496C16.9002 3.1833 19.4086 0.466631 22.4836 0.158298C25.8419 -0.175035 28.7336 1.89163 29.4669 5.17496C29.7669 6.5333 29.6252 7.89996 29.2752 9.21663C29.0252 10.1666 28.6169 11.0666 28.2752 11.9916C28.2419 12.075 28.2002 12.1583 28.1502 12.275C28.9919 12.275 29.8002 12.3 30.6086 12.2666C31.2586 12.2416 31.7419 12.4583 32.0002 13.075C32.0002 19.1083 32.0002 25.1333 32.0002 31.1666C31.8502 31.55 31.5752 31.825 31.1919 31.975C29.9836 31.975 28.7836 31.975 27.5752 31.975C27.4336 31.8333 27.2752 31.7 27.1419 31.5416C26.6336 30.9166 26.1336 30.2833 25.6169 29.6333C25.0919 30.2916 24.5919 30.9166 24.0836 31.5416C23.9586 31.7 23.7919 31.825 23.6419 31.975C16.6169 32 9.58356 32 2.55856 32ZM26.1086 15.225C26.1336 15.2416 26.1586 15.275 26.1919 15.3C27.5669 16.3416 27.5419 17.9083 26.1419 18.9166C25.3836 19.4583 24.5169 19.6916 23.6002 19.7416C22.2669 19.8083 21.0002 19.575 19.9669 18.65C19.0252 17.8083 18.9836 16.6 19.8336 15.6666C19.9836 15.5 20.1669 15.3583 20.3419 15.2083C20.0169 14.7916 19.6502 14.4166 19.4002 13.975C19.1169 13.4666 18.7502 13.2916 18.1919 13.3583C17.9752 13.3833 17.8336 13.4416 17.7086 13.6166C17.3419 14.1333 16.9502 14.6333 16.5752 15.1416C16.2086 15.625 15.8669 15.6333 15.5086 15.15C15.1169 14.6333 14.7252 14.125 14.3502 13.6C14.2252 13.4333 14.1002 13.3583 13.8919 13.3666C12.0502 13.375 10.2086 13.375 8.37523 13.375C8.27523 13.375 8.17523 13.375 8.07523 13.375C8.07523 15.725 8.07523 18.025 8.07523 20.3333C8.70856 20.425 9.26689 20.675 9.75856 21.0666C10.0169 21.275 10.0752 21.5666 9.91689 21.8083C9.74189 22.0666 9.42523 22.1 9.11689 21.9166C8.79189 21.725 8.45856 21.55 8.05856 21.3333C8.05856 21.5583 8.05856 21.6666 8.05856 21.7833C8.05856 23.3416 8.05856 24.9 8.05856 26.4583C8.05856 27.375 7.66689 27.7583 6.74189 27.7583C5.38356 27.7583 4.01689 27.75 2.65856 27.7666C2.00856 27.775 1.45856 28.1916 1.23356 28.8C1.00856 29.4083 1.16689 30.025 1.65856 30.475C2.00856 30.8 2.43356 30.95 2.90856 30.95C5.25856 30.95 7.60856 30.95 9.95856 30.95C10.0252 30.95 10.1002 30.9333 10.1836 30.925C10.1836 30.4083 10.1836 29.9166 10.1836 29.4166C10.1836 29.125 10.3086 28.9083 10.6086 28.8416C10.9502 28.7583 11.2419 29 11.2502 29.375C11.2586 29.8916 11.2502 30.4083 11.2502 30.9333C11.3502 30.9416 11.4086 30.95 11.4669 30.95C15.3252 30.95 19.1836 30.95 23.0336 30.9416C23.1419 30.9416 23.2919 30.8666 23.3669 30.775C23.9502 30.0666 24.5169 29.35 25.0836 28.6416C25.4586 28.175 25.7919 28.175 26.1669 28.65C26.6169 29.2083 27.0919 29.75 27.5002 30.3333C27.8252 30.8083 28.2002 31.05 28.7836 30.9583C29.0502 30.9166 29.3252 30.95 29.5919 30.95C30.0336 30.95 30.4752 30.95 30.9252 30.95C30.9252 28.4333 30.9252 25.95 30.9252 23.4666C30.8169 23.4416 30.7252 23.425 30.6336 23.4C30.1002 23.2916 29.6419 23.0416 29.2169 22.7083C28.9752 22.5166 28.9252 22.225 29.0836 21.9833C29.2502 21.7416 29.5502 21.6833 29.8252 21.85C29.9336 21.9166 30.0252 22.0083 30.1336 22.0583C30.3752 22.175 30.6336 22.2833 30.9086 22.4C30.9086 19.35 30.9086 16.375 30.9086 13.3666C29.7919 13.3666 28.7086 13.3666 27.6169 13.375C27.5336 13.375 27.4336 13.4583 27.3752 13.5333C26.9586 14.0833 26.5502 14.6416 26.1086 15.225ZM6.96689 26.6666C6.96689 21.5083 6.96689 16.3916 6.96689 11.2583C6.08356 11.2583 5.21689 11.2583 4.33356 11.2583C4.32523 11.3666 4.31689 11.4583 4.31689 11.55C4.31689 11.9666 4.32523 12.3833 4.31689 12.8C4.30856 13.1583 4.10856 13.3666 3.79189 13.3666C3.48356 13.3666 3.27523 13.15 3.25856 12.8C3.25023 12.6583 3.25856 12.5083 3.25856 12.3666C3.25856 12 3.25856 11.625 3.25856 11.2666C1.85023 11.075 1.10856 11.9666 1.11689 13.125C1.15023 17.6833 1.13356 22.25 1.13356 26.8166C1.13356 26.9333 1.13356 27.05 1.13356 27.2416C2.12523 26.45 3.25023 26.775 4.32523 26.6666C4.32523 26.1416 4.3169 25.6416 4.32523 25.1416C4.33356 24.775 4.55856 24.55 4.87523 24.5583C5.18356 24.5666 5.37523 24.7833 5.38356 25.1416C5.39189 25.3583 5.38356 25.575 5.38356 25.8C5.38356 26.0833 5.38356 26.375 5.38356 26.6666C5.93356 26.6666 6.44189 26.6666 6.96689 26.6666ZM23.2002 16.4666C25.3086 14.7416 26.9586 12.7666 27.8752 10.2416C28.4086 8.7833 28.6919 7.26663 28.4836 5.71663C28.1586 3.29163 26.0919 1.36663 23.7002 1.19163C21.1586 0.999965 18.8836 2.5333 18.1502 4.91663C17.7336 6.26663 17.9002 7.61663 18.1919 8.94996C18.6919 11.2416 19.9002 13.15 21.4836 14.8333C22.0169 15.4 22.6169 15.9166 23.2002 16.4666ZM23.2169 18.7C24.1669 18.7 25.0919 18.4166 25.6419 17.9583C26.3169 17.4 26.2919 16.6666 25.5836 16.1583C25.4169 16.0416 25.3086 16.025 25.1336 16.1833C24.6586 16.6166 24.1669 17.0333 23.6669 17.4333C23.3252 17.7083 23.1336 17.7083 22.8086 17.4416C22.3002 17.0333 21.8002 16.6083 21.3086 16.175C21.1502 16.0333 21.0502 16.025 20.8836 16.1416C20.1586 16.6416 20.1169 17.4 20.7919 17.9583C20.9169 18.0666 21.0586 18.15 21.2086 18.2333C21.8336 18.5666 22.5169 18.675 23.2169 18.7Z" fill="#26A387"/>
<path d="M17.5087 26.9417C17.0754 26.6333 16.6587 26.3667 16.292 26.05C16.1504 25.9333 16.042 25.6667 16.067 25.5C16.092 25.3417 16.3087 25.1667 16.4753 25.1083C16.6087 25.0667 16.817 25.1583 16.9503 25.25C17.392 25.5417 17.817 25.85 18.242 26.1667C18.3753 26.2667 18.4587 26.2667 18.592 26.1667C19.017 25.85 19.4504 25.5417 19.8837 25.2417C20.2087 25.0083 20.517 25.0333 20.7087 25.3C20.9004 25.5667 20.8337 25.8583 20.5087 26.1C20.1337 26.375 19.7587 26.6417 19.342 26.9417C19.6837 27.1833 19.992 27.4083 20.3004 27.6333C20.4004 27.7083 20.5087 27.775 20.6003 27.8583C20.842 28.0667 20.8837 28.3417 20.717 28.5833C20.5504 28.825 20.242 28.8917 19.9753 28.7083C19.5587 28.4333 19.1504 28.15 18.7587 27.8417C18.517 27.65 18.342 27.625 18.092 27.8333C17.7254 28.1333 17.3253 28.4 16.9337 28.6667C16.617 28.8833 16.3003 28.85 16.117 28.575C15.942 28.3083 16.017 28.025 16.3253 27.8C16.7087 27.5167 17.0837 27.25 17.5087 26.9417Z" fill="#26A387"/>
<path d="M10.9418 16.2999C10.7418 16.1666 10.5752 16.0666 10.4252 15.9416C10.1585 15.7416 10.1085 15.4499 10.2752 15.1999C10.4418 14.9499 10.7335 14.8916 11.0168 15.0666C11.2585 15.2082 11.4918 15.3666 11.7168 15.5332C11.8502 15.6332 11.9585 15.6416 12.1002 15.5416C12.3252 15.3749 12.5585 15.2166 12.8002 15.0749C13.0835 14.8999 13.3752 14.9582 13.5418 15.1999C13.7085 15.4416 13.6585 15.7416 13.4002 15.9416C13.2502 16.0582 13.0835 16.1666 12.8918 16.2999C13.0752 16.4249 13.2335 16.5332 13.3918 16.6499C13.6668 16.8582 13.7252 17.1666 13.5418 17.4166C13.3752 17.6499 13.0752 17.6999 12.7918 17.5249C12.5585 17.3832 12.3335 17.2416 12.1168 17.0749C11.9668 16.9582 11.8502 16.9749 11.7002 17.0832C11.4835 17.2416 11.2585 17.3916 11.0252 17.5332C10.7335 17.7082 10.4252 17.6416 10.2585 17.3832C10.1002 17.1332 10.1668 16.8499 10.4335 16.6499C10.5835 16.5332 10.7418 16.4332 10.9418 16.2999Z" fill="#26A387"/>
<path d="M22.775 22.5333C22.8167 22.4667 22.8667 22.3083 22.975 22.2167C23.4333 21.8333 23.9083 21.4667 24.3833 21.1C24.65 20.9 24.9333 20.9167 25.1333 21.1417C25.3167 21.3417 25.3333 21.6667 25.125 21.8417C24.6333 22.2667 24.125 22.6833 23.5917 23.05C23.225 23.3083 22.7667 23.0333 22.775 22.5333Z" fill="#26A387"/>
<path d="M17.2337 20.2167C17.7171 20.3583 18.2087 20.475 18.6754 20.65C19.0171 20.775 19.1337 21.0917 19.0087 21.375C18.8837 21.6583 18.5921 21.725 18.2421 21.6167C17.8921 21.5 17.5254 21.4083 17.1671 21.3583C16.7837 21.3 16.5754 21.1333 16.5837 20.8167C16.5754 20.4833 16.8171 20.2833 17.2337 20.2167Z" fill="#26A387"/>
<path d="M26.8502 20.2167C27.3335 20.3667 27.8251 20.4833 28.2918 20.6667C28.6168 20.7917 28.7168 21.1 28.5835 21.3833C28.4501 21.6667 28.1752 21.7417 27.8418 21.6333C27.4918 21.5167 27.1252 21.4167 26.7668 21.3667C26.3668 21.3083 26.1335 21.1333 26.1418 20.8167C26.1502 20.475 26.4168 20.275 26.8502 20.2167Z" fill="#26A387"/>
<path d="M12.0334 23.5333C11.6 23.4 11.1584 23.2916 10.7417 23.125C10.375 22.9833 10.2584 22.6666 10.4084 22.375C10.5501 22.0916 10.8334 22.0416 11.1834 22.1499C11.55 22.2666 11.9417 22.3333 12.325 22.4083C12.6417 22.4666 12.8584 22.6833 12.8417 22.9666C12.8251 23.2583 12.6001 23.4583 12.2751 23.4666C12.2001 23.4666 12.1334 23.4666 12.0584 23.4666C12.0417 23.5 12.0417 23.5166 12.0334 23.5333Z" fill="#26A387"/>
<path d="M21.6171 22.7499C21.6005 23.2082 21.2838 23.4916 20.9755 23.3666C20.5005 23.1749 20.0421 22.9332 19.6005 22.6666C19.3505 22.5082 19.3505 22.1749 19.5255 21.9499C19.6921 21.7416 19.9755 21.6999 20.2255 21.8332C20.5838 22.0249 20.9505 22.1833 21.2921 22.3916C21.4505 22.4833 21.5505 22.6749 21.6171 22.7499Z" fill="#26A387"/>
<path d="M15.7584 21.4666C15.6501 21.6416 15.5917 21.7999 15.4751 21.9083C15.2084 22.1666 14.9167 22.4 14.6334 22.6416C14.3501 22.875 14.0417 22.8583 13.8334 22.6083C13.6417 22.3749 13.6751 22.0666 13.9334 21.8416C14.2251 21.5833 14.5084 21.2999 14.8417 21.0916C14.9834 20.9999 15.2417 20.9833 15.4084 21.0499C15.5501 21.0999 15.6334 21.3083 15.7584 21.4666Z" fill="#26A387"/>
<path d="M23.2251 2.19168C25.5751 2.19168 27.4918 4.10834 27.4918 6.45834C27.4918 8.81668 25.5501 10.7333 23.1835 10.7167C20.8585 10.7 18.9668 8.78334 18.9668 6.46668C18.9751 4.10834 20.8835 2.18334 23.2251 2.19168ZM26.4168 6.45834C26.4168 4.70001 24.9835 3.25834 23.2251 3.25834C21.4585 3.25834 20.0335 4.67501 20.0251 6.45001C20.0168 8.20001 21.4585 9.65001 23.2168 9.65001C24.9835 9.65001 26.4168 8.21668 26.4168 6.45834Z" fill="#26A387"/>
</g>
<defs>
<clipPath id="clip0_238_106307">
<rect width="32" height="32" fill="white"/>
</clipPath>
</defs>
</svg>
