<svg width="35" height="35" viewBox="0 0 35 35" fill="none" xmlns="http://www.w3.org/2000/svg">
<g clip-path="url(#clip0_300_1626)">
<path d="M0.409358 35.0002C0.313655 34.8088 0.13592 34.6174 0.129084 34.4192C0.115413 31.6096 0.0880688 28.8001 0.129084 25.9905C0.163264 23.7688 1.58514 22.1008 3.77947 21.5676C5.09198 21.2463 6.39764 20.925 7.71014 20.6038C8.37323 20.4397 8.7492 19.7219 8.50994 19.0862C8.48944 19.0315 8.42791 18.9768 8.37323 18.9426C6.49334 17.6301 5.57049 15.8186 5.52948 13.5354C5.52948 13.5149 5.5158 13.4944 5.50213 13.467C5.30389 13.4397 5.10565 13.426 4.9074 13.3782C3.5744 13.0432 3.02752 11.4915 3.87518 10.4114C4.00506 10.2405 4.05291 10.1243 3.95037 9.91235C3.56756 9.10571 3.87518 8.20337 4.67498 7.79321C4.87323 7.69067 4.92108 7.5813 4.92108 7.37622C4.91424 6.26196 4.91424 5.14771 4.92108 4.03345C4.92791 1.7981 6.64373 0.0686035 8.86541 0.0686035C10.8888 0.0617676 12.9123 0.0617676 14.9357 0.0686035C17.1301 0.0754395 18.8664 1.80493 18.8869 4.0061C18.8937 5.13403 18.8869 6.25513 18.8937 7.38306C18.8937 7.5061 18.9621 7.677 19.051 7.73852C20.008 8.31274 20.2404 9.12622 19.7277 10.1448C20.8556 11.8264 20.2609 13.2004 18.3127 13.467C18.2238 14.0618 18.1896 14.6702 18.0461 15.2444C17.6769 16.7209 16.8703 17.9309 15.6125 18.7922C15.1818 19.0862 15.2502 19.4348 15.298 19.7971C15.3459 20.1731 15.6056 20.4192 15.9953 20.4876C16.9045 20.6448 17.8068 20.7952 18.716 20.9456C20.466 21.2395 21.7785 22.1487 22.6467 23.6936C23.1662 24.6233 23.6584 25.5735 24.1642 26.51C24.1984 26.5715 24.2326 26.6262 24.2941 26.7219C24.3898 26.6194 24.4787 26.5374 24.5539 26.4485C26.1056 24.678 27.6506 22.9075 29.2092 21.1438C29.3732 20.9592 29.4279 20.7747 29.4279 20.5354C29.4211 15.7913 29.4211 11.054 29.4279 6.30981C29.4279 6.15942 29.4211 6.00903 29.4553 5.87231C29.5715 5.27759 30.214 5.00415 30.6857 5.37329C31.8752 6.30981 33.051 7.26001 34.2062 8.23755C34.7258 8.67505 34.6711 9.40649 34.1105 9.87134C33.0783 10.7258 32.0461 11.5872 30.9797 12.4006C30.5969 12.6946 30.4601 12.9954 30.467 13.4739C30.4943 15.5452 30.4806 17.6096 30.4806 19.6809C30.4806 19.804 30.4806 19.927 30.4806 19.9817C30.9523 19.9817 31.4035 19.927 31.8342 19.9885C33.8029 20.2893 34.7189 22.6067 33.4611 24.1516C32.4699 25.3684 31.4103 26.5237 30.3781 27.7063C29.8312 28.3284 29.298 28.9641 28.7306 29.5725C28.6076 29.7024 28.3547 29.7913 28.1701 29.7776C28.0402 29.7639 27.842 29.5657 27.8215 29.4221C27.7941 29.2512 27.8762 29.0188 27.9992 28.8821C28.8195 27.9114 29.6672 26.9612 30.508 25.9973C30.59 25.9016 30.6652 25.8059 30.7267 25.7375C29.9816 24.9924 29.257 24.2678 28.5119 23.5227C27.9582 24.1584 27.3771 24.8147 26.8029 25.4709C26.256 26.093 25.7092 26.7219 25.1623 27.344C24.5334 28.0549 23.7814 27.9592 23.3303 27.1252C22.8586 26.2434 22.3664 25.3752 21.9152 24.4797C21.1428 22.9553 19.9123 22.1213 18.2306 21.9026C17.8342 21.8547 17.4445 21.7795 17.0549 21.7112C16.8498 21.6702 16.7131 21.7112 16.5763 21.9094C14.3615 25.2454 9.64471 25.3069 7.31365 22.0325C7.19744 21.8684 7.10174 21.8206 6.89666 21.8752C5.86444 22.1487 4.82537 22.3743 3.79315 22.6545C2.20721 23.0784 1.16131 24.4524 1.15447 26.093C1.14764 28.8206 1.14764 31.5481 1.15447 34.2825C1.15447 34.5901 1.07928 34.8362 0.812678 35.0071C0.682795 35.0002 0.546077 35.0002 0.409358 35.0002ZM6.00115 7.21899C6.02166 7.21216 6.08319 7.21216 6.13104 7.19165C7.71697 6.64477 9.35076 6.28931 11.0256 6.25513C12.0988 6.23462 13.1789 6.32349 14.2521 6.39185C14.5734 6.41235 14.7512 6.69263 14.717 6.95923C14.676 7.24634 14.4094 7.45142 14.0881 7.40356C12.5773 7.20532 11.0734 7.21216 9.56951 7.41724C8.06561 7.62231 6.61639 8.03247 5.23553 8.66138C5.06463 8.74341 4.88006 8.96899 4.84588 9.1604C4.75701 9.65942 5.2492 9.95337 5.76873 9.72778C7.12225 9.13989 8.53045 8.76392 9.99334 8.60669C12.7619 8.31274 15.4553 8.6272 18.0324 9.73462C18.4357 9.90552 18.7639 9.78931 18.9142 9.44067C19.0578 9.11255 18.9142 8.7981 18.5041 8.64087C17.8478 8.38794 17.1916 8.14868 16.5217 7.91626C16.0978 7.76587 15.9269 7.54028 16.0363 7.20532C16.132 6.91821 16.4123 6.80884 16.8019 6.92505C17.1369 7.02075 17.465 7.13013 17.8205 7.2395C17.8205 6.07739 17.8615 4.94946 17.8137 3.82837C17.7453 2.29028 16.549 1.1145 15.0041 1.09399C12.926 1.05981 10.841 1.06665 8.76287 1.09399C7.39569 1.1145 6.13104 2.13989 6.02166 3.43188C5.91912 4.68286 6.00115 5.95435 6.00115 7.21899ZM6.56854 12.4963C6.5617 12.4963 6.54803 12.4963 6.54119 12.4963C6.57537 13.1663 6.54803 13.843 6.65057 14.4993C7.10174 17.3772 9.82244 19.3459 12.7414 18.9084C15.1203 18.553 17.1369 16.3723 17.1984 13.9797C17.2258 12.9543 17.1916 11.9358 17.2189 10.9104C17.2258 10.5823 17.1027 10.4592 16.8224 10.3635C15.3254 9.83032 13.7805 9.53638 12.1877 9.5022C10.3283 9.46802 8.52362 9.77563 6.78729 10.4456C6.68475 10.4866 6.57537 10.6506 6.57537 10.76C6.5617 11.3411 6.56854 11.9221 6.56854 12.4963ZM8.22967 21.554C9.28924 22.8733 10.6222 23.509 12.2697 23.386C13.6574 23.2834 14.7717 22.634 15.6193 21.4788C14.7306 21.1233 14.2726 20.5081 14.2385 19.5784C12.673 20.1594 11.1281 20.1526 9.56951 19.5784C9.56268 20.5217 9.12518 21.1643 8.22967 21.554ZM31.4924 24.8694C31.882 24.4182 32.3127 23.9602 32.6955 23.4749C33.1808 22.8459 33.0715 21.9094 32.4836 21.3762C31.8957 20.843 30.9523 20.8362 30.3849 21.4036C29.9816 21.8001 29.6262 22.2444 29.2775 22.6409C30.009 23.386 30.7404 24.1106 31.4924 24.8694ZM33.5363 9.00317C32.5178 8.17603 31.5334 7.37622 30.5148 6.54907C30.5148 8.21021 30.5148 9.80298 30.5148 11.4573C31.5402 10.6233 32.5246 9.82349 33.5363 9.00317ZM5.5158 10.8694C5.17401 10.8489 4.84588 10.7258 4.6408 11.095C4.4699 11.3958 4.4494 11.6965 4.63397 11.9905C4.83221 12.3118 5.13299 12.4211 5.5158 12.387C5.5158 11.8811 5.5158 11.3889 5.5158 10.8694ZM18.2853 10.8694C18.2853 11.3821 18.2853 11.8743 18.2853 12.387C18.675 12.4211 18.9758 12.2913 19.1672 11.9768C19.3381 11.6897 19.3176 11.3958 19.1603 11.1018C18.9621 10.7327 18.634 10.8352 18.2853 10.8694Z" fill="#26A387"/>
<path d="M20.1303 35.0004C19.8705 34.8295 19.7885 34.5834 19.7953 34.2758C19.809 33.0727 19.8021 31.8696 19.8021 30.6665C19.8021 30.393 19.8773 30.1674 20.1439 30.0581C20.4174 29.9487 20.7387 30.1127 20.8139 30.3999C20.8344 30.475 20.848 30.5639 20.8344 30.6391C20.6977 31.3842 21.0121 31.9106 21.5795 32.3618C21.9008 32.6147 22.1605 32.936 22.4545 33.2231C23.0082 33.7495 23.7465 33.7221 24.2592 33.1479C24.9086 32.4165 25.5443 31.6782 26.1869 30.9399C26.2484 30.8715 26.3031 30.7963 26.3715 30.7348C26.5971 30.5366 26.8705 30.5297 27.0756 30.728C27.2875 30.9331 27.3148 31.1928 27.1371 31.4047C26.351 32.3139 25.5854 33.2573 24.7309 34.0913C23.9311 34.8774 22.6049 34.7817 21.7641 33.9819C21.477 33.7084 21.2103 33.4145 20.9369 33.1274C20.9027 33.1342 20.8754 33.1479 20.8412 33.1547C20.8412 33.5102 20.8275 33.8588 20.848 34.2143C20.8617 34.5288 20.8002 34.7954 20.5473 34.9936C20.4037 35.0004 20.267 35.0004 20.1303 35.0004Z" fill="#26A387"/>
<path d="M5.59714 35.0002C5.35104 34.8156 5.28268 34.5559 5.28952 34.2551C5.29636 33.093 5.29636 31.9377 5.29636 30.7756C5.29636 30.6867 5.29636 30.591 5.31003 30.5022C5.35104 30.2014 5.54929 30.01 5.82956 30.0236C6.14401 30.0373 6.30124 30.2287 6.34225 30.5158C6.36276 30.6936 6.34909 30.8781 6.34909 31.0627C6.34909 32.1291 6.34225 33.2023 6.35593 34.2688C6.36276 34.5764 6.28073 34.8225 6.02096 35.0002C5.87057 35.0002 5.73386 35.0002 5.59714 35.0002Z" fill="#26A387"/>
<path d="M11.8942 16.9463C11.4362 16.8028 10.9918 16.6865 10.568 16.5156C10.2604 16.3926 10.1852 16.1055 10.3083 15.8389C10.4313 15.5723 10.7047 15.4561 10.9987 15.5996C11.6002 15.8936 12.1881 15.8936 12.7965 15.6065C13.0836 15.4698 13.3708 15.5791 13.4938 15.8321C13.61 16.085 13.528 16.4063 13.2409 16.5156C12.8102 16.6865 12.359 16.7959 11.8942 16.9463Z" fill="#26A387"/>
<path d="M9.60327 12.175C9.60327 12.3664 9.61694 12.5646 9.59643 12.756C9.56909 13.0636 9.33667 13.2892 9.06323 13.2687C8.76245 13.2482 8.57788 13.0636 8.56421 12.7629C8.5437 12.3801 8.5437 11.9904 8.56421 11.6076C8.58472 11.3136 8.75561 11.1291 9.07007 11.1222C9.36401 11.1154 9.56909 11.3136 9.59643 11.6349C9.61694 11.8127 9.60327 11.9972 9.60327 12.175Z" fill="#26A387"/>
<path d="M15.2231 12.2022C15.2231 12.3936 15.2368 12.5918 15.2231 12.7832C15.2026 13.0772 14.9839 13.2891 14.7104 13.2686C14.4301 13.2481 14.2251 13.0909 14.2114 12.8037C14.1841 12.3936 14.1909 11.9834 14.2114 11.5801C14.2251 11.293 14.4643 11.1016 14.7446 11.1221C15.0317 11.1426 15.2026 11.2998 15.2231 11.5938C15.2368 11.792 15.2231 11.9971 15.2231 12.2022Z" fill="#26A387"/>
</g>
<defs>
<clipPath id="clip0_300_1626">
<rect width="34.5898" height="35" fill="white"/>
</clipPath>
</defs>
</svg>
