<svg width="20" height="20" viewBox="0 0 20 20" fill="none" xmlns="http://www.w3.org/2000/svg">
<path d="M16.875 11.25H3.125C1.74437 11.25 0.625 10.1306 0.625 8.75V6.25C0.625 4.86937 1.74437 3.75 3.125 3.75H6.96938C7.31437 3.75 7.59438 4.03 7.59438 4.375C7.59438 4.72 7.31437 5 6.96938 5H3.125C2.43438 5 1.875 5.55938 1.875 6.25V8.75C1.875 9.44063 2.43438 10 3.125 10H16.875C17.5656 10 18.125 9.44063 18.125 8.75V6.875C18.125 6.53 18.405 6.25 18.75 6.25C19.095 6.25 19.375 6.53 19.375 6.875V8.75C19.375 10.1306 18.2556 11.25 16.875 11.25Z" fill="white"/>
<path d="M15.625 13.437H4.375C4.02982 13.437 3.75 13.7168 3.75 14.062C3.75 14.4072 4.02982 14.687 4.375 14.687H15.625C15.9702 14.687 16.25 14.4072 16.25 14.062C16.25 13.7168 15.9702 13.437 15.625 13.437Z" fill="white"/>
<path d="M13.4375 16.5625H6.5625C6.21732 16.5625 5.9375 16.8423 5.9375 17.1875C5.9375 17.5327 6.21732 17.8125 6.5625 17.8125H13.4375C13.7827 17.8125 14.0625 17.5327 14.0625 17.1875C14.0625 16.8423 13.7827 16.5625 13.4375 16.5625Z" fill="white"/>
<path d="M13.125 8.125C11.0569 8.125 9.375 6.44312 9.375 4.375C9.375 2.30687 11.0569 0.625 13.125 0.625C15.1931 0.625 16.875 2.30687 16.875 4.375C16.875 6.44312 15.1931 8.125 13.125 8.125ZM13.125 1.875C11.7462 1.875 10.625 2.99625 10.625 4.375C10.625 5.75375 11.7462 6.875 13.125 6.875C14.5037 6.875 15.625 5.75375 15.625 4.375C15.625 2.99625 14.5037 1.875 13.125 1.875Z" fill="white"/>
</svg>
