<svg width="20" height="20" viewBox="0 0 20 20" fill="none" xmlns="http://www.w3.org/2000/svg">
<path d="M10.9375 19.375H9.0625M11.5625 17.5H8.4375M9.84375 0.625V1.5625M2.1875 8.28125H3.125M16.875 8.28125H17.5M4.42969 13.6953L5.09219 13.0328M14.8156 3.30938L15.2578 2.86719M4.42969 2.86719L5.09219 3.52969M14.8156 13.2531L15.2578 13.6953M8.125 9.375H11.875M10 9.375V15.4688M12.0312 15.625C12.0312 12.6562 13.4375 11.875 13.4375 11.875C15.3906 9.92188 15.4875 6.85469 13.5359 4.90156C12.5983 3.96411 11.3267 3.43747 10.0008 3.43747C8.67488 3.43747 7.40328 3.96411 6.46563 4.90156C4.5125 6.85469 4.60938 9.92188 6.5625 11.875C6.5625 11.875 7.96875 12.6562 7.96875 15.625H12.0312Z" stroke="#26A387" stroke-linecap="round" stroke-linejoin="round"/>
</svg>
