<svg width="35" height="35" viewBox="0 0 35 35" fill="none" xmlns="http://www.w3.org/2000/svg">
<g clip-path="url(#clip0_384_6925)">
<path fill-rule="evenodd" clip-rule="evenodd" d="M16.9423 0.271318V0.542636H16.5401C16.3189 0.542636 15.9526 0.551529 15.7261 0.562382L15.3144 0.582127V0.833699V1.08527H14.7717H14.2291V1.3559V1.62655L13.6789 1.63475L13.1288 1.64298L13.1201 1.90332L13.1114 2.1637L12.5699 2.18568L12.0284 2.20762V2.45573V2.70383L11.6167 2.72358C11.3902 2.73443 11.0245 2.74332 10.8039 2.74332H10.4029L10.3942 3.00711L10.3854 3.27089L9.83527 3.27912L9.2851 3.28732V3.55797V3.8286H8.74246H8.19983V9.57149V15.3144H8.47115H8.74246V15.7166C8.74246 15.9378 8.75136 16.3041 8.76221 16.5306L8.78195 16.9423H9.03241H9.28284L9.29149 17.2211L9.30017 17.5L9.56281 17.5087L9.82541 17.5174L9.83413 17.78L9.84281 18.0426L10.1054 18.0513L10.368 18.06L10.3768 18.3226L10.3854 18.5853L10.6643 18.594L10.9432 18.6026V18.8728V19.143H11.2145H11.4858V19.4143V19.6856H12.0284H12.5711V19.9558V20.226L12.8499 20.2346L13.1288 20.2433L13.1374 20.5035L13.1461 20.7637L13.6714 20.7855L14.1967 20.8074L14.2054 21.068L14.214 21.3286L14.4929 21.3373L14.7717 21.3459V21.6161V21.8863H15.0431H15.3144V22.1391V22.3919L15.857 22.4139L16.3997 22.4359V22.7037V22.9716H16.686H16.9724V23.2429V23.5142H17.5H18.0276V23.2429V22.9716H18.314H18.6003V22.7037V22.4359L19.143 22.4139L19.6856 22.3919V22.1391V21.8863H19.9569H20.2283V21.6161V21.3459L20.5071 21.3373L20.786 21.3286L20.7946 21.0678L20.8033 20.807L21.3448 20.7851L21.8863 20.7632V20.4957V20.2283H22.1576H22.4289V19.9569V19.6856H22.9716H23.5142V19.4143V19.143H23.7855H24.0568V18.8717V18.6003H24.3282H24.5995V18.3302V18.06L24.8783 18.0513L25.1572 18.0426L25.1659 17.78L25.1746 17.5174L25.4372 17.5087L25.6998 17.5L25.7085 17.2211L25.7172 16.9423H25.9676H26.2181L26.2377 16.5579C26.2485 16.3465 26.2574 15.9802 26.2574 15.744L26.2575 15.3144H26.5289H26.8002V9.57149V3.8286H26.2575H25.7149V3.55797V3.28732L25.1647 3.27912L24.6146 3.27089L24.6058 3.00711L24.5971 2.74332H24.0557H23.5142V2.47671V2.21006L23.0846 2.19041C22.8484 2.17962 22.4826 2.17072 22.2718 2.17066L21.8887 2.17054L21.8799 1.90676L21.8712 1.64298L21.3211 1.63475L20.7709 1.62655V1.3559V1.08527H20.2283H19.6856V0.813954V0.542636H18.8717H18.0577V0.271318V0H17.5H16.9423V0.271318ZM16.9724 1.36798V1.62058L16.4147 1.64259L15.857 1.6646V1.91409V2.16361L15.3144 2.18562L14.7717 2.20762V2.45714V2.70664L14.214 2.72864L13.6563 2.75065V2.99857V3.2465L13.272 3.26612C13.0606 3.27689 12.6943 3.28578 12.458 3.28584L12.0284 3.28596V3.55728V3.8286H11.4858H10.9432V4.09991V4.37123H10.3854H9.82773V4.64137V4.91152L9.56395 4.92023L9.30017 4.92894L9.29089 9.27003C9.28579 11.6576 9.29065 13.8722 9.30171 14.1914L9.32185 14.7717H9.57478H9.82773V15.174C9.82773 15.3952 9.83663 15.7615 9.84748 15.9879L9.86723 16.3997H10.1339H10.4005V16.6698V16.9399L10.6643 16.9487L10.9281 16.9574L10.9368 17.2362L10.9454 17.5151H11.2156H11.4858V17.7864V18.0577H11.7571H12.0284V18.3105V18.5633L12.5711 18.5853L13.1137 18.6073V18.8751V19.143H13.4001H13.6865V19.4143V19.6856H14.214H14.7416V19.9569V20.2283H15.028H15.3144V20.4996V20.7709H15.5857H15.857V21.0387V21.3066L16.3985 21.3285L16.94 21.3505L16.9487 21.6109L16.9574 21.8712H17.5H18.0426L18.0513 21.6109L18.06 21.3505L18.6015 21.3285L19.143 21.3066V21.0387V20.7709H19.4143H19.6856V20.4996V20.2283H20.2283H20.7709V19.9569V19.6856H21.0422H21.3135V19.4143V19.143H21.5999H21.8863V18.8751V18.6073L22.4289 18.5853L22.9716 18.5633V18.3105V18.0577H23.2429H23.5142V17.7864V17.5151H23.7855H24.0568V17.2287V16.9423H24.3282H24.5995V16.671V16.3997H24.8708H25.1421V15.9974C25.1421 15.7762 25.151 15.4099 25.1619 15.1835L25.1816 14.7717H25.4299H25.6782L25.6983 14.1914C25.7094 13.8722 25.7142 11.6576 25.7091 9.27003L25.6998 4.92894L25.4372 4.92026L25.1746 4.91155L25.1659 4.64894L25.1572 4.3863L24.607 4.37808L24.0568 4.36987V4.09922V3.8286H23.5142H22.9716V3.55728V3.28596L22.542 3.28584C22.3057 3.28578 21.9395 3.27689 21.728 3.26612L21.3437 3.2465V2.99857V2.75065L20.786 2.72864L20.2283 2.70664V2.45714V2.20762L19.6856 2.18562L19.143 2.16361V1.91409V1.6646L18.5853 1.64259L18.0276 1.62058V1.36798V1.11542H17.5H16.9724V1.36798ZM16.6936 2.73567L16.3997 2.7455V2.9974V3.24927L15.8419 3.27128L15.2842 3.29329V3.56096V3.8286H14.4854H13.6865V4.09991V4.37123H13.1288H12.5711V4.64255V4.91387H12.0284H11.4858V5.18133V5.44882L10.9432 5.47076L10.4005 5.49271V10.1322V14.7717H10.6718H10.9432V15.3144V15.857H11.2145H11.4858V16.1283V16.3997H11.7571H12.0284V16.671V16.9423H12.2997H12.5711V17.2101V17.478L13.1137 17.5L13.6563 17.522V17.7899V18.0577H13.9427H14.2291V18.329V18.6003H14.5004H14.7717V18.8717V19.143H15.3144H15.857V19.4143V19.6856H16.1283H16.3997V19.9533V20.2209L16.9543 20.2428C17.2594 20.2548 17.7545 20.2547 18.0546 20.2426L18.6003 20.2206V19.9531V19.6856H18.8717H19.143V19.4143V19.143H19.6856H20.2283V18.8717V18.6003H20.4996H20.7709V18.329V18.0577H21.0573H21.3437V17.7899V17.522L21.8863 17.5L22.4289 17.478V17.2101V16.9423H22.7003H22.9716V16.671V16.3997H23.2429H23.5142V16.1283V15.857H23.7855H24.0568V15.3144V14.7717H24.3282H24.5995V10.1322V5.49271L24.0568 5.47076L23.5142 5.44882V5.18133V4.91387H22.9716H22.4289V4.64255V4.37123H21.8712H21.3135V4.09991V3.8286H20.4996H19.6856V3.56075V3.29289L19.143 3.27089L18.6003 3.24888V3.00078V2.7527L18.1708 2.73304C17.7566 2.71411 17.313 2.7149 16.6936 2.73567ZM16.9423 4.09991V4.37123H16.5401C16.3189 4.37123 15.9526 4.38013 15.7261 4.39098L15.3144 4.41072V4.6623V4.91387H14.7717H14.2291V5.18151V5.44918L13.6714 5.47118L13.1137 5.49319V5.74268V5.99221L12.5711 6.01421L12.0284 6.03622V6.30407V6.57192H11.7571H11.4858V10.3854V14.199H11.7571H12.0284V14.7567V15.3144H12.2997H12.5711V15.5857V15.857H12.8424H13.1137V16.1283V16.3997H13.4001H13.6865V16.6675V16.9354L14.2291 16.9574L14.7717 16.9794V17.231V17.4826L15.0355 17.4913L15.2993 17.5L15.308 17.7603L15.3166 18.0207L15.8581 18.0427L16.3997 18.0646V18.3325V18.6003H16.6698H16.9399L16.9487 18.8641L16.9574 19.1279H17.5H18.0426L18.0513 18.8641L18.0601 18.6003H18.3302H18.6003V18.3325V18.0646L19.143 18.0426L19.6856 18.0206V17.7528V17.4849H19.9569H20.2283V17.2321V16.9794L20.7709 16.9574L21.3135 16.9354V16.6675V16.3997H21.5999H21.8863V16.1283V15.857H22.1576H22.4289V15.5857V15.3144H22.7003H22.9716V14.7567V14.199H23.2429H23.5142V10.3854V6.57192H23.2429H22.9716V6.30407V6.03622L22.4289 6.01421L21.8863 5.99221V5.74268V5.49319L21.3286 5.47118L20.7709 5.44918V5.18151V4.91387H20.2283H19.6856V4.6623V4.41072L19.2739 4.39098C19.0474 4.38013 18.6811 4.37123 18.4599 4.37123H18.0577V4.09991V3.8286H17.5H16.9423V4.09991ZM20.2283 7.65719V8.19983H19.9569H19.6856V8.47115V8.74246H19.4143H19.143V9.2851V9.82773H18.8717H18.6003V10.1141V10.4005H18.3325H18.0646L18.0426 10.9432L18.0206 11.4858H17.7528H17.4849V11.7571V12.0284H17.2321H16.9794L16.9574 12.5711L16.9354 13.1137H16.6675H16.3997V13.385V13.6563H16.1283H15.857V13.4036V13.1508L15.3144 13.1288L14.7717 13.1068V12.8389V12.5711H14.4854H14.199V12.2997V12.0284H13.9474H13.6958L13.6758 12.4473C13.6648 12.6777 13.6647 13.0435 13.6757 13.2601L13.6956 13.6541L13.9548 13.6628L14.214 13.6714L14.2227 13.9317L14.2314 14.1921L14.7729 14.2141L15.3144 14.236V14.5039V14.7717H15.5857H15.857V15.0431V15.3144H16.1283H16.3997V15.0442V14.774L16.6785 14.7654L16.9574 14.7567L16.9661 14.4929L16.9748 14.2291H17.2287H17.4827L17.4913 13.9503L17.5 13.6714L17.7608 13.6628L18.0216 13.6541L18.0435 13.1126L18.0654 12.5711H18.3329H18.6003V12.2997V12.0284H18.8717H19.143V11.4858V10.9432H19.4143H19.6856V10.6568V10.3704H19.9569H20.2283V9.84281V9.31525H20.4996H20.7709V9.02885V8.74246H21.0375H21.3042L21.3239 8.33072C21.3348 8.10426 21.3437 7.73798 21.3437 7.51677V7.11456H20.786H20.2283V7.65719ZM1.08527 15.5857V15.857H0.813954H0.542636V16.1283V16.3997H0.271318H0V17.2287V18.0577H0.271318H0.542636V18.6003V19.143H0.813954H1.08527V19.5452C1.08527 19.7664 1.09416 20.1327 1.10502 20.3591L1.12476 20.7709H1.37248H1.62022L1.64217 21.3135L1.66411 21.8562H1.91366H2.16322L2.18522 22.4139L2.20723 22.9716H2.45672H2.70624L2.72825 23.5142L2.75026 24.0568H3.01811H3.28596V24.3282V24.5995H3.55728H3.8286V24.8708V25.1421H4.09991H4.37123V25.4285V25.7149H4.64255H4.91387V25.9862V26.2575H5.18519H5.4565V26.5289V26.8002H5.72782H5.99914V27.0715V27.3428H6.28553H6.57192V27.6141V27.8854H6.84324H7.11456V31.1714V34.4574H7.38587H7.65719V34.7287V35H11.4858H15.3144V34.7287V34.4574H15.5857H15.857V31.4578V28.4582H15.5868H15.3166L15.308 28.1794L15.2993 27.9005L15.0391 27.8919L14.7789 27.8832L14.7566 26.7991L14.7344 25.7149H14.4817H14.2291V25.2976C14.2291 25.0681 14.2202 24.695 14.2094 24.4686L14.1896 24.0568H13.9415H13.6934L13.6714 23.5142L13.6494 22.9716H13.3815H13.1137V22.7003V22.4289H12.8424H12.5711V22.1583V21.8877L12.0209 21.8795L11.4707 21.8712L11.4621 21.6109L11.4534 21.3505L10.9119 21.3285L10.3704 21.3066V21.0568V20.8071L9.82773 20.7851L9.2851 20.7632V20.4957V20.2283H9.01378H8.74246V19.9569V19.6856H8.19983H7.65719V19.4178V19.15L6.04629 19.1384C5.16028 19.132 4.42736 19.1187 4.4176 19.1089C4.4078 19.0991 4.39119 18.7365 4.3807 18.3031L4.36158 17.5151H4.09509H3.8286V16.9574V16.3997H3.55728H3.28596V16.1283V15.857H3.01464H2.74332V15.5857V15.3144H1.9143H1.08527V15.5857ZM32.2567 15.5857V15.857H31.9854H31.714V16.1283V16.3997H31.4427H31.1714V16.9574V17.5151H30.9049H30.6384L30.6193 18.3031C30.6088 18.7365 30.5922 19.0991 30.5824 19.1089C30.5726 19.1187 29.8397 19.132 28.9537 19.1384L27.3428 19.15V19.4178V19.6856H26.8002H26.2575V19.9569V20.2283H25.9862H25.7149V20.4957V20.7632L25.1723 20.7851L24.6296 20.8071V21.057V21.307L24.0719 21.329L23.5142 21.351V21.6187V21.8863H22.9716H22.4289V22.1576V22.4289H22.1576H21.8863V22.7003V22.9716H21.6185H21.3506L21.3287 23.5131L21.3067 24.0546L21.0463 24.0633L20.786 24.0719L20.7779 24.8934L20.7699 25.7149H20.4991H20.2283V26.8002V27.8854H19.9569H19.6856V28.1718V28.4582H19.4143H19.143V31.4578V34.4574H19.4143H19.6856V34.7287V35H23.5142H27.3428V34.7287V34.4574H27.6141H27.8854V31.1714V27.8854H28.1568H28.4281V27.6141V27.3428H28.6994H28.9707V27.0726V26.8024L29.2496 26.7938L29.5284 26.7851L29.5371 26.5213L29.5458 26.2575H29.816H30.0861V25.9862V25.7149H30.3575H30.6288V25.4285V25.1421H30.9001H31.1714V24.8708V24.5995H31.4427H31.714V24.3282V24.0568H31.9854H32.2567V23.5142V22.9716H32.5243H32.792L32.814 22.4139L32.836 21.8562H33.0855H33.335L33.357 21.3135L33.379 20.7709H33.6271H33.8752L33.895 20.3591C33.9058 20.1327 33.9147 19.7664 33.9147 19.5452V19.143H34.186H34.4574V18.6003V18.0577H34.7287H35V17.2287V16.3997H34.7287H34.4574V16.1283V15.857H34.186H33.9147V15.5857V15.3144H33.0857H32.2567V15.5857ZM1.62791 16.6687V16.9399L1.36413 16.9487L1.10034 16.9574V17.2287V17.5L1.36413 17.5087L1.62791 17.5174L1.62803 17.9308C1.62809 18.1581 1.63698 18.517 1.64774 18.7285L1.66737 19.1128H1.91529H2.16322L2.18522 19.6705L2.20723 20.2283H2.47526H2.74332V20.7697V21.3112L3.00711 21.3199L3.27089 21.3286L3.27912 21.8788L3.28732 22.4289H3.55797H3.8286V22.9716V23.5142H4.09991H4.37123V23.7855V24.0568H4.64255H4.91387V24.3282V24.5995H5.18519H5.4565V24.8697V25.1399L5.73536 25.1485L6.01421 25.1572L6.02289 25.436L6.03155 25.7149H6.30175H6.57192V25.9862V26.2575H6.84324H7.11456V26.5289V26.8002H7.38587H7.65719V27.0715V27.3428H7.92851H8.19983V27.6141V27.8854H10.9281H13.6563V27.3428V26.8002H13.4036H13.1509L13.1286 25.6998L13.1062 24.5995H12.8387H12.5711V24.0568V23.5142H12.2997H12.0284V23.2436V22.9729L11.4783 22.9647L10.9281 22.9565L10.9194 22.6927L10.9107 22.4289H10.3692H9.82773V22.1583V21.8877L9.29264 21.8795L8.75754 21.8712L8.74882 21.6075L8.74011 21.3437H8.46997H8.19983V21.0758V20.808L7.65719 20.786L7.11456 20.764V20.4956V20.2273L6.29307 20.2353L5.47158 20.2433L5.46286 20.5071L5.45415 20.7709H5.72553H5.99688L6.00553 21.0497L6.01421 21.3286L6.27685 21.3373L6.53945 21.346L6.54817 21.6086L6.55685 21.8712L6.8357 21.8799L7.11456 21.8886V22.1588V22.4289H7.38587H7.65719V22.7003V22.9716H7.92851H8.19983V23.2429V23.5142H8.47115H8.74246V24.3282V25.1421H8.48739H8.23233L8.22361 24.8783L8.2149 24.6146L7.93605 24.6059L7.65719 24.5972V24.327V24.0568H7.38587H7.11456V23.7855V23.5142H6.82817H6.54177V23.2429V22.9716H6.27046H5.99914V22.7003V22.4289H5.72782H5.4565V22.1576V21.8863H5.18519H4.91387V21.6162V21.346L4.65009 21.3373L4.3863 21.3286L4.37808 20.7935L4.36984 20.2584H4.09922H3.8286V19.7007V19.143H3.56114H3.29365L3.2717 18.6003L3.24975 18.0577H3.0002H2.75065L2.72864 17.5L2.70664 16.9423H2.45485H2.20304L2.19433 16.6785L2.18562 16.4147L1.90676 16.406L1.62791 16.3974V16.6687ZM32.7993 16.6698V16.9399L32.5355 16.9487L32.2717 16.9574L32.2635 17.5075L32.2553 18.0577H31.9847H31.714V18.6003V19.143H31.4427H31.1714V19.7007V20.2584H30.9008H30.6302L30.6219 20.7935L30.6137 21.3286L30.3499 21.3373L30.0861 21.346V21.6162V21.8863H29.8148H29.5435V22.1576V22.4289H29.2722H29.0009V22.7003V22.9716H28.7145H28.4281V23.2429V23.5142H28.1568H27.8854V23.7855V24.0568H27.6141H27.3428V24.327V24.5972L27.064 24.6059L26.7851 24.6146L26.7764 24.8783L26.7677 25.1421H26.5126H26.2575V24.3282V23.5142H26.5289H26.8002V23.2429V22.9716H27.0715H27.3428V22.7003V22.4289H27.6141H27.8854V22.1576V21.8863H28.1568H28.4281V21.615V21.3437H28.6983H28.9685L28.9771 21.0648L28.9858 20.786L29.2496 20.7772L29.5134 20.7685V20.4984V20.2283H28.6994H27.8854V20.4961V20.764L27.3428 20.786L26.8002 20.808V21.0758V21.3437H26.53H26.2599L26.2512 21.6075L26.2425 21.8712L25.7085 21.8795L25.1746 21.8877L25.1659 22.1508L25.1572 22.4139L24.607 22.4221L24.0568 22.4303V22.701V22.9716H23.5142H22.9716V23.2429V23.5142H22.7003H22.4289V24.0568V24.5995H22.1613H21.8938L21.8714 25.6998L21.8491 26.8002H21.5964H21.3437V27.3428V27.8854H24.0719H26.8002V27.6141V27.3428H27.0715H27.3428V27.0715V26.8002H27.6141H27.8854V26.5289V26.2575H28.1568H28.4281V25.9862V25.7149H28.6983H28.9685L28.9771 25.436L28.9858 25.1572L29.2484 25.1485L29.511 25.1398L29.5197 24.8772L29.5284 24.6146L29.8073 24.6059L30.0861 24.5972V24.327V24.0568H30.3575H30.6288V23.7855V23.5142H30.9001H31.1714V22.9716V22.4289H31.442H31.7127L31.7209 21.8788L31.7291 21.3286L31.9929 21.3199L32.2567 21.3112V20.7697V20.2283H32.5273H32.798L32.8062 19.6781L32.8144 19.1279L33.0782 19.1192L33.3419 19.1105V18.7245C33.3419 18.5123 33.3508 18.1533 33.3617 17.9268L33.3814 17.5151H33.633H33.8846V17.2287V16.9423H33.6283H33.3721V16.671V16.3997H33.0857H32.7993V16.6698ZM8.20718 31.4503L8.2149 33.8997L10.9281 33.909C12.4203 33.9141 13.8888 33.9092 14.1914 33.8981L14.7416 33.878V31.6957V29.5134H14.4854H14.2291V29.2571V29.0009H11.2143H8.19947L8.20718 31.4503ZM20.7709 29.2559V29.511L20.5071 29.5197L20.2433 29.5284V31.6889C20.2433 32.8772 20.2546 33.8607 20.2684 33.8745C20.2822 33.8884 21.7541 33.8997 23.5393 33.8997H26.7851L26.7928 31.4503L26.8005 29.0009H23.7857H20.7709V29.2559ZM11.4858 31.4427V31.714H11.7571H12.0284V31.9854V32.2567H12.5711H13.1137V31.9854V31.714H13.385H13.6563V31.4427V31.1714H12.5711H11.4858V31.4427ZM21.3437 31.4427V31.714H21.615H21.8863V31.9854V32.2567H22.4289H22.9716V31.9854V31.714H23.2429H23.5142V31.4427V31.1714H22.4289H21.3437V31.4427Z" fill="#26A387"/>
</g>
<defs>
<clipPath id="clip0_384_6925">
<rect width="35" height="35" fill="white"/>
</clipPath>
</defs>
</svg>
