<svg width="20" height="21" viewBox="0 0 20 21" fill="none" xmlns="http://www.w3.org/2000/svg">
<path d="M13.8889 2.72217H4.34998C4.07539 2.73087 3.81515 2.84685 3.62508 3.04523C3.43502 3.2436 3.33027 3.50857 3.33332 3.78328V17.2166C3.33027 17.4913 3.43502 17.7563 3.62508 17.9547C3.81515 18.153 4.07539 18.269 4.34998 18.2777H15.65C15.7864 18.2748 15.921 18.2451 16.0459 18.1902C16.1708 18.1353 16.2837 18.0563 16.3782 17.9578C16.4726 17.8593 16.5466 17.7431 16.5961 17.6159C16.6456 17.4887 16.6696 17.3531 16.6667 17.2166V5.49995L13.8889 2.72217ZM13.3333 3.71106L15.6667 6.0555H13.3333V3.71106ZM4.44443 17.1666V3.83328H12.2222V7.16661H15.5555V17.1666H4.44443Z" fill="black"/>
<path d="M12.2222 12.6166C11.9212 12.6244 11.6348 12.7477 11.4222 12.961L8.24444 11.4832V11.2388L11.3889 9.76658C11.5471 9.93153 11.7507 10.0458 11.974 10.095C12.1972 10.1443 12.43 10.1262 12.6429 10.0431C12.8558 9.95994 13.0393 9.81555 13.1702 9.62813C13.3011 9.44072 13.3734 9.2187 13.3781 8.99017C13.3827 8.76164 13.3195 8.53686 13.1964 8.34426C13.0733 8.15166 12.8958 7.9999 12.6865 7.90817C12.4771 7.81644 12.2452 7.78886 12.0202 7.82892C11.7952 7.86899 11.5871 7.9749 11.4222 8.13325C11.201 8.35048 11.0734 8.64552 11.0667 8.95547V9.08325L7.93333 10.561C7.77585 10.3958 7.57298 10.281 7.3503 10.2309C7.12762 10.1809 6.89512 10.1979 6.6821 10.2799C6.46909 10.3618 6.28511 10.505 6.15337 10.6914C6.02163 10.8777 5.94802 11.0989 5.94183 11.3271C5.93564 11.5552 5.99715 11.7801 6.1186 11.9733C6.24005 12.1665 6.416 12.3195 6.62426 12.4128C6.83252 12.5062 7.06376 12.5358 7.28882 12.4979C7.51388 12.46 7.72268 12.3563 7.88889 12.1999L7.93333 12.1555L11.0833 13.6332V13.7999C11.0845 14.0303 11.1541 14.2551 11.2834 14.4457C11.4126 14.6364 11.5957 14.7843 11.8092 14.8706C12.0228 14.957 12.2572 14.9778 12.4826 14.9306C12.7081 14.8833 12.9144 14.7701 13.0753 14.6052C13.2362 14.4404 13.3444 14.2314 13.3863 14.0049C13.4281 13.7784 13.4016 13.5446 13.3101 13.3331C13.2186 13.1217 13.0664 12.9423 12.8727 12.8177C12.6789 12.693 12.4525 12.6288 12.2222 12.6332V12.6166Z" fill="black"/>
</svg>
