<svg width="20" height="21" viewBox="0 0 20 21" fill="none" xmlns="http://www.w3.org/2000/svg">
<g clip-path="url(#clip0_238_67593)">
<path d="M18.6611 3.93886C18.5929 3.88341 18.5125 3.84493 18.4266 3.82658C18.3406 3.80823 18.2515 3.81054 18.1666 3.83331L12.8278 5.49998L7.47776 2.78331C7.40463 2.74946 7.32501 2.73193 7.24442 2.73193C7.16384 2.73193 7.08422 2.74946 7.01109 2.78331L1.45554 5.05553C1.3532 5.09757 1.26576 5.1692 1.20439 5.26125C1.14302 5.3533 1.11054 5.46157 1.11109 5.5722V16.95C1.11154 17.041 1.13434 17.1305 1.17747 17.2106C1.22061 17.2907 1.28276 17.359 1.35847 17.4095C1.43418 17.4599 1.52113 17.491 1.61168 17.5C1.70222 17.509 1.79359 17.4957 1.87776 17.4611L7.2222 15.2666L12.55 18C12.6291 18.0405 12.7167 18.0614 12.8055 18.0611C12.8608 18.0695 12.917 18.0695 12.9722 18.0611L18.5278 16.3278C18.6448 16.2911 18.7465 16.2167 18.8168 16.1162C18.8871 16.0157 18.9223 15.8947 18.9166 15.7722V4.38886C18.9138 4.29875 18.889 4.21069 18.8445 4.13229C18.7999 4.05389 18.737 3.98751 18.6611 3.93886ZM17.7778 15.3611L13.1555 16.8055V15.5333H12.2666V16.6444L7.59998 14.25V13.3111H6.71109V14.2666L2.2222 16.1166V5.93886L6.71109 4.08886V5.39442H7.59998V4.09442L12.2666 6.48331V7.64998H13.1555V6.61109L17.7778 5.14442V15.3611Z" fill="black"/>
<path d="M12.2667 8.8667H13.1556V10.9834H12.2667V8.8667Z" fill="black"/>
<path d="M12.2667 12.2H13.1556V14.3166H12.2667V12.2Z" fill="black"/>
<path d="M6.71106 6.64453H7.59995V8.7612H6.71106V6.64453Z" fill="black"/>
<path d="M6.71106 10.0166H7.59995V12.0999H6.71106V10.0166Z" fill="black"/>
</g>
<defs>
<clipPath id="clip0_238_67593">
<rect width="20" height="20" fill="white" transform="translate(0 0.5)"/>
</clipPath>
</defs>
</svg>
