<svg width="32" height="32" viewBox="0 0 32 32" fill="none" xmlns="http://www.w3.org/2000/svg">
<path d="M27.4713 4.1875H4.5293C4.2533 4.1875 4.0293 4.4115 4.0293 4.6875V6.988C4.0293 7.2415 4.2208 7.4425 4.4653 7.475V16.875C4.4653 17.1515 4.6893 17.375 4.9653 17.375H5.1503C5.8073 17.375 6.4478 17.276 7.0658 17.09V19.0735C6.7058 19.352 6.4698 19.7835 6.4698 20.273V21.4025H6.2453C5.9693 21.4025 5.7453 21.626 5.7453 21.9025V27.3125C5.7453 27.589 5.9693 27.8125 6.2453 27.8125H9.0143C9.2903 27.8125 9.5143 27.589 9.5143 27.3125V26.2365H22.4863V27.3125C22.4863 27.589 22.7103 27.8125 22.9863 27.8125H25.7553C26.0313 27.8125 26.2553 27.589 26.2553 27.3125V21.9025C26.2553 21.626 26.0313 21.4025 25.7553 21.4025H25.5313V20.273C25.5313 19.7835 25.2953 19.352 24.9353 19.0735V17.09C25.5533 17.276 26.1938 17.375 26.8508 17.375H27.0358C27.3118 17.375 27.5358 17.1515 27.5358 16.875V7.475C27.7803 7.4425 27.9718 7.2415 27.9718 6.988V4.6875C27.9713 4.4115 27.7473 4.1875 27.4713 4.1875ZM5.0293 5.1875H26.9713V6.488H25.6153C25.4178 6.488 25.2373 6.609 25.1568 6.789C25.1448 6.816 24.8513 7.4545 24.1298 7.4545C24.0953 7.4545 24.0598 7.4535 24.0263 7.4505C23.4798 7.405 23.2128 7.208 23.0823 7.048C22.6993 6.5835 21.9643 6.041 21.1533 6.041C21.0908 6.041 21.0288 6.0445 20.9623 6.0515C20.3963 6.117 20.0043 6.4685 19.6593 6.779C19.5133 6.91 19.3758 7.034 19.2448 7.117C18.9263 7.318 18.6198 7.435 18.3178 7.4605C18.3023 7.463 18.1758 7.481 17.9928 7.481C17.4363 7.481 16.7208 7.3285 16.4733 6.602C16.4043 6.3995 16.2138 6.263 15.9998 6.263C15.7858 6.263 15.5953 6.399 15.5263 6.602C15.2793 7.3285 14.5638 7.481 14.0068 7.481C13.8238 7.481 13.6973 7.463 13.6408 7.4555C13.3798 7.435 13.0733 7.3185 12.7558 7.118C12.6238 7.0345 12.4858 6.9105 12.3403 6.7795C12.1023 6.5655 11.8378 6.338 11.5123 6.192C11.5108 6.1915 11.5093 6.19 11.5073 6.1895C11.3618 6.1245 11.2078 6.0715 11.0323 6.0515C10.1618 5.962 9.3298 6.5485 8.9148 7.0515C8.7873 7.2085 8.5198 7.4055 7.9763 7.451C7.1733 7.5185 6.8558 6.818 6.8448 6.794C6.7668 6.609 6.5848 6.4885 6.3843 6.4885H5.0288L5.0293 5.1875ZM23.9348 17.0835V18.751H22.3658C22.4263 18.5875 22.4638 18.413 22.4638 18.2285V17.8985C22.4638 17.059 21.7808 16.376 20.9413 16.376H18.9818C18.1423 16.376 17.4593 17.059 17.4593 17.8985V18.2285C17.4593 18.413 17.4973 18.5875 17.5573 18.751H14.4418C14.5023 18.5875 14.5398 18.413 14.5398 18.2285V17.8985C14.5398 17.059 13.8568 16.376 13.0173 16.376H11.0578C10.2183 16.376 9.5353 17.059 9.5353 17.8985V18.2285C9.5353 18.413 9.5733 18.5875 9.6333 18.751H8.0643V17.0835C8.0643 15.031 9.7343 13.361 11.7868 13.361H20.2108C22.2648 13.361 23.9348 15.031 23.9348 17.0835ZM18.4598 18.2285V17.8985C18.4598 17.6105 18.6943 17.376 18.9823 17.376H20.9418C21.2298 17.376 21.4643 17.6105 21.4643 17.8985V18.2285C21.4643 18.5165 21.2298 18.751 20.9418 18.751H18.9823C18.6943 18.751 18.4598 18.5165 18.4598 18.2285ZM10.5363 18.2285V17.8985C10.5363 17.6105 10.7708 17.376 11.0588 17.376H13.0183C13.3063 17.376 13.5408 17.6105 13.5408 17.8985V18.2285C13.5408 18.5165 13.3063 18.751 13.0183 18.751H11.0588C10.7708 18.751 10.5363 18.5165 10.5363 18.2285ZM20.2123 12.361H11.7883C11.7243 12.361 11.6623 12.368 11.5993 12.3705C11.7388 11.8315 11.8153 11.277 11.8153 10.71V7.6475C11.9423 7.759 12.0738 7.8685 12.2218 7.963C12.6838 8.2545 13.1358 8.4195 13.5213 8.4475C13.5423 8.451 13.7318 8.481 14.0078 8.481C14.8538 8.481 15.5428 8.213 16.0003 7.724C16.4578 8.213 17.1468 8.481 17.9928 8.481C18.2668 8.481 18.4573 8.449 18.4363 8.4525C18.8648 8.4195 19.3163 8.2545 19.7798 7.962C19.9273 7.8685 20.0578 7.7585 20.1853 7.6475V10.71C20.1853 11.277 20.2618 11.832 20.4013 12.3705C20.3383 12.368 20.2763 12.361 20.2123 12.361ZM5.4653 7.488H6.0963C6.3503 7.865 6.9018 8.4545 7.8703 8.4545C7.9298 8.4545 7.9913 8.4525 8.0568 8.447C8.9543 8.3725 9.4413 7.989 9.6893 7.684C9.9383 7.382 10.3928 7.0595 10.8148 7.044V10.71C10.8148 11.342 10.7058 11.957 10.5028 12.5435C8.8693 13.0065 7.5963 14.3265 7.1993 15.9865C6.6438 16.203 6.0638 16.334 5.4648 16.3665V7.488H5.4653ZM23.4863 26.8125V25.7365C23.4863 25.46 23.2623 25.2365 22.9863 25.2365H9.0143C8.7383 25.2365 8.5143 25.46 8.5143 25.7365V26.8125H6.7453V22.4025C14.2848 22.4025 16.1448 22.4025 25.2553 22.4025V26.8125H23.4863ZM7.4693 21.4025V20.273C7.4693 19.9855 7.7038 19.751 7.9913 19.751H11.0583H13.0178H18.9818H20.9413H24.0083C24.2963 19.751 24.5303 19.9855 24.5303 20.273V21.4025H7.4693ZM24.8008 15.9865C24.4038 14.3265 23.1308 13.007 21.4973 12.5435C21.2938 11.957 21.1853 11.342 21.1853 10.71V7.046C21.6123 7.0605 22.0618 7.382 22.3088 7.6815C22.5593 7.9895 23.0463 8.3725 23.9463 8.4475C25.0298 8.533 25.6343 7.888 25.9043 7.488H26.5353V16.3665C25.9363 16.334 25.3563 16.203 24.8008 15.9865Z" fill="#26A387"/>
</svg>
