<svg width="20" height="20" viewBox="0 0 20 20" fill="none" xmlns="http://www.w3.org/2000/svg">
<g clip-path="url(#clip0_255_13274)">
<g clip-path="url(#clip1_255_13274)">
<path d="M17.1447 7.58553H13.0313V2.85219C13.0293 1.36886 11.828 0.167527 10.3447 0.165527H2.85201C2.11201 0.168194 1.40668 0.474861 0.899344 1.01286C0.710011 1.21353 0.719344 1.53019 0.920011 1.71953C1.12068 1.90886 1.43668 1.90019 1.62668 1.69953C1.94468 1.36153 2.38801 1.16886 2.85201 1.16619H10.3453C11.2767 1.16753 12.0307 1.92153 12.032 2.85286V7.69286C12.032 7.79086 12.022 7.88886 12.0027 7.98486V7.99219L11.9987 7.99953C11.8553 8.79953 11.158 9.38153 10.3453 9.37953H5.69201C5.58468 9.37953 5.48001 9.41419 5.39401 9.47819L3.03868 11.2242V9.86619C3.03868 9.61886 2.85801 9.40886 2.61334 9.37219C1.78401 9.24286 1.17134 8.53219 1.16534 7.69286V3.95953C1.16534 3.68353 0.941344 3.45953 0.665344 3.45953C0.389344 3.45953 0.165344 3.68353 0.165344 3.95953V7.69286C0.172678 8.86219 0.927344 9.89619 2.03868 10.2602V11.5995C2.03934 11.8949 2.20001 12.1669 2.45801 12.3102C2.50201 12.3329 2.54734 12.3522 2.59468 12.3669C2.67734 12.3962 2.76401 12.4115 2.85201 12.4129C3.02734 12.4129 3.19734 12.3549 3.33668 12.2482L5.85734 10.3815H6.96534V15.1149C6.96668 16.5982 8.16868 17.8002 9.65201 17.8015H14.14L16.682 19.6915C16.82 19.7849 16.9827 19.8349 17.1487 19.8349C17.2433 19.8329 17.3373 19.8149 17.426 19.7822C17.4593 19.7729 17.492 19.7602 17.5227 19.7435C17.7953 19.6069 17.966 19.3262 17.962 19.0215V17.6822C19.076 17.3202 19.8313 16.2842 19.8353 15.1129V10.2729C19.8333 8.78819 18.6293 7.58553 17.1447 7.58553ZM18.8313 15.1129C18.83 15.9522 18.2167 16.6649 17.3867 16.7915C17.1407 16.8269 16.958 17.0375 16.958 17.2862V18.6502L14.6033 16.8982C14.5167 16.8342 14.412 16.7995 14.3047 16.7995H9.65134C8.72001 16.7982 7.96601 16.0442 7.96468 15.1129V10.3795H10.3447C11.4853 10.3829 12.502 9.66286 12.878 8.58619H17.1447C18.076 8.58753 18.83 9.34153 18.8313 10.2729V15.1129Z" fill="#26A387"/>
<path d="M13.8494 10.1472C13.8374 10.1292 13.8247 10.1126 13.8107 10.0959C13.7914 10.0659 13.7694 10.0379 13.744 10.0126C13.7194 9.98922 13.692 9.96855 13.6634 9.95122C13.6467 9.93655 13.6287 9.92389 13.61 9.91189C13.602 9.90789 13.5927 9.91189 13.584 9.90522C13.5514 9.89322 13.518 9.88455 13.484 9.87989C13.4547 9.87255 13.4247 9.86856 13.3947 9.86656C13.364 9.86856 13.3334 9.87322 13.3034 9.88056C13.2694 9.88522 13.2367 9.89322 13.2047 9.90522C13.1967 9.90856 13.1874 9.90522 13.1794 9.91189C13.1607 9.92389 13.1434 9.93655 13.1267 9.95122C13.0974 9.96855 13.07 9.98922 13.0447 10.0126C13.0207 10.0379 13 10.0659 12.9827 10.0959C12.9687 10.1119 12.9554 10.1292 12.9434 10.1472L10.7314 14.7779C10.6074 15.0246 10.7074 15.3252 10.954 15.4492C11.2007 15.5732 11.5014 15.4732 11.6254 15.2266C11.628 15.2212 11.6307 15.2152 11.6334 15.2099L12.1874 14.0506H14.6034L15.1574 15.2099C15.2407 15.3839 15.416 15.4946 15.6087 15.4946C15.8854 15.4939 16.1094 15.2686 16.108 14.9912C16.108 14.9179 16.0914 14.8446 16.06 14.7786L13.8494 10.1472ZM12.6687 13.0499L13.402 11.5226L14.132 13.0499H12.6687ZM3.31469 7.95989V7.96056C3.39136 8.15056 3.57669 8.27455 3.78136 8.27322C3.84536 8.27322 3.90936 8.26122 3.96869 8.23655C4.90669 7.86922 5.79669 7.38856 6.61803 6.80522C7.43203 7.37789 8.30669 7.85856 9.22669 8.23789C9.47803 8.35189 9.77469 8.23989 9.88803 7.98855C10.0014 7.73722 9.89003 7.44056 9.63869 7.32722C9.62869 7.32256 9.61936 7.31855 9.60936 7.31522C8.84403 6.99789 8.11203 6.60522 7.42403 6.14255C7.84269 5.76189 8.19403 5.31455 8.46469 4.81789H9.27336C9.54936 4.81789 9.77336 4.59389 9.77336 4.31789C9.77336 4.04189 9.54936 3.81789 9.27336 3.81789H7.09803V2.76855C7.09803 2.49255 6.87403 2.26855 6.59803 2.26855C6.32203 2.26855 6.09803 2.49255 6.09803 2.76855V3.81789H3.92203C3.64603 3.81789 3.42203 4.04189 3.42203 4.31789C3.42203 4.59389 3.64603 4.81789 3.92203 4.81789H7.28336C7.08069 5.07855 6.85336 5.31989 6.60469 5.53789C6.47936 5.43456 6.40469 5.36855 6.40469 5.36589C6.20403 5.17589 5.88736 5.18455 5.69803 5.38522C5.50869 5.58589 5.51669 5.90255 5.71736 6.09189C5.72403 6.09789 5.75069 6.12322 5.79603 6.16322C5.10336 6.62189 4.36403 7.00589 3.59136 7.30989C3.33536 7.41322 3.21136 7.70455 3.31469 7.95989Z" fill="#26A387"/>
</g>
</g>
<defs>
<clipPath id="clip0_255_13274">
<rect width="20" height="20" fill="white"/>
</clipPath>
<clipPath id="clip1_255_13274">
<rect width="20" height="20" fill="white"/>
</clipPath>
</defs>
</svg>
