<svg width="20" height="20" viewBox="0 0 20 20" fill="none" xmlns="http://www.w3.org/2000/svg">
<path d="M2.03125 3.75C1.82405 3.75 1.62534 3.83231 1.47882 3.97882C1.33231 4.12534 1.25 4.32405 1.25 4.53125C1.25 4.73845 1.33231 4.93716 1.47882 5.08368C1.62534 5.23019 1.82405 5.3125 2.03125 5.3125H17.9688C18.176 5.3125 18.3747 5.23019 18.5212 5.08368C18.6677 4.93716 18.75 4.73845 18.75 4.53125C18.75 4.32405 18.6677 4.12534 18.5212 3.97882C18.3747 3.83231 18.176 3.75 17.9688 3.75H2.03125ZM2.03125 7.5C1.82405 7.5 1.62534 7.58231 1.47882 7.72882C1.33231 7.87534 1.25 8.07405 1.25 8.28125C1.25 8.48845 1.33231 8.68716 1.47882 8.83368C1.62534 8.98019 1.82405 9.0625 2.03125 9.0625H17.9688C18.176 9.0625 18.3747 8.98019 18.5212 8.83368C18.6677 8.68716 18.75 8.48845 18.75 8.28125C18.75 8.07405 18.6677 7.87534 18.5212 7.72882C18.3747 7.58231 18.176 7.5 17.9688 7.5H2.03125ZM1.25 12.0312C1.25 11.6 1.6 11.25 2.03125 11.25H17.9688C18.176 11.25 18.3747 11.3323 18.5212 11.4788C18.6677 11.6253 18.75 11.824 18.75 12.0312C18.75 12.2385 18.6677 12.4372 18.5212 12.5837C18.3747 12.7302 18.176 12.8125 17.9688 12.8125H2.03125C1.6 12.8125 1.25 12.4625 1.25 12.0312ZM2.03125 15C1.82405 15 1.62534 15.0823 1.47882 15.2288C1.33231 15.3753 1.25 15.574 1.25 15.7812C1.25 15.9885 1.33231 16.1872 1.47882 16.3337C1.62534 16.4802 1.82405 16.5625 2.03125 16.5625H12.3438C12.551 16.5625 12.7497 16.4802 12.8962 16.3337C13.0427 16.1872 13.125 15.9885 13.125 15.7812C13.125 15.574 13.0427 15.3753 12.8962 15.2288C12.7497 15.0823 12.551 15 12.3438 15H2.03125Z" fill="white"/>
</svg>
