<svg width="20" height="20" viewBox="0 0 20 20" fill="none" xmlns="http://www.w3.org/2000/svg">
<path d="M4.6875 7.8125C5.55044 7.8125 6.25 7.11294 6.25 6.25C6.25 5.38706 5.55044 4.6875 4.6875 4.6875C3.82456 4.6875 3.125 5.38706 3.125 6.25C3.125 7.11294 3.82456 7.8125 4.6875 7.8125Z" stroke="#26A387" stroke-linecap="round" stroke-linejoin="round"/>
<path d="M4.6875 17.8125C5.37786 17.8125 5.9375 17.2529 5.9375 16.5625C5.9375 15.8721 5.37786 15.3125 4.6875 15.3125C3.99714 15.3125 3.4375 15.8721 3.4375 16.5625C3.4375 17.2529 3.99714 17.8125 4.6875 17.8125Z" stroke="#26A387" stroke-linecap="round" stroke-linejoin="round"/>
<path d="M8.75 6.24998C8.74992 5.62114 8.60386 5.0009 8.32332 4.4381C8.04278 3.87531 7.63541 3.38533 7.13331 3.00673C6.6312 2.62814 6.04806 2.37128 5.4298 2.25638C4.81155 2.14148 4.17506 2.17167 3.57046 2.34458C2.96586 2.51749 2.40965 2.82839 1.94563 3.25281C1.48162 3.67723 1.12246 4.20357 0.896453 4.7904C0.670443 5.37722 0.583748 6.0085 0.643193 6.63453C0.702639 7.26055 0.906603 7.86423 1.23902 8.39803C1.23867 8.39803 3.62711 12.2243 3.62711 12.2243C3.73943 12.4043 3.89571 12.5527 4.08122 12.6556C4.26673 12.7585 4.47537 12.8124 4.6875 12.8124C4.89963 12.8124 5.10828 12.7585 5.29379 12.6556C5.47929 12.5527 5.63557 12.4043 5.74789 12.2243L8.13629 8.39803C8.5384 7.7538 8.75108 7.0094 8.75 6.24998Z" stroke="#26A387" stroke-linecap="round" stroke-linejoin="round"/>
<path d="M15.3125 7.8125C16.1754 7.8125 16.875 7.11294 16.875 6.25C16.875 5.38706 16.1754 4.6875 15.3125 4.6875C14.4496 4.6875 13.75 5.38706 13.75 6.25C13.75 7.11294 14.4496 7.8125 15.3125 7.8125Z" stroke="#26A387" stroke-linecap="round" stroke-linejoin="round"/>
<path d="M15.3125 17.8125C16.0029 17.8125 16.5625 17.2529 16.5625 16.5625C16.5625 15.8721 16.0029 15.3125 15.3125 15.3125C14.6221 15.3125 14.0625 15.8721 14.0625 16.5625C14.0625 17.2529 14.6221 17.8125 15.3125 17.8125Z" stroke="#26A387" stroke-linecap="round" stroke-linejoin="round"/>
<path d="M11.25 6.24998C11.2501 5.62114 11.3961 5.0009 11.6767 4.4381C11.9572 3.87531 12.3646 3.38533 12.8667 3.00673C13.3688 2.62814 13.9519 2.37128 14.5702 2.25638C15.1885 2.14148 15.8249 2.17167 16.4295 2.34458C17.0341 2.51749 17.5904 2.82839 18.0544 3.25281C18.5184 3.67723 18.8775 4.20357 19.1036 4.7904C19.3296 5.37722 19.4163 6.0085 19.3568 6.63453C19.2974 7.26055 19.0934 7.86423 18.761 8.39803C18.7613 8.39803 16.3729 12.2243 16.3729 12.2243C16.2606 12.4043 16.1043 12.5527 15.9188 12.6556C15.7333 12.7585 15.5246 12.8124 15.3125 12.8124C15.1004 12.8124 14.8917 12.7585 14.7062 12.6556C14.5207 12.5527 14.3644 12.4043 14.2521 12.2243L11.8637 8.39803C11.4616 7.75379 11.2489 7.0094 11.25 6.24998Z" stroke="#26A387" stroke-linecap="round" stroke-linejoin="round"/>
<path d="M5.9375 16.5625H14.0625" stroke="#26A387" stroke-linecap="round" stroke-linejoin="round"/>
</svg>
