<svg width="20" height="20" viewBox="0 0 20 20" fill="none" xmlns="http://www.w3.org/2000/svg">
<mask id="mask0_255_13194" style="mask-type:alpha" maskUnits="userSpaceOnUse" x="0" y="0" width="20" height="20">
<rect width="20" height="20" fill="#D9D9D9"/>
</mask>
<g mask="url(#mask0_255_13194)">
<path d="M10.0037 10.0003C10.462 10.0003 10.8544 9.83713 11.1808 9.51074C11.5072 9.18435 11.6704 8.79199 11.6704 8.33366C11.6704 7.87533 11.5072 7.48296 11.1808 7.15658C10.8544 6.83019 10.462 6.66699 10.0037 6.66699C9.54537 6.66699 9.15301 6.83019 8.82662 7.15658C8.50023 7.48296 8.33704 7.87533 8.33704 8.33366C8.33704 8.79199 8.50023 9.18435 8.82662 9.51074C9.15301 9.83713 9.54537 10.0003 10.0037 10.0003ZM10.0037 16.1253C11.6981 14.5698 12.9551 13.1566 13.7745 11.8857C14.594 10.6149 15.0037 9.48644 15.0037 8.50033C15.0037 6.98644 14.5211 5.74685 13.5558 4.78158C12.5905 3.8163 11.4065 3.33366 10.0037 3.33366C8.60092 3.33366 7.4169 3.8163 6.45162 4.78158C5.48634 5.74685 5.0037 6.98644 5.0037 8.50033C5.0037 9.48644 5.41342 10.6149 6.23287 11.8857C7.05231 13.1566 8.30926 14.5698 10.0037 16.1253ZM10.0037 18.3337C7.76759 16.4309 6.09745 14.6635 4.99329 13.0316C3.88912 11.3996 3.33704 9.88921 3.33704 8.50033C3.33704 6.41699 4.00717 4.75727 5.34745 3.52116C6.68773 2.28505 8.23981 1.66699 10.0037 1.66699C11.7676 1.66699 13.3197 2.28505 14.66 3.52116C16.0002 4.75727 16.6704 6.41699 16.6704 8.50033C16.6704 9.88921 16.1183 11.3996 15.0141 13.0316C13.91 14.6635 12.2398 16.4309 10.0037 18.3337Z" fill="#26A387"/>
</g>
</svg>
