<svg width="14" height="14" viewBox="0 0 14 14" fill="none" xmlns="http://www.w3.org/2000/svg">
<mask id="mask0_255_14773" style="mask-type:alpha" maskUnits="userSpaceOnUse" x="0" y="0" width="14" height="14">
<rect width="14" height="14" fill="#D9D9D9"/>
</mask>
<g mask="url(#mask0_255_14773)">
<path d="M7.0026 7.00033C7.32344 7.00033 7.59809 6.88609 7.82656 6.65762C8.05503 6.42915 8.16927 6.15449 8.16927 5.83366C8.16927 5.51283 8.05503 5.23817 7.82656 5.0097C7.59809 4.78123 7.32344 4.66699 7.0026 4.66699C6.68177 4.66699 6.40712 4.78123 6.17865 5.0097C5.95017 5.23817 5.83594 5.51283 5.83594 5.83366C5.83594 6.15449 5.95017 6.42915 6.17865 6.65762C6.40712 6.88609 6.68177 7.00033 7.0026 7.00033ZM7.0026 11.2878C8.18871 10.1989 9.06858 9.2097 9.64219 8.32012C10.2158 7.43053 10.5026 6.6406 10.5026 5.95033C10.5026 4.8906 10.1648 4.0229 9.48906 3.3472C8.81337 2.67151 7.98455 2.33366 7.0026 2.33366C6.02066 2.33366 5.19184 2.67151 4.51615 3.3472C3.84045 4.0229 3.5026 4.8906 3.5026 5.95033C3.5026 6.6406 3.78941 7.43053 4.36302 8.32012C4.93663 9.2097 5.81649 10.1989 7.0026 11.2878ZM7.0026 12.8337C5.43733 11.5017 4.26823 10.2646 3.49531 9.1222C2.7224 7.97984 2.33594 6.92255 2.33594 5.95033C2.33594 4.49199 2.80503 3.33019 3.74323 2.46491C4.68142 1.59963 5.76788 1.16699 7.0026 1.16699C8.23733 1.16699 9.32378 1.59963 10.262 2.46491C11.2002 3.33019 11.6693 4.49199 11.6693 5.95033C11.6693 6.92255 11.2828 7.97984 10.5099 9.1222C9.73698 10.2646 8.56788 11.5017 7.0026 12.8337Z" fill="#9E9E9E"/>
</g>
</svg>
