<svg width="15" height="16" viewBox="0 0 15 16" fill="none" xmlns="http://www.w3.org/2000/svg">
<mask id="mask0_238_67463" style="mask-type:alpha" maskUnits="userSpaceOnUse" x="0" y="0" width="15" height="16">
<rect y="0.5" width="15" height="15" fill="#D9D9D9"/>
</mask>
<g mask="url(#mask0_238_67463)">
<path d="M6.4541 11.125L5.58293 10.2188L7.19856 8.625H2.01904V7.375H7.19856L5.58293 5.78125L6.4541 4.875L9.622 8L6.4541 11.125ZM7.72126 13.625V12.375H12.1563V3.625H7.72126V2.375H12.1563C12.5048 2.375 12.8032 2.49729 13.0516 2.74187C13.2995 2.98687 13.4235 3.28125 13.4235 3.625V12.375C13.4235 12.7188 13.2995 13.0131 13.0516 13.2581C12.8032 13.5027 12.5048 13.625 12.1563 13.625H7.72126Z" fill="white"/>
</g>
</svg>
