<svg width="20" height="21" viewBox="0 0 20 21" fill="none" xmlns="http://www.w3.org/2000/svg">
<path d="M17.1875 3H16.25V2.6875C16.25 2.43886 16.1512 2.2004 15.9754 2.02459C15.7996 1.84877 15.5611 1.75 15.3125 1.75C15.0639 1.75 14.8254 1.84877 14.6496 2.02459C14.4738 2.2004 14.375 2.43886 14.375 2.6875V3.9375C14.375 4.18614 14.4738 4.4246 14.6496 4.60041C14.8254 4.77623 15.0639 4.875 15.3125 4.875C15.5611 4.875 15.7996 4.77623 15.9754 4.60041C16.1512 4.4246 16.25 4.18614 16.25 3.9375V3.625H17.1875C17.2704 3.625 17.3499 3.65792 17.4085 3.71653C17.4671 3.77513 17.5 3.85462 17.5 3.9375V12.0625C17.5 12.1454 17.4671 12.2249 17.4085 12.2835C17.3499 12.3421 17.2704 12.375 17.1875 12.375H10C9.91712 12.375 9.83763 12.4079 9.77903 12.4665C9.72042 12.5251 9.6875 12.6046 9.6875 12.6875C9.6875 12.7704 9.72042 12.8499 9.77903 12.9085C9.83763 12.9671 9.91712 13 10 13H17.1875C17.4361 13 17.6746 12.9012 17.8504 12.7254C18.0262 12.5496 18.125 12.3111 18.125 12.0625V3.9375C18.125 3.68886 18.0262 3.4504 17.8504 3.27459C17.6746 3.09877 17.4361 3 17.1875 3ZM15.625 3.9375C15.625 4.02038 15.5921 4.09987 15.5335 4.15847C15.4749 4.21708 15.3954 4.25 15.3125 4.25C15.2296 4.25 15.1501 4.21708 15.0915 4.15847C15.0329 4.09987 15 4.02038 15 3.9375V2.6875C15 2.60462 15.0329 2.52513 15.0915 2.46653C15.1501 2.40792 15.2296 2.375 15.3125 2.375C15.3954 2.375 15.4749 2.40792 15.5335 2.46653C15.5921 2.52513 15.625 2.60462 15.625 2.6875V3.9375ZM10 4.875C10.2486 4.875 10.4871 4.77623 10.6629 4.60041C10.8387 4.4246 10.9375 4.18614 10.9375 3.9375V3.625H13.4375C13.5204 3.625 13.5999 3.59208 13.6585 3.53347C13.7171 3.47487 13.75 3.39538 13.75 3.3125C13.75 3.22962 13.7171 3.15013 13.6585 3.09153C13.5999 3.03292 13.5204 3 13.4375 3H10.9375V2.6875C10.9375 2.43886 10.8387 2.2004 10.6629 2.02459C10.4871 1.84877 10.2486 1.75 10 1.75C9.75136 1.75 9.5129 1.84877 9.33709 2.02459C9.16127 2.2004 9.0625 2.43886 9.0625 2.6875V3.9375C9.0625 4.18614 9.16127 4.4246 9.33709 4.60041C9.5129 4.77623 9.75136 4.875 10 4.875ZM9.6875 2.6875C9.6875 2.60462 9.72042 2.52513 9.77903 2.46653C9.83763 2.40792 9.91712 2.375 10 2.375C10.0829 2.375 10.1624 2.40792 10.221 2.46653C10.2796 2.52513 10.3125 2.60462 10.3125 2.6875V3.9375C10.3125 4.02038 10.2796 4.09987 10.221 4.15847C10.1624 4.21708 10.0829 4.25 10 4.25C9.91712 4.25 9.83763 4.21708 9.77903 4.15847C9.72042 4.09987 9.6875 4.02038 9.6875 3.9375V2.6875Z" fill="black"/>
<path d="M9.87813 7.79376C9.9059 7.82793 9.94057 7.85584 9.97988 7.87568C10.0192 7.89551 10.0622 7.90682 10.1062 7.90885C10.1502 7.91088 10.1941 7.9036 10.2351 7.88747C10.2761 7.87135 10.3132 7.84675 10.344 7.81528C10.3748 7.78382 10.3986 7.7462 10.4138 7.70489C10.4291 7.66359 10.4354 7.61953 10.4324 7.5756C10.4295 7.53167 10.4173 7.48886 10.3966 7.44998C10.3759 7.41111 10.3473 7.37704 10.3125 7.35001L10.0906 7.12813C10.0616 7.09884 10.027 7.07559 9.98894 7.05973C9.95085 7.04386 9.91001 7.03569 9.86876 7.03569C9.8275 7.03569 9.78666 7.04386 9.74858 7.05973C9.71049 7.07559 9.67593 7.09884 9.64688 7.12813L8.39688 8.37813C8.36759 8.40718 8.34434 8.44174 8.32848 8.47983C8.31261 8.51791 8.30444 8.55875 8.30444 8.60001C8.30444 8.64126 8.31261 8.6821 8.32848 8.72019C8.34434 8.75827 8.36759 8.79283 8.39688 8.82188L11.4625 11.8875C11.4917 11.9165 11.5263 11.9394 11.5644 11.9549C11.6025 11.9705 11.6433 11.9784 11.6844 11.9781C11.7255 11.9784 11.7663 11.9705 11.8044 11.9549C11.8424 11.9394 11.8771 11.9165 11.9063 11.8875L16.5938 7.20001C16.623 7.17095 16.6463 7.13639 16.6622 7.09831C16.678 7.06023 16.6862 7.01938 16.6862 6.97813C16.6862 6.93688 16.678 6.89603 16.6622 6.85795C16.6463 6.81987 16.623 6.78531 16.5938 6.75626L15.3438 5.50626C15.3147 5.47697 15.2801 5.45372 15.2421 5.43785C15.204 5.42199 15.1631 5.41382 15.1219 5.41382C15.0806 5.41382 15.0398 5.42199 15.0017 5.43785C14.9636 5.45372 14.9291 5.47697 14.9 5.50626L11.6938 8.72501L11.5063 8.53438C11.4474 8.47554 11.3676 8.44248 11.2844 8.44248C11.2012 8.44248 11.1214 8.47554 11.0625 8.53438C11.0037 8.59323 10.9706 8.67304 10.9706 8.75626C10.9706 8.83947 11.0037 8.91929 11.0625 8.97813L11.4719 9.38751C11.5009 9.4168 11.5355 9.44004 11.5736 9.45591C11.6117 9.47177 11.6525 9.47994 11.6938 9.47994C11.735 9.47994 11.7759 9.47177 11.8139 9.45591C11.852 9.44004 11.8866 9.4168 11.9156 9.38751L15.1219 6.17813L15.9375 6.98438L11.6938 11.225L9.06251 8.60001L9.87188 7.79063L9.87813 7.79376Z" fill="black"/>
<path d="M8.4375 11.4375C8.27605 11.4381 8.11761 11.4812 7.97813 11.5625C7.94275 11.5047 7.9008 11.4513 7.85312 11.4031C7.70816 11.2581 7.51964 11.1646 7.31644 11.1369C7.11324 11.1092 6.90658 11.149 6.72813 11.25C6.69275 11.1922 6.6508 11.1388 6.60312 11.0906C6.51604 11.0026 6.41238 10.9327 6.29813 10.885C6.18389 10.8372 6.06132 10.8126 5.9375 10.8125C5.83089 10.8133 5.72521 10.8324 5.625 10.8687V8.9375C5.62692 8.80006 5.5986 8.66388 5.54204 8.5386C5.48549 8.41333 5.40207 8.30202 5.29771 8.21257C5.19335 8.12312 5.07059 8.05771 4.93814 8.02097C4.80569 7.98424 4.66678 7.97708 4.53125 8C4.30691 8.04418 4.10542 8.16629 3.96245 8.34473C3.81947 8.52316 3.74422 8.74642 3.75 8.975V12.375H2.8125C2.72962 12.375 2.65013 12.3421 2.59153 12.2835C2.53292 12.2249 2.5 12.1454 2.5 12.0625V3.9375C2.5 3.85462 2.53292 3.77513 2.59153 3.71653C2.65013 3.65792 2.72962 3.625 2.8125 3.625H3.75V3.9375C3.75 4.18614 3.84877 4.4246 4.02459 4.60041C4.2004 4.77623 4.43886 4.875 4.6875 4.875C4.93614 4.875 5.1746 4.77623 5.35041 4.60041C5.52623 4.4246 5.625 4.18614 5.625 3.9375V3.625H8.125C8.20788 3.625 8.28737 3.59208 8.34597 3.53347C8.40458 3.47487 8.4375 3.39538 8.4375 3.3125C8.4375 3.22962 8.40458 3.15013 8.34597 3.09153C8.28737 3.03292 8.20788 3 8.125 3H5.625V2.6875C5.625 2.43886 5.52623 2.2004 5.35041 2.02459C5.1746 1.84877 4.93614 1.75 4.6875 1.75C4.43886 1.75 4.2004 1.84877 4.02459 2.02459C3.84877 2.2004 3.75 2.43886 3.75 2.6875V3H2.8125C2.56386 3 2.3254 3.09877 2.14959 3.27459C1.97377 3.4504 1.875 3.68886 1.875 3.9375V12.0625C1.875 12.3111 1.97377 12.5496 2.14959 12.7254C2.3254 12.9012 2.56386 13 2.8125 13H3.75V14.375C3.75 14.4579 3.78292 14.5374 3.84153 14.596C3.90013 14.6546 3.97962 14.6875 4.0625 14.6875C4.14538 14.6875 4.22487 14.6546 4.28347 14.596C4.34208 14.5374 4.375 14.4579 4.375 14.375V8.975C4.37081 8.89633 4.39453 8.8187 4.44199 8.75581C4.48944 8.69292 4.55757 8.64881 4.63438 8.63125C4.67911 8.62353 4.72498 8.62565 4.76881 8.63746C4.81264 8.64927 4.85337 8.67049 4.88817 8.69964C4.92296 8.72878 4.95099 8.76516 4.97031 8.80624C4.98962 8.84732 4.99975 8.89211 5 8.9375V13.625C5 13.7079 5.03292 13.7874 5.09153 13.846C5.15013 13.9046 5.22962 13.9375 5.3125 13.9375C5.39538 13.9375 5.47487 13.9046 5.53347 13.846C5.59208 13.7874 5.625 13.7079 5.625 13.625V11.75C5.625 11.6671 5.65792 11.5876 5.71653 11.529C5.77513 11.4704 5.85462 11.4375 5.9375 11.4375C5.97907 11.4381 6.0201 11.4469 6.0582 11.4636C6.0963 11.4802 6.13069 11.5043 6.15937 11.5344C6.18859 11.5621 6.21174 11.5955 6.22734 11.6327C6.24294 11.6698 6.25065 11.7097 6.25 11.75V13.625C6.25 13.7079 6.28292 13.7874 6.34153 13.846C6.40013 13.9046 6.47962 13.9375 6.5625 13.9375C6.64538 13.9375 6.72487 13.9046 6.78347 13.846C6.84208 13.7874 6.875 13.7079 6.875 13.625V12.0625C6.875 11.9796 6.90792 11.9001 6.96653 11.8415C7.02513 11.7829 7.10462 11.75 7.1875 11.75C7.22907 11.7506 7.2701 11.7594 7.3082 11.7761C7.3463 11.7927 7.38069 11.8168 7.40937 11.8469C7.43859 11.8746 7.46174 11.908 7.47734 11.9452C7.49294 11.9823 7.50065 12.0222 7.5 12.0625V13.625C7.5 13.7079 7.53292 13.7874 7.59153 13.846C7.65013 13.9046 7.72962 13.9375 7.8125 13.9375C7.89538 13.9375 7.97487 13.9046 8.03347 13.846C8.09208 13.7874 8.125 13.7079 8.125 13.625V12.375C8.125 12.2921 8.15792 12.2126 8.21653 12.154C8.27513 12.0954 8.35462 12.0625 8.4375 12.0625C8.47907 12.0631 8.5201 12.0719 8.5582 12.0886C8.5963 12.1052 8.63069 12.1293 8.65937 12.1594C8.68859 12.1871 8.71174 12.2205 8.72734 12.2577C8.74294 12.2948 8.75065 12.3347 8.75 12.375V16.125C8.75 16.3736 8.65123 16.6121 8.47541 16.7879C8.2996 16.9637 8.06114 17.0625 7.8125 17.0625H5.3125C5.06386 17.0625 4.8254 16.9637 4.64959 16.7879C4.47377 16.6121 4.375 16.3736 4.375 16.125V15.625C4.375 15.5421 4.34208 15.4626 4.28347 15.404C4.22487 15.3454 4.14538 15.3125 4.0625 15.3125C3.97962 15.3125 3.90013 15.3454 3.84153 15.404C3.78292 15.4626 3.75 15.5421 3.75 15.625V16.125C3.75 16.3676 3.80648 16.6068 3.91496 16.8238C4.02344 17.0407 4.18094 17.2295 4.375 17.375C4.29212 17.375 4.21263 17.4079 4.15403 17.4665C4.09542 17.5251 4.0625 17.6046 4.0625 17.6875V18.9375C4.0625 19.0204 4.09542 19.0999 4.15403 19.1585C4.21263 19.2171 4.29212 19.25 4.375 19.25H8.75C8.83288 19.25 8.91237 19.2171 8.97097 19.1585C9.02958 19.0999 9.0625 19.0204 9.0625 18.9375V17.6875C9.0625 17.6046 9.02958 17.5251 8.97097 17.4665C8.91237 17.4079 8.83288 17.375 8.75 17.375C8.94406 17.2295 9.10156 17.0407 9.21004 16.8238C9.31852 16.6068 9.375 16.3676 9.375 16.125V12.375C9.375 12.1264 9.27623 11.8879 9.10041 11.7121C8.9246 11.5363 8.68614 11.4375 8.4375 11.4375ZM4.375 2.6875C4.375 2.60462 4.40792 2.52513 4.46653 2.46653C4.52513 2.40792 4.60462 2.375 4.6875 2.375C4.77038 2.375 4.84987 2.40792 4.90847 2.46653C4.96708 2.52513 5 2.60462 5 2.6875V3.9375C5 4.02038 4.96708 4.09987 4.90847 4.15847C4.84987 4.21708 4.77038 4.25 4.6875 4.25C4.60462 4.25 4.52513 4.21708 4.46653 4.15847C4.40792 4.09987 4.375 4.02038 4.375 3.9375V2.6875ZM8.4375 18.625H4.6875V18H8.4375V18.625Z" fill="black"/>
</svg>
