<svg width="35" height="35" viewBox="0 0 35 35" fill="none" xmlns="http://www.w3.org/2000/svg">
<path fill-rule="evenodd" clip-rule="evenodd" d="M0.542636 4.09993V4.37125H0.271318H0V8.19984V12.0284H0.271318H0.542636V12.5711V13.1137H0.813954H1.08527V13.4001V13.6865H1.35201H1.61877L1.63584 14.4175C1.64524 14.8196 1.64515 17.6481 1.63565 20.7031L1.61838 26.2576H1.37064H1.12289L1.10053 27.8675C1.08823 28.753 1.08735 29.4923 1.09857 29.5105C1.11075 29.5302 1.22156 29.5435 1.37344 29.5435H1.62791V30.0861V30.6288H1.9143H2.20069V30.9001V31.1714H3.55728H4.91387V30.9001V30.6288H5.18193H5.44996L5.47197 30.0711L5.49398 29.5134H5.74657H5.99914V27.8855V26.2576H5.74657H5.49398L5.47194 25.6987L5.44987 25.1399L5.18941 25.1486L4.92894 25.1572L4.92026 25.4361L4.91161 25.7149H4.65648H4.40138V25.9862V26.2576H4.65762H4.91387V27.8855V29.5134H4.64255H4.37123V29.7998V30.0861H3.55842H2.74559L2.73693 29.8073L2.72825 29.5284L2.46447 29.5197L2.20069 29.511V27.8843V26.2576H2.45199H2.70329L2.72328 24.2001C2.73428 23.0684 2.74329 21.2235 2.74329 20.1001L2.74332 18.0577H3.55728H4.37123V20.786V23.5142H4.65762H4.94401V23.7855V24.0569H5.20026H5.4565L5.46106 23.778C5.46356 23.6247 5.46693 21.41 5.46859 18.8566L5.47158 14.2141L5.73192 14.2054L5.9923 14.1967L6.01427 13.6552L6.03622 13.1137H6.30407H6.57192V12.5711V12.0284H6.84324H7.11456V8.19984V4.37125H6.84324H6.57192V4.09993V3.82861H3.55728H0.542636V4.09993ZM33.3721 4.09993V4.37125H33.0857H32.7993V4.64257V4.91388H32.528H32.2567V5.1852V5.45652H31.9854H31.714V5.99916V6.54179H31.4427H31.1714V7.0995V7.65721H30.9006H30.6297L30.6217 8.4787L30.6137 9.30019L30.3499 9.3089L30.0861 9.31761V13.13V16.9423H30.3575H30.6288V18.0427V19.143H30.9001H31.1714V21.5999V24.0569H30.9001H30.6288V24.6146V25.1723H30.9001H31.1714V25.4436V25.7149H31.4427H31.714V25.2976C31.714 25.0681 31.7229 24.6951 31.7338 24.4686L31.7535 24.0569H32.0051H32.2567L32.2568 22.542C32.2569 21.7088 32.2657 20.8542 32.2765 20.6428L32.2961 20.2584H32.8144H33.3326L33.3523 20.6428C33.363 20.8542 33.3719 21.2205 33.372 21.4567L33.3721 21.8863H33.6237H33.8754L33.8974 25.6839C33.9095 27.7725 33.9107 29.4954 33.9002 29.5125C33.8895 29.5298 33.7686 29.5435 33.6266 29.5435H33.3721V29.8197V30.0958L32.5692 30.0769C32.1276 30.0665 31.7588 30.0505 31.7496 30.0413C31.7404 30.0322 31.7269 29.4213 31.7196 28.6838L31.7062 27.3428H31.1675H30.6288V28.7145V30.0861H30.9001H31.1714V30.3575V30.6288H31.4427H31.714V30.9001V31.1714H32.8144H33.9147V30.9001V30.6288H34.186H34.4574V30.3575V30.0861H34.7287H35V25.9862V21.8863H34.7287H34.4574V19.4143V16.9423H34.7287H35V10.6568V4.37125H34.4423H33.8846V4.09993V3.82861H33.6283H33.3721V4.09993ZM1.08527 8.19984V11.4858H1.35659H1.62791V12.0284V12.5711H1.89576H2.16361L2.18556 13.1126L2.20753 13.6541L2.46791 13.6628L2.72825 13.6714L2.73606 15.3022L2.74384 16.933L3.15534 16.9527C3.38165 16.9636 3.7478 16.9725 3.96902 16.9725H4.37123V15.3295V13.6865H4.64255H4.91387V13.4001V13.1137H5.18519H5.4565V12.5711V12.0284H5.72429H5.99211L6.01258 10.9356C6.02383 10.3346 6.0288 8.7372 6.02362 7.38589L6.01421 4.92896L5.73536 4.92028L5.4565 4.91162V5.18406V5.45652H5.20026H4.94401V8.05942C4.94401 9.49102 4.93512 10.8476 4.92427 11.0741L4.90452 11.4858H4.63788H4.37123V11.1994V10.913H4.09991H3.8286V7.91345V4.91388H3.56198H3.29534L3.27568 5.34347C3.26489 5.57976 3.25599 6.93635 3.25593 8.35811L3.25581 10.9432H2.99957H2.74332V11.2145V11.4858H2.47668H2.21003L2.19029 11.0741C2.17944 10.8476 2.17054 9.37779 2.17054 7.80782V4.95335L1.78618 4.93372C1.57476 4.92296 1.3306 4.91407 1.24354 4.91401L1.08527 4.91388V8.19984ZM33.3419 5.72666V5.9968L33.0782 6.00552L32.8144 6.01423L32.8057 6.29308L32.7971 6.57194H32.5466H32.2961L32.2765 6.9563C32.2657 7.16769 32.2569 7.53397 32.2568 7.77026L32.2567 8.19984H31.9854H31.714V9.0138V9.82775H31.4427H31.1714V13.385V16.9423H31.4383H31.7052L31.721 18.0138C31.7296 18.6031 31.7434 19.0919 31.7515 19.1001C31.7596 19.1082 32.1276 19.1233 32.5692 19.1337L33.3721 19.1526V17.7912V16.4298H33.6235H33.8749L33.8965 10.9731C33.9084 7.97194 33.9097 5.50295 33.8995 5.48649C33.8893 5.47 33.7597 5.45652 33.6115 5.45652H33.3419V5.72666ZM15.308 6.83572L15.2993 7.0995L14.4941 7.10752L13.6888 7.11557L13.6801 7.37884L13.6714 7.64214L13.1212 7.65037L12.5711 7.65857V7.92922V8.19984H12.0284H11.4858V8.47116V8.74248H11.2145H10.9432V9.01265V9.28285L10.6643 9.29151L10.3854 9.30019L10.3767 9.56397L10.368 9.82775H10.0979H9.82773V10.0991V10.3704H9.55642H9.2851V10.6405V10.9107L9.02132 10.9194L8.75754 10.9281L8.74885 11.207L8.7402 11.4858H8.47H8.19983V12.0284V12.5711H7.93237H7.66488L7.64293 13.1137L7.62099 13.6563H7.36845H7.11591L7.10771 14.2065L7.09948 14.7567L6.84059 14.7653L6.58169 14.774L6.56089 16.4802C6.54946 17.4186 6.54946 18.7747 6.56086 19.4937L6.58163 20.8011H6.82835H7.07506L7.09481 21.2128C7.10566 21.4393 7.11456 21.8055 7.11456 22.0267V22.429H7.38587H7.65719V22.9716V23.5142H7.92851H8.19983V24.0569V24.5995H8.47115H8.74246V24.8708V25.1421H9.01264H9.28284L9.29149 25.421L9.30017 25.6998L9.56281 25.7085L9.82541 25.7172L9.83413 25.9798L9.84281 26.2425L10.1217 26.2512L10.4005 26.2598V26.53V26.8002H10.6718H10.9432V27.0715V27.3428H11.4858H12.0284V27.613V27.8832L12.3073 27.8918L12.5861 27.9005L12.5948 28.1643L12.6036 28.4281L13.0169 28.4282C13.2442 28.4283 13.6032 28.4372 13.8146 28.4479L14.199 28.4676V28.7154V28.9633L15.2993 28.9856L16.3997 29.0079V29.2606V29.5134H17.7713H19.143V29.2606V29.0079L20.2433 28.9856L21.3437 28.9633V28.7154V28.4676L21.728 28.4479C21.9395 28.4372 22.2984 28.4283 22.5257 28.4282L22.9391 28.4281L22.9478 28.1643L22.9565 27.9005L23.2354 27.8918L23.5142 27.8832V27.613V27.3428H24.0568H24.5995V27.0715V26.8002H24.8708H25.1421V26.5289V26.2576H25.4285H25.7149V25.9862V25.7149H25.9862H26.2575V25.4285V25.1421H26.5289H26.8002V24.8708V24.5995H27.0715H27.3428V24.0569V23.5142H27.6141H27.8854V22.9716V22.429H28.1568H28.4281V22.0267C28.4281 21.8055 28.437 21.4393 28.4478 21.2128L28.4676 20.8011H28.7143H28.961L28.9818 19.4937C28.9932 18.7747 28.9932 17.4186 28.9817 16.4802L28.9609 14.774L28.7021 14.7653L28.4432 14.7567L28.4351 13.9503L28.4271 13.1439H28.1563H27.8854V12.8575V12.5711H27.6141H27.3428V12.0284V11.4858H27.0726H26.8024L26.7938 11.207L26.7851 10.9281L26.5213 10.9194L26.2575 10.9107V10.6405V10.3704H25.9862H25.7149V10.0991V9.82775H25.4448H25.1746L25.1659 9.56397L25.1572 9.30019L24.8783 9.29151L24.5995 9.28285V9.01265V8.74248H24.3282H24.0568V8.47116V8.19984H23.7855H23.5142V8.47116V8.74248H23.2429H22.9716V9.0138V9.28512H23.2429H23.5142V9.55297V9.82082L24.0568 9.84282L24.5995 9.86483V10.1327V10.4005H24.8708H25.1421V10.6719V10.9432H25.41H25.6778L25.6998 11.4858L25.7218 12.0284H25.9897H26.2575V12.2998V12.5711H26.5289H26.8002V13.1137V13.6563H27.0715H27.3428V14.4703V15.2843H27.6141H27.8854V18.0276V20.7709H27.6141H27.3428V21.5999V22.429H27.0715H26.8002V22.9716V23.5142H26.5289H26.2575V23.7855V24.0569H25.9874H25.7172L25.7085 24.3357L25.6998 24.6146L25.4372 24.6233L25.1746 24.632L25.1659 24.8946L25.1572 25.1572L24.8946 25.1659L24.632 25.1746L24.6232 25.4372L24.6146 25.6998L24.3357 25.7085L24.0568 25.7172V25.9874V26.2576H23.7855H23.5142V26.5289V26.8002H22.9716H22.4289V27.0715V27.3428H21.8712H21.3135V27.6138V27.8847L20.2207 27.8926L19.1279 27.9005L19.1192 28.1643L19.1105 28.4281H17.7713H16.4322L16.4234 28.1643L16.4147 27.9005L15.3219 27.8926L14.2291 27.8847V27.6138V27.3428H13.6714H13.1137V27.0715V26.8002H12.5711H12.0284V26.5289V26.2576H11.7571H11.4858V25.9874V25.7172L11.2069 25.7085L10.9281 25.6998L10.9194 25.4372L10.9107 25.1746L10.6481 25.1659L10.3854 25.1572L10.3768 24.8784L10.3681 24.5995H10.0979H9.82773V24.3282V24.0569H9.55642H9.2851V23.7855V23.5142H9.03211H8.77915L8.75714 22.9565L8.73514 22.3988H8.46747H8.19983V21.5849V20.7709H7.92851H7.65719V18.0276V15.2843H7.92803H8.19883L8.20688 14.4778L8.2149 13.6714L8.47799 13.6627L8.74108 13.654L8.74931 13.1201L8.75754 12.5861L9.02132 12.5774L9.2851 12.5687V12.2986V12.0284H9.55295H9.8208L9.84281 11.4858L9.86481 10.9432H10.1327H10.4005V10.6719V10.4005H10.6718H10.9432V10.1327V9.86483L11.4858 9.84282L12.0284 9.82082V9.55297V9.28512H12.3148H12.6012V9.03189V8.77869L13.1438 8.75674L13.6865 8.73479V8.48705V8.23931L14.0708 8.21968C14.2822 8.20892 14.7706 8.20003 15.1561 8.19997L15.857 8.19984V7.92853V7.65721H17.7713H19.6856V7.92853V8.19984H20.7906H21.8957L21.8759 7.78811C21.8651 7.56165 21.8562 7.31767 21.8562 7.24595V7.11557L21.0497 7.10752L20.2433 7.0995L20.2346 6.83572L20.2259 6.57194H17.7713H15.3167L15.308 6.83572ZM15.5932 9.30757L15.3144 9.31752V9.57265V9.82775H14.9122C14.691 9.82775 14.3252 9.83662 14.0993 9.84744L13.6887 9.86715L13.6801 10.1263L13.6714 10.3855L13.3925 10.3941L13.1137 10.4028V10.6544V10.9061L12.5711 10.9281L12.0284 10.9501V11.218V11.4858H11.7571H11.4858V11.7571V12.0284H11.2156H10.9454L10.9368 12.3073L10.9281 12.5861L10.6679 12.5948L10.4078 12.6035L10.3858 13.1299L10.3639 13.6563H10.1142H9.86442L9.84242 14.2141L9.82041 14.7718H9.5711H9.32179L9.3015 15.3219C9.29035 15.6245 9.28549 16.2384 9.29071 16.6861L9.30017 17.5H9.57149H9.84281L9.85149 17.2212L9.86014 16.9423H10.1106H10.361L10.3808 16.5306C10.3916 16.3041 10.4005 15.8157 10.4005 15.4453V14.7718H10.6718H10.9432V14.2291V13.6865H11.2145H11.4858V13.4001V13.1137H11.7571H12.0284V12.8424V12.5711H12.2997H12.5711V12.2998V12.0284H12.8424H13.1137V11.761V11.4935L13.6563 11.4715L14.199 11.4496V11.2V10.9505L14.7567 10.9285L15.3144 10.9065V10.6564V10.4062L16.5531 10.3958C17.2345 10.3901 18.3396 10.3901 19.0089 10.3959L20.226 10.4062L20.2346 10.6672L20.2433 10.9281L20.7935 10.9363L21.3437 10.9445V11.2152V11.4858H21.8863H22.4289V11.7571V12.0284H22.7003H22.9716V12.2998V12.5711H23.2429H23.5142V12.8424V13.1137H23.7855H24.0568V13.4001V13.6865H24.3282H24.5995V14.2291V14.7718H24.8708H25.1421L25.1422 15.4425C25.1423 15.8114 25.1512 16.3066 25.162 16.5429L25.1816 16.9725H25.4332H25.6848V18.0427V19.1129H25.4332H25.1816L25.162 19.5424C25.1512 19.7787 25.1423 20.1586 25.1422 20.3865L25.1421 20.8011H24.8889H24.6357L24.6137 21.3437L24.5918 21.8863H24.3243H24.0568V22.429V22.9716H23.7855H23.5142V23.2429V23.5142H23.2429H22.9716V23.7855V24.0569H22.6852H22.3988V24.3275V24.5981L21.8637 24.6063L21.3286 24.6146L21.3199 24.8784L21.3112 25.1421H20.9101C20.6896 25.1421 20.3238 25.151 20.0974 25.1619L19.6856 25.1816V25.4288V25.6759L18.7319 25.6978C18.2073 25.7099 17.3459 25.7099 16.8176 25.6979L15.857 25.6761V25.4288V25.1816L15.4453 25.1619C15.2188 25.151 14.8525 25.1421 14.6313 25.1421H14.2291V24.8708V24.5995H13.9427H13.6563V24.3463V24.0931L13.1137 24.0711L12.5711 24.0492V23.7817V23.5142H12.2997H12.0284V23.2429V22.9716H11.7571H11.4858V22.429V21.8863H11.2183H10.9508L10.9289 21.3437L10.9069 20.8011H10.6537H10.4005V20.3838C10.4005 20.1543 10.3916 19.7812 10.3808 19.5547L10.361 19.143H9.82306H9.2851V19.8165C9.2851 20.187 9.29399 20.6753 9.30484 20.9018L9.32459 21.3135H9.57248H9.82041L9.84242 21.8712L9.86442 22.429H10.1325H10.4005V22.7003V22.9716H10.6533H10.9061L10.9281 23.5142L10.9501 24.0569H11.2179H11.4858V24.3247V24.5926L12.0273 24.6145L12.5688 24.6365L12.5775 24.8969L12.5861 25.1572L12.8488 25.1659L13.1114 25.1746L13.1201 25.4372L13.1288 25.6998L13.6627 25.7081L14.1966 25.7163L14.2053 25.9794L14.214 26.2425L15.0355 26.2505L15.857 26.2585V26.5294V26.8002H17.7713H19.6856V26.5294V26.2585L20.5071 26.2505L21.3286 26.2425L21.3373 25.9794L21.346 25.7163L21.8799 25.7081L22.4139 25.6998L22.4226 25.4372L22.4313 25.1746L22.6939 25.1659L22.9565 25.1572L22.9652 24.8969L22.9738 24.6365L23.5153 24.6145L24.0568 24.5926V24.3247V24.0569H24.3247H24.5926L24.6146 23.5142L24.6366 22.9716H24.8893H25.1421V22.7003V22.429H25.4102H25.6782L25.7002 21.8712L25.7222 21.3135H25.9701H26.2181L26.2377 20.9292C26.2485 20.7178 26.2574 20.2299 26.2574 19.8451L26.2575 19.1453L26.5213 19.1366L26.7851 19.1279V18.0427V16.9574L26.5213 16.9487L26.2575 16.94V15.8559V14.7718H25.9869H25.7163L25.7081 14.2216L25.6998 13.6714L25.4392 13.6628L25.1787 13.6541L25.1568 13.1288L25.1349 12.6035L24.8747 12.5948L24.6146 12.5861L24.6059 12.3073L24.5972 12.0284H24.327H24.0568V11.7571V11.4858H23.7855H23.5142V11.2156V10.9454L23.2354 10.9368L22.9565 10.9281L22.9479 10.6679L22.9392 10.4078L22.4128 10.3859L21.8863 10.3639V10.1146V9.86522L21.3286 9.84322L20.7709 9.82121V9.57292V9.32461L20.3591 9.30486C19.9576 9.2856 16.1484 9.28777 15.5932 9.30757Z" fill="#26A387"/>
</svg>
