<svg width="20" height="21" viewBox="0 0 20 21" fill="none" xmlns="http://www.w3.org/2000/svg">
<g clip-path="url(#clip0_238_67585)">
<path d="M9.99997 1.88892C5.09997 1.88892 1.11108 5.37781 1.11108 9.66669C1.11108 13.9556 5.09997 17.4445 9.99997 17.4445C10.9167 17.4434 11.829 17.3163 12.7111 17.0667L15.7833 19.0223C15.8672 19.0761 15.964 19.1063 16.0636 19.1099C16.1631 19.1134 16.2619 19.0901 16.3493 19.0424C16.4368 18.9947 16.5099 18.9243 16.5608 18.8386C16.6117 18.753 16.6387 18.6552 16.6389 18.5556V14.8167C17.334 14.1498 17.8887 13.3507 18.2703 12.4662C18.652 11.5818 18.8528 10.6299 18.8611 9.66669C18.8889 5.37781 14.9 1.88892 9.99997 1.88892ZM15.7166 14.1723C15.6608 14.224 15.6162 14.2868 15.5856 14.3566C15.555 14.4263 15.5391 14.5016 15.5389 14.5778V17.5445L13.1055 15.9945C13.0377 15.9516 12.9613 15.9239 12.8817 15.9133C12.8021 15.9028 12.7211 15.9096 12.6444 15.9334C11.7882 16.1993 10.8966 16.3342 9.99997 16.3334C5.71108 16.3334 2.2222 13.3445 2.2222 9.66669C2.2222 5.98892 5.71108 3.00003 9.99997 3.00003C14.2889 3.00003 17.7778 5.98892 17.7778 9.66669C17.7651 10.5195 17.5753 11.3604 17.2205 12.136C16.8657 12.9116 16.3536 13.605 15.7166 14.1723Z" fill="black"/>
<path d="M13.8889 9.11108H6.1111C5.96376 9.11108 5.82245 9.16962 5.71826 9.2738C5.61407 9.37799 5.55554 9.5193 5.55554 9.66664C5.55554 9.81398 5.61407 9.95529 5.71826 10.0595C5.82245 10.1637 5.96376 10.2222 6.1111 10.2222H13.8889C14.0362 10.2222 14.1775 10.1637 14.2817 10.0595C14.3859 9.95529 14.4444 9.81398 14.4444 9.66664C14.4444 9.5193 14.3859 9.37799 14.2817 9.2738C14.1775 9.16962 14.0362 9.11108 13.8889 9.11108Z" fill="black"/>
<path d="M12.0833 11.8889H7.91664C7.7693 11.8889 7.62799 11.9474 7.5238 12.0516C7.41962 12.1558 7.36108 12.2971 7.36108 12.4445C7.36108 12.5918 7.41962 12.7331 7.5238 12.8373C7.62799 12.9415 7.7693 13 7.91664 13H12.0833C12.2306 13 12.372 12.9415 12.4761 12.8373C12.5803 12.7331 12.6389 12.5918 12.6389 12.4445C12.6389 12.2971 12.5803 12.1558 12.4761 12.0516C12.372 11.9474 12.2306 11.8889 12.0833 11.8889Z" fill="black"/>
<path d="M6.26662 7.44436H13.7333C13.8806 7.44436 14.0219 7.38583 14.1261 7.28164C14.2303 7.17746 14.2888 7.03615 14.2888 6.88881C14.2888 6.74147 14.2303 6.60016 14.1261 6.49597C14.0219 6.39178 13.8806 6.33325 13.7333 6.33325H6.26662C6.11927 6.33325 5.97797 6.39178 5.87378 6.49597C5.76959 6.60016 5.71106 6.74147 5.71106 6.88881C5.71106 7.03615 5.76959 7.17746 5.87378 7.28164C5.97797 7.38583 6.11927 7.44436 6.26662 7.44436Z" fill="black"/>
</g>
<defs>
<clipPath id="clip0_238_67585">
<rect width="20" height="20" fill="white" transform="translate(0 0.5)"/>
</clipPath>
</defs>
</svg>
