<svg width="86" height="87" viewBox="0 0 86 87" fill="none" xmlns="http://www.w3.org/2000/svg">
<path d="M76.696 54.5994C80.8482 49.7384 83.3559 43.4312 83.3526 36.536C83.3459 21.2677 70.8691 8.76913 55.6008 8.73889C46.769 8.72042 38.8963 12.8205 33.79 19.2235C47.5786 20.8511 58.2782 32.5636 58.3051 46.7821C58.3185 53.3312 56.0358 59.3798 52.2162 64.1568C53.1484 64.2694 54.0924 64.3349 55.0498 64.3517C57.0823 64.3869 59.0643 64.2039 60.9775 63.8242C61.6073 63.6999 62.2591 63.8024 62.8134 64.1266L74.9777 71.2401C75.8763 71.7658 76.9966 71.0738 76.9311 70.0357L76.0678 56.4639C76.0241 55.7836 76.2525 55.1167 76.696 54.5994Z" fill="#26A387"/>
<path d="M11.2893 77.4683C11.2473 78.1184 11.9494 78.55 12.5104 78.2208L14.9023 76.8216C16.4627 75.9096 18.3188 75.6526 20.069 76.1044L10.7887 81.5315C10.0564 81.9598 9.14432 81.3971 9.19807 80.5505L9.64319 73.5798L10.0765 74.0485C10.9298 74.9757 11.3699 76.2119 11.2893 77.4683Z" fill="#EBECED"/>
<path d="M50.5384 26.7199C45.1786 21.3785 38.0617 18.4407 30.4964 18.4407C30.4763 18.4407 30.4578 18.4407 30.4376 18.4407C14.8182 18.4726 2.10633 31.2064 2.09961 46.8258C2.09625 53.5865 4.51164 60.1373 8.89731 65.2704C9.245 65.6786 9.41801 66.1909 9.3861 66.715C9.36594 67.0391 9.61118 67.318 9.93536 67.3381C10.2595 67.3583 10.5384 67.113 10.5585 66.7889C10.6106 65.9591 10.3385 65.1478 9.7909 64.5062C5.58664 59.5847 3.27203 53.306 3.27539 46.8258C3.28211 31.8514 15.4682 19.6451 30.441 19.6148C30.4595 19.6148 30.4779 19.6148 30.4964 19.6148C37.7476 19.6148 44.5705 22.4317 49.7087 27.5514C54.8586 32.6828 57.704 39.5124 57.7174 46.7821C57.746 61.5617 45.7513 73.7965 30.9802 74.0535C29.0284 74.0871 27.0766 73.9141 25.1768 73.5378C24.4008 73.3833 23.603 73.516 22.9294 73.9091L10.7651 81.0225C10.5333 81.1569 10.2595 81.1552 10.0328 81.0141C9.80434 80.873 9.67836 80.6312 9.69684 80.3641L10.2427 71.7742C10.2629 71.45 10.0177 71.1712 9.69348 71.1493C9.37098 71.1309 9.09047 71.3744 9.06864 71.6986L8.52274 80.2885C8.47907 80.9856 8.82004 81.6474 9.41633 82.0152C9.72036 82.2034 10.063 82.2974 10.4073 82.2974C10.7366 82.2974 11.0658 82.2118 11.3597 82.0387L23.524 74.9253C23.949 74.6767 24.4546 74.5944 24.9484 74.6935C26.9304 75.0865 28.9662 75.2662 31.0003 75.2327C38.4716 75.1033 45.4859 72.0732 50.7518 66.7015C56.0159 61.3316 58.9083 54.2567 58.8932 46.7838C58.8781 39.1983 55.9118 32.0731 50.5384 26.7199Z" fill="#2A3853"/>
<path d="M23.336 47.2087C23.336 44.8387 21.4077 42.9121 19.0393 42.9121C16.671 42.9121 14.7427 44.8404 14.7427 47.2087C14.7427 49.5771 16.671 51.5054 19.0393 51.5054C21.4077 51.5054 23.336 49.5788 23.336 47.2087ZM15.9168 47.2087C15.9168 45.4871 17.3176 44.0879 19.0376 44.0879C20.7576 44.0879 22.1585 45.4887 22.1585 47.2087C22.1585 48.9287 20.7576 50.3296 19.0376 50.3296C17.3176 50.3296 15.9168 48.9304 15.9168 47.2087ZM34.7948 47.2087C34.7948 44.8387 32.8665 42.9121 30.4981 42.9121C28.1298 42.9121 26.2015 44.8404 26.2015 47.2087C26.2015 49.5771 28.1298 51.5054 30.4981 51.5054C32.8665 51.5054 34.7948 49.5788 34.7948 47.2087ZM27.3756 47.2087C27.3756 45.4871 28.7765 44.0879 30.4965 44.0879C32.2165 44.0879 33.6173 45.4887 33.6173 47.2087C33.6173 48.9287 32.2165 50.3296 30.4965 50.3296C28.7765 50.3296 27.3756 48.9304 27.3756 47.2087ZM46.2519 47.2087C46.2519 44.8387 44.3237 42.9121 41.9553 42.9121C39.5869 42.9121 37.6587 44.8404 37.6587 47.2087C37.6587 49.5771 39.5869 51.5054 41.9553 51.5054C44.3237 51.5054 46.2519 49.5788 46.2519 47.2087ZM38.8328 47.2087C38.8328 45.4871 40.2336 44.0879 41.9536 44.0879C43.6736 44.0879 45.0745 45.4887 45.0745 47.2087C45.0745 48.9287 43.6736 50.3296 41.9536 50.3296C40.2336 50.3296 38.8328 48.9304 38.8328 47.2087Z" fill="#2A3853"/>
<path d="M24.3807 14.8243C24.2429 14.8243 24.1052 14.7773 23.9943 14.6799L20.7005 11.8026C20.4552 11.5893 20.4317 11.2181 20.645 10.9728C20.8583 10.7276 21.2296 10.7041 21.4748 10.9174L24.7687 13.7947C25.0139 14.008 25.0374 14.3792 24.8241 14.6245C24.7082 14.7555 24.5453 14.8243 24.3807 14.8243ZM36.7751 9.95325C36.7633 9.95325 36.7499 9.95325 36.7381 9.95157C36.4139 9.93142 36.1687 9.65259 36.1889 9.32841L36.4643 4.9629C36.4845 4.63872 36.7667 4.39517 37.0875 4.41364C37.4117 4.4338 37.6569 4.71263 37.6367 5.03681L37.3613 9.40232C37.3411 9.71306 37.0825 9.95325 36.7751 9.95325ZM63.9205 72.2042C63.8096 72.2042 63.6988 72.1722 63.5997 72.1084L59.9396 69.7149C59.6675 69.5368 59.5919 69.1723 59.77 68.9002C59.948 68.6281 60.3125 68.5525 60.5846 68.7306L64.2447 71.1241C64.5168 71.3022 64.5924 71.6666 64.4143 71.9388C64.3001 72.1101 64.112 72.2042 63.9205 72.2042ZM48.9931 80.7101C48.6891 80.7101 48.4304 80.4749 48.4069 80.1675L48.076 75.8071C48.0508 75.4829 48.2944 75.2007 48.6169 75.1772C48.9377 75.152 49.2232 75.3956 49.2467 75.7181L49.5776 80.0785C49.6028 80.4027 49.3593 80.6849 49.0368 80.7084C49.0233 80.7101 49.0082 80.7101 48.9931 80.7101Z" fill="#26A387"/>
</svg>
