<svg width="20" height="20" viewBox="0 0 20 20" fill="none" xmlns="http://www.w3.org/2000/svg">
<path d="M15.0202 13.6465C14.8249 13.4512 14.5084 13.4512 14.3131 13.6465L14 13.9596L13.6868 13.6465C13.4915 13.4512 13.1751 13.4512 12.9798 13.6465C12.7845 13.8418 12.7845 14.1582 12.9798 14.3535L13.293 14.6667L12.9798 14.9798C12.7845 15.1751 12.7845 15.4915 12.9798 15.6869C13.1731 15.8801 13.4931 15.8806 13.6868 15.6869L14 15.3737L14.3131 15.6869C14.4993 15.873 14.8234 15.8837 15.0202 15.6869C15.2155 15.4915 15.2155 15.1751 15.0202 14.9798L14.707 14.6667L15.0202 14.3535C15.2155 14.1582 15.2155 13.8418 15.0202 13.6465Z" fill="#26A387"/>
<path d="M14 11.5C12.2539 11.5 10.8333 12.9206 10.8333 14.6667C10.8333 16.4128 12.2539 17.8333 14 17.8333C15.7461 17.8333 17.1666 16.4128 17.1666 14.6667C17.1666 12.9206 15.7461 11.5 14 11.5ZM14 16.8333C12.8053 16.8333 11.8333 15.8613 11.8333 14.6667C11.8333 13.472 12.8053 12.5 14 12.5C15.1946 12.5 16.1666 13.472 16.1666 14.6667C16.1666 15.8613 15.1946 16.8333 14 16.8333Z" fill="#26A387"/>
<path d="M10.1732 16.8332H4.66665C4.20701 16.8332 3.83331 16.4595 3.83331 15.9998V5.99984C3.83331 5.5402 4.20701 5.1665 4.66665 5.1665H5.49998V5.99984C5.49998 6.27588 5.72394 6.49984 5.99998 6.49984H11.3333C11.6094 6.49984 11.8333 6.27588 11.8333 5.99984V5.1665H12.6666C13.1263 5.1665 13.5 5.5402 13.5 5.99984V9.99984C13.5 10.2759 13.7239 10.4998 14 10.4998C14.276 10.4998 14.5 10.2759 14.5 9.99984V5.99984C14.5 4.98877 13.6777 4.1665 12.6666 4.1665H11.8333V3.99984C11.8333 3.7238 11.6094 3.49984 11.3333 3.49984H10.4306C10.2125 2.73096 9.50421 2.1665 8.66665 2.1665C7.82908 2.1665 7.12075 2.73096 6.90265 3.49984H5.99998C5.72394 3.49984 5.49998 3.7238 5.49998 3.99984V4.1665H4.66665C3.65591 4.1665 2.83331 4.98877 2.83331 5.99984V15.9998C2.83331 17.0109 3.65591 17.8332 4.66665 17.8332H10.1732C10.4492 17.8332 10.6732 17.6092 10.6732 17.3332C10.6732 17.0571 10.4492 16.8332 10.1732 16.8332ZM6.49998 4.49984H7.33331C7.60935 4.49984 7.83331 4.27588 7.83331 3.99984C7.83331 3.5402 8.20701 3.1665 8.66665 3.1665C9.12628 3.1665 9.49998 3.5402 9.49998 3.99984C9.49998 4.27588 9.72394 4.49984 9.99998 4.49984H10.8333V5.49984H6.49998V4.49984Z" fill="#26A387"/>
<path d="M10.5 12.6665C10.5 12.3905 10.276 12.1665 9.99998 12.1665H5.33331C5.05727 12.1665 4.83331 12.3905 4.83331 12.6665C4.83331 12.9425 5.05727 13.1665 5.33331 13.1665H9.99998C10.276 13.1665 10.5 12.9425 10.5 12.6665ZM5.33331 14.1665C5.05727 14.1665 4.83331 14.3905 4.83331 14.6665C4.83331 14.9425 5.05727 15.1665 5.33331 15.1665H9.33331C9.60935 15.1665 9.83331 14.9425 9.83331 14.6665C9.83331 14.3905 9.60935 14.1665 9.33331 14.1665H5.33331ZM12.5 10.6665V8.6665C12.5 8.39046 12.276 8.1665 12 8.1665H5.33331C5.05727 8.1665 4.83331 8.39046 4.83331 8.6665V10.6665C4.83331 10.9425 5.05727 11.1665 5.33331 11.1665H12C12.276 11.1665 12.5 10.9425 12.5 10.6665ZM11.5 10.1665H5.83331V9.1665H11.5V10.1665Z" fill="#26A387"/>
</svg>
