<svg width="25" height="24" viewBox="0 0 25 24" fill="none" xmlns="http://www.w3.org/2000/svg">
<mask id="mask0_255_40417" style="mask-type:alpha" maskUnits="userSpaceOnUse" x="0" y="0" width="25" height="24">
<rect x="0.25" width="24" height="24" fill="#D9D9D9"/>
</mask>
<g mask="url(#mask0_255_40417)">
<path d="M7.75 11C6.78333 11 5.95833 10.6583 5.275 9.975C4.59167 9.29167 4.25 8.46667 4.25 7.5C4.25 6.53333 4.59167 5.70833 5.275 5.025C5.95833 4.34167 6.78333 4 7.75 4C8.71667 4 9.54167 4.34167 10.225 5.025C10.9083 5.70833 11.25 6.53333 11.25 7.5C11.25 8.46667 10.9083 9.29167 10.225 9.975C9.54167 10.6583 8.71667 11 7.75 11ZM7.75 9C8.16667 9 8.52083 8.85417 8.8125 8.5625C9.10417 8.27083 9.25 7.91667 9.25 7.5C9.25 7.08333 9.10417 6.72917 8.8125 6.4375C8.52083 6.14583 8.16667 6 7.75 6C7.33333 6 6.97917 6.14583 6.6875 6.4375C6.39583 6.72917 6.25 7.08333 6.25 7.5C6.25 7.91667 6.39583 8.27083 6.6875 8.5625C6.97917 8.85417 7.33333 9 7.75 9ZM16.75 20C15.7833 20 14.9583 19.6583 14.275 18.975C13.5917 18.2917 13.25 17.4667 13.25 16.5C13.25 15.5333 13.5917 14.7083 14.275 14.025C14.9583 13.3417 15.7833 13 16.75 13C17.7167 13 18.5417 13.3417 19.225 14.025C19.9083 14.7083 20.25 15.5333 20.25 16.5C20.25 17.4667 19.9083 18.2917 19.225 18.975C18.5417 19.6583 17.7167 20 16.75 20ZM16.75 18C17.1667 18 17.5208 17.8542 17.8125 17.5625C18.1042 17.2708 18.25 16.9167 18.25 16.5C18.25 16.0833 18.1042 15.7292 17.8125 15.4375C17.5208 15.1458 17.1667 15 16.75 15C16.3333 15 15.9792 15.1458 15.6875 15.4375C15.3958 15.7292 15.25 16.0833 15.25 16.5C15.25 16.9167 15.3958 17.2708 15.6875 17.5625C15.9792 17.8542 16.3333 18 16.75 18ZM5.65 20L4.25 18.6L18.85 4L20.25 5.4L5.65 20Z" fill="#26A387"/>
</g>
</svg>
