<svg width="20" height="20" viewBox="0 0 20 20" fill="none" xmlns="http://www.w3.org/2000/svg">
<path d="M9.99998 7.5C10.663 7.5 11.2989 7.76339 11.7677 8.23223C12.2366 8.70107 12.5 9.33696 12.5 10C12.5 10.663 12.2366 11.2989 11.7677 11.7678C11.2989 12.2366 10.663 12.5 9.99998 12.5C9.33694 12.5 8.70105 12.2366 8.23221 11.7678C7.76337 11.2989 7.49998 10.663 7.49998 10C7.49998 9.33696 7.76337 8.70107 8.23221 8.23223C8.70105 7.76339 9.33694 7.5 9.99998 7.5ZM9.99998 3.75C14.1666 3.75 17.725 6.34167 19.1666 10C17.725 13.6583 14.1666 16.25 9.99998 16.25C5.83331 16.25 2.27498 13.6583 0.833313 10C2.27498 6.34167 5.83331 3.75 9.99998 3.75ZM2.64998 10C3.32352 11.3753 4.3694 12.534 5.66871 13.3444C6.96802 14.1548 8.46864 14.5844 9.99998 14.5844C11.5313 14.5844 13.0319 14.1548 14.3312 13.3444C15.6306 12.534 16.6764 11.3753 17.35 10C16.6764 8.62474 15.6306 7.46604 14.3312 6.65562C13.0319 5.8452 11.5313 5.41557 9.99998 5.41557C8.46864 5.41557 6.96802 5.8452 5.66871 6.65562C4.3694 7.46604 3.32352 8.62474 2.64998 10Z" fill="#353843"/>
</svg>
