<svg width="20" height="20" viewBox="0 0 20 20" fill="none" xmlns="http://www.w3.org/2000/svg">
<g clip-path="url(#clip0_255_13231)">
<path d="M6.75574 18.7382H11.1358C11.5155 18.7382 11.8605 18.5835 12.1099 18.3332C12.3602 18.0829 12.5149 17.7379 12.5149 17.3582V8.58212L7.22075 3.64517V5.71989C7.22075 5.97677 7.01262 6.18583 6.75574 6.18583C6.63216 6.18583 6.51365 6.13674 6.42627 6.04936C6.33888 5.96198 6.28979 5.84347 6.28979 5.71989V3.64517L0.995649 8.58212V17.3582C0.995649 17.7379 1.15034 18.0829 1.40066 18.3332C1.65097 18.5835 1.99598 18.7382 2.37567 18.7382H6.75574ZM6.28979 2.37484V0.797C6.28979 0.673423 6.33888 0.554908 6.42627 0.467527C6.51365 0.380145 6.63216 0.331055 6.75574 0.331055C7.01262 0.331055 7.22075 0.539183 7.22075 0.797V2.09546L13.7271 1.86858C13.864 1.85264 14.0055 1.8967 14.1105 2.00171L19.3531 7.24429C19.7403 7.63242 19.9344 8.14149 19.9344 8.6515C19.9344 9.16057 19.7403 9.67058 19.3531 10.0587L14.2371 15.1747C14.0815 15.3304 13.9034 15.456 13.7121 15.5497C13.6258 15.5919 13.5368 15.6275 13.4468 15.6575V17.3591C13.4468 17.9957 13.1871 18.5742 12.769 18.9923C12.3508 19.4104 11.7724 19.6701 11.1358 19.6701H2.37567C1.7391 19.6701 1.16065 19.4104 0.74252 18.9923C0.324389 18.5742 0.0646973 17.9957 0.0646973 17.3591V8.38149H0.0656348C0.0656348 8.2568 0.115323 8.13305 0.213762 8.04118L6.28979 2.37484ZM7.22168 16.6682C7.22168 16.7294 7.20963 16.79 7.18622 16.8465C7.1628 16.903 7.12848 16.9544 7.08521 16.9977C7.04194 17.0409 6.99058 17.0752 6.93405 17.0987C6.87752 17.1221 6.81693 17.1341 6.75574 17.1341C6.69455 17.1341 6.63396 17.1221 6.57743 17.0987C6.5209 17.0752 6.46953 17.0409 6.42627 16.9977C6.383 16.9544 6.34868 16.903 6.32526 16.8465C6.30185 16.79 6.28979 16.7294 6.28979 16.6682V16.0382C5.90635 15.9501 5.56322 15.755 5.29415 15.486C4.92009 15.1119 4.68852 14.5953 4.68852 14.0244C4.68852 13.9008 4.73761 13.7823 4.82499 13.6949C4.91237 13.6075 5.03089 13.5584 5.15446 13.5584C5.27804 13.5584 5.39656 13.6075 5.48394 13.6949C5.57132 13.7823 5.62041 13.9008 5.62041 14.0244C5.62041 14.3375 5.74697 14.6216 5.95323 14.8269C6.15854 15.0322 6.44261 15.1597 6.75574 15.1597C7.06981 15.1597 7.35294 15.0322 7.55825 14.8269C7.76357 14.6216 7.89107 14.3375 7.89107 14.0244C7.89107 13.7103 7.76451 13.4272 7.55825 13.2209C7.45298 13.1154 7.3279 13.0316 7.19019 12.9745C7.05247 12.9174 6.90483 12.888 6.75574 12.8881C6.18479 12.8881 5.66822 12.6566 5.29415 12.2825C4.92009 11.9084 4.68852 11.3919 4.68852 10.8209C4.68852 10.25 4.92009 9.73339 5.29415 9.35932C5.56322 9.09025 5.90635 8.89525 6.28979 8.80713V8.17712C6.28979 8.11593 6.30185 8.05534 6.32526 7.99881C6.34868 7.94227 6.383 7.89091 6.42627 7.84764C6.46953 7.80438 6.5209 7.77005 6.57743 7.74664C6.63396 7.72322 6.69455 7.71117 6.75574 7.71117C6.81693 7.71117 6.87752 7.72322 6.93405 7.74664C6.99058 7.77005 7.04194 7.80438 7.08521 7.84764C7.12848 7.89091 7.1628 7.94227 7.18622 7.99881C7.20963 8.05534 7.22168 8.11593 7.22168 8.17712V8.80713C7.60513 8.89525 7.94826 9.09025 8.21733 9.35932C8.59139 9.73339 8.82296 10.25 8.82296 10.8209C8.82296 10.8821 8.81091 10.9427 8.78749 10.9992C8.76408 11.0557 8.72975 11.1071 8.68649 11.1504C8.64322 11.1936 8.59186 11.228 8.53532 11.2514C8.47879 11.2748 8.4182 11.2869 8.35701 11.2869C8.29583 11.2869 8.23524 11.2748 8.1787 11.2514C8.12217 11.228 8.07081 11.1936 8.02754 11.1504C7.98427 11.1071 7.94995 11.0557 7.92654 10.9992C7.90312 10.9427 7.89107 10.8821 7.89107 10.8209C7.89107 10.5078 7.76451 10.2237 7.55825 10.0184C7.45298 9.91282 7.3279 9.82907 7.19019 9.77196C7.05247 9.71484 6.90483 9.68549 6.75574 9.68558C6.44167 9.68558 6.15854 9.81308 5.95323 10.0184C5.84765 10.1237 5.7639 10.2487 5.70679 10.3865C5.64968 10.5242 5.62032 10.6718 5.62041 10.8209C5.62041 11.135 5.74697 11.4181 5.95323 11.6244C6.15854 11.8297 6.44261 11.9572 6.75574 11.9572C7.32669 11.9572 7.84326 12.1887 8.21733 12.5628C8.59139 12.9369 8.82296 13.4534 8.82296 14.0244C8.82296 14.5953 8.59139 15.1119 8.21733 15.486C7.94385 15.7598 7.59881 15.9512 7.22168 16.0382V16.6682ZM13.4468 14.6282C13.4927 14.5953 13.5368 14.5569 13.579 14.5157L18.695 9.39963C18.9003 9.19338 19.0034 8.92244 19.0034 8.6515C19.0034 8.38056 18.9003 8.10868 18.695 7.90336L13.594 2.80234L7.89294 3.0011L13.2752 8.02055C13.3802 8.10586 13.4468 8.23618 13.4468 8.38149V14.6282Z" fill="#26A387"/>
</g>
<defs>
<clipPath id="clip0_255_13231">
<rect width="20" height="20" fill="white"/>
</clipPath>
</defs>
</svg>
