<svg width="25" height="24" viewBox="0 0 25 24" fill="none" xmlns="http://www.w3.org/2000/svg">
<g clip-path="url(#clip0_238_67452)">
<g clip-path="url(#clip1_238_67452)">
<path d="M12.5 0C10.1266 0 7.80655 0.703788 5.83316 2.02236C3.85977 3.34094 2.3217 5.21508 1.41345 7.4078C0.505199 9.60051 0.267559 12.0133 0.730582 14.3411C1.1936 16.6689 2.33649 18.807 4.01472 20.4853C5.69295 22.1635 7.83115 23.3064 10.1589 23.7694C12.4867 24.2324 14.8995 23.9948 17.0922 23.0865C19.2849 22.1783 21.1591 20.6402 22.4776 18.6668C23.7962 16.6934 24.5 14.3734 24.5 12C24.4962 8.81857 23.2307 5.76854 20.9811 3.51893C18.7315 1.26932 15.6814 0.00381086 12.5 0ZM6.5 20.688C6.44663 20.1475 6.50723 19.6019 6.67787 19.0863C6.84852 18.5706 7.12543 18.0966 7.49071 17.6947C7.85598 17.2927 8.30151 16.9719 8.7985 16.7529C9.29549 16.5339 9.8329 16.4216 10.376 16.4232H14.624C15.1671 16.4216 15.7045 16.5339 16.2015 16.7529C16.6985 16.9719 17.144 17.2927 17.5093 17.6947C17.8746 18.0966 18.1515 18.5706 18.3221 19.0863C18.4928 19.6019 18.5534 20.1475 18.5 20.688C16.7378 21.9101 14.6445 22.5649 12.5 22.5649C10.3555 22.5649 8.2622 21.9101 6.5 20.688ZM19.8896 19.5264C19.7008 18.2617 19.0636 17.1071 18.0943 16.2731C17.1251 15.4391 15.8883 14.9813 14.6096 14.9832H10.376C9.09772 14.9828 7.86173 15.4411 6.89278 16.2748C5.92382 17.1086 5.28625 18.2624 5.096 19.5264C3.59939 18.0575 2.57397 16.1764 2.15044 14.1226C1.7269 12.0688 1.92442 9.93545 2.71782 7.99434C3.51123 6.05324 4.86459 4.3923 6.60544 3.2232C8.3463 2.05409 10.3958 1.42976 12.4928 1.42976C14.5898 1.42976 16.6393 2.05409 18.3802 3.2232C20.121 4.3923 21.4744 6.05324 22.2678 7.99434C23.0612 9.93545 23.2587 12.0688 22.8352 14.1226C22.4116 16.1764 21.3862 18.0575 19.8896 19.5264Z" fill="white"/>
<path d="M12.5 4.91992C11.6513 4.91992 10.8216 5.1716 10.1159 5.64312C9.41026 6.11464 8.86024 6.78484 8.53545 7.56895C8.21066 8.35307 8.12568 9.21588 8.29126 10.0483C8.45683 10.8807 8.86553 11.6453 9.46567 12.2455C10.0658 12.8456 10.8304 13.2543 11.6628 13.4199C12.4952 13.5854 13.3581 13.5005 14.1422 13.1757C14.9263 12.8509 15.5965 12.3009 16.068 11.5952C16.5395 10.8895 16.7912 10.0598 16.7912 9.21112C16.7906 8.07322 16.3383 6.98211 15.5336 6.17749C14.729 5.37287 13.6379 4.92056 12.5 4.91992ZM12.5 12.0599C11.936 12.0599 11.3846 11.8926 10.9157 11.5792C10.4468 11.2658 10.0813 10.8204 9.86561 10.2993C9.64988 9.77815 9.59356 9.20474 9.70376 8.6516C9.81397 8.09845 10.0858 7.59042 10.4848 7.19177C10.8837 6.79312 11.392 6.52176 11.9452 6.41201C12.4985 6.30227 13.0718 6.35908 13.5928 6.57525C14.1137 6.79141 14.5589 7.15723 14.8719 7.62643C15.1849 8.09562 15.3517 8.64711 15.3512 9.21112C15.3506 9.96689 15.0499 10.6915 14.5153 11.2257C13.9806 11.7599 13.2558 12.0599 12.5 12.0599Z" fill="white"/>
</g>
</g>
<defs>
<clipPath id="clip0_238_67452">
<rect width="24" height="24" fill="white" transform="translate(0.5)"/>
</clipPath>
<clipPath id="clip1_238_67452">
<rect width="24" height="24" fill="white" transform="translate(0.5)"/>
</clipPath>
</defs>
</svg>
