<svg width="20" height="20" viewBox="0 0 20 20" fill="none" xmlns="http://www.w3.org/2000/svg">
<path d="M10 12.5C10.4945 12.5 10.9778 12.3534 11.3889 12.0787C11.8 11.804 12.1205 11.4135 12.3097 10.9567C12.4989 10.4999 12.5484 9.99723 12.452 9.51228C12.3555 9.02732 12.1174 8.58187 11.7678 8.23223C11.4181 7.8826 10.9727 7.6445 10.4877 7.54804C10.0028 7.45157 9.50011 7.50108 9.04329 7.6903C8.58648 7.87952 8.19603 8.19995 7.92133 8.61108C7.64662 9.0222 7.5 9.50555 7.5 10C7.5 10.663 7.76339 11.2989 8.23223 11.7678C8.70107 12.2366 9.33696 12.5 10 12.5ZM10 8.75C10.2472 8.75 10.4889 8.82331 10.6945 8.96066C10.9 9.09802 11.0602 9.29324 11.1548 9.52165C11.2495 9.75005 11.2742 10.0014 11.226 10.2439C11.1778 10.4863 11.0587 10.7091 10.8839 10.8839C10.7091 11.0587 10.4863 11.1778 10.2439 11.226C10.0014 11.2742 9.75005 11.2495 9.52165 11.1549C9.29324 11.0602 9.09801 10.9 8.96066 10.6945C8.82331 10.4889 8.75 10.2472 8.75 10C8.75 9.66848 8.8817 9.35054 9.11612 9.11612C9.35054 8.8817 9.66848 8.75 10 8.75Z" fill="#26A387"/>
<path d="M4.11876 10.5062L3.88126 10.625C3.45176 10.8734 3.13824 11.2819 3.00938 11.7611C2.88052 12.2402 2.94682 12.7509 3.19376 13.1812L3.81876 14.2688C3.93809 14.4859 4.09929 14.6773 4.29303 14.8318C4.48677 14.9863 4.70921 15.1008 4.9475 15.1688C5.18578 15.2368 5.43518 15.2569 5.68128 15.2279C5.92737 15.199 6.16529 15.1215 6.38126 15L6.57501 14.8938C6.67002 14.8389 6.7778 14.81 6.88751 14.81C6.99722 14.81 7.105 14.8389 7.20001 14.8938C7.29151 14.948 7.36766 15.0246 7.42125 15.1165C7.47484 15.2084 7.5041 15.3124 7.50626 15.4187V15.625C7.50626 16.1223 7.7038 16.5992 8.05543 16.9508C8.40706 17.3025 8.88398 17.5 9.38126 17.5H10.6313C11.1285 17.5 11.6055 17.3025 11.9571 16.9508C12.3087 16.5992 12.5063 16.1223 12.5063 15.625V15.3937C12.5091 15.2868 12.5393 15.1824 12.594 15.0905C12.6487 14.9985 12.7261 14.9222 12.8188 14.8688C12.9138 14.8139 13.0215 14.785 13.1313 14.785C13.241 14.785 13.3487 14.8139 13.4438 14.8688L13.6375 14.9812C14.0677 15.2307 14.5793 15.2991 15.0598 15.1713C15.5404 15.0435 15.9505 14.7301 16.2 14.3L16.825 13.2125C16.9892 12.9273 17.0754 12.604 17.075 12.275C17.0778 11.9396 16.9905 11.6096 16.8223 11.3193C16.6541 11.0291 16.4112 10.7893 16.1188 10.625L15.8813 10.4813C15.7931 10.4294 15.7201 10.3554 15.6693 10.2666C15.6186 10.1778 15.5919 10.0773 15.5919 9.975C15.5919 9.87273 15.6186 9.77223 15.6693 9.68344C15.7201 9.59465 15.7931 9.52064 15.8813 9.46875L16.1188 9.325C16.5483 9.07658 16.8618 8.66805 16.9906 8.18891C17.1195 7.70978 17.0532 7.1991 16.8063 6.76875L16.1813 5.68125C15.9318 5.25112 15.5216 4.93771 15.0411 4.80995C14.5605 4.6822 14.0489 4.75056 13.6188 5L13.4188 5.1125C13.3264 5.16193 13.2231 5.18735 13.1184 5.18644C13.0136 5.18553 12.9108 5.15832 12.8193 5.10729C12.7279 5.05626 12.6507 4.98307 12.5949 4.89443C12.5391 4.80579 12.5065 4.70454 12.5 4.6V4.375C12.5 3.87772 12.3025 3.40081 11.9508 3.04917C11.5992 2.69754 11.1223 2.5 10.625 2.5H9.37501C8.87773 2.5 8.40081 2.69754 8.04918 3.04917C7.69755 3.40081 7.50001 3.87772 7.50001 4.375V4.6C7.49816 4.70758 7.46857 4.81286 7.4141 4.90565C7.35964 4.99843 7.28214 5.07559 7.18911 5.12965C7.09608 5.18371 6.99068 5.21283 6.88309 5.21421C6.77551 5.21558 6.66939 5.18916 6.57501 5.1375L6.38126 5C5.9511 4.75056 5.43948 4.6822 4.95893 4.80995C4.47837 4.93771 4.06825 5.25112 3.81876 5.68125L3.19376 6.76875C3.06358 6.98391 2.97801 7.22306 2.94214 7.47197C2.90627 7.72088 2.92085 7.97446 2.98499 8.21762C3.04913 8.46078 3.16154 8.68856 3.31551 8.88739C3.46949 9.08622 3.66188 9.25205 3.88126 9.375L4.11876 9.51875C4.20689 9.57064 4.27994 9.64465 4.3307 9.73344C4.38145 9.82223 4.40815 9.92273 4.40815 10.025C4.40815 10.1273 4.38145 10.2278 4.3307 10.3166C4.27994 10.4054 4.20689 10.4794 4.11876 10.5312V10.5062ZM4.50626 11.7562L4.74376 11.6125C5.02131 11.4507 5.25159 11.219 5.41164 10.9405C5.57169 10.6619 5.65592 10.3463 5.65592 10.025C5.65592 9.70374 5.57169 9.3881 5.41164 9.10955C5.25159 8.831 5.02131 8.59928 4.74376 8.4375L4.50626 8.29375C4.43453 8.25277 4.37163 8.19797 4.32121 8.13253C4.27079 8.06709 4.23385 7.99231 4.21251 7.9125C4.17114 7.75409 4.19359 7.58578 4.27501 7.44375L4.90001 6.35625C4.94136 6.28515 4.99634 6.22292 5.06179 6.17311C5.12724 6.12331 5.20188 6.08691 5.28143 6.06601C5.36097 6.0451 5.44386 6.04011 5.52535 6.0513C5.60683 6.0625 5.6853 6.08967 5.75626 6.13125L5.95001 6.24375C6.23618 6.40606 6.56003 6.49022 6.88902 6.48777C7.21801 6.48532 7.54057 6.39635 7.8243 6.22978C8.10802 6.06322 8.34292 5.82494 8.50541 5.53886C8.6679 5.25279 8.75226 4.92899 8.75001 4.6V4.375C8.75001 4.20924 8.81586 4.05027 8.93307 3.93306C9.05028 3.81585 9.20925 3.75 9.37501 3.75H10.625C10.7908 3.75 10.9497 3.81585 11.067 3.93306C11.1842 4.05027 11.25 4.20924 11.25 4.375V4.6C11.2473 4.92862 11.331 5.25218 11.4927 5.53826C11.6544 5.82434 11.8885 6.06289 12.1714 6.23001C12.4544 6.39713 12.7763 6.48694 13.1049 6.49045C13.4335 6.49396 13.7573 6.41104 14.0438 6.25L14.2438 6.13125C14.3147 6.08967 14.3932 6.0625 14.4747 6.0513C14.5562 6.04011 14.639 6.0451 14.7186 6.06601C14.7981 6.08691 14.8728 6.12331 14.9382 6.17311C15.0037 6.22292 15.0587 6.28515 15.1 6.35625L15.725 7.44375C15.8064 7.58578 15.8289 7.75409 15.7875 7.9125C15.7662 7.99231 15.7292 8.06709 15.6788 8.13253C15.6284 8.19797 15.5655 8.25277 15.4938 8.29375L15.2563 8.4375C14.9787 8.59928 14.7484 8.831 14.5884 9.10955C14.4283 9.3881 14.3441 9.70374 14.3441 10.025C14.3441 10.3463 14.4283 10.6619 14.5884 10.9405C14.7484 11.219 14.9787 11.4507 15.2563 11.6125L15.4938 11.7562C15.5655 11.7972 15.6284 11.852 15.6788 11.9175C15.7292 11.9829 15.7662 12.0577 15.7875 12.1375C15.8289 12.2959 15.8064 12.4642 15.725 12.6062L15.1 13.6938C15.0587 13.7648 15.0037 13.8271 14.9382 13.8769C14.8728 13.9267 14.7981 13.9631 14.7186 13.984C14.639 14.0049 14.5562 14.0099 14.4747 13.9987C14.3932 13.9875 14.3147 13.9603 14.2438 13.9188L14.05 13.8062C13.765 13.6417 13.4416 13.555 13.1125 13.555C12.7834 13.555 12.46 13.6417 12.175 13.8062C11.8976 13.9692 11.6667 14.2009 11.5047 14.4789C11.3427 14.757 11.255 15.072 11.25 15.3937V15.625C11.25 15.7908 11.1842 15.9497 11.067 16.0669C10.9497 16.1842 10.7908 16.25 10.625 16.25H9.37501C9.20925 16.25 9.05028 16.1842 8.93307 16.0669C8.81586 15.9497 8.75001 15.7908 8.75001 15.625V15.4C8.74789 15.0731 8.66034 14.7525 8.49607 14.4699C8.33179 14.1873 8.09648 13.9525 7.81349 13.7889C7.5305 13.6253 7.20965 13.5385 6.88277 13.5372C6.55589 13.5358 6.23434 13.62 5.95001 13.7812L5.75626 13.8937C5.6853 13.9353 5.60683 13.9625 5.52535 13.9737C5.44386 13.9849 5.36097 13.9799 5.28143 13.959C5.20188 13.9381 5.12724 13.9017 5.06179 13.8519C4.99634 13.8021 4.94136 13.7398 4.90001 13.6688L4.27501 12.5812C4.19359 12.4392 4.17114 12.2709 4.21251 12.1125C4.23385 12.0327 4.27079 11.9579 4.32121 11.8925C4.37163 11.827 4.43453 11.7722 4.50626 11.7313V11.7562Z" fill="#26A387"/>
</svg>
