<svg width="32" height="32" viewBox="0 0 32 32" fill="none" xmlns="http://www.w3.org/2000/svg">
<path d="M23.632 2.99611H8.30703C7.69953 2.99611 7.20703 3.44011 7.20703 3.98761V8.35811C7.60353 8.12761 8.11453 7.98311 8.68053 7.98311H12.208C12.217 7.72961 12.2225 7.46811 12.2225 7.19761C12.2225 6.22061 12.161 5.33561 12.0615 4.68261V4.63061C13.0675 4.97311 14.447 5.18461 15.9695 5.18461C17.492 5.18461 18.871 4.97311 19.8775 4.63061V4.76261C19.785 5.40711 19.728 6.25961 19.728 7.19761C19.728 7.46861 19.734 7.72961 19.743 7.98311H23.2585C23.8245 7.98311 24.336 8.12761 24.732 8.35811V3.98711C24.732 3.43961 24.2395 2.99611 23.632 2.99611Z" stroke="#26A387" stroke-linecap="round" stroke-linejoin="round"/>
<path d="M1.93848 21.7964V21.8189C1.93848 21.8134 1.94048 21.8029 1.94048 21.7964H1.93848Z" stroke="#26A387" stroke-linecap="round" stroke-linejoin="round"/>
<path d="M27.2465 23.6628H4.69248C3.17148 23.6628 1.93848 22.8373 1.93848 21.8188V25.7833C1.93848 26.7313 2.84898 27.5003 3.97248 27.5003H27.9665C29.09 27.5003 30.0005 26.7318 30.0005 25.7833V21.8188C30.0005 22.8373 28.7675 23.6628 27.2465 23.6628Z" stroke="#26A387" stroke-linecap="round" stroke-linejoin="round"/>
<path d="M29.998 21.7964C29.998 21.8029 30 21.8134 30 21.8189V21.7964H29.998Z" stroke="#26A387" stroke-linecap="round" stroke-linejoin="round"/>
<path d="M27.5765 13.9226C27.4595 13.8806 27.3365 13.8506 27.206 13.8506H4.73348C4.60248 13.8506 4.47998 13.8801 4.36298 13.9226C3.25098 17.2176 1.93848 21.2321 1.93848 21.8191C1.93848 22.8376 3.17148 23.6631 4.69248 23.6631H27.2465C28.7675 23.6631 30.0005 22.8376 30.0005 21.8191C30.0005 21.2321 28.6885 17.2176 27.5765 13.9226Z" stroke="#26A387" stroke-linecap="round" stroke-linejoin="round"/>
<path d="M26.6093 10.8114H5.33026C5.09276 10.8114 4.88476 10.9464 4.82476 11.1404L3.84026 14.3009C4.04626 14.0264 4.37076 13.8504 4.73376 13.8504H27.2058C27.5688 13.8504 27.8933 14.0264 28.0993 14.3009L27.1148 11.1404C27.0543 10.9464 26.8468 10.8114 26.6093 10.8114ZM19.7283 7.19688C19.7283 6.25888 19.7853 5.40638 19.8778 4.76188V4.62988C18.8718 4.97238 17.4923 5.18388 15.9698 5.18388C14.4473 5.18388 13.0683 4.97238 12.0618 4.62988V4.68188C12.1613 5.33488 12.2228 6.21988 12.2228 7.19688C12.2228 8.17388 12.1613 9.05888 12.0618 9.71188V9.76388C13.0678 9.42138 14.4473 9.20988 15.9698 9.20988C17.4923 9.20988 18.8713 9.42138 19.8778 9.76388V9.63188C19.7853 8.98738 19.7283 8.13488 19.7283 7.19688ZM27.9668 27.5004H3.97226C3.50626 27.5004 3.08226 27.3629 2.73926 27.1404V29.1379H29.2003V27.1404C28.8573 27.3629 28.4328 27.5004 27.9668 27.5004Z" stroke="#26A387" stroke-linecap="round" stroke-linejoin="round"/>
<path d="M25.5159 9.49392C25.5159 8.65942 24.5054 7.98242 23.2584 7.98242H19.7429C19.7649 8.60692 19.8774 9.76392 19.8774 9.76392C18.8714 9.42142 17.4919 9.20992 15.9694 9.20992C14.4469 9.20992 13.0679 9.42142 12.0614 9.76392V9.71192C12.1334 9.23992 12.1844 8.64392 12.2079 7.98242H8.68045C7.43395 7.98242 6.42295 8.65892 6.42295 9.49392C6.42295 9.49392 6.25095 9.98792 5.98145 10.7709H25.9574C25.6879 9.98842 25.5159 9.49392 25.5159 9.49392Z" stroke="#26A387" stroke-linecap="round" stroke-linejoin="round"/>
</svg>
