<svg width="17" height="17" viewBox="0 0 17 17" fill="none" xmlns="http://www.w3.org/2000/svg">
<path d="M10.7116 5.42473C10.7844 5.57216 10.9249 5.67439 11.0876 5.69816L15.6141 6.35978C15.6926 6.37125 15.7577 6.42625 15.7822 6.50167C15.8066 6.57709 15.7862 6.65985 15.7294 6.71517L12.4546 9.9048C12.3367 10.0197 12.2828 10.1852 12.3107 10.3475L13.0835 14.8536C13.0969 14.9318 13.0648 15.0108 13.0006 15.0574C12.9365 15.104 12.8514 15.1101 12.7812 15.0732L8.7334 12.9445C8.58771 12.8679 8.41364 12.8679 8.26795 12.9445L4.22014 15.0732C4.14995 15.1101 4.06489 15.104 4.00073 15.0574C3.93657 15.0108 3.90443 14.9318 3.91784 14.8536L4.69069 10.3475C4.71852 10.1852 4.66469 10.0197 4.54675 9.9048L1.27198 6.71517C1.21518 6.65985 1.19471 6.57709 1.21916 6.50167C1.24362 6.42625 1.30876 6.37125 1.38721 6.35978L5.91372 5.69816C6.07639 5.67439 6.21699 5.57216 6.28976 5.42473L8.31386 1.32413C8.34896 1.25302 8.42138 1.20801 8.50067 1.20801C8.57997 1.20801 8.65239 1.25302 8.68748 1.32413L10.7116 5.42473ZM8.94902 2.79533C8.86479 2.62468 8.69098 2.51665 8.50067 2.51665C8.31036 2.51665 8.13655 2.62468 8.05232 2.79533L6.49874 5.94272C6.46841 6.00415 6.40983 6.04674 6.34205 6.05665L6.41437 6.55139L6.34205 6.05665L2.86682 6.56461C2.67854 6.59213 2.5222 6.72413 2.46351 6.90514C2.40482 7.08614 2.45395 7.28477 2.59026 7.41753L5.10437 9.86627C5.15351 9.91413 5.17594 9.98311 5.16434 10.0507L4.57116 13.5093C4.53899 13.6968 4.61611 13.8864 4.7701 13.9983C4.92409 14.1102 5.12823 14.1249 5.29669 14.0363L8.4037 12.4024C8.46441 12.3704 8.53694 12.3704 8.59764 12.4024L11.7046 14.0363C11.8731 14.1249 12.0773 14.1102 12.2312 13.9983C12.3852 13.8864 12.4624 13.6968 12.4302 13.5093L11.837 10.0507C11.8254 9.98312 11.8478 9.91413 11.897 9.86627L14.4111 7.41753C14.5474 7.28477 14.5965 7.08614 14.5378 6.90514C14.4791 6.72413 14.3228 6.59213 14.1345 6.56461L10.6593 6.05665C10.5915 6.04674 10.5329 6.00415 10.5026 5.94272L8.94902 2.79533Z" stroke="#9E9E9E" stroke-linecap="round" stroke-linejoin="round"/>
<path d="M4.95833 10.625L2.125 6.375L6.375 5.66667L8.5 2.125L10.625 5.66667L14.875 7.08333L12.0417 9.91667L12.75 14.875L8.5 12.75L4.25 14.875L4.95833 10.625Z" stroke="#9E9E9E"/>
</svg>
