<svg width="18" height="18" viewBox="0 0 18 18" fill="none" xmlns="http://www.w3.org/2000/svg">
<path fill-rule="evenodd" clip-rule="evenodd" d="M9.00001 0.75C9.28547 0.75 9.54618 0.912054 9.67254 1.16803L11.8157 5.50985L16.6085 6.21039C16.8909 6.25167 17.1254 6.44967 17.2134 6.72118C17.3015 6.99268 17.2278 7.29062 17.0233 7.48977L13.5559 10.867L14.3742 15.6382C14.4225 15.9196 14.3068 16.204 14.0758 16.3718C13.8448 16.5396 13.5386 16.5617 13.2859 16.4288L9.00001 14.1749L4.7141 16.4288C4.46141 16.5617 4.15519 16.5396 3.92421 16.3718C3.69322 16.204 3.57754 15.9196 3.6258 15.6382L4.44412 10.867L0.976707 7.48977C0.772243 7.29062 0.698539 6.99268 0.786572 6.72118C0.874605 6.44967 1.10912 6.25167 1.39154 6.21039L6.18431 5.50985L8.32748 1.16803C8.45383 0.912054 8.71454 0.75 9.00001 0.75ZM9.00001 3.19444L7.35504 6.52697C7.24588 6.7481 7.03499 6.90145 6.79098 6.93712L3.11132 7.47495L5.77331 10.0677C5.95021 10.24 6.03096 10.4884 5.98921 10.7318L5.36114 14.3938L8.65092 12.6637C8.86946 12.5488 9.13056 12.5488 9.3491 12.6637L12.6389 14.3938L12.0108 10.7318C11.9691 10.4884 12.0498 10.24 12.2267 10.0677L14.8887 7.47495L11.209 6.93712C10.965 6.90145 10.7541 6.7481 10.645 6.52697L9.00001 3.19444Z" fill="#FEC22D"/>
<path d="M5.25 11.25L2.25 6.75L6.75 6L9 2.25L11.25 6L15.75 7.5L12.75 10.5L13.5 15.75L9 13.5L4.5 15.75L5.25 11.25Z" fill="#FEC22D"/>
</svg>
