<svg width="17" height="17" viewBox="0 0 17 17" fill="none" xmlns="http://www.w3.org/2000/svg">
<path fill-rule="evenodd" clip-rule="evenodd" d="M8.50067 0.708008C8.77028 0.708008 9.01651 0.861059 9.13584 1.10282L11.1599 5.20342L15.6864 5.86504C15.9532 5.90403 16.1747 6.09103 16.2578 6.34745C16.3409 6.60387 16.2713 6.88526 16.0782 7.07335L12.8035 10.263L13.5763 14.7691C13.6219 15.0349 13.5126 15.3034 13.2945 15.4619C13.0763 15.6204 12.7871 15.6413 12.5485 15.5158L8.50067 13.3871L4.45287 15.5158C4.21422 15.6413 3.92501 15.6204 3.70686 15.4619C3.48871 15.3034 3.37945 15.0349 3.42503 14.7691L4.19789 10.263L0.923111 7.07335C0.730006 6.88526 0.660397 6.60387 0.743539 6.34745C0.826682 6.09103 1.04816 5.90403 1.31489 5.86504L5.8414 5.20342L7.8655 1.10282C7.98484 0.861059 8.23107 0.708008 8.50067 0.708008ZM8.50067 3.01665L6.94709 6.16403C6.844 6.37288 6.64483 6.51771 6.41437 6.55139L2.93913 7.05935L5.45323 9.50809C5.62031 9.67082 5.69657 9.90537 5.65714 10.1352L5.06397 13.5938L8.17098 11.9598C8.37737 11.8513 8.62397 11.8513 8.83037 11.9598L11.9374 13.5938L11.3442 10.1352C11.3048 9.90537 11.381 9.67082 11.5481 9.50809L14.0622 7.05935L10.587 6.55139C10.3565 6.51771 10.1573 6.37288 10.0543 6.16403L8.50067 3.01665Z" fill="#FEC22D"/>
<path d="M4.95833 10.625L2.125 6.375L6.375 5.66667L8.5 2.125L10.625 5.66667L14.875 7.08333L12.0417 9.91667L12.75 14.875L8.5 12.75L4.25 14.875L4.95833 10.625Z" fill="#FEC22D"/>
</svg>
