<svg width="32" height="32" viewBox="0 0 32 32" fill="none" xmlns="http://www.w3.org/2000/svg">
<g clip-path="url(#clip0_338_8101)">
<path d="M0 1.1209C0 0.766066 0 0.419292 0 0.0644531C10.6371 0.0644531 21.2823 0.0644531 31.9194 0.0644531C31.9194 0.427356 31.9194 0.741872 31.9194 1.09671C29.6936 1.09671 27.4839 1.09671 25.2742 1.09671C25.2742 4.49187 25.2742 7.85478 25.2742 11.2338C25.9597 11.2822 26.6129 11.3306 27.2661 11.379C27.3548 10.8548 27.3548 10.8548 27 10.629C26.4113 10.258 26.1452 9.56445 26.3387 8.8951C26.5323 8.23381 27.1371 7.78219 27.8306 7.79026C28.5161 7.79832 29.121 8.26607 29.3065 8.91929C29.4919 9.59671 29.2097 10.3064 28.5806 10.6532C28.3871 10.758 28.3226 10.8709 28.3226 11.0806C28.3306 14.0241 28.3306 16.9677 28.3226 19.9032C28.3226 20.1209 28.4032 20.2338 28.5726 20.3467C29.7258 21.1451 30.3387 22.2499 30.379 23.6532C30.4032 24.3225 29.9919 24.7419 29.3145 24.7661C29.1613 24.7741 29.0161 24.7661 28.8629 24.7661C28.8629 25.1451 28.8629 25.4596 28.8629 25.7903C29.0323 25.7983 29.1855 25.8145 29.3468 25.8225C29.3468 27.1935 29.3468 28.5483 29.3468 29.9354C28.9516 29.9354 28.5887 29.9354 28.2177 29.9354C28.0403 30.637 27.8629 31.3145 27.6936 31.9838C26.4032 31.9838 25.1129 31.9838 23.8226 31.9838C23.6613 31.3709 23.4919 30.7661 23.3468 30.1532C23.3065 29.9757 23.2339 29.9274 23.0565 29.9274C18.3306 29.9354 13.6048 29.9354 8.87097 29.9274C8.69355 29.9274 8.62097 29.9757 8.58065 30.1532C8.43548 30.7661 8.26613 31.379 8.10484 31.9919C6.81452 31.9919 5.52419 31.9919 4.23387 31.9919C4.05645 31.3145 3.8871 30.629 3.70161 29.9193C3.32258 29.9193 2.95161 29.9193 2.58065 29.9193C2.58065 28.5403 2.58065 27.1935 2.58065 25.8306C2.75 25.8225 2.90323 25.8064 3.06452 25.7983C3.06452 25.4596 3.06452 25.137 3.06452 24.7741C2.91129 24.7741 2.78226 24.7741 2.64516 24.7741C1.92742 24.758 1.52419 24.3386 1.54839 23.629C1.60484 22.2499 2.20161 21.1612 3.33065 20.3709C3.54032 20.2257 3.60484 20.0806 3.60484 19.8386C3.59677 16.9354 3.59677 14.0403 3.60484 11.137C3.60484 10.9032 3.56452 10.758 3.32258 10.629C2.70968 10.2983 2.44355 9.58058 2.62097 8.91929C2.79839 8.258 3.41129 7.79026 4.08871 7.78219C4.78226 7.77413 5.3871 8.22574 5.58065 8.88703C5.77419 9.55639 5.51613 10.2499 4.91935 10.6209C4.57258 10.8386 4.54032 10.9274 4.67742 11.3709C5.33065 11.3225 5.98387 11.2661 6.64516 11.2177C6.64516 7.81445 6.64516 4.45961 6.64516 1.09671C6.55645 1.08865 6.49194 1.08058 6.43548 1.08058C4.35484 1.08058 2.27419 1.08058 0.201613 1.08058C0.145161 1.09671 0.0725807 1.11284 0 1.1209ZM25.7419 26.8548C18.3548 26.8548 10.9919 26.8548 3.62903 26.8548C3.62903 27.5564 3.62903 28.2177 3.62903 28.887C11.8629 28.887 20.0726 28.887 28.2984 28.887C28.2984 28.2016 28.2984 27.5322 28.2984 26.8386C27.7903 26.8386 27.3065 26.8386 26.8065 26.8386C26.8065 26.4838 26.8065 26.1612 26.8065 25.8145C27.1532 25.8145 27.4677 25.8145 27.7984 25.8145C27.7984 25.2096 27.8306 24.629 27.7903 24.0564C27.75 23.5645 27.4839 23.1532 27.0242 22.9516C26.7097 22.8145 26.3468 22.7338 26.0081 22.7338C19.3145 22.7177 12.621 22.7257 5.92742 22.7257C5.78226 22.7257 5.6371 22.7338 5.49194 22.7499C4.79032 22.8386 4.23387 23.3306 4.16129 24.0241C4.10484 24.6048 4.14516 25.2016 4.14516 25.8225C11.3468 25.8225 18.5403 25.8225 25.75 25.8225C25.7419 26.1693 25.7419 26.4757 25.7419 26.8548ZM24.1855 11.1128C24.1855 7.73381 24.1855 4.42736 24.1855 1.1209C21.6129 1.1209 19.0565 1.1209 16.5 1.1209C16.5 1.46768 16.5 1.78219 16.5 2.12897C18.0484 2.12897 19.5726 2.12897 21.121 2.12897C21.121 2.7822 21.129 3.40316 21.121 4.02413C21.121 4.20155 21.1694 4.29832 21.3306 4.38703C21.8468 4.66123 22.129 5.11284 22.1371 5.70155C22.1532 6.45155 21.621 7.11284 20.9032 7.24187C20.1452 7.37897 19.4032 6.96768 19.1532 6.26607C18.8952 5.54026 19.1855 4.77413 19.8548 4.38703C19.9436 4.33865 20.0645 4.24994 20.0726 4.17736C20.0968 3.84671 20.0806 3.51607 20.0806 3.19349C18.8629 3.19349 17.6855 3.19349 16.4919 3.19349C16.4919 3.53219 16.4919 3.85478 16.4919 4.19349C16.7984 4.12897 16.8871 4.31445 16.9758 4.54832C17.3548 5.51607 17.7419 6.47574 18.129 7.43542C18.1774 7.54832 18.2097 7.66123 18.2581 7.79026C16.7177 7.79026 15.2177 7.79026 13.6855 7.79026C13.7258 7.66123 13.7581 7.55639 13.7984 7.45155C14.1855 6.49187 14.5726 5.52413 14.9516 4.56445C15.0403 4.33058 15.121 4.11284 15.4355 4.18542C15.4355 3.84671 15.4355 3.52413 15.4355 3.19349C14.2339 3.19349 13.0565 3.19349 11.8468 3.19349C11.8468 3.44349 11.8629 3.68542 11.8387 3.91929C11.8145 4.16929 11.8871 4.32252 12.129 4.45155C12.7419 4.79026 13 5.508 12.8065 6.16929C12.6129 6.83865 12.0081 7.29026 11.3226 7.29026C10.6371 7.29026 10.0323 6.82252 9.84678 6.16123C9.65323 5.49187 9.91936 4.78219 10.5323 4.44349C10.7661 4.31445 10.8145 4.16929 10.8145 3.93542C10.7984 3.34671 10.8065 2.758 10.8065 2.12897C12.379 2.12897 13.9032 2.12897 15.4274 2.12897C15.4274 1.77413 15.4274 1.45961 15.4274 1.13703C12.8548 1.13703 10.2984 1.13703 7.75 1.13703C7.75 4.45961 7.75 7.758 7.75 11.0967C8.43548 10.9354 9.10484 10.8306 9.75 10.629C11.0484 10.2096 12.3387 9.74187 13.629 9.28219C15.1935 8.71768 16.7581 8.70961 18.3226 9.29026C19.2742 9.6451 20.2177 10.0322 21.1855 10.3306C22.1613 10.6209 23.1613 10.8467 24.1855 11.1128ZM27.2823 12.4193C27.1613 12.4112 27.0565 12.4032 26.9597 12.3951C25.0565 12.2903 23.1774 12.0161 21.3548 11.4435C20.2258 11.0886 19.1371 10.629 18.0161 10.2499C17.0887 9.93542 16.129 9.69348 15.1452 9.93542C14.371 10.1209 13.5968 10.3467 12.8629 10.6451C10.8952 11.4435 8.87903 11.9999 6.76613 12.2338C6.06452 12.3145 5.3629 12.3709 4.65323 12.4354C4.65323 14.8709 4.65323 17.3064 4.65323 19.7257C5.16936 19.6854 5.66129 19.6451 6.17742 19.6048C6.17742 19.4838 6.17742 19.3709 6.17742 19.258C6.17742 18.2015 6.16935 17.137 6.17742 16.0806C6.18548 15.2983 6.70968 14.7096 7.45161 14.7015C7.75807 14.7015 8.08065 14.8225 8.3629 14.9515C8.62903 15.0725 8.85484 15.1128 9.14516 14.9999C10.2177 14.5886 11.3226 14.5645 12.4032 14.9757C12.75 15.1048 13.0161 15.0645 13.3306 14.9032C14.4597 14.3306 15.4516 14.9435 15.4516 16.2177C15.4516 17.2177 15.4516 18.2096 15.4516 19.2096C15.4516 19.3386 15.4516 19.4757 15.4516 19.6128C15.8065 19.6128 16.121 19.6128 16.4677 19.6128C16.4677 19.4838 16.4677 19.3709 16.4677 19.258C16.4677 18.2177 16.4597 17.1774 16.4677 16.137C16.4758 15.3064 16.9839 14.6935 17.7419 14.6935C18.0968 14.6935 18.4516 14.8709 18.7984 15.008C18.9839 15.0806 19.129 15.1048 19.3226 15.0322C20.4194 14.6128 21.5323 14.5403 22.6371 14.9515C23.0161 15.0967 23.3226 15.0645 23.6855 14.879C24.7419 14.3386 25.7419 14.9596 25.75 16.1451C25.7581 17.1854 25.75 18.2257 25.75 19.2661C25.75 19.379 25.75 19.4919 25.75 19.5967C26.2742 19.637 26.7661 19.6774 27.2823 19.7177C27.2823 17.3145 27.2823 14.887 27.2823 12.4193ZM29.3468 23.7338C29.3468 23.637 29.3548 23.5564 29.3468 23.4757C29.1694 21.8306 27.8629 20.6612 26.1694 20.6612C19.371 20.6532 12.5806 20.6532 5.78226 20.6612C4.72581 20.6612 3.83871 21.0645 3.20161 21.9274C2.79839 22.4596 2.59677 23.0645 2.59677 23.7338C3.10484 23.7903 3.10484 23.7903 3.28226 23.3467C3.29839 23.3064 3.31452 23.2741 3.33065 23.2338C3.84677 22.1854 4.70161 21.7016 5.8629 21.7016C12.6048 21.7096 19.3468 21.7016 26.0968 21.7016C26.2177 21.7016 26.3468 21.7016 26.4677 21.7096C27.5403 21.8145 28.2742 22.379 28.6855 23.3628C28.8468 23.7741 28.8306 23.7822 29.3468 23.7338ZM14.4113 19.629C14.4113 18.4193 14.4194 17.2338 14.4032 16.0483C14.4032 15.7741 14.1774 15.6532 13.9194 15.7661C13.6532 15.879 13.3952 16.008 13.1371 16.1532C12.9597 16.258 12.8145 16.258 12.621 16.1612C11.6371 15.7015 10.5968 15.4838 9.58065 15.9515C8.91936 16.2499 8.3871 16.1935 7.80645 15.8225C7.41936 15.5806 7.20968 15.7338 7.20968 16.2015C7.20968 17.258 7.20968 18.3225 7.20968 19.379C7.20968 19.4596 7.22581 19.5322 7.24194 19.6209C9.6371 19.629 12 19.629 14.4113 19.629ZM24.6694 19.6209C24.6855 19.5886 24.7016 19.5725 24.7016 19.5483C24.7016 18.387 24.7177 17.2177 24.7097 16.0564C24.7097 15.758 24.4919 15.6451 24.2097 15.7661C23.9436 15.887 23.6855 16.0161 23.4274 16.1532C23.2581 16.2499 23.129 16.2499 22.9436 16.1693C21.9597 15.7096 20.9194 15.4838 19.9032 15.9435C19.2258 16.2499 18.6936 16.1854 18.1048 15.8145C17.7339 15.5806 17.5242 15.7419 17.5242 16.1854C17.5242 17.1128 17.5242 18.0322 17.5242 18.9596C17.5242 19.1774 17.5242 19.387 17.5242 19.6209C19.9274 19.6209 22.3065 19.6209 24.6694 19.6209ZM4.79032 29.9515C4.8629 30.2499 4.91935 30.5403 5.00806 30.8145C5.03226 30.879 5.15323 30.9596 5.23387 30.9596C5.87097 30.9677 6.5 30.9677 7.1371 30.9596C7.20968 30.9596 7.33065 30.9032 7.34677 30.8467C7.43548 30.5645 7.5 30.2661 7.57258 29.9596C6.62903 29.9515 5.72581 29.9515 4.79032 29.9515ZM27.1371 29.9677C26.2016 29.9677 25.2903 29.9677 24.3548 29.9677C24.4274 30.2661 24.4839 30.5241 24.5726 30.7822C24.5968 30.8628 24.7177 30.9515 24.7984 30.9596C25.4274 30.9757 26.0645 30.9757 26.7016 30.9596C26.7823 30.9596 26.9032 30.879 26.9274 30.8145C27.0161 30.5403 27.0726 30.2499 27.1371 29.9677ZM16.7419 6.74187C16.5484 6.24994 16.371 5.79832 16.1855 5.35478C16.1129 5.18542 15.8468 5.16123 15.7742 5.32252C15.5726 5.78219 15.3952 6.24994 15.1935 6.74187C15.7258 6.74187 16.2016 6.74187 16.7419 6.74187ZM11.3387 5.22574C11.0484 5.21768 10.8226 5.44348 10.8226 5.72574C10.8226 6.008 11.0565 6.24187 11.3387 6.23381C11.6048 6.23381 11.8306 6.008 11.8387 5.74187C11.8548 5.46768 11.629 5.23381 11.3387 5.22574ZM20.6048 5.22574C20.3226 5.22574 20.0887 5.45961 20.0968 5.73381C20.1048 5.99187 20.3306 6.22574 20.5887 6.23381C20.871 6.24187 21.1048 6.01607 21.1048 5.73381C21.1129 5.45155 20.8871 5.22574 20.6048 5.22574ZM4.12097 9.84671C4.40323 9.84671 4.62903 9.60478 4.62097 9.32252C4.6129 9.04026 4.37903 8.81445 4.09677 8.83058C3.83065 8.83865 3.6129 9.06445 3.6129 9.33058C3.6129 9.60477 3.85484 9.84671 4.12097 9.84671ZM28.3226 9.33058C28.3226 9.04832 28.0806 8.82252 27.8065 8.83058C27.5403 8.83865 27.3226 9.05639 27.3145 9.33058C27.3145 9.61284 27.5403 9.84671 27.8145 9.84671C28.0887 9.84671 28.3226 9.60477 28.3226 9.33058Z" fill="#26A387"/>
</g>
<defs>
<clipPath id="clip0_338_8101">
<rect width="32" height="32" fill="white"/>
</clipPath>
</defs>
</svg>
