<svg width="24" height="24" viewBox="0 0 24 24" fill="none" xmlns="http://www.w3.org/2000/svg">
<path d="M18.058 8.536L17.058 7.923C16.055 7.308 15.554 7 15 7C14.446 7 13.945 7.308 12.942 7.923L11.942 8.536C10.993 9.118 10.519 9.409 10.26 9.878C10 10.348 10 10.913 10 12.044V17.909C10 19.838 10 20.802 10.586 21.401C11.172 22 12.114 22 14 22H16C17.886 22 18.828 22 19.414 21.4C20 20.802 20 19.838 20 17.91V12.044C20 10.913 20 10.347 19.74 9.878C19.48 9.409 19.007 9.118 18.058 8.536Z" stroke="white" stroke-width="1.5" stroke-linecap="round" stroke-linejoin="round"/>
<path d="M14 7.10789C13.361 6.49489 12.98 6.17289 12.497 6.05189C11.937 5.91089 11.349 6.06889 10.172 6.38489L9.00001 6.69889C7.88701 6.99889 7.33001 7.14689 6.94401 7.51589C6.55701 7.88589 6.40701 8.40989 6.10801 9.45889L4.55401 14.8969C4.04401 16.6849 3.78801 17.5789 4.22201 18.2839C4.59401 18.8889 6.08401 19.6339 7.50101 19.9999" stroke="white" stroke-width="1.5" stroke-linecap="round" stroke-linejoin="round"/>
<path d="M14.495 9.99994C15.336 9.43994 16.083 8.54294 16.547 7.42694C17.505 5.12194 16.894 2.75694 15.184 2.14594C13.473 1.53394 11.309 2.90594 10.351 5.21094C10.1956 5.58252 10.078 5.9688 10 6.36394" stroke="white" stroke-width="1.5" stroke-linecap="round" stroke-linejoin="round"/>
</svg>
