<svg width="20" height="20" viewBox="0 0 20 20" fill="none" xmlns="http://www.w3.org/2000/svg">
<path d="M17.1875 2.5H16.25V2.1875C16.25 1.93886 16.1512 1.7004 15.9754 1.52459C15.7996 1.34877 15.5611 1.25 15.3125 1.25C15.0639 1.25 14.8254 1.34877 14.6496 1.52459C14.4738 1.7004 14.375 1.93886 14.375 2.1875V3.4375C14.375 3.68614 14.4738 3.9246 14.6496 4.10041C14.8254 4.27623 15.0639 4.375 15.3125 4.375C15.5611 4.375 15.7996 4.27623 15.9754 4.10041C16.1512 3.9246 16.25 3.68614 16.25 3.4375V3.125H17.1875C17.2704 3.125 17.3499 3.15792 17.4085 3.21653C17.4671 3.27513 17.5 3.35462 17.5 3.4375V11.5625C17.5 11.6454 17.4671 11.7249 17.4085 11.7835C17.3499 11.8421 17.2704 11.875 17.1875 11.875H10C9.91712 11.875 9.83763 11.9079 9.77903 11.9665C9.72042 12.0251 9.6875 12.1046 9.6875 12.1875C9.6875 12.2704 9.72042 12.3499 9.77903 12.4085C9.83763 12.4671 9.91712 12.5 10 12.5H17.1875C17.4361 12.5 17.6746 12.4012 17.8504 12.2254C18.0262 12.0496 18.125 11.8111 18.125 11.5625V3.4375C18.125 3.18886 18.0262 2.9504 17.8504 2.77459C17.6746 2.59877 17.4361 2.5 17.1875 2.5ZM15.625 3.4375C15.625 3.52038 15.5921 3.59987 15.5335 3.65847C15.4749 3.71708 15.3954 3.75 15.3125 3.75C15.2296 3.75 15.1501 3.71708 15.0915 3.65847C15.0329 3.59987 15 3.52038 15 3.4375V2.1875C15 2.10462 15.0329 2.02513 15.0915 1.96653C15.1501 1.90792 15.2296 1.875 15.3125 1.875C15.3954 1.875 15.4749 1.90792 15.5335 1.96653C15.5921 2.02513 15.625 2.10462 15.625 2.1875V3.4375ZM10 4.375C10.2486 4.375 10.4871 4.27623 10.6629 4.10041C10.8387 3.9246 10.9375 3.68614 10.9375 3.4375V3.125H13.4375C13.5204 3.125 13.5999 3.09208 13.6585 3.03347C13.7171 2.97487 13.75 2.89538 13.75 2.8125C13.75 2.72962 13.7171 2.65013 13.6585 2.59153C13.5999 2.53292 13.5204 2.5 13.4375 2.5H10.9375V2.1875C10.9375 1.93886 10.8387 1.7004 10.6629 1.52459C10.4871 1.34877 10.2486 1.25 10 1.25C9.75136 1.25 9.5129 1.34877 9.33709 1.52459C9.16127 1.7004 9.0625 1.93886 9.0625 2.1875V3.4375C9.0625 3.68614 9.16127 3.9246 9.33709 4.10041C9.5129 4.27623 9.75136 4.375 10 4.375ZM9.6875 2.1875C9.6875 2.10462 9.72042 2.02513 9.77903 1.96653C9.83763 1.90792 9.91712 1.875 10 1.875C10.0829 1.875 10.1624 1.90792 10.221 1.96653C10.2796 2.02513 10.3125 2.10462 10.3125 2.1875V3.4375C10.3125 3.52038 10.2796 3.59987 10.221 3.65847C10.1624 3.71708 10.0829 3.75 10 3.75C9.91712 3.75 9.83763 3.71708 9.77903 3.65847C9.72042 3.59987 9.6875 3.52038 9.6875 3.4375V2.1875Z" fill="#26A387"/>
<path d="M9.87813 7.29376C9.9059 7.32793 9.94057 7.35584 9.97988 7.37568C10.0192 7.39551 10.0622 7.40682 10.1062 7.40885C10.1502 7.41088 10.1941 7.4036 10.2351 7.38747C10.2761 7.37135 10.3132 7.34675 10.344 7.31528C10.3748 7.28382 10.3986 7.2462 10.4138 7.20489C10.4291 7.16359 10.4354 7.11953 10.4324 7.0756C10.4295 7.03167 10.4173 6.98886 10.3966 6.94998C10.3759 6.91111 10.3473 6.87704 10.3125 6.85001L10.0906 6.62813C10.0616 6.59884 10.027 6.57559 9.98894 6.55973C9.95085 6.54386 9.91001 6.53569 9.86876 6.53569C9.8275 6.53569 9.78666 6.54386 9.74858 6.55973C9.71049 6.57559 9.67593 6.59884 9.64688 6.62813L8.39688 7.87813C8.36759 7.90718 8.34434 7.94174 8.32848 7.97983C8.31261 8.01791 8.30444 8.05875 8.30444 8.10001C8.30444 8.14126 8.31261 8.1821 8.32848 8.22019C8.34434 8.25827 8.36759 8.29283 8.39688 8.32188L11.4625 11.3875C11.4917 11.4165 11.5263 11.4394 11.5644 11.4549C11.6025 11.4705 11.6433 11.4784 11.6844 11.4781C11.7255 11.4784 11.7663 11.4705 11.8044 11.4549C11.8424 11.4394 11.8771 11.4165 11.9063 11.3875L16.5938 6.70001C16.623 6.67095 16.6463 6.63639 16.6622 6.59831C16.678 6.56023 16.6862 6.51938 16.6862 6.47813C16.6862 6.43688 16.678 6.39603 16.6622 6.35795C16.6463 6.31987 16.623 6.28531 16.5938 6.25626L15.3438 5.00626C15.3147 4.97697 15.2801 4.95372 15.2421 4.93785C15.204 4.92199 15.1631 4.91382 15.1219 4.91382C15.0806 4.91382 15.0398 4.92199 15.0017 4.93785C14.9636 4.95372 14.9291 4.97697 14.9 5.00626L11.6938 8.22501L11.5063 8.03438C11.4474 7.97554 11.3676 7.94248 11.2844 7.94248C11.2012 7.94248 11.1214 7.97554 11.0625 8.03438C11.0037 8.09323 10.9706 8.17304 10.9706 8.25626C10.9706 8.33947 11.0037 8.41929 11.0625 8.47813L11.4719 8.88751C11.5009 8.9168 11.5355 8.94004 11.5736 8.95591C11.6117 8.97177 11.6525 8.97994 11.6938 8.97994C11.735 8.97994 11.7759 8.97177 11.8139 8.95591C11.852 8.94004 11.8866 8.9168 11.9156 8.88751L15.1219 5.67813L15.9375 6.48438L11.6938 10.725L9.06251 8.10001L9.87188 7.29063L9.87813 7.29376Z" fill="#26A387"/>
<path d="M8.4375 10.9375C8.27605 10.9381 8.11761 10.9812 7.97813 11.0625C7.94275 11.0047 7.9008 10.9513 7.85312 10.9031C7.70816 10.7581 7.51964 10.6646 7.31644 10.6369C7.11324 10.6092 6.90658 10.649 6.72813 10.75C6.69275 10.6922 6.6508 10.6388 6.60312 10.5906C6.51604 10.5026 6.41238 10.4327 6.29813 10.385C6.18389 10.3372 6.06132 10.3126 5.9375 10.3125C5.83089 10.3133 5.72521 10.3324 5.625 10.3687V8.4375C5.62692 8.30006 5.5986 8.16388 5.54204 8.0386C5.48549 7.91333 5.40207 7.80202 5.29771 7.71257C5.19335 7.62312 5.07059 7.55771 4.93814 7.52097C4.80569 7.48424 4.66678 7.47708 4.53125 7.5C4.30691 7.54418 4.10542 7.66629 3.96245 7.84473C3.81947 8.02316 3.74422 8.24642 3.75 8.475V11.875H2.8125C2.72962 11.875 2.65013 11.8421 2.59153 11.7835C2.53292 11.7249 2.5 11.6454 2.5 11.5625V3.4375C2.5 3.35462 2.53292 3.27513 2.59153 3.21653C2.65013 3.15792 2.72962 3.125 2.8125 3.125H3.75V3.4375C3.75 3.68614 3.84877 3.9246 4.02459 4.10041C4.2004 4.27623 4.43886 4.375 4.6875 4.375C4.93614 4.375 5.1746 4.27623 5.35041 4.10041C5.52623 3.9246 5.625 3.68614 5.625 3.4375V3.125H8.125C8.20788 3.125 8.28737 3.09208 8.34597 3.03347C8.40458 2.97487 8.4375 2.89538 8.4375 2.8125C8.4375 2.72962 8.40458 2.65013 8.34597 2.59153C8.28737 2.53292 8.20788 2.5 8.125 2.5H5.625V2.1875C5.625 1.93886 5.52623 1.7004 5.35041 1.52459C5.1746 1.34877 4.93614 1.25 4.6875 1.25C4.43886 1.25 4.2004 1.34877 4.02459 1.52459C3.84877 1.7004 3.75 1.93886 3.75 2.1875V2.5H2.8125C2.56386 2.5 2.3254 2.59877 2.14959 2.77459C1.97377 2.9504 1.875 3.18886 1.875 3.4375V11.5625C1.875 11.8111 1.97377 12.0496 2.14959 12.2254C2.3254 12.4012 2.56386 12.5 2.8125 12.5H3.75V13.875C3.75 13.9579 3.78292 14.0374 3.84153 14.096C3.90013 14.1546 3.97962 14.1875 4.0625 14.1875C4.14538 14.1875 4.22487 14.1546 4.28347 14.096C4.34208 14.0374 4.375 13.9579 4.375 13.875V8.475C4.37081 8.39633 4.39453 8.3187 4.44199 8.25581C4.48944 8.19292 4.55757 8.14881 4.63438 8.13125C4.67911 8.12353 4.72498 8.12565 4.76881 8.13746C4.81264 8.14927 4.85337 8.17049 4.88817 8.19964C4.92296 8.22878 4.95099 8.26516 4.97031 8.30624C4.98962 8.34732 4.99975 8.39211 5 8.4375V13.125C5 13.2079 5.03292 13.2874 5.09153 13.346C5.15013 13.4046 5.22962 13.4375 5.3125 13.4375C5.39538 13.4375 5.47487 13.4046 5.53347 13.346C5.59208 13.2874 5.625 13.2079 5.625 13.125V11.25C5.625 11.1671 5.65792 11.0876 5.71653 11.029C5.77513 10.9704 5.85462 10.9375 5.9375 10.9375C5.97907 10.9381 6.0201 10.9469 6.0582 10.9636C6.0963 10.9802 6.13069 11.0043 6.15937 11.0344C6.18859 11.0621 6.21174 11.0955 6.22734 11.1327C6.24294 11.1698 6.25065 11.2097 6.25 11.25V13.125C6.25 13.2079 6.28292 13.2874 6.34153 13.346C6.40013 13.4046 6.47962 13.4375 6.5625 13.4375C6.64538 13.4375 6.72487 13.4046 6.78347 13.346C6.84208 13.2874 6.875 13.2079 6.875 13.125V11.5625C6.875 11.4796 6.90792 11.4001 6.96653 11.3415C7.02513 11.2829 7.10462 11.25 7.1875 11.25C7.22907 11.2506 7.2701 11.2594 7.3082 11.2761C7.3463 11.2927 7.38069 11.3168 7.40937 11.3469C7.43859 11.3746 7.46174 11.408 7.47734 11.4452C7.49294 11.4823 7.50065 11.5222 7.5 11.5625V13.125C7.5 13.2079 7.53292 13.2874 7.59153 13.346C7.65013 13.4046 7.72962 13.4375 7.8125 13.4375C7.89538 13.4375 7.97487 13.4046 8.03347 13.346C8.09208 13.2874 8.125 13.2079 8.125 13.125V11.875C8.125 11.7921 8.15792 11.7126 8.21653 11.654C8.27513 11.5954 8.35462 11.5625 8.4375 11.5625C8.47907 11.5631 8.5201 11.5719 8.5582 11.5886C8.5963 11.6052 8.63069 11.6293 8.65937 11.6594C8.68859 11.6871 8.71174 11.7205 8.72734 11.7577C8.74294 11.7948 8.75065 11.8347 8.75 11.875V15.625C8.75 15.8736 8.65123 16.1121 8.47541 16.2879C8.2996 16.4637 8.06114 16.5625 7.8125 16.5625H5.3125C5.06386 16.5625 4.8254 16.4637 4.64959 16.2879C4.47377 16.1121 4.375 15.8736 4.375 15.625V15.125C4.375 15.0421 4.34208 14.9626 4.28347 14.904C4.22487 14.8454 4.14538 14.8125 4.0625 14.8125C3.97962 14.8125 3.90013 14.8454 3.84153 14.904C3.78292 14.9626 3.75 15.0421 3.75 15.125V15.625C3.75 15.8676 3.80648 16.1068 3.91496 16.3238C4.02344 16.5407 4.18094 16.7295 4.375 16.875C4.29212 16.875 4.21263 16.9079 4.15403 16.9665C4.09542 17.0251 4.0625 17.1046 4.0625 17.1875V18.4375C4.0625 18.5204 4.09542 18.5999 4.15403 18.6585C4.21263 18.7171 4.29212 18.75 4.375 18.75H8.75C8.83288 18.75 8.91237 18.7171 8.97097 18.6585C9.02958 18.5999 9.0625 18.5204 9.0625 18.4375V17.1875C9.0625 17.1046 9.02958 17.0251 8.97097 16.9665C8.91237 16.9079 8.83288 16.875 8.75 16.875C8.94406 16.7295 9.10156 16.5407 9.21004 16.3238C9.31852 16.1068 9.375 15.8676 9.375 15.625V11.875C9.375 11.6264 9.27623 11.3879 9.10041 11.2121C8.9246 11.0363 8.68614 10.9375 8.4375 10.9375ZM4.375 2.1875C4.375 2.10462 4.40792 2.02513 4.46653 1.96653C4.52513 1.90792 4.60462 1.875 4.6875 1.875C4.77038 1.875 4.84987 1.90792 4.90847 1.96653C4.96708 2.02513 5 2.10462 5 2.1875V3.4375C5 3.52038 4.96708 3.59987 4.90847 3.65847C4.84987 3.71708 4.77038 3.75 4.6875 3.75C4.60462 3.75 4.52513 3.71708 4.46653 3.65847C4.40792 3.59987 4.375 3.52038 4.375 3.4375V2.1875ZM8.4375 18.125H4.6875V17.5H8.4375V18.125Z" fill="#26A387"/>
</svg>
