<svg width="34" height="34" viewBox="0 0 34 34" fill="none" xmlns="http://www.w3.org/2000/svg">
<g clip-path="url(#clip0_238_67535)">
<path d="M11.8575 21.2234C10.8575 15.2522 2.28476 15.8524 2.125 21.8981C2.12434 22.8464 2.39978 23.7743 2.9177 24.5686C3.43562 25.3629 4.17361 25.9893 5.04156 26.3712C5.11842 26.4111 5.17865 26.477 5.21156 26.5571L6.29 29.2134C6.35147 29.3546 6.45283 29.4748 6.58165 29.5592C6.71048 29.6437 6.86115 29.6886 7.01517 29.6886C7.16919 29.6886 7.31986 29.6436 7.44868 29.5592C7.5775 29.4748 7.67886 29.3546 7.74031 29.2133L8.82406 26.5571C8.8387 26.5164 8.86126 26.479 8.89044 26.4471C8.91962 26.4152 8.95484 26.3894 8.99406 26.3712C9.9675 25.9429 10.7742 25.208 11.2912 24.2786C11.8081 23.3492 12.007 22.2763 11.8575 21.2234ZM7.01781 24.4215C3.68283 24.3161 3.68361 19.4795 7.01787 19.3746C10.3528 19.48 10.352 24.3166 7.01781 24.4215Z" fill="#26A387"/>
<path d="M7.01781 20.4371C6.63308 20.4413 6.26551 20.597 5.99492 20.8706C5.72433 21.1441 5.57257 21.5133 5.57257 21.8981C5.57258 22.2828 5.72436 22.6521 5.99495 22.9256C6.26555 23.1991 6.63312 23.3549 7.01786 23.359C7.40259 23.3548 7.77016 23.1991 8.04075 22.9256C8.31133 22.652 8.4631 22.2828 8.4631 21.898C8.46309 21.5133 8.31131 21.1441 8.04072 20.8705C7.77012 20.597 7.40255 20.4413 7.01781 20.4371ZM31.8272 6.34837C30.8272 0.37723 22.2545 0.977357 22.0947 7.02312C22.0951 7.97114 22.371 8.8986 22.8888 9.69272C23.4066 10.4868 24.144 11.1134 25.0113 11.4962C25.0893 11.5346 25.15 11.601 25.1813 11.6821L26.2597 14.3384C26.3212 14.4796 26.4225 14.5998 26.5514 14.6842C26.6802 14.7686 26.8308 14.8135 26.9849 14.8135C27.1389 14.8135 27.2895 14.7686 27.4183 14.6841C27.5472 14.5997 27.6485 14.4795 27.71 14.3383L28.7938 11.6821C28.8084 11.6414 28.8309 11.604 28.8601 11.5721C28.8893 11.5402 28.9245 11.5144 28.9638 11.4962C29.9372 11.0679 30.7439 10.333 31.2609 9.40365C31.7778 8.47425 31.9767 7.40131 31.8272 6.34837ZM26.9875 9.5465C23.6525 9.44111 23.6533 4.60452 26.9876 4.49962C30.3225 4.605 30.3217 9.44159 26.9875 9.5465Z" fill="#26A387"/>
<path d="M26.9875 5.56226C26.6028 5.56641 26.2352 5.72216 25.9646 5.9957C25.694 6.26923 25.5423 6.63846 25.5423 7.02321C25.5423 7.40797 25.694 7.7772 25.9646 8.05072C26.2352 8.32424 26.6028 8.47999 26.9875 8.48413C27.3723 8.47997 27.7399 8.32422 28.0104 8.05069C28.281 7.77716 28.4328 7.40793 28.4328 7.02317C28.4328 6.63841 28.281 6.26919 28.0104 5.99567C27.7398 5.72214 27.3722 5.5664 26.9875 5.56226ZM8.35578 30.8037H6.76203C6.62288 30.8064 6.49032 30.8635 6.39285 30.9629C6.29538 31.0622 6.24078 31.1958 6.24078 31.335C6.24079 31.4742 6.2954 31.6078 6.39287 31.7071C6.49035 31.8065 6.62291 31.8636 6.76207 31.8662H8.35578C8.49489 31.8635 8.62738 31.8064 8.72479 31.707C8.82221 31.6077 8.87678 31.4741 8.87678 31.335C8.87678 31.1959 8.82221 31.0623 8.72479 30.963C8.62738 30.8636 8.49489 30.8065 8.35578 30.8037ZM22.8331 16.3466C22.1663 16.42 18.9147 16.0253 19.2366 17.2019C19.2661 17.3147 19.3321 17.4145 19.4244 17.4856C19.5167 17.5568 19.63 17.5953 19.7466 17.5951C20.7645 17.4115 21.8005 17.349 22.8331 17.4092C22.9728 17.4073 23.106 17.3504 23.2041 17.251C23.3022 17.1516 23.3571 17.0176 23.3571 16.8779C23.3571 16.7383 23.3022 16.6042 23.2041 16.5048C23.106 16.4054 22.9728 16.3486 22.8331 16.3466ZM13.9931 29.936C13.2803 30.5205 12.3805 30.828 11.4591 30.8019C11.3195 30.804 11.1864 30.8609 11.0885 30.9603C10.9905 31.0597 10.9356 31.1936 10.9356 31.3332C10.9356 31.4727 10.9905 31.6067 11.0885 31.7061C11.1864 31.8055 11.3195 31.8624 11.4591 31.8644C12.6288 31.8908 13.7691 31.4969 14.6731 30.7541C14.7269 30.7095 14.7714 30.6547 14.8041 30.5929C14.8367 30.5311 14.8568 30.4634 14.8633 30.3938C14.8697 30.3242 14.8624 30.254 14.8417 30.1872C14.821 30.1204 14.7874 30.0584 14.7427 30.0046C14.698 29.9509 14.6432 29.9065 14.5813 29.8739C14.5194 29.8414 14.4518 29.8213 14.3821 29.8149C14.3125 29.8086 14.2423 29.816 14.1756 29.8368C14.1088 29.8575 14.0468 29.8912 13.9931 29.936ZM16.7609 18.3601C16.2264 18.8617 14.5885 21.9226 15.9428 22.0416C16.0731 22.0407 16.1986 21.9921 16.2955 21.905C16.3924 21.8179 16.454 21.6983 16.4688 21.5688C16.5752 20.6383 16.9583 19.7612 17.5684 19.0507C17.6568 18.9432 17.6995 18.8054 17.6873 18.6668C17.6751 18.5282 17.6091 18.3999 17.5033 18.3094C17.3976 18.219 17.2606 18.1736 17.1218 18.1831C16.983 18.1926 16.8534 18.2561 16.7609 18.3601ZM15.9109 24.0816C15.8411 24.0814 15.7719 24.095 15.7074 24.1216C15.6428 24.1482 15.5841 24.1873 15.5348 24.2367C15.4854 24.2861 15.4462 24.3447 15.4196 24.4093C15.393 24.4739 15.3795 24.543 15.3797 24.6129V27.0035C15.3835 27.4536 15.1321 28.116 15.7622 28.236C16.448 28.3378 16.4322 27.4783 16.4422 27.0035V24.6129C16.4417 24.4721 16.3856 24.3372 16.2861 24.2377C16.1866 24.1382 16.0517 24.0821 15.9109 24.0816ZM27.5456 16.3448H25.9519C25.8128 16.3475 25.6803 16.4047 25.5829 16.504C25.4855 16.6034 25.4309 16.737 25.4309 16.8761C25.4309 17.0152 25.4855 17.1488 25.5829 17.2481C25.6803 17.3475 25.8128 17.4046 25.9519 17.4073H27.5456C27.6847 17.4046 27.8172 17.3474 27.9146 17.2481C28.0121 17.1488 28.0666 17.0152 28.0666 16.8761C28.0666 16.7369 28.0121 16.6034 27.9146 16.504C27.8172 16.4047 27.6847 16.3475 27.5456 16.3448Z" fill="#26A387"/>
</g>
<defs>
<clipPath id="clip0_238_67535">
<rect width="34" height="34" fill="white"/>
</clipPath>
</defs>
</svg>
