<svg width="32" height="32" viewBox="0 0 32 32" fill="none" xmlns="http://www.w3.org/2000/svg">
<g clip-path="url(#clip0_238_106261)">
<path d="M0 30.5625C0.1625 30.4063 0.3 30.2188 0.48125 30.1C1.975 29.1313 3.48125 28.1875 4.975 27.2188C5.29375 27.0125 5.6125 26.875 5.99375 26.9188C6.09375 26.9313 6.19375 26.9188 6.33125 26.9188C6.28125 26.7188 6.225 26.5688 6.2 26.4063C6.11875 25.9125 6.1875 25.4375 6.4125 24.9813C6.8625 24.0688 7.30625 23.15 7.74375 22.2313C7.83125 22.0375 7.9 21.8188 7.9125 21.6063C7.98125 20.7375 8.025 19.8625 8.08125 18.9938C7.58125 18.9125 7.10625 18.8375 6.625 18.75C5.7 18.5875 5.10625 17.8438 5.24375 16.9125C5.43125 15.6125 5.675 14.325 5.9 13.0375C5.95625 12.7125 5.9875 12.375 6.075 12.0563C6.1375 11.8188 6.2875 11.6 6.375 11.3625C6.4125 11.2688 6.4125 11.15 6.39375 11.05C6.1625 9.8875 6.85625 8.76875 7.99375 8.48125C8.8125 8.275 9.69375 8.59375 10.2063 9.2875C10.2875 9.39375 10.3563 9.50625 10.4438 9.6375C10.6 9.55 10.7437 9.4625 10.9 9.375C9.45625 7.6875 10.1 5.75 11.2 4.88125C12.4812 3.88125 14.3062 4.03125 15.3687 5.25625C15.975 5.95625 16.2188 6.76875 16.0812 7.6875C15.95 8.59375 15.4688 9.28125 14.7063 9.81875C15.1813 10.275 15.6375 10.7125 16.1 11.15C16.3625 11.4 16.6187 11.6625 16.8937 11.9C16.9937 11.9875 17.15 12.0063 17.275 12.0563C17.2937 12.0313 17.3125 12.0063 17.3312 11.975C17.225 11.6063 17.1063 11.2438 17.0125 10.875C16.8938 10.4188 17.15 10.0438 17.5812 10.0313C17.875 10.025 18.1 10.1813 18.2 10.5C18.3188 10.8688 18.4375 11.2313 18.525 11.6063C18.5938 11.9063 18.7062 12.0438 19.0562 12.0438C19.7312 12.0375 20.2312 12.3813 20.5187 12.9875C20.8062 13.5813 20.7625 14.175 20.3625 14.7C20.175 14.95 19.9 15.1313 19.625 15.3813C19.8625 16.1938 20.1125 17.0563 20.3687 17.925C20.8125 19.45 21.2625 20.9813 21.7 22.5063C21.7625 22.7188 21.85 22.8063 22.0812 22.8C22.8125 22.7813 23.5375 22.8063 24.2687 22.7875C24.4062 22.7813 24.5812 22.6938 24.675 22.5875C24.925 22.3125 25.1375 22 25.375 21.7063C25.6313 21.3938 26 21.3375 26.2812 21.5625C26.5625 21.7875 26.5938 22.1563 26.35 22.4813C26.0438 22.8875 25.7188 23.2813 25.4125 23.6875C25.2188 23.95 24.975 24.0438 24.6625 24.0438C23.1 24.0375 21.5375 24.0438 19.975 24.0375C19.7625 24.0375 19.6062 24.1 19.4562 24.25C18.2 25.4563 16.9312 26.6438 15.6812 27.85C15.4437 28.075 15.1938 28.175 14.875 28.175C11.9688 28.1688 9.0625 28.1688 6.15625 28.1813C5.95 28.1813 5.725 28.25 5.55 28.3563C4.075 29.2813 2.6125 30.2188 1.15 31.15C0.60625 31.4938 0.36875 31.4438 0 30.9375C0 30.8125 0 30.6875 0 30.5625ZM13.4625 14.875C13.1437 14.6 12.85 14.35 12.5625 14.0938C12.2125 13.7813 12.1562 13.4313 12.4062 13.1438C12.65 12.8563 13.0312 12.8563 13.375 13.15C13.7063 13.4313 14.0312 13.7313 14.375 14C14.4937 14.0938 14.6688 14.1625 14.8188 14.1625C15.6313 14.1813 16.4438 14.1688 17.2563 14.1688C17.8062 14.1688 18.3625 14.175 18.9125 14.1688C19.275 14.1625 19.4875 13.9563 19.4375 13.6625C19.3875 13.3688 19.1812 13.2813 18.9125 13.2813C18.2437 13.2813 17.5813 13.275 16.9125 13.2813C16.6375 13.2813 16.4187 13.1938 16.2125 13C15.4437 12.25 14.65 11.525 13.8875 10.775C13.2312 10.125 12.4625 10.1625 11.675 10.4063C10.925 10.6375 10.5375 11.1875 10.425 11.9625C10.3313 12.6438 10.1938 13.3188 10.0813 13.9938C9.95 14.7813 9.8125 15.5625 9.675 16.3938C11.1062 16.2688 12.3875 15.9 13.4625 14.875ZM12.3625 20.8813C12.3438 21.15 12.325 21.3688 12.3125 21.5813C12.2688 22.35 12.2188 23.1 11.825 23.8063C11.325 24.7 10.9125 25.65 10.4625 26.575C10.4125 26.675 10.375 26.7813 10.3125 26.9188C10.45 26.9188 10.55 26.9188 10.65 26.9188C11.5875 26.9188 12.525 26.9188 13.4625 26.9188C13.9187 26.9188 14.425 27.025 14.825 26.8688C15.2125 26.7188 15.4938 26.2938 15.8188 25.9875C16.1688 25.6563 16.5187 25.3188 16.8125 25.0438C16.4625 24.7063 16.1063 24.4188 15.8188 24.075C15.2 23.3313 14.6125 22.5625 14.0063 21.8063C13.9375 21.7188 13.8625 21.6125 13.7688 21.5688C13.325 21.3375 12.8688 21.125 12.3625 20.8813ZM13.3813 16.55C13.0875 16.7 12.85 16.8313 12.6062 16.9438C11.7063 17.3563 10.7625 17.5688 9.775 17.6438C9.6625 17.65 9.475 17.7188 9.45625 17.7938C9.40625 17.9875 9.3875 18.2063 9.425 18.4063C9.51875 18.9125 9.85 19.1563 10.55 19.25C11.7375 19.4063 12.9062 19.625 13.9563 20.2625C14.0813 20.3375 14.225 20.375 14.3438 20.4563C14.5188 20.5813 14.7063 20.7 14.8438 20.8625C15.5437 21.725 16.2312 22.6 16.925 23.475C17.1625 23.775 17.4688 23.925 17.8563 23.85C18.5563 23.7125 18.825 22.925 18.3625 22.3375C17.6062 21.3688 16.85 20.4063 16.0688 19.4563C15.9 19.25 15.6625 19.075 15.425 18.9438C14.8688 18.6438 14.2875 18.3875 13.7188 18.1125C13.3 17.9063 13.1938 17.6938 13.2688 17.2313C13.3 17.0188 13.3375 16.8063 13.3813 16.55ZM20.45 22.7938C20.4438 22.7063 20.45 22.675 20.4438 22.6438C19.7563 20.2938 19.075 17.9375 18.3813 15.5875C18.3625 15.5125 18.225 15.425 18.1437 15.425C17.1125 15.4125 16.0812 15.4125 15.0562 15.425C14.975 15.425 14.8438 15.5438 14.825 15.625C14.7312 16.05 14.675 16.4875 14.5875 16.9125C14.55 17.0813 14.6063 17.1563 14.7563 17.2188C15.2938 17.4688 15.8313 17.725 16.3563 17.9938C16.5188 18.075 16.675 18.1938 16.7875 18.3313C17.65 19.4 18.5063 20.4688 19.3375 21.5625C19.55 21.8438 19.6938 22.1938 19.7938 22.5375C19.8563 22.75 19.9312 22.8125 20.125 22.7938C20.225 22.7875 20.325 22.7938 20.45 22.7938ZM11.1187 20.6313C10.4875 20.4938 9.88125 20.3625 9.2625 20.225C9.2375 20.5938 9.2 20.9875 9.1875 21.3813C9.16875 21.9313 9.06875 22.4375 8.80625 22.9375C8.35 23.8 7.9375 24.6875 7.51875 25.5688C7.23125 26.1813 7.575 26.8125 8.225 26.9063C8.6 26.9625 8.975 26.7625 9.1625 26.375C9.75625 25.1688 10.3375 23.9625 10.9187 22.7563C10.95 22.6938 10.9812 22.6188 10.9875 22.55C11.0312 21.9188 11.075 21.2875 11.1187 20.6313ZM13.0875 9.01875C14.0625 9.01875 14.8625 8.2375 14.875 7.2625C14.8875 6.28125 14.0813 5.46875 13.0938 5.4625C12.1187 5.45625 11.3188 6.25 11.3125 7.225C11.3062 8.21875 12.0938 9.01875 13.0875 9.01875ZM7.25 12.6C7.15 13.1625 7.0625 13.675 6.975 14.1813C6.81875 15.075 6.65625 15.9625 6.50625 16.8563C6.425 17.3438 6.525 17.4688 7.0125 17.55C7.225 17.5875 7.44375 17.625 7.65625 17.6688C8.05625 17.7375 8.19375 17.65 8.2625 17.25C8.43125 16.3 8.59375 15.3438 8.75625 14.3875C8.8375 13.9 8.91875 13.4125 9.00625 12.9063C8.40625 12.8063 7.84375 12.7063 7.25 12.6ZM7.60625 10.5938C7.60625 11.1125 7.99375 11.525 8.4875 11.5375C8.975 11.55 9.38125 11.1375 9.39375 10.625C9.4 10.0938 9.00625 9.675 8.5 9.66875C7.99375 9.66875 7.6125 10.0688 7.60625 10.5938Z" fill="#26A387"/>
<path d="M31.9999 17.2499C31.8062 17.5811 31.5187 17.7436 31.1437 17.6749C30.3812 17.5374 29.8187 17.7936 29.4624 18.4936C29.4187 18.5749 29.3499 18.6436 29.2812 18.7061C29.0437 18.9311 28.6999 18.9499 28.4562 18.7499C28.2124 18.5499 28.1374 18.1936 28.3249 17.9374C28.6499 17.4936 28.9874 17.0499 29.3499 16.6374C29.4499 16.5186 29.6562 16.4499 29.8187 16.4374C30.3249 16.4124 30.8374 16.4311 31.3499 16.4249C31.6812 16.4186 31.8562 16.6186 32.0062 16.8686C31.9999 16.9999 31.9999 17.1249 31.9999 17.2499Z" fill="#26A387"/>
<path d="M0 2.9375C0.39375 2.3875 0.95 2.375 1.39375 2.90625C1.575 3.125 1.5875 3.43125 1.425 3.6625C1.26875 3.89375 0.95625 4.01875 0.7125 3.875C0.45625 3.725 0.2375 3.5 0 3.3125C0 3.1875 0 3.0625 0 2.9375Z" fill="#26A387"/>
<path d="M-9.76562e-05 6.56245C0.212402 6.3937 0.412402 6.1937 0.643652 6.0562C0.937402 5.88745 1.2874 6.01245 1.4499 6.2937C1.6124 6.5812 1.54365 6.92495 1.25615 7.1187C1.09365 7.22495 0.918652 7.3312 0.731152 7.37495C0.368652 7.4562 0.143652 7.2437 -0.00634766 6.93745C-9.76562e-05 6.81245 -9.76562e-05 6.68745 -9.76562e-05 6.56245Z" fill="#26A387"/>
<path d="M25.8623 8.76248C25.1998 8.76248 24.5248 8.81873 23.8686 8.74998C22.6373 8.61873 21.6561 7.63748 21.4498 6.43748C21.2373 5.17498 21.8623 3.93748 22.9998 3.36873C24.1186 2.81248 25.4686 3.03748 26.3311 3.94373C26.4998 4.11873 26.6186 4.14998 26.8561 4.08748C27.8061 3.84373 28.6373 4.09373 29.2811 4.83123C29.9248 5.57498 30.0623 6.43748 29.6748 7.33748C29.2748 8.26248 28.5248 8.74373 27.5248 8.79373C26.9748 8.81873 26.4186 8.79998 25.8686 8.79998C25.8623 8.78748 25.8623 8.77498 25.8623 8.76248ZM25.8623 7.54998C26.3748 7.54998 26.8811 7.54998 27.3936 7.54998C27.4123 7.54998 27.4373 7.54998 27.4561 7.54998C27.9936 7.52498 28.4123 7.21248 28.5623 6.73748C28.7061 6.26873 28.5498 5.77498 28.1623 5.48123C27.7498 5.16873 27.2561 5.16248 26.7936 5.46248C26.2998 5.78123 25.9873 5.70623 25.6998 5.18748C25.4061 4.64998 24.9561 4.35623 24.3498 4.31248C23.4623 4.25623 22.7123 4.93748 22.6623 5.83748C22.6061 6.74373 23.2936 7.50623 24.2373 7.54373C24.7811 7.56873 25.3186 7.54998 25.8623 7.54998Z" fill="#26A387"/>
<path d="M3.77503 2.66248C5.03753 2.66248 6.06253 3.68123 6.06253 4.94373C6.06253 6.19998 5.02503 7.23123 3.76878 7.21873C2.51878 7.20623 1.50628 6.19373 1.50003 4.94998C1.49378 3.68123 2.51253 2.66248 3.77503 2.66248ZM2.75003 4.92498C2.74378 5.49373 3.20003 5.96248 3.76878 5.96873C4.33128 5.97498 4.80628 5.51248 4.81253 4.94998C4.81878 4.38123 4.36253 3.91873 3.79378 3.91248C3.21878 3.90623 2.75628 4.35623 2.75003 4.92498Z" fill="#26A387"/>
<path d="M4.39977 1.4937C4.39977 2.0812 4.05602 2.4062 3.58727 2.2562C3.26227 2.14995 3.13727 1.9062 3.14977 1.42495C3.16227 1.0312 3.31852 0.787447 3.62477 0.706197C4.06852 0.587447 4.39977 0.924947 4.39977 1.4937Z" fill="#26A387"/>
<path d="M6.62471 3.92496C6.29346 3.91871 6.01221 3.62496 6.01221 3.29371C6.01221 2.93121 6.55596 2.48121 6.96221 2.49996C7.29346 2.51871 7.56846 2.81871 7.55596 3.14371C7.54346 3.50621 7.02471 3.93746 6.62471 3.92496Z" fill="#26A387"/>
<path d="M4.39969 8.47498C4.39344 8.91248 4.23719 9.16873 3.90594 9.23748C3.63094 9.29373 3.41219 9.19373 3.25594 8.96873C3.08719 8.72498 3.10594 8.11873 3.28719 7.89373C3.46844 7.66873 3.70594 7.59373 3.98719 7.69373C4.28719 7.78748 4.40594 8.01873 4.39969 8.47498Z" fill="#26A387"/>
<path d="M6.65004 5.98743C7.08754 5.99368 7.56254 6.39993 7.56254 6.77493C7.56254 7.11243 7.28754 7.38743 6.94379 7.38743C6.50004 7.39368 6.00629 6.96243 6.01879 6.58743C6.02504 6.24993 6.30629 5.98743 6.65004 5.98743Z" fill="#26A387"/>
<path d="M27.325 19.4874C27.6688 19.4937 27.9375 19.7687 27.9375 20.1062C27.9313 20.4437 27.6563 20.7249 27.3188 20.7249C26.9688 20.7249 26.6813 20.4312 26.6938 20.0812C26.7 19.7437 26.9813 19.4812 27.325 19.4874Z" fill="#26A387"/>
</g>
<defs>
<clipPath id="clip0_238_106261">
<rect width="32" height="32" fill="white"/>
</clipPath>
</defs>
</svg>
