<svg width="35" height="35" viewBox="0 0 35 35" fill="none" xmlns="http://www.w3.org/2000/svg">
<g clip-path="url(#clip0_300_3260)">
<path fill-rule="evenodd" clip-rule="evenodd" d="M6.00655 3.54974L6.01421 7.09948L6.29307 7.10817L6.57192 7.11682V7.38702V7.65719H6.84324H7.11456V7.92851V8.19983H7.38587H7.65719V8.47115V8.74246H7.92851H8.19983V9.01378V9.2851H8.47H8.7402L8.74885 9.56395L8.75754 9.84281L9.02017 9.85149L9.28278 9.8602L9.29149 10.1228L9.30017 10.3854L9.56281 10.3941L9.82541 10.4028L9.83413 10.6654L9.84281 10.9281L10.1217 10.9368L10.4005 10.9454V11.2156V11.4858H10.9432H11.4858V11.7571V12.0284H12.0284H12.5711V12.2949V12.5615L13.919 12.5827C14.6603 12.5944 15.2695 12.6067 15.2727 12.6101C15.2759 12.6135 15.2884 12.8571 15.3005 13.1514L15.3224 13.6865H15.0471H14.7717V14.2291V14.7717H14.5053H14.2388L14.2189 15.5906C14.2079 16.041 14.199 16.5277 14.199 16.6722V16.935L14.7567 16.957L15.3144 16.979V17.2319V17.4849H16.1283H16.9423V17.2136V16.9423H17.2101H17.478L17.5 16.3997L17.522 15.857H17.7899H18.0577V15.5857V15.3144H18.3105H18.5633L18.5853 14.7717L18.6073 14.2291H18.8751H19.143V13.9427V13.6563H19.4143H19.6856V13.385V13.1137H25.1572H30.6288V12.8621V12.6106L31.0405 12.5908C31.267 12.58 31.6317 12.5711 31.851 12.5711H32.2497L32.2717 12.0284L32.2938 11.4858H32.5465H32.7993V10.9443V10.4029L32.5355 10.3942L32.2717 10.3854L32.2631 10.1066L32.2544 9.82773H32.0025H31.7507L31.7287 9.30017L31.7067 8.77261H31.439H31.1714V8.50476V8.23691L30.6288 8.2149L30.0861 8.19289V7.92504V7.65719H29.8148H29.5435V7.38702V7.11682L29.2646 7.10817L28.9858 7.09948L28.9771 6.83914L28.9685 6.57876L28.427 6.55679L27.8854 6.53484V6.28692V6.03896L27.0666 6.01907C26.6162 6.00809 25.0228 5.99914 23.5255 5.99914H20.8034L20.7947 5.73536L20.786 5.47158L20.5071 5.46289L20.2283 5.45424V4.91272V4.37123H19.9569H19.6856V4.09991V3.8286H19.4143H19.143V3.28596V2.74332H18.8717H18.6003V2.45693V2.17054H18.3325H18.0646L18.0426 1.62791L18.0206 1.08527H16.6675H15.3144V2.45693V3.8286H15.5857H15.857V4.91387V5.99914H13.6714H11.4858V5.4565V4.91387H11.2145H10.9432V4.24034C10.9432 3.8699 10.9343 3.38152 10.9234 3.15506L10.9037 2.74332H10.6521H10.4005V2.32604C10.4005 2.09653 10.3916 1.72347 10.3808 1.49701L10.361 1.08527H10.1129H9.86481L9.84281 0.542636L9.8208 0H7.90985H5.9989L6.00655 3.54974ZM7.11456 3.54221V5.99914H8.48622H9.85788V5.46139C9.85788 5.16565 9.84893 4.55519 9.83795 4.1048L9.81806 3.28596H9.57131H9.32459L9.30484 2.87422C9.29399 2.64776 9.2851 2.2747 9.2851 2.04519V1.62791H9.01378H8.74246V1.35659V1.08527H7.92851H7.11456V3.54221ZM16.9424 3.39786C16.9425 3.77572 16.9514 4.27814 16.9622 4.51443L16.9818 4.94401H17.2297H17.4776L17.4996 5.47158L17.5216 5.99914H18.3323H19.143V5.47158V4.94401H18.8717H18.6003V4.65762V4.37123H18.3325H18.0646L18.0426 3.8286L18.0206 3.28596H17.769H17.5173L17.5087 3.00711L17.5 2.72825L17.2211 2.71957L16.9423 2.71092L16.9424 3.39786ZM8.19983 7.38587V7.65719H8.47115H8.74246V7.92851V8.19983H9.01378H9.2851V8.47V8.7402L9.56395 8.74885L9.84281 8.75754L9.85149 9.02017L9.8602 9.28278L10.1228 9.29149L10.3854 9.30017L10.3941 9.56281L10.4028 9.82541L10.6654 9.83413L10.9281 9.84281L10.9367 10.1032L10.9454 10.3635L11.4869 10.3855L12.0284 10.4075V10.6753V10.9432H12.5711H13.1137V11.2145V11.4858H14.7567H16.3997V10.9432V10.4005H18.5818H20.764L20.786 10.9432L20.808 11.4858H25.9897H31.1714V10.9281V10.3704H30.9001H30.6288V10.0991V9.82773H30.3586H30.0885L30.0798 9.56395L30.0711 9.30017L27.3353 9.29249L24.5995 9.28477V8.74231V8.19983H26.5138H28.4281V7.92851V7.65719H27.8854H27.3428V7.38587V7.11456H17.7713H8.19983V7.38587ZM12.6012 8.74246V9.2851H13.4001H14.199V8.74246V8.19983H13.4001H12.6012V8.74246ZM15.3144 8.74246V9.2851H15.857H16.3997V8.74246V8.19983H15.857H15.3144V8.74246ZM17.505 8.21994C17.494 8.23097 17.4849 8.47515 17.4849 8.76257V9.2851H18.0426H18.6003V8.74246V8.19983H18.0627C17.767 8.19983 17.5161 8.20887 17.505 8.21994ZM19.6856 8.74246V9.2851H20.2433H20.801V8.74246V8.19983H20.2433H19.6856V8.74246ZM22.1501 8.22229L21.8863 8.23233V8.75871V9.2851H22.7003H23.5142V8.74246V8.19983L22.964 8.20604C22.6614 8.20944 22.2952 8.21674 22.1501 8.22229ZM17.5151 11.7571V12.0284H17.2287H16.9423V12.5711V13.1137H16.671H16.3997V13.6714V14.2291H16.1283H15.857V14.7717V15.3144H15.5857H15.3144V15.5857V15.857H15.857H16.3997V15.5857V15.3144H16.6698H16.94L16.9487 15.0355L16.9574 14.7567L17.2175 14.748L17.4777 14.7394L17.4996 14.214L17.5215 13.6887L17.7821 13.6801L18.0426 13.6714L18.0513 13.3925L18.06 13.1137H18.3302H18.6003V12.5711V12.0284H18.8717H19.143V11.7571V11.4858H18.329H17.5151V11.7571ZM5.99914 17.4803V18.5609L5.61477 18.5805C5.40339 18.5913 4.79343 18.6002 4.25936 18.6002L3.28831 18.6003L3.2796 18.8641L3.27089 19.1279L3.00711 19.1366L2.74332 19.1453L2.7432 19.8149C2.74314 20.1832 2.73425 20.6778 2.72346 20.9141L2.7038 21.3437H2.45591H2.20801L2.18562 22.9716L2.16322 24.5995H1.91177H1.66031L1.65166 24.8783L1.64298 25.1572L1.36413 25.1659L1.08527 25.1745V25.4262V25.6778L0.542636 25.6998L0 25.7218V26.5323V27.3428H0.271318H0.542636L0.542756 27.7724C0.542817 28.0087 0.55171 28.3749 0.562472 28.5863L0.582097 28.9707H0.833669H1.08527V29.5284V30.0861H1.35659H1.62791V30.4883C1.62791 30.7096 1.6368 31.0758 1.64765 31.3023L1.6674 31.714H1.91897H2.17054V32.2532V32.7924L1.62791 32.8144L1.08527 32.8364V33.1042V33.3721H0.813954H0.542636V33.6283V33.8846H0.271318H0V34.4423V35H0.542636H1.08527V34.7287V34.4574H1.37166H1.65805V34.186V33.9147H2.47201H3.28596V34.186V34.4574H3.55728H3.8286V34.7287V35H4.92894H6.02928V34.7324V34.4647L6.55685 34.4427L7.08441 34.4207V34.1677V33.9147H7.64212H8.19983V34.186V34.4574H8.74246H9.2851V34.7287V35H10.1141H10.9432V34.7287V34.4574H11.4858H12.0284V34.186V33.9147H12.5861H13.1438V34.1677V34.4207L13.6714 34.4427L14.199 34.4647V34.7324V35H14.7567H15.3144V34.4574V33.9147H15.0431H14.7717V33.6469V33.379L14.2302 33.3571L13.6887 33.3351L13.6801 33.0747L13.6714 32.8144L13.3925 32.8057L13.1137 32.7971V32.396C13.1137 32.1754 13.1226 31.8096 13.1334 31.5831L13.1532 31.1714H13.4015H13.6498L13.6718 30.6137L13.6938 30.056H13.9417H14.1896L14.2094 29.6442C14.2202 29.4178 14.2291 29.0515 14.2291 28.8303V28.4281H14.4807H14.7323L14.752 28.0163C14.7629 27.7899 14.7717 27.4236 14.7717 27.2024V26.8002H15.0431H15.3144V26.2612V25.7222L14.7567 25.7002L14.199 25.6782V25.4285V25.1787L13.6759 25.157L13.1529 25.1352L13.1333 24.7269C13.1225 24.5024 13.1137 23.8935 13.1137 23.3738V22.4289H12.8622H12.6106L12.5909 21.9994C12.5801 21.7631 12.5712 21.0238 12.5712 20.3564L12.5711 19.143H12.2997H12.0284V18.872V18.6009L10.6643 18.5931L9.30017 18.5853L9.29227 17.4925L9.28435 16.3997H7.64176H5.99914V17.4803ZM7.11456 18.0577V18.6003H7.65719H8.19983V18.0577V17.5151H7.65719H7.11456V18.0577ZM3.8286 21.0573V22.4289H3.55728H3.28596V23.5142V24.5995H3.8286H4.37123V24.3282V24.0568H5.20026H6.02928V23.7855V23.5142H7.65719H9.2851V23.785V24.0559L10.1066 24.0639L10.9281 24.0719L10.9368 24.3357L10.9455 24.5995H11.487H12.0284V23.7855V22.9716H11.7571H11.4858V21.5999V20.2283H11.2145H10.9432V19.9569V19.6856H7.38587H3.8286V21.0573ZM5.45662 21.2155C5.45668 21.4435 5.46558 21.803 5.47634 22.0144L5.49597 22.3988H7.65719H9.81845L9.83811 22.0104C9.84893 21.7968 9.8489 21.4373 9.83807 21.2115L9.81839 20.801H7.63745H5.4565L5.45662 21.2155ZM16.9423 21.5999V21.8562H16.671H16.3997V27.5991V33.3419H17.6309C18.3081 33.3419 19.0474 33.3508 19.2739 33.3617L19.6856 33.3814V33.9194V34.4574H19.972H20.2584V34.7287V35H21.3437H22.4289V34.7287V34.4574H22.9716H23.5142V33.9194V33.3814L23.926 33.3617C24.4596 33.3361 27.4822 33.3361 28.0156 33.3617L28.4267 33.3814L28.435 33.9118L28.4432 34.4423L28.722 34.451L29.0009 34.4596V34.7298V35H30.0861H31.1714V34.7287V34.4574H31.7102H32.249L32.2708 33.9193L32.2925 33.3812L32.7014 33.3616C32.9263 33.3508 33.5355 33.3419 34.0551 33.3419H35V30.3424V27.3428H34.7287H34.4574V26.8002V26.2575H34.1867H33.9161L33.9079 25.7074L33.8997 25.1572L33.6393 25.1485L33.3789 25.1399L33.357 24.5984L33.335 24.0568H31.4242H29.5134V23.7855V23.5142H29.2571H29.0009V22.8407C29.0009 22.4702 28.992 21.9819 28.9811 21.7554L28.9614 21.3437H22.9518H16.9423V21.5999ZM17.5151 27.6141V32.2567H18.329H19.143V31.9854V31.714H19.4143H19.6856V31.4427V31.1714H19.9569H20.2283V30.9008V30.6301L20.7784 30.6219L21.3286 30.6137L21.3373 30.3499L21.346 30.0861H21.5999H21.8538L21.8625 30.3499L21.8712 30.6137L22.4214 30.6219L22.9716 30.6301V30.9008V31.1714H23.2429H23.5142V31.4427V31.714H23.7855H24.0568V31.9854V32.2567H25.9711H27.8854V27.6141V22.9716H22.7003H17.5151V27.6141ZM8.21966 25.014C8.2089 25.2254 8.20001 27.0636 8.19995 29.0988L8.19983 32.7993H8.47115H8.74246V33.0672V33.335L9.2851 33.357L9.82773 33.379V33.6318V33.8846H10.1141H10.4005V33.6318V33.379L10.9432 33.357L11.4858 33.335V32.7958V32.2567H11.7571H12.0284V31.4427V30.6288H12.2997H12.5711V30.0711V29.5134H12.8424H13.1137V29.1111C13.1137 28.8899 13.1226 28.5236 13.1334 28.2972L13.1532 27.8854H13.4048H13.6563V27.0715V26.2575H12.8424H12.0284V25.9867V25.7159L11.2069 25.7078L10.3854 25.6998L10.3768 25.4407L10.3682 25.1815L9.95751 25.1618C9.73166 25.151 9.36589 25.1421 9.14468 25.1421H8.74246V24.8859V24.6296H8.49086H8.23929L8.21966 25.014ZM5.19272 25.1643L4.91387 25.1745V25.425V25.6754L4.50213 25.6952C4.27567 25.706 3.9099 25.7149 3.68935 25.7149H3.28831L3.2796 25.9787L3.27089 26.2425L2.46791 26.2505L1.66496 26.2585L1.64295 26.8007C1.63086 27.0988 1.63086 27.587 1.64298 27.8854L1.66499 28.4281H1.91451H2.164L2.18601 28.9858L2.20801 29.5435H2.45594H2.70383L2.72358 29.9552C2.73443 30.1817 2.74332 30.548 2.74332 30.7692V31.1714H2.9949H3.24647L3.26621 31.5831C3.27707 31.8096 3.28596 32.1759 3.28596 32.3971V32.7993H3.55728H3.8286V33.0706V33.3419H4.09991H4.37123V33.6133V33.8846H4.91387H5.4565V33.6318V33.379L5.99802 33.3571L6.53951 33.3351L6.5482 33.0747L6.55685 32.8144L6.83582 32.8057L7.1148 32.7971L7.10714 28.9771L7.09948 25.1572L6.28553 25.1557C5.83786 25.1548 5.34611 25.1587 5.19272 25.1643ZM29.2646 25.1646L29.0009 25.1746V27.8866V30.5986H29.5435H30.0861V30.3424V30.0861H30.3575H30.6288V30.3575V30.6288H31.1714H31.714V30.9001V31.1714H31.9854H32.2567V31.4427V31.714H32.528H32.7993V31.9854V32.2567H33.3373H33.8752L33.895 31.8449C33.9205 31.313 33.9205 29.4019 33.895 28.87L33.8752 28.4582L32.6665 28.4581C32.0017 28.458 31.2645 28.4492 31.0282 28.4384L30.5986 28.4187V28.1521V27.8854H30.3424H30.0861V26.5138V25.1421L29.8073 25.1483C29.6539 25.1517 29.4097 25.159 29.2646 25.1646ZM31.714 26.2425V27.3428H32.528H33.3419V27.0715V26.8002H33.089H32.836L32.814 26.2425L32.792 25.6848H32.5243H32.2567V25.4134V25.1421H31.9854H31.714V26.2425ZM20.7709 32.0004V32.2868H20.5146H20.2584V32.5431V32.7993H20.5108H20.7632L20.7851 33.3419L20.8071 33.8846H21.3467H21.8863V33.6283V33.3721H22.1576H22.4289V32.5431V31.714H21.5999H20.7709V32.0004ZM29.5335 31.7341C29.5224 31.7452 29.5134 31.8741 29.5134 32.0205V32.2868H29.2571H29.0009V32.5431V32.7993H29.2536H29.5064L29.5284 33.3419L29.5504 33.8846H30.0896H30.6288V33.6283V33.3721H30.9001H31.1714V32.5431V31.714H30.3625C29.9176 31.714 29.5445 31.7231 29.5335 31.7341Z" fill="#26A387"/>
</g>
<defs>
<clipPath id="clip0_300_3260">
<rect width="35" height="35" fill="white"/>
</clipPath>
</defs>
</svg>
