<svg width="35" height="34" viewBox="0 0 35 34" fill="none" xmlns="http://www.w3.org/2000/svg">
<g clip-path="url(#clip0_238_67790)">
<path d="M17.081 9.96751C17.081 10.2298 17.061 10.4921 17.0278 10.7511C17.0411 10.6615 17.0511 10.5751 17.0644 10.4855C16.9946 10.9902 16.8618 11.4816 16.6659 11.9497C16.6991 11.8701 16.7323 11.7904 16.7655 11.7107C16.6228 12.046 16.4501 12.3714 16.2476 12.6736C16.1944 12.7533 16.1413 12.8296 16.0849 12.906C15.962 13.0786 16.231 12.7267 16.1214 12.8595C16.0948 12.8927 16.0683 12.9259 16.0384 12.9624C15.9222 13.1019 15.7993 13.2347 15.6732 13.3642C15.5437 13.4937 15.4108 13.6132 15.2714 13.7294C15.2382 13.756 15.205 13.7859 15.1685 13.8124C15.0323 13.922 15.3644 13.6663 15.2316 13.7626C15.1552 13.8191 15.0788 13.8722 14.9991 13.9253C14.6903 14.1345 14.3583 14.3105 14.0163 14.4566C14.096 14.4234 14.1757 14.3902 14.2554 14.357C13.7839 14.5529 13.2958 14.6857 12.7911 14.7554C12.8808 14.7421 12.9671 14.7322 13.0567 14.7189C12.5355 14.7886 12.0108 14.7886 11.4896 14.7189C11.5792 14.7322 11.6655 14.7421 11.7552 14.7554C11.2505 14.6857 10.7591 14.5529 10.2909 14.357C10.3706 14.3902 10.4503 14.4234 10.53 14.4566C10.1946 14.3138 9.86925 14.1411 9.5671 13.9386C9.48741 13.8855 9.41104 13.8324 9.33467 13.7759C9.16202 13.6531 9.51397 13.922 9.38116 13.8124C9.34796 13.7859 9.31475 13.7593 9.27823 13.7294C9.13878 13.6132 9.00596 13.4904 8.87647 13.3642C8.74698 13.2347 8.62745 13.1019 8.51124 12.9624C8.48467 12.9292 8.45479 12.896 8.42823 12.8595C8.31866 12.7234 8.57432 13.0554 8.47803 12.9226C8.42159 12.8462 8.36846 12.7699 8.31534 12.6902C8.10616 12.3814 7.93018 12.0494 7.78409 11.7074C7.81729 11.787 7.8505 11.8667 7.8837 11.9464C7.6878 11.4749 7.55499 10.9869 7.48526 10.4822C7.49854 10.5718 7.5085 10.6581 7.52178 10.7478C7.45206 10.2265 7.45206 9.70189 7.52178 9.1806C7.5085 9.27025 7.49854 9.35658 7.48526 9.44623C7.55499 8.94154 7.6878 8.45013 7.8837 7.98197C7.8505 8.06166 7.81729 8.14134 7.78409 8.22103C7.92686 7.88568 8.09952 7.56029 8.30206 7.25814C8.35518 7.17845 8.40831 7.10209 8.46475 7.02572C8.5876 6.85306 8.31866 7.20501 8.42823 7.0722C8.45479 7.039 8.48135 7.0058 8.51124 6.96927C8.62745 6.82982 8.7503 6.69701 8.87647 6.56751C9.00596 6.43802 9.13878 6.31849 9.27823 6.20228C9.31143 6.17572 9.34464 6.14583 9.38116 6.11927C9.51729 6.0097 9.18526 6.26537 9.31807 6.16908C9.39444 6.11263 9.47081 6.05951 9.5505 6.00638C9.85928 5.7972 10.1913 5.62123 10.5333 5.47513C10.4536 5.50833 10.3739 5.54154 10.2942 5.57474C10.7657 5.37884 11.2538 5.24603 11.7585 5.1763C11.6689 5.18958 11.5825 5.19955 11.4929 5.21283C12.0142 5.1431 12.5388 5.1431 13.0601 5.21283C12.9704 5.19955 12.8841 5.18958 12.7944 5.1763C13.2991 5.24603 13.7905 5.37884 14.2587 5.57474C14.179 5.54154 14.0993 5.50833 14.0196 5.47513C14.355 5.6179 14.6804 5.79056 14.9825 5.9931C15.0622 6.04623 15.1386 6.09935 15.2149 6.1558C15.3876 6.27865 15.0357 6.0097 15.1685 6.11927C15.2017 6.14583 15.2349 6.1724 15.2714 6.20228C15.4108 6.31849 15.5437 6.44134 15.6732 6.56751C15.8026 6.69701 15.9222 6.82982 16.0384 6.96927C16.0649 7.00248 16.0948 7.03568 16.1214 7.0722C16.231 7.20833 15.9753 6.8763 16.0716 7.00912C16.128 7.08548 16.1812 7.16185 16.2343 7.24154C16.4435 7.55033 16.6194 7.88236 16.7655 8.22435C16.7323 8.14466 16.6991 8.06498 16.6659 7.98529C16.8618 8.45677 16.9946 8.94486 17.0644 9.44955C17.0511 9.3599 17.0411 9.27357 17.0278 9.18392C17.061 9.44623 17.0776 9.70521 17.081 9.96751C17.0843 10.4888 17.5392 10.9869 18.0771 10.9636C18.615 10.9404 19.0765 10.5253 19.0732 9.96751C19.0665 8.58959 18.6515 7.19173 17.8413 6.07279C17.0046 4.914 15.8823 4.05072 14.5376 3.55931C11.9378 2.60306 8.82003 3.44974 7.0669 5.59466C6.14717 6.72357 5.60264 8.04837 5.48643 9.50267C5.37686 10.8706 5.7255 12.2884 6.43272 13.4638C7.12335 14.6093 8.16925 15.5788 9.39444 16.13C10.7491 16.7376 12.2134 16.9136 13.6743 16.6214C16.3405 16.0902 18.5585 13.8025 18.9669 11.1064C19.0233 10.7279 19.0665 10.3494 19.0665 9.96751C19.0698 9.44623 18.6083 8.94818 18.0704 8.97142C17.5358 8.99798 17.081 9.4097 17.081 9.96751ZM28.4398 12.2917C28.4398 12.4777 28.4265 12.6603 28.4032 12.8429C28.4165 12.7533 28.4265 12.6669 28.4398 12.5773C28.3899 12.9492 28.2903 13.3077 28.1442 13.6497C28.1774 13.5701 28.2107 13.4904 28.2439 13.4107C28.1409 13.6464 28.0214 13.8689 27.8819 14.0847C27.8454 14.1378 27.8056 14.191 27.7691 14.2441C27.6927 14.3536 27.8454 14.1478 27.8454 14.1478C27.8454 14.1644 27.789 14.2175 27.7757 14.2308C27.6927 14.3304 27.6064 14.4267 27.5134 14.5197C27.4271 14.606 27.3374 14.689 27.2411 14.7687C27.2146 14.7919 27.1847 14.8152 27.1581 14.8384C27.0718 14.9115 27.3507 14.699 27.2577 14.762C27.2046 14.7986 27.1515 14.8384 27.0983 14.8749C26.8792 15.021 26.6501 15.1472 26.4077 15.2501C26.4874 15.2169 26.5671 15.1837 26.6468 15.1505C26.3015 15.2966 25.9429 15.3929 25.5743 15.446C25.664 15.4327 25.7503 15.4228 25.84 15.4095C25.4714 15.456 25.1028 15.456 24.7343 15.4095C24.8239 15.4228 24.9103 15.4327 24.9999 15.446C24.628 15.3962 24.2694 15.2966 23.9274 15.1505C24.0071 15.1837 24.0868 15.2169 24.1665 15.2501C23.9308 15.1472 23.7083 15.0277 23.4925 14.8882C23.4394 14.8517 23.3862 14.8119 23.3331 14.7753C23.2235 14.699 23.4294 14.8517 23.4294 14.8517C23.4128 14.8517 23.3597 14.7952 23.3464 14.782C23.2468 14.699 23.1505 14.6126 23.0575 14.5197C22.9712 14.4333 22.8882 14.3437 22.8085 14.2474C22.7853 14.2208 22.762 14.191 22.7388 14.1644C22.6657 14.0781 22.8782 14.357 22.8151 14.264C22.7786 14.2109 22.7388 14.1577 22.7023 14.1046C22.5562 13.8855 22.43 13.6564 22.3271 13.414C22.3603 13.4937 22.3935 13.5734 22.4267 13.6531C22.2806 13.3077 22.1843 12.9492 22.1312 12.5806C22.1444 12.6702 22.1544 12.7566 22.1677 12.8462C22.1212 12.4777 22.1212 12.1091 22.1677 11.7406C22.1544 11.8302 22.1444 11.9165 22.1312 12.0062C22.181 11.6343 22.2806 11.2757 22.4267 10.9337C22.3935 11.0134 22.3603 11.0931 22.3271 11.1728C22.43 10.937 22.5495 10.7146 22.689 10.4988C22.7255 10.4456 22.7653 10.3925 22.8019 10.3394C22.8782 10.2298 22.7255 10.4357 22.7255 10.4357C22.7255 10.4191 22.7819 10.366 22.7952 10.3527C22.8782 10.2531 22.9646 10.1568 23.0575 10.0638C23.1439 9.97748 23.2335 9.89447 23.3298 9.81478C23.3564 9.79154 23.3862 9.7683 23.4128 9.74505C23.4991 9.67201 23.2202 9.88451 23.3132 9.82142C23.3663 9.7849 23.4194 9.74505 23.4726 9.70853C23.6917 9.56244 23.9208 9.43626 24.1632 9.33334C24.0835 9.36654 24.0038 9.39974 23.9241 9.43294C24.2694 9.28685 24.628 9.19056 24.9966 9.13744C24.9069 9.15072 24.8206 9.16068 24.731 9.17396C25.0995 9.12748 25.4681 9.12748 25.8366 9.17396C25.747 9.16068 25.6607 9.15072 25.571 9.13744C25.9429 9.18724 26.3015 9.28685 26.6435 9.43294C26.5638 9.39974 26.4841 9.36654 26.4044 9.33334C26.6401 9.43626 26.8626 9.5558 27.0784 9.69525C27.1316 9.73177 27.1847 9.77162 27.2378 9.80814C27.3474 9.88451 27.1415 9.73177 27.1415 9.73177C27.1581 9.73177 27.2112 9.78822 27.2245 9.8015C27.3241 9.88451 27.4204 9.97084 27.5134 10.0638C27.5997 10.1501 27.6827 10.2398 27.7624 10.3361C27.7857 10.3626 27.8089 10.3925 27.8321 10.4191C27.9052 10.5054 27.6927 10.2265 27.7558 10.3195C27.7923 10.3726 27.8321 10.4257 27.8687 10.4788C28.0148 10.698 28.1409 10.9271 28.2439 11.1695C28.2107 11.0898 28.1774 11.0101 28.1442 10.9304C28.2903 11.2757 28.3866 11.6343 28.4398 12.0029C28.4265 11.9132 28.4165 11.8269 28.4032 11.7372C28.4265 11.9232 28.4398 12.1091 28.4398 12.2917C28.4431 12.813 28.8946 13.3111 29.4358 13.2878C29.9737 13.2646 30.4353 12.8495 30.4319 12.2917C30.4253 11.2624 30.1198 10.2066 29.5155 9.36654C28.8714 8.47337 28.0247 7.81927 26.9921 7.43744C25.0497 6.71693 22.6823 7.35443 21.3675 8.95814C20.6569 9.82474 20.2419 10.8275 20.1523 11.9464C20.0659 12.979 20.3382 14.0648 20.8728 14.948C21.3874 15.798 22.1644 16.5285 23.0741 16.9402C24.12 17.4117 25.239 17.5511 26.3679 17.3253C28.3567 16.9269 30.0368 15.207 30.3489 13.1982C30.3954 12.896 30.4319 12.5972 30.4353 12.2917C30.4386 11.7704 29.9737 11.2724 29.4392 11.2956C28.8946 11.3222 28.4431 11.7339 28.4398 12.2917ZM21.4273 26.1607C21.4273 26.5027 21.4273 26.8447 21.4273 27.1833C21.4273 27.5419 21.4538 27.9171 21.414 28.2757C21.4273 28.1861 21.4372 28.0997 21.4505 28.0101C21.4273 28.1761 21.3841 28.3322 21.321 28.4849C21.3542 28.4052 21.3874 28.3255 21.4206 28.2458C21.3774 28.3388 21.331 28.4318 21.2745 28.5181C21.1417 28.7206 21.4073 28.372 21.3011 28.4915C21.2679 28.5281 21.2347 28.5679 21.1982 28.6044C21.1616 28.641 21.1218 28.6742 21.0853 28.7074C20.9591 28.8236 21.3077 28.5613 21.1284 28.6708C21.0321 28.7273 20.9392 28.7837 20.8396 28.8302C20.9192 28.797 20.9989 28.7638 21.0786 28.7306C20.9259 28.7937 20.7698 28.8368 20.6038 28.8601C20.6935 28.8468 20.7798 28.8368 20.8694 28.8236C20.6603 28.8468 20.4444 28.8368 20.2353 28.8368C19.8335 28.8368 19.4317 28.8368 19.03 28.8368C17.6919 28.8368 16.3571 28.8368 15.019 28.8368C13.3821 28.8368 11.7485 28.8368 10.1116 28.8368C8.71378 28.8368 7.31593 28.8368 5.91475 28.8368C5.25401 28.8368 4.59327 28.8435 3.93253 28.8368C3.84952 28.8368 3.76651 28.8302 3.68682 28.8236C3.77647 28.8368 3.8628 28.8468 3.95245 28.8601C3.78643 28.8368 3.63038 28.7937 3.47764 28.7306C3.55733 28.7638 3.63702 28.797 3.71671 28.8302C3.62374 28.787 3.53077 28.7406 3.44444 28.6841C3.2419 28.5513 3.59053 28.8169 3.471 28.7107C3.43448 28.6775 3.39464 28.6443 3.35811 28.6077C3.32159 28.5712 3.28839 28.5314 3.25518 28.4949C3.13897 28.3687 3.40128 28.7173 3.29171 28.538C3.23526 28.4417 3.17882 28.3488 3.13233 28.2492C3.16553 28.3288 3.19874 28.4085 3.23194 28.4882C3.16885 28.3355 3.12569 28.1794 3.10245 28.0134C3.11573 28.1031 3.12569 28.1894 3.13897 28.279C3.08585 27.8142 3.12569 27.3294 3.12569 26.8613C3.12569 26.3201 3.11573 25.7788 3.18546 25.241C3.17218 25.3306 3.16221 25.4169 3.14893 25.5066C3.23194 24.8824 3.39796 24.2747 3.64366 23.6937C3.61046 23.7734 3.57725 23.8531 3.54405 23.9327C3.72335 23.5144 3.93917 23.1126 4.19151 22.7341C4.25792 22.6378 4.32432 22.5415 4.39405 22.4486C4.43721 22.3888 4.55343 22.2593 4.34425 22.5117C4.38077 22.4685 4.41729 22.422 4.45382 22.3755C4.59659 22.2029 4.74932 22.0335 4.9087 21.8742C5.06807 21.7148 5.23409 21.562 5.41007 21.4193C5.44327 21.3927 5.50635 21.3197 5.5462 21.3097C5.49639 21.3197 5.3337 21.4724 5.48311 21.3595C5.57608 21.2898 5.67237 21.2234 5.76866 21.157C6.14717 20.9013 6.54893 20.6855 6.96729 20.5095C6.8876 20.5427 6.80792 20.5759 6.72823 20.6091C7.30928 20.3667 7.9169 20.2007 8.54112 20.1144C8.45147 20.1277 8.36514 20.1376 8.2755 20.1509C9.2085 20.0314 10.1747 20.0911 11.111 20.0911C12.3362 20.0911 13.5614 20.0911 14.7866 20.0911C15.2946 20.0911 15.8026 20.0878 16.3073 20.1542C16.2177 20.141 16.1314 20.131 16.0417 20.1177C16.6526 20.204 17.2503 20.3667 17.8181 20.6025C17.7384 20.5693 17.6587 20.5361 17.579 20.5029C18.0206 20.6921 18.4423 20.9212 18.8407 21.1935C18.9271 21.2533 19.0134 21.3163 19.0997 21.3794C19.2524 21.4923 18.9038 21.2234 19.0831 21.3695C19.1296 21.406 19.1728 21.4425 19.2159 21.479C19.3786 21.6185 19.538 21.7646 19.6907 21.9206C19.8401 22.0734 19.9862 22.2361 20.1224 22.4021C20.1523 22.4419 20.1821 22.4818 20.2153 22.5183C20.0028 22.2693 20.1655 22.4519 20.2087 22.515C20.2685 22.5947 20.3249 22.6777 20.3814 22.7607C20.6337 23.1359 20.8462 23.5343 21.0222 23.9527C20.989 23.873 20.9558 23.7933 20.9226 23.7136C21.1583 24.2814 21.321 24.8757 21.404 25.4833C21.3907 25.3937 21.3808 25.3074 21.3675 25.2177C21.404 25.5298 21.4239 25.8452 21.4273 26.1607C21.4306 26.682 21.8855 27.18 22.4233 27.1568C22.9612 27.1335 23.4228 26.7185 23.4194 26.1607C23.4128 24.5105 22.9015 22.8437 21.9286 21.5089C20.8927 20.0878 19.4716 19.022 17.7915 18.4742C16.8419 18.1654 15.8591 18.0956 14.8696 18.0956C14.0362 18.0956 13.2062 18.0956 12.3728 18.0956C11.5128 18.0956 10.6528 18.0956 9.7962 18.0956C8.98272 18.0956 8.18253 18.1222 7.38233 18.3015C4.53018 18.9456 2.1794 21.23 1.41241 24.0423C1.12686 25.0816 1.13018 26.1341 1.13018 27.1999C1.13018 27.5552 1.10694 27.9204 1.14346 28.2757C1.24639 29.2054 1.76768 30.0886 2.62764 30.5136C3.05264 30.7228 3.49425 30.8324 3.96905 30.8324C4.08194 30.8324 4.19483 30.8324 4.31104 30.8324C4.80909 30.8324 5.30714 30.8324 5.80518 30.8324C7.48858 30.8324 9.1753 30.8324 10.8587 30.8324C12.7612 30.8324 14.6638 30.8324 16.5663 30.8324C17.8048 30.8324 19.0399 30.8324 20.2784 30.8324C20.896 30.8324 21.4903 30.7759 22.0448 30.4505C22.8749 29.9624 23.3896 29.0726 23.4261 28.113C23.4394 27.7777 23.4261 27.439 23.4261 27.1003C23.4261 26.7849 23.4261 26.4728 23.4261 26.1574C23.4261 25.6361 22.9679 25.138 22.43 25.1613C21.8821 25.1878 21.4273 25.6029 21.4273 26.1607Z" fill="#26A387"/>
<path d="M31.5509 24.6865C31.5509 24.9721 31.5708 25.2676 31.5376 25.5531C31.5509 25.4635 31.5609 25.3772 31.5741 25.2875C31.5575 25.407 31.5277 25.5199 31.4845 25.6328C31.5177 25.5531 31.5509 25.4735 31.5841 25.3938C31.5509 25.4735 31.5111 25.5531 31.4612 25.6262C31.4015 25.7158 31.3351 25.7291 31.5144 25.5664C31.4845 25.5963 31.4579 25.6328 31.4247 25.6627C31.4114 25.676 31.3384 25.7557 31.3284 25.7524C31.3351 25.7557 31.5708 25.583 31.3882 25.6992C31.3152 25.7457 31.2355 25.7856 31.1558 25.8221C31.2355 25.7889 31.3152 25.7557 31.3948 25.7225C31.282 25.7656 31.1691 25.7955 31.0495 25.8121C31.1392 25.7988 31.2255 25.7889 31.3152 25.7756C30.9898 25.8121 30.6511 25.7889 30.3257 25.7889C29.6384 25.7889 28.9478 25.7889 28.2605 25.7889C26.68 25.7889 25.1029 25.7889 23.5224 25.7889C23.1571 25.7889 22.7919 25.7889 22.4234 25.7889C22.7554 26.1209 23.0874 26.4529 23.4195 26.785C23.4195 25.9449 23.3929 25.1149 23.2003 24.2881C22.9513 23.2289 22.4698 22.2096 21.8091 21.3463C21.4107 20.8283 20.979 20.3535 20.471 19.9418C20.471 20.41 20.471 20.8815 20.471 21.3496C20.5905 21.2367 20.7167 21.1305 20.8429 21.0242C20.9292 20.9512 20.6304 21.1803 20.7864 21.0674C20.813 21.0475 20.8429 21.0276 20.8695 21.0043C20.9392 20.9545 21.0122 20.9047 21.0853 20.8582C21.3642 20.6756 21.6564 20.5229 21.9618 20.3934C21.8821 20.4266 21.8025 20.4598 21.7228 20.493C22.1677 20.307 22.6325 20.1809 23.1073 20.1111C23.0177 20.1244 22.9314 20.1344 22.8417 20.1477C23.446 20.068 24.0636 20.0945 24.6679 20.0945C25.3552 20.0945 26.0458 20.0945 26.7331 20.0945C27.0552 20.0945 27.3739 20.1012 27.6927 20.1444C27.603 20.1311 27.5167 20.1211 27.4271 20.1078C27.9152 20.1742 28.3933 20.3037 28.8482 20.4963C28.7685 20.4631 28.6888 20.4299 28.6091 20.3967C28.9312 20.5361 29.2433 20.7022 29.5355 20.8947C29.6085 20.9445 29.6782 20.9944 29.7513 21.0442C29.904 21.157 29.738 21.0043 29.6882 20.9944C29.7181 21.001 29.7646 21.0541 29.7911 21.0774C29.9306 21.1936 30.0667 21.3164 30.1962 21.4426C30.3191 21.5654 30.4386 21.6949 30.5482 21.8278C30.5747 21.861 30.6013 21.8975 30.6312 21.9307C30.7009 22.0104 30.4652 21.7049 30.5814 21.8676C30.6312 21.9373 30.6843 22.0104 30.7341 22.0801C30.9333 22.3789 31.106 22.6944 31.2454 23.0264C31.2122 22.9467 31.179 22.867 31.1458 22.7873C31.3351 23.2422 31.4679 23.7203 31.5343 24.2084C31.521 24.1188 31.5111 24.0324 31.4978 23.9428C31.5343 24.1951 31.5476 24.4408 31.5509 24.6865C31.5542 25.2078 32.0091 25.7059 32.547 25.6826C33.0849 25.6594 33.5464 25.2444 33.5431 24.6865C33.5364 23.1625 32.9986 21.7315 32.0589 20.5428C31.2023 19.4604 29.9605 18.6668 28.6257 18.3182C27.7624 18.0924 26.8892 18.1024 26.006 18.1024C25.229 18.1024 24.4554 18.1024 23.6784 18.1024C21.9552 18.1024 20.3116 18.7531 19.0599 19.9385C18.698 20.2805 18.6482 21.0143 19.0599 21.3463C19.2857 21.5289 19.5015 21.7248 19.704 21.9307C19.8036 22.0303 19.8966 22.1365 19.9896 22.2428C20.0394 22.2992 20.0859 22.3557 20.1323 22.4154C20.1523 22.442 20.1722 22.4686 20.1954 22.4918C20.2652 22.5781 20.0361 22.2793 20.1456 22.4287C20.4943 22.9002 20.7864 23.4049 21.0155 23.9461C20.9823 23.8664 20.9491 23.7867 20.9159 23.707C21.1517 24.2748 21.3144 24.8692 21.3974 25.4768C21.3841 25.3871 21.3741 25.3008 21.3609 25.2111C21.4306 25.7324 21.4239 26.257 21.4239 26.7817C21.4239 27.3195 21.8788 27.7778 22.42 27.7778C23.7714 27.7778 25.1228 27.7778 26.4775 27.7778C28.0081 27.7778 29.5421 27.7811 31.0728 27.7778C31.9128 27.7744 32.6433 27.386 33.1314 26.702C33.563 26.0977 33.5398 25.3838 33.5398 24.6799C33.5398 24.1586 33.0816 23.6606 32.5437 23.6838C32.0058 23.717 31.5509 24.1287 31.5509 24.6865Z" fill="#26A387"/>
</g>
<defs>
<clipPath id="clip0_238_67790">
<rect width="34" height="34" fill="white" transform="translate(0.333313)"/>
</clipPath>
</defs>
</svg>
