<svg width="32" height="32" viewBox="0 0 32 32" fill="none" xmlns="http://www.w3.org/2000/svg">
<path d="M10 20.5H10.5C10.6326 20.5 10.7598 20.4473 10.8536 20.3536C10.9473 20.2598 11 20.1326 11 20C11 19.8674 10.9473 19.7402 10.8536 19.6464C10.7598 19.5527 10.6326 19.5 10.5 19.5H10C9.86739 19.5 9.74021 19.5527 9.64645 19.6464C9.55268 19.7402 9.5 19.8674 9.5 20C9.5 20.1326 9.55268 20.2598 9.64645 20.3536C9.74021 20.4473 9.86739 20.5 10 20.5Z" fill="#26A387"/>
<path d="M15 13.39V8.5C15 7.83696 14.7366 7.20107 14.2678 6.73223C13.7989 6.26339 13.163 6 12.5 6H4C3.33696 6 2.70107 6.26339 2.23223 6.73223C1.76339 7.20107 1.5 7.83696 1.5 8.5V13.09C1.20823 13.1932 0.955499 13.384 0.776469 13.6365C0.597439 13.8889 0.50087 14.1905 0.5 14.5V24.5C0.5 24.8978 0.658035 25.2794 0.93934 25.5607C1.22064 25.842 1.60218 26 2 26H3C3.39782 26 3.77936 25.842 4.06066 25.5607C4.34196 25.2794 4.5 24.8978 4.5 24.5V23H11.5V24.5C11.5 24.8978 11.658 25.2794 11.9393 25.5607C12.2206 25.842 12.6022 26 13 26H14C14.3978 26 14.7794 25.842 15.0607 25.5607C15.342 25.2794 15.5 24.8978 15.5 24.5V14.5C15.4989 14.2903 15.4538 14.0832 15.3677 13.892C15.2816 13.7008 15.1563 13.5298 15 13.39ZM2.5 8.5C2.5 8.10218 2.65804 7.72064 2.93934 7.43934C3.22064 7.15804 3.60218 7 4 7H12.5C12.8978 7 13.2794 7.15804 13.5607 7.43934C13.842 7.72064 14 8.10218 14 8.5V13H12V11C12 10.6022 11.842 10.2206 11.5607 9.93934C11.2794 9.65804 10.8978 9.5 10.5 9.5H6C5.60218 9.5 5.22064 9.65804 4.93934 9.93934C4.65804 10.2206 4.5 10.6022 4.5 11V13H2.5V8.5ZM11 13H5.5V11C5.5 10.8674 5.55268 10.7402 5.64645 10.6464C5.74021 10.5527 5.86739 10.5 6 10.5H10.5C10.6326 10.5 10.7598 10.5527 10.8536 10.6464C10.9473 10.7402 11 10.8674 11 11V13ZM1.5 14.5C1.5 14.3674 1.55268 14.2402 1.64645 14.1464C1.74021 14.0527 1.86739 14 2 14H14C14.1326 14 14.2598 14.0527 14.3536 14.1464C14.4473 14.2402 14.5 14.3674 14.5 14.5V19.5H12.5C12.3674 19.5 12.2402 19.5527 12.1464 19.6464C12.0527 19.7402 12 19.8674 12 20C12 20.1326 12.0527 20.2598 12.1464 20.3536C12.2402 20.4473 12.3674 20.5 12.5 20.5H14.5V22H1.5V20.5H8C8.13261 20.5 8.25979 20.4473 8.35355 20.3536C8.44732 20.2598 8.5 20.1326 8.5 20C8.5 19.8674 8.44732 19.7402 8.35355 19.6464C8.25979 19.5527 8.13261 19.5 8 19.5H1.5V14.5ZM3.5 24.5C3.5 24.6326 3.44732 24.7598 3.35355 24.8536C3.25979 24.9473 3.13261 25 3 25H2C1.86739 25 1.74021 24.9473 1.64645 24.8536C1.55268 24.7598 1.5 24.6326 1.5 24.5V23H3.5V24.5ZM14.5 24.5C14.5 24.6326 14.4473 24.7598 14.3536 24.8536C14.2598 24.9473 14.1326 25 14 25H13C12.8674 25 12.7402 24.9473 12.6464 24.8536C12.5527 24.7598 12.5 24.6326 12.5 24.5V23H14.5V24.5ZM16.5 14.5V24.5C16.5 24.8978 16.658 25.2794 16.9393 25.5607C17.2206 25.842 17.6022 26 18 26H19C19.3978 26 19.7794 25.842 20.0607 25.5607C20.342 25.2794 20.5 24.8978 20.5 24.5V23H27.5V24.5C27.5 24.8978 27.658 25.2794 27.9393 25.5607C28.2206 25.842 28.6022 26 29 26H30C30.3978 26 30.7794 25.842 31.0607 25.5607C31.342 25.2794 31.5 24.8978 31.5 24.5V14.5C31.4991 14.1905 31.4026 13.8889 31.2235 13.6365C31.0445 13.384 30.7918 13.1932 30.5 13.09V8.5C30.5 7.83696 30.2366 7.20107 29.7678 6.73223C29.2989 6.26339 28.663 6 28 6H19.5C18.837 6 18.2011 6.26339 17.7322 6.73223C17.2634 7.20107 17 7.83696 17 8.5V13.39C16.8437 13.5298 16.7184 13.7008 16.6323 13.892C16.5462 14.0832 16.5011 14.2903 16.5 14.5ZM20 22H17.5V20.5H30.5V22H20ZM29.5 13H27.5V11C27.5 10.6022 27.342 10.2206 27.0607 9.93934C26.7794 9.65804 26.3978 9.5 26 9.5H21.5C21.1022 9.5 20.7206 9.65804 20.4393 9.93934C20.158 10.2206 20 10.6022 20 11V13H18V8.5C18 8.10218 18.158 7.72064 18.4393 7.43934C18.7206 7.15804 19.1022 7 19.5 7H28C28.3978 7 28.7794 7.15804 29.0607 7.43934C29.342 7.72064 29.5 8.10218 29.5 8.5V13ZM21 11C21 10.8674 21.0527 10.7402 21.1464 10.6464C21.2402 10.5527 21.3674 10.5 21.5 10.5H26C26.1326 10.5 26.2598 10.5527 26.3536 10.6464C26.4473 10.7402 26.5 10.8674 26.5 11V13H21V11ZM30.5 19.5H17.5V14.5C17.5 14.3674 17.5527 14.2402 17.6464 14.1464C17.7402 14.0527 17.8674 14 18 14H30C30.1326 14 30.2598 14.0527 30.3536 14.1464C30.4473 14.2402 30.5 14.3674 30.5 14.5V19.5ZM28.5 23H30.5V24.5C30.5 24.6326 30.4473 24.7598 30.3536 24.8536C30.2598 24.9473 30.1326 25 30 25H29C28.8674 25 28.7402 24.9473 28.6464 24.8536C28.5527 24.7598 28.5 24.6326 28.5 24.5V23ZM17.5 23H19.5V24.5C19.5 24.6326 19.4473 24.7598 19.3536 24.8536C19.2598 24.9473 19.1326 25 19 25H18C17.8674 25 17.7402 24.9473 17.6464 24.8536C17.5527 24.7598 17.5 24.6326 17.5 24.5V23Z" fill="#26A387"/>
</svg>
