<svg width="15" height="16" viewBox="0 0 15 16" fill="none" xmlns="http://www.w3.org/2000/svg">
<path fill-rule="evenodd" clip-rule="evenodd" d="M4.89386 10.0811C5.0257 9.94945 5.20441 9.87549 5.39074 9.87549C5.57707 9.87549 5.75578 9.94945 5.88761 10.0811L7.50011 11.6936L9.11261 10.0811C9.17698 10.012 9.25461 9.95663 9.34086 9.9182C9.42711 9.87977 9.52022 9.85911 9.61462 9.85744C9.70903 9.85577 9.80281 9.87314 9.89036 9.9085C9.97791 9.94387 10.0574 9.9965 10.1242 10.0633C10.191 10.13 10.2436 10.2096 10.279 10.2971C10.3143 10.3847 10.3317 10.4784 10.33 10.5729C10.3284 10.6673 10.3077 10.7604 10.2693 10.8466C10.2309 10.9329 10.1754 11.0105 10.1064 11.0749L7.99699 13.1842C7.86515 13.3159 7.68644 13.3899 7.50011 13.3899C7.31379 13.3899 7.13507 13.3159 7.00324 13.1842L4.89386 11.0749C4.76219 10.943 4.68823 10.7643 4.68823 10.578C4.68823 10.3917 4.76219 10.213 4.89386 10.0811ZM10.1064 5.91862C9.97453 6.05029 9.79582 6.12425 9.60949 6.12425C9.42316 6.12425 9.24445 6.05029 9.11261 5.91862L7.50011 4.30612L5.88761 5.91862C5.75432 6.04282 5.57803 6.11043 5.39587 6.10722C5.21372 6.10401 5.03992 6.03021 4.91109 5.90139C4.78227 5.77257 4.70848 5.59877 4.70526 5.41661C4.70205 5.23445 4.76966 5.05816 4.89386 4.92487L7.00324 2.81549C7.13507 2.68382 7.31379 2.60986 7.50011 2.60986C7.68644 2.60986 7.86515 2.68382 7.99699 2.81549L10.1064 4.92487C10.238 5.05671 10.312 5.23542 10.312 5.42174C10.312 5.60807 10.238 5.78678 10.1064 5.91862Z" fill="black"/>
</svg>
