<svg width="37" height="35" viewBox="0 0 37 35" fill="none" xmlns="http://www.w3.org/2000/svg">
<path d="M16.6803 12.6698C17.0523 12.2978 17.0523 11.6945 16.6803 11.3225C16.3082 10.9504 15.7051 10.9504 15.3329 11.3225L13.4661 13.1894L12.8695 12.5928C12.4975 12.2207 11.8943 12.2207 11.5222 12.5928C11.1502 12.9648 11.1502 13.568 11.5222 13.9401L12.7925 15.2103C13.1645 15.5824 13.7677 15.5824 14.1398 15.2103L16.6803 12.6698ZM24.2633 12.3137H19.1823C18.6562 12.3137 18.2296 12.7403 18.2296 13.2664C18.2296 13.7926 18.6562 14.2191 19.1823 14.2191H24.2633C24.7895 14.2191 25.216 13.7926 25.216 13.2664C25.216 12.7403 24.7895 12.3137 24.2633 12.3137ZM16.6803 17.674C17.0523 18.046 17.0523 18.6492 16.6803 19.0212L14.1398 21.5617C13.7677 21.9338 13.1645 21.9338 12.7925 21.5617L11.5222 20.2915C11.1502 19.9194 11.1502 19.3162 11.5222 18.9442C11.8943 18.5722 12.4975 18.5722 12.8695 18.9442L13.4661 19.5408L15.3329 17.674C15.7051 17.3018 16.3082 17.3018 16.6803 17.674ZM24.2633 18.6652H19.1823C18.6562 18.6652 18.2296 19.0916 18.2296 19.6178C18.2296 20.144 18.6562 20.5705 19.1823 20.5705H24.2633C24.7895 20.5705 25.216 20.144 25.216 19.6178C25.216 19.0916 24.7895 18.6652 24.2633 18.6652ZM16.6803 25.3725C17.0523 25.0003 17.0523 24.3972 16.6803 24.0252C16.3082 23.6531 15.7051 23.6531 15.3329 24.0252L13.4661 25.892L12.8695 25.2954C12.4975 24.9234 11.8943 24.9234 11.5222 25.2954C11.1502 25.6675 11.1502 26.2707 11.5222 26.6427L12.7925 27.9129C13.1645 28.2851 13.7677 28.2851 14.1398 27.9129L16.6803 25.3725ZM19.1823 25.0164H24.2633C24.7895 25.0164 25.216 25.443 25.216 25.9691C25.216 26.4953 24.7895 26.9217 24.2633 26.9217H19.1823C18.6562 26.9217 18.2296 26.4953 18.2296 25.9691C18.2296 25.443 18.6562 25.0164 19.1823 25.0164Z" fill="#26A387"/>
<path fill-rule="evenodd" clip-rule="evenodd" d="M16.0096 2.55225C15.6972 2.55223 15.41 2.55222 15.169 2.56867C14.9098 2.58634 14.625 2.62661 14.3355 2.74651C13.7468 2.9904 13.2719 3.4451 13.0022 4.01939C12.6787 4.02566 12.3839 4.03638 12.1147 4.05475C11.4489 4.10018 10.8602 4.19595 10.3027 4.42686C8.96271 4.98192 7.8981 6.04653 7.34304 7.38653C7.11213 7.94401 7.01636 8.53277 6.97093 9.19857C6.92674 9.84607 6.92676 10.6417 6.92676 11.6279V22.6844C6.92673 24.6788 6.9267 26.2863 7.09668 27.5507C7.27317 28.8633 7.65072 29.9685 8.52852 30.8464C9.40632 31.7242 10.5115 32.1017 11.8242 32.2782C13.0885 32.4481 14.696 32.4481 16.6904 32.4481H19.7672C21.7617 32.4481 23.3692 32.4481 24.6336 32.2782C25.9462 32.1017 27.0513 31.7242 27.9292 30.8464C28.807 29.9685 29.1846 28.8633 29.361 27.5507C29.5309 26.2863 29.5309 24.6788 29.5309 22.6844V10.7688C29.5314 9.57593 29.5317 8.76196 29.3446 8.06392C28.8389 6.1767 27.3649 4.7026 25.4776 4.19693C24.9207 4.04771 24.29 4.0177 23.452 4.01188C23.1816 3.44113 22.7084 2.98934 22.1222 2.74651C21.8327 2.62661 21.5479 2.58634 21.2887 2.56867C21.0477 2.55222 20.7607 2.55223 20.4481 2.55225H16.0096ZM23.6967 6.20343C23.6954 6.38559 23.6915 6.55477 23.6811 6.70589C23.6635 6.96494 23.6232 7.24982 23.5033 7.53931C23.2443 8.16464 22.7475 8.66147 22.1222 8.92048C21.8327 9.04039 21.5479 9.08067 21.2887 9.09834C21.0477 9.11479 20.7607 9.11478 20.4481 9.11475H16.0096C15.6972 9.11478 15.41 9.11479 15.169 9.09834C14.9098 9.08067 14.625 9.04039 14.3355 8.92048C13.7102 8.66147 13.2134 8.16464 12.9544 7.53931C12.8345 7.24982 12.7942 6.96494 12.7765 6.70589C12.7664 6.55754 12.7625 6.39181 12.761 6.21345C12.5816 6.21907 12.4169 6.22672 12.2637 6.23718C11.7092 6.27501 11.3863 6.34575 11.1398 6.44785C10.3358 6.78087 9.69705 7.41965 9.36403 8.22365C9.26191 8.47016 9.19119 8.79305 9.15336 9.34748C9.11486 9.91174 9.11426 10.6326 9.11426 11.6668V22.6043C9.11426 24.6976 9.11658 26.1576 9.26469 27.2592C9.40855 28.3293 9.67171 28.8959 10.0753 29.2995C10.4789 29.7032 11.0456 29.9663 12.1157 30.1102C13.2172 30.2582 14.6772 30.2606 16.7705 30.2606H19.6872C21.7805 30.2606 23.2404 30.2582 24.342 30.1102C25.4122 29.9663 25.9787 29.7032 26.3824 29.2995C26.7861 28.8959 27.0491 28.3293 27.1931 27.2592C27.3411 26.1576 27.3434 24.6976 27.3434 22.6043V10.9377C27.3434 9.51103 27.3341 9.01228 27.2316 8.63008C26.9282 7.49775 26.0438 6.6133 24.9114 6.30989C24.649 6.23957 24.3317 6.21312 23.6967 6.20343ZM14.9772 4.96041C15.0141 4.87461 15.0825 4.80622 15.1682 4.76937C15.179 4.76664 15.2204 4.75774 15.3179 4.75109C15.4754 4.74035 15.6867 4.73975 16.0413 4.73975H20.4163C20.771 4.73975 20.9823 4.74035 21.1398 4.75109C21.2372 4.75774 21.2787 4.76664 21.2894 4.76937C21.3752 4.80622 21.4436 4.87461 21.4805 4.96041C21.4833 4.97113 21.4922 5.01256 21.4987 5.11002C21.5095 5.26753 21.5101 5.47879 21.5101 5.8335C21.5101 6.18821 21.5095 6.39948 21.4987 6.55698C21.4922 6.65444 21.4833 6.69585 21.4805 6.70659C21.4436 6.79239 21.3752 6.86078 21.2894 6.89764C21.2787 6.90037 21.2372 6.90927 21.1398 6.91592C20.9823 6.92666 20.771 6.92725 20.4163 6.92725H16.0413C15.6867 6.92725 15.4754 6.92666 15.3179 6.91592C15.2204 6.90927 15.179 6.90037 15.1682 6.89764C15.0825 6.86078 15.0141 6.79239 14.9772 6.70659C14.9744 6.69587 14.9655 6.65445 14.959 6.55698C14.9482 6.39948 14.9476 6.18821 14.9476 5.8335C14.9476 5.47879 14.9482 5.26753 14.959 5.11002C14.9655 5.01256 14.9744 4.97114 14.9772 4.96041Z" fill="#26A387"/>
</svg>
