<svg width="25" height="25" viewBox="0 0 25 25" fill="none" xmlns="http://www.w3.org/2000/svg">
<path fill-rule="evenodd" clip-rule="evenodd" d="M7.02703 6.24985V7.80391H6.0473H5.06757V8.00661V8.20931H4.88544H4.70334L4.67905 8.58094L4.65476 8.95256H4.47267H4.29054V9.17215V9.39175H4.10841H3.92632L3.90203 9.76337L3.87774 10.135H3.69564H3.51351V10.5218V10.9086L3.31926 10.9188L3.125 10.9289L3.11486 11.1232L3.10473 11.3174H2.92061H2.73649V11.7059V12.0944H1.94257H1.14865V12.2972V12.4999H0.962838H0.777027L0.77723 12.6097C0.777331 12.6701 0.787196 12.8449 0.799122 12.9982L0.820811 13.2769H0.98473H1.14865L1.14875 13.6738C1.14882 13.8922 1.15882 14.333 1.17095 14.6536L1.19307 15.2363H0.59652H0V15.8056V16.3749L0.309257 16.3968C0.479324 16.4089 0.828986 16.4188 1.08628 16.4188H1.55405V16.6005V16.7823L1.94257 16.8066L2.33108 16.8308V17.0133V17.1958H2.53378H2.73649V17.3776V17.5593L3.125 17.5836L3.51351 17.6079V17.7904V17.9728H4.67905H5.84459V17.7911V17.6093L6.23311 17.585L6.62162 17.5608V17.3783V17.1958H6.82263H7.02365L7.03378 17.0015L7.04392 16.8073L7.42399 16.7977L7.80405 16.7882V16.6035V16.4188H8.96959H10.1351V16.6046V16.7904H10.3378H10.5405V16.9729V17.1554L10.9291 17.1796L11.3176 17.2039V17.3816V17.5593L11.7061 17.5836L12.0946 17.6079V17.7904V17.9728H13.0017C13.5005 17.9728 14.0243 17.9631 14.1656 17.9511L14.4225 17.9294L14.4325 17.7568L14.4426 17.5843L14.8395 17.5748L15.2365 17.5653V17.3822V17.1992L15.4307 17.189L15.625 17.1789L15.6351 16.9847L15.6453 16.7904H16.0152H16.3851V16.6046V16.4188H17.5676H18.75V16.6029V16.787L18.9443 16.7972L19.1385 16.8073L19.1486 17.0015L19.1588 17.1958H19.5287H19.8986V17.3776V17.5593L20.2855 17.5835L20.6724 17.6077L20.6825 17.7818L20.6926 17.9559L21.2922 17.9652L21.8919 17.9744V17.7878V17.6012H22.0777H22.2635V17.4002V17.1992L22.0693 17.189L21.875 17.1789L21.8649 16.9847L21.8547 16.7904H21.6706H21.4865V16.5877V16.385H21.6723H21.8581V16.1992V16.0134H22.0608H22.2635V15.8107V15.608H22.4456H22.6277L22.6519 15.2379L22.6761 14.8679L22.8668 14.8579L23.0574 14.8478L23.0676 14.6536L23.0777 14.4593H23.2618H23.4459V14.2752V14.0911L23.6402 14.0809L23.8345 14.0708L23.8446 13.8765L23.8547 13.6823H24.0389H24.223V13.4796V13.2769H24.4257H24.6284V13.0911V12.9053H24.8142H25V12.4999V12.0944H22.0814H19.1628L19.1385 11.7228L19.1142 11.3512H18.9321H18.75V11.1502V10.9492L18.5557 10.939L18.3615 10.9289L18.3514 10.7347L18.3412 10.5404H18.1588H17.9763L17.9662 10.3461L17.9561 10.1519L17.7618 10.1417L17.5676 10.1316V9.94749V9.76337H17.3818H17.1959V9.56067V9.35796H16.9932H16.7905V9.15526V8.95256H16.6084H16.4263L16.402 8.58094L16.3777 8.20931H16.1956H16.0135V8.00661V7.80391H13.6655H11.3176V7.4154V7.02688H11.1358H10.9541L10.9298 6.63837L10.9055 6.24985H10.723H10.5405V6.04715V5.84445H10.3547H10.1689V5.45594V5.06742H9.96622H9.76351V4.88161V4.6958H8.39527H7.02703V6.24985ZM8.17568 6.84107V7.02688H8.00676H7.83784V7.4154V7.80391H9.00838H10.1789L10.1572 7.52519C10.1453 7.37192 10.1354 7.19705 10.1353 7.13668L10.1351 7.02688H9.94932H9.76351V6.84107V6.65526H8.96959H8.17568V6.84107ZM5.47297 9.18904V9.39175H5.29118H5.10943L5.08537 9.74465C5.07213 9.93874 5.07122 10.1136 5.08331 10.1332C5.1077 10.1726 15.6079 10.1855 16.1064 10.1467L16.3851 10.125V9.94418V9.76337H16.1993H16.0135V9.57925V9.39513L15.8193 9.38499L15.625 9.37486L15.6149 9.1806L15.6047 8.98634H10.5389H5.47297V9.18904ZM4.11318 11.3424L3.91892 11.3546V11.7245V12.0944H10.9459H17.973V11.9086V11.7228H17.7703H17.5676V11.5201V11.3174L10.9375 11.3238C7.29098 11.3273 4.22 11.3357 4.11318 11.3424ZM1.95946 13.6654V14.4255H2.14152H2.32361L2.34797 14.8309L2.37233 15.2363H2.53419H2.69605L2.7203 15.6249L2.74459 16.0134H2.94324H3.14189V16.1992V16.385H3.3277H3.51351V16.5877V16.7904H4.67905H5.84459V16.6086V16.4269L6.23311 16.4026L6.62162 16.3783V16.1958V16.0134H6.82432H7.02703V15.8326V15.6517L7.30574 15.6301C7.45902 15.6181 7.7175 15.6083 7.88007 15.6082L8.17568 15.608V15.4222V15.2363H8.96959H9.76351V15.4222V15.608H10.152H10.5405V15.8107V16.0134H10.9274H11.3142L11.3243 16.2076L11.3345 16.4019L11.5287 16.412L11.723 16.4222V16.6063V16.7904H13.0912H14.4595V16.6063V16.4222L14.6537 16.412L14.848 16.4019L14.8581 16.2076L14.8682 16.0134H15.2365H15.6047L15.6149 15.8191L15.625 15.6249L16.022 15.6153L16.4189 15.6058V15.4211V15.2363H17.3818H18.3446V15.4211V15.6058L18.7416 15.6153L19.1385 15.6249L19.1486 15.8191L19.1588 16.0134H19.5287H19.8986V16.1992V16.385H20.1014H20.3041V16.1992V16.0134H20.5068H20.7095V15.8107V15.608H20.8953H21.0811V15.4222V15.2363H21.2838H21.4865V15.0336V14.8309H21.6706H21.8547L21.8649 14.6367L21.875 14.4424L22.0693 14.4323L22.2635 14.4222V14.238V14.0539H22.4476H22.6318L22.6419 13.8597L22.652 13.6654L22.8463 13.6553L23.0405 13.6451V13.461V13.2769H23.2264H23.4122V13.0911V12.9053H12.6858H1.95946V13.6654ZM0.394155 17.59C0.381757 17.6023 0.371622 17.6859 0.371622 17.7758V17.939H0.185811H0V18.3444V18.7499H0.775338H1.55068L1.56081 18.9441L1.57095 19.1384L1.7652 19.1485L1.95946 19.1586V19.3416V19.5247L2.33953 19.5342L2.71959 19.5438L2.72973 19.738L2.73986 19.9323H3.12669H3.51351V20.1181V20.3039H4.69595H5.87838V20.1192V19.9345L6.25845 19.925L6.63851 19.9154L6.64865 19.7211L6.65878 19.5269H6.8598H7.06081V19.3411V19.1553H7.43243H7.80405V18.9526V18.7499H8.96791H10.1318L10.1419 18.9441L10.152 19.1384L10.3463 19.1485L10.5405 19.1586V19.3387V19.5188L10.9291 19.5431L11.3176 19.5673V19.7498V19.9323H11.5203H11.723V20.1181V20.3039H13.0912H14.4595V20.1181V19.9323H14.848H15.2365V19.7296V19.5269H15.4392H15.6419V19.3444V19.1619L16.0304 19.1377L16.4189 19.1134V18.9316V18.7499H17.3986H18.3784V18.932V19.1141L18.75 19.1384L19.1216 19.1627V19.3448V19.5269H19.3243H19.527V19.7093V19.8918L19.9155 19.9161L20.3041 19.9404V20.1222V20.3039H21.2838H22.2635V19.9154V19.5269H21.875H21.4865V19.3411V19.1553H21.2045C21.0494 19.1553 20.7834 19.1454 20.6133 19.1333L20.3041 19.1114V18.9306V18.7499H20.1014H19.8986V18.5677V18.3856L19.527 18.3613L19.1554 18.3371V18.155V17.9728L18.8429 17.9726C18.671 17.9725 18.405 17.9627 18.2517 17.9507L17.973 17.929V17.7482V17.5674L17.6605 17.5676C17.4886 17.5677 17.2225 17.5776 17.0693 17.5895L16.7905 17.6112V17.7701V17.929L16.5118 17.9507C16.3585 17.9627 16.1001 17.9725 15.9375 17.9726L15.6419 17.9728V18.1586V18.3444H15.4392H15.2365V18.5472V18.7499H14.848H14.4595V18.9306V19.1114L14.1502 19.1333C13.9801 19.1454 13.7141 19.1553 13.559 19.1553H13.277V19.3411V19.5269H13.0912H12.9054V19.3461V19.1654L12.5961 19.1434C12.4261 19.1313 12.16 19.1215 12.0049 19.1215H11.723V18.9357V18.7499H11.5203H11.3176V18.5472V18.3444H10.9291H10.5405V18.1586V17.9728H10.152H9.76351V17.7908V17.6087L9.35845 17.5843C9.13564 17.5709 8.78672 17.5709 8.58304 17.5842L8.21274 17.6084L8.20267 17.7822L8.19257 17.9559L7.62669 17.9652L7.06081 17.9744V18.1578V18.3412L6.84966 18.3513L6.63851 18.3613L6.62838 18.5556L6.61824 18.7499H6.43412H6.25V18.9317V19.1136L5.47297 19.1384L4.69595 19.1632V19.345V19.5269H4.51013H4.32432V19.3461V19.1654L4.01507 19.1434C3.845 19.1313 3.57895 19.1215 3.42385 19.1215H3.14189V18.9357V18.7499H2.93919H2.73649V18.5472V18.3444H2.34797H1.95946V18.1597V17.975L1.5625 17.9655L1.16554 17.9559L1.15551 17.7835L1.14547 17.611L0.868345 17.5894C0.515169 17.5619 0.422061 17.562 0.394155 17.59Z" fill="#26A387"/>
<path fill-rule="evenodd" clip-rule="evenodd" d="M7.39865 4.88161V5.06742H7.21284H7.02703V6.45256V7.83769H6.84122H6.65541V8.00661V8.17553H6.17074C5.90416 8.17553 5.54689 8.1854 5.37682 8.19749L5.06757 8.21942V8.40019V8.58094H4.88176H4.69595V8.78364V8.98634H4.51348H4.33098L4.30672 9.37486L4.28243 9.76337H4.10068H3.91892V10.1519V10.5404H3.71622H3.51351V10.7431V10.9458H3.3277H3.14189V11.3343V11.7228H2.93919H2.73649V11.9255V12.1282H1.95946H1.18243V13.2938V14.4593H1.36824H1.55405V15.0554V15.6516L1.04111 15.6334C0.758986 15.6234 0.409324 15.6233 0.264088 15.6333L0 15.6514V15.8324V16.0134H0.574324H1.14865V16.1954V16.3775L1.55405 16.4019L1.95946 16.4262V16.6083V16.7904H2.16216H2.36486V16.9725V17.1546L2.73649 17.1789L3.10811 17.2032V17.3802V17.5571L3.89358 17.5759C4.32557 17.5862 5.03253 17.5862 5.46453 17.576L6.25 17.5574V17.3799V17.2025L6.63851 17.1782L7.02703 17.1539V16.9722V16.7904H7.21284H7.39865V16.6083V16.4262L7.80405 16.4019L8.20946 16.3775V16.1954V16.0134H8.98649H9.76351V16.1951V16.3769L10.152 16.4012L10.5405 16.4254V16.6079V16.7904H10.7432H10.9459V16.9729V17.1554L11.3345 17.1796L11.723 17.2039V17.3806V17.5573L12.4916 17.5761C12.9143 17.5864 13.6136 17.5863 14.0456 17.576L14.8311 17.5571V17.3764V17.1958H15.0338H15.2365V16.9931V16.7904H15.625H16.0135V16.5877V16.385H16.402H16.7905V16.1992V16.0134H17.3818H17.973V16.1992V16.385L18.2686 16.3852C18.4312 16.3853 18.6896 16.3952 18.8429 16.4071L19.1216 16.4288V16.6096V16.7904H19.3243H19.527V16.9931V17.1958H19.7297H19.9324V17.3816V17.5674L20.6166 17.5676C20.9928 17.5677 21.4261 17.5776 21.5794 17.5895L21.8581 17.6112V17.4035V17.1958H21.4696H21.0811V16.809V16.4222L21.2753 16.412L21.4696 16.4019L21.4797 16.2076L21.4899 16.0134H21.6723H21.8547L21.8649 15.8191L21.875 15.6249L22.0693 15.6147L22.2635 15.6046V15.4205V15.2363H22.4476H22.6318L22.6419 15.0421L22.652 14.8478L22.8463 14.8377L23.0405 14.8276V14.6451V14.4627L23.2348 14.4526L23.4291 14.4424L23.4392 14.2482L23.4493 14.0539H23.6334H23.8176V13.8512V13.6485H24.0203H24.223V13.4627V13.2769H24.4088H24.5946V13.0742V12.8715H24.7973H25V12.6857V12.4999H24.8142H24.6284V12.3142V12.1286L21.8834 12.12L19.1385 12.1113L19.1284 11.9171L19.1182 11.7228H18.9341H18.75V11.5201V11.3174H18.5473H18.3446V11.1316V10.9458H18.1588H17.973V10.7431V10.5404H17.7905H17.608L17.5837 10.1519L17.5595 9.76337H17.3608H17.1622V9.57756V9.39175H16.9764H16.7905V9.18904V8.98634H16.5878H16.3851V8.80053V8.61472H16.1993H16.0135V8.41202V8.20931L13.9611 8.20911C12.8323 8.20901 11.7845 8.19925 11.6326 8.18742L11.3564 8.1659L11.3326 7.79911L11.3089 7.43229H11.1315H10.9541L10.9298 7.04377L10.9055 6.65526H10.723H10.5405V6.26844V5.88161L10.3463 5.87148L10.152 5.86134L10.1419 5.66708L10.1318 5.47283H9.94763H9.76351V5.08431V4.6958H8.58108H7.39865V4.88161ZM7.81081 5.66708L7.82095 5.86134H8.59797H9.375L9.38513 5.66708L9.39527 5.47283H8.59797H7.80067L7.81081 5.66708ZM7.81189 7.40695L7.82095 8.19242L9.18074 8.20124L10.5405 8.21009V7.82117V7.43229H10.3588H10.177L10.153 7.04854L10.1291 6.66482L9.85338 6.64333C9.70176 6.63154 9.17834 6.62178 8.69027 6.62168L7.8028 6.62148L7.81189 7.40695ZM5.45679 8.96945L5.43253 9.35796H5.25003H5.06757V9.56067V9.76337H4.88176H4.69595V10.1519V10.5404H10.5574H16.4189V10.1519V9.76337H16.2162H16.0135V9.37486V8.98634H15.8108H15.6081V8.80553V8.62472L15.3294 8.60303C15.1761 8.59111 12.8975 8.58124 10.2659 8.58114L5.48108 8.58094L5.45679 8.96945ZM4.29054 11.1299V11.314L4.09628 11.3242L3.90203 11.3343L3.89189 11.5286L3.88176 11.7228H3.69763H3.51351V11.9036V12.0843L3.82277 12.1063C4.22415 12.1348 17.6998 12.1346 18.0659 12.1061L18.3446 12.0845V11.9036V11.7228H18.1588H17.973V11.5201V11.3174H17.7703H17.5676V11.1316V10.9458H10.9291H4.29054V11.1299ZM1.78209 12.8964L1.58784 12.9086V13.0928V13.2769H1.75169H1.91557L1.9375 13.5861C1.94959 13.7562 1.95946 14.1059 1.95946 14.3632V14.8309H2.14527H2.33108V15.2363V15.6417H2.51321H2.6953L2.71949 16.0118L2.74365 16.3818L2.93432 16.3918L3.125 16.4019L3.13514 16.5961L3.14527 16.7904H3.53209H3.91892V16.9712V17.152L4.19764 17.1737C4.35091 17.1856 4.70057 17.1955 4.97466 17.1956L5.47297 17.1958V16.9931V16.7904H5.86149H6.25V16.6046V16.4188H6.4527H6.65541V16.2161V16.0134H7.04392H7.43243V15.8311V15.6488L8.11655 15.6366C8.4928 15.6299 9.10855 15.6301 9.4848 15.637L10.1689 15.6495V15.8314V16.0134H10.5574H10.9459V16.2161V16.4188H11.1486H11.3514V16.6035V16.7882L11.7314 16.7977L12.1115 16.8073L12.1216 17.0015L12.1318 17.1958H13.0912H14.0507L14.0608 17.0015L14.0709 16.8073L14.451 16.7977L14.8311 16.7882V16.6035V16.4188H15.0338H15.2365V16.2161V16.0134H15.625H16.0135V15.8314V15.6495L16.6976 15.637C17.0739 15.6301 17.6896 15.6299 18.0659 15.6366L18.75 15.6488V15.8311V16.0134H19.1385H19.527V16.2161V16.4188H19.8429C20.0166 16.4188 20.275 16.4089 20.4172 16.3969L20.6757 16.3751V16.1942V16.0134H20.875H21.0744L21.0987 15.6249L21.123 15.2363H21.3047H21.4865V15.0505V14.8647H21.6892H21.8919V14.662V14.4593H22.0777H22.2635V14.2752V14.0911L22.4578 14.0809L22.652 14.0708L22.6622 13.8765L22.6723 13.6823H22.8547H23.0372L23.0473 13.488L23.0574 13.2938L23.2517 13.2836L23.4459 13.2735V13.0725V12.8715L12.7111 12.8779C6.80703 12.8814 1.88895 12.8898 1.78209 12.8964ZM0 18.1546V18.3363L0.388514 18.3606L0.777027 18.3849V18.5674V18.7499H1.36824H1.95946V18.934V19.1181L2.15372 19.1282L2.34797 19.1384L2.35801 19.329L2.36801 19.5197L2.73807 19.5439L3.10811 19.5681V19.7296V19.891L3.51351 19.9154L3.91892 19.9398V20.1219V20.3039H4.67905H5.43919V20.1219V19.9398L5.84459 19.9154L6.25 19.891V19.7089V19.5269H6.63851H7.02703V19.3242V19.1215H7.22973H7.43243V18.9357V18.7499H8.00676H8.58108V18.564V18.3782H8.96959H9.35811V18.564V18.7499H9.94932H10.5405V18.934V19.1181L10.7348 19.1282L10.9291 19.1384L10.9392 19.3326L10.9493 19.5269H11.1503H11.3514V19.7127V19.8985H11.6164C11.7622 19.8985 12.0207 19.9084 12.1907 19.9205L12.5 19.9424V20.1232V20.3039H13.0912H13.6824V20.1181V19.9323H13.9475C14.0933 19.9323 14.3518 19.9224 14.5218 19.9103L14.8311 19.8884V19.7076V19.5269H15.2196H15.6081V19.3242V19.1215H15.8108H16.0135V18.9357V18.7499H16.6047H17.1959V18.564V18.3782H17.3986H17.6014V18.564V18.7499H18.1757H18.75V18.9316V19.1134L19.1385 19.1377L19.527 19.1619V19.3444V19.5269H19.7297H19.9324V19.7076V19.8884L20.2417 19.9103C20.4118 19.9224 20.6702 19.9323 20.816 19.9323H21.0811V20.1181V20.3039H21.4696H21.8581V19.9154V19.5269H21.2838H20.7095V19.3451V19.1634L20.3209 19.1391L19.9324 19.1148V18.9323V18.7499H19.7297H19.527V18.5681V18.3863L19.1385 18.3621L18.75 18.3378V18.1553V17.9728H17.3818H16.0135V18.1553V18.3378L15.625 18.3621L15.2365 18.3863V18.5681V18.7499H15.0524H14.8682L14.8581 18.9441L14.848 19.1384L14.4679 19.1479L14.0878 19.1575V19.3422V19.5269H13.0912H12.0946V19.3448V19.1627L11.723 19.1384L11.3514 19.1141V18.932V18.7499H11.1486H10.9459V18.5681V18.3863L10.5574 18.3621L10.1689 18.3378V18.1553V17.9728H8.80236H7.43581L7.42568 18.1671L7.41554 18.3613L7.22128 18.3715L7.02703 18.3816V18.5657V18.7499H6.63851H6.25V18.9526V19.1553H6.0473H5.84459V19.3411V19.5269H4.67905H3.51351V19.3411V19.1553H3.31081H3.10811V18.9526V18.7499H2.71959H2.33108V18.5657V18.3816L2.13682 18.3715L1.94257 18.3613L1.93243 18.1671L1.9223 17.9728H0.961149H0V18.1546Z" fill="#26A387"/>
</svg>
