<svg width="25" height="25" viewBox="0 0 25 25" fill="none" xmlns="http://www.w3.org/2000/svg">
<path fill-rule="evenodd" clip-rule="evenodd" d="M9.35783 0.185811V0.371622H9.17201H8.9862V0.760135V1.14865H7.92722C7.34475 1.14865 6.72904 1.15851 6.55897 1.17061L6.24972 1.19253V1.37331V1.55405H5.8612H5.47269V1.73581V1.91757L5.08418 1.94186L4.69566 1.96611V2.14693V2.3277L4.50141 2.33784L4.30715 2.34797L4.29701 2.54223L4.28688 2.73649H4.10681H3.92674L3.90245 3.125L3.8782 3.51351H3.6957H3.51323V4.10473V4.69595H3.33249H3.15171L3.12978 5.0052C3.10103 5.4101 3.10137 12.5557 3.13019 14.0654L3.15255 15.2365H3.33289H3.51323V16.9932V18.75H3.69904H3.88485L3.88495 19.147C3.88502 19.3653 3.89502 19.8062 3.90715 20.1267L3.92928 20.7095H4.10975H4.29026V21.3007V21.8919H4.47607H4.66188V22.0777V22.2635H4.86289H5.06391L5.07404 22.4578L5.08418 22.652L6.83249 22.6608L8.5808 22.6695V22.4665V22.2635H8.7835H8.9862V22.0777V21.8919H9.56053H10.1349V22.4656V23.0393L9.36627 23.0483L8.59769 23.0574L8.58874 24.0287L8.57975 25H12.4997H16.4197L16.4107 24.0287L16.4017 23.0574L15.6332 23.0483L14.8646 23.0393V22.4656V21.8919H15.4389H16.0132V22.0777V22.2635H16.2159H16.4186V22.4665V22.6695L18.1669 22.6608L19.9153 22.652L19.9254 22.4578L19.9355 22.2635H20.1365H20.3376V22.0777V21.8919H20.5234H20.7092V21.3007V20.7095H20.8897H21.0702L21.0923 20.1267C21.1044 19.8062 21.1144 19.3653 21.1145 19.147L21.1146 18.75H21.2785H21.4424L21.4641 18.4713C21.476 18.318 21.4859 17.5275 21.486 16.7145L21.4862 15.2365H21.6665H21.8469L21.8692 14.0456C21.898 12.5077 21.8981 6.03763 21.8693 5.27872L21.8472 4.69595H21.6667H21.4862V4.10473V3.51351H21.3037H21.1212L21.097 3.125L21.0727 2.73649H20.8926H20.7126L20.7024 2.54223L20.6923 2.34797L20.498 2.33784L20.3038 2.3277V2.14693V1.96611L19.9153 1.94186L19.5267 1.91757V1.73581V1.55405H19.1382H18.7497V1.37331V1.19253L18.4405 1.17061C18.2704 1.15851 17.6547 1.14865 17.0722 1.14865H16.0132V0.760135V0.371622H15.8274H15.6416V0.185811V0H12.4997H9.35783V0.185811ZM9.76323 0.962635V1.14865H12.5015H15.2398L15.2295 0.971284L15.2193 0.793919L12.4913 0.78527L9.76323 0.776622V0.962635ZM7.02674 2.14527V2.33108L6.73114 2.33128C6.56857 2.33138 6.31083 2.34118 6.1584 2.35307L5.88127 2.37463L5.87124 2.54713L5.8612 2.71959L5.66695 2.72973L5.47269 2.73986V2.94088V3.14189H12.4997H19.5267V2.93919V2.73649H19.324H19.1213V2.55568V2.37486L18.8426 2.35318C18.6893 2.34125 18.4309 2.33138 18.2683 2.33128L17.9727 2.33108V2.14527V1.95946H12.4997H7.02674V2.14527ZM4.2986 9.75507L4.30715 15.2196H4.88147H5.4558L5.46438 11.1233L5.47296 7.02703H5.86134H6.24972V11.1318V15.2365H10.9457H15.6416L15.6414 15.3463C15.6413 15.4067 15.6314 15.5815 15.6195 15.7348L15.5978 16.0135H9.94404H4.29026L4.29046 16.326C4.29056 16.4979 4.30043 16.7639 4.31235 16.9172L4.33404 17.1959H4.69661H5.05918L5.08326 16.8106L5.10735 16.4252L5.48428 16.4032C5.69158 16.3911 6.47691 16.3859 7.22945 16.3916L8.59769 16.402L8.60783 16.5963L8.61796 16.7905H8.80208H8.9862V17.7703V18.75H7.02674H5.06728V18.1588V17.5676H4.88147H4.69566V18.7331V19.8986H4.88147H5.06728L5.06749 20.4139C5.06759 20.6972 5.07745 21.0545 5.08938 21.2078L5.11107 21.4865H5.29188H5.47269V21.6723V21.8581H6.81904H8.16539L8.18708 21.5794C8.19901 21.4261 8.20887 21.16 8.20897 20.9882L8.20918 20.6757H8.39499H8.5808V20.3041V19.9324H8.7835H8.9862V19.7516V19.5708L9.26492 19.5491C9.41823 19.5372 10.9157 19.5273 12.5926 19.5272L15.6416 19.527V19.7095V19.892L16.0301 19.9162L16.4186 19.9405V20.3081V20.6757H16.6044H16.7903L16.7905 20.9882C16.7906 21.16 16.8004 21.4261 16.8124 21.5794L16.834 21.8581H18.1804H19.5267V21.6723V21.4865H19.7088H19.8908L19.9156 20.6926L19.9404 19.8986H20.1221H20.3038V18.7331V17.5676H20.118H19.9321L19.9319 17.8801C19.9318 18.0519 19.922 18.318 19.9101 18.4713L19.8884 18.75H17.9508H16.0132V17.7703V16.7905H16.1974H16.3815L16.3916 16.5963L16.4017 16.402L17.77 16.3916C18.5225 16.3859 19.3079 16.3911 19.5152 16.4032L19.8921 16.4252L19.9162 16.8106L19.9403 17.1959H20.3078H20.6754L20.6756 16.8834C20.6757 16.7116 20.6856 16.4455 20.6975 16.2922L20.7192 16.0135H18.5689H16.4186V15.625V15.2365H17.5842H18.7497V9.76351V4.29054H12.4997H6.24972V5.27027V6.25H6.04701H5.84431V6.06419V5.87838H5.6585H5.47269V5.08446V4.29054H4.88137H4.29005L4.2986 9.75507ZM19.5351 9.75426L19.5436 15.2196H20.118H20.6923V9.76351V4.30743L20.1094 4.29818L19.5265 4.28895L19.5351 9.75426ZM5.8781 17.5845V17.973H7.02475C7.79208 17.973 8.1787 17.9612 8.19343 17.9374C8.20553 17.9178 8.20462 17.7429 8.19137 17.5488L8.16732 17.1959H7.02272H5.8781V17.5845ZM16.7903 17.5845V17.973H17.9558H19.1213V17.5845V17.1959H17.9558H16.7903V17.5845ZM9.76323 20.5236V20.7095L10.4474 20.7094C10.8236 20.7094 12.055 20.6993 13.1838 20.687L15.2362 20.6646V20.5012V20.3378H12.4997H9.76323V20.5236ZM10.9457 22.4662V23.0405H12.4997H14.0538V22.4662V21.8919H12.4997H10.9457V22.4662ZM9.39161 24.0203V24.223H12.4997H15.6078V24.0203V23.8176H12.4997H9.39161V24.0203Z" fill="#26A387"/>
<path fill-rule="evenodd" clip-rule="evenodd" d="M9.76367 0.184122V0.368243L9.56942 0.378378L9.37516 0.388514L9.36502 0.58277L9.35489 0.777027H9.17077H8.98665V0.97973V1.18243H8.00692H7.02719V1.36743V1.55247L6.44442 1.56169L5.86164 1.57095L5.85154 1.74507L5.84144 1.91922L5.45458 1.94338L5.06773 1.96757V2.14932V2.33108H4.88192H4.6961V2.53378V2.73649H4.4934H4.2907V2.93919V3.14189H4.106H3.92131L3.91175 3.52196L3.90219 3.90203L3.70793 3.91216L3.51367 3.9223V10.5591V17.1959H3.69418H3.87465L3.89678 17.7787C3.90891 18.0992 3.91891 18.7073 3.91898 19.1301L3.91908 19.8986H4.10489H4.2907V20.6926V21.4865H4.47317H4.65567L4.67992 21.875L4.70421 22.2635H5.08867H5.47313V22.4493V22.6351H6.82448H8.17583V22.4493V22.2635H8.39543H8.61502V22.0795V21.8954L8.79239 21.8852L8.96975 21.875L8.97989 21.6807L8.99002 21.4865H9.37685H9.76367V21.6723V21.8581H9.96637H10.1691V22.4493V23.0405H9.57786H8.98665V23.2432V23.4459H8.80083H8.61502V24.0203V24.5946H8.80083H8.98665V24.7973V25H12.5002H16.0137V24.7973V24.5946H16.1995H16.3853V24.0203V23.4459H16.1995H16.0137V23.2432V23.0405H15.4225H14.8312L14.8314 22.5422C14.8315 22.2682 14.8414 21.9185 14.8533 21.7652L14.875 21.4865H15.4443H16.0137V21.6892V21.8919H16.1995H16.3853V22.0777V22.2635H16.588H16.7907V22.4493V22.6351H18.1589H19.5272V22.4493V22.2635H19.9116H20.2961L20.3204 21.875L20.3447 21.4865H20.5272H20.7096V20.6926V19.8986H20.8954H21.0812V19.1101C21.0812 18.6765 21.0912 18.0691 21.1034 17.7604L21.1255 17.1991L21.2976 17.1891L21.4698 17.1791L21.4783 10.5507L21.4868 3.9223L21.2925 3.91216L21.0981 3.90203L21.0886 3.52196L21.079 3.14189H20.8943H20.7096V2.93919V2.73649H20.5069H20.3042V2.53378V2.33108H20.1184H19.9326V2.14932V1.96757L19.5457 1.94338L19.1589 1.91922L19.1488 1.74507L19.1387 1.57095L18.5559 1.56169L17.9731 1.55247V1.36743V1.18243H16.9934H16.0137V0.97973V0.777027H15.8296H15.6454L15.6353 0.58277L15.6252 0.388514L15.4309 0.378378L15.2366 0.368243V0.184122V0H12.5002H9.76367V0.184122ZM9.76367 0.97973V1.18243H12.5002H15.2366V0.97973V0.777027H12.5002H9.76367V0.97973ZM6.25016 2.14122V2.32297L5.86164 2.34726L5.47313 2.37152V2.55402V2.73649H5.27043H5.06773V2.93919V3.14189H4.88192H4.6961V3.3277V3.51351H12.5002H20.3042V3.3277V3.14189H20.1184H19.9326V2.93919V2.73649H19.7299H19.5272V2.55402V2.37152L19.1387 2.34726L18.7502 2.32297V2.14122V1.95946H12.5002H6.25016V2.14122ZM4.2907 4.30743V4.69595H4.10489H3.91908V9.96622V15.2365H4.6961H5.47313V11.3345V7.43243H5.65725H5.84137L5.85151 7.23818L5.86164 7.04392L6.0559 7.03378L6.25016 7.02365V11.1301V15.2365H10.7434H15.2366V15.625V16.0135H9.76367H4.2907L4.2909 17.103C4.291 17.7023 4.30087 18.318 4.31279 18.4713L4.33448 18.75H4.49333H4.65222L4.67415 19.0593C4.68624 19.2293 4.6961 19.7538 4.6961 20.2248V21.0811H4.88192H5.06773V21.2838V21.4865H5.25185H5.43597L5.4461 21.6807L5.45624 21.875H6.82448H8.19273L8.20229 21.4949L8.21185 21.1149H8.39546H8.57911L8.5886 20.7179L8.59813 20.3209L8.79239 20.3108L8.98665 20.3007V20.1216V19.9425L9.2959 19.9206C9.69881 19.892 15.3015 19.892 15.7044 19.9206L16.0137 19.9425V20.1233V20.3041H16.1965H16.3794L16.4036 20.7095L16.4278 21.1149H16.6092H16.7907V21.5037V21.8926L18.1674 21.8838L19.5441 21.875L19.5542 21.6807L19.5643 21.4865H19.7485H19.9326V21.2838V21.0811H20.1184H20.3042V20.2248C20.3042 19.7538 20.3141 19.2293 20.3262 19.0593L20.3481 18.75H20.5069H20.6657L20.6877 18.4407C20.6998 18.2707 20.7096 17.655 20.7096 17.0725V16.0135H18.7502H16.7907V15.625V15.2365H17.7704H18.7502V9.5777V3.91892H12.5002H6.25016V4.88176V5.84459H5.86164H5.47313V4.88176V3.91892H4.88192H4.2907V4.30743ZM19.5272 9.5777V15.2365H20.3042H21.0812V9.96622V4.69595H20.8995H20.7177L20.6934 4.30743L20.6692 3.91892H20.0982H19.5272V9.5777ZM5.84475 16.6047V16.7905H5.45624H5.06773L5.06793 17.2889C5.06803 17.5629 5.0779 17.9126 5.08982 18.0659L5.11151 18.3446H5.29232H5.47313V18.5473V18.75H7.0255H8.57786L8.588 18.5557L8.59813 18.3615L8.79303 18.3514L8.9879 18.3412L8.97884 17.5743L8.96975 16.8074L8.58969 16.7979L8.20962 16.7883V16.6036V16.4189H7.02719H5.84475V16.6047ZM16.7907 16.6047V16.7905H16.4022H16.0137V17.5659V18.3412L16.2079 18.3514L16.4022 18.3615L16.4123 18.5557L16.4225 18.75H17.9748H19.5272V18.5473V18.3446H19.7081H19.889L19.9072 17.8317C19.9172 17.5495 19.9172 17.1999 19.9073 17.0546L19.8891 16.7905H19.5224H19.1556V16.6047V16.4189H17.9731H16.7907V16.6047ZM5.84475 17.5845V17.973H7.02719H8.20962V17.5845V17.1959H7.02719H5.84475V17.5845ZM16.7907 17.5845V17.973H17.9731H19.1556V17.5845V17.1959H17.9731H16.7907V17.5845ZM9.38097 20.3264C9.36847 20.3389 9.35827 20.4302 9.35827 20.5293V20.7095H9.17246H8.98665V20.8953V21.0811H12.5002H16.0137V20.8953V20.7095H15.8296H15.6454L15.6353 20.5152L15.6252 20.3209L12.5144 20.3123C10.8035 20.3076 9.39344 20.3139 9.38097 20.3264ZM10.9285 21.875C10.9152 22.0887 10.9152 22.4383 10.9285 22.652L10.9528 23.0405H12.5002H14.0476L14.0718 22.652C14.0852 22.4383 14.0852 22.0887 14.0718 21.875L14.0476 21.4865H12.5002H10.9528L10.9285 21.875ZM9.35827 24.0203V24.223H12.5002H15.6421V24.0203V23.8176H12.5002H9.35827V24.0203Z" fill="#26A387"/>
</svg>
