<svg width="25" height="25" viewBox="0 0 25 25" fill="none" xmlns="http://www.w3.org/2000/svg">
<g clip-path="url(#clip0_338_8794)">
<path fill-rule="evenodd" clip-rule="evenodd" d="M7.02703 0.0811486C7.02703 0.155169 7.00929 0.164358 6.82432 0.185811C6.63936 0.207263 6.62162 0.216453 6.62162 0.290473C6.62162 0.353953 6.60368 0.371622 6.53929 0.371622C6.47111 0.371622 6.45517 0.390473 6.44638 0.481419C6.43757 0.572905 6.4203 0.593007 6.34291 0.601892L6.25 0.612601V0.8975C6.25 1.17791 6.24868 1.18243 6.16666 1.18243C6.08355 1.18243 6.08328 1.18355 6.07375 1.5625L6.06419 1.94257L5.27872 1.95162L4.49324 1.96071V2.04122C4.49324 2.11449 4.475 2.12385 4.29054 2.14527C4.10557 2.16672 4.08784 2.17591 4.08784 2.24993C4.08784 2.32578 4.07568 2.33108 3.90203 2.33108C3.71811 2.33108 3.71622 2.33209 3.71622 2.43243C3.71622 2.52253 3.70497 2.53378 3.61486 2.53378C3.52476 2.53378 3.51351 2.54503 3.51351 2.63513C3.51351 2.72524 3.50226 2.73649 3.41216 2.73649C3.31182 2.73649 3.31081 2.73838 3.31081 2.9223C3.31081 3.09513 3.30524 3.10811 3.23095 3.10811C3.16155 3.10811 3.14828 3.12865 3.12959 3.26486C3.11777 3.35105 3.10811 3.7449 3.10811 4.14007V4.85851L2.93422 4.88243C2.83855 4.89561 2.53831 4.90233 2.26699 4.8974C1.99564 4.89247 1.50382 4.89074 1.17399 4.89355L0.574324 4.89865V4.98311C0.574324 5.06297 0.564189 5.06757 0.388514 5.06757C0.204595 5.06757 0.202703 5.06858 0.202703 5.16892C0.202703 5.25902 0.191453 5.27027 0.101351 5.27027H0V7.90541V10.5405H0.0844595C0.155777 10.5405 0.168919 10.5563 0.168919 10.6419C0.168919 10.7352 0.178311 10.7432 0.287162 10.7432C0.396013 10.7432 0.405405 10.7513 0.405405 10.8446V10.9459H1.08108H1.75676V10.8446C1.75676 10.7545 1.76801 10.7432 1.85811 10.7432C1.94294 10.7432 1.95946 10.7299 1.95946 10.661C1.95946 10.5965 1.97939 10.5765 2.05236 10.5681L2.14527 10.5574L2.15395 8.22013L2.16264 5.88284L2.2553 5.87216C2.32804 5.86378 2.35027 5.84149 2.35865 5.76858C2.36932 5.67601 2.3703 5.67568 2.63513 5.67568C2.89997 5.67568 2.90095 5.67601 2.91162 5.76858C2.92 5.84155 2.94223 5.86378 3.0152 5.87216L3.10811 5.88287V7.43466V8.98649H3.20723C3.2902 8.98649 3.30807 9.00159 3.31703 9.07939C3.32541 9.15236 3.34764 9.17459 3.42061 9.18297C3.50409 9.1926 3.51351 9.18318 3.51351 9.09007C3.51351 8.9975 3.52429 8.98649 3.61486 8.98649C3.70497 8.98649 3.71622 8.97524 3.71622 8.88513C3.71622 8.79503 3.72747 8.78378 3.81757 8.78378H3.91892V6.0473V3.31081H4.00338C4.07095 3.31081 4.08784 3.29392 4.08784 3.22635C4.08784 3.15503 4.10361 3.14189 4.18919 3.14189C4.27929 3.14189 4.29054 3.13064 4.29054 3.04054C4.29054 2.9422 4.2953 2.93919 4.45101 2.93882C4.53929 2.93861 4.66851 2.92902 4.73818 2.9175C4.84304 2.90017 4.86486 2.88277 4.86486 2.81652V2.73649H5.63966H6.41443L6.42514 2.82939C6.43412 2.90774 6.45172 2.9223 6.53716 2.9223C6.6226 2.9223 6.6402 2.90774 6.64919 2.82939L6.6599 2.73649H12.5H18.3401L18.3508 2.82939C18.3598 2.90774 18.3774 2.9223 18.4628 2.9223C18.5483 2.9223 18.5659 2.90774 18.5749 2.82939L18.5856 2.73649H19.3603H20.1351V2.81652C20.1351 2.88277 20.157 2.90017 20.2618 2.9175C20.3315 2.92902 20.4607 2.93861 20.549 2.93882C20.7047 2.93919 20.7095 2.9422 20.7095 3.04054C20.7095 3.13064 20.7207 3.14189 20.8108 3.14189C20.8964 3.14189 20.9122 3.15503 20.9122 3.22635C20.9122 3.29392 20.9291 3.31081 20.9966 3.31081H21.0811V10.3378V17.3649H19.8865C19.2294 17.3649 18.6213 17.3745 18.5351 17.3864C18.4003 17.4048 18.3784 17.4187 18.3784 17.4856C18.3784 17.5485 18.3576 17.5653 18.2686 17.5739C18.1771 17.5827 18.157 17.6 18.1481 17.6774C18.1398 17.7497 18.1196 17.7703 18.0569 17.7703C17.9825 17.7703 17.9756 17.7852 17.9662 17.9645C17.9566 18.1484 17.9511 18.1594 17.8632 18.1695C17.7735 18.1798 17.7703 18.1871 17.7703 18.3806C17.7703 18.569 17.7654 18.5811 17.6902 18.5811C17.624 18.5811 17.6066 18.6029 17.5893 18.7078C17.5777 18.7775 17.5681 18.8981 17.5679 18.9758C17.5676 19.1048 17.5594 19.1181 17.4747 19.1278C17.3867 19.1379 17.3812 19.1489 17.3716 19.3328C17.3622 19.5136 17.3558 19.527 17.2787 19.527C17.1974 19.527 17.1959 19.532 17.1959 19.8142C17.1959 20.098 17.1969 20.1014 17.2804 20.1014C17.3517 20.1014 17.3649 20.1171 17.3649 20.2027V20.3041H19.223H21.0811V20.8108V21.3176H20.9998C20.928 21.3176 20.9158 21.3371 20.8955 21.4844L20.8726 21.6512L20.6897 21.6741C20.5258 21.6946 20.5068 21.7054 20.5068 21.7775V21.8581H12.5H4.49324V21.7775C4.49324 21.7054 4.47415 21.6946 4.3103 21.6741L4.1274 21.6512L4.10446 21.4844C4.08419 21.3371 4.07199 21.3176 4.0002 21.3176H3.91892V20.8108V20.3041H5.75791H7.59686L7.60757 20.2111C7.61595 20.1382 7.63818 20.1159 7.71115 20.1076L7.80405 20.0969V19.812C7.80405 19.5321 7.80257 19.527 7.72128 19.527C7.64422 19.527 7.6378 19.5136 7.62838 19.3328C7.61878 19.1489 7.61328 19.1379 7.52534 19.1278C7.44057 19.1181 7.4324 19.1048 7.43206 18.9758C7.43186 18.8981 7.42226 18.7775 7.41074 18.7078C7.39341 18.6029 7.37601 18.5811 7.30976 18.5811C7.23456 18.5811 7.22973 18.569 7.22973 18.3806C7.22973 18.1871 7.22652 18.1798 7.13682 18.1695C7.04888 18.1594 7.04338 18.1484 7.03378 17.9645C7.02443 17.7852 7.01747 17.7703 6.94314 17.7703C6.8804 17.7703 6.86024 17.7497 6.85189 17.6774C6.84301 17.6 6.82291 17.5827 6.73142 17.5739C6.6426 17.5653 6.62162 17.5485 6.62162 17.486C6.62162 17.4134 6.60449 17.4073 6.34291 17.387C6.18963 17.375 5.58159 17.3652 4.99172 17.3651L3.91922 17.3649L3.91064 13.8598L3.90203 10.3547L3.80912 10.3441C3.73132 10.3351 3.71622 10.3172 3.71622 10.2343C3.71622 10.1467 3.70446 10.1351 3.61486 10.1351C3.52929 10.1351 3.51351 10.122 3.51351 10.0507C3.51351 9.97936 3.49774 9.96622 3.41216 9.96622C3.32733 9.96622 3.31081 9.97959 3.31081 10.0484C3.31081 10.113 3.29088 10.1329 3.21791 10.1414L3.125 10.152L3.11642 13.8598L3.1078 17.5676H3.02351C2.94297 17.5676 2.93919 17.5767 2.93919 17.7703C2.93919 17.964 2.94294 17.973 3.02365 17.973H3.10811V18.8514V19.7297H3.02365C2.94294 19.7297 2.93919 19.7387 2.93919 19.9324C2.93919 20.1261 2.94294 20.1351 3.02365 20.1351H3.10811L3.10848 20.7686C3.10895 21.5566 3.12257 21.6554 3.23078 21.6554C3.29973 21.6554 3.31081 21.6718 3.31081 21.7736C3.31081 21.8825 3.31885 21.8919 3.41216 21.8919C3.50226 21.8919 3.51351 21.9031 3.51351 21.9932C3.51351 22.0788 3.52666 22.0946 3.59797 22.0946C3.66554 22.0946 3.68243 22.1115 3.68243 22.1791C3.68243 22.2504 3.69821 22.2635 3.78378 22.2635C3.87388 22.2635 3.88513 22.2748 3.88513 22.3649C3.88513 22.4659 3.88564 22.4662 4.08324 22.4662H4.28135L4.30284 22.623C4.31466 22.7092 4.32432 22.9676 4.32432 23.1973V23.6149H4.40878H4.49324V24.0011V24.3874L4.58615 24.3981C4.65912 24.4065 4.68135 24.4287 4.68973 24.5017C4.69814 24.5747 4.71807 24.5946 4.78263 24.5946C4.85084 24.5946 4.86486 24.6113 4.86486 24.6926C4.86486 24.7873 4.87179 24.7915 5.06757 24.8142C5.25253 24.8356 5.27027 24.8448 5.27027 24.9189V25H7.02703H8.78378V24.9189C8.78378 24.8448 8.80152 24.8356 8.98649 24.8142C9.18226 24.7915 9.18919 24.7873 9.18919 24.6926C9.18919 24.6113 9.20321 24.5946 9.27122 24.5946C9.3453 24.5946 9.35551 24.5766 9.37645 24.4088C9.3973 24.242 9.40794 24.223 9.48024 24.223H9.56081V23.4459V22.6689H12.4831H15.4054V22.9845C15.4054 23.1581 15.4154 23.5078 15.4275 23.7616C15.449 24.2097 15.4518 24.223 15.525 24.223C15.591 24.223 15.6032 24.246 15.6235 24.4088C15.6445 24.5766 15.6547 24.5946 15.7288 24.5946C15.7968 24.5946 15.8108 24.6113 15.8108 24.6926C15.8108 24.7873 15.8177 24.7915 16.0135 24.8142C16.1985 24.8356 16.2162 24.8448 16.2162 24.9189V25H17.973H19.7297V24.9189C19.7297 24.8448 19.7475 24.8356 19.9324 24.8142C20.1282 24.7915 20.1351 24.7873 20.1351 24.6926C20.1351 24.6113 20.1492 24.5946 20.2174 24.5946C20.2819 24.5946 20.3019 24.5747 20.3103 24.5017C20.3186 24.4287 20.3409 24.4065 20.4139 24.3981L20.5068 24.3874V24.0011V23.6149H20.5912H20.6757V23.1973C20.6757 22.9676 20.6853 22.7092 20.6972 22.623L20.7186 22.4662H20.9168C21.1144 22.4662 21.1149 22.4659 21.1149 22.3649C21.1149 22.2748 21.1261 22.2635 21.2162 22.2635C21.3018 22.2635 21.3176 22.2504 21.3176 22.1791C21.3176 22.1115 21.3345 22.0946 21.402 22.0946C21.4733 22.0946 21.4865 22.0788 21.4865 21.9932C21.4865 21.9031 21.4977 21.8919 21.5878 21.8919C21.6811 21.8919 21.6892 21.8825 21.6892 21.7736C21.6892 21.6718 21.7003 21.6554 21.7692 21.6554C21.8774 21.6554 21.891 21.5566 21.8915 20.7686L21.8919 20.1351H21.9764C22.0571 20.1351 22.0608 20.1261 22.0608 19.9324C22.0608 19.7387 22.0571 19.7297 21.9764 19.7297H21.8919V18.8514V17.973H21.9764C22.0571 17.973 22.0608 17.964 22.0608 17.7703C22.0608 17.5766 22.0571 17.5676 21.9764 17.5676H21.8919V11.7252V5.88287L21.9848 5.87216C22.0578 5.86378 22.08 5.84155 22.0884 5.76858C22.0991 5.67601 22.1 5.67568 22.3649 5.67568C22.6297 5.67568 22.6307 5.67601 22.6414 5.76858C22.6497 5.84155 22.672 5.86378 22.7449 5.87216L22.8378 5.88287V8.15632C22.8378 9.40672 22.8475 10.5003 22.8593 10.5865L22.8808 10.7432H23.062C23.2408 10.7432 23.2432 10.7446 23.2432 10.8446V10.9459H23.9189H24.5946V10.8446C24.5946 10.7513 24.604 10.7432 24.7128 10.7432C24.8211 10.7432 24.8311 10.7349 24.8311 10.6441C24.8311 10.5611 24.8462 10.5433 24.924 10.5343L25.0169 10.5236L25.0255 7.88682L25.0342 5.25L24.9157 5.26385C24.8028 5.27703 24.7973 5.2728 24.7973 5.1726C24.7973 5.0678 24.7969 5.06757 24.6115 5.06757C24.4358 5.06757 24.4257 5.06297 24.4257 4.98311V4.89865L23.826 4.89355C23.4962 4.89074 23.0044 4.89247 22.733 4.8974C22.4617 4.90233 22.1615 4.89561 22.0658 4.88243L21.8919 4.85851V4.14007C21.8919 3.7449 21.8822 3.35105 21.8704 3.26486C21.8517 3.12865 21.8384 3.10811 21.7691 3.10811C21.6948 3.10811 21.6892 3.09513 21.6892 2.9223C21.6892 2.73838 21.6882 2.73649 21.5878 2.73649C21.4977 2.73649 21.4865 2.72524 21.4865 2.63513C21.4865 2.54503 21.4752 2.53378 21.3851 2.53378C21.295 2.53378 21.2838 2.52253 21.2838 2.43243C21.2838 2.33209 21.2819 2.33108 21.098 2.33108C20.9243 2.33108 20.9122 2.32578 20.9122 2.24993C20.9122 2.17591 20.8944 2.16672 20.7095 2.14527C20.525 2.12385 20.5068 2.11449 20.5068 2.04122V1.96071L19.7213 1.95162L18.9358 1.94257L18.9262 1.5625C18.9167 1.18355 18.9165 1.18243 18.8333 1.18243C18.7513 1.18243 18.75 1.17791 18.75 0.8975V0.612601L18.6571 0.601892C18.5797 0.593007 18.5624 0.572905 18.5536 0.481419C18.5443 0.384865 18.531 0.371622 18.4438 0.371622C18.3613 0.371622 18.3446 0.357804 18.3446 0.289595C18.3446 0.215507 18.3266 0.205304 18.1588 0.184358C17.992 0.163513 17.973 0.152872 17.973 0.0805743V0H12.5H7.02703V0.0811486ZM7.22973 0.878378C7.22973 0.96848 7.21848 0.97973 7.12838 0.97973H7.02703V1.46959V1.95946H12.5H17.973V1.46959V0.97973H17.8716C17.7815 0.97973 17.7703 0.96848 17.7703 0.878378V0.777027H12.5H7.22973V0.878378ZM6.25 3.61486C6.25 3.70044 6.23686 3.71622 6.16554 3.71622C6.09797 3.71622 6.08108 3.73311 6.08108 3.80068C6.08108 3.86824 6.09797 3.88513 6.16554 3.88513C6.24625 3.88513 6.25 3.89416 6.25 4.08784V4.29054H6.53446H6.81895L6.84213 4.07409C6.85486 3.95503 6.85466 3.7802 6.84166 3.68557L6.81797 3.51351H6.53399H6.25V3.61486ZM8.37838 3.61486C8.37838 3.70044 8.36524 3.71622 8.29392 3.71622C8.21321 3.71622 8.20946 3.72524 8.20946 3.91892V4.12162H8.31081C8.39639 4.12162 8.41216 4.13476 8.41216 4.20608V4.29054H12.5H16.5878V4.20608C16.5878 4.13476 16.6036 4.12162 16.6892 4.12162H16.7905V3.91892C16.7905 3.72524 16.7868 3.71622 16.7061 3.71622C16.6348 3.71622 16.6216 3.70044 16.6216 3.61486V3.51351H12.5H8.37838V3.61486ZM18.1583 3.68557C18.1453 3.7802 18.1451 3.95503 18.1579 4.07409L18.181 4.29054H18.4655H18.75V4.08784C18.75 3.89416 18.7537 3.88513 18.8345 3.88513C18.902 3.88513 18.9189 3.86824 18.9189 3.80068C18.9189 3.73311 18.902 3.71622 18.8345 3.71622C18.7631 3.71622 18.75 3.70044 18.75 3.61486V3.51351H18.466H18.182L18.1583 3.68557ZM5.27027 4.98311C5.27027 5.06382 5.26125 5.06757 5.06757 5.06757H4.86486V5.16892C4.86486 5.25375 4.85149 5.27027 4.78263 5.27027C4.71807 5.27027 4.69814 5.2902 4.68973 5.36318C4.68135 5.43615 4.65912 5.45838 4.58615 5.46676L4.49324 5.47747V9.86709V14.2568H4.57527C4.64926 14.2568 4.65956 14.2748 4.68027 14.4406L4.70324 14.6244L4.88541 14.6472C5.04848 14.6676 5.06757 14.6784 5.06757 14.7505V14.8311H12.5H19.9324V14.7505C19.9324 14.6784 19.9515 14.6676 20.1146 14.6472L20.2968 14.6244L20.3197 14.4406C20.3404 14.2748 20.3507 14.2568 20.4247 14.2568H20.5068V9.86709V5.47747L20.4139 5.46676C20.3409 5.45838 20.3186 5.43615 20.3103 5.36318C20.3019 5.2902 20.2819 5.27027 20.2174 5.27027C20.1485 5.27027 20.1351 5.25375 20.1351 5.16892V5.06757H19.9324C19.7387 5.06757 19.7297 5.06382 19.7297 4.98311V4.89865H12.5H5.27027V4.98311ZM0.0160811 7.90541C0.0160811 9.36402 0.0202365 9.96074 0.0253378 9.23142C0.0304054 8.50213 0.0304054 7.30872 0.0253378 6.57939C0.0202365 5.8501 0.0160811 6.44679 0.0160811 7.90541ZM0.798716 5.80236C0.787196 5.87206 0.777601 6.87541 0.777399 8.03209L0.777027 10.1351H1.08108H1.38514V8.06216C1.38514 6.92199 1.37547 5.91861 1.36365 5.83243L1.34216 5.67568H1.08091H0.819662L0.798716 5.80236ZM5.47297 5.76013C5.47297 5.83145 5.4572 5.84459 5.37162 5.84459H5.27027V9.94932V14.0541H12.5H19.7297V9.94932V5.84459H19.6284C19.5428 5.84459 19.527 5.83145 19.527 5.76013V5.67568H12.5H5.47297V5.76013ZM23.6364 5.83243C23.6245 5.91861 23.6149 6.92199 23.6149 8.06216V10.1351H23.9189H24.223L24.2226 8.03209C24.2224 6.87541 24.2128 5.87206 24.2013 5.80236L24.1803 5.67568H23.9191H23.6578L23.6364 5.83243ZM8.37838 16.2982C8.37838 16.3723 8.3604 16.3825 8.19257 16.4035L8.00676 16.4267V16.9127V17.3986H8.08679C8.15304 17.3986 8.17044 17.4205 8.18777 17.5253C8.19929 17.595 8.20888 17.7243 8.20909 17.8125C8.20942 17.9598 8.21622 17.973 8.29149 17.973C8.36557 17.973 8.37578 17.9909 8.39672 18.1588C8.41757 18.3256 8.42821 18.3446 8.50051 18.3446C8.57645 18.3446 8.58108 18.3562 8.58108 18.5473V18.75H8.68243H8.78378V18.9527C8.78378 19.1434 8.78851 19.1554 8.86382 19.1554C8.93007 19.1554 8.94747 19.1772 8.9648 19.2821C8.97632 19.3518 8.98591 19.481 8.98611 19.5693C8.98649 19.725 8.98949 19.7297 9.08784 19.7297C9.18801 19.7297 9.18919 19.7319 9.18919 19.9133C9.18919 20.0884 9.19345 20.0974 9.28209 20.1076C9.35507 20.1159 9.3773 20.1382 9.38568 20.2111L9.39638 20.3041H12.5H15.6036L15.6143 20.2111C15.6227 20.1382 15.6449 20.1159 15.7179 20.1076C15.8066 20.0974 15.8108 20.0884 15.8108 19.9133C15.8108 19.7319 15.812 19.7297 15.9122 19.7297H16.0135V19.4426V19.1554H16.1149H16.2162V18.9527V18.75H16.3176H16.4189V18.5473C16.4189 18.3558 16.4234 18.3446 16.5001 18.3446C16.5741 18.3446 16.5833 18.3269 16.6047 18.1419C16.6262 17.9569 16.6354 17.9392 16.7094 17.9392C16.7823 17.9392 16.7906 17.9246 16.7909 17.7956C16.7911 17.7167 16.8007 17.595 16.8122 17.5253C16.8296 17.4205 16.847 17.3986 16.9132 17.3986H16.9932V16.9127V16.4267L16.8074 16.4035C16.6396 16.3825 16.6216 16.3723 16.6216 16.2982V16.2162H15.625H14.6284V16.3007C14.6284 16.3682 14.6115 16.3851 14.5439 16.3851C14.4601 16.3851 14.4595 16.3874 14.4595 16.6892V16.9932H15.3378H16.2162V17.0946C16.2162 17.1847 16.205 17.1959 16.1149 17.1959H16.0135V17.3986C16.0135 17.5894 16.0088 17.6014 15.9335 17.6014C15.8672 17.6014 15.8498 17.6232 15.8325 17.728C15.821 17.7977 15.8114 17.9183 15.8112 17.9961C15.8108 18.125 15.8027 18.1383 15.7179 18.1481C15.63 18.1582 15.6245 18.1692 15.6149 18.353C15.6055 18.5328 15.5987 18.5473 15.5236 18.5473C15.4486 18.5473 15.4418 18.5618 15.4324 18.7416C15.4228 18.9254 15.4173 18.9364 15.3294 18.9465C15.2428 18.9565 15.2365 18.968 15.2361 19.1154C15.2359 19.2024 15.2263 19.3307 15.2148 19.4003L15.1939 19.527H12.4787H9.76351V19.2421V18.9572L9.67061 18.9465C9.58267 18.9364 9.57716 18.9254 9.56757 18.7416C9.55821 18.5618 9.55138 18.5473 9.47635 18.5473C9.40132 18.5473 9.39449 18.5328 9.38513 18.353C9.37554 18.1692 9.37003 18.1582 9.28209 18.1481C9.19733 18.1383 9.18916 18.125 9.18882 17.9961C9.18861 17.9183 9.17902 17.7977 9.1675 17.728C9.15017 17.6232 9.13277 17.6014 9.06652 17.6014C8.99122 17.6014 8.98649 17.5894 8.98649 17.3986V17.1959H8.88513C8.79503 17.1959 8.78378 17.1847 8.78378 17.0946V16.9932H11.1318H13.4797V16.6892V16.3851H13.3784C13.2928 16.3851 13.277 16.372 13.277 16.3007V16.2162H10.8277H8.37838V16.2982ZM10.6503 17.9636C10.5612 17.9747 10.5405 17.9923 10.5405 18.0573C10.5405 18.1196 10.5199 18.1398 10.4476 18.1481C10.3693 18.1571 10.3547 18.1747 10.3547 18.2601C10.3547 18.3456 10.3693 18.3632 10.4476 18.3722C10.5254 18.3811 10.5405 18.399 10.5405 18.482C10.5405 18.5696 10.5523 18.5811 10.6419 18.5811C10.7275 18.5811 10.7432 18.5942 10.7432 18.6655V18.75H12.5H14.2568V18.6655C14.2568 18.5942 14.2725 18.5811 14.3581 18.5811C14.4477 18.5811 14.4595 18.5696 14.4595 18.482C14.4595 18.399 14.4746 18.3811 14.5524 18.3722C14.6307 18.3632 14.6453 18.3456 14.6453 18.2601C14.6453 18.1747 14.6307 18.1571 14.5524 18.1481C14.4811 18.1399 14.4595 18.1194 14.4595 18.0598C14.4595 17.993 14.4375 17.9792 14.3027 17.9607C14.1362 17.9379 10.8365 17.9405 10.6503 17.9636ZM3.91892 18.8514V19.527H5.37162H6.82432V19.4257C6.82432 19.3406 6.81101 19.3243 6.74155 19.3243C6.66544 19.3243 6.65693 19.308 6.63581 19.1216C6.61497 18.9373 6.60561 18.9189 6.5328 18.9189C6.46115 18.9189 6.45267 18.9038 6.45233 18.7753C6.45213 18.6964 6.44253 18.5748 6.43101 18.5051C6.41368 18.4002 6.39628 18.3784 6.33003 18.3784C6.26361 18.3784 6.25 18.3611 6.25 18.277V18.1757H5.08446H3.91892V18.8514ZM18.75 18.277C18.75 18.3611 18.7364 18.3784 18.67 18.3784C18.6037 18.3784 18.5863 18.4002 18.569 18.5051C18.5575 18.5748 18.5479 18.6964 18.5477 18.7753C18.5473 18.9043 18.539 18.9189 18.4661 18.9189C18.3921 18.9189 18.3829 18.9367 18.3615 19.1216C18.34 19.3066 18.3308 19.3243 18.2568 19.3243C18.1892 19.3243 18.1757 19.3412 18.1757 19.4257V19.527H19.6284H21.0811V18.8514V18.1757H19.9155H18.75V18.277ZM5.27027 23.3446V24.0203H5.37162C5.46172 24.0203 5.47297 24.0315 5.47297 24.1216V24.223H7.02703H8.58108V24.1216C8.58108 24.0315 8.59233 24.0203 8.68243 24.0203H8.78378V23.3446V22.6689H7.02703H5.27027V23.3446ZM16.2162 23.3446V24.0203H16.3176C16.4077 24.0203 16.4189 24.0315 16.4189 24.1216V24.223H17.973H19.527V24.1216C19.527 24.0315 19.5383 24.0203 19.6284 24.0203H19.7297V23.3446V22.6689H17.973H16.2162V23.3446Z" fill="#26A387"/>
<path fill-rule="evenodd" clip-rule="evenodd" d="M7.22973 0.101351V0.202703H7.02703C6.8348 0.202703 6.82432 0.206959 6.82432 0.284932C6.82432 0.349493 6.80439 0.369426 6.73142 0.377838C6.65845 0.386216 6.63622 0.408446 6.62784 0.481419C6.61943 0.554392 6.59949 0.574324 6.53493 0.574324C6.46608 0.574324 6.4527 0.590845 6.4527 0.675676C6.4527 0.765777 6.44145 0.777027 6.35135 0.777027H6.25V1.44828V2.11953L6.12331 2.14047C6.05365 2.15199 5.61274 2.16159 5.14358 2.16179L4.29054 2.16216V2.24274C4.29054 2.31503 4.27152 2.32568 4.10473 2.34652C3.93689 2.36747 3.91892 2.37767 3.91892 2.45176C3.91892 2.52037 3.90237 2.53378 3.81757 2.53378C3.72747 2.53378 3.71622 2.54503 3.71622 2.63513C3.71622 2.72524 3.70497 2.73649 3.61487 2.73649C3.52476 2.73649 3.51351 2.74774 3.51351 2.83784C3.51351 2.92264 3.5001 2.93919 3.43149 2.93919C3.3574 2.93919 3.3472 2.95716 3.32625 3.125C3.30541 3.29179 3.29476 3.31081 3.22247 3.31081H3.14189L3.14152 4.0625C3.14132 4.47595 3.13176 4.87101 3.12027 4.94051L3.09939 5.06682L1.74395 5.07564L0.388514 5.08446L0.377838 5.17736C0.369426 5.25034 0.349493 5.27027 0.284932 5.27027C0.216081 5.27027 0.202703 5.28679 0.202703 5.37162C0.202703 5.46172 0.191453 5.47297 0.101351 5.47297H0V7.90318V10.3333L0.0929054 10.3441C0.180845 10.3542 0.186351 10.3651 0.195946 10.549L0.206081 10.7432H1.06588H1.92568V10.6419C1.92568 10.5519 1.93696 10.5405 2.02679 10.5405H2.12794L2.13659 8.09966L2.14527 5.65878H2.63514H3.125L3.13375 7.32399L3.14253 8.98922L3.42091 8.97939L3.69932 8.96959L3.70797 6.24155L3.71662 3.51351H3.79699C3.86905 3.51351 3.87973 3.49436 3.90057 3.3277C3.92152 3.15986 3.93172 3.14189 4.00581 3.14189C4.07382 3.14189 4.08784 3.12513 4.08784 3.04385C4.08784 2.94919 4.09476 2.94503 4.29054 2.9223C4.47551 2.90084 4.49324 2.89166 4.49324 2.81764V2.73649H12.5H20.5068V2.81764C20.5068 2.89166 20.5245 2.90084 20.7095 2.9223C20.9052 2.94503 20.9122 2.94919 20.9122 3.04385C20.9122 3.12513 20.9262 3.14189 20.9942 3.14189C21.0683 3.14189 21.0785 3.15986 21.0994 3.3277C21.1203 3.49449 21.1309 3.51351 21.2032 3.51351H21.2838V10.4561V17.3986H21.1993C21.1318 17.3986 21.1149 17.4155 21.1149 17.4831V17.5676H19.802C19.0799 17.5676 18.4186 17.5772 18.3324 17.5891L18.1757 17.6105V17.7918C18.1757 17.9706 18.1743 17.973 18.0743 17.973H17.973V18.1757C17.973 18.3664 17.9682 18.3784 17.8929 18.3784C17.8267 18.3784 17.8093 18.4002 17.792 18.5051C17.7804 18.5748 17.7708 18.6964 17.7706 18.7753C17.7703 18.9043 17.762 18.9189 17.6891 18.9189C17.6151 18.9189 17.6059 18.9367 17.5845 19.1216C17.5634 19.3026 17.5528 19.3243 17.4846 19.3243C17.4134 19.3243 17.4072 19.3419 17.3914 19.5861C17.3821 19.7302 17.3816 19.905 17.3902 19.9747C17.4035 20.0813 17.4188 20.1014 17.4868 20.1014C17.554 20.1014 17.5676 20.1183 17.5676 20.2027V20.3041H19.4257H21.2838V20.7095V21.1149H21.1993C21.1195 21.1149 21.1149 21.125 21.1149 21.3007C21.1149 21.4846 21.1139 21.4865 21.0135 21.4865C20.9234 21.4865 20.9122 21.4977 20.9122 21.5878C20.9122 21.6779 20.9009 21.6892 20.8108 21.6892C20.7207 21.6892 20.7095 21.7004 20.7095 21.7905V21.8919H20.3209H19.9324V21.9764V22.0608H17.973H16.0135V21.9764C16.0135 21.8956 16.0045 21.8919 15.8108 21.8919C15.6171 21.8919 15.6081 21.8956 15.6081 21.9764V22.0608H12.5H9.39189V21.9764C9.39189 21.8956 9.38287 21.8919 9.18919 21.8919C8.99551 21.8919 8.98649 21.8956 8.98649 21.9764V22.0608H7.02703H5.06757V21.9764V21.8919H4.67905H4.29054V21.7905C4.29054 21.7004 4.27929 21.6892 4.18919 21.6892C4.09909 21.6892 4.08784 21.6779 4.08784 21.5878C4.08784 21.4977 4.07659 21.4865 3.98649 21.4865C3.88615 21.4865 3.88514 21.4846 3.88514 21.3007C3.88514 21.125 3.88054 21.1149 3.80068 21.1149H3.71622V20.7095V20.3041H5.57432H7.43243V20.2027C7.43243 20.1183 7.44598 20.1014 7.51321 20.1014C7.58118 20.1014 7.59645 20.0813 7.60976 19.9747C7.61845 19.905 7.61794 19.7302 7.60865 19.5861C7.5927 19.3401 7.58699 19.3243 7.51375 19.3243C7.44355 19.3243 7.43351 19.3042 7.41284 19.1216C7.39199 18.9373 7.38264 18.9189 7.30983 18.9189C7.23818 18.9189 7.2297 18.9038 7.22936 18.7753C7.22916 18.6964 7.21956 18.5748 7.20804 18.5051C7.19071 18.4002 7.17331 18.3784 7.10706 18.3784C7.03176 18.3784 7.02703 18.3664 7.02703 18.1757V17.973H6.92568C6.83557 17.973 6.82432 17.9617 6.82432 17.8716C6.82432 17.7868 6.81095 17.7703 6.74209 17.7703C6.67753 17.7703 6.6576 17.7503 6.64919 17.6774L6.63851 17.5845L5.26182 17.5756L3.88514 17.5668V17.4827C3.88514 17.4156 3.86814 17.3986 3.80068 17.3986H3.71622V13.7838V10.1689H3.42905H3.14189V15.7264V21.2838H3.22635C3.30186 21.2838 3.31081 21.2976 3.31081 21.4142C3.31081 21.4859 3.32047 21.6152 3.3323 21.7013C3.35098 21.8376 3.36426 21.8581 3.43365 21.8581C3.49987 21.8581 3.51351 21.8754 3.51351 21.9595C3.51351 22.0496 3.52476 22.0608 3.61487 22.0608C3.70497 22.0608 3.71622 22.0721 3.71622 22.1622C3.71622 22.2625 3.71811 22.2635 3.90203 22.2635C4.08595 22.2635 4.08784 22.2645 4.08784 22.3649V22.4662H4.29054H4.49324V23.3446V24.223H4.59459C4.6847 24.223 4.69595 24.2342 4.69595 24.3243C4.69595 24.4099 4.70909 24.4257 4.78041 24.4257C4.84797 24.4257 4.86487 24.4426 4.86487 24.5101C4.86487 24.5815 4.88064 24.5946 4.96622 24.5946C5.05632 24.5946 5.06757 24.6058 5.06757 24.6959V24.7973H5.27027H5.47297V24.8986V25H7.02703H8.58108V24.8986V24.7973H8.78378H8.98649V24.6959C8.98649 24.6058 8.99774 24.5946 9.08784 24.5946C9.17794 24.5946 9.18919 24.5833 9.18919 24.4932C9.18919 24.409 9.20277 24.3919 9.26976 24.3919C9.34206 24.3919 9.3527 24.3729 9.37355 24.2061C9.39449 24.0382 9.4047 24.0203 9.47878 24.0203H9.56081V23.3277V22.6351H12.5H15.4392V23.3277V24.0203H15.5212C15.5953 24.0203 15.6055 24.0382 15.6265 24.2061C15.6473 24.3729 15.6579 24.3919 15.7302 24.3919C15.7972 24.3919 15.8108 24.409 15.8108 24.4932C15.8108 24.5833 15.8221 24.5946 15.9122 24.5946C16.0023 24.5946 16.0135 24.6058 16.0135 24.6959V24.7973H16.2162H16.4189V24.8986V25H17.973H19.527V24.8986V24.7973H19.7297H19.9324V24.6959C19.9324 24.6058 19.9437 24.5946 20.0338 24.5946C20.1194 24.5946 20.1351 24.5815 20.1351 24.5101C20.1351 24.4426 20.152 24.4257 20.2196 24.4257C20.2909 24.4257 20.3041 24.4099 20.3041 24.3243C20.3041 24.2342 20.3153 24.223 20.4054 24.223H20.5068V23.3446V22.4662H20.7095H20.9122V22.3649C20.9122 22.2645 20.9141 22.2635 21.098 22.2635C21.2819 22.2635 21.2838 22.2625 21.2838 22.1622C21.2838 22.0721 21.295 22.0608 21.3851 22.0608C21.4752 22.0608 21.4865 22.0496 21.4865 21.9595C21.4865 21.8754 21.5001 21.8581 21.5664 21.8581C21.6357 21.8581 21.649 21.8376 21.6677 21.7013C21.6795 21.6152 21.6892 21.4859 21.6892 21.4142C21.6892 21.2976 21.6981 21.2838 21.7736 21.2838H21.858L21.8665 13.4713L21.875 5.65878L22.3517 5.64943L22.8284 5.6401L22.85 5.79774C22.8619 5.88443 22.8716 6.98703 22.8716 8.24797V10.5405H22.9561C23.0274 10.5405 23.0405 10.5563 23.0405 10.6419V10.7432H23.9172H24.7939L24.8041 10.5492C24.8138 10.3629 24.8182 10.3544 24.9155 10.3377L25.0169 10.3203L25.0256 7.88649L25.0342 5.4527L24.9158 5.46652C24.8028 5.47973 24.7973 5.47551 24.7973 5.3753C24.7973 5.28655 24.7846 5.27027 24.7151 5.27027C24.6505 5.27027 24.6306 5.25034 24.6222 5.17736L24.6115 5.08446L23.2561 5.07564L21.9006 5.06682L21.8797 4.94051C21.8682 4.87101 21.8587 4.47595 21.8585 4.0625L21.8581 3.31081H21.7775C21.7052 3.31081 21.6946 3.29179 21.6738 3.125C21.6528 2.95716 21.6426 2.93919 21.5685 2.93919C21.4999 2.93919 21.4865 2.92264 21.4865 2.83784C21.4865 2.74774 21.4752 2.73649 21.3851 2.73649C21.295 2.73649 21.2838 2.72524 21.2838 2.63513C21.2838 2.54503 21.2725 2.53378 21.1824 2.53378C21.0976 2.53378 21.0811 2.52037 21.0811 2.45176C21.0811 2.37767 21.0631 2.36747 20.8953 2.34652C20.7285 2.32568 20.7095 2.31503 20.7095 2.24274V2.16216L19.8564 2.16179C19.3872 2.16159 18.9464 2.15199 18.8767 2.14047L18.75 2.11953V1.44828V0.777027H18.6486C18.5585 0.777027 18.5473 0.765777 18.5473 0.675676C18.5473 0.590845 18.5339 0.574324 18.4651 0.574324C18.4005 0.574324 18.3806 0.554392 18.3722 0.481419C18.3638 0.408446 18.3416 0.386216 18.2686 0.377838C18.1956 0.369426 18.1757 0.349493 18.1757 0.284932C18.1757 0.206959 18.1652 0.202703 17.973 0.202703H17.7703V0.101351V0H12.5H7.22973V0.101351ZM7.43243 0.692568C7.43243 0.773277 7.42341 0.777027 7.22973 0.777027H7.02703V0.878378C7.02703 0.963176 7.01362 0.97973 6.945 0.97973C6.87128 0.97973 6.86081 0.997669 6.84166 1.15709C6.82993 1.25466 6.82503 1.51689 6.83078 1.73986L6.84122 2.14527H12.5H18.1588L18.1692 1.73986C18.175 1.51689 18.1701 1.25466 18.1583 1.15709C18.1392 0.997669 18.1287 0.97973 18.055 0.97973C17.9864 0.97973 17.973 0.963176 17.973 0.878378V0.777027H17.7703C17.5766 0.777027 17.5676 0.773277 17.5676 0.692568V0.608108H12.5H7.43243V0.692568ZM6.4527 3.61486C6.4527 3.70497 6.44145 3.71622 6.35135 3.71622C6.25135 3.71622 6.25 3.71861 6.25 3.89743V4.07865L6.39358 4.09821C6.47257 4.10895 6.60176 4.10902 6.68074 4.09834L6.82432 4.07895V3.89757C6.82432 3.72666 6.81946 3.71622 6.73987 3.71622C6.66855 3.71622 6.65541 3.70044 6.65541 3.61486C6.65541 3.52476 6.64416 3.51351 6.55405 3.51351C6.46395 3.51351 6.4527 3.52476 6.4527 3.61486ZM8.39987 3.67027C8.38804 3.75645 8.37838 3.88361 8.37838 3.95284C8.37838 4.07689 8.38054 4.07895 8.53514 4.10013C8.73443 4.12747 16.2924 4.12784 16.4574 4.10054C16.5686 4.08216 16.5824 4.06794 16.6008 3.9524C16.6121 3.88213 16.6117 3.75463 16.6 3.66905L16.5786 3.51351H12.5H8.42135L8.39987 3.67027ZM18.3446 3.61486C18.3446 3.70044 18.3315 3.71622 18.2601 3.71622C18.1805 3.71622 18.1757 3.72666 18.1757 3.89743V4.07865L18.3193 4.09821C18.3982 4.10895 18.5275 4.10902 18.6064 4.09834L18.75 4.07895V3.89757C18.75 3.71858 18.7487 3.71622 18.6486 3.71622C18.5585 3.71622 18.5473 3.70497 18.5473 3.61486C18.5473 3.52476 18.536 3.51351 18.4459 3.51351C18.3558 3.51351 18.3446 3.52476 18.3446 3.61486ZM5.00845 5.09199C4.91834 5.10318 4.89865 5.12041 4.89865 5.18794C4.89865 5.25591 4.88186 5.27027 4.80253 5.27027H4.70642L4.68429 5.73169C4.67213 5.98547 4.66216 7.84541 4.66216 9.86486C4.66216 11.8843 4.67213 13.7443 4.68429 13.998L4.70642 14.4595H4.80253C4.88111 14.4595 4.89865 14.4741 4.89865 14.5395C4.89865 14.6057 4.92047 14.6231 5.02534 14.6405C5.19307 14.6682 19.7424 14.6684 19.9446 14.6407C20.0808 14.622 20.1014 14.6087 20.1014 14.5393C20.1014 14.4741 20.119 14.4595 20.1975 14.4595H20.2936L20.3157 13.998C20.3445 13.3972 20.3445 6.3325 20.3157 5.73169L20.2936 5.27027H20.1975C20.119 5.27027 20.1014 5.25564 20.1014 5.19041C20.1014 5.12101 20.0808 5.10774 19.9446 5.08905C19.7774 5.06611 5.19372 5.06902 5.00845 5.09199ZM0.0160135 7.90541C0.0160135 9.25253 0.0202027 9.80365 0.0253378 9.13007C0.0304392 8.45652 0.0304392 7.35432 0.0253378 6.68074C0.0202027 6.0072 0.0160135 6.55828 0.0160135 7.90541ZM0.777027 5.74324C0.777027 5.82882 0.763885 5.84459 0.692568 5.84459H0.608108V7.98544V10.1263L0.734797 10.1472C0.804493 10.1587 1.0173 10.1683 1.20777 10.1685L1.55405 10.1689V7.92672V5.68453L1.42736 5.66358C1.3577 5.65206 1.18287 5.64247 1.03885 5.64226L0.777027 5.64189V5.74324ZM5.29287 5.66432C5.28044 5.67676 5.27027 7.57716 5.27027 9.88747V14.088L12.4916 14.0795L19.7128 14.0709V9.86486V5.65878L12.5142 5.65027C8.55487 5.64557 5.3053 5.65189 5.29287 5.66432ZM23.5389 5.66608L23.4459 5.68017V7.92453V10.1689L23.7922 10.1685C23.9827 10.1683 24.1955 10.1587 24.2652 10.1472L24.3919 10.1263V7.98544V5.84459H24.3074C24.2361 5.84459 24.223 5.82882 24.223 5.74324V5.64189L23.9274 5.64696C23.7648 5.64973 23.59 5.65834 23.5389 5.66608ZM8.42061 16.4096C8.2121 16.422 8.20946 16.4234 8.20946 16.5219C8.20946 16.6102 8.19784 16.6216 8.10811 16.6216H8.00676V16.9088V17.1959H8.10811H8.20946V17.3986C8.20946 17.5894 8.21419 17.6014 8.28949 17.6014C8.35574 17.6014 8.37314 17.6232 8.39047 17.728C8.40199 17.7977 8.41159 17.9183 8.41179 17.9961C8.41213 18.125 8.4203 18.1383 8.50507 18.1481C8.59301 18.1582 8.59851 18.1692 8.60811 18.353C8.61753 18.5339 8.62395 18.5473 8.70101 18.5473C8.77966 18.5473 8.78378 18.5574 8.78378 18.75V18.9527H8.88514H8.98649V19.2399V19.527H9.08784C9.18801 19.527 9.18919 19.5292 9.18919 19.7106C9.18919 19.8857 9.19345 19.8947 9.28209 19.9049C9.35446 19.9132 9.37733 19.9356 9.38547 20.0063C9.39503 20.089 9.41226 20.099 9.57973 20.12C9.74446 20.1405 9.76351 20.1513 9.76351 20.2235V20.3041H12.5H15.2365V20.2235C15.2365 20.1513 15.2555 20.1405 15.4203 20.12C15.5877 20.099 15.605 20.089 15.6145 20.0063C15.6227 19.9356 15.6455 19.9132 15.7179 19.9049C15.8066 19.8947 15.8108 19.8857 15.8108 19.7106C15.8108 19.5292 15.812 19.527 15.9122 19.527H16.0135V19.2399V18.9527H16.1149H16.2162V18.75C16.2162 18.5574 16.2203 18.5473 16.299 18.5473C16.376 18.5473 16.3825 18.5339 16.3919 18.353C16.4015 18.1692 16.407 18.1582 16.4949 18.1481C16.5797 18.1383 16.5879 18.125 16.5882 17.9961C16.5884 17.9183 16.598 17.7977 16.6095 17.728C16.6269 17.6232 16.6443 17.6014 16.7105 17.6014C16.7858 17.6014 16.7905 17.5894 16.7905 17.3986V17.1959H16.8919H16.9932V16.9088V16.6216H16.8919C16.803 16.6216 16.7905 16.6098 16.7905 16.5253V16.429L16.4813 16.4071C16.0859 16.379 15.0996 16.3791 14.7382 16.4072L14.4595 16.4289V16.6097C14.4595 16.7881 14.4608 16.7905 14.5608 16.7905C14.6509 16.7905 14.6622 16.8018 14.6622 16.8919V16.9932H15.4392H16.2162V17.1959V17.3986H16.1149H16.0135V17.6858V17.973H15.9122C15.8118 17.973 15.8108 17.9749 15.8108 18.1588C15.8108 18.3345 15.8062 18.3446 15.7264 18.3446C15.6456 18.3446 15.6419 18.3536 15.6419 18.5473V18.75H15.5405H15.4392V18.9527V19.1554H15.3378C15.2377 19.1554 15.2365 19.1575 15.2365 19.339C15.2365 19.5141 15.2322 19.523 15.1436 19.5332C15.0706 19.5416 15.0484 19.5639 15.04 19.6368L15.0293 19.7297H12.5H9.97071L9.96 19.6368C9.95162 19.5639 9.92939 19.5416 9.85642 19.5332C9.76777 19.523 9.76351 19.5141 9.76351 19.339C9.76351 19.1575 9.76233 19.1554 9.66216 19.1554H9.56081V18.9527V18.75H9.45946H9.35811V18.5473C9.35811 18.3536 9.35436 18.3446 9.27365 18.3446C9.19378 18.3446 9.18919 18.3345 9.18919 18.1588C9.18919 17.9749 9.18818 17.973 9.08784 17.973C8.98949 17.973 8.98649 17.9682 8.98612 17.8125C8.98591 17.7243 8.97632 17.595 8.9648 17.5253C8.94747 17.4205 8.93007 17.3986 8.86382 17.3986C8.78851 17.3986 8.78378 17.3867 8.78378 17.1959V16.9932H11.0304H13.277V16.8919C13.277 16.8009 13.2878 16.7905 13.3827 16.7905H13.4884L13.465 16.6138C13.4521 16.5166 13.4337 16.4292 13.4241 16.4195C13.4042 16.3996 8.74446 16.3904 8.42061 16.4096ZM10.5405 18.2601V18.5473H12.5H14.4595L14.4591 18.3868C14.4589 18.2986 14.4493 18.1694 14.4378 18.0997L14.4168 17.973H12.4787H10.5405V18.2601ZM3.80912 18.1661L3.71622 18.1802V18.8514V19.5225L3.80912 19.5332C3.88209 19.5416 3.90432 19.5639 3.9127 19.6368L3.92341 19.7297H5.36926H6.81514L6.83598 19.5777C6.84743 19.4941 6.84743 19.3573 6.83598 19.2736C6.81797 19.1422 6.80432 19.1216 6.73527 19.1216C6.66389 19.1216 6.65537 19.1063 6.65503 18.978C6.65483 18.8991 6.64524 18.7775 6.63372 18.7078C6.61639 18.6029 6.59899 18.5811 6.53274 18.5811C6.45764 18.5811 6.4527 18.5688 6.4527 18.383V18.1849L6.29595 18.1634C6.12767 18.1403 3.96372 18.1427 3.80912 18.1661ZM18.6571 18.1663L18.5473 18.18V18.3805C18.5473 18.569 18.5425 18.5811 18.4673 18.5811C18.401 18.5811 18.3836 18.6029 18.3663 18.7078C18.3548 18.7775 18.3452 18.8991 18.345 18.978C18.3446 19.1063 18.3361 19.1216 18.2647 19.1216C18.1957 19.1216 18.182 19.1422 18.164 19.2736C18.1526 19.3573 18.1526 19.4941 18.164 19.5777L18.1849 19.7297H19.6307H21.0766L21.0873 19.6368C21.0957 19.5639 21.1179 19.5416 21.1909 19.5332L21.2838 19.5225V18.8535V18.1845L21.1571 18.1636C21.0215 18.1411 18.8406 18.1435 18.6571 18.1663ZM5.0901 22.6577C5.06176 22.686 5.06105 23.7229 5.08926 23.8936C5.10659 23.9984 5.12399 24.0203 5.19024 24.0203C5.25666 24.0203 5.27027 24.0375 5.27027 24.1216V24.223H5.47297C5.66666 24.223 5.67568 24.2267 5.67568 24.3074V24.3919H7.02703H8.37838V24.3074C8.37838 24.2268 8.3875 24.223 8.57939 24.223H8.78041L8.79054 24.0287C8.80014 23.8448 8.80564 23.8339 8.89358 23.8238L8.98649 23.8131V23.2456V22.6781L8.82973 22.6566C8.62044 22.6279 5.11885 22.6289 5.0901 22.6577ZM16.1233 22.6594L16.0135 22.6732V23.2431V23.8131L16.1064 23.8238C16.1944 23.8339 16.1999 23.8448 16.2095 24.0287L16.2196 24.223H16.4206C16.6125 24.223 16.6216 24.2268 16.6216 24.3074V24.3919H17.973H19.3243V24.3074C19.3243 24.2267 19.3333 24.223 19.527 24.223H19.7297V24.1216C19.7297 24.0369 19.7432 24.0203 19.8115 24.0203C19.887 24.0203 19.8949 24.004 19.9149 23.8091C19.9268 23.693 19.9318 23.3851 19.926 23.125L19.9155 22.652L18.0743 22.6489C17.0617 22.6471 16.1837 22.6519 16.1233 22.6594Z" fill="#26A387"/>
</g>
<defs>
<clipPath id="clip0_338_8794">
<rect width="25" height="25" fill="white"/>
</clipPath>
</defs>
</svg>
