<svg width="25" height="25" viewBox="0 0 25 25" fill="none" xmlns="http://www.w3.org/2000/svg">
<g clip-path="url(#clip0_338_8803)">
<path fill-rule="evenodd" clip-rule="evenodd" d="M6.84966 3.91023L6.65541 3.92242V4.10249V4.28256L6.26855 4.30675L5.88169 4.3309L5.87159 4.50506L5.86149 4.67918L5.67149 4.68918L5.48145 4.69918L5.4576 5.06759L5.43372 5.43597L5.25909 5.4461L5.08446 5.45621L5.07493 5.85316L5.06544 6.25012H4.88473H4.70405L4.67976 6.63864L4.65551 7.02715H4.47301H4.29054V7.41566V7.80418H4.10473H3.91892V7.41566V7.02715H2.53328H1.1476L1.15659 7.99844L1.16554 8.96972L1.5625 8.97925L1.95946 8.98874V9.1735V9.35823H2.14527H2.33108V9.56094V9.76364H2.12838H1.92568V9.94577V10.1279L1.55564 10.1521L1.18557 10.1762L1.17557 10.3669L1.16554 10.5576L0.971284 10.5677L0.777027 10.5778V10.9478V11.3177H0.574324H0.371622V11.7062V12.0947H0.185811H0V16.4022V20.7096H0.185811H0.371622V20.8903V21.0711L0.680878 21.093C1.08047 21.1214 4.42412 21.1213 4.78885 21.0929L5.06757 21.0712V20.8904V20.7096H5.27027H5.47297V19.9326V19.1555H12.5H19.527V19.9326V20.7096H19.7297H19.9324V20.8904V21.0712L20.2111 21.0929C20.5737 21.1211 23.9533 21.1211 24.3159 21.0929L24.5946 21.0712V20.892V20.7128L24.8057 20.7028L25.0169 20.6927L25.0255 16.3853L25.0342 12.0778L24.8324 12.0892L24.6306 12.1006L24.6211 11.7176L24.6115 11.3346L24.4212 11.3246L24.2309 11.3146L24.2067 10.9276L24.1825 10.5407H24H23.8176V10.3582V10.1757L23.4291 10.1514L23.0405 10.1272V9.94539V9.76364H22.8547H22.6689V9.56094V9.35823H22.8547H23.0405V9.17242V8.98661H23.424H23.8075L23.8294 8.67735C23.8574 8.28249 23.8574 7.73127 23.8294 7.33641L23.8075 7.02715H22.4443H21.0811V7.41566V7.80418H20.8953H20.7095V7.41566V7.02715H20.527H20.3445L20.3202 6.63864L20.2959 6.25012H20.1153H19.9346L19.9251 5.85316L19.9155 5.45621L19.7409 5.4461L19.5663 5.43597L19.5424 5.06759L19.5185 4.69918L19.3285 4.68918L19.1385 4.67918L19.1284 4.50506L19.1183 4.3309L18.7315 4.30675L18.3446 4.28256V4.1058V3.92904L18.0659 3.90735C17.7821 3.88526 7.20432 3.88796 6.84966 3.91023ZM7.39865 4.88188V5.06769H7.02872H6.65878L6.64865 5.26195L6.63851 5.45621L6.44426 5.46634L6.25 5.47648V5.67749V5.8785H6.06753H5.88503L5.86078 6.26702L5.83649 6.65553H5.65473H5.47297V7.04404V7.43256H5.28716H5.10135V7.61837V7.80418H12.5H19.8986V7.61837V7.43256H19.7128H19.527V7.04573V6.65891L19.3328 6.64877L19.1385 6.63864L19.129 6.25857L19.1194 5.8785H18.9347H18.75V5.6758V5.4731H18.5473H18.3446V5.27039V5.06769H17.9561H17.5676V4.88188V4.69607H12.4831H7.39865V4.88188ZM1.95946 8.02377V8.20958H2.53378H3.10811V8.02377V7.83796H2.53378H1.95946V8.02377ZM21.8919 8.02377V8.20958H22.4662H23.0405V8.02377V7.83796H22.4662H21.8919V8.02377ZM4.30753 8.98502L4.28338 9.35509L4.0927 9.36509L3.90203 9.37512L3.89189 9.56938L3.88176 9.76364H3.69763H3.51351V10.1522V10.5407H3.90203H4.29054V10.7214V10.9022L4.5998 10.9241C4.76987 10.9362 5.03591 10.9461 5.19101 10.9461H5.47297V11.1319V11.3177H5.67568H5.87838V11.5204V11.7231H6.06419H6.25V11.9089V12.0947H6.4527H6.65541V12.2974V12.5001H9.18919H11.723V12.6842V12.8684L11.9172 12.8785L12.1115 12.8886L12.1216 13.0829L12.1318 13.2772H12.5017H12.8716V13.0744V12.8717H13.0743H13.277V12.6859V12.5001H15.8108H18.3446V12.2974V12.0947H18.5473H18.75V11.9089V11.7231H18.9358H19.1216V11.5204V11.3177H19.3243H19.527V11.1319V10.9461H19.809C19.9641 10.9461 20.2301 10.9362 20.4002 10.9241L20.7095 10.9022V10.7214V10.5407H21.098H21.4865V10.1522V9.76364H21.3024H21.1182L21.1081 9.56938L21.098 9.37512L20.9073 9.36509L20.7166 9.35509L20.6925 8.98502L20.6683 8.61499H12.5H4.33172L4.30753 8.98502ZM1.95946 11.1302V11.3143L1.7652 11.3244L1.57095 11.3346L1.56081 11.5288L1.55068 11.7231H1.36655H1.18243V11.9089V12.0947H1.36824H1.55405V12.2974V12.5001H3.31081H5.06757V12.2974V12.0947H4.88176H4.69595V11.9089V11.7231H4.10473H3.51351V11.5204V11.3177H3.125H2.73649V11.1319V10.9461H2.34797H1.95946V11.1302ZM22.2635 11.1319V11.3177H21.8767H21.4899L21.4797 11.5119L21.4696 11.7062L20.8868 11.7155L20.3041 11.7247V11.9097V12.0947H20.1182H19.9324V12.2974V12.5001H21.6892H23.4459V12.2974V12.0947H23.6318H23.8176V11.9089V11.7231H23.6334H23.4493L23.4392 11.5288L23.4291 11.3346L23.2348 11.3244L23.0405 11.3143V11.1302V10.9461H22.652H22.2635V11.1319ZM0.0163851 16.4022C0.0163851 18.7805 0.0204054 19.7485 0.0253378 18.5532C0.0302703 17.358 0.0302703 15.412 0.0253378 14.2289C0.0204054 13.0458 0.0163851 14.0238 0.0163851 16.4022ZM5.47297 13.0913V13.2772H3.125H0.777027V13.8515V14.4258L1.74831 14.4259C2.28253 14.426 2.98186 14.436 3.30236 14.4481L3.88513 14.4702V14.6507V14.8312H4.08784H4.29054V15.0339V15.2366H4.49324H4.69595V15.4207V15.6049L4.50169 15.615L4.30743 15.6251L4.2973 15.8194L4.28716 16.0136H4.10304H3.91892V15.8316V15.6495L3.51351 15.6251L3.10811 15.6008V15.4187V15.2366H2.53378H1.95946V15.6251V16.0136H2.16216H2.36486V16.1994V16.3853H3.3277H4.29054V16.7911V17.1969L3.11655 17.1881L1.94257 17.1792L1.93243 16.9849L1.9223 16.7907H1.73818H1.55405V16.6065V16.4224L1.3598 16.4123L1.16554 16.4022L1.15628 15.8194L1.14706 15.2366H0.962027H0.777027V16.4022V17.5677H0.97973H1.18243V17.7704V17.9731H1.36824H1.55405V18.1589V18.3447H3.125H4.69595V18.1589V17.9731H4.88007H5.06419L5.07432 17.7788L5.08446 17.5846L5.27872 17.5744L5.47297 17.5643V17.3842V17.2042L5.86149 17.1799L6.25 17.1556V16.9731V16.7907H12.5H18.75V16.9934V17.1961H18.9527H19.1554V17.3819V17.5677H19.3395H19.5236L19.5338 17.7619L19.5439 17.9562L19.7382 17.9663L19.9324 17.9765V18.1606V18.3447H21.6892H23.4459V18.1589V17.9731H23.6318H23.8176V17.7704V17.5677H24.0203H24.223V16.4022V15.2366H24.0372H23.8514V15.5186C23.8514 15.6737 23.8415 15.9397 23.8294 16.1098L23.8075 16.419H23.6284H23.4493L23.4392 16.6133L23.4291 16.8076L23.2348 16.8177L23.0405 16.8278V17.0119V17.1961H21.875H20.7095V16.7907V16.3853H21.6723H22.6351V16.1994V16.0136H22.8378H23.0405V15.6251V15.2366H22.4662H21.8919V15.4187V15.6008L21.4865 15.6251L21.0811 15.6495V15.8316V16.0136H20.897H20.7128L20.7027 15.8194L20.6926 15.6251L20.4983 15.615L20.3041 15.6049V15.4207V15.2366H20.4882H20.6723L20.6824 15.0424L20.6926 14.8481L20.9037 14.838L21.1149 14.828V14.6491V14.4702L21.6976 14.4481C22.0181 14.436 22.7175 14.426 23.2517 14.4259L24.223 14.4258V13.8515V13.2772H21.875H19.527V13.0913V12.9055H19.1385H18.75V13.0913V13.2772H16.2162H13.6824V13.4799V13.6826H13.4797H13.277V13.8853V14.088H13.0912H12.9054V14.2738V14.4596H12.5H12.0946V14.2738V14.088H11.9088H11.723V13.8853V13.6826H11.5203H11.3176V13.4799V13.2772H8.78378H6.25V13.0913V12.9055H5.86149H5.47297V13.0913ZM7.02703 17.7671V17.9327L6.63851 17.9569L6.25 17.9812V18.163V18.3447H12.5H18.75V18.1589V17.9731H18.3615H17.973V17.7873V17.6015H12.5H7.02703V17.7671ZM0.777027 19.5221V19.9326H0.962838H1.14865V20.1184V20.3042H2.73649H4.32432V20.1184V19.9326H4.49324H4.66216V19.544V19.1555H3.02885C2.13051 19.1555 1.25635 19.1457 1.08628 19.1336L0.777027 19.1116V19.5221ZM22.0861 19.1471L20.3378 19.1561V19.5443V19.9326H20.5068H20.6757V20.1184V20.3042H22.2635H23.8514V20.1184V19.9326H24.0372H24.223V19.5272V19.1217L24.0287 19.1299C23.9219 19.1343 23.0477 19.1421 22.0861 19.1471Z" fill="#26A387"/>
<path fill-rule="evenodd" clip-rule="evenodd" d="M7.02703 4.10476V4.29057H6.63851H6.25V4.49327V4.69597H6.0473H5.84459V4.88178V5.06759H5.66284H5.48108L5.45689 5.45445L5.43274 5.84131L5.25858 5.85141L5.08446 5.86151L5.0749 6.24158L5.06534 6.62165H4.88064H4.69595V7.00847V7.3953L4.50169 7.40543L4.30743 7.41557L4.29733 7.62834L4.28723 7.84114L4.09463 7.83104L3.90203 7.82097L3.89253 7.44584L3.88301 7.0707L3.60537 7.04908C3.24581 7.02107 1.82105 7.02114 1.46115 7.04915L1.18243 7.07084V8.00678V8.94273L1.46115 8.96442C1.61446 8.97634 1.96412 8.98621 2.23818 8.98631L2.73649 8.98651V9.37503V9.76354H2.34797H1.95946V9.96624V10.1689H1.75676H1.55405V10.3548V10.5406H1.36824H1.18243V10.7433V10.946H0.97973H0.777027V11.3345V11.723H0.59527H0.413513L0.389223 12.1115L0.364966 12.5H0.182466H0V16.4021V20.3041H0.184122H0.368243L0.378378 20.4983L0.388514 20.6926L0.58277 20.7027L0.777027 20.7129V20.897V21.0811H2.73649H4.69595V20.8953V20.7095H4.88176H5.06757V20.5068V20.3041H5.27027H5.47297V19.7129V19.1216H12.5H19.527V19.7112V20.3007L19.7213 20.3108L19.9155 20.321L19.9257 20.5152L19.9358 20.7095H20.1199H20.3041V20.8953V21.0811H22.2635H24.223V20.8953V20.7095H24.4071H24.5912L24.6014 20.5152L24.6115 20.321L24.8142 20.3041L25.0169 20.2872L25.0255 16.3852L25.0342 12.4831L24.8144 12.4945L24.5946 12.5058V12.1144V11.723H24.4088H24.223V11.3345V10.946H24.0203H23.8176V10.7433V10.5406H23.6318H23.4459V10.3548V10.1689H23.2432H23.0405V9.96624V9.76354H22.652H22.2635V9.37503V8.98651L22.7618 8.98631C23.0359 8.98621 23.3855 8.97634 23.5389 8.96442L23.8176 8.94273V8.00678V7.07084L23.5389 7.04915C23.179 7.02114 21.7542 7.02107 21.3946 7.04908L21.117 7.0707L21.1075 7.44584L21.098 7.82097L20.9054 7.83104L20.7128 7.84114L20.7027 7.62834L20.6926 7.41557L20.4983 7.40543L20.3041 7.3953V7.00847V6.62165H20.1216H19.9391L19.9148 6.23313L19.8905 5.84462H19.7088H19.527V5.45611V5.06759H19.3243H19.1216V4.88178V4.69597H18.9358H18.75V4.49327V4.29057H18.3615H17.973V4.10476V3.91895H12.5H7.02703V4.10476ZM7.02703 4.88178V5.06759H6.63851H6.25V5.2703V5.473H6.06753H5.88503L5.86078 5.86151L5.83649 6.25003H5.65581H5.4751L5.46561 6.64699L5.45608 7.04395L5.28355 7.05398L5.11098 7.06405L5.08929 7.3209C5.07733 7.46219 5.06757 7.62871 5.06757 7.69094V7.80408H12.5H19.9324V7.69094C19.9324 7.62871 19.9227 7.46219 19.9107 7.3209L19.889 7.06405L19.7165 7.05398L19.5439 7.04395L19.5344 6.64699L19.5249 6.25003H19.3442H19.1635L19.1392 5.86151L19.115 5.473H18.9325H18.75V5.2703V5.06759H18.3615H17.973V4.88178V4.69597H12.5H7.02703V4.88178ZM1.95946 8.19259V8.58111H2.55068H3.14189V8.19259V7.80408H2.55068H1.95946V8.19259ZM21.8581 8.19259V8.58111H22.4493H23.0405V8.19259V7.80408H22.4493H21.8581V8.19259ZM4.29054 8.78381V8.98651H4.10473H3.91892V9.17232V9.35813H3.71622H3.51351V9.56084V9.76354H3.31081H3.10811V10.151V10.5384L3.50507 10.5479L3.90203 10.5575L3.91216 10.7517L3.9223 10.946H4.30912H4.69595V11.1318V11.3176L4.99155 11.3178C5.15416 11.3179 5.4126 11.3278 5.56588 11.3397L5.84459 11.3614V11.5422V11.723H6.0473H6.25V11.9257V12.1284H6.43581H6.62162V12.3142V12.5H9.15372H11.6858L11.6959 12.6943L11.7061 12.8885L11.9003 12.8987L12.0946 12.9088V13.0929V13.2771H12.5H12.9054V13.0929V12.9088L13.0997 12.8987L13.2939 12.8885L13.3041 12.6943L13.3142 12.5H15.8463H18.3784V12.3142V12.1284H18.5642H18.75V11.9257V11.723H18.9527H19.1554V11.5422V11.3614L19.4341 11.3397C19.5874 11.3278 19.8459 11.3179 20.0084 11.3178L20.3041 11.3176V11.1318V10.946H20.6909H21.0777L21.0878 10.7517L21.098 10.5575L21.4949 10.5479L21.8919 10.5384V10.151V9.76354H21.6892H21.4865V9.56084V9.35813H21.2838H21.0811V9.17232V8.98651H20.8953H20.7095V8.78381V8.58111H12.5H4.29054V8.78381ZM1.7652 10.935L1.55405 10.9492V11.1503V11.3514H1.37324H1.19243L1.17125 11.6263C1.15959 11.7775 1.15959 12.0359 1.17128 12.2006L1.19253 12.5H3.14696H5.10135L5.10115 12.3902C5.10105 12.3298 5.09118 12.155 5.07926 12.0017L5.05757 11.723H4.67405H4.29054V11.5422V11.3614L4.01182 11.3397C3.85855 11.3278 3.6001 11.3179 3.4375 11.3178L3.14189 11.3176V11.1318V10.946H2.85993C2.70483 10.946 2.4426 10.9403 2.27716 10.9334C2.11172 10.9264 1.88135 10.9272 1.7652 10.935ZM22.2551 10.9374L21.8581 10.9481V11.1329V11.3176L21.5625 11.3178C21.3999 11.3179 21.1415 11.3278 20.9882 11.3397L20.7095 11.3614V11.5422V11.723H20.3259H19.9424L19.9207 12.0017C19.9088 12.155 19.899 12.3298 19.8988 12.3902L19.8986 12.5H21.8581H23.8176V11.9257V11.3514H23.6318H23.4459V11.1537V10.9561L23.1367 10.9341C22.9666 10.9221 22.788 10.9155 22.7397 10.9195C22.6915 10.9234 22.4734 10.9315 22.2551 10.9374ZM0.0163513 16.4021C0.0163176 18.5575 0.0203716 19.4442 0.0253378 18.3726C0.0302703 17.3009 0.0302703 15.5374 0.0253378 14.4536C0.0203716 13.3699 0.0163513 14.2466 0.0163513 16.4021ZM0.777027 13.6656V14.4595H2.14527H3.51351V14.642V14.8245L3.90203 14.8487L4.29054 14.873V15.2406V15.6081H3.90203H3.51351V15.4223V15.2365H2.73649H1.95946V15.8058V16.3752L2.23818 16.3969C2.39145 16.4088 2.91598 16.4186 3.40372 16.4187L4.29054 16.4189V16.7855V17.1521L3.98128 17.174C3.81122 17.1861 3.50949 17.196 3.31081 17.196C3.11213 17.196 2.81041 17.1861 2.64034 17.174L2.33108 17.1521V16.9713V16.7906H1.94257H1.55405V16.4021V16.0135H1.36824H1.18243V15.625V15.2365H0.97973H0.777027V16.6048V17.973H0.97973H1.18243V18.1538V18.3346L1.46115 18.3563C1.61446 18.3682 2.36318 18.378 3.125 18.378C3.88682 18.378 4.63557 18.3682 4.78885 18.3563L5.06757 18.3346V18.1538V17.973H5.27027H5.47297V17.7703V17.5676H5.65878H5.84459V17.3818V17.196H6.23142H6.61824L6.62838 17.0017L6.63851 16.8075L12.1115 16.7972C15.1216 16.7915 17.7555 16.7969 17.9645 16.809L18.3446 16.831V17.0135V17.196H18.7314H19.1182L19.1284 17.3902L19.1385 17.5845L19.3328 17.5946L19.527 17.6048V17.7889V17.973H19.7111H19.8953L19.9054 18.1673L19.9155 18.3615L21.4865 18.3719C22.3505 18.3776 23.2285 18.3723 23.4375 18.3601L23.8176 18.338V18.1555V17.973H24.0203H24.223V16.6048V15.2365H24.0203H23.8176V15.625V16.0135H23.6318H23.4459V16.4021V16.7906H23.0574H22.6689V16.9713V17.1521L22.3597 17.174C21.9648 17.2021 21.4136 17.2021 21.0187 17.174L20.7095 17.1521V16.7855V16.4189L21.5963 16.4187C22.0841 16.4186 22.6085 16.4088 22.7618 16.3969L23.0405 16.3752V15.8058V15.2365H22.2635H21.4865V15.4223V15.6081H21.098H20.7095V15.2406V14.873L21.098 14.8487L21.4865 14.8245V14.642V14.4595H22.8547H24.223V13.6656V12.8716L24.1132 12.8719C24.0528 12.872 23.878 12.8818 23.7247 12.8937L23.4459 12.9154V13.0962V13.2771H21.5051H19.5642L19.5541 13.0828L19.5439 12.8885L19.147 12.879L18.75 12.8695V13.0733V13.2771H16.1993H13.6486V13.4629V13.6487H13.4628H13.277V13.8514V14.0541H13.0743H12.8716V14.2399V14.4257H12.5H12.1284V14.2399V14.0541H11.9257H11.723V13.8514V13.6487H11.5372H11.3514V13.4629V13.2771H8.80068H6.25V13.0733V12.8695L5.85304 12.879L5.45608 12.8885L5.44595 13.0828L5.43581 13.2771H3.30912H1.18243V13.0744V12.8716H0.97973H0.777027V13.6656ZM6.44426 17.5926L6.25 17.6048V17.7889V17.973H6.0473H5.84459V18.1537V18.3345L6.15385 18.3564C6.32392 18.3685 9.22763 18.3784 12.6066 18.3784H18.75V18.1774V17.9764L18.5557 17.9662L18.3615 17.9561L18.3514 17.7619L18.3412 17.5676L12.4899 17.574C9.27162 17.5775 6.55108 17.5859 6.44426 17.5926ZM0.777027 19.5271V20.3041H2.73649H4.69595V19.7129V19.1216H3.125H1.55405V18.9358V18.75H1.16554H0.777027V19.5271ZM23.4459 18.9358V19.1216H21.875H20.3041V19.7129V20.3041H22.2635H24.223V19.5271V18.75H23.8345H23.4459V18.9358Z" fill="#26A387"/>
</g>
<defs>
<clipPath id="clip0_338_8803">
<rect width="25" height="25" fill="white"/>
</clipPath>
</defs>
</svg>
