<svg width="25" height="25" viewBox="0 0 25 25" fill="none" xmlns="http://www.w3.org/2000/svg">
<g clip-path="url(#clip0_338_8839)">
<path fill-rule="evenodd" clip-rule="evenodd" d="M6.62162 0.185811V0.371622H6.43581H6.25V1.14358V1.91557L5.94074 1.9375C5.77068 1.94959 5.3298 1.95946 4.96101 1.95946H4.29054V2.14527V2.33108H3.90203H3.51351V2.53378V2.73649H3.3327H3.15189L3.1302 3.0152C3.11828 3.16848 3.10841 3.60939 3.10831 3.99493L3.10811 4.69595H1.94257H0.777027V4.88176V5.06757H0.388514H0V7.98486V10.9022L0.278716 10.9239C0.432027 10.9358 0.872872 10.9456 1.25845 10.9457L1.95946 10.9459V10.7432V10.5405H2.1402H2.32098L2.34291 10.2313C2.355 10.0612 2.36487 9.0024 2.36487 7.87838V5.8347L2.62334 5.85652C2.76551 5.86855 2.93274 5.87838 2.99497 5.87838H3.10811V7.43243V8.98649H3.51351H3.91892V6.06824V3.15L4.30743 3.12571L4.69595 3.10145V2.91895V2.73649H12.5H20.3041V2.91895V3.10145L20.6926 3.12571L21.0811 3.15V10.173V17.1959H19.7297H18.3784V17.3818V17.5676H18.1797H17.9811L17.9568 17.9561L17.9325 18.3446H17.75H17.5676V18.7331V19.1216H17.3818H17.1959V19.7078V20.294L17.5052 20.3159C17.6753 20.328 18.5494 20.3378 19.4478 20.3378H21.0811V20.9122V21.4865H20.8784H20.6757V21.6723V21.8581H12.4831H4.29054V21.6723V21.4865H4.10473H3.91892V20.9122V20.3378H5.55223C6.45057 20.3378 7.32473 20.328 7.4948 20.3159L7.80405 20.294V19.7247V19.1554H7.61824H7.43243V18.75V18.3446H7.24997H7.06747L7.04321 17.9561L7.01892 17.5676H6.63446H6.25V17.3818V17.1959H5.08463H3.91922L3.91064 13.674L3.90203 10.152L3.50497 10.1425L3.10791 10.133L3.11645 16.004L3.125 21.875L3.31926 21.8851L3.51351 21.8953V22.0794V22.2635H3.71622H3.91892V22.4662V22.6689H4.10473H4.29054V23.4459V24.223H4.47466H4.65878L4.66892 24.4172L4.67905 24.6115L4.87331 24.6216L5.06757 24.6318V24.8159V25H7.02703H8.98649V24.8159V24.6318L9.18074 24.6216L9.375 24.6115L9.38514 24.4172L9.39527 24.223H9.57939H9.76351V23.4459V22.6689H12.5H15.2365V23.4459V24.223H15.4206H15.6047L15.6149 24.4172L15.625 24.6115L15.8193 24.6216L16.0135 24.6318V24.8159V25H17.973H19.9324V24.8159V24.6318L20.1267 24.6216L20.3209 24.6115L20.3311 24.4172L20.3412 24.223H20.5253H20.7095V23.4459V22.6689H20.8953H21.0811V22.4662V22.2635H21.2838H21.4865V22.0794V21.8953L21.6807 21.8851L21.875 21.875L21.8835 13.8817L21.892 5.88838L22.1707 5.86669C22.3239 5.85476 22.4911 5.8449 22.5422 5.8448L22.6351 5.84459V7.88331C22.6351 9.00463 22.645 10.0612 22.6571 10.2313L22.679 10.5405H22.8598H23.0405V10.7476V10.9546L23.996 10.9399C24.5216 10.9319 24.97 10.9138 24.9927 10.8998C25.0245 10.8802 25.0338 10.214 25.0339 7.96253L25.0339 5.05068L24.6284 5.06111L24.223 5.07155V4.88375V4.69595H23.0574H21.8919L21.8917 3.99493C21.8916 3.60939 21.8817 3.16848 21.8698 3.0152L21.8481 2.73649H21.6673H21.4865V2.53378V2.33108H21.098H20.7095V2.14527V1.95946H20.039C19.6702 1.95946 19.2293 1.94959 19.0593 1.9375L18.75 1.91557V1.14358V0.371622H18.5473H18.3446V0.185811V0H12.4831H6.62162V0.185811ZM7.24132 0.801318L7.0671 0.814122L7.04443 1.15875C7.03193 1.34831 7.02672 1.6022 7.03284 1.72297L7.04392 1.94257H12.5H17.9561L17.9506 1.39095C17.9476 1.08757 17.935 0.829122 17.9225 0.816622C17.8991 0.793243 7.55307 0.778412 7.24132 0.801318ZM6.25 3.90203V4.29054H6.63851H7.02703V3.90203V3.51351H6.63851H6.25V3.90203ZM8.20946 3.90203V4.29054H12.5H16.7905V3.90203V3.51351H12.5H8.20946V3.90203ZM17.973 3.90203V4.29054H18.3615H18.75V3.90203V3.51351H18.3615H17.973V3.90203ZM5.47297 4.88176V5.06757H5.08446H4.69595V5.27027V5.47297H4.49324H4.29054V9.76351V14.0541H4.4723H4.65405L4.67804 14.4378L4.70203 14.8215L4.9777 14.843C5.33774 14.871 19.6623 14.871 20.0223 14.843L20.298 14.8215L20.322 14.4378L20.3459 14.0541H20.5277H20.7095L20.7093 10.0422C20.7092 7.83574 20.6994 5.90571 20.6875 5.75328L20.6659 5.47615L20.4934 5.46611L20.3209 5.45608L20.3108 5.26182L20.3007 5.06757H19.9139H19.527V4.88176V4.69595H12.5H5.47297V4.88176ZM0.0161486 7.98986C0.0161486 9.60642 0.0202703 10.2727 0.0253378 9.47044C0.0303716 8.66821 0.0303716 7.34557 0.0253378 6.53125C0.0203041 5.71693 0.0161486 6.37331 0.0161486 7.98986ZM0.801081 5.86561C0.787838 5.87882 0.777027 6.84486 0.777027 8.0124V10.1351H0.979966H1.18294L1.17422 7.99831L1.16554 5.86149L0.995338 5.85152C0.901689 5.84605 0.814291 5.85236 0.801081 5.86561ZM5.47297 9.94932V14.0541H12.5H19.527V9.94932V5.84459H12.5H5.47297V9.94932ZM23.8416 5.86561C23.8284 5.87882 23.8176 6.84486 23.8176 8.0124V10.1351H24.0205H24.2235L24.2148 7.99831L24.2061 5.86149L24.0359 5.85152C23.9422 5.84605 23.8548 5.85236 23.8416 5.86561ZM8.58108 16.1953V16.377L8.19257 16.4013L7.80405 16.4256V16.8108V17.1959H7.9848H8.16558L8.1875 17.5052C8.1996 17.6753 8.20946 17.9337 8.20946 18.0795V18.3446H8.39419H8.57895L8.58845 18.7416L8.59797 19.1385L8.79223 19.1486L8.98649 19.1588V19.5456V19.9324H9.1723H9.35811V20.1132V20.294L9.66737 20.3159C10.07 20.3445 14.93 20.3445 15.3326 20.3159L15.6419 20.294V20.1132V19.9324H15.8277H16.0135V19.5456V19.1588L16.2078 19.1486L16.402 19.1385L16.4116 18.7416L16.421 18.3446H16.6058H16.7905L16.7907 18.049C16.7908 17.8864 16.8007 17.628 16.8126 17.4747L16.8343 17.1959H17.0151H17.1959V16.8115V16.427L16.8074 16.4027L16.4189 16.3785V16.196V16.0135H15.625H14.8311V16.1993V16.3851H14.6473C14.5461 16.3851 14.4537 16.4009 14.4418 16.4202C14.4299 16.4394 14.4309 16.6219 14.4442 16.8256L14.4681 17.1959H15.2408H16.0135V17.3986V17.6014H15.8327H15.6519L15.6302 17.8801C15.6183 18.0334 15.6084 18.2918 15.6083 18.4544L15.6081 18.75H15.4223H15.2365V19.1385V19.527H12.5H9.76351V19.1385V18.75H9.5777H9.39189L9.39169 18.4544C9.39159 18.2918 9.38172 18.0334 9.3698 17.8801L9.34811 17.6014H9.1673H8.98649V17.3986V17.1959H11.1318H13.277V16.9932V16.7905H13.4797H13.6824V16.6064V16.4223L13.4882 16.4122L13.2939 16.402L13.2838 16.2078L13.2736 16.0135H10.9274H8.58108V16.1953ZM10.7517 17.9642L10.5405 17.9762V18.3631V18.75H12.5H14.4595V18.3666V17.9831L14.1502 17.9611C13.8407 17.9392 11.1496 17.9416 10.7517 17.9642ZM3.91892 18.9358V19.527H5.27027H6.62162V19.1385V18.75H6.43581H6.25V18.5473V18.3446H5.08446H3.91892V18.9358ZM18.75 18.5473V18.75H18.5642H18.3784V19.1385V19.527H19.7297H21.0811V18.9358V18.3446H19.9155H18.75V18.5473ZM5.10135 23.0574V23.4459H5.26693H5.43253L5.45679 23.8345L5.48108 24.223H7.02574H8.57044L8.59257 23.6402C8.6047 23.3197 8.6147 22.97 8.61476 22.8632L8.61487 22.6689H6.85811H5.10135V23.0574ZM16.3851 23.1367C16.3851 23.394 16.395 23.7436 16.4071 23.9137L16.429 24.223H17.974H19.5189L19.5432 23.8345L19.5675 23.4459H19.7331H19.8986V23.0574V22.6689H18.1419H16.3851V23.1367Z" fill="#26A387"/>
<path fill-rule="evenodd" clip-rule="evenodd" d="M7.02703 0.184122V0.368243L6.83277 0.378378L6.63851 0.388514L6.62838 0.58277L6.61824 0.777027H6.43412H6.25V1.36824V1.95946H5.47297H4.69595V2.14419V2.32895L4.29899 2.33845L3.90203 2.34797L3.89189 2.54223L3.88176 2.73649H3.69764H3.51351V2.93919V3.14189H3.3277H3.14189V4.10436V5.06682L1.7652 5.07564L0.388514 5.08446L0.378378 5.27872L0.368243 5.47297H0.184122H0V8.00676V10.5405H0.202703H0.405405V10.7264V10.9122H0.977973H1.55051L1.56074 10.7348L1.57095 10.5574L1.7652 10.5473L1.95946 10.5372V8.20946V5.88176L2.15372 5.87162L2.34797 5.86149L2.35811 5.66723L2.36824 5.47297H2.73318H3.09811L3.1198 5.75169C3.13172 5.90497 3.14159 6.69554 3.14169 7.50845L3.14189 8.98649H3.3277H3.51351V8.80068V8.61486H3.69932H3.88514V6.17074C3.88514 4.82645 3.895 3.58743 3.90709 3.41736L3.92902 3.10811H4.1098H4.29054V2.9223V2.73649H12.5H20.7095V2.9223V3.10811H20.8902H21.071L21.0929 3.41736C21.105 3.58743 21.1149 6.84064 21.1149 10.6467V17.5668L19.7382 17.5756L18.3615 17.5845L18.3514 17.7787L18.3412 17.973H18.1571H17.973V18.3615V18.75H17.7703H17.5676V19.1385V19.527H17.3818H17.1959V19.7128V19.8986H17.3818H17.5676V20.1014V20.3041H19.3412H21.1149V20.8953V21.4865H20.9122H20.7095V21.6892V21.8919H12.5H4.29054V21.6892V21.4865H4.08784H3.88514V20.8953V20.3041H5.65878H7.43243V20.1014V19.8986H7.61824H7.80405V19.7128V19.527H7.62159H7.43909L7.41483 19.1385L7.39054 18.75H7.20878H7.02703V18.3615V17.973H6.84291H6.65878L6.64865 17.7787L6.63851 17.5845L5.26182 17.5756L3.88514 17.5668V14.0537V10.5405H3.69932H3.51351V10.3547V10.1689H3.3277H3.14189V15.8277V21.4865H3.3277H3.51351V21.875V22.2635H3.90203H4.29054V22.4662V22.6689H4.47635H4.66216L4.66226 23.049C4.66233 23.258 4.6723 23.6906 4.68443 24.0103L4.70645 24.5915L4.89547 24.6015L5.08446 24.6115L5.09459 24.8057L5.10473 25H6.8598H8.61487V24.8179V24.6358L8.98129 24.6118L9.34774 24.5879L9.3697 24.0085C9.38179 23.6898 9.39172 23.2603 9.39179 23.054L9.39189 22.6789L9.67061 22.6572C10.0337 22.629 14.9663 22.629 15.3294 22.6572L15.6081 22.6789L15.6082 23.054C15.6083 23.2603 15.6182 23.6898 15.6303 24.0085L15.6523 24.5879L16.0187 24.6118L16.3851 24.6358V24.8179V25H18.1419H19.8986V24.7973V24.5946H20.096H20.2934L20.3155 24.0118C20.3277 23.6913 20.3377 23.2588 20.3377 23.0507L20.3378 22.6725L20.5152 22.6622L20.6926 22.652L20.7027 22.4578L20.7128 22.2635H21.0794H21.446L21.4703 21.875L21.4946 21.4865H21.6764H21.8581L21.8583 13.7584C21.8584 9.50804 21.8683 5.90497 21.8802 5.75169L21.9019 5.47297H22.2668H22.6318L22.6419 5.66723L22.652 5.86149L22.8463 5.87162L23.0405 5.88176V8.20946V10.5372L23.2348 10.5473L23.4291 10.5574L23.4393 10.7348L23.4495 10.9122H24.022H24.5946V10.728V10.5437L24.8057 10.5337L25.0169 10.5236L25.0256 7.98986L25.0343 5.45608L24.8331 5.46743L24.6319 5.47878L24.6217 5.28162L24.6115 5.08446L23.2348 5.07564L21.8581 5.06682V4.10436V3.14189H21.6723H21.4865V2.93919V2.73649H21.3024H21.1182L21.1081 2.54223L21.098 2.34797L20.701 2.33845L20.3041 2.32895V2.14419V1.95946H19.527H18.75V1.36824V0.777027H18.5659H18.3818L18.3716 0.58277L18.3615 0.388514L18.1672 0.378378L17.973 0.368243V0.184122V0H12.5H7.02703V0.184122ZM7.02703 1.16554V1.55405H6.84122H6.65541V1.73486V1.91568L6.93412 1.93736C7.29794 1.96568 17.7021 1.96568 18.0659 1.93736L18.3446 1.91568V1.73486V1.55405H18.1588H17.973V1.16554V0.777027H12.5H7.02703V1.16554ZM6.25 3.90203V4.29054H6.43581H6.62162V3.90203V3.51351H6.43581H6.25V3.90203ZM8.20946 3.69932V3.88513H8.39527H8.58108V4.08784V4.29054H12.5H16.4189V4.08784V3.88513H16.6047H16.7905V3.69932V3.51351H12.5H8.20946V3.69932ZM18.3448 3.62331C18.3449 3.68368 18.3548 3.85855 18.3667 4.01182L18.3884 4.29054H18.5692H18.75V3.90203V3.51351H18.5473H18.3446L18.3448 3.62331ZM4.8902 5.09253L4.69595 5.10473V9.78209V14.4595H4.88176H5.06757V14.6453V14.8311H12.4831H19.8986V14.6453V14.4595H20.1014H20.3041V9.78541V5.11135L20.0253 5.08966C19.7413 5.06757 5.24446 5.0703 4.8902 5.09253ZM0.0160473 8.00676C0.0160473 9.40963 0.0202365 9.98355 0.0253378 9.28209C0.0304392 8.58068 0.0304392 7.43287 0.0253378 6.73142C0.0202365 6.03 0.0160473 6.60388 0.0160473 8.00676ZM0.777027 7.82095V10.1689H1.16554H1.55405V8.00676V5.84459H1.36824H1.18243V5.65878V5.47297H0.97973H0.777027V7.82095ZM5.47297 5.65709V5.84122L5.27872 5.85135L5.08446 5.86149L5.07588 9.95777L5.0673 14.0541H12.4796H19.8919L19.914 13.6402C19.9262 13.4126 19.9315 11.5693 19.9258 9.54392L19.9155 5.86149L19.7213 5.85135L19.527 5.84122V5.65709V5.47297H12.5H5.47297V5.65709ZM23.8176 5.65878V5.84459H23.6318H23.4459V8.00676V10.1689H23.8345H24.223V7.82095V5.47297H24.0203H23.8176V5.65878ZM8.20946 17.1959V17.973H8.39193H8.57443L8.59868 18.3615L8.62297 18.75H8.80473H8.98649V19.1385V19.527H9.16895H9.35145L9.37571 19.9155L9.4 20.3041H12.5H15.6L15.6243 19.9155L15.6485 19.527H15.831H16.0135V19.1385V18.75H16.1953H16.377L16.4013 18.3615L16.4256 17.973H16.6081H16.7905V17.1959V16.4189H15.625H14.4595V16.6047V16.7905H15.2365H16.0135V17.3818V17.973H15.8277H15.6419L15.6417 18.2686C15.6416 18.4312 15.6317 18.6896 15.6198 18.8429L15.5981 19.1216H15.4173H15.2365V19.3243V19.527H12.5H9.76351V19.3243V19.1216H9.5827H9.40189L9.3802 18.8429C9.36828 18.6896 9.35841 18.4312 9.35831 18.2686L9.35811 17.973H9.1723H8.98649V17.3818V16.7905H11.1318H13.277V16.6047V16.4189H10.7432H8.20946V17.1959ZM3.90723 18.2517C3.8953 18.405 3.88544 18.7547 3.88534 19.0287L3.88514 19.527H5.45608H7.02703V19.3412V19.1554H6.84497H6.66287L6.63851 18.75L6.61416 18.3446H6.43206H6.25V18.1588V17.973H5.08946H3.92892L3.90723 18.2517ZM10.5405 18.1757V18.3784H10.7264H10.9122V18.5642V18.75H12.5H14.0878V18.5659V18.3819L14.2652 18.3717L14.4426 18.3615L14.4527 18.1672L14.4628 17.973H12.5017H10.5405V18.1757ZM18.75 18.1571V18.3412L18.5557 18.3514L18.3615 18.3615L18.352 18.7584L18.3425 19.1554H18.1577H17.973V19.3412V19.527H19.5439H21.1149L21.1147 19.0287C21.1146 18.7547 21.1047 18.405 21.0928 18.2517L21.0711 17.973H19.9105H18.75V18.1571ZM5.27872 22.6601L5.06757 22.6721L5.06777 23.1688C5.06787 23.442 5.07774 23.7909 5.08966 23.9443L5.11135 24.223H6.86311H8.61487V24.0372V23.8514H8.80068H8.98649V23.2652V22.679L8.67723 22.6571C8.36777 22.6351 5.67666 22.6375 5.27872 22.6601ZM16.2247 22.6601L16.0135 22.6721V23.2618V23.8514H16.1993H16.3851V24.0372V24.223H18.1368H19.8885L19.9105 23.9137C19.9226 23.7436 19.9324 23.3962 19.9324 23.1418V22.679L19.6232 22.6571C19.3137 22.6351 16.6226 22.6375 16.2247 22.6601Z" fill="#26A387"/>
</g>
<defs>
<clipPath id="clip0_338_8839">
<rect width="25" height="25" fill="white"/>
</clipPath>
</defs>
</svg>
