<svg width="25" height="25" viewBox="0 0 25 25" fill="none" xmlns="http://www.w3.org/2000/svg">
<path fill-rule="evenodd" clip-rule="evenodd" d="M3.88545 5.86166V6.25017H4.29086H4.69626V5.86166V5.47314H4.29086H3.88545V5.86166ZM5.47329 5.86166V6.25017H7.04424H8.61518V5.86166V5.47314H7.04424H5.47329V5.86166ZM0.777344 7.43294V7.83869L2.33984 7.8299L3.90234 7.82112L3.91187 7.42416L3.92136 7.0272H2.34937H0.777344V7.43294ZM5.47329 7.4326V7.83801H6.25032H7.02734V7.4326V7.0272H6.25032H5.47329V7.4326ZM8.58876 7.42416L8.59829 7.82112H9.76383H10.9294L10.9389 7.42416L10.9484 7.0272H9.76383H8.57927L8.58876 7.42416ZM0.777344 14.0542V19.5272H12.5003H24.2233V19.1387V18.7502H21.8753H19.5273V18.3617V17.9731H21.2841H23.0409V17.789V17.6049L23.2351 17.5948L23.4294 17.5846L23.4394 17.392L23.4495 17.1994L23.6421 17.1893L23.8348 17.1792L23.8449 16.985L23.855 16.7907H24.0392H24.2233V15.6269V14.463L24.029 14.4529L23.8348 14.4427L23.8246 14.2485L23.8145 14.0542H23.6321H23.4496L23.4395 13.86L23.4294 13.6657L23.2351 13.6556L23.0409 13.6454V13.4613V13.2772H22.6523H22.2638V13.0947V12.9122L21.8753 12.888L21.4868 12.8637V12.6819V12.5002H21.1H20.7132L20.703 12.3059L20.6929 12.1117L20.3128 12.1021L19.9327 12.0925V11.9089V11.7253L19.5358 11.7158L19.1388 11.7063L19.1287 11.512L19.1186 11.3177H18.7317H18.3449V11.1353V10.9528L17.9564 10.9285L17.5679 10.9042V10.7225V10.5407H17.1794H16.7909V10.3582V10.1757L16.4023 10.1515L16.0138 10.1272V9.94544V9.76369H15.6253H15.2368V9.58122V9.39872L14.8483 9.37446L14.4598 9.35017V9.16842V8.98666H13.8686H13.2773V8.80585V8.62504L12.9986 8.60335C12.8453 8.59142 10.0329 8.58156 6.74863 8.58146L0.777344 8.58125V14.0542ZM1.58815 10.1473V10.9025L2.33295 10.9202C2.74261 10.93 3.0866 10.9468 3.09738 10.9576C3.13059 10.9908 3.15295 12.4599 3.1266 12.8802L3.10177 13.2772H2.34495H1.58815V13.6657V14.0542H5.28748H8.9868V12.2975V10.5407H9.17261H9.35842V10.36V10.1792L9.66768 10.1573C10.0632 10.1292 11.0831 10.1293 11.4446 10.1574L11.7233 10.1791V10.3582V10.5373L11.9175 10.5475L12.1118 10.5576L12.1206 12.3059L12.1293 14.0542H14.0716H16.0138V14.4596V14.865H14.0713H12.1287L12.1285 15.1606C12.1284 15.3232 12.1185 15.5817 12.1066 15.735L12.0849 16.0137H11.9041H11.7233V16.2168V16.42L10.5493 16.4111L9.37532 16.4022L9.36518 16.2079L9.35505 16.0137H9.17093H8.9868V15.4394V14.865H5.28748H1.58815V16.0137V17.1623H11.926H22.2638V16.9765V16.7907H22.6523H23.0409V16.4022V16.0137H23.2267H23.4125V15.6252V15.2367H23.2267H23.0409V15.0508V14.865H19.9159H16.7909V14.4596V14.0542H19.1388H21.4868V13.8684V13.6826H21.1H20.7132L20.703 13.4883L20.6929 13.2941L17.5763 13.2855L14.4598 13.2769V13.0912V12.9056H14.2571H14.0544V12.7029V12.5002H13.6659H13.2773V12.1117V11.7231H13.0746H12.8719V11.5204V11.3177H12.6861H12.5003V10.5407V9.76369H12.2976H12.0949V9.57787V9.39206H6.84153H1.58815V10.1473ZM13.3111 10.1522V10.5407H13.4969H13.6827V10.9292V11.3177H13.8669H14.051L14.0611 11.512L14.0713 11.7063L14.2655 11.7164L14.4598 11.7265V11.9106V12.0948H14.8483H15.2368V12.2975V12.5002H16.7909H18.3449V12.3177V12.1352L17.9564 12.1109L17.5679 12.0867V11.9049V11.7231H17.1794H16.7909V11.5407V11.3582L16.4023 11.3339L16.0138 11.3096V11.1279V10.9461H15.6253H15.2368V10.7434V10.5407H14.8483H14.4598V10.3549V10.1691H14.0544H13.649V9.96639V9.76369H13.48H13.3111V10.1522ZM3.72498 10.9352L3.51383 10.9493V12.1133V13.2772H4.67603H5.83826L5.86309 12.8802C5.89035 12.445 5.86657 10.9903 5.83167 10.9554C5.80684 10.9305 4.04674 10.9137 3.72498 10.9352ZM6.46146 10.9351L6.25032 10.9493V12.1133V13.2772H7.41251H8.57474L8.59957 12.8802C8.6265 12.4505 8.60326 10.9905 8.56896 10.9562C8.54454 10.9318 6.77386 10.9141 6.46146 10.9351ZM10.1355 11.1319V11.3177H9.94964H9.76383V12.686V14.0542H10.5409H11.3179V12.686V11.3177H11.1321H10.9463V11.1319V10.9461H10.5409H10.1355V11.1319ZM1.58815 12.1117V12.5002H1.95978H2.3314V12.1117V11.7231H1.95978H1.58815V12.1117ZM4.29086 12.1117V12.5002H4.67937H5.06788V12.1117V11.7231H4.67937H4.29086V12.1117ZM7.02734 12.1117V12.5002H7.41586H7.80437V12.1117V11.7231H7.41586H7.02734V12.1117ZM9.76383 15.0508V15.2367H9.94964H10.1355V15.4225V15.6083H10.5409H10.9463V15.4225V15.2367H11.1321H11.3179V15.0508V14.865H10.5409H9.76383V15.0508ZM1.95978 18.1573V18.3414L2.15403 18.3515L2.34829 18.3617L2.35842 18.5559L2.36856 18.7502H2.7368H3.10505L3.11518 18.5559L3.12532 18.3617L3.31957 18.3515L3.51383 18.3414V18.1573V17.9731H2.7368H1.95978V18.1573ZM4.69626 18.3617V18.7502H8.59829H12.5003V18.3617V17.9731H8.59829H4.69626V18.3617ZM13.6827 18.159V18.3448H13.8686H14.0544V18.5475V18.7502H14.4412H14.828L14.8382 18.5559L14.8483 18.3617L15.0425 18.3515L15.2368 18.3414V18.1573V17.9731H14.4598H13.6827V18.159ZM16.7909 18.159V18.3448H16.9936H17.1963V18.5475V18.7502H17.5848H17.9733V18.5475V18.3448H18.1591H18.3449V18.159V17.9731H17.5679H16.7909V18.159Z" fill="#26A387"/>
<path fill-rule="evenodd" clip-rule="evenodd" d="M3.91924 5.86166V6.25017H4.30775H4.69626V5.86166V5.47314H4.30775H3.91924V5.86166ZM5.47329 5.86166V6.25017H7.02734H8.5814V5.86166V5.47314H7.02734H5.47329V5.86166ZM0.777344 7.41571V7.80423H2.3314H3.88545V7.41571V7.0272H2.3314H0.777344V7.41571ZM5.47329 7.41571V7.80423H6.25032H7.02734V7.41571V7.0272H6.25032H5.47329V7.41571ZM8.61518 7.41527V7.80423H9.78184H10.9485L10.9389 7.42416L10.9294 7.04409L9.77228 7.03521L8.61518 7.02632V7.41527ZM0.799202 8.87352C0.77079 9.2095 0.771026 17.7009 0.799438 18.0661L0.821128 18.3448H1.00194H1.18275V18.5475V18.7502H0.980046H0.777344V19.1387V19.5272H12.5003H24.2233V19.1387V18.7502H21.6709H19.1186L19.1287 18.5559L19.1388 18.3617L19.3331 18.3515L19.5273 18.3414V18.1573V17.9731H21.0797H22.6321L22.6422 17.7789L22.6523 17.5846L23.0308 17.5751L23.4092 17.5655L23.4193 17.3724L23.4294 17.1792L23.6225 17.1691L23.8157 17.159L23.8252 16.7806L23.8348 16.4022L24.029 16.3921L24.2233 16.3819V15.882C24.2233 15.607 24.2135 15.2664 24.2016 15.1251L24.1799 14.8682L24.0073 14.8582L23.8348 14.8481L23.8252 14.4697L23.8157 14.0913L23.6225 14.0812L23.4294 14.0711L23.4193 13.8779L23.4092 13.6848L23.0308 13.6752L22.6523 13.6657L22.6422 13.4715L22.6321 13.2772H22.2452H21.8584V13.0925V12.9078L21.4784 12.8982L21.0983 12.8887L21.0882 12.6944L21.078 12.5002H20.6912H20.3044V12.3184V12.1367L19.9159 12.1124L19.5273 12.0881V11.9056V11.7231H19.1388H18.7503V11.5407V11.3582L18.3618 11.3339L17.9733 11.3096V11.1279V10.9461H17.5865H17.1996L17.1895 10.7519L17.1794 10.5576L16.7824 10.5481L16.3855 10.5386V10.3549V10.1713L16.0054 10.1618L15.6253 10.1522L15.6152 9.95794L15.605 9.76369H15.2182H14.8314V9.57899V9.39429L14.4513 9.38473L14.0713 9.37517L14.0611 9.18092L14.051 8.98666H13.2757H12.5003V8.80085V8.61504H6.66069H0.821026L0.799202 8.87352ZM1.55437 10.1522V10.9461H2.14559H2.7368V11.1319V11.3177H2.92261H3.10842V12.0948V12.8718H2.92261H2.7368V13.0745V13.2772H2.14559H1.55437V13.6657V14.0542H5.27059H8.9868V12.5002V10.9461H9.17261H9.35842V10.7434V10.5407H9.56113H9.76383V10.3549V10.1691H10.5409H11.3179V10.3549V10.5407H11.5206H11.7233V10.7434V10.9461H11.9091H12.0949V12.5002V14.0542H14.0544H16.0138V14.4427V14.8313H14.0544H12.0949V15.2367V15.6421H11.9091H11.7233V15.8279V16.0137H11.5206H11.3179V16.1995V16.3853H10.5409H9.76383V16.1995V16.0137H9.56113H9.35842V15.8279V15.6421H9.17261H8.9868V15.2367V14.8313H5.27059H1.55437V16.0137V17.1961H12.1118H22.6692V16.9934V16.7907H22.855H23.0409V16.6049V16.4191H23.2442H23.4475L23.4384 15.6336L23.4294 14.8481L20.109 14.8395L16.7887 14.8309L16.7982 14.451L16.8077 14.0711L19.35 14.0625L21.8922 14.0538V13.8723V13.6907L21.5054 13.6665L21.1185 13.6424L21.1084 13.4682L21.0983 13.2941L18.1675 13.2854L15.2368 13.2768V13.0963V12.9157L14.9275 12.8938C14.7575 12.8817 14.499 12.8718 14.3532 12.8718H14.0882V12.686V12.5002H13.8855H13.6827V12.2975V12.0948H13.48H13.2773V11.8921V11.6894H13.0915H12.9057V11.4243C12.9057 11.2785 12.8959 11.02 12.8838 10.85L12.8618 10.5407H12.6811H12.5003V9.9495V9.35828H7.02734H1.55437V10.1522ZM13.2773 10.3549V10.9461H13.4595H13.6416L13.6658 11.3162L13.6899 11.6862L13.8806 11.6962L14.0713 11.7063L14.0813 11.8969L14.0913 12.0876L14.4614 12.1118L14.8314 12.1359V12.318V12.5002H16.7909H18.7503V12.2975V12.0948H18.3618H17.9733V11.909V11.7231H17.5848H17.1963V11.5204V11.3177H16.8077H16.4192V11.136V10.9542L16.0307 10.9299L15.6422 10.9057V10.7232V10.5407H15.2537H14.8652V10.3587V10.1766L14.4598 10.1522L14.0544 10.1278V9.94575V9.76369H13.6659H13.2773V10.3549ZM3.91924 11.1319V11.3177H3.71653H3.51383V12.0931V12.8684L3.70809 12.8786L3.90234 12.8887L3.91248 13.0829L3.92261 13.2772H4.69795H5.47329V13.0745V12.8718H5.6591H5.84491V12.0948V11.3177H5.6591H5.47329V11.1319V10.9461H4.69626H3.91924V11.1319ZM6.65572 11.1319V11.3177H6.45302H6.25032V12.0931V12.8684L6.44457 12.8786L6.63883 12.8887L6.64897 13.0829L6.6591 13.2772H7.43444H8.20978V13.0745V12.8718H8.39559H8.5814V12.0948V11.3177H8.39559H8.20978V11.1319V10.9461H7.43275H6.65572V11.1319ZM9.76383 12.5002V14.0542H10.5409H11.3179V12.5002V10.9461H10.5409H9.76383V12.5002ZM1.55437 12.1117V12.5002H1.95978H2.36518V12.1117V11.7231H1.95978H1.55437V12.1117ZM4.29086 12.1117V12.5002H4.67937H5.06788V12.1117V11.7231H4.67937H4.29086V12.1117ZM7.02734 12.1117V12.5002H7.41586H7.80437V12.1117V11.7231H7.41586H7.02734V12.1117ZM9.76383 15.2367V15.6421H10.5409H11.3179V15.2367V14.8313H10.5409H9.76383V15.2367ZM1.55437 18.1573V18.3414L1.74863 18.3515L1.94288 18.3617L1.95302 18.5559L1.96315 18.7502H2.73849H3.51383V18.5475V18.3448H3.71653H3.91924V18.159V17.9731H2.7368H1.55437V18.1573ZM4.66248 18.159V18.3448H4.47667H4.29086V18.5475V18.7502H8.59998H12.9091L12.899 18.5559L12.8888 18.3617L12.6946 18.3515L12.5003 18.3414V18.1573V17.9731H8.5814H4.66248V18.159ZM13.2773 18.1573V18.3414L13.4716 18.3515L13.6659 18.3617L13.676 18.5559L13.6861 18.7502H14.4615H15.2368V18.5475V18.3448H15.4226H15.6084V18.159V17.9731H14.4429H13.2773V18.1573ZM16.4192 18.159V18.3448H16.605H16.7909V18.5475V18.7502H17.5662H18.3415L18.3517 18.5559L18.3618 18.3617L18.5561 18.3515L18.7503 18.3414V18.1573V17.9731H17.5848H16.4192V18.159Z" fill="#26A387"/>
</svg>
