<svg width="25" height="25" viewBox="0 0 25 25" fill="none" xmlns="http://www.w3.org/2000/svg">
<g clip-path="url(#clip0_338_8830)">
<path fill-rule="evenodd" clip-rule="evenodd" d="M9.76351 0.185811V0.371622L9.2652 0.371824C8.99111 0.371926 8.64145 0.381791 8.48818 0.393716L8.20946 0.415405V0.595135V0.774899L7.8125 0.784392L7.41554 0.793919L7.40537 0.970203L7.3952 1.14645L7.01686 1.15601L6.63851 1.16554L6.62841 1.35872L6.61831 1.55186L6.2399 1.56142L5.86149 1.57095L5.85132 1.74669L5.84118 1.9224L5.64861 1.9325L5.45608 1.94257L5.44595 2.13682L5.43581 2.33108H5.06588H4.69595V2.53378V2.73649H4.49324H4.29054V2.92061V3.10473L4.09628 3.11486L3.90203 3.125L3.89189 3.31926L3.88176 3.51351H3.69763H3.51351V3.69763V3.88176L3.31926 3.89189L3.125 3.90203L3.11486 4.09628L3.10473 4.29054H2.92061H2.73649V4.49324V4.69595H2.53378H2.33108V5.06588V5.43581L2.13682 5.44595L1.94257 5.45608L1.93243 5.65034L1.9223 5.84459H1.73818H1.55405V6.23142V6.61824L1.3598 6.62838L1.16554 6.63851L1.15601 7.01686L1.14645 7.3952L0.970203 7.40537L0.793919 7.41554L0.784392 7.8125L0.774899 8.20946H0.595135H0.415405L0.393716 8.48818C0.381791 8.64145 0.371926 8.99111 0.371824 9.2652L0.371622 9.76351H0.185811H0V12.5V15.2365H0.185H0.370034L0.379257 15.8193L0.388514 16.402L0.58277 16.4122L0.777027 16.4223V16.9949V17.5676H0.958784H1.14054L1.16483 17.9561L1.18909 18.3446H1.37051H1.55193L1.56142 18.7416L1.57095 19.1385L1.7652 19.1486L1.95946 19.1588V19.3429V19.527H2.14527H2.33108V19.9155V20.3041H2.53378H2.73649V20.5068V20.7095H2.92061H3.10473L3.11486 20.9037L3.125 21.098L3.31926 21.1081L3.51351 21.1182V21.3024V21.4865H3.69763H3.88176L3.89189 21.6807L3.90203 21.875L4.09628 21.8851L4.29054 21.8953V22.0794V22.2635H4.49324H4.69595V22.4662V22.6689H5.08446H5.47297V22.8547V23.0405H5.65878H5.84459V23.4291V23.8176H5.65878H5.47297V24.4088V25H6.04395H6.61497L6.63922 24.6115L6.66351 24.223H6.84527H7.02703V24.0203V23.8176H8.78378H10.5405V23.6318V23.4459H10.7443H10.9481L10.9386 23.049L10.9291 22.652L10.7348 22.6419L10.5405 22.6318V22.4476V22.2635H9.18919H7.83784V22.0795V21.8954L8.0152 21.8852L8.19257 21.875L8.20209 21.478L8.21159 21.0811H8.39635H8.58108V20.8953V20.7095H12.5H16.4189V20.8953V21.0811H16.6036H16.7884L16.7979 21.478L16.8074 21.875L16.9848 21.8852L17.1622 21.8954V22.0795V22.2635H15.8108H14.4595V22.4476V22.6318L14.2652 22.6419L14.0709 22.652L14.0614 23.049L14.0519 23.4459H14.2557H14.4595V23.6318V23.8176H16.2162H17.973V24.0203V24.223H18.1547H18.3365L18.3608 24.6115L18.385 25H18.956H19.527V24.4088V23.8176H19.3412H19.1554V23.4291V23.0405H19.3412H19.527V22.8547V22.6689H19.9155H20.3041V22.4662V22.2635H20.5068H20.7095V22.0794V21.8953L20.9037 21.8851L21.098 21.875L21.1081 21.6807L21.1182 21.4865H21.3024H21.4865V21.3024V21.1182L21.6807 21.1081L21.875 21.098L21.8851 20.9037L21.8953 20.7095H22.0794H22.2635V20.5068V20.3041H22.4662H22.6689V19.9155V19.527H22.853H23.0372L23.0473 19.3328L23.0574 19.1385L23.2517 19.1284L23.4459 19.1182V18.7314V18.3446H23.6284H23.8109L23.8352 17.9561L23.8595 17.5676H24.0412H24.223V16.9932V16.4189H24.4037H24.5845L24.6064 16.1097C24.6185 15.9396 24.6284 15.6743 24.6284 15.5201V15.2399L24.8226 15.2297L25.0169 15.2196L25.0256 12.4831L25.0343 9.74662L24.8314 9.75807L24.6284 9.76953V9.29872C24.6284 9.0398 24.6185 8.68878 24.6064 8.51872L24.5845 8.20946H24.4048H24.2251L24.2156 7.8125L24.2061 7.41554L24.032 7.40544L23.8578 7.39534L23.8336 7.00848L23.8095 6.62162H23.6288H23.4482L23.4386 6.24155L23.4291 5.86149L23.2348 5.85135L23.0405 5.84122V5.6402V5.43919H22.8547H22.6689V5.06757V4.69595H22.4662H22.2635V4.49324V4.29054H22.0794H21.8953L21.8851 4.09628L21.875 3.90203L21.6807 3.89189L21.4865 3.88176V3.69763V3.51351H21.3024H21.1182L21.1081 3.31926L21.098 3.125L20.9037 3.11486L20.7095 3.10473V2.92061V2.73649H20.5068H20.3041V2.53378V2.33108H19.9341H19.5642L19.5541 2.13682L19.5439 1.94257L19.3514 1.9325L19.1588 1.9224L19.1487 1.74669L19.1385 1.57095L18.7601 1.56142L18.3817 1.55186L18.3716 1.35872L18.3615 1.16554L17.9645 1.15601L17.5676 1.14652V0.961757V0.777027H17.1791H16.7905V0.596216V0.415405L16.5118 0.393716C16.3585 0.381791 16.0089 0.371926 15.7348 0.371824L15.2365 0.371622V0.185811V0H12.5H9.76351V0.185811ZM10.1351 1.36824V1.55405L9.65372 1.55426C9.38895 1.55436 9.0476 1.56416 8.89517 1.57605L8.61804 1.5976L8.60801 1.7701L8.59797 1.94257L8.20101 1.95209L7.80405 1.96159V2.14301V2.32443L7.41554 2.34868L7.02703 2.37297V2.55473V2.73649H6.63851H6.25V2.93919V3.14189H6.0473H5.84459V3.3277V3.51351H5.47297H5.10135V3.71622V3.91892H4.89865H4.69595V4.10304V4.28716L4.50169 4.2973L4.30743 4.30743L4.2973 4.50169L4.28716 4.69595H4.10473H3.9223L3.91216 4.8902L3.90203 5.08446L3.70777 5.09459L3.51351 5.10473V5.47466V5.84459H3.3277H3.14189V6.0473V6.25H2.93919H2.73649V6.63851V7.02703H2.55473H2.37297L2.34868 7.41554L2.32443 7.80405H2.14301H1.96159L1.95209 8.20101L1.94257 8.59797L1.7701 8.60801L1.5976 8.61804L1.57605 8.89517C1.56416 9.0476 1.55436 9.38895 1.55426 9.65372L1.55405 10.1351H1.36824H1.18243V12.4831V14.8311H1.36395H1.54547L1.57024 15.6081L1.59497 16.3851H1.77723H1.95946V16.7905V17.1959H2.14193H2.32443L2.34868 17.5845L2.37297 17.973H2.55473H2.73649V18.3615V18.75H2.93919H3.14189V18.9527V19.1554H3.3277H3.51351V19.527V19.8986H3.71622H3.91892V20.1014V20.3041H4.10473H4.29054V20.4882V20.6723L4.4848 20.6824L4.67905 20.6926L4.68919 20.8868L4.69932 21.0811H4.90034H5.10135V21.2632V21.4453L5.47297 21.4696L5.84459 21.4939V21.676V21.8581H6.0473H6.25V22.0608V22.2635H6.43581H6.62162V21.875V21.4865H6.82432H7.02703V21.102V20.7176L6.63851 20.6933L6.25 20.669V20.098V19.527H7.02703H7.80405V19.3243V19.1216H7.98652H8.16902L8.19328 18.7331L8.21757 18.3446H8.39932H8.58108V18.1588V17.973H7.98986H7.39865V17.7905V17.608L7.01013 17.5837L6.62162 17.5595V17.3777V17.1959H6.43581H6.25V16.6047V16.0135H6.06419H5.87838V11.9088V7.80405H6.06419H6.25V7.02703V6.25H6.43581H6.62162V5.86149V5.47297H6.82432H7.02703V5.27027V5.06757H7.20916H7.39125L7.4153 4.69943L7.43936 4.33125L7.80595 4.3073L8.17253 4.28338L8.18253 4.0927L8.19257 3.90203L8.40372 3.89196L8.61486 3.88193V3.6977V3.51351H9.18919H9.76351V3.31081V3.10811H12.5H15.2365V3.31081V3.51351H15.8108H16.3851V3.69932V3.88513H16.5878H16.7905V4.08378V4.28243L17.1756 4.30649L17.5606 4.33054L17.5847 4.69905L17.6087 5.06757H17.7908H17.973V5.27027V5.47297H18.1757H18.3784V5.86149V6.25H18.5642H18.75V7.02703V7.80405H18.9358H19.1216V11.9088V16.0135H18.9358H18.75V16.6047V17.1959H18.5473H18.3446V17.3781V17.5602L17.973 17.5845L17.6014 17.6087V17.7908V17.973H17.0101H16.4189V18.1588V18.3446H16.6047H16.7905V18.7331V19.1216H16.9932H17.1959V19.3243V19.527H17.973H18.75V20.098V20.669L18.3615 20.6933L17.973 20.7176V21.102V21.4865H18.1554H18.3379L18.3622 21.875L18.3865 22.2635H18.5682H18.75V22.0608V21.8581H18.9527H19.1554V21.676V21.4939L19.527 21.4696L19.8986 21.4453V21.2632V21.0811H20.0997H20.3007L20.3108 20.8868L20.3209 20.6926L20.4966 20.6824L20.6723 20.6723L20.6824 20.4966L20.6926 20.3209L20.8868 20.3108L21.0811 20.3007V20.0997V19.8986H21.2632H21.4453L21.4696 19.527L21.4939 19.1554H21.676H21.8581V18.9527V18.75H22.0608H22.2635V18.3615V17.973H22.4453H22.627L22.6513 17.5845L22.6756 17.1959H22.8581H23.0405V16.7905V16.3851H23.2228H23.405L23.4298 15.6081L23.4545 14.8311H23.636H23.8176V12.4831V10.1351H23.6318H23.4459L23.4457 9.65372C23.4456 9.38895 23.4358 9.04689 23.4239 8.89358L23.4022 8.61486H23.2213H23.0405V8.20946V7.80405H22.8581H22.6756L22.6513 7.41554L22.627 7.02703H22.4453H22.2635V6.63851V6.25H22.0608H21.8581V6.0473V5.84459H21.676H21.4939L21.4696 5.47297L21.4453 5.10135H21.2632H21.0811V4.90034V4.69932L20.8868 4.68919L20.6926 4.67905L20.6824 4.4848L20.6723 4.29054H20.4882H20.3041V4.10473V3.91892H20.1014H19.8986V3.71622V3.51351H19.527H19.1554V3.3277V3.14189H18.9527H18.75V2.93919V2.73649H18.3615H17.973V2.55473V2.37297L17.5845 2.34868L17.1959 2.32443V2.14301V1.96159L16.799 1.95209L16.402 1.94257L16.392 1.7701L16.382 1.5976L16.1048 1.57605C15.9524 1.56416 15.611 1.55436 15.3463 1.55426L14.8649 1.55405V1.36824V1.18243H12.5H10.1351V1.36824ZM9.97466 4.31554L9.76351 4.32753V4.51176V4.69595H9.375H8.98649V4.88007V5.06419L8.79223 5.07432L8.59797 5.08446L8.58784 5.27872L8.5777 5.47297H8.39358H8.20946V5.65709V5.84122L8.0152 5.85135L7.82095 5.86149L7.81138 6.24155L7.80182 6.62162H7.62257H7.44328L7.42105 7.50845C7.39223 8.65699 7.39216 15.4487 7.42095 16.2078L7.44307 16.7905H12.5H17.5569L17.5791 16.2078C17.6078 15.4492 17.6077 9.34976 17.5789 7.8125L17.5566 6.62162H17.3796H17.2026L17.1783 6.23311L17.1541 5.84459H16.9723H16.7905V5.65878V5.47297H16.6064H16.4223L16.4122 5.27872L16.402 5.08446L16.2078 5.07432L16.0135 5.06419V4.88115V4.69807L15.6166 4.68858L15.2196 4.67905L15.2096 4.50659L15.1995 4.33409L14.9224 4.31253C14.6425 4.29074 10.3655 4.29334 9.97466 4.31554ZM9.39189 6.06419V6.25H8.98649H8.58108V6.43581V6.62162H8.39902H8.21692L8.19257 7.02703L8.16821 7.43243H8.00301H7.83784V9.18919V10.9459H8.00341H8.16902L8.19328 11.3345L8.21757 11.723H12.5H16.7824L16.8067 11.3345L16.831 10.9459H16.9966H17.1622V9.19095V7.43598L16.9848 7.42574L16.8074 7.41554L16.7979 7.01858L16.7884 6.62162H16.6036H16.4189V6.43581V6.25H16.0135H15.6081V6.06419V5.87838H12.5H9.39189V6.06419ZM9.38081 7.42098C9.36831 7.43348 9.35811 8.14047 9.35811 8.99213V10.5405H12.5003H15.6426L15.6338 8.97804L15.625 7.41554L12.5143 7.40693C10.8033 7.40216 9.39328 7.40851 9.38081 7.42098ZM0.0161149 12.5C0.0161149 14.0144 0.0202703 14.6339 0.0253378 13.8767C0.0304054 13.1195 0.0304054 11.8805 0.0253378 11.1233C0.0202703 10.3661 0.0161149 10.9856 0.0161149 12.5ZM8.98649 13.0743V13.277H8.60304H8.21956L8.19763 13.5863C8.16949 13.9826 8.16939 14.9009 8.1974 15.2958L8.21916 15.6021L8.6028 15.626L8.98649 15.65V15.8318V16.0135H9.5777H10.1689V15.8314V15.6493L10.5358 15.6253L10.9027 15.6013L10.9241 15.326C10.9519 14.9695 10.9517 13.9136 10.9239 13.5557L10.9022 13.277H10.5355H10.1689V13.0743V12.8716H9.5777H8.98649V13.0743ZM14.8311 13.0743V13.277H14.4645H14.0978L14.0761 13.5557C14.0483 13.914 14.0481 14.9697 14.0759 15.3269L14.0975 15.603L14.4643 15.6268L14.8311 15.6506V15.8321V16.0135H15.4223H16.0135V15.8318V15.65L16.3968 15.626L16.7801 15.6021L16.802 15.0225C16.8141 14.7037 16.814 14.1805 16.8019 13.8599L16.7799 13.277H16.3967H16.0135V13.0743V12.8716H15.4223H14.8311V13.0743ZM9.39189 14.4595V14.8311H9.5777H9.76351V14.4595V14.0878H9.5777H9.39189V14.4595ZM15.2365 14.4595V14.8311H15.4223H15.6081V14.4595V14.0878H15.4223H15.2365V14.4595ZM9.76351 18.3615V18.75H9.5777H9.39189V19.1385V19.527H12.5H15.6081V19.1385V18.75H15.4223H15.2365V18.3615V17.973H12.5H9.76351V18.3615ZM12.0946 23.0405V23.4459H12.5H12.9054V23.0405V22.6351H12.5H12.0946V23.0405Z" fill="#26A387"/>
<path fill-rule="evenodd" clip-rule="evenodd" d="M10.9122 0.185811V0.371622L10.5321 0.371723C10.3231 0.371791 9.8898 0.381791 9.56926 0.393919L8.98649 0.416047V0.59652V0.777027H8.39527H7.80405V0.97973V1.18243H7.41554H7.02703V1.36824V1.55405H6.63851H6.25V1.75676V1.95946H5.86318H5.47635L5.46622 2.15372L5.45608 2.34797L5.26182 2.35811L5.06757 2.36824V2.55236V2.73649H4.86486H4.66216V2.9223V3.10811H4.47635H4.29054V3.31081V3.51351H3.90203H3.51351V3.90203V4.29054H3.31081H3.10811V4.47635V4.66216H2.9223H2.73649V4.86486V5.06757H2.55236H2.36824L2.35811 5.26182L2.34797 5.45608L2.15372 5.46622L1.95946 5.47635V5.86318V6.25H1.75676H1.55405V6.63851V7.02703H1.36824H1.18243V7.41385V7.80067L0.988176 7.81081L0.793919 7.82095L0.784662 8.40372L0.775439 8.98649H0.595743H0.416047L0.393919 9.56926C0.381791 9.8898 0.371791 10.3231 0.371723 10.5321L0.371622 10.9122H0.185811H0V12.5V14.0878H0.180507H0.36098L0.383108 14.6706C0.395236 14.9911 0.405236 15.4244 0.405304 15.6334L0.405405 16.0135H0.590405H0.775439L0.784662 16.5963L0.793919 17.1791L0.988176 17.1892L1.18243 17.1993V17.5861V17.973H1.36824H1.55405V18.3615V18.75H1.75676H1.95946V19.1368V19.5236L2.15372 19.5338L2.34797 19.5439L2.35811 19.7382L2.36824 19.9324H2.55236H2.73649V20.1182V20.3041H2.92061H3.10473L3.11486 20.4983L3.125 20.6926L3.31926 20.7027L3.51351 20.7128V21.0794V21.446L3.90047 21.4702L4.2874 21.4944L4.29743 21.6847L4.30743 21.875L4.50169 21.8851L4.69595 21.8953V22.0794V22.2635H4.88176H5.06757V22.4476V22.6318L5.26182 22.6419L5.45608 22.652L5.46608 22.8423L5.47611 23.0326L5.86304 23.0568L6.25 23.081V23.2466V23.4122H6.06794H5.88584L5.86149 23.8176L5.83713 24.223H5.65503H5.47297V24.4257V24.6284H5.65878H5.84459V24.8142V25H6.0473H6.25V24.7973V24.5946H6.43176H6.61351L6.6378 24.2061L6.66206 23.8176H6.84456H7.02703V23.6318V23.4459H8.78378H10.5405V23.0574V22.6689L9.2652 22.6687C8.56378 22.6686 7.86443 22.6587 7.71115 22.6468L7.43243 22.6251V22.4443V22.2635H7.61824H7.80405V21.875V21.4865H7.98652H8.16902L8.19328 21.098L8.21757 20.7095H8.39764H8.5777L8.58784 20.5152L8.59797 20.3209H12.5H16.402L16.4122 20.5152L16.4223 20.7095H16.6064H16.7905V21.098V21.4865H16.9932H17.1959V21.875V22.2635H17.3818H17.5676V22.4443V22.6251L17.2889 22.6468C17.1355 22.6587 16.4362 22.6686 15.7348 22.6687L14.4595 22.6689V23.0574V23.4459H16.2162H17.973V23.6318V23.8176H18.1547H18.3365L18.3608 24.2061L18.385 24.5946H18.5675H18.75V24.7973V25H18.9527H19.1554V24.8142V24.6284H19.3412H19.527V24.4257V24.223H19.3442H19.1613L19.1371 23.8176L19.1129 23.4122H18.9315H18.75V23.2264V23.0405H19.1385H19.527V22.8378V22.6351H19.7297H19.9324V22.4493V22.2635H20.1182H20.3041V22.0794V21.8953L20.4983 21.8851L20.6926 21.875L20.7026 21.685L20.7126 21.495L21.08 21.4712L21.4474 21.4474L21.4712 21.08L21.495 20.7126L21.685 20.7026L21.875 20.6926L21.8851 20.4983L21.8953 20.3041H22.0794H22.2635V20.1182V19.9324H22.4493H22.6351V19.7297V19.527H22.8378H23.0405V19.1385V18.75H23.2432H23.4459V18.3615V17.973H23.6318H23.8176V17.5861V17.1993L24.0118 17.1892L24.2061 17.1791L24.2153 16.5963L24.2246 16.0135H24.4096H24.5946L24.5948 15.3294C24.5949 14.9531 24.6047 14.5205 24.6166 14.3681L24.6381 14.0909L24.8275 14.0809L25.0169 14.0709L25.0257 12.4831L25.0346 10.8953L24.8369 10.9065L24.6392 10.9176L24.6169 10.3521C24.6046 10.041 24.5946 9.60649 24.5946 9.38649V8.98649H24.4088H24.223V8.39527V7.80405H24.0203H23.8176V7.41554V7.02703H23.6318H23.4459V6.63851V6.25H23.2432H23.0405V5.86318V5.47635L22.8463 5.46622L22.652 5.45608L22.6419 5.26182L22.6318 5.06757H22.4476H22.2635V4.88176V4.69595H22.0777H21.8919V4.49324V4.29054H21.6932H21.4946L21.4703 3.90203L21.446 3.51351H21.0794H20.7128L20.7027 3.31926L20.6926 3.125L20.4983 3.11486L20.3041 3.10473V2.92061V2.73649H20.1182H19.9324V2.55236V2.36824L19.7382 2.35811L19.5439 2.34797L19.5338 2.15372L19.5236 1.95946H19.1368H18.75V1.75676V1.55405H18.3615H17.973V1.36824V1.18243H17.5861H17.1993L17.1892 0.988176L17.1791 0.793919L16.5963 0.784662L16.0135 0.775439V0.590405V0.405405L15.6334 0.405304C15.4244 0.405236 14.9911 0.395236 14.6706 0.383108L14.0878 0.36098V0.180507V0H12.5H10.9122V0.185811ZM11.3405 0.799122C11.3279 0.811757 11.3176 0.89554 11.3176 0.985372V1.14865H10.9514C10.7499 1.14865 10.3091 1.15865 9.97162 1.17088L9.35811 1.19311V1.37358V1.55405H8.78378H8.20946V1.73611V1.91821L7.80405 1.94257L7.39865 1.96693V2.14791V2.32885L7.01858 2.33841L6.63851 2.34797L6.62838 2.54223L6.61824 2.73649H6.24831H5.87838V2.9223V3.10811H5.67568H5.47297V3.31081V3.51351H5.27027H5.06757V3.69763V3.88176L4.87331 3.89189L4.67905 3.90203L4.66892 4.09628L4.65878 4.29054H4.47466H4.29054V4.47466V4.65878L4.09628 4.66892L3.90203 4.67905L3.89189 4.87331L3.88176 5.06757H3.69763H3.51351V5.27027V5.47297H3.31081H3.10811V5.67568V5.87838H2.9223H2.73649V6.24831V6.61824L2.54223 6.62838L2.34797 6.63851L2.33841 7.01858L2.32885 7.39865H2.14851H1.96814L1.94395 7.80405L1.91976 8.20946H1.73689H1.55405V8.78378V9.35811H1.37358H1.19311L1.17088 9.97162C1.15865 10.3091 1.14865 10.7499 1.14865 10.9514V11.3176H0.983074H0.817466L0.795101 11.6976C0.78277 11.9067 0.777466 12.3514 0.783311 12.6858L0.793919 13.2939L0.971284 13.3041L1.14865 13.3144V13.8646C1.14865 14.1672 1.15865 14.6909 1.17088 15.0284L1.19311 15.6419H1.37358H1.55405V16.2162V16.7905H1.73652H1.91902L1.94328 17.1791L1.96757 17.5676H2.14932H2.33108V17.9544V18.3412L2.52534 18.3514L2.71959 18.3615L2.72916 18.7416L2.73872 19.1216H2.92341H3.10811V19.3243V19.527H3.31081H3.51351V19.7297V19.9324H3.69763H3.88176L3.89189 20.1267L3.90203 20.3209L4.09628 20.3311L4.29054 20.3412V20.5253V20.7095H4.47466H4.65878L4.66892 20.9037L4.67905 21.098L4.87331 21.1081L5.06757 21.1182V21.3024V21.4865H5.27027H5.47297V21.6892V21.8919H5.86149H6.25V22.0777V22.2635H6.4527H6.65541V22.0777V21.8919H6.84014H7.0249L7.03439 21.4949L7.04392 21.098L7.23926 21.0878L7.43463 21.0776L7.42507 20.6993L7.41554 20.3209L6.83277 20.3117L6.25 20.3025V19.9147V19.527H7.22973H8.20946V19.1385V18.75H8.39091H8.5724L8.59639 18.3796C8.60959 18.1759 8.61064 17.9935 8.59875 17.9742C8.58584 17.9533 8.42101 17.9392 8.19057 17.9392H7.80405V17.7736V17.608L7.41554 17.5837L7.02703 17.5595V17.3777V17.1959H6.84291H6.65878L6.64865 17.0017L6.63851 16.8074L6.44426 16.7973L6.25 16.7872V11.7213V6.65541H6.43206H6.61416L6.63851 6.25L6.66287 5.84459H6.84385H7.0248L7.03436 5.46453L7.04392 5.08446L7.23818 5.07432L7.43243 5.06419V4.88007V4.69595H7.61655H7.80067L7.81081 4.50169L7.82095 4.30743L8.0152 4.2973L8.20946 4.28716V4.10304V3.91892H8.59797H8.98649V3.71622V3.51351H9.78041H10.5743V3.3277V3.14189H12.5H14.4257V3.3277V3.51351H15.2196H16.0135V3.71622V3.91892H16.402H16.7905V4.10304V4.28716L16.9848 4.2973L17.1791 4.30743L17.1892 4.50169L17.1993 4.69595H17.3818H17.5642L17.5743 4.8902L17.5845 5.08446L17.7787 5.09459L17.973 5.10473V5.47466V5.84459H18.1577H18.3425L18.352 6.24155L18.3615 6.63851L18.5557 6.64865L18.75 6.65878V11.7247V16.7905H18.5473H18.3446V16.9932V17.1959H18.1588H17.973V17.3777V17.5595L17.5845 17.5837L17.1959 17.608V17.7736V17.9392H16.8094C16.579 17.9392 16.4142 17.9533 16.4012 17.9742C16.3894 17.9935 16.3904 18.1759 16.4036 18.3796L16.4276 18.75H16.6091H16.7905V19.1385V19.527H17.7703H18.75V19.9155V20.3041H18.1588H17.5676V20.6909V21.0777L17.7618 21.0878L17.9561 21.098L17.9656 21.4949L17.9751 21.8919H18.1599H18.3446V22.0777V22.2635H18.7331H19.1216V22.0777V21.8919H19.3243H19.527V21.6892V21.4865H19.7297H19.9324V21.3024V21.1182L20.1267 21.1081L20.3209 21.098L20.3311 20.9037L20.3412 20.7095H20.5253H20.7095V20.5253V20.3412L20.9037 20.3311L21.098 20.3209L21.1081 20.1267L21.1182 19.9324H21.3024H21.4865V19.7297V19.527H21.6892H21.8919V19.3243V19.1216H22.0777H22.2635V18.7331V18.3446H22.4662H22.6689V17.9561V17.5676H22.8547H23.0405V17.1791V16.7905H23.2432H23.4459V16.2162V15.6419H23.6275H23.809L23.834 14.4595L23.859 13.277H24.0415H24.224L24.215 12.3057L24.2061 11.3345L24.034 11.3244L23.8618 11.3144L23.8397 10.7531C23.8275 10.4445 23.8176 10.0043 23.8176 9.775V9.35811H23.6318H23.4459V8.78547V8.21284L23.2517 8.2027L23.0574 8.19257L23.0479 7.79561L23.0384 7.39865H22.8548H22.6711L22.6616 7.01858L22.652 6.63851L22.4578 6.62838L22.2635 6.61824V6.24831V5.87838H22.0777H21.8919V5.67568V5.47297H21.6892H21.4865V5.27027V5.06757H21.3024H21.1182L21.1081 4.87331L21.098 4.67905L20.9037 4.66892L20.7095 4.65878V4.47466V4.29054H20.5253H20.3412L20.3311 4.09628L20.3209 3.90203L20.1267 3.89189L19.9324 3.88176V3.69763V3.51351H19.7297H19.527V3.31081V3.10811H19.3243H19.1216V2.9223V2.73649H18.7517H18.3818L18.3716 2.54223L18.3615 2.34797L17.9814 2.33841L17.6014 2.32885V2.14851V1.96814L17.1959 1.94395L16.7905 1.91976V1.73689V1.55405H16.2162H15.6419V1.37358V1.19311L15.0284 1.17088C14.6909 1.15865 14.2508 1.14865 14.0504 1.14865H13.686L13.6757 0.971284L13.6655 0.793919L12.5145 0.785034C11.8815 0.780135 11.3531 0.786486 11.3405 0.799122ZM9.38513 4.4848L9.375 4.67905L8.99493 4.68861L8.61486 4.69818V4.88287V5.06757H8.41216H8.20946V5.27027V5.47297H8.00676H7.80405V5.86149V6.25H7.62159H7.43909L7.41483 6.63851L7.39054 7.02703H7.20878H7.02703V11.723V16.4189H7.21284H7.39865V16.6001V16.7813L8.15034 16.8064C8.97983 16.834 15.7545 16.8287 16.8666 16.7997L17.5676 16.7813V16.6001V16.4189H17.7703H17.973V11.723V7.02703H17.7905H17.608L17.5837 6.63851L17.5595 6.25H17.3777H17.1959V5.86149V5.47297H16.9932H16.7905V5.27027V5.06757H16.5878H16.3851V4.88287V4.69818L16.0051 4.68861L15.625 4.67905L15.6149 4.4848L15.6047 4.29054H12.5H9.39527L9.38513 4.4848ZM8.98649 6.43412V6.61824L8.79223 6.62838L8.59797 6.63851L8.58784 6.83277L8.5777 7.02703H8.39358H8.20946V9.1723V11.3176H12.5H16.7905V9.1723V7.02703H16.6064H16.4223L16.4122 6.83277L16.402 6.63851L16.2078 6.62838L16.0135 6.61824V6.43412V6.25H12.5H8.98649V6.43412ZM9.35811 7.21284V7.39865H9.1723H8.98649V8.96959V10.5405H12.5H16.0135V8.96959V7.39865H15.8277H15.6419V7.21284V7.02703H12.5H9.35811V7.21284ZM0.0156081 12.5C0.0156081 13.3826 0.0199662 13.7437 0.0253041 13.3024C0.0306419 12.8611 0.0306419 12.139 0.0253041 11.6976C0.0199662 11.2564 0.0156081 11.6174 0.0156081 12.5ZM9.39189 13.0901V13.2749L8.99493 13.2844L8.59797 13.2939L8.58784 13.4882L8.5777 13.6824H8.39358H8.20946V14.4595V15.2365H8.39527H8.58108V15.4185V15.6006L8.98649 15.625L9.39189 15.6494V15.8315V16.0135H9.5777H9.76351V15.8318V15.65L10.152 15.6257L10.5405 15.6015V15.419V15.2365H10.723H10.9055L10.9298 14.848C10.9431 14.6343 10.9431 14.2846 10.9298 14.0709L10.9055 13.6824H10.723H10.5405V13.4797V13.277H10.152H9.76351V13.0912V12.9054H9.5777H9.39189V13.0901ZM15.2365 13.0912V13.277H14.848H14.4595V13.4797V13.6824H14.277H14.0945L14.0702 14.0709C14.0569 14.2846 14.0569 14.6343 14.0702 14.848L14.0945 15.2365H14.277H14.4595V15.419V15.6015L14.848 15.6257L15.2365 15.65V15.8318V16.0135H15.4223H15.6081V15.8315V15.6494L16.0135 15.625L16.4189 15.6006V15.4185V15.2365H16.6047H16.7905V14.4595V13.6824H16.6064H16.4223L16.4122 13.4882L16.402 13.2939L16.0051 13.2844L15.6081 13.2749V13.0901V12.9054H15.4223H15.2365V13.0912ZM8.98649 14.4368V14.8211L9.26983 14.8429C9.42568 14.8549 9.6922 14.8548 9.86209 14.8427L10.171 14.8208L10.1615 14.4459L10.152 14.0709L9.56926 14.0617L8.98649 14.0525V14.4368ZM14.8536 14.0766C14.8412 14.089 14.8311 14.2615 14.8311 14.46V14.821L15.139 14.8428C15.3083 14.8548 15.5743 14.8549 15.7302 14.8429L16.0135 14.8211V14.4376V14.0541H15.4448C15.132 14.0541 14.866 14.0642 14.8536 14.0766ZM9.95777 17.9642L9.76351 17.9763V18.1605V18.3446H9.58176H9.4L9.37571 18.7331L9.35145 19.1216H9.16895H8.98649V19.3243V19.527H12.5H16.0135V19.3412V19.1554H15.8315H15.6494L15.625 18.75L15.6006 18.3446H15.4185H15.2365V18.1639V17.9831L14.9272 17.9611C14.6149 17.939 10.3175 17.9416 9.95777 17.9642ZM12.1284 23.0574V23.4459H12.5H12.8716V23.0574V22.6689H12.5H12.1284V23.0574Z" fill="#26A387"/>
</g>
<defs>
<clipPath id="clip0_338_8830">
<rect width="25" height="25" fill="white"/>
</clipPath>
</defs>
</svg>
