<svg width="25" height="25" viewBox="0 0 25 25" fill="none" xmlns="http://www.w3.org/2000/svg">
<g clip-path="url(#clip0_338_8812)">
<path fill-rule="evenodd" clip-rule="evenodd" d="M8.81084 2.35596L8.61828 2.36812L8.60814 2.54383L8.59797 2.71958L8.40372 2.72971L8.20946 2.73985L8.20926 3.03377C8.20916 3.19542 8.19936 3.45238 8.18747 3.60481L8.16591 3.88194L7.99341 3.89198L7.82095 3.90201L7.81169 4.48478L7.80247 5.06755L6.73061 5.06775C6.14111 5.06785 5.53409 5.07765 5.38166 5.08954L5.10453 5.1111L5.09449 5.2836L5.08446 5.45606L4.8902 5.4662L4.69595 5.47633V5.66046V5.84458H4.49324H4.29054V6.04728V6.24998H4.1098H3.92902L3.90709 6.55924C3.895 6.72931 3.88513 6.98775 3.88513 7.13356V7.39863H3.69932H3.51351V7.98985V8.58106H3.33277H3.15199L3.13007 8.89032C3.11797 9.06039 3.10811 9.32644 3.10811 9.48154V9.7635H2.9223H2.73649V9.57769V9.39188H1.75676H0.777027V9.57769V9.7635H0.388514H0V10.9257V12.0879L0.388514 12.1122L0.777027 12.1365V12.3182V12.5H0.98473H1.19243L1.17074 12.7787C1.15882 12.932 1.14895 13.106 1.14885 13.1655C1.14865 13.2719 1.14608 13.2736 0.971284 13.2837L0.793919 13.2939L0.78527 15.8192L0.776588 18.3446H0.962635H1.14865V18.5473V18.75H1.35135H1.55405V18.9527V19.1554H1.75676H1.95946V19.3412V19.527H2.14527H2.33108V20.6909V21.8547L2.52534 21.8648L2.71959 21.875L2.72973 22.0692L2.73986 22.2635H2.94088H3.14189V22.4662V22.6689H4.69595H6.25V22.4662V22.2635H6.4527H6.65541V22.0777V21.8919H6.84078H7.02615L7.03503 20.7179L7.04392 19.5439H12.5H17.9561L17.965 20.7179L17.9739 21.8919H18.1592H18.3446V22.0777V22.2635H18.5473H18.75V22.4662V22.6689H20.3041H21.8581V22.4662V22.2635H22.0608H22.2635V22.0608V21.8581H22.4662H22.6689V20.6926V19.527H22.8547H23.0405V19.3412V19.1554H23.2432H23.4459V18.9527V18.75H23.6284H23.8109L23.8352 18.3615L23.8595 17.973H24.0415H24.2234L24.2148 15.6334L24.2061 13.2939L24.0118 13.2838L23.8176 13.2736V12.8868V12.5H24.0203H24.223V12.3191V12.1382L24.6199 12.108L25.0169 12.0777L25.0258 10.9121L25.0348 9.7466L24.6289 9.75704L24.223 9.76748V9.57968V9.39188H23.2432H22.2635V9.57769V9.7635H22.0777H21.8919V9.48154C21.8919 9.32644 21.882 9.06039 21.8699 8.89032L21.848 8.58106H21.668H21.4881L21.4788 7.99829L21.4696 7.41552L21.2922 7.40532L21.1149 7.39508V7.13177C21.1149 6.98698 21.105 6.72931 21.0929 6.55924L21.071 6.24998H20.8902H20.7095V6.04728V5.84458H20.5068H20.3041V5.66245V5.48035L19.9341 5.45617L19.5641 5.43201L19.554 5.25823L19.5439 5.08444L18.3707 5.07556L17.1975 5.06667L17.1883 4.48434L17.1791 3.90201L17.0066 3.89198L16.8341 3.88194L16.8125 3.60481C16.8006 3.45238 16.7908 3.19468 16.7907 3.03208L16.7905 2.73647H16.5878H16.3851V2.55566V2.37485L16.1064 2.35316C15.8234 2.33113 9.16412 2.3337 8.81084 2.35596ZM9.39189 3.32769V3.5135H9.18919H8.98649V3.9189V4.32431H8.80068H8.61486V4.69593V5.06755H9.5777H10.5405V4.47633V3.88512H10.3547H10.1689V3.69931V3.5135H10.3547H10.5405V3.32769V3.14187H9.96622H9.39189V3.32769ZM11.3285 3.7162L11.3276 4.29052H11.5253H11.723V3.90201V3.5135H12.1115H12.5V4.29052V5.06755H12.6858H12.8716L12.8801 4.67059C12.8847 4.45225 12.8835 4.10262 12.8773 3.89356L12.8661 3.5135H13.8486H14.8311V4.29052V5.06755H15.6081H16.3851V4.69593V4.32431H16.1993H16.0135V3.9189V3.5135H15.8108H15.6081V3.32769V3.14187H13.4687H11.3294L11.3285 3.7162ZM13.6824 4.10471V4.29052H13.8682H14.0541V4.10471V3.9189H13.8682H13.6824V4.10471ZM10.9459 4.86485V5.06755H11.1318H11.3176V4.86485V4.66215H11.1318H10.9459V4.86485ZM11.723 4.88174V5.06755H11.9257H12.1284V4.88174V4.69593H11.9257H11.723V4.88174ZM13.277 4.88174V5.06755H13.4797H13.6824V4.88174V4.69593H13.4797H13.277V4.88174ZM14.0878 4.88174V5.06755H14.2736H14.4595V4.88174V4.69593H14.2736H14.0878V4.88174ZM5.87838 6.06417V6.24998H5.49321H5.10801L5.08375 6.6385L5.05946 7.02701H4.87878H4.69807L4.68858 7.42397L4.67905 7.82093L4.50659 7.83096L4.33409 7.841L4.31253 8.11812C4.30064 8.27056 4.29084 8.61188 4.29074 8.87667L4.29054 9.35809H4.10473H3.91892L3.91872 9.67059C3.91861 9.84245 3.90875 10.1085 3.89682 10.2618L3.87513 10.5405H3.69432H3.51351V10.7482V10.9559L3.79223 10.9342C3.94554 10.9223 4.12037 10.9124 4.18074 10.9123L4.29054 10.9121V10.3378V9.7635H4.47128H4.65206L4.67399 9.45424C4.68608 9.28417 4.69595 8.93451 4.69595 8.67721V8.20944H4.88176H5.06757V7.80404V7.39863H5.2497H5.43179L5.45578 7.03174L5.47973 6.66488L5.75507 6.64343C6.1178 6.61522 14.6101 6.61522 14.9442 6.64346L15.2027 6.66529V6.84617V7.02701H15.0338H14.8649V7.22971V7.43242H10.5574H6.25V7.61823V7.80404H6.06419H5.87838V8.086C5.87838 8.2411 5.86851 8.50715 5.85642 8.67721L5.83449 8.98647H5.65372H5.47297V9.57769V10.1689H5.29176H5.11057L5.08682 10.5233C5.07378 10.7181 5.0726 10.893 5.08422 10.9118C5.09834 10.9346 7.55135 10.9459 12.502 10.9459H19.8986V10.5574V10.1689H19.7128H19.527V9.57769V8.98647H19.3462H19.1654L19.1437 8.70775C19.1318 8.55448 19.1219 8.28843 19.1218 8.11654L19.1216 7.80404H18.9358H18.75V7.61823V7.43242H17.3818H16.0135V7.02701V6.6216L17.4916 6.62181C18.3045 6.62191 19.0935 6.63167 19.2449 6.64343L19.5203 6.66488L19.5441 7.03012L19.568 7.39535L19.7418 7.40542L19.9155 7.41552L19.9251 7.81248L19.9346 8.20944H20.1193H20.3041V8.67721C20.3041 8.93451 20.3139 9.28417 20.326 9.45424L20.3479 9.7635H20.5287H20.7095V10.3332V10.9029L21.0638 10.9267C21.2587 10.9397 21.4335 10.9409 21.4523 10.9293C21.4711 10.9177 21.4865 10.8255 21.4865 10.7243V10.5405H21.3057H21.1249L21.1032 10.2618C21.0912 10.1085 21.0814 9.84245 21.0813 9.67059L21.0811 9.35809H20.8994H20.7177L20.693 8.59958L20.6683 7.8411L20.4946 7.831L20.3209 7.82093L20.3114 7.42397L20.3019 7.02701H20.1205H19.9391L19.9148 6.6385L19.8905 6.24998H19.5061H19.1216V6.06417V5.87836H12.5H5.87838V6.06417ZM0.0152027 10.929C0.0152365 11.5794 0.0197635 11.8406 0.0253041 11.5096C0.0308446 11.1786 0.0308108 10.6465 0.0252703 10.3272C0.0197297 10.0079 0.0152027 10.2787 0.0152027 10.929ZM0.777027 10.929V11.3176H1.73986H2.7027V10.9509V10.5842L2.44422 10.5624C2.30206 10.5504 1.86878 10.5405 1.48138 10.5405H0.777027V10.929ZM22.4578 10.5655L22.2635 10.5777V10.9476V11.3176H23.2432H24.223V10.929V10.5405L23.4375 10.5469C23.0055 10.5504 22.5646 10.5588 22.4578 10.5655ZM3.88513 12.0049C3.88513 12.16 3.895 12.4261 3.90709 12.5961L3.92902 12.9054H4.1098H4.29054V13.0895V13.2736L4.4848 13.2838L4.67905 13.2939L4.68926 13.4708L4.69943 13.6476L5.66899 13.6566L6.63851 13.6655L6.64858 13.8767L6.65861 14.0878H6.84284H7.02703V14.2517V14.4157L6.74831 14.4373C6.38794 14.4654 4.55912 14.4655 4.19922 14.4375L3.92209 14.4159L3.91206 14.2434L3.90203 14.0709L3.70777 14.0608L3.51351 14.0507V13.6824V13.3142L3.31926 13.304L3.125 13.2939L3.11493 13.0828L3.1049 12.8716H2.92068H2.73649V12.6858V12.5H2.55402H2.37152L2.34726 12.8885L2.32297 13.277H2.14122H1.95946V13.6655V14.054H1.77365H1.58784V15.8277V17.6013H1.75307H1.91828L1.94257 17.973L1.96686 18.3446H2.16584H2.36486V18.5473V18.75H12.3142H22.2635V18.5675V18.385L22.652 18.3608L23.0405 18.3365V17.952V17.5676H23.2264H23.4122V15.8294V14.0914L23.2348 14.0811L23.0574 14.0709L23.0479 13.674L23.0384 13.277H22.857H22.6756L22.6513 12.8885L22.627 12.5H22.4453H22.2635V12.6858V12.8716H22.0818H21.9L21.8757 13.2601L21.8515 13.6486H21.669H21.4865V13.8496V14.0507L21.2922 14.0608L21.098 14.0709L21.0879 14.2434L21.0779 14.4159L20.8008 14.4375C20.6483 14.4493 17.6618 14.4591 14.1639 14.4592L7.80405 14.4594V14.0759V13.6924L8.08277 13.6707C8.23605 13.6588 11.0478 13.6489 14.331 13.6488L20.3005 13.6486L20.3107 13.4713L20.3209 13.2939L20.5152 13.2838L20.7095 13.2736V13.0895V12.9054H20.8912H21.073L21.0973 12.5169L21.1215 12.1284H21.2871H21.4527V11.9257V11.723H12.6689H3.88513V12.0049ZM3.10811 15.0164V15.2027H2.9223H2.73649V15.9966V16.7905H2.9223H3.10811V17.174V17.5575L3.41736 17.5794C3.58743 17.5915 3.85348 17.6013 4.00858 17.6013H4.29054V17.7871V17.973H5.65473H7.01892L7.04321 17.5844L7.06747 17.1959H7.43578H7.80405V17.5844V17.973H12.5H17.1959V17.7703V17.5676H17.3777H17.5595L17.5835 17.2146C17.5968 17.0206 17.5977 16.8457 17.5856 16.8261C17.5735 16.8065 17.4809 16.7905 17.3798 16.7905H17.1959V16.1993V15.6081H17.0101H16.8243V15.4223V15.2365H16.6216H16.4189V15.0338V14.8311H12.5H8.58108V15.0338V15.2365H8.37838H8.17568V15.4223V15.6081H7.98986H7.80405V16.1947V16.7813L7.4497 16.8051C7.25483 16.8181 7.08 16.8193 7.06118 16.8077C7.04138 16.7954 7.02703 16.6242 7.02703 16.4V16.0135H6.84527H6.66351L6.63922 15.625L6.61497 15.2365L6.32267 15.2363C6.16193 15.2362 5.90571 15.2264 5.75328 15.2145L5.47615 15.1929L5.46611 15.0204L5.45608 14.848L4.28209 14.8391L3.10811 14.8302V15.0164ZM19.7213 14.856L19.527 14.8682V15.0305V15.1927L19.2483 15.2144C19.095 15.2263 18.8381 15.2362 18.6773 15.2363L18.385 15.2365L18.3608 15.625L18.3365 16.0135H18.1599H17.9832L17.9596 16.6547C17.9466 17.0073 17.9465 17.4482 17.9593 17.6344L17.9826 17.973H19.346H20.7095V17.7871V17.6013H20.9914C21.1465 17.6013 21.4126 17.5915 21.5826 17.5794L21.8919 17.5575V17.174V16.7905H22.0777H22.2635V15.9966V15.2027H22.0777H21.8919V15.0169V14.8311L20.9037 14.8375C20.3602 14.841 19.8281 14.8493 19.7213 14.856ZM3.51351 15.8277V16.0135H3.69598H3.87848L3.90274 16.402L3.92703 16.7905H4.88581H5.84459V16.9763V17.1621H6.0473H6.25V16.7905V16.4189H6.0473H5.84459V16.2162V16.0135H4.88176H3.91892V15.8277V15.6419H3.71622H3.51351V15.8277ZM21.0811 15.8277V16.0135H20.1182H19.1554V16.2162V16.4189H18.9527H18.75V16.7905V17.1621H18.9527H19.1554V16.9763V16.7905H20.1142H21.073L21.0973 16.402L21.1215 16.0135H21.2871H21.4527V15.8277V15.6419H21.2669H21.0811V15.8277ZM8.61486 16.6047V17.1959H12.498C14.6337 17.1959 16.3887 17.1837 16.3979 17.1687C16.4072 17.1538 16.4058 16.8877 16.3948 16.5775L16.3748 16.0135H12.4948H8.61486V16.6047ZM3.33615 19.552L3.14189 19.5642V20.3395V21.1148H3.3277H3.51351V21.3007V21.4865H3.69932H3.88513V21.6723V21.8581H4.86486H5.84459V21.6723V21.4865H6.0473H6.25V20.5067V19.527L4.8902 19.5334C4.1423 19.5369 3.44297 19.5453 3.33615 19.552ZM18.75 20.5067V21.4865H18.9527H19.1554V21.6723V21.8581H20.1351H21.1149V21.6723V21.4865H21.3007H21.4865V21.3007V21.1148H21.6723H21.8581V20.3428V19.5708L21.5794 19.5491C21.4261 19.5372 20.7268 19.5273 20.0253 19.5272L18.75 19.527V20.5067Z" fill="#26A387"/>
<path fill-rule="evenodd" clip-rule="evenodd" d="M9.35811 2.53032V2.69593L8.96959 2.72019L8.58108 2.74448V2.94312V3.14177H8.39527H8.20946V3.7161V4.29042H8.0274H7.8453L7.82095 4.69583L7.79659 5.10123H6.82057H5.84459V5.28704V5.47285H5.45608H5.06757V5.65498V5.83708L4.69905 5.86117L4.33054 5.88525L4.30649 6.27025L4.28243 6.65529H4.10068H3.91892V7.22961V7.80394H3.71622H3.51351V8.39515V8.98637H3.3277H3.14189V9.37488V9.76339H1.77534H0.408784L0.398649 9.95765L0.388514 10.1519L0.194257 10.162L0 10.1722V10.9475V11.7229H0.185811H0.371622V11.9087V12.0945H0.962838H1.55405V12.4999V12.9053H1.36824H1.18243L1.18223 13.2009C1.18213 13.3635 1.17226 13.6219 1.16034 13.7752L1.13865 14.0539H0.979797H0.820912L0.798986 14.3632C0.770743 14.7612 0.770743 17.2958 0.79902 17.6588L0.820574 17.9359L0.993074 17.9459L1.16554 17.956L1.17507 18.3529L1.18456 18.7499H1.38622H1.58784V18.932V19.1141L1.95473 19.1381L2.32159 19.162L2.34304 19.4374C2.3548 19.5888 2.36456 20.1034 2.36466 20.5809L2.36486 21.449L2.54223 21.4593L2.71959 21.4695L2.72912 21.8664L2.73861 22.2634H3.12608H3.51351V22.4492V22.635H4.67905H5.84459V22.4492V22.2634H6.22905H6.61351L6.6378 21.8749L6.66206 21.4864H6.84456H7.02703V20.5066V19.5269H12.5H17.973V20.5066V21.4864H18.1554H18.3379L18.3622 21.8749L18.3865 22.2634H18.7709H19.1554V22.4492V22.635H20.3041H21.4527V22.4492V22.2634H21.8581H22.2635V21.858V21.4526H22.4493H22.6351V20.5963C22.6351 20.1253 22.645 19.6008 22.6571 19.4308L22.679 19.1215H23.0419H23.4048L23.4291 18.7499L23.4533 18.3783H23.6311H23.8089L23.8331 17.9729L23.8573 17.5674H24.0401H24.223L24.2228 16.0894C24.2227 15.2765 24.2128 14.486 24.2009 14.3327L24.1792 14.0539H23.9984H23.8176V13.4796V12.9053H23.6318H23.4459V12.4999V12.0945H24.0203H24.5946V11.9103V11.7261L24.8057 11.716L25.0169 11.706L25.026 10.9289L25.0351 10.1519H24.8233H24.6115L24.6014 9.95765L24.5912 9.76339H23.2247H21.8581V9.37488V8.98637H21.6731H21.4881L21.4788 8.4036L21.4696 7.82083L21.2753 7.81069L21.0811 7.80056V7.22792V6.65529H20.8993H20.7176L20.6935 6.27025L20.6695 5.88525L20.3009 5.86117L19.9324 5.83708V5.65603V5.47498L19.5355 5.46549L19.1385 5.45596L19.1283 5.2786L19.1181 5.10123H18.1607H17.2034L17.1791 4.69583L17.1547 4.29042H16.9726H16.7905V3.7161V3.14177H16.6047H16.4189V2.94312V2.74448L16.0304 2.72019L15.6419 2.69593V2.53032V2.36475H12.5H9.35811V2.53032ZM9.18182 3.13292L8.98868 3.14508L8.97912 3.5235L8.96959 3.90191L8.79547 3.91201L8.62132 3.92211L8.59848 4.30052C8.58591 4.50867 8.58064 4.77015 8.58679 4.88164L8.59797 5.08434H12.5H16.402L16.4132 4.88164C16.4194 4.77015 16.4141 4.50792 16.4014 4.29887L16.3785 3.9188H16.196H16.0135V3.53529V3.15177L15.7348 3.13008C15.4518 3.10806 9.53622 3.11062 9.18182 3.13292ZM10.5405 3.69721C10.5405 3.79833 10.5566 3.89093 10.5761 3.90306C10.5957 3.91515 10.7706 3.91424 10.9647 3.901L11.3176 3.87694V3.69519V3.51339H10.9291H10.5405V3.69721ZM11.723 4.08272V4.65204L12.0017 4.67373C12.155 4.68566 12.3298 4.69552 12.3902 4.69562L12.5 4.69583V4.30731V3.9188H12.2973H12.0946V3.7161V3.51339H11.9088H11.723V4.08272ZM12.9054 3.69921V3.88502H13.0912H13.277V3.69921V3.51339H13.0912H12.9054V3.69921ZM13.6824 3.69921V3.88502H13.8682H14.0541V3.69921V3.51339H13.8682H13.6824V3.69921ZM13.277 4.29042V4.66204H13.4578H13.6386L13.6603 4.38333C13.6993 3.88279 13.7133 3.9188 13.4797 3.9188H13.277V4.29042ZM5.47297 6.04718V6.24988H5.27027H5.06757V6.43569V6.6215H4.88551H4.70341L4.67905 7.02691L4.6547 7.43231H4.4726H4.29054V8.02353V8.61475H4.10473H3.91892V8.87981C3.91892 9.02562 3.90905 9.28407 3.89696 9.45414L3.87503 9.76339H3.69426H3.51351V10.3546V10.9458H3.90203H4.29054V10.559V10.1722L4.4848 10.162L4.67905 10.1519L4.68831 9.56914L4.69753 8.98637H4.88176H5.06598L5.0752 8.4036L5.08446 7.82083L5.27872 7.81069L5.47297 7.80056V7.41373V7.02691H5.67568H5.87838V6.8411V6.65529H10.3547H14.8311V7.02562V7.39596L10.3744 7.40569C7.92328 7.41103 5.90845 7.42478 5.89703 7.43616C5.88561 7.44758 5.86676 7.70985 5.85513 8.01894L5.83402 8.58096H5.65351H5.47297V9.17218V9.76339H5.27027H5.06757V10.3546V10.9458H12.5H19.9324V10.3546V9.76339H19.7297H19.527V9.17218V8.58096H19.3465H19.166L19.1449 8.01894C19.1332 7.70985 19.1144 7.44758 19.103 7.43616C19.0916 7.42478 18.4754 7.41005 17.7337 7.4035L16.3851 7.39157V7.20924V7.02691H16.1993H16.0135V6.8411V6.65529H17.5676H19.1216V6.8411V7.02691H19.3243H19.527V7.41542V7.80394H19.7078H19.8885L19.9105 8.11319C19.9226 8.28326 19.9324 8.54931 19.9324 8.70441V8.98637H20.1174H20.3025L20.3117 9.56914L20.3209 10.1519L20.4951 10.162L20.6692 10.1721L20.6934 10.559L20.7176 10.9458H21.102H21.4865V10.3546V9.76339H21.3057H21.125L21.103 9.45414C21.0909 9.28407 21.0811 9.02562 21.0811 8.87981V8.61475H20.8953H20.7095V8.02353V7.43231H20.5274H20.3453L20.3209 7.02691L20.2966 6.6215H20.1145H19.9324V6.43569V6.24988H19.7297H19.527V6.04718V5.84448H12.5H5.47297V6.04718ZM0.014527 10.9458C0.014527 11.3825 0.0193581 11.5611 0.0252365 11.3428C0.0311149 11.1245 0.0311149 10.7672 0.0252365 10.5489C0.0193581 10.3306 0.014527 10.5092 0.014527 10.9458ZM0.777027 10.9499V11.7311L1.72145 11.7172C2.24091 11.7096 2.67517 11.6941 2.68649 11.6828C2.6978 11.6714 2.71605 11.4098 2.72696 11.1013L2.74686 10.5404H2.55584H2.36486V10.3546V10.1688H1.57095H0.777027V10.9499ZM22.6351 10.3546V10.5404H22.4493H22.2635V11.1097V11.6791L22.5422 11.7008C22.6955 11.7127 23.1364 11.7225 23.522 11.7227L24.223 11.7229V10.9458V10.1688H23.4291H22.6351V10.3546ZM3.51351 12.1114V12.4999H3.69527H3.87703L3.90132 12.8884L3.92557 13.2769H4.10807H4.29054V13.4796V13.6823H5.27027H6.25V13.8681V14.0539H6.43581H6.62162V14.2566V14.4593H5.76534C5.29436 14.4593 4.76987 14.4495 4.5998 14.4374L4.29054 14.4155V14.2347V14.0539H4.10473H3.91892V13.8681V13.6823H3.71622H3.51351V13.4796V13.2769H3.3277H3.14189V12.8884V12.4999H2.73649H2.33108V12.6857V12.8715H2.14932H1.96757L1.94328 13.26L1.91902 13.6485H1.73652H1.55405V15.8107V17.9729H1.73818H1.9223L1.93243 18.1671L1.94257 18.3614L2.13682 18.3715L2.33108 18.3816V18.5658V18.7499H12.5H22.6689V18.5641V18.3783H22.8547H23.0405V18.1756V17.9729H23.2435H23.4465L23.4377 15.8191L23.4291 13.6654L23.2565 13.6554L23.084 13.6453L23.0623 13.3885C23.0503 13.2472 23.0405 13.0731 23.0405 13.0015V12.8715H22.8547H22.6689V12.6857V12.4999H22.2837H21.8985L21.8743 12.8884L21.85 13.2769H21.6682H21.4865V13.4796V13.6823H21.2838H21.0811V13.8664V14.0506L20.8868 14.0607L20.6926 14.0708L20.6825 14.2449L20.6724 14.4191L20.294 14.441C20.0858 14.4531 17.1943 14.4583 13.8682 14.4527L7.82095 14.4424V14.2566V14.0708L8.0152 14.0607L8.20946 14.0506V13.8664V13.6823H14.4595H20.7095V13.4796V13.2769H20.8919H21.0744L21.0987 12.8884L21.123 12.4999H21.3047H21.4865V12.1114V11.7229H12.5H3.51351V12.1114ZM3.14189 15.0506V15.2364H2.93919H2.73649V15.6249V16.0134H2.91723H3.09801L3.11993 16.3227C3.13203 16.4927 3.14189 16.7588 3.14189 16.9139V17.1958H3.3277H3.51351V17.3816V17.5674L4.40034 17.5676C4.88811 17.5678 5.4126 17.5776 5.56588 17.5895L5.84459 17.6112V17.7752C5.84459 17.9375 5.84564 17.9391 5.95439 17.9393C6.01476 17.9394 6.18878 17.9492 6.34108 17.961L6.61797 17.9826L6.62824 17.7835L6.63851 17.5843L6.83277 17.5742L7.02703 17.5641V16.9914V16.4188H6.84527H6.66351L6.63922 16.0303L6.61497 15.6418H6.43247H6.25V15.4391V15.2364L5.36318 15.2362C4.87544 15.2361 4.35091 15.2262 4.19764 15.2143L3.91892 15.1926V15.0287V14.8647H3.53041H3.14189V15.0506ZM21.0811 15.0287V15.1926L20.8024 15.2143C20.6491 15.2262 20.1246 15.2361 19.6368 15.2362L18.75 15.2364V15.4391V15.6418H18.5675H18.385L18.3608 16.0303L18.3365 16.4188H18.1547H17.973V16.9914V17.5641L18.1672 17.5742L18.3615 17.5843L18.3718 17.7835L18.382 17.9826L18.6589 17.961C18.8112 17.9492 18.9852 17.9394 19.0456 17.9393C19.1544 17.9391 19.1554 17.9375 19.1554 17.7752V17.6112L19.4341 17.5895C19.5874 17.5776 20.1119 17.5678 20.5997 17.5676L21.4865 17.5674V17.3816V17.1958H21.6672H21.848L21.8699 16.8866C21.882 16.7165 21.8919 16.4505 21.8919 16.2954V16.0134H22.0777H22.2635V15.6249V15.2364H22.0608H21.8581V15.0506V14.8647H21.4696H21.0811V15.0287ZM8.20946 15.6249V16.0134H8.02865H7.84784L7.82615 16.2921C7.81422 16.4454 7.80436 16.7943 7.80426 17.0674L7.80405 17.5641L7.99831 17.5742L8.19257 17.5843L8.2027 17.7786L8.21284 17.9729H12.5017H16.7905V17.7887V17.6046L16.9848 17.5945L17.1791 17.5843L17.1898 17.1789C17.1957 16.956 17.1905 16.6025 17.178 16.3935L17.1555 16.0134H16.973H16.7905V15.6249V15.2364H12.5H8.20946V15.6249ZM3.51351 16.1898V16.7823L3.90203 16.8066L4.29054 16.8309V16.9914V17.1519L4.5998 17.1739C4.76987 17.186 5.21074 17.1958 5.57953 17.1958H6.25V16.6046V16.0134H5.86149H5.47297V15.8276V15.6418L5.07601 15.6417C4.85767 15.6416 4.41682 15.6316 4.09628 15.6195L3.51351 15.5973V16.1898ZM20.1267 15.6333L19.527 15.6433V15.8284V16.0134H19.1385H18.75V16.6046V17.1958H19.4205C19.7893 17.1958 20.2301 17.186 20.4002 17.1739L20.7095 17.1519V16.9914V16.8309L21.098 16.8066L21.4865 16.7823V16.1952V15.608L21.1064 15.6156C20.8974 15.6198 20.4565 15.6278 20.1267 15.6333ZM8.60318 15.9205C8.59125 16.0738 8.58138 16.3322 8.58128 16.4948L8.58108 16.7904H8.39527H8.20946V16.9712V17.152L8.48818 17.1737C8.64145 17.1857 10.5722 17.1955 12.7787 17.1956L16.7905 17.1958V16.9931V16.7904H16.6047H16.4189L16.4187 16.4948C16.4186 16.3322 16.4087 16.0738 16.3968 15.9205L16.3751 15.6418H12.5H8.62486L8.60318 15.9205ZM3.10811 20.5066V21.4864H3.31081H3.51351V21.6895V21.8927L4.6875 21.8838L5.86149 21.8749L5.87162 21.6806L5.88176 21.4864H6.06588H6.25V20.5066V19.5269H4.67905H3.10811V20.5066ZM18.75 20.5066V21.4864H18.9341H19.1182L19.1284 21.6806L19.1385 21.8749L20.3125 21.8838L21.4865 21.8927V21.6895V21.4864H21.6892H21.8919V20.5066V19.5269H20.3209H18.75V20.5066Z" fill="#26A387"/>
</g>
<defs>
<clipPath id="clip0_338_8812">
<rect width="25" height="25" fill="white"/>
</clipPath>
</defs>
</svg>
