<svg width="25" height="25" viewBox="0 0 25 25" fill="none" xmlns="http://www.w3.org/2000/svg">
<path fill-rule="evenodd" clip-rule="evenodd" d="M7.02655 0.185811V0.371622H6.24953H5.4725V0.574324V0.777027H5.08398H4.69547V0.962838V1.14865H4.49277H4.29007V1.35135V1.55405H4.08736H3.88466V1.75676V1.95946H3.69885H3.51304V2.34797V2.73649H3.31034H3.10763V10.8225C3.10763 15.2698 3.1175 19.0477 3.12959 19.2178L3.15152 19.527H3.3323H3.51304V19.7297V19.9324H3.69716H3.88128L3.89142 20.1267L3.90155 20.3209L4.09581 20.3311L4.29007 20.3412V20.5253V20.7095H4.70047H5.11088L5.08919 20.9882C5.07726 21.1415 5.0674 21.3163 5.0673 21.3767L5.06709 21.4865H4.86439H4.66169V21.6723V21.8581H4.47588H4.29007V22.0608V22.2635H4.08736H3.88466V22.4493V22.6351H3.69885H3.51304V22.8378V23.0405H3.31034H3.10763V23.2432V23.4459H2.92182H2.73601V23.6318V23.8176H2.53331H2.33061V24.0203V24.223H2.1448H1.95898V24.4088V24.5946H2.1448H2.33061V24.7973V25H4.49277H6.65493V24.8142V24.6284H6.84074H7.02655V24.4257V24.223H7.20902H7.39152L7.41567 23.836L7.43986 23.4491L7.63017 23.4391L7.82047 23.4291L7.83061 23.2347L7.84074 23.0403L12.5097 23.0488L17.1786 23.0574L17.1887 23.2517L17.1989 23.4459H17.383H17.5671V23.6486V23.8514H17.7492H17.9313L17.9556 24.223L17.9799 24.5946H18.162H18.3441V24.7973V25H20.5063H22.6684V24.7973V24.5946H22.8543H23.0401V24.4088V24.223H22.8543H22.6684V24.0203V23.8176H22.4657H22.263V23.6149V23.4122H22.0772H21.8914V23.2264V23.0405H21.6887H21.486V22.8378V22.6351H21.3002H21.1144V22.4493V22.2635H20.9117H20.709V22.0608V21.8581H20.5249H20.3407L20.3306 21.6639L20.3205 21.4696L20.1311 21.4596L19.9417 21.4496L19.9202 21.1724C19.9083 21.02 19.8985 20.8535 19.8984 20.8024L19.8982 20.7095H20.3036H20.709V20.5253V20.3412L20.9032 20.3311L21.0975 20.3209L21.1076 20.1267L21.1178 19.9324H21.3019H21.486V19.7297V19.527H21.6668H21.8476L21.8693 19.2483C21.8813 19.095 21.8911 15.3171 21.8912 10.853L21.8914 2.73649H21.6887H21.486V2.34797V1.95946H21.3002H21.1144V1.75676V1.55405H20.9117H20.709V1.35135V1.14865H20.5063H20.3036V0.962838V0.777027H19.9151H19.5266V0.574324V0.371622H18.7495H17.9725V0.185811V0H12.4995H7.02655V0.185811ZM7.43196 1.36824V1.55405H6.9473C6.68071 1.55405 6.32344 1.56392 6.15338 1.57601L5.84412 1.59794V1.75848V1.91902L5.45561 1.94328L5.06709 1.96757V2.16622V2.36486H4.88128H4.69547V2.7348V3.10473L4.50121 3.11486L4.30696 3.125L4.29672 10.7432C4.29108 14.9333 4.29638 18.5325 4.30851 18.7416L4.3305 19.1216H4.513H4.69547V19.3243V19.527H12.4995H20.3036V19.3243V19.1216H20.4841H20.6646L20.6867 18.5389C20.7156 17.777 20.7156 4.51926 20.6868 3.72162L20.6645 3.10811H20.5046H20.3448L20.3206 2.73807L20.2964 2.36801L20.1057 2.35801L19.9151 2.34797L19.905 2.1573L19.895 1.96662L19.525 1.94247L19.1549 1.91828V1.75811V1.59794L18.8457 1.57601C18.6756 1.56392 18.3183 1.55405 18.0518 1.55405H17.5671V1.36824V1.18243H12.4995H7.43196V1.36824ZM8.19773 1.94821C8.16919 1.97676 8.16895 2.46514 8.1973 2.82939L8.21899 3.10811H8.6025H8.98601V2.51689V1.92568H8.60314C8.39253 1.92568 8.2101 1.93581 8.19773 1.94821ZM10.1454 1.98007C10.1202 2.04574 10.1591 3.07618 10.1878 3.10493C10.2152 3.13233 14.7856 3.13054 14.8131 3.10311C14.8251 3.09108 14.8378 2.82503 14.8412 2.51189L14.8475 1.94257L12.507 1.93389C10.3736 1.92598 10.1646 1.93007 10.1454 1.98007ZM16.013 2.51689V3.10811H16.3966H16.7801L16.8019 2.82476C16.8139 2.66892 16.8138 2.40287 16.8018 2.23355L16.78 1.92568H16.3965H16.013V2.51689ZM5.27824 3.91013L5.06709 3.92213V8.41378V12.9054H5.2698H5.4725V13.0912V13.277H12.4995H19.5266V13.0929V12.9088L19.7208 12.8986L19.9151 12.8885L19.9236 8.40872L19.9322 3.92895L19.6534 3.90723C19.371 3.88527 5.6676 3.88804 5.27824 3.91013ZM6.24953 8.39527V11.723H8.98601H11.7225V8.39527V5.06757H8.98601H6.24953V8.39527ZM13.2766 8.39527V11.723H16.013H18.7495V8.39527V5.06757H16.013H13.2766V8.39527ZM6.44378 14.4506L6.24953 14.4628V14.6429V14.823L5.86449 14.847L5.47949 14.8711L5.4554 15.2396L5.43132 15.6081H5.24922H5.06709V16.402V17.1959H5.24956H5.43206L5.45632 17.5845L5.48061 17.973H5.86507H6.24953V18.1757V18.3784L6.95054 18.3782C7.33608 18.3781 7.77699 18.3682 7.93027 18.3563L8.20898 18.3346V18.1538V17.973H8.41169H8.61439V17.7703V17.5676H8.8002H8.98601V17.1791V16.7905H9.17182H9.35763V16.402V16.0135H9.17182H8.98601V15.625V15.2365H8.8002H8.61439V15.0338V14.8311H8.41169H8.20898V14.6503V14.4696L7.89973 14.4476C7.59203 14.4258 6.81422 14.4274 6.44378 14.4506ZM17.0012 14.4507L16.7901 14.4627V14.6469V14.8311H16.5874H16.3847V15.0338V15.2365H16.1989H16.013V15.625V16.0135H15.8272H15.6414V16.402V16.7905H15.8272H16.013V17.1791V17.5676H16.1989H16.3847V17.7703V17.973H16.5874H16.7901V18.1537V18.3345L17.0993 18.3564C17.2694 18.3685 17.7103 18.3784 18.0791 18.3784H18.7495V18.1757V17.973H19.134H19.5184L19.5427 17.5845L19.567 17.1959H19.7501H19.9332L19.9241 16.4105L19.9151 15.625L19.7409 15.6149L19.5668 15.6048L19.5426 15.2179L19.5184 14.8311H19.134H18.7495V14.6503V14.4695L18.4708 14.4478C18.1937 14.4262 17.4047 14.4278 17.0012 14.4507ZM10.1574 14.8534C10.1449 14.8659 10.1347 14.9572 10.1347 15.0563V15.2365H9.94885H9.76304V15.4223V15.6081H9.94885H10.1347V15.8108V16.0135H12.4995H14.8644V15.8108V15.6081H15.0333H15.2022V15.4223V15.2365H15.035H14.8678L14.8576 15.0422L14.8475 14.848L12.5138 14.8393C11.2303 14.8345 10.1699 14.8408 10.1574 14.8534ZM6.62115 15.8277V16.0135H6.43534H6.24953V16.402V16.7905H6.43365H6.61777L6.6279 16.9848L6.63804 17.1791L6.84074 17.1902C6.95223 17.1964 7.21449 17.1911 7.42351 17.1784L7.80358 17.1555V16.3987V15.6419H7.21236H6.62115V15.8277ZM17.1955 16.397V17.1522L17.4742 17.1739C17.6275 17.1858 17.8852 17.1956 18.0468 17.1957L18.3407 17.1959L18.3509 17.0017L18.361 16.8074L18.5553 16.7973L18.7495 16.7872V16.4003V16.0135H18.5468H18.3441V15.8277V15.6419H17.7698H17.1955V16.397ZM10.1572 16.8131C10.1448 16.8254 10.1347 16.9167 10.1347 17.0158V17.1959H9.94885H9.76304V17.3818V17.5676H9.94716H10.1313L10.1414 17.7618L10.1516 17.9561H12.4995H14.8475L14.8576 17.7618L14.8678 17.5676H15.035H15.2022V17.3818V17.1959H15.0333H14.8644V16.9932V16.7905H12.5221C11.2337 16.7905 10.1696 16.8007 10.1572 16.8131ZM6.84919 21.106L6.65493 21.1182V21.3024V21.4865H6.45223H6.24953V21.6892V21.8919H6.06371H5.8779V22.0777V22.2635H5.6752H5.4725V22.4662V22.6689H5.28669H5.10088V22.8547V23.0405H4.89817H4.69547V23.2432V23.4459H4.49277H4.29007V23.6318V23.8176H5.2698H6.24953V23.4291V23.0405H6.43365H6.61777L6.6279 22.8463L6.63804 22.652L6.82871 22.642L7.01939 22.632L7.04344 22.2636L7.0675 21.8952L7.24128 21.8851L7.41507 21.875L7.4252 21.6807L7.43534 21.4865H7.61946H7.80358V21.2838V21.0811L7.42351 21.0875C7.21449 21.091 6.95601 21.0994 6.84919 21.106ZM9.38034 21.1034C9.36784 21.1159 9.35763 21.2072 9.35763 21.3063V21.4865H12.5012H15.6448L15.6347 21.2922L15.6245 21.098L12.5138 21.0894C10.8029 21.0846 9.3928 21.0909 9.38034 21.1034ZM17.1955 21.2838V21.4865H17.3796H17.5637L17.5739 21.6807L17.584 21.875L17.7782 21.8851L17.9725 21.8953V22.2635V22.6318L18.1668 22.6419L18.361 22.652L18.3711 22.8463L18.3813 23.0405H18.5654H18.7495V23.2432V23.4459H18.9353H19.1211V23.6318V23.8176H19.8982H20.6752V23.6318V23.4459H20.4894H20.3036V23.2432V23.0405H20.1009H19.8982V22.8547V22.6689H19.7124H19.5266V22.4662V22.2635H19.3239H19.1211V22.0777V21.8919H18.9353H18.7495V21.6892V21.4865H18.5468H18.3441V21.3057V21.1249L18.0654 21.1032C17.9121 21.0912 17.6537 21.0814 17.4911 21.0813L17.1955 21.0811V21.2838Z" fill="#26A387"/>
<path fill-rule="evenodd" clip-rule="evenodd" d="M8.58103 0.180405V0.360777L7.6942 0.383007C7.20647 0.39527 6.59836 0.405304 6.34285 0.405338L5.87832 0.405405V0.591216V0.777027H5.47292H5.06751V0.959493V1.14199L4.679 1.16625L4.29049 1.19054V1.38919V1.58784H4.10836H3.92626L3.90197 1.95946L3.87768 2.33108H3.69559H3.51346V2.9223V3.51351H3.32765H3.14184V11.1318V18.75H3.32765H3.51346V19.1554V19.5608H3.69643H3.87937L3.90339 19.9314L3.92741 20.3019L4.30322 20.3114L4.679 20.3209L4.68913 20.5152L4.69927 20.7095H5.08609H5.47292V20.9122V21.1149H5.28711H5.1013V21.3007V21.4865H4.89859H4.69589V21.6892V21.8919H4.49319H4.29049V22.0777V22.2635H4.10468H3.91886V22.4662V22.6689H3.71616H3.51346V22.8716V23.0743H3.32765H3.14184V23.2601V23.4459H2.94349H2.74511L2.72103 23.8176L2.69694 24.1892H2.53288C2.44265 24.1892 2.35907 24.205 2.34714 24.2242C2.33525 24.2435 2.3363 24.4259 2.34951 24.6296L2.37349 25H4.49349H6.61346L6.63775 24.6115L6.66201 24.223H6.84451H7.02697V24.0203V23.8176H7.21109H7.39522L7.40535 23.6233L7.41549 23.4291L7.60616 23.419L7.79684 23.409L7.82099 23.039L7.84518 22.6689H12.5205H17.1959V22.8716V23.0743H17.378H17.5601L17.5844 23.4459L17.6087 23.8176H17.7908H17.9729V24.0203V24.223H18.157H18.3412L18.3513 24.4172L18.3614 24.6115L18.5557 24.6216L18.7499 24.6318V24.8159V25H20.6882H22.6264L22.6504 24.6296C22.6636 24.4259 22.6646 24.2435 22.6528 24.2242C22.6408 24.205 22.5484 24.1892 22.4473 24.1892H22.2635V23.8176V23.4459H22.0608H21.8581V23.2618V23.0777L21.6638 23.0676L21.4695 23.0574L21.4594 22.8632L21.4493 22.6689H21.2652H21.081V22.4662V22.2635H20.8783H20.6756V22.0777V21.8919H20.4898H20.304V21.6892V21.4865H20.1013H19.8986V21.3024V21.1184L19.7212 21.1082L19.5439 21.098L19.5337 20.9037L19.5236 20.7095H19.9121H20.3006L20.3108 20.5152L20.3209 20.3209L20.701 20.3114L21.081 20.3018V20.1002V19.8986H21.2618H21.4426L21.4643 19.6199C21.4763 19.4666 21.4861 19.2082 21.4862 19.0456L21.4864 18.75H21.6722H21.8581V11.1318V3.51351H21.6722H21.4864V2.9223V2.33108H21.3043H21.1222L21.0979 1.95946L21.0736 1.58784H20.8915H20.7094V1.38919V1.19054L20.3209 1.16625L19.9324 1.14199V0.959493V0.777027H19.527H19.1216V0.591216V0.405405H18.6372C18.3708 0.405405 17.7626 0.395372 17.2858 0.383108L16.4189 0.360777V0.180405V0H12.4999H8.58103V0.180405ZM9.58609 0.801993L9.39184 0.814189V0.981419V1.14865L8.89353 1.14872C8.61944 1.14875 7.99616 1.15878 7.50839 1.17105L6.62157 1.19328V1.37365V1.55405H6.04724H5.47292V1.73581V1.91757L5.08826 1.94162L4.70359 1.96564L4.67954 2.35108L4.65545 2.73649H4.47295H4.29049V10.9459V19.1554H4.4763H4.66211V19.3412V19.527H4.86312H5.06413L5.07427 19.7213L5.0844 19.9155H12.4999H19.9155L19.9256 19.7213L19.9358 19.527H20.1368H20.3378V19.3412V19.1554H20.5236H20.7094V10.9459V2.73649H20.5269H20.3444L20.3204 2.35179L20.2964 1.96709L19.9117 1.94304L19.527 1.91902V1.73652V1.55405H18.9527H18.3783V1.37368V1.19328L17.4607 1.17098C16.956 1.15868 16.249 1.14865 15.8897 1.14865H15.2364V0.98473V0.820811L14.9577 0.799122C14.6748 0.777095 9.94248 0.779628 9.58609 0.801993ZM8.20941 2.34797V2.73649H8.59792H8.98643V2.34797V1.95946H8.59792H8.20941V2.34797ZM10.1689 2.34797V2.73649H12.4999H14.831V2.34797V1.95946H12.4999H10.1689V2.34797ZM16.0135 2.34797V2.73649H16.402H16.7905V2.34797V1.95946H16.402H16.0135V2.34797ZM5.47292 4.10473V4.29054H5.28711H5.1013V8.39527V12.5H5.28711H5.47292V12.6858V12.8716H12.4999H19.527V12.6858V12.5H19.7128H19.8986V8.39527V4.29054H19.7128H19.527V4.10473V3.91892H12.4999H5.47292V4.10473ZM6.24995 8.39527V12.0946H9.17224H12.0945V8.58108V5.06757H11.9087H11.7229V4.88176V4.69595H8.98643H6.24995V8.39527ZM13.277 4.88007V5.06419L13.0827 5.07432L12.8885 5.08446L12.8782 8.17568C12.8724 9.87584 12.8778 11.4531 12.89 11.6807L12.9121 12.0946H15.8311H18.7499V8.39527V4.69595H16.0135H13.277V4.88007ZM6.24995 14.6436V14.8277L6.05569 14.8378L5.86143 14.848L5.8513 15.0422L5.84116 15.2365H5.65704H5.47292V15.625V16.0135H5.28711H5.1013V16.402V16.7905H5.28711H5.47292V17.1791V17.5676H5.65873H5.84454V17.7703V17.973H6.04724H6.24995V18.1588V18.3446H7.02697H7.804V18.1588V17.973H8.18846H8.57292L8.59721 17.5845L8.62147 17.1959H8.80397H8.98643V16.402V15.6081H8.8043H8.62221L8.59812 15.2396L8.57403 14.8711L8.18903 14.847L7.804 14.823V14.6412V14.4595H7.02697H6.24995V14.6436ZM17.1959 14.6412V14.823L16.8109 14.847L16.4259 14.8711L16.4018 15.2396L16.3777 15.6081H16.1956H16.0135V16.402V17.1959H16.1959H16.3784L16.4027 17.5845L16.427 17.973H16.8114H17.1959V18.1588V18.3446H17.9729H18.7499V18.1588V17.973H18.9341H19.1182L19.1283 17.7787L19.1385 17.5845L19.3327 17.5743L19.527 17.5642V17.1774V16.7905H19.7128H19.8986V16.402V16.0135H19.7128H19.527V15.6267V15.2399L19.3327 15.2297L19.1385 15.2196L19.1283 15.0253L19.1182 14.8311H18.9341H18.7499V14.6453V14.4595H17.9729H17.1959V14.6412ZM10.5405 15.0507V15.2365H10.3547H10.1689V15.4392V15.6419H10.3547H10.5405V15.8277V16.0135H12.4999H14.4594V15.8277V15.6419H14.6452H14.831V15.4392V15.2365H14.6452H14.4594V15.0507V14.8649H12.4999H10.5405V15.0507ZM7.02697 15.4182V15.6L6.63846 15.6243L6.24995 15.6485V16.4223V17.1959H6.63846H7.02697V17.3818V17.5676H7.21278H7.39859V17.3834V17.1992L7.60974 17.1891L7.82089 17.1791L7.83103 16.9848L7.84116 16.7905H8.02528H8.20941V16.402V16.0135H8.02528H7.84116L7.83103 15.8193L7.82089 15.625L7.60974 15.6149L7.39859 15.6049V15.4207V15.2365H7.21278H7.02697V15.4182ZM17.5675 15.4206V15.6047L17.3733 15.6149L17.179 15.625L17.1689 15.8193L17.1587 16.0135H16.9746H16.7905V16.402V16.7905H16.9746H17.1587L17.1689 16.9848L17.179 17.1791L17.3733 17.1892L17.5675 17.1993V17.3834V17.5676H17.7702H17.9729V17.3818V17.1959H18.3614H18.7499V16.4223V15.6485L18.3614 15.6243L17.9729 15.6V15.4182V15.2365H17.7702H17.5675V15.4206ZM10.5633 16.8128C10.5508 16.8253 10.5405 16.9091 10.5405 16.9989V17.1622H10.3547H10.1689V17.3818V17.6014H10.3529H10.5369L10.5472 17.7787L10.5574 17.9561H12.4999H14.4425L14.4527 17.7787L14.463 17.6014H14.647H14.831V17.3818V17.1622H14.647H14.463L14.4527 16.9848L14.4425 16.8074L12.5143 16.7987C11.4538 16.7939 10.5758 16.8002 10.5633 16.8128ZM6.64859 20.9037L6.63846 21.098L6.4442 21.1081L6.24995 21.1182V21.4882V21.8581H6.04724H5.84454V22.0608V22.2635H5.64184H5.43913V22.4493V22.6351H5.25332H5.06751V22.8378V23.0405H4.86481H4.66211V23.2246V23.4086L4.48474 23.4188L4.30738 23.4291L4.29724 23.6233L4.28711 23.8176H4.10299H3.91886V24.0203V24.223H4.8817H5.84454V24.0372V23.8514H6.04724H6.24995V23.6486V23.4459H6.43407H6.61819L6.62832 23.2517L6.63846 23.0574L6.83272 23.0473L7.02697 23.0372V22.6503V22.2635H7.22968H7.43238V22.0608V21.8581H7.61451H7.7966L7.82079 21.4881L7.84495 21.1181L8.01873 21.1081L8.19251 21.098L8.20265 20.9037L8.21278 20.7095H7.43576H6.65873L6.64859 20.9037ZM9.35805 20.8953V21.0811H9.17224H8.98643V21.4865V21.8919H12.4999H16.0135V21.4865V21.0811H15.8276H15.6418V20.8953V20.7095H12.4999H9.35805V20.8953ZM16.7905 20.8953V21.0811H16.973H17.1555L17.1797 21.4696L17.204 21.8581H17.3858H17.5675V22.0608V22.2635H17.7702H17.9729V22.4662V22.6689H18.1547H18.3364L18.3607 23.0574L18.385 23.4459H18.5675H18.7499V23.6301V23.8142L18.9442 23.8243L19.1385 23.8345L19.1486 24.0287L19.1587 24.223H20.1199H21.081V24.0203V23.8176H20.8952H20.7094V23.6149V23.4122H20.5236H20.3378V23.2264V23.0405H20.1351H19.9324V22.8378V22.6351H19.7503H19.5682L19.544 22.2651L19.5198 21.895L19.3291 21.885L19.1385 21.875L19.1283 21.6807L19.1182 21.4865H18.9341H18.7499V21.3024V21.1182L18.5557 21.1081L18.3614 21.098L18.3513 20.9037L18.3412 20.7095H17.5658H16.7905V20.8953Z" fill="#26A387"/>
</svg>
