<svg width="25" height="25" viewBox="0 0 25 25" fill="none" xmlns="http://www.w3.org/2000/svg">
<path fill-rule="evenodd" clip-rule="evenodd" d="M5.84412 2.14417V2.32886L5.46405 2.33843L5.08398 2.34799L5.07385 2.54224L5.06371 2.7365H4.88128H4.69885L4.68871 2.93076L4.67858 3.12501L4.48432 3.13515L4.29007 3.14528V3.73481V4.32434H4.10425H3.91844V5.67569V7.02704H3.53432H3.15017L3.1352 6.08174C3.12696 5.56184 3.11358 5.13001 3.10547 5.12211C3.09736 5.11424 2.91973 5.09677 2.71067 5.08332L2.33061 5.0589V5.26593V5.47299H2.1448H1.95898V7.41221V9.35147L2.33905 9.3744C2.54811 9.38704 2.81034 9.39234 2.92182 9.3862L3.12452 9.37501L3.13405 8.97805L3.14355 8.58109H3.53101H3.91844V14.8311V21.0811H4.10425H4.29007V21.2838V21.4865H4.47419H4.65831L4.66844 21.6808L4.67858 21.875H6.24952H7.82047L7.83061 21.6808L7.84074 21.4865H8.02486H8.20898V21.2838V21.0811H8.39479H8.58061V19.9156V18.75H12.0941H15.6076V20.1183V21.4865H15.8103H16.013V21.6892V21.8919L17.4911 21.8917C18.304 21.8916 19.0945 21.8817 19.2478 21.8698L19.5266 21.8481V21.6673V21.4865H19.7074H19.8882L19.9099 21.2078C19.9218 21.0545 19.9317 19.2986 19.9318 17.3058L19.932 13.6824H20.3205H20.709V14.071V14.4595H20.9117H21.1144V14.6453V14.8311H21.2833H21.4522V14.6453V14.4595H21.6718H21.8914V12.5V10.5406H21.6718H21.4522V10.3547V10.1689H21.2833H21.1144V10.3547V10.5406H20.9117H20.709V11.5203V12.5H20.3206H19.9322L19.9236 8.20103L19.9151 3.90204L19.7409 3.89194L19.5668 3.88184L19.5426 3.49498L19.5184 3.10812H19.3367H19.1549V2.92231V2.7365H18.9522H18.7495V2.5338V2.33109H18.361H17.9725V2.14528V1.95947H11.9083H5.84412V2.14417ZM6.24952 3.32772V3.51353H6.04682H5.84412V3.69934V3.88515H5.65831H5.4725V4.47636V5.06758H12.111H18.7495V4.67907V4.29055H18.5671H18.3846L18.3603 3.90204L18.336 3.51353H17.9684H17.6009V3.32772V3.14191H11.9252H6.24952V3.32772ZM5.4725 9.76353V13.277H8.39479H11.3171V9.76353V6.25001H8.39479H5.4725V9.76353ZM12.4995 9.76353V13.277H15.6245H18.7495V9.76353V6.25001H15.6245H12.4995V9.76353ZM5.4725 16.1993V17.5676H12.111H18.7495V16.1993V14.8311H12.111H5.4725V16.1993ZM6.24952 16.1993V16.7906H7.22925H8.20898V16.5879V16.3851H8.39479H8.58061V16.1993V16.0135H8.39479H8.20898V15.8108V15.6081H7.22925H6.24952V16.1993ZM9.38017 15.6307C9.35162 15.6592 9.35138 16.1476 9.37973 16.5118L9.40142 16.7906H11.9302H14.459V16.5879V16.3851H14.6448H14.8306V16.1993V16.0135H14.6448H14.459V15.8108V15.6081H11.9308C10.5403 15.6081 9.39253 15.6183 9.38017 15.6307ZM15.6307 15.6301C15.6017 15.6591 15.6012 16.1449 15.6297 16.5118L15.6514 16.7906H16.6076H17.5637L17.5738 16.5963L17.584 16.402L17.7613 16.3918L17.9387 16.3816V16.1976V16.0135H17.7715H17.6043L17.5941 15.8193L17.584 15.625L16.6188 15.6161C16.088 15.6111 15.6433 15.6175 15.6307 15.6301ZM5.4725 19.7297V20.7095H6.24952H7.02655V19.7297V18.75H6.24952H5.4725V19.7297ZM16.7901 19.7297V20.7095H17.7698H18.7495V19.7297V18.75H17.7698H16.7901V19.7297Z" fill="#26A387"/>
<path fill-rule="evenodd" clip-rule="evenodd" d="M5.6841 2.35614L5.47295 2.36814V2.55236V2.73655H5.27024H5.06754V2.92236V3.10817H4.88173H4.69592V3.31087V3.51358H4.51511H4.3343L4.31261 3.79229C4.30068 3.94557 4.29082 4.8277 4.29072 5.75256L4.29051 7.43408L3.70774 7.42486L3.12497 7.4156L3.11602 6.44432L3.10703 5.47304H2.71906H2.33105L2.33126 7.13689C2.33136 8.05202 2.34122 8.92614 2.35315 9.07946L2.37484 9.35817H2.55565H2.73646V9.17236V8.98655H2.92227H3.10808V8.59804V8.20952H3.69923H4.29035L4.29889 14.8396L4.30741 21.4697L4.50166 21.4798L4.69592 21.4899V21.674V21.8582H6.24997H7.80403V21.6724V21.4866H7.98477H8.16555L8.18747 21.1773C8.19957 21.0072 8.20943 20.3915 8.20943 19.8091V18.7501H11.9256H15.6419V19.9325V21.1149H15.8277H16.0135V21.3007V21.4866H16.1993H16.3851V21.6724V21.8582H17.7534H19.1216V21.6724V21.4866H19.3243H19.527V17.5862V13.6859L19.7213 13.6757L19.9155 13.6656L19.9256 13.4713L19.9358 13.2771H20.3226H20.7094V13.4798V13.6825H20.8952H21.0811V14.0521C21.0811 14.2748 21.0952 14.4305 21.1167 14.4438C21.1363 14.4559 21.3111 14.455 21.5052 14.4417L21.8581 14.4177V12.5001V10.5825L21.5052 10.5584C21.3111 10.5452 21.1363 10.5443 21.1167 10.5563C21.093 10.5709 21.0811 10.9022 21.0811 11.5392V12.5001H20.304H19.527V8.00682V3.51358H19.3445H19.162L19.1378 3.12506L19.1135 2.73655H18.7459H18.3784V2.55581V2.37503L18.0691 2.3531C17.7573 2.33098 6.07673 2.33385 5.6841 2.35614ZM5.8671 3.1307C5.8547 3.14307 5.84457 3.23429 5.84457 3.33341V3.51358H5.65876H5.47295V3.71628V3.91898H5.27024H5.06754V4.5102V5.10141H5.27024H5.47295V5.28723V5.47304H12.1115H18.75V4.67912V3.8852H18.5642H18.3784V3.69939V3.51358H18.1756H17.9729V3.31087V3.10817H11.9313C8.60835 3.10817 5.87947 3.11831 5.8671 3.1307ZM5.07585 9.95783L5.08443 13.6656H8.20943H11.3344L11.3446 13.4713L11.3547 13.2771H11.5388H11.7229V9.76358V6.25006H8.39511H5.06724L5.07585 9.95783ZM12.5 9.96628V13.6825H15.625H18.75V9.96628V6.25006H15.625H12.5V9.96628ZM5.06754 16.0305V17.6014H5.27024H5.47295V17.7872V17.973H12.1115H18.75V16.2163V14.4595H11.9088H5.06754V16.0305ZM6.62159 15.8278V16.0136H6.43578H6.24997V16.1944V16.3752L6.52869 16.3969C6.99149 16.4329 8.16896 16.4233 8.19369 16.3834C8.20578 16.3638 8.20487 16.1889 8.19163 15.9949L8.16757 15.642H7.3946H6.62159V15.8278ZM9.76349 15.8278V16.0136H9.57768H9.39187V16.1944V16.3752L9.67058 16.3969C10.1606 16.435 14.4192 16.423 14.4437 16.3834C14.4558 16.3638 14.4549 16.1889 14.4416 15.9949L14.4176 15.642H12.0905H9.76349V15.8278ZM16.0135 15.8278V16.0136H15.8277H15.6419V16.1944V16.3752L15.9206 16.3969C16.0739 16.4088 16.5072 16.4187 16.8834 16.4188L17.5675 16.419V16.0305V15.642H16.7905H16.0135V15.8278ZM5.06754 19.7298V20.7095H5.27024H5.47295V20.8953V21.0811H6.26687H7.06078V20.8953V20.7095H7.24659H7.43241V19.7298V18.7501H6.24997H5.06754V19.7298ZM16.4189 19.7298V20.7095H16.6047H16.7905V20.8953V21.0811H17.7702H18.75V19.9156V18.7501H17.5844H16.4189V19.7298Z" fill="#26A387"/>
</svg>
