<svg width="251" height="250" viewBox="0 0 251 250" fill="none" xmlns="http://www.w3.org/2000/svg">
<g clip-path="url(#clip0_255_47392)">
<path opacity="0.36" d="M14.279 146.481C3.52025 127.554 -3.66171 104.97 3.18128 84.7805C9.67516 65.6196 28.5133 55.8224 47.0341 51.2131C66.4003 46.3932 86.732 45.8436 106.306 41.7468C126.84 37.4495 147.024 31.456 166.542 23.7568C175.394 20.2651 184.147 16.4114 193.37 14.0669C209.996 9.84055 230.398 12.5085 241.259 27.1175C252.6 42.3721 253.114 64.4521 244.925 81.2517C235.569 100.444 218.787 115.492 212.624 136.337C208.89 148.972 209.769 162.7 205.36 175.097C201.042 187.238 194.511 198.7 185.554 208.023C175.331 218.663 161.848 226.395 147.262 228.624C127.123 231.7 106.84 224.305 88.7693 214.899C64.6068 202.322 42.0831 185.517 25.5922 163.634C21.6825 158.446 17.791 152.658 14.2797 146.482L14.279 146.481Z" fill="#E9E9F2"/>
<path d="M245.554 232.666H5.44729C4.04283 232.666 2.9043 233.804 2.9043 235.209C2.9043 236.613 4.04283 237.751 5.44729 237.751H245.554C246.958 237.751 248.096 236.613 248.096 235.209C248.096 233.804 246.958 232.666 245.554 232.666Z" fill="#141921"/>
<path d="M219.615 67.0073C229.971 67.0073 238.367 58.6119 238.367 48.2556C238.367 37.8993 229.971 29.5039 219.615 29.5039C209.259 29.5039 200.863 37.8993 200.863 48.2556C200.863 58.6119 209.259 67.0073 219.615 67.0073Z" fill="#FEC253"/>
<path d="M213.006 44.6246C214.214 44.6246 215.194 43.6451 215.194 42.4368C215.194 41.2285 214.214 40.249 213.006 40.249C211.798 40.249 210.818 41.2285 210.818 42.4368C210.818 43.6451 211.798 44.6246 213.006 44.6246Z" fill="white"/>
<path d="M226.215 44.6246C227.423 44.6246 228.403 43.6451 228.403 42.4368C228.403 41.2285 227.423 40.249 226.215 40.249C225.007 40.249 224.027 41.2285 224.027 42.4368C224.027 43.6451 225.007 44.6246 226.215 44.6246Z" fill="white"/>
<path d="M208.695 48.2705C208.693 48.3509 208.691 48.4312 208.691 48.5116C208.691 54.5443 213.582 59.4344 219.614 59.4344C225.647 59.4344 230.537 54.5443 230.537 48.5116C230.537 48.4312 230.536 48.3509 230.534 48.2705H208.695Z" fill="white"/>
<path d="M41.0259 141.69C47.4325 141.69 52.626 136.496 52.626 130.089C52.626 123.683 47.4325 118.489 41.0259 118.489C34.6193 118.489 29.4258 123.683 29.4258 130.089C29.4258 136.496 34.6193 141.69 41.0259 141.69Z" fill="#393B50"/>
<path d="M36.9379 127.91C37.6856 127.91 38.2917 127.304 38.2917 126.556C38.2917 125.808 37.6856 125.202 36.9379 125.202C36.1901 125.202 35.584 125.808 35.584 126.556C35.584 127.304 36.1901 127.91 36.9379 127.91Z" fill="white"/>
<path d="M45.1078 127.91C45.8555 127.91 46.4617 127.304 46.4617 126.556C46.4617 125.808 45.8555 125.202 45.1078 125.202C44.3601 125.202 43.7539 125.808 43.7539 126.556C43.7539 127.304 44.3601 127.91 45.1078 127.91Z" fill="white"/>
<path d="M47.7826 136.923C47.7826 133.191 44.7575 130.166 41.0261 130.166C37.2947 130.166 34.2695 133.191 34.2695 136.923" stroke="white" stroke-width="1.39493" stroke-miterlimit="10" stroke-linecap="round"/>
<path d="M35.5617 191.874C36.1248 193.667 39.1148 194.323 42.2399 193.341C45.3643 192.359 47.44 190.11 46.8762 188.316C46.313 186.524 43.3237 185.868 40.1986 186.85C37.0736 187.833 34.9978 190.082 35.561 191.874H35.5617ZM29.1016 191.664C30.9754 191.521 32.2921 188.758 32.0423 185.492C31.7931 182.226 30.0719 179.695 28.1981 179.838C26.3249 179.981 25.0082 182.744 25.258 186.01C25.5072 189.276 27.2284 191.807 29.1016 191.664ZM26.8692 202.893C28.3554 201.673 27.9124 198.675 25.8786 196.198C23.8454 193.722 20.9931 192.703 19.5062 193.924C18.02 195.144 18.463 198.14 20.4968 200.617C22.53 203.095 25.383 204.113 26.8692 202.894V202.893ZM26.6322 211.427C27.458 210.063 26.1939 207.786 23.8076 206.342C21.4226 204.898 18.8188 204.833 17.993 206.198C17.1672 207.562 18.4312 209.839 20.8176 211.282C23.2032 212.727 25.8063 212.791 26.6322 211.427ZM37.9257 202.245C38.0783 203.861 40.5741 204.948 43.4986 204.672C46.4238 204.395 48.671 202.86 48.5184 201.243C48.3651 199.627 45.8701 198.541 42.9455 198.818C40.0204 199.095 37.7731 200.629 37.9257 202.245V202.245ZM36.3456 210.658C36.4598 211.859 38.3147 212.667 40.489 212.462C42.664 212.256 44.3345 211.115 44.2211 209.913C44.107 208.711 42.2521 207.904 40.0778 208.11C37.9028 208.315 36.2322 209.456 36.345 210.658L36.3456 210.658Z" fill="#FEC253"/>
<path d="M32.5378 197.177C31.9604 196.587 29.223 191.638 29.0508 190.874L29.6437 190.74C29.7861 191.374 32.4925 196.262 32.972 196.752L32.5371 197.177H32.5378ZM33.051 206.12L32.5243 205.817C33.7816 203.632 37.5731 201.881 38.5475 201.724L38.6441 202.324C37.8398 202.453 34.2198 204.09 33.051 206.12ZM32.8295 212.985L32.3014 212.684C33.057 211.36 36.0471 210.311 36.8452 210.311C36.856 210.311 36.8661 210.311 36.8756 210.311L36.8526 210.918C36.8459 210.918 36.8384 210.918 36.8317 210.918C36.1848 210.918 33.4467 211.903 32.8295 212.984V212.985Z" fill="#0FB79B"/>
<path d="M30.1291 218.683L30.3256 217.542C31.7598 209.214 28.2762 205.257 26.6023 203.355C26.2896 203.001 26.0432 202.72 25.8926 202.484L26.4051 202.157C26.5307 202.354 26.7637 202.619 27.0587 202.954C27.9298 203.943 29.2459 205.438 30.1865 207.8C31.1784 210.29 31.4904 213.154 31.1163 216.328C32.8868 213.158 32.6248 208.548 32.3703 204.074C32.0326 198.133 31.7139 192.521 36.7364 191.933L36.8073 192.536C32.3534 193.059 32.6431 198.147 32.9773 204.039C33.1191 206.536 33.2656 209.118 33.0455 211.501C32.793 214.237 32.0779 216.293 30.8611 217.786L30.1298 218.683H30.1291Z" fill="#0FB79B"/>
<path d="M30.7367 214.818C29.3254 213.516 26.8959 211.563 25.9863 211.527L26.0106 210.92C27.4334 210.977 30.7732 214.024 31.1493 214.372L30.7367 214.818Z" fill="#0FB79B"/>
<path d="M41.6632 215.647H18.571C18.4304 215.647 18.3164 215.761 18.3164 215.902V221.041C18.3164 221.182 18.4304 221.296 18.571 221.296H41.6632C41.8038 221.296 41.9178 221.182 41.9178 221.041V215.902C41.9178 215.761 41.8038 215.647 41.6632 215.647Z" fill="#50827C"/>
<path d="M34.9824 234.526H25.2534C24.5578 234.526 23.9494 234.059 23.7698 233.388L20.5293 221.296H39.7064L36.4659 233.388C36.2863 234.059 35.6772 234.526 34.9824 234.526Z" fill="#393B50"/>
<path d="M21.8447 226.206L39.7057 221.296H20.5293L21.8447 226.206Z" fill="#232533"/>
<path d="M208.955 38.5352H47.7873C45.2663 38.5352 43.2227 40.5788 43.2227 43.0998V161.452C43.2227 163.973 45.2663 166.017 47.7873 166.017H208.955C211.476 166.017 213.519 163.973 213.519 161.452V43.0998C213.519 40.5788 211.476 38.5352 208.955 38.5352Z" fill="#21242D"/>
<path d="M214.734 38.5342H53.5666C51.0456 38.5342 49.002 40.5779 49.002 43.0989V161.451C49.002 163.972 51.0456 166.016 53.5666 166.016H214.734C217.255 166.016 219.299 163.972 219.299 161.451V43.0989C219.299 40.5779 217.255 38.5342 214.734 38.5342Z" fill="#414558"/>
<path d="M212.22 41.5742H56.0797C53.8492 41.5742 52.041 43.3824 52.041 45.6129V158.938C52.041 161.169 53.8492 162.977 56.0797 162.977H212.22C214.45 162.977 216.259 161.169 216.259 158.938V45.6129C216.259 43.3824 214.45 41.5742 212.22 41.5742Z" fill="white"/>
<path d="M187.227 78.1738C194.758 78.1738 200.863 72.0684 200.863 64.5371C200.863 57.0057 194.758 50.9004 187.227 50.9004C179.695 50.9004 173.59 57.0057 173.59 64.5371C173.59 72.0684 179.695 78.1738 187.227 78.1738Z" fill="#E9E9F2"/>
<path d="M187.227 114.077C194.758 114.077 200.863 107.972 200.863 100.44C200.863 92.9091 194.758 86.8037 187.227 86.8037C179.695 86.8037 173.59 92.9091 173.59 100.44C173.59 107.972 179.695 114.077 187.227 114.077Z" fill="#E9E9F2"/>
<path d="M187.227 148.901C194.758 148.901 200.863 142.796 200.863 135.265C200.863 127.733 194.758 121.628 187.227 121.628C179.695 121.628 173.59 127.733 173.59 135.265C173.59 142.796 179.695 148.901 187.227 148.901Z" fill="#E9E9F2"/>
<path d="M121.596 54.1689H66.6375C65.3718 54.1689 64.3457 55.195 64.3457 56.4607V57.9693C64.3457 59.235 65.3718 60.2611 66.6375 60.2611H121.596C122.862 60.2611 123.888 59.235 123.888 57.9693V56.4607C123.888 55.195 122.862 54.1689 121.596 54.1689Z" fill="#51837D"/>
<path d="M127.172 63.4531H65.3268C64.785 63.4531 64.3457 63.8924 64.3457 64.4343C64.3457 64.9761 64.785 65.4154 65.3268 65.4154H127.172C127.714 65.4154 128.153 64.9761 128.153 64.4343C128.153 63.8924 127.714 63.4531 127.172 63.4531Z" fill="#E9E9F2"/>
<path d="M127.172 72.2129H65.3268C64.785 72.2129 64.3457 72.6522 64.3457 73.194C64.3457 73.7359 64.785 74.1752 65.3268 74.1752H127.172C127.714 74.1752 128.153 73.7359 128.153 73.194C128.153 72.6522 127.714 72.2129 127.172 72.2129Z" fill="#E9E9F2"/>
<path d="M161.349 63.4531H130.292C129.899 63.4531 129.58 63.7721 129.58 64.1655V64.703C129.58 65.0965 129.899 65.4154 130.292 65.4154H161.349C161.742 65.4154 162.061 65.0965 162.061 64.703V64.1655C162.061 63.7721 161.742 63.4531 161.349 63.4531Z" fill="#E9E9F2"/>
<path d="M99.2339 69.7949L161.079 69.7949C161.621 69.7949 162.061 69.3556 162.061 68.8138C162.061 68.2719 161.621 67.8326 161.079 67.8326L99.2339 67.8326C98.692 67.8326 98.2528 68.2719 98.2528 68.8138C98.2528 69.3556 98.692 69.7949 99.2339 69.7949Z" fill="#E9E9F2"/>
<path d="M65.0557 69.7949H96.1118C96.5053 69.7949 96.8242 69.476 96.8242 69.0825V68.545C96.8242 68.1516 96.5053 67.8326 96.1118 67.8326H65.0557C64.6623 67.8326 64.3433 68.1516 64.3433 68.545V69.0825C64.3433 69.476 64.6623 69.7949 65.0557 69.7949Z" fill="#E9E9F2"/>
<path d="M121.594 90.0977H66.6356C65.3698 90.0977 64.3438 91.1237 64.3438 92.3895V93.898C64.3438 95.1637 65.3698 96.1898 66.6356 96.1898H121.594C122.86 96.1898 123.886 95.1637 123.886 93.898V92.3895C123.886 91.1237 122.86 90.0977 121.594 90.0977Z" fill="#51837D"/>
<path d="M127.17 99.3828H65.3249C64.783 99.3828 64.3438 99.8221 64.3438 100.364C64.3438 100.906 64.783 101.345 65.3249 101.345H127.17C127.712 101.345 128.152 100.906 128.152 100.364C128.152 99.8221 127.712 99.3828 127.17 99.3828Z" fill="#E9E9F2"/>
<path d="M127.17 108.141H65.3249C64.783 108.141 64.3438 108.58 64.3438 109.122C64.3438 109.664 64.783 110.103 65.3249 110.103H127.17C127.712 110.103 128.152 109.664 128.152 109.122C128.152 108.58 127.712 108.141 127.17 108.141Z" fill="#E9E9F2"/>
<path d="M161.349 99.3828H130.292C129.899 99.3828 129.58 99.7018 129.58 100.095V100.633C129.58 101.026 129.899 101.345 130.292 101.345H161.349C161.742 101.345 162.061 101.026 162.061 100.633V100.095C162.061 99.7018 161.742 99.3828 161.349 99.3828Z" fill="#E9E9F2"/>
<path d="M99.2339 105.725L161.079 105.725C161.621 105.725 162.061 105.285 162.061 104.743C162.061 104.202 161.621 103.762 161.079 103.762L99.2339 103.762C98.692 103.762 98.2528 104.202 98.2528 104.743C98.2528 105.285 98.692 105.725 99.2339 105.725Z" fill="#E9E9F2"/>
<path d="M65.0557 105.725H96.1118C96.5053 105.725 96.8242 105.406 96.8242 105.012V104.475C96.8242 104.081 96.5053 103.762 96.1118 103.762H65.0557C64.6623 103.762 64.3433 104.081 64.3433 104.475V105.012C64.3433 105.406 64.6623 105.725 65.0557 105.725Z" fill="#E9E9F2"/>
<path d="M121.594 125.261H66.6356C65.3698 125.261 64.3438 126.287 64.3438 127.553V129.061C64.3438 130.327 65.3698 131.353 66.6356 131.353H121.594C122.86 131.353 123.886 130.327 123.886 129.061V127.553C123.886 126.287 122.86 125.261 121.594 125.261Z" fill="#51837D"/>
<path d="M127.17 134.546H65.3249C64.783 134.546 64.3438 134.985 64.3438 135.527C64.3438 136.069 64.783 136.508 65.3249 136.508H127.17C127.712 136.508 128.152 136.069 128.152 135.527C128.152 134.985 127.712 134.546 127.17 134.546Z" fill="#E9E9F2"/>
<path d="M127.17 143.305H65.3249C64.783 143.305 64.3438 143.744 64.3438 144.286C64.3438 144.828 64.783 145.267 65.3249 145.267H127.17C127.712 145.267 128.152 144.828 128.152 144.286C128.152 143.744 127.712 143.305 127.17 143.305Z" fill="#E9E9F2"/>
<path d="M161.349 134.546H130.292C129.899 134.546 129.58 134.865 129.58 135.258V135.796C129.58 136.189 129.899 136.508 130.292 136.508H161.349C161.742 136.508 162.061 136.189 162.061 135.796V135.258C162.061 134.865 161.742 134.546 161.349 134.546Z" fill="#E9E9F2"/>
<path d="M99.2339 140.887H161.079C161.621 140.887 162.061 140.447 162.061 139.906C162.061 139.364 161.621 138.924 161.079 138.924H99.2339C98.692 138.924 98.2528 139.364 98.2528 139.906C98.2528 140.447 98.692 140.887 99.2339 140.887Z" fill="#E9E9F2"/>
<path d="M65.0557 140.887H96.1118C96.5053 140.887 96.8242 140.568 96.8242 140.174V139.637C96.8242 139.243 96.5053 138.924 96.1118 138.924H65.0557C64.6623 138.924 64.3433 139.243 64.3433 139.637V140.174C64.3433 140.568 64.6623 140.887 65.0557 140.887Z" fill="#E9E9F2"/>
<path d="M178.49 66.3316L183.225 71.0671L195.965 58.3271" stroke="#6DC38D" stroke-width="6.87216" stroke-miterlimit="10" stroke-linecap="round"/>
<path d="M178.49 102.338L183.225 107.074L195.965 94.334" stroke="#6DC38D" stroke-width="6.87216" stroke-miterlimit="10" stroke-linecap="round"/>
<path d="M178.49 137.138L183.225 141.874L195.965 129.134" stroke="#6DC38D" stroke-width="6.87216" stroke-miterlimit="10" stroke-linecap="round"/>
<path d="M182.215 193.542L191.762 203.089L217.446 177.404" stroke="#6DC38D" stroke-width="13.8542" stroke-miterlimit="10" stroke-linecap="round"/>
<path d="M157.869 187.386L167.416 196.933L193.101 171.248" stroke="#6DC38D" stroke-width="13.8542" stroke-miterlimit="10" stroke-linecap="round"/>
<path d="M208.373 194.712H155.965V232.936H208.373V194.712Z" fill="#DDB16C"/>
<path d="M208.372 194.712H191.287V232.936H208.372V194.712Z" fill="#AA8650"/>
<path d="M201.9 194.712H197.764V204.594H201.9V194.712Z" fill="#E8C0A6"/>
<path d="M175.894 194.712H171.758V204.594H175.894V194.712Z" fill="#51837D"/>
<path d="M81.7963 154.31C81.7963 154.31 82.0745 152.718 82.3993 149.711C82.7025 146.907 82.9902 144.022 84.0017 141.398C85.0558 138.664 86.9735 136.604 89.5097 135.516C92.0351 134.433 94.8638 134.166 97.5243 134.809C100.928 135.632 103.747 138.134 105.38 141.463C106.465 143.673 107.093 146.114 107.539 148.568C108.082 151.553 108.132 151.583 108.69 153.868C110.409 160.912 112.605 163.905 111.203 165.466C110.548 166.195 109.413 166.274 108.968 166.305C107.026 166.44 105.633 165.145 105.329 164.85C104.033 170.089 101.254 173.846 98.6067 174.052C98.1468 174.088 97.0131 174.068 95.7119 173.738C94.412 173.409 93.2074 172.834 92.1499 172.066C91.684 172.162 91.2053 172.222 90.7137 172.237C86.3252 172.375 82.6222 169.113 82.1272 164.83C81.72 165.029 81.1103 165.252 80.7254 164.989C80.1163 164.573 80.4208 163.182 80.5559 162.534C80.9273 160.756 81.352 158.209 81.7956 154.31H81.7963Z" fill="#121212"/>
<path d="M120.521 215.733C119.401 213.464 117.181 211.943 114.662 211.717C114.662 211.717 106.457 212.56 94.1074 212.963C81.7577 213.365 80.3951 212.404 80.3951 212.404C79.7401 213.751 79.1803 215.141 78.7191 216.566C78.2275 216.968 76.4293 218.459 75.6136 219.174C74.6642 220.006 70.7768 221.364 71.7762 226.061C72.7762 230.759 78.8143 232.138 86.1313 233.155C93.108 234.121 105.2 233.635 111.049 231.847C113.283 231.417 115.16 230.792 116.399 229.92C121.019 226.675 122.487 219.609 120.522 215.733H120.521Z" fill="#414042"/>
<path d="M89.1964 162.694C89.1673 161.93 89.089 161.169 88.9627 160.414C94.4762 161.86 98.001 159.067 98.001 159.067C98.001 159.067 98.028 159.656 98.0908 160.369C97.6296 160.81 97.1299 161.215 96.6005 161.573C95.3047 162.447 93.8286 163.035 92.2775 163.151C91.237 163.23 90.1721 163.073 89.1971 162.695L89.1964 162.694ZM114.685 211.728L112.624 212.527C110.557 213.32 99.3353 214.583 90.6333 214.761C81.9307 214.94 79.9029 213.086 79.9029 213.086C79.9029 213.086 84.606 195.145 84.4723 193.827C84.3379 192.508 81.8915 184.918 81.8915 184.918C81.8915 184.918 79.5342 200.016 78.9197 200.278C78.3944 200.501 60.6441 205.59 56.1476 206.305C55.7782 206.517 55.1145 206.892 54.394 207.277C53.5857 207.619 52.693 207.704 51.8354 207.523L50.7186 203.227L50.9421 202.362C50.4573 201.778 50.3425 200.969 50.6463 200.273C51.0143 199.663 51.2885 201.217 51.9813 202.054C52.6741 202.892 53.115 202.467 53.8578 202.892C54.6006 203.317 55.4777 203.735 55.4777 203.735L55.55 203.914L73.4245 196.239C73.4245 196.239 73.8594 195.178 74.089 188.046C74.3071 181.298 74.5475 177.014 75.5138 174.322C76.4801 171.63 81.485 170.389 84.9139 168.837C88.1848 167.356 88.8743 166.769 89.1248 165.023C90.1208 165.421 91.2113 165.588 92.2775 165.508C93.8293 165.391 95.3054 164.803 96.6005 163.929C97.2447 163.494 97.8463 162.988 98.3865 162.433C98.4162 162.402 98.4459 162.372 98.475 162.341C98.8302 163.45 99.3704 164.494 100.078 165.428C101.044 166.63 103.301 166.68 106.781 167.925C110.261 169.171 111.278 169.221 112.082 173.287C112.887 177.354 110.468 182.381 110.468 182.381L107.871 193.698C107.871 193.698 109.546 198.367 110.663 200.73C111.78 203.059 114.685 211.727 114.685 211.727V211.728ZM106.631 233.685C108.189 233.685 110.753 233.825 114.518 233.473C117.984 233.26 120.68 230.377 120.662 226.904C120.701 225.503 118.115 223.369 115.853 224.453C113.59 225.536 109.429 229.429 105.899 229.776" fill="#F2A397"/>
<path d="M105.898 229.774C105.898 229.774 88.3655 225.417 81.2713 220.15C74.1778 214.883 69.8096 210.604 64.3469 209.432C58.8841 208.259 54.7063 211.308 54.7286 215.358C54.7509 219.407 57.5214 222.105 64.492 225.802C71.4627 229.5 81.975 231.813 89.3703 232.969C96.7656 234.125 105.071 233.684 106.63 233.684" fill="#58595B"/>
<path d="M115.863 224.436C114.187 225.24 111.478 227.58 108.747 228.905C108.503 229.321 108.492 229.835 108.719 230.262C109.183 231.051 109.848 231.702 110.647 232.15C110.647 232.15 109.53 233.435 106.631 233.675C108.195 233.63 110.753 233.814 114.518 233.462C117.984 233.249 120.68 230.366 120.662 226.894C120.712 225.486 118.126 223.353 115.864 224.436H115.863Z" fill="#273339" stroke="#273339" stroke-width="6.27348" stroke-linecap="round" stroke-linejoin="round"/>
<path d="M61.1864 232.987C60.628 232.691 60.0695 232.373 59.5719 232.088C58.1255 231.2 56.0531 229.853 55.9525 227.62C55.8796 226.083 57.0694 224.492 57.796 223.648C56.2935 223.978 55.0423 225.257 55.0423 226.218C54.9342 229.693 57.5603 232.648 61.0243 232.949L61.1864 232.988V232.987Z" fill="white" stroke="#273339" stroke-width="6.27348" stroke-linecap="round" stroke-linejoin="round"/>
<path d="M119.298 183.366C118.976 182.234 118.656 181.142 118.348 180.129C118.53 180.538 118.707 180.994 118.864 181.494C119.072 182.159 119.209 182.789 119.298 183.365V183.366Z" fill="#408FCD"/>
<path d="M110.663 200.703C111.78 203.059 114.662 211.717 114.662 211.717L112.601 212.516C110.534 213.309 99.2956 214.554 90.5937 214.734C81.8911 214.912 79.8633 213.058 79.8633 213.058C79.8633 213.058 84.5664 195.117 84.4327 193.799C84.2983 192.481 81.8519 184.89 81.8519 184.89C81.8512 184.889 81.8505 184.888 81.8499 184.888C81.8033 184.888 81.517 186.718 80.9909 190.375C78.7248 189.791 76.4593 189.206 74.1946 188.622C74.0912 186.576 74.0595 183.663 74.414 180.181C74.7672 176.719 74.963 174.955 75.9489 173.385C78.1819 169.826 82.8371 169.025 84.8858 168.81C85.2828 168.631 85.64 168.463 85.9635 168.307C86.1276 168.569 89.0474 173.061 94.3825 173.021C98.2659 172.992 101.822 170.574 103.391 166.883L104.569 167.201C105.821 167.217 108.562 167.423 111.392 169.146C112.193 169.634 114.41 171.1 115.945 173.748C116.135 174.078 116.267 174.342 116.405 174.619C116.888 175.591 117.583 177.621 118.348 180.129C118.348 180.129 118.348 180.13 118.349 180.131C118.658 181.144 118.977 182.236 119.299 183.368C119.353 183.715 119.388 184.042 119.413 184.346C116.8 185.37 114.188 186.393 111.575 187.415C111.388 187.013 111.202 186.611 111.015 186.208C110.697 185.521 110.379 184.834 110.06 184.147C109.998 184.419 109.029 188.633 108.966 188.908C108.903 189.18 107.934 193.394 107.871 193.67C107.871 193.67 109.547 198.345 110.663 200.703H110.663Z" fill="#51837D"/>
<path d="M118.773 202.824C117.796 202.269 113.777 192.881 111.015 186.206C111.202 186.609 111.387 187.011 111.574 187.414C114.187 186.391 116.799 185.368 119.412 184.345C119.388 184.04 119.352 183.713 119.298 183.367C120.86 188.865 122.46 195.302 123.001 198.278C123.928 203.383 120.298 203.69 118.773 202.824V202.824ZM99.1875 156.104C100.437 156.921 102.128 157.017 103.454 156.329C104.575 155.749 105.394 154.628 105.631 153.392C105.674 153.168 105.698 152.94 105.702 152.708C105.708 152.305 105.65 151.899 105.502 151.525C105.129 150.602 104.16 149.973 103.167 149.94C102.172 149.907 101.193 150.44 100.622 151.255L100.071 153.12L99.1875 156.105V156.104Z" fill="#F2A397"/>
<path d="M103.305 149.167C103.262 149.733 103.192 150.143 103.124 150.538C103.124 150.538 102.14 156.264 98.3851 160.078C98.2386 160.227 98.0893 160.368 98.0893 160.368C98.0893 160.368 97.3587 161.061 96.5991 161.572C95.9306 162.022 92.6002 163.621 89.962 162.941C85.1806 161.707 83.4722 153.189 84.2967 147.369C84.5728 145.417 84.824 143.645 86.211 142.093C90.1997 137.63 100.108 138.876 102.327 143.094C102.94 144.261 103.497 146.668 103.305 149.166V149.167Z" fill="#F2A397"/>
<path d="M98.4752 162.341C98.4462 162.372 98.4164 162.403 98.3867 162.434C97.8465 162.988 97.2449 163.494 96.6007 163.929C95.3049 164.803 93.8288 165.391 92.2777 165.508C91.2115 165.587 90.1203 165.42 89.125 165.023C89.1378 164.938 89.1486 164.85 89.1594 164.759C89.2114 164.072 89.2243 163.382 89.1973 162.694C90.173 163.073 91.2379 163.229 92.2777 163.151C93.8295 163.035 95.3056 162.447 96.6007 161.572C97.1294 161.215 97.6291 160.809 98.091 160.368C98.1139 160.624 98.1416 160.896 98.174 161.162C98.2517 161.561 98.3523 161.956 98.4752 162.342V162.341Z" fill="#C67F77"/>
<path d="M83.8301 147.584C87.8613 148.399 90.1153 147.619 91.4375 146.723C94.0594 144.947 94.9569 144.575 96.7523 143.833C97.0076 143.727 97.5816 143.506 98.0637 143.756C98.3412 143.9 98.5134 144.187 98.6363 144.475C98.9489 145.209 99.0225 146.026 98.9888 146.824C98.9483 147.787 98.7767 148.832 99.2879 149.649C99.6465 150.223 100.327 150.579 101.003 150.546C101.636 150.515 102.208 150.176 102.814 149.991C103.42 149.805 104.189 149.826 104.558 150.341C104.751 147.717 104.715 144.977 103.57 142.606C102.526 140.446 100.615 138.743 98.3892 137.846C96.1635 136.95 93.6469 136.846 91.3233 137.443C89.935 137.801 88.9917 138.374 88.8128 138.48C84.6633 140.944 83.9435 146.574 83.8301 147.584ZM88.2921 152.466C88.2003 152.866 87.8019 153.115 87.4022 153.024C87.0024 152.932 86.7532 152.534 86.8451 152.134C86.9369 151.734 87.3353 151.485 87.7351 151.576C88.1348 151.668 88.384 152.067 88.2928 152.466H88.2921ZM94.5679 152.395C94.4761 152.795 94.0777 153.044 93.6779 152.953C93.2782 152.861 93.029 152.462 93.1202 152.063C93.212 151.663 93.6104 151.414 94.0102 151.505C94.4099 151.597 94.6591 151.995 94.5672 152.395L94.5679 152.395Z" fill="#121212"/>
<path d="M89.5927 153.76L88.9141 155.55L90.1126 155.833" stroke="#D3603A" stroke-width="1.337" stroke-linecap="round" stroke-linejoin="round"/>
<path d="M92.451 146.693C92.3369 147.191 92.6752 147.677 93.1816 147.742C93.946 147.84 95.0521 148.054 96.0427 148.52C96.4114 148.693 96.8496 148.558 97.0367 148.197C97.2163 147.85 97.0751 147.461 96.7692 147.218C96.1433 146.722 95.1486 145.985 93.3167 146.023C92.9055 146.031 92.5435 146.293 92.4517 146.693H92.451ZM88.8114 146.755C88.86 147.251 88.6102 147.724 88.2719 147.775C87.7614 147.853 87.0193 148.036 86.34 148.473C86.0875 148.635 85.8052 148.49 85.7005 148.127C85.6006 147.779 85.7154 147.397 85.9301 147.165C86.3704 146.689 87.0673 145.984 88.276 146.068C88.5474 146.087 88.7723 146.355 88.8114 146.755Z" fill="#121212"/>
<path d="M89 157.401L93.1379 156.934C93.1379 156.934 93.3972 158.536 91.2905 158.786C89.1837 159.038 89 157.401 89 157.401Z" fill="white"/>
<path d="M68.888 233.389C66.2573 233.381 63.6292 233.241 61.0126 232.97C57.5486 232.67 54.9225 229.715 55.0306 226.239C55.0306 224.838 57.6728 222.776 59.9011 223.921C62.1295 225.066 66.2127 229.077 69.7375 229.54" fill="#F2A397"/>
<path d="M69.7368 229.54C69.7368 229.54 87.3703 225.631 94.6096 220.559C101.848 215.487 106.339 211.32 111.797 210.292C117.254 209.265 121.382 212.426 121.259 216.476C121.136 220.525 118.293 223.145 111.205 226.652C104.117 230.16 93.5657 232.193 86.1427 233.154C78.7196 234.115 70.4471 233.472 68.8887 233.388" fill="#58595B"/>
<path d="M64.3471 232.395C65.1162 231.858 65.7982 231.206 66.3688 230.462C66.9272 229.585 66.2459 228.311 66.1453 228.127C63.7266 226.714 61.4199 224.681 59.9343 223.921C57.6999 222.804 55.0638 224.837 55.0638 226.239C54.9557 229.715 57.5818 232.669 61.0458 232.97C63.0223 233.202 65.0102 233.327 67.0002 233.344C65.464 232.886 64.3471 232.395 64.3471 232.395Z" fill="#273339" stroke="#273339" stroke-width="6.27348" stroke-linecap="round" stroke-linejoin="round"/>
<path d="M81.271 211.209L92.884 201.428L63.4532 199.026L51.9023 208.416L81.271 211.209Z" fill="#B8B8D2"/>
<path d="M51.9022 208.416L81.2709 211.209L76.6684 190.184L46.875 188.285L51.9022 208.416Z" fill="#E9E9F2"/>
<path d="M50.6387 206.103C50.7238 206.66 50.9837 207.177 51.3814 207.577C52.0067 208.136 53.3977 208.086 53.6773 207.622C53.9569 207.158 53.3532 207.063 52.5604 206.734C51.9365 206.476 51.2943 206.265 50.6387 206.103Z" fill="#F2A397"/>
<path d="M50.4615 205.55C50.4615 205.55 50.1151 206.165 51.6399 206.622C53.1646 207.08 53.9688 206.556 54.1309 205.986C54.272 205.603 54.0775 205.179 53.6953 205.038C53.6393 205.017 53.5812 205.004 53.5218 204.997C53.1869 204.997 50.9747 205.299 50.7289 205.31C50.4832 205.321 50.3825 205.103 50.4609 205.55H50.4615Z" fill="#F2A397"/>
<path d="M49.8242 203.769C49.8242 203.769 49.8242 205.087 50.0477 205.416C50.2712 205.746 52.2821 206.07 53.2147 205.5C54.1472 204.93 53.8906 203.885 53.293 203.914C52.6954 203.941 49.8242 203.769 49.8242 203.769Z" fill="#F2A397"/>
<path d="M50.0707 201.009C50.0707 201.009 48.8809 203.36 49.7189 204.031C50.5569 204.701 52.981 204.488 53.3436 203.561C53.7069 202.634 52.7852 202.779 51.7797 202.623L50.5062 202.421L50.0707 201.008V201.009ZM118.796 196.518C114.871 197.632 110.825 198.26 106.748 198.389C100.38 198.524 100.453 198.518 98.0904 197.77C95.7277 197.021 91.5162 195.535 89.9523 195.301C88.3884 195.067 87.4836 194.603 86.9583 195.223C82.3443 200.668 81.6629 200.847 81.7582 201.305C81.8534 201.763 83.9088 200.747 83.9088 200.747C83.9088 200.747 82.7528 202.669 83.2221 202.724C83.7785 202.679 84.3248 202.549 84.842 202.338C84.842 202.338 84.8758 203.115 85.4903 203.009C86.069 202.823 86.6098 202.536 87.0879 202.16C87.0879 202.16 86.3951 204.059 87.2223 203.4C88.0488 202.741 90.2886 200.696 90.5175 200.607C90.7464 200.518 92.8019 201.205 93.8688 201.232C94.754 201.209 95.6339 201.092 96.4941 200.881C96.4941 200.881 103.688 203.433 110.107 204.232C116.524 205.031 121.68 203.941 122.864 202.64C124.048 201.339 122.937 199.06 122.306 197.3" fill="#F2A397"/>
<path d="M83.8962 201.008C83.8368 201.008 83.7773 200.989 83.7267 200.951C83.6045 200.857 83.5808 200.682 83.6747 200.559C83.6976 200.53 85.9678 197.565 86.8504 196.521C86.9497 196.404 87.1259 196.389 87.2441 196.488C87.3616 196.588 87.3764 196.764 87.2771 196.882C86.4034 197.915 84.1413 200.869 84.119 200.898C84.0636 200.97 83.9813 201.008 83.8968 201.008L83.8962 201.008ZM84.8402 202.611C84.7814 202.611 84.7227 202.593 84.672 202.555C84.5491 202.462 84.5248 202.287 84.6173 202.164L88.8734 196.528C88.9666 196.405 89.1415 196.38 89.2644 196.473C89.3873 196.567 89.4116 196.741 89.3191 196.864L85.063 202.5C85.0083 202.573 84.9246 202.611 84.8402 202.611V202.611ZM87.0854 202.433C87.0266 202.433 86.9665 202.414 86.9159 202.376C86.793 202.282 86.77 202.107 86.8632 201.984C86.87 201.975 87.5358 201.104 88.259 200.231C89.7803 198.397 90.0653 198.344 90.2179 198.315C90.3705 198.287 90.5156 198.388 90.5433 198.539C90.571 198.688 90.4751 198.831 90.3279 198.863C89.993 198.993 88.5014 200.757 87.3069 202.323C87.2522 202.395 87.1691 202.433 87.0847 202.433H87.0854ZM90.3239 198.864C90.3239 198.864 90.3212 198.864 90.3205 198.865C90.3218 198.865 90.3232 198.865 90.3239 198.864Z" fill="#C67F77"/>
</g>
<defs>
<clipPath id="clip0_255_47392">
<rect width="250" height="250" fill="white" transform="translate(0.5)"/>
</clipPath>
</defs>
</svg>
