<svg width="25" height="25" viewBox="0 0 25 25" fill="none" xmlns="http://www.w3.org/2000/svg">
<rect x="0.5" y="0.5" width="24" height="24" rx="12" stroke="#26A387"/>
<g clip-path="url(#clip0_384_11976)">
<path fill-rule="evenodd" clip-rule="evenodd" d="M5.2841 6.45296C5.20382 6.54377 5.13802 6.67261 5.13802 6.73923C5.13802 6.80586 5.08544 6.8604 5.02116 6.8604C4.94485 6.8604 4.9043 8.80016 4.9043 12.447V18.0338L5.1912 18.3191L5.47798 18.6046H8.40495C11.2539 18.6046 11.3318 18.5984 11.3318 18.372C11.3318 18.1462 11.2539 18.1395 8.63564 18.1395C6.45473 18.1395 5.90746 18.1077 5.77248 17.9733C5.63516 17.8368 5.60548 17.186 5.60548 14.3105V10.8139H12.5005H19.3954V14.3105C19.3954 17.186 19.3657 17.8368 19.2284 17.9733C19.093 18.1081 18.5306 18.1395 16.2484 18.1395C13.5133 18.1395 13.4354 18.1459 13.4354 18.372C13.4354 18.5987 13.5133 18.6046 16.4749 18.6046H19.5144L19.8639 18.2723L20.2135 17.9398V12.3456C20.2135 7.42075 20.1925 6.75947 20.0382 6.8183C19.9401 6.85575 19.8629 6.82144 19.8629 6.74028C19.8629 6.29726 19.685 6.28633 12.442 6.28714C6.53256 6.28772 5.40716 6.31377 5.2841 6.45296ZM5.86842 6.88598C5.61518 7.00749 5.60548 7.06958 5.60548 8.56423V10.1162H12.5005H19.3954V8.56517C19.3954 7.01575 19.3951 7.01389 19.0978 6.87912C18.6927 6.6954 6.25197 6.70203 5.86842 6.88598ZM4.9584 12.4999C4.9584 15.6337 4.97348 16.8989 4.99183 15.3117C5.01029 13.7244 5.01018 11.1604 4.99183 9.614C4.97348 8.06749 4.9584 9.36621 4.9584 12.4999ZM8.66498 7.4747C8.5806 7.57586 8.61332 7.82726 8.77436 8.31528C9.20185 9.61121 9.23481 9.66656 9.55408 9.62819C9.79388 9.59924 9.88048 9.48458 10.0352 8.99098C10.139 8.65993 10.2629 8.3504 10.3104 8.30307C10.4339 8.18017 10.4176 7.46819 10.2895 7.38947C10.1287 7.29063 9.84916 7.61865 9.69303 8.08935L9.55466 8.50644L9.39152 8.19342C9.30177 8.02121 9.22826 7.8097 9.22826 7.7233C9.22826 7.48249 8.81176 7.29877 8.66498 7.4747ZM12.7634 7.46737C12.6188 7.53679 12.5005 7.68586 12.5005 7.79865C12.5005 7.91156 12.4348 8.03017 12.3544 8.06249C12.2375 8.10935 12.2375 8.12296 12.3544 8.13028C12.4348 8.13528 12.5005 8.19551 12.5005 8.264C12.5005 8.42877 12.7993 8.72086 12.9679 8.72086C13.1506 8.72086 13.4811 9.06296 13.3879 9.15563C13.3465 9.19691 13.1393 9.16819 12.9275 9.09203C12.4144 8.90737 12.2667 8.91726 12.2667 9.1361C12.2667 9.45342 12.6123 9.68284 13.0904 9.68284C13.6865 9.68284 13.9028 9.49098 13.9028 8.96214C13.9028 8.57505 13.8553 8.5104 13.4061 8.28586C13.0338 8.0997 12.9728 8.03586 13.1627 8.0304C13.3019 8.02644 13.4344 8.07854 13.4571 8.1461C13.5306 8.36551 13.9028 8.12237 13.9028 7.85505C13.9028 7.6897 13.7947 7.54644 13.6052 7.46051C13.2499 7.29935 13.1112 7.30051 12.7634 7.46737ZM15.139 7.61737C14.9733 7.79528 14.8377 8.064 14.8377 8.21458C14.8377 8.36517 14.7851 8.4883 14.7209 8.4883C14.6566 8.4883 14.604 8.61598 14.604 8.77214C14.604 8.9283 14.5514 9.0883 14.4871 9.12784C14.4229 9.16737 14.3703 9.30121 14.3703 9.4254C14.3703 9.58714 14.451 9.6511 14.6555 9.6511C14.8125 9.6511 14.9733 9.59877 15.013 9.53482C15.0528 9.47086 15.2399 9.41854 15.4289 9.41854C15.618 9.41854 15.7726 9.47086 15.7726 9.53482C15.7726 9.59877 15.9041 9.6511 16.0648 9.6511C16.4563 9.6511 16.4513 9.30749 16.0458 8.35063C15.5979 7.294 15.5079 7.22133 15.139 7.61737ZM11.0981 8.54644C11.0981 9.57354 11.1144 9.6511 11.3318 9.6511C11.5492 9.6511 11.5655 9.57354 11.5655 8.54644C11.5655 7.51935 11.5492 7.44179 11.3318 7.44179C11.1144 7.44179 11.0981 7.51935 11.0981 8.54644ZM7.80287 11.8557C7.25174 11.9121 6.83314 12.0177 6.72188 12.1283C6.57078 12.2787 6.54039 12.6719 6.54039 14.4767C6.54039 16.0596 6.57977 16.6818 6.68647 16.7828C7.04735 17.1248 7.52848 17.2092 9.11525 17.2092C10.9173 17.2092 11.7993 17.0507 11.7993 16.7269C11.7993 16.616 11.8519 16.493 11.9161 16.4534C11.9864 16.4103 12.033 15.6212 12.033 14.4767C12.033 13.3321 11.9864 12.5431 11.9161 12.4999C11.8519 12.4604 11.7993 12.3324 11.7993 12.2153C11.7993 12.0662 11.6857 11.9831 11.4195 11.9374C10.6778 11.81 8.68917 11.7652 7.80287 11.8557ZM13.114 11.9342C13.0337 11.9682 12.9679 12.0963 12.9679 12.2189C12.9679 12.432 13.0845 12.4418 15.6433 12.4418C18.0171 12.4418 18.3269 12.4203 18.3924 12.2507C18.4328 12.1456 18.4342 12.028 18.3953 11.9891C18.3073 11.9012 13.3145 11.8494 13.114 11.9342ZM7.08147 12.7034C6.99114 13.0389 6.98611 15.1721 7.07551 15.2611C7.11279 15.2981 7.37573 15.2496 7.65983 15.1532C8.06149 15.017 8.17649 14.921 8.17649 14.7216C8.17649 14.5805 8.11081 14.3996 8.03041 14.3195C7.93727 14.2267 7.88865 13.8603 7.89636 13.3078L7.90828 12.4418H7.53011C7.23678 12.4418 7.13616 12.5004 7.08147 12.7034ZM8.70097 12.6759C8.44878 12.9532 8.41033 13.8477 8.6388 14.1217C8.81784 14.3363 9.58715 14.3638 9.78921 14.1627C9.86634 14.086 9.92944 13.7575 9.92944 13.4327C9.92944 12.985 9.87265 12.7939 9.69443 12.642C9.38053 12.3747 8.96205 12.3889 8.70097 12.6759ZM10.3969 12.5512C10.3969 12.6114 10.4495 12.693 10.5138 12.7325C10.7871 12.9006 10.5492 14.5309 10.2508 14.5339C10.2026 14.5344 10.1632 14.6312 10.1632 14.749C10.1632 14.8937 10.3054 15.0092 10.6014 15.1054C10.8425 15.1835 11.1054 15.2747 11.1857 15.3078C11.298 15.3542 11.3318 15.0302 11.3318 13.9049V12.4418H10.8644C10.6073 12.4418 10.3969 12.491 10.3969 12.5512ZM12.9679 13.7148C12.9679 14.061 12.9816 14.0697 13.523 14.068C14.2238 14.0656 14.4788 13.9242 14.2998 13.6369C14.2091 13.4914 13.9927 13.4197 13.5694 13.395C12.969 13.3599 12.9679 13.3605 12.9679 13.7148ZM15.1883 13.5464C15.0723 13.6856 15.0723 13.7561 15.1883 13.8953C15.3027 14.0325 15.6316 14.0697 16.7302 14.0697C18.2364 14.0697 18.5752 13.9607 18.2873 13.5689C18.1652 13.4028 17.9229 13.372 16.7382 13.372C15.6324 13.372 15.3028 13.4091 15.1883 13.5464ZM8.67105 15.3488C8.59077 15.4767 8.45474 15.5813 8.36873 15.5813C8.14891 15.5813 7.52696 15.9025 7.36066 16.1019C7.07294 16.4469 7.36019 16.5116 9.18035 16.5116C10.6956 16.5116 10.9997 16.4827 11.0572 16.3337C11.1444 16.1076 10.686 15.7028 10.2431 15.6147C10.0603 15.5783 9.84974 15.4513 9.77518 15.3324C9.58353 15.027 8.86633 15.0376 8.67105 15.3488ZM15.422 16.7441C15.422 16.9752 15.475 16.9825 16.9121 16.9511C18.144 16.9241 18.4021 16.8883 18.4021 16.7441C18.4021 16.5999 18.144 16.5641 16.9121 16.5371C15.475 16.5057 15.422 16.5131 15.422 16.7441ZM12.1791 18.3134C11.963 18.5575 11.9961 18.6046 12.3836 18.6046C12.6562 18.6046 12.7342 18.553 12.7342 18.372C12.7342 18.0992 12.3998 18.0639 12.1791 18.3134Z" fill="#26A387"/>
</g>
<line x1="6.43731" y1="1.7576" x2="18.2085" y2="22.9934" stroke="#26A387"/>
<defs>
<clipPath id="clip0_384_11976">
<rect width="15.1923" height="15" fill="white" transform="translate(4.9043 5)"/>
</clipPath>
</defs>
</svg>
