<svg width="35" height="35" viewBox="0 0 35 35" fill="none" xmlns="http://www.w3.org/2000/svg">
<g clip-path="url(#clip0_384_11858)">
<path fill-rule="evenodd" clip-rule="evenodd" d="M1.42721 3.30018C1.20006 3.32853 1.1431 3.37885 1.12096 3.57056C1.09848 3.76533 1.04466 3.81075 0.809375 3.83341C0.5593 3.85756 0.525 3.89186 0.525 4.11778C0.525 4.34502 0.49455 4.37477 0.2625 4.37477H0V17.4998V30.6248H0.2625C0.49455 30.6248 0.525 30.6545 0.525 30.8818C0.525 31.1077 0.5593 31.142 0.809375 31.1661C1.04248 31.1886 1.09856 31.2348 1.12035 31.4229C1.14363 31.6235 1.19726 31.6592 1.54823 31.7072C1.7689 31.7375 4.83796 31.7623 8.3685 31.7623H14.7875V31.1935V30.6248H8.4875H2.1875V30.3623C2.1875 30.1317 2.15705 30.0998 1.9369 30.0998C1.70511 30.0998 1.6821 30.0693 1.63065 29.6938C1.55803 29.164 1.55803 14.5856 1.63065 14.0558L1.6863 13.6498H17.5H33.3137L33.3694 14.0558C33.442 14.5856 33.442 29.164 33.3694 29.6938C33.3179 30.0693 33.2949 30.0998 33.0631 30.0998C32.843 30.0998 32.8125 30.1317 32.8125 30.3623V30.6248H26.25H19.6875V31.1935V31.7623H26.369C30.0439 31.7623 33.2311 31.7375 33.4518 31.7072C33.8027 31.6592 33.8564 31.6235 33.8797 31.4229C33.9014 31.2348 33.9575 31.1886 34.1906 31.1661C34.4391 31.1422 34.475 31.107 34.475 30.8873C34.475 30.6676 34.5109 30.6324 34.7594 30.6084L35.0438 30.581L35.0659 17.4516L35.088 4.32236L34.7815 4.35815C34.4904 4.3921 34.475 4.38055 34.475 4.12741C34.475 3.89063 34.4432 3.85782 34.1906 3.83341C33.9575 3.81092 33.9014 3.76472 33.8797 3.57668C33.8564 3.37605 33.8027 3.34035 33.4518 3.29231C33.0238 3.2336 1.89814 3.2413 1.42721 3.30018ZM0.0426125 17.4998C0.0426125 24.7426 0.0529375 27.7055 0.065625 24.0841C0.078225 20.4627 0.078225 14.5368 0.065625 10.9154C0.0529375 7.29395 0.0426125 10.257 0.0426125 17.4998ZM2.1875 4.63727C2.1875 4.86897 2.15758 4.89977 1.932 4.89977C1.68271 4.89977 1.6751 4.91325 1.6212 5.44665C1.59084 5.74747 1.57789 7.35196 1.59241 9.01227L1.61875 12.031H17.5H33.3813L33.4076 9.01227C33.4221 7.35196 33.4092 5.74747 33.3788 5.44665C33.3249 4.91325 33.3173 4.89977 33.068 4.89977C32.8424 4.89977 32.8125 4.86897 32.8125 4.63727V4.37477H17.5H2.1875V4.63727ZM8.75 5.77477C8.75 6.00813 8.72086 6.03727 8.4875 6.03727C8.25414 6.03727 8.225 6.06641 8.225 6.29977C8.225 6.53313 8.25414 6.56227 8.4875 6.56227H8.75V7.39352V8.22477H9.0125C9.27071 8.22477 9.275 8.2323 9.27596 8.68415C9.27771 9.50271 9.35935 9.79977 9.58248 9.79977C9.76054 9.79977 9.78548 9.8549 9.84051 10.3685L9.90141 10.9373H10.6778H11.4542L11.4802 10.3904C11.5052 9.86627 11.5162 9.84238 11.7469 9.81587C11.9665 9.79058 11.9876 9.7562 11.9883 9.42212C11.9886 9.22078 12.0138 8.84935 12.0442 8.59665C12.0923 8.19633 12.1244 8.13727 12.2945 8.13727C12.5283 8.13727 12.5981 7.83592 12.5981 6.82477C12.5981 5.79577 12.5298 5.51227 12.2823 5.51227C12.1209 5.51227 12.075 5.55952 12.075 5.72551C12.075 5.90208 12.0262 5.94338 11.7906 5.96613C11.5063 5.99352 11.5063 5.99352 11.4802 6.5404C11.4545 7.08185 11.4516 7.08727 11.1958 7.08727H10.9375V7.65602V8.22477H10.6792C10.4234 8.22477 10.4206 8.21935 10.3948 7.6779C10.3698 7.15377 10.3588 7.12988 10.1281 7.10337C9.89608 7.0766 9.8875 7.05726 9.8875 6.56201V6.04838L9.60313 6.02091C9.36618 5.99807 9.31411 5.95336 9.2911 5.7529C9.26791 5.55138 9.22163 5.51227 9.00673 5.51227C8.77984 5.51227 8.75 5.54272 8.75 5.77477ZM18.6375 5.72402C18.6375 5.92011 18.5953 5.94032 18.0688 5.99676L17.5 6.05766V6.61617V7.17477H17.2375C17.0159 7.17477 16.975 7.20881 16.975 7.39352C16.975 7.57823 17.0159 7.61227 17.2375 7.61227C17.4792 7.61227 17.5 7.6366 17.5 7.91852C17.5 8.20045 17.5208 8.22477 17.7625 8.22477C17.9959 8.22477 18.025 8.25391 18.025 8.48727V8.74977H18.55H19.075V9.01227C19.075 9.25395 19.0993 9.27477 19.3813 9.27477C19.6632 9.27477 19.6875 9.2956 19.6875 9.53727V9.79977H18.9058H18.1241L18.0964 9.55915C18.0699 9.3285 18.046 9.31747 17.5219 9.29245L16.975 9.26646V9.83932V10.4123H17.2375C17.4709 10.4123 17.5 10.4414 17.5 10.6748V10.9373H18.0688H18.6375V11.1998C18.6375 11.4331 18.6666 11.4623 18.9 11.4623C19.1334 11.4623 19.1625 11.4331 19.1625 11.1998V10.9373H19.7313H20.3V10.6748C20.3 10.4414 20.3291 10.4123 20.5625 10.4123H20.825V9.72452C20.825 9.34617 20.8004 8.85731 20.7704 8.63803L20.7157 8.23938L20.2017 8.1798C19.7405 8.12625 19.6875 8.0993 19.6875 7.91852C19.6875 7.73722 19.6346 7.7108 19.1625 7.65602C18.6554 7.59713 18.6375 7.58637 18.6375 7.3412C18.6375 7.0892 18.6414 7.08727 19.1625 7.08727H19.6875V7.34977C19.6875 7.61157 19.6888 7.61227 20.2006 7.61227H20.7137L20.7677 7.21852C20.7974 7.00196 20.7974 6.64758 20.7677 6.43102L20.7137 6.03727H20.2006C19.6888 6.03727 19.6875 6.03657 19.6875 5.77477V5.51227H19.1625C18.6654 5.51227 18.6375 5.52356 18.6375 5.72402ZM24.0625 5.77477C24.0625 6.00813 24.0334 6.03727 23.8 6.03727C23.5666 6.03727 23.5375 6.06641 23.5375 6.29977C23.5375 6.53313 23.5084 6.56227 23.275 6.56227C23.0247 6.56227 23.0125 6.57942 23.0117 6.93415C23.0114 7.13872 22.9862 7.5127 22.9558 7.7654C22.9037 8.19966 22.8869 8.22477 22.6503 8.22477H22.4V9.01227V9.79977H22.1375H21.875V10.3685V10.9373H22.6625H23.45V10.6748V10.4123H24.2813H25.1125V10.6748V10.9373H25.6813H26.25V9.84352V8.74977H25.9875H25.725V8.18102V7.61227H25.4625C25.2109 7.61227 25.2 7.59635 25.2 7.23077C25.2 7.02086 25.175 6.66648 25.1444 6.44327C25.0929 6.06772 25.0699 6.03727 24.8381 6.03727C24.618 6.03727 24.5875 6.00533 24.5875 5.77477C24.5875 5.54141 24.5584 5.51227 24.325 5.51227C24.0916 5.51227 24.0625 5.54141 24.0625 5.77477ZM14.2334 6.00813C14.2013 6.04016 14.175 7.16235 14.175 8.50188V10.9373H14.7438H15.3125V8.44352V5.94977H14.8021C14.5213 5.94977 14.2654 5.97602 14.2334 6.00813ZM7.10938 15.8962L5.425 15.9285V16.1454C5.425 16.3521 5.40041 16.3623 4.9 16.3623H4.375V16.6248C4.375 16.8581 4.34586 16.8873 4.1125 16.8873H3.85V22.1373V27.3873H4.1125C4.34586 27.3873 4.375 27.4164 4.375 27.6498C4.375 27.8914 4.39933 27.9123 4.68125 27.9123C4.96318 27.9123 4.9875 27.9331 4.9875 28.1748V28.4373H9.8875H14.7875V28.1748C14.7875 27.9129 14.7886 27.9123 15.3024 27.9123H15.8171L15.878 27.3435C15.9345 26.8169 15.9547 26.7748 16.1508 26.7748H16.3625V22.1373V17.4998H16.1523C15.9609 17.4998 15.9368 17.4537 15.882 16.9809L15.8218 16.462L15.2609 16.4019C14.7451 16.3467 14.7 16.3252 14.7 16.1334V15.9248L13.3656 15.9245C12.6318 15.9244 11.3028 15.9107 10.4125 15.8941C9.52219 15.8775 8.03583 15.8785 7.10938 15.8962ZM19.1625 16.1435C19.1625 16.3273 19.1213 16.3623 18.9052 16.3623C18.5665 16.3623 18.5263 16.4485 18.5977 17.02L18.6576 17.4998H24.9038H31.15V16.931V16.3623H30.8875C30.6659 16.3623 30.625 16.3282 30.625 16.1435V15.9248H24.8938H19.1625V16.1435ZM4.9567 17.9591C4.92634 18.2118 4.90114 19.6883 4.90079 21.2404L4.9 24.0623H5.46875H6.0375V23.7998V23.5373H6.81284H7.58809L7.63656 23.1216C7.66316 22.893 7.6636 22.519 7.63735 22.2904C7.5929 21.9022 7.57321 21.8748 7.33863 21.8748C7.08785 21.8748 7.0875 21.8739 7.0875 21.306V20.7373H6.825H6.5625V19.6873V18.6373H6.825H7.0875V18.0685V17.4998H6.04966H5.01191L4.9567 17.9591ZM8.75 17.806C8.75 18.0879 8.72918 18.1123 8.4875 18.1123H8.225V19.731V21.3498H8.4875C8.72086 21.3498 8.75 21.3789 8.75 21.6123V21.8748H9.84375H10.9375V21.6123C10.9375 21.381 10.9677 21.3498 11.1912 21.3498C11.4412 21.3498 11.4456 21.3409 11.5068 20.7324C11.5408 20.3928 11.5405 19.6447 11.506 19.0699L11.4432 18.0248H11.1903C10.9678 18.0248 10.9375 17.9934 10.9375 17.7623V17.4998H9.84375H8.75V17.806ZM12.6 17.7623C12.6 17.9956 12.6291 18.0248 12.8625 18.0248H13.125V19.6873V21.3498H12.8625H12.6V21.8748V22.3998H12.3375C12.0757 22.3998 12.075 22.4011 12.075 22.9129V23.426L12.481 23.4816C12.7042 23.5122 13.0586 23.5373 13.2685 23.5373C13.6341 23.5373 13.65 23.5482 13.65 23.7998V24.0623H14.2188H14.7875V20.781V17.4998H13.6938H12.6V17.7623ZM18.6073 20.081C18.5777 20.2976 18.5773 20.6493 18.6065 20.8627L18.6597 21.2507L19.1955 21.306C19.4902 21.3365 20.0856 21.3489 20.5188 21.3337C21.305 21.306 21.3063 21.3057 21.3339 21.0654C21.3571 20.8639 21.4034 20.8248 21.6183 20.8248C21.8533 20.8248 21.875 20.799 21.875 20.5185C21.875 20.2366 21.8542 20.2123 21.6125 20.2123C21.3791 20.2123 21.35 20.1831 21.35 19.9498V19.6873H20.0057H18.6613L18.6073 20.081ZM23.5375 20.256V20.8248H23.8C24.0334 20.8248 24.0625 20.8539 24.0625 21.0873V21.3498H27.3438H30.625V21.0873C30.625 20.8539 30.6541 20.8248 30.8875 20.8248C31.1292 20.8248 31.15 20.8004 31.15 20.5185C31.15 20.2366 31.1292 20.2123 30.8875 20.2123C30.6541 20.2123 30.625 20.1831 30.625 19.9498V19.6873H27.0813H23.5375V20.256ZM8.75 24.0623V24.5873L8.29063 24.5882C7.47206 24.59 7.175 24.6716 7.175 24.8947C7.175 25.0728 7.11988 25.0977 6.60625 25.1528C6.05001 25.2124 6.0375 25.2193 6.0375 25.4693C6.0375 25.6948 6.0067 25.7248 5.775 25.7248H5.5125V26.2498V26.7748H9.8875H14.2625V26.2553V25.7359L13.9781 25.7084C13.7439 25.6858 13.689 25.6401 13.6668 25.4484C13.642 25.2341 13.5995 25.2111 13.125 25.156C12.6505 25.101 12.608 25.078 12.5832 24.8636C12.5577 24.6427 12.5286 24.6297 12.0094 24.6049C11.4679 24.5792 11.4625 24.5763 11.4625 24.3206C11.4625 24.0919 11.4324 24.0623 11.2 24.0623C10.9666 24.0623 10.9375 24.0331 10.9375 23.7998V23.5373H9.84375H8.75V24.0623ZM24.3469 26.838L24.0625 26.8734V27.3928V27.9123H27.6063H31.15V27.3992V26.8861L30.744 26.8304C30.3141 26.7715 24.8305 26.778 24.3469 26.838ZM16.8875 30.8873C16.8875 31.1089 16.8535 31.1498 16.6688 31.1498C16.4863 31.1498 16.45 31.1914 16.45 31.4004C16.45 31.631 16.4813 31.6553 16.8438 31.705C17.0603 31.7346 17.4147 31.7346 17.6313 31.705L18.025 31.651V31.1379V30.6248H17.4563H16.8875V30.8873Z" fill="#26A387"/>
</g>
<defs>
<clipPath id="clip0_384_11858">
<rect width="35" height="35" fill="white"/>
</clipPath>
</defs>
</svg>
