<svg width="26" height="25" viewBox="0 0 26 25" fill="none" xmlns="http://www.w3.org/2000/svg">
<path fill-rule="evenodd" clip-rule="evenodd" d="M5.57722 2.69261V4.61569H3.17338H0.769531V14.4234V24.2311H8.74126C13.8865 24.2311 16.8695 24.1597 17.1547 24.0297C17.9493 23.6674 18.0772 23.0368 18.0772 19.4813C18.0772 17.3915 18.1488 16.1541 18.2695 16.1541C18.3753 16.1541 18.4618 16.0243 18.4618 15.8657C18.4618 15.707 18.5484 15.5772 18.6541 15.5772C18.7599 15.5772 18.8465 15.4041 18.8465 15.1926C18.8465 14.9811 18.933 14.808 19.0388 14.808C19.1445 14.808 19.2311 14.6349 19.2311 14.4234C19.2311 14.2118 19.307 14.0388 19.4001 14.0388C19.493 14.0388 19.6766 13.7791 19.808 13.4618C19.9393 13.1445 20.123 12.8849 20.2159 12.8849C20.309 12.8849 20.3849 12.7118 20.3849 12.5003C20.3849 12.2888 20.4609 12.1157 20.554 12.1157C20.6468 12.1157 20.8334 11.8488 20.9686 11.5224C21.1038 11.1961 21.309 10.8249 21.4247 10.6976C21.6386 10.4622 21.6918 10.3716 22.5143 8.84645C22.7711 8.37049 23.0245 7.9378 23.0776 7.88492C23.1305 7.83203 23.3036 7.52915 23.4618 7.21184C23.6201 6.89453 23.7932 6.59165 23.8461 6.53876C24.0757 6.30992 24.4234 5.55857 24.4234 5.29145C24.4234 5.13126 24.2936 5.0003 24.1349 5.0003C23.9763 5.0003 23.8465 4.91376 23.8465 4.80799C23.8465 4.70222 23.7166 4.61569 23.558 4.61569C23.3993 4.61569 23.2695 4.52915 23.2695 4.42338C23.2695 4.31761 23.0965 4.23107 22.8849 4.23107C22.6734 4.23107 22.5003 4.14453 22.5003 4.03876C22.5003 3.93299 22.3272 3.84645 22.1157 3.84645C21.9041 3.84645 21.7311 3.75992 21.7311 3.65415C21.7311 3.54838 21.6013 3.46184 21.4426 3.46184C21.284 3.46184 21.1541 3.3753 21.1541 3.26953C21.1541 3.16376 20.9811 3.07722 20.7695 3.07722C20.558 3.07722 20.3849 3.00068 20.3849 2.90742C20.3849 2.81395 20.2336 2.68953 20.0484 2.63069C19.6763 2.5128 18.6128 1.89472 18.4618 1.70876C18.2859 1.49222 16.7507 0.769531 16.4665 0.769531C16.3124 0.769531 16.0715 1.02915 15.9311 1.34645C15.7905 1.66376 15.6103 1.92338 15.5303 1.92338C15.4503 1.92338 15.3849 2.09645 15.3849 2.30799C15.3849 2.51953 15.2984 2.69261 15.1926 2.69261C15.0868 2.69261 15.0003 2.25992 15.0003 1.73107V0.769531H10.2888H5.57722V2.69261ZM6.34645 3.07722V4.61569H7.11568H7.88492V3.07722V1.53876H7.11568H6.34645V3.07722ZM8.65415 3.07722V4.61569H9.80799H10.9618V3.84645C10.9618 3.20549 11.0259 3.07722 11.3465 3.07722C11.667 3.07722 11.7311 3.20549 11.7311 3.84645C11.7311 4.47857 11.7974 4.61569 12.1028 4.61569C12.3072 4.61569 12.5293 4.44261 12.5965 4.23107C12.6636 4.01953 12.8857 3.84645 13.0901 3.84645C13.3336 3.84645 13.4618 3.97915 13.4618 4.23107C13.4618 4.48742 13.5901 4.61569 13.8465 4.61569C14.199 4.61569 14.2311 4.48742 14.2311 3.07722V1.53876H11.4426H8.65415V3.07722ZM16.5388 2.01953C16.5388 2.17819 16.4522 2.30799 16.3465 2.30799C16.2407 2.30799 16.1541 2.42145 16.1541 2.56011C16.1541 2.69895 15.9811 2.99819 15.7695 3.2253C15.558 3.45222 15.3849 3.76434 15.3849 3.91857C15.3849 4.0728 15.2776 4.23472 15.1463 4.27857C14.8651 4.37222 15.2359 4.80395 15.9051 5.16222C16.4691 5.46415 16.5388 5.44645 16.5388 5.0003C16.5388 4.78876 16.6253 4.61569 16.7311 4.61569C16.8368 4.61569 16.9234 4.46165 16.9234 4.27357C16.9234 4.0853 17.0965 3.80665 17.308 3.65415C17.5195 3.50165 17.6926 3.22299 17.6926 3.03472C17.6926 2.84665 17.7791 2.69261 17.8849 2.69261C18.2965 2.69261 18.0453 2.36395 17.3976 2.05511C16.5688 1.65992 16.5388 1.65857 16.5388 2.01953ZM9.42338 3.07722C9.42338 3.71819 9.48742 3.84645 9.80799 3.84645C10.1286 3.84645 10.1926 3.71819 10.1926 3.07722C10.1926 2.43626 10.1286 2.30799 9.80799 2.30799C9.48742 2.30799 9.42338 2.43626 9.42338 3.07722ZM12.6926 2.70665C12.6926 2.98184 12.7963 3.08549 13.027 3.04107C13.5282 2.94453 13.5841 2.30799 13.0913 2.30799C12.8161 2.30799 12.6926 2.43145 12.6926 2.70665ZM18.3176 3.36492C18.1855 3.51511 18.0772 3.77145 18.0772 3.93453C18.0772 4.09761 17.9907 4.23107 17.8849 4.23107C17.7791 4.23107 17.6926 4.40415 17.6926 4.61569C17.6926 4.82722 17.6061 5.0003 17.5003 5.0003C17.3945 5.0003 17.308 5.13011 17.308 5.28876C17.308 5.44742 17.2215 5.57722 17.1157 5.57722C17.0099 5.57722 16.9234 5.70703 16.9234 5.86568C16.9234 6.02434 16.8368 6.15415 16.7311 6.15415C16.6253 6.15415 16.5388 6.35992 16.5388 6.61165C16.5388 6.94126 16.7043 7.13761 17.132 7.31472C17.4584 7.44992 17.8295 7.65511 17.9568 7.77088C18.0841 7.88645 18.358 8.07549 18.5655 8.19088C18.7728 8.30626 19.4359 8.67434 20.039 9.00876L21.1351 9.61665L21.8178 8.45203C22.1932 7.81145 22.5003 7.20549 22.5003 7.1053C22.5003 7.0053 22.5653 6.92261 22.6445 6.92184C22.7957 6.9203 23.2695 6.00703 23.2695 5.71742C23.2695 5.44338 22.7432 5.0003 22.4178 5.0003C22.2516 5.0003 22.1157 4.91376 22.1157 4.80799C22.1157 4.70222 21.9859 4.61569 21.8272 4.61569C21.6686 4.61569 21.5388 4.52915 21.5388 4.42338C21.5388 4.31761 21.3657 4.23107 21.1541 4.23107C20.9426 4.23107 20.7695 4.14453 20.7695 4.03876C20.7695 3.93299 20.6397 3.84645 20.4811 3.84645C20.3224 3.84645 20.1918 3.78165 20.1911 3.70222C20.1891 3.51415 19.2401 3.07511 18.8563 3.08453C18.6922 3.08857 18.4499 3.21472 18.3176 3.36492ZM18.787 4.29319C18.3384 4.84607 18.3676 5.38492 18.8465 5.38492C19.0972 5.38492 19.2311 5.25665 19.2311 5.01626C19.2311 4.81357 19.3384 4.61203 19.4697 4.56819C19.647 4.50915 19.6316 4.41184 19.4103 4.19049C19.1411 3.92126 19.0807 3.93107 18.787 4.29319ZM1.53876 14.4234V23.4618H8.35472H15.1709L15.4701 23.0343C15.7297 22.6638 15.7695 21.5182 15.7695 14.4141V6.22126L15.3245 5.80299C14.8851 5.3903 14.793 5.38492 8.20915 5.38492H1.53876V14.4234ZM19.6503 5.86722C19.4197 6.13242 19.2311 6.47126 19.2311 6.6203C19.2311 6.76934 19.123 6.93145 18.9907 6.98049C18.8143 7.04588 18.8395 7.16319 19.0849 7.42049C19.4086 7.75972 19.429 7.75896 19.7038 7.39549C19.8601 7.18876 19.9909 6.91145 19.9941 6.77915C19.9976 6.64703 20.0868 6.53876 20.1926 6.53876C20.2984 6.53876 20.3849 6.27915 20.3849 5.96184C20.3849 5.25857 20.2003 5.23472 19.6503 5.86722ZM21.6303 5.77703C21.4461 6.07511 21.7722 6.36645 22.0784 6.17722C22.2766 6.05472 22.2701 5.97761 22.0457 5.79126C21.8386 5.61934 21.7301 5.61568 21.6303 5.77703ZM17.6926 6.53876C17.6926 6.99145 17.8145 7.02126 18.178 6.6578C18.4632 6.37261 18.3638 6.15415 17.949 6.15415C17.808 6.15415 17.6926 6.32722 17.6926 6.53876ZM4.42338 7.30799C4.42338 7.68088 4.55165 7.69261 8.65415 7.69261C12.7566 7.69261 12.8849 7.68088 12.8849 7.30799C12.8849 6.93511 12.7566 6.92338 8.65415 6.92338C4.55165 6.92338 4.42338 6.93511 4.42338 7.30799ZM20.6991 7.27953C20.1138 7.92645 20.4399 8.76395 21.0424 8.16145C21.3715 7.83242 21.4486 7.20145 21.1799 7.03549C21.0882 6.97876 20.8718 7.08857 20.6991 7.27953ZM16.5388 8.54203C16.5388 8.79761 16.647 9.05722 16.7791 9.11895C16.9715 9.20857 16.9715 9.25357 16.7791 9.34319C16.4951 9.47588 16.4509 10.9618 16.7311 10.9618C16.8368 10.9618 16.9234 10.8205 16.9234 10.6478C16.9234 10.3755 17.5957 9.61569 17.8366 9.61569C17.9857 9.61569 19.1184 10.2799 19.3732 10.5168C19.5297 10.6622 19.5484 10.7884 19.4249 10.8647C19.3182 10.9307 19.2311 11.1524 19.2311 11.3578C19.2311 11.5632 19.1445 11.7311 19.0388 11.7311C18.933 11.7311 18.8465 11.8851 18.8465 12.0732C18.8465 12.2615 18.6734 12.5401 18.4618 12.6926C18.2503 12.8451 18.0772 13.1238 18.0772 13.312C18.0772 13.5001 17.9907 13.6541 17.8849 13.6541C17.7791 13.6541 17.6926 13.8272 17.6926 14.0388C17.6926 14.2503 17.6061 14.4234 17.5003 14.4234C17.3945 14.4234 17.308 14.5532 17.308 14.7118C17.308 14.8705 17.2215 15.0003 17.1157 15.0003C17.0099 15.0003 16.9234 15.1734 16.9234 15.3849C16.9234 15.5965 16.8368 15.7695 16.7311 15.7695C16.6253 15.7695 16.5388 16.1157 16.5388 16.5388C16.5388 16.9618 16.6253 17.308 16.7311 17.308C16.8368 17.308 16.9234 17.1349 16.9234 16.9234C16.9234 16.7118 17.0099 16.5388 17.1157 16.5388C17.2215 16.5388 17.308 16.409 17.308 16.2503C17.308 16.0916 17.3945 15.9618 17.5003 15.9618C17.6061 15.9618 17.6926 15.7961 17.6926 15.5932C17.6926 15.3905 17.7576 15.1959 17.8368 15.1605C18.0174 15.0803 18.6418 14.0561 18.7845 13.6061C18.8434 13.4209 18.9678 13.2695 19.0613 13.2695C19.1545 13.2695 19.2311 13.0965 19.2311 12.8849C19.2311 12.6734 19.2995 12.5003 19.3832 12.5003C19.4668 12.5003 19.779 12.019 20.0768 11.4309C20.6922 10.2155 20.7247 10.2803 19.0724 9.42011C18.578 9.16261 18.1301 8.89703 18.0772 8.82992C17.9661 8.68876 16.8018 8.07722 16.6445 8.07722C16.5863 8.07722 16.5388 8.28626 16.5388 8.54203ZM7.01953 9.68415C6.70222 9.80511 6.06703 10.2699 5.60818 10.7172C4.47434 11.8218 4.09415 13.1759 4.49107 14.6959C4.64069 15.2688 4.94626 15.934 5.17011 16.1743C5.39395 16.4147 5.57722 16.6628 5.57722 16.7259C5.57722 16.8949 6.72645 17.5557 7.5003 17.8315C8.64242 18.2386 9.69799 18.0641 11.058 17.2434C13.0424 16.0459 13.5245 12.8938 12.0078 11.0345C10.8518 9.6178 8.7128 9.03876 7.01953 9.68415ZM17.6926 10.9193C17.6926 11.1076 17.5195 11.3863 17.308 11.5388C17.0965 11.6913 16.9234 11.9699 16.9234 12.1582C16.9234 12.3463 16.8368 12.5003 16.7311 12.5003C16.6253 12.5003 16.5388 12.8465 16.5388 13.2695C16.5388 13.6926 16.6253 14.0388 16.7311 14.0388C16.8368 14.0388 16.9234 13.8847 16.9234 13.6966C16.9234 13.5084 17.0965 13.2297 17.308 13.0772C17.5195 12.9247 17.6926 12.6461 17.6926 12.4578C17.6926 12.2697 17.7791 12.1157 17.8849 12.1157C17.9907 12.1157 18.0772 11.9426 18.0772 11.7311C18.0772 11.5195 18.1638 11.3465 18.2695 11.3465C18.5799 11.3465 18.4899 10.8215 18.1576 10.694C17.7209 10.5263 17.6926 10.5399 17.6926 10.9193ZM6.34645 11.1541C6.34645 11.2599 6.43299 11.3465 6.53876 11.3465C6.64453 11.3465 6.73107 11.2599 6.73107 11.1541C6.73107 11.0484 6.64453 10.9618 6.53876 10.9618C6.43299 10.9618 6.34645 11.0484 6.34645 11.1541ZM7.74068 11.2495C7.40761 11.6278 7.43857 11.7311 7.88492 11.7311C8.14126 11.7311 8.26953 11.6028 8.26953 11.3465C8.26953 10.8988 8.08011 10.864 7.74068 11.2495ZM9.03876 11.3465C9.03876 11.6028 9.16703 11.7311 9.42338 11.7311C9.87895 11.7311 9.90588 11.6091 9.53319 11.2366C9.16069 10.864 9.03876 10.8909 9.03876 11.3465ZM10.5772 11.1541C10.5772 11.2599 10.6638 11.3465 10.7695 11.3465C10.8753 11.3465 10.9618 11.2599 10.9618 11.1541C10.9618 11.0484 10.8753 10.9618 10.7695 10.9618C10.6638 10.9618 10.5772 11.0484 10.5772 11.1541ZM5.43299 12.4034C5.06742 12.8186 5.14261 13.2695 5.57722 13.2695C5.78876 13.2695 5.96184 13.1468 5.96184 12.9968C5.96184 12.8468 6.01434 12.5872 6.07857 12.4199C6.2253 12.0372 5.76569 12.0255 5.43299 12.4034ZM11.2297 12.4199C11.294 12.5872 11.3465 12.8468 11.3465 12.9968C11.3465 13.1468 11.5195 13.2695 11.7311 13.2695C12.1813 13.2695 12.2413 12.7907 11.8409 12.3905C11.4715 12.0209 11.0838 12.0395 11.2297 12.4199ZM6.73107 12.8849C6.73107 13.2055 6.85934 13.2695 7.5003 13.2695C8.14126 13.2695 8.26953 13.2055 8.26953 12.8849C8.26953 12.5643 8.14126 12.5003 7.5003 12.5003C6.85934 12.5003 6.73107 12.5643 6.73107 12.8849ZM9.03876 12.8849C9.03876 13.2055 9.16703 13.2695 9.80799 13.2695C10.449 13.2695 10.5772 13.2055 10.5772 12.8849C10.5772 12.5643 10.449 12.5003 9.80799 12.5003C9.16703 12.5003 9.03876 12.5643 9.03876 12.8849ZM5.19876 14.3753C5.20761 14.8649 5.73338 15.499 5.9478 15.2784C6.25165 14.9657 5.9578 14.0388 5.55472 14.0388C5.33569 14.0388 5.19511 14.1718 5.19876 14.3753ZM6.73107 14.4234C6.73107 14.744 6.85934 14.808 7.5003 14.808C8.14126 14.808 8.26953 14.744 8.26953 14.4234C8.26953 14.1028 8.14126 14.0388 7.5003 14.0388C6.85934 14.0388 6.73107 14.1028 6.73107 14.4234ZM9.03876 14.4234C9.03876 14.744 9.16703 14.808 9.80799 14.808C10.449 14.808 10.5772 14.744 10.5772 14.4234C10.5772 14.1028 10.449 14.0388 9.80799 14.0388C9.16703 14.0388 9.03876 14.1028 9.03876 14.4234ZM11.2876 14.5676C11.1493 15.2718 11.4549 15.5693 11.8203 15.0861C12.2224 14.5545 12.1895 14.0388 11.7536 14.0388C11.5116 14.0388 11.3568 14.2145 11.2876 14.5676ZM7.69261 15.7695C7.5003 15.8938 7.48434 15.9568 7.64453 15.959C7.77684 15.9605 7.88492 16.0916 7.88492 16.2503C7.88492 16.409 7.97145 16.5388 8.07722 16.5388C8.18299 16.5388 8.26953 16.3224 8.26953 16.058C8.26953 15.5401 8.14453 15.4776 7.69261 15.7695ZM9.10203 15.8818C9.03915 16.0459 9.08569 16.278 9.20549 16.3978C9.3678 16.5601 9.42338 16.5363 9.42338 16.3047C9.42338 16.1338 9.52722 15.9593 9.65395 15.917C9.79645 15.8695 9.75684 15.7911 9.55068 15.7118C9.33703 15.6299 9.1753 15.6913 9.10203 15.8818ZM6.34645 16.1541C6.34645 16.2599 6.43818 16.3465 6.55011 16.3465C6.66203 16.3465 6.7003 16.2599 6.63492 16.1541C6.56953 16.0484 6.47799 15.9618 6.43126 15.9618C6.38453 15.9618 6.34645 16.0484 6.34645 16.1541ZM10.6734 16.1541C10.608 16.2599 10.6463 16.3465 10.7582 16.3465C10.8701 16.3465 10.9618 16.2599 10.9618 16.1541C10.9618 16.0484 10.9238 15.9618 10.877 15.9618C10.8303 15.9618 10.7388 16.0484 10.6734 16.1541ZM16.9234 18.4618C16.9234 18.6734 16.8368 18.8465 16.7311 18.8465C16.6145 18.8465 16.5388 19.6797 16.5388 20.9618C16.5388 22.244 16.463 23.0772 16.3465 23.0772C16.2407 23.0772 16.1541 23.1638 16.1541 23.2695C16.1541 23.5551 16.7182 23.5022 17.0332 23.187C17.364 22.8565 17.4411 18.0772 17.1157 18.0772C17.0099 18.0772 16.9234 18.2503 16.9234 18.4618ZM5.57722 20.0003C5.57722 20.369 5.70549 20.3849 8.65415 20.3849C11.6028 20.3849 11.7311 20.369 11.7311 20.0003C11.7311 19.6316 11.6028 19.6157 8.65415 19.6157C5.70549 19.6157 5.57722 19.6316 5.57722 20.0003ZM7.5003 21.5388C7.5003 21.8807 7.62857 21.9234 8.65415 21.9234C9.67972 21.9234 9.80799 21.8807 9.80799 21.5388C9.80799 21.1968 9.67972 21.1541 8.65415 21.1541C7.62857 21.1541 7.5003 21.1968 7.5003 21.5388Z" fill="#26A387"/>
</svg>
